<?xml version="1.0"?>
<svg version="1.1" id="topsvg"
xmlns="http://www.w3.org/2000/svg" xmlns:xlink="http://www.w3.org/1999/xlink"
xmlns:cml="http://www.xml-cml.org/schema" x="0" y="0" width="200px" height="200px" viewBox="0 0 100 100">
<title> - Open Babel Depiction</title>
<rect x="0" y="0" width="100" height="100" fill="white"/>
<g transform="translate(0,0)">
<svg width="100" height="100" x="0" y="0" viewBox="0 0 510.049 502.355"
font-family="sans-serif" stroke="rgb(0,0,0)" stroke-width="2"  stroke-linecap="round">
<line x1="390.1" y1="252.5" x2="349.8" y2="252.5" stroke="rgb(0,0,0)"  stroke-width="2.0"/>
<line x1="280.1" y1="278.2" x2="270.3" y2="268.4" stroke="rgb(0,0,0)"  stroke-width="2.0"/>
<line x1="254.4" y1="347.8" x2="254.4" y2="388.1" stroke="rgb(0,0,0)"  stroke-width="2.0"/>
<line x1="159.0" y1="252.5" x2="118.7" y2="252.5" stroke="rgb(0,0,0)"  stroke-width="2.0"/>
<line x1="228.7" y1="226.7" x2="238.5" y2="236.6" stroke="rgb(0,0,0)"  stroke-width="2.0"/>
<line x1="254.4" y1="157.1" x2="254.4" y2="116.8" stroke="rgb(0,0,0)"  stroke-width="2.0"/>
<line x1="329.6" y1="287.4" x2="302.3" y2="287.4" stroke="rgb(0,0,0)"  stroke-width="2.0"/>
<line x1="289.3" y1="300.4" x2="289.3" y2="327.7" stroke="rgb(0,0,0)"  stroke-width="2.0"/>
<line x1="289.3" y1="327.7" x2="324.2" y2="347.8" stroke="rgb(0,0,0)"  stroke-width="2.0"/>
<line x1="324.2" y1="347.8" x2="349.8" y2="322.3" stroke="rgb(0,0,0)"  stroke-width="2.0"/>
<line x1="323.4" y1="338.5" x2="340.4" y2="321.4" stroke="rgb(0,0,0)"  stroke-width="2.0"/>
<line x1="349.8" y1="322.3" x2="329.6" y2="287.4" stroke="rgb(0,0,0)"  stroke-width="2.0"/>
<line x1="179.2" y1="217.6" x2="159.0" y2="182.6" stroke="rgb(0,0,0)"  stroke-width="2.0"/>
<line x1="182.4" y1="208.8" x2="168.3" y2="184.2" stroke="rgb(0,0,0)"  stroke-width="2.0"/>
<line x1="159.0" y1="182.6" x2="184.6" y2="157.1" stroke="rgb(0,0,0)"  stroke-width="2.0"/>
<line x1="184.6" y1="157.1" x2="219.5" y2="177.3" stroke="rgb(0,0,0)"  stroke-width="2.0"/>
<line x1="186.2" y1="166.3" x2="210.7" y2="180.5" stroke="rgb(0,0,0)"  stroke-width="2.0"/>
<line x1="219.5" y1="177.3" x2="219.5" y2="204.6" stroke="rgb(0,0,0)"  stroke-width="2.0"/>
<line x1="206.5" y1="217.6" x2="179.2" y2="217.6" stroke="rgb(0,0,0)"  stroke-width="2.0"/>
<line x1="454.3" y1="279.7" x2="470.0" y2="242.6" stroke="rgb(0,0,0)"  stroke-width="2.0"/>
<line x1="450.0" y1="271.4" x2="461.1" y2="245.3" stroke="rgb(0,0,0)"  stroke-width="2.0"/>
<line x1="470.0" y1="242.6" x2="445.8" y2="210.4" stroke="rgb(0,0,0)"  stroke-width="2.0"/>
<line x1="445.8" y1="210.4" x2="405.8" y2="215.4" stroke="rgb(0,0,0)"  stroke-width="2.0"/>
<line x1="440.7" y1="218.3" x2="412.6" y2="221.8" stroke="rgb(0,0,0)"  stroke-width="2.0"/>
<line x1="405.8" y1="215.4" x2="390.1" y2="252.5" stroke="rgb(0,0,0)"  stroke-width="2.0"/>
<line x1="390.1" y1="252.5" x2="414.3" y2="284.6" stroke="rgb(0,0,0)"  stroke-width="2.0"/>
<line x1="399.4" y1="252.9" x2="416.5" y2="275.5" stroke="rgb(0,0,0)"  stroke-width="2.0"/>
<line x1="414.3" y1="284.6" x2="454.3" y2="279.7" stroke="rgb(0,0,0)"  stroke-width="2.0"/>
<line x1="310.1" y1="430.2" x2="285.8" y2="462.4" stroke="rgb(0,0,0)"  stroke-width="2.0"/>
<line x1="300.7" y1="430.6" x2="283.7" y2="453.2" stroke="rgb(0,0,0)"  stroke-width="2.0"/>
<line x1="285.8" y1="462.4" x2="245.8" y2="457.4" stroke="rgb(0,0,0)"  stroke-width="2.0"/>
<line x1="245.8" y1="457.4" x2="230.1" y2="420.3" stroke="rgb(0,0,0)"  stroke-width="2.0"/>
<line x1="250.1" y1="449.1" x2="239.1" y2="423.0" stroke="rgb(0,0,0)"  stroke-width="2.0"/>
<line x1="230.1" y1="420.3" x2="254.4" y2="388.1" stroke="rgb(0,0,0)"  stroke-width="2.0"/>
<line x1="254.4" y1="388.1" x2="294.4" y2="393.1" stroke="rgb(0,0,0)"  stroke-width="2.0"/>
<line x1="259.5" y1="396.0" x2="287.5" y2="399.5" stroke="rgb(0,0,0)"  stroke-width="2.0"/>
<line x1="294.4" y1="393.1" x2="310.1" y2="430.2" stroke="rgb(0,0,0)"  stroke-width="2.0"/>
<line x1="52.2" y1="273.7" x2="40.0" y2="235.2" stroke="rgb(0,0,0)"  stroke-width="2.0"/>
<line x1="57.3" y1="265.8" x2="48.7" y2="238.8" stroke="rgb(0,0,0)"  stroke-width="2.0"/>
<line x1="40.0" y1="235.2" x2="67.1" y2="205.5" stroke="rgb(0,0,0)"  stroke-width="2.0"/>
<line x1="67.1" y1="205.5" x2="106.5" y2="214.1" stroke="rgb(0,0,0)"  stroke-width="2.0"/>
<line x1="71.5" y1="213.8" x2="99.1" y2="219.8" stroke="rgb(0,0,0)"  stroke-width="2.0"/>
<line x1="106.5" y1="214.1" x2="118.7" y2="252.5" stroke="rgb(0,0,0)"  stroke-width="2.0"/>
<line x1="118.7" y1="252.5" x2="91.6" y2="282.3" stroke="rgb(0,0,0)"  stroke-width="2.0"/>
<line x1="109.4" y1="252.1" x2="90.3" y2="273.0" stroke="rgb(0,0,0)"  stroke-width="2.0"/>
<line x1="91.6" y1="282.3" x2="52.2" y2="273.7" stroke="rgb(0,0,0)"  stroke-width="2.0"/>
<line x1="239.5" y1="48.6" x2="278.8" y2="40.0" stroke="rgb(0,0,0)"  stroke-width="2.0"/>
<line x1="246.9" y1="54.4" x2="274.5" y2="48.3" stroke="rgb(0,0,0)"  stroke-width="2.0"/>
<line x1="278.8" y1="40.0" x2="306.0" y2="69.8" stroke="rgb(0,0,0)"  stroke-width="2.0"/>
<line x1="306.0" y1="69.8" x2="293.8" y2="108.2" stroke="rgb(0,0,0)"  stroke-width="2.0"/>
<line x1="297.3" y1="73.3" x2="288.7" y2="100.3" stroke="rgb(0,0,0)"  stroke-width="2.0"/>
<line x1="293.8" y1="108.2" x2="254.4" y2="116.8" stroke="rgb(0,0,0)"  stroke-width="2.0"/>
<line x1="254.4" y1="116.8" x2="227.2" y2="87.0" stroke="rgb(0,0,0)"  stroke-width="2.0"/>
<line x1="255.7" y1="107.5" x2="236.6" y2="86.6" stroke="rgb(0,0,0)"  stroke-width="2.0"/>
<line x1="227.2" y1="87.0" x2="239.5" y2="48.6" stroke="rgb(0,0,0)"  stroke-width="2.0"/>
<line x1="219.5" y1="327.7" x2="184.6" y2="347.8" stroke="rgb(0,0,0)"  stroke-width="2.0"/>
<line x1="184.6" y1="347.8" x2="159.0" y2="322.3" stroke="rgb(0,0,0)"  stroke-width="2.0"/>
<line x1="185.4" y1="338.5" x2="168.4" y2="321.4" stroke="rgb(0,0,0)"  stroke-width="2.0"/>
<line x1="159.0" y1="322.3" x2="179.2" y2="287.4" stroke="rgb(0,0,0)"  stroke-width="2.0"/>
<line x1="179.2" y1="287.4" x2="206.5" y2="287.4" stroke="rgb(0,0,0)"  stroke-width="2.0"/>
<line x1="219.5" y1="300.7" x2="219.5" y2="327.7" stroke="rgb(0,0,0)"  stroke-width="2.0"/>
<line x1="212.3" y1="302.7" x2="212.3" y2="321.7" stroke="rgb(0,0,0)"  stroke-width="2.0"/>
<line x1="289.3" y1="177.3" x2="289.3" y2="204.6" stroke="rgb(0,0,0)"  stroke-width="2.0"/>
<line x1="302.6" y1="217.6" x2="329.6" y2="217.6" stroke="rgb(0,0,0)"  stroke-width="2.0"/>
<line x1="304.6" y1="210.4" x2="323.6" y2="210.4" stroke="rgb(0,0,0)"  stroke-width="2.0"/>
<line x1="329.6" y1="217.6" x2="349.8" y2="182.6" stroke="rgb(0,0,0)"  stroke-width="2.0"/>
<line x1="349.8" y1="182.6" x2="324.2" y2="157.1" stroke="rgb(0,0,0)"  stroke-width="2.0"/>
<line x1="340.4" y1="183.5" x2="323.4" y2="166.4" stroke="rgb(0,0,0)"  stroke-width="2.0"/>
<line x1="324.2" y1="157.1" x2="289.3" y2="177.3" stroke="rgb(0,0,0)"  stroke-width="2.0"/>
<line x1="289.3" y1="327.7" x2="254.4" y2="347.8" stroke="rgb(0,0,0)"  stroke-width="2.0"/>
<line x1="280.5" y1="324.5" x2="256.0" y2="338.6" stroke="rgb(0,0,0)"  stroke-width="2.0"/>
<line x1="254.4" y1="347.8" x2="219.5" y2="327.7" stroke="rgb(0,0,0)"  stroke-width="2.0"/>
<line x1="179.2" y1="287.4" x2="159.0" y2="252.5" stroke="rgb(0,0,0)"  stroke-width="2.0"/>
<line x1="182.4" y1="278.6" x2="168.3" y2="254.1" stroke="rgb(0,0,0)"  stroke-width="2.0"/>
<line x1="159.0" y1="252.5" x2="179.2" y2="217.6" stroke="rgb(0,0,0)"  stroke-width="2.0"/>
<line x1="219.5" y1="177.3" x2="254.4" y2="157.1" stroke="rgb(0,0,0)"  stroke-width="2.0"/>
<line x1="254.4" y1="157.1" x2="289.3" y2="177.3" stroke="rgb(0,0,0)"  stroke-width="2.0"/>
<line x1="256.0" y1="166.3" x2="280.5" y2="180.5" stroke="rgb(0,0,0)"  stroke-width="2.0"/>
<line x1="329.6" y1="217.6" x2="349.8" y2="252.5" stroke="rgb(0,0,0)"  stroke-width="2.0"/>
<line x1="349.8" y1="252.5" x2="329.6" y2="287.4" stroke="rgb(0,0,0)"  stroke-width="2.0"/>
<line x1="340.5" y1="254.1" x2="326.4" y2="278.6" stroke="rgb(0,0,0)"  stroke-width="2.0"/>
<text x="213.482578" y="225.553678" fill="rgb(12,12,255)"  stroke="rgb(12,12,255)" stroke-width="1" font-size="16" >N</text>
<text x="241.737708" y="253.808809" fill="rgb(191,191,191)"  stroke="rgb(191,191,191)" stroke-width="1" font-size="16" >H</text>
<text x="283.293768" y="225.553678" fill="rgb(12,12,255)"  stroke="rgb(12,12,255)" stroke-width="1" font-size="16" >N</text>
<text x="283.293768" y="295.383943" fill="rgb(12,12,255)"  stroke="rgb(12,12,255)" stroke-width="1" font-size="16" >N</text>
<text x="255.132537" y="267.222712" fill="rgb(191,191,191)"  stroke="rgb(191,191,191)" stroke-width="1" font-size="16" >H</text>
<text x="213.482578" y="295.383943" fill="rgb(12,12,255)"  stroke="rgb(12,12,255)" stroke-width="1" font-size="16" >N</text>
</svg>
</g>
<text font-size="18.000000" fill ="black" font-family="sans-serif"
x="10.000000" y="20.000000" ></text>
</svg>
