<?xml version="1.0"?>
<svg version="1.1" id="topsvg"
xmlns="http://www.w3.org/2000/svg" xmlns:xlink="http://www.w3.org/1999/xlink"
xmlns:cml="http://www.xml-cml.org/schema" x="0" y="0" width="200px" height="200px" viewBox="0 0 100 100">
<title> - Open Babel Depiction</title>
<rect x="0" y="0" width="100" height="100" fill="white"/>
<g transform="translate(0,0)">
<svg width="100" height="100" x="0" y="0" viewBox="0 0 372.485 259.357"
font-family="sans-serif" stroke="rgb(0,0,0)" stroke-width="2"  stroke-linecap="round">
<line x1="321.2" y1="165.9" x2="297.8" y2="179.4" stroke="rgb(0,0,0)"  stroke-width="2.0"/>
<line x1="297.8" y1="179.4" x2="263.2" y2="159.4" stroke="rgb(0,0,0)"  stroke-width="2.0"/>
<line x1="193.9" y1="119.4" x2="170.5" y2="105.9" stroke="rgb(0,0,0)"  stroke-width="2.0"/>
<line x1="228.6" y1="99.4" x2="228.6" y2="72.4" stroke="rgb(0,0,0)"  stroke-width="2.0"/>
<line x1="263.2" y1="119.4" x2="286.6" y2="105.9" stroke="rgb(0,0,0)"  stroke-width="2.0"/>
<line x1="193.9" y1="159.4" x2="170.5" y2="172.9" stroke="rgb(0,0,0)"  stroke-width="2.0"/>
<line x1="148.0" y1="172.9" x2="124.6" y2="159.4" stroke="rgb(0,0,0)"  stroke-width="2.0"/>
<line x1="124.6" y1="159.4" x2="124.6" y2="199.4" stroke="rgb(0,0,0)"  stroke-width="2.0"/>
<line x1="124.6" y1="199.4" x2="148.0" y2="212.9" stroke="rgb(0,0,0)"  stroke-width="2.0"/>
<line x1="111.2" y1="96.1" x2="115.4" y2="56.3" stroke="rgb(0,0,0)"  stroke-width="2.0"/>
<line x1="115.4" y1="56.3" x2="140.0" y2="45.3" stroke="rgb(0,0,0)"  stroke-width="2.0"/>
<line x1="76.5" y1="116.1" x2="51.9" y2="105.1" stroke="rgb(0,0,0)"  stroke-width="2.0"/>
<line x1="84.9" y1="155.2" x2="66.8" y2="175.2" stroke="rgb(0,0,0)"  stroke-width="2.0"/>
<line x1="111.2" y1="96.1" x2="76.5" y2="116.1" stroke="rgb(0,0,0)"  stroke-width="2.0"/>
<line x1="76.5" y1="116.1" x2="84.9" y2="155.2" stroke="rgb(0,0,0)"  stroke-width="2.0"/>
<line x1="84.9" y1="155.2" x2="124.6" y2="159.4" stroke="rgb(0,0,0)"  stroke-width="2.0"/>
<line x1="124.6" y1="159.4" x2="135.6" y2="134.7" stroke="rgb(0,0,0)"  stroke-width="2.0"/>
<line x1="131.2" y1="114.1" x2="111.2" y2="96.1" stroke="rgb(0,0,0)"  stroke-width="2.0"/>
<line x1="193.9" y1="159.4" x2="193.9" y2="119.4" stroke="rgb(0,0,0)"  stroke-width="2.0"/>
<line x1="193.9" y1="119.4" x2="228.6" y2="99.4" stroke="rgb(0,0,0)"  stroke-width="2.0"/>
<line x1="228.6" y1="99.4" x2="263.2" y2="119.4" stroke="rgb(0,0,0)"  stroke-width="2.0"/>
<line x1="263.2" y1="119.4" x2="263.2" y2="159.4" stroke="rgb(0,0,0)"  stroke-width="2.0"/>
<line x1="263.2" y1="159.4" x2="239.8" y2="172.9" stroke="rgb(0,0,0)"  stroke-width="2.0"/>
<line x1="217.3" y1="172.9" x2="193.9" y2="159.4" stroke="rgb(0,0,0)"  stroke-width="2.0"/>
<text x="153.280178" y="187.357384" fill="rgb(255,12,12)"  stroke="rgb(255,12,12)" stroke-width="1" font-size="16" >O</text>
<text x="40.093062" y="192.902039" fill="rgb(255,12,12)"  stroke="rgb(255,12,12)" stroke-width="1" font-size="16" >HO</text>
<text x="22.000000" y="107.780876" fill="rgb(255,12,12)"  stroke="rgb(255,12,12)" stroke-width="1" font-size="16" >HO</text>
<text x="145.905791" y="48.000000" fill="rgb(255,12,12)"  stroke="rgb(255,12,12)" stroke-width="1" font-size="16" >OH</text>
<text x="134.908627" y="130.815566" fill="rgb(255,12,12)"  stroke="rgb(255,12,12)" stroke-width="1" font-size="16" >O</text>
<text x="153.280178" y="227.357384" fill="rgb(255,12,12)"  stroke="rgb(255,12,12)" stroke-width="1" font-size="16" >OH</text>
<text x="326.485259" y="167.357384" fill="rgb(255,12,12)"  stroke="rgb(255,12,12)" stroke-width="1" font-size="16" >OH</text>
<text x="291.844243" y="107.357384" fill="rgb(255,12,12)"  stroke="rgb(255,12,12)" stroke-width="1" font-size="16" >OH</text>
<text x="222.562210" y="67.357384" fill="rgb(255,12,12)"  stroke="rgb(255,12,12)" stroke-width="1" font-size="16" >OH</text>
<text x="141.280178" y="107.357384" fill="rgb(255,12,12)"  stroke="rgb(255,12,12)" stroke-width="1" font-size="16" >HO</text>
<text x="222.562210" y="187.357384" fill="rgb(255,12,12)"  stroke="rgb(255,12,12)" stroke-width="1" font-size="16" >O</text>
</svg>
</g>
<text font-size="18.000000" fill ="black" font-family="sans-serif"
x="10.000000" y="20.000000" ></text>
</svg>
