<?xml version="1.0"?>
<svg version="1.1" id="topsvg"
xmlns="http://www.w3.org/2000/svg" xmlns:xlink="http://www.w3.org/1999/xlink"
xmlns:cml="http://www.xml-cml.org/schema" x="0" y="0" width="200px" height="200px" viewBox="0 0 100 100">
<title> - Open Babel Depiction</title>
<rect x="0" y="0" width="100" height="100" fill="white"/>
<g transform="translate(0,0)">
<svg width="100" height="100" x="0" y="0" viewBox="0 0 461.051 680"
font-family="sans-serif" stroke="rgb(0,0,0)" stroke-width="2"  stroke-linecap="round">
<line x1="409.8" y1="53.5" x2="386.4" y2="40.0" stroke="rgb(0,0,0)"  stroke-width="2.0"/>
<line x1="386.4" y1="40.0" x2="351.8" y2="60.0" stroke="rgb(0,0,0)"  stroke-width="2.0"/>
<line x1="351.8" y1="60.0" x2="351.8" y2="87.0" stroke="rgb(0,0,0)"  stroke-width="2.0"/>
<line x1="340.5" y1="106.5" x2="317.1" y2="120.0" stroke="rgb(0,0,0)"  stroke-width="2.0"/>
<line x1="317.1" y1="120.0" x2="317.1" y2="160.0" stroke="rgb(0,0,0)"  stroke-width="2.0"/>
<line x1="317.1" y1="160.0" x2="293.7" y2="173.5" stroke="rgb(0,0,0)"  stroke-width="2.0"/>
<line x1="282.5" y1="193.0" x2="282.5" y2="220.0" stroke="rgb(0,0,0)"  stroke-width="2.0"/>
<line x1="282.5" y1="220.0" x2="247.8" y2="240.0" stroke="rgb(0,0,0)"  stroke-width="2.0"/>
<line x1="247.8" y1="240.0" x2="247.8" y2="267.0" stroke="rgb(0,0,0)"  stroke-width="2.0"/>
<line x1="236.6" y1="286.5" x2="213.2" y2="300.0" stroke="rgb(0,0,0)"  stroke-width="2.0"/>
<line x1="213.2" y1="300.0" x2="213.2" y2="340.0" stroke="rgb(0,0,0)"  stroke-width="2.0"/>
<line x1="213.2" y1="340.0" x2="189.8" y2="353.5" stroke="rgb(0,0,0)"  stroke-width="2.0"/>
<line x1="178.6" y1="373.0" x2="178.6" y2="400.0" stroke="rgb(0,0,0)"  stroke-width="2.0"/>
<line x1="178.6" y1="400.0" x2="143.9" y2="420.0" stroke="rgb(0,0,0)"  stroke-width="2.0"/>
<line x1="143.9" y1="420.0" x2="143.9" y2="447.0" stroke="rgb(0,0,0)"  stroke-width="2.0"/>
<line x1="132.7" y1="466.5" x2="109.3" y2="480.0" stroke="rgb(0,0,0)"  stroke-width="2.0"/>
<line x1="109.3" y1="480.0" x2="109.3" y2="520.0" stroke="rgb(0,0,0)"  stroke-width="2.0"/>
<line x1="109.3" y1="520.0" x2="85.9" y2="533.5" stroke="rgb(0,0,0)"  stroke-width="2.0"/>
<line x1="74.6" y1="553.0" x2="74.6" y2="580.0" stroke="rgb(0,0,0)"  stroke-width="2.0"/>
<line x1="74.6" y1="580.0" x2="40.0" y2="600.0" stroke="rgb(0,0,0)"  stroke-width="2.0"/>
<line x1="40.0" y1="600.0" x2="40.0" y2="627.0" stroke="rgb(0,0,0)"  stroke-width="2.0"/>
<text x="34.000000" y="648.000000" fill="rgb(255,12,12)"  stroke="rgb(255,12,12)" stroke-width="1" font-size="16" >OH</text>
<text x="68.641016" y="548.000000" fill="rgb(255,12,12)"  stroke="rgb(255,12,12)" stroke-width="1" font-size="16" >O</text>
<text x="137.923048" y="468.000000" fill="rgb(255,12,12)"  stroke="rgb(255,12,12)" stroke-width="1" font-size="16" >O</text>
<text x="172.564065" y="368.000000" fill="rgb(255,12,12)"  stroke="rgb(255,12,12)" stroke-width="1" font-size="16" >O</text>
<text x="415.051178" y="68.000000" fill="rgb(255,12,12)"  stroke="rgb(255,12,12)" stroke-width="1" font-size="16" >OH</text>
<text x="241.846097" y="288.000000" fill="rgb(255,12,12)"  stroke="rgb(255,12,12)" stroke-width="1" font-size="16" >O</text>
<text x="276.487113" y="188.000000" fill="rgb(255,12,12)"  stroke="rgb(255,12,12)" stroke-width="1" font-size="16" >O</text>
<text x="345.769145" y="108.000000" fill="rgb(255,12,12)"  stroke="rgb(255,12,12)" stroke-width="1" font-size="16" >O</text>
</svg>
</g>
<text font-size="18.000000" fill ="black" font-family="sans-serif"
x="10.000000" y="20.000000" ></text>
</svg>
