<?xml version="1.0"?>
<svg version="1.1" id="topsvg"
xmlns="http://www.w3.org/2000/svg" xmlns:xlink="http://www.w3.org/1999/xlink"
xmlns:cml="http://www.xml-cml.org/schema" x="0" y="0" width="200px" height="200px" viewBox="0 0 100 100">
<title> - Open Babel Depiction</title>
<rect x="0" y="0" width="100" height="100" fill="white"/>
<g transform="translate(0,0)">
<svg width="100" height="100" x="0" y="0" viewBox="0 0 599.139 462.671"
font-family="sans-serif" stroke="rgb(0,0,0)" stroke-width="2"  stroke-linecap="round">
<line x1="74.6" y1="271.3" x2="109.3" y2="251.3" stroke="rgb(0,0,0)"  stroke-width="2.0"/>
<line x1="76.2" y1="262.1" x2="100.5" y2="248.1" stroke="rgb(0,0,0)"  stroke-width="2.0"/>
<line x1="109.3" y1="251.3" x2="109.3" y2="211.3" stroke="rgb(0,0,0)"  stroke-width="2.0"/>
<line x1="109.3" y1="211.3" x2="74.6" y2="191.3" stroke="rgb(0,0,0)"  stroke-width="2.0"/>
<line x1="100.5" y1="214.6" x2="76.2" y2="200.6" stroke="rgb(0,0,0)"  stroke-width="2.0"/>
<line x1="74.6" y1="191.3" x2="40.0" y2="211.3" stroke="rgb(0,0,0)"  stroke-width="2.0"/>
<line x1="40.0" y1="211.3" x2="40.0" y2="251.3" stroke="rgb(0,0,0)"  stroke-width="2.0"/>
<line x1="47.2" y1="217.3" x2="47.2" y2="245.3" stroke="rgb(0,0,0)"  stroke-width="2.0"/>
<line x1="40.0" y1="251.3" x2="74.6" y2="271.3" stroke="rgb(0,0,0)"  stroke-width="2.0"/>
<line x1="559.1" y1="251.3" x2="524.5" y2="271.3" stroke="rgb(0,0,0)"  stroke-width="2.0"/>
<line x1="524.5" y1="271.3" x2="489.9" y2="251.3" stroke="rgb(0,0,0)"  stroke-width="2.0"/>
<line x1="522.9" y1="262.1" x2="498.7" y2="248.1" stroke="rgb(0,0,0)"  stroke-width="2.0"/>
<line x1="489.9" y1="251.3" x2="489.9" y2="211.3" stroke="rgb(0,0,0)"  stroke-width="2.0"/>
<line x1="489.9" y1="211.3" x2="524.5" y2="191.3" stroke="rgb(0,0,0)"  stroke-width="2.0"/>
<line x1="498.7" y1="214.6" x2="522.9" y2="200.6" stroke="rgb(0,0,0)"  stroke-width="2.0"/>
<line x1="524.5" y1="191.3" x2="559.1" y2="211.3" stroke="rgb(0,0,0)"  stroke-width="2.0"/>
<line x1="559.1" y1="211.3" x2="559.1" y2="251.3" stroke="rgb(0,0,0)"  stroke-width="2.0"/>
<line x1="551.9" y1="217.3" x2="551.9" y2="245.3" stroke="rgb(0,0,0)"  stroke-width="2.0"/>
<line x1="122.9" y1="160.3" x2="133.9" y2="135.7" stroke="rgb(0,0,0)"  stroke-width="2.0"/>
<line x1="133.9" y1="135.7" x2="157.4" y2="103.3" stroke="rgb(0,0,0)"  stroke-width="2.0"/>
<line x1="157.4" y1="103.3" x2="177.4" y2="85.2" stroke="rgb(0,0,0)"  stroke-width="2.0"/>
<line x1="198.4" y1="70.0" x2="221.7" y2="56.5" stroke="rgb(0,0,0)"  stroke-width="2.0"/>
<line x1="221.7" y1="56.5" x2="259.8" y2="44.2" stroke="rgb(0,0,0)"  stroke-width="2.0"/>
<line x1="259.8" y1="44.2" x2="286.6" y2="41.4" stroke="rgb(0,0,0)"  stroke-width="2.0"/>
<line x1="312.5" y1="41.4" x2="339.4" y2="44.2" stroke="rgb(0,0,0)"  stroke-width="2.0"/>
<line x1="339.4" y1="44.2" x2="377.4" y2="56.5" stroke="rgb(0,0,0)"  stroke-width="2.0"/>
<line x1="377.4" y1="56.5" x2="400.8" y2="70.0" stroke="rgb(0,0,0)"  stroke-width="2.0"/>
<line x1="421.7" y1="85.2" x2="441.8" y2="103.3" stroke="rgb(0,0,0)"  stroke-width="2.0"/>
<line x1="441.8" y1="103.3" x2="465.3" y2="135.7" stroke="rgb(0,0,0)"  stroke-width="2.0"/>
<line x1="465.3" y1="135.7" x2="476.3" y2="160.3" stroke="rgb(0,0,0)"  stroke-width="2.0"/>
<line x1="484.2" y1="184.9" x2="489.9" y2="211.3" stroke="rgb(0,0,0)"  stroke-width="2.0"/>
<line x1="489.9" y1="251.3" x2="484.2" y2="277.7" stroke="rgb(0,0,0)"  stroke-width="2.0"/>
<line x1="476.3" y1="302.3" x2="465.3" y2="327.0" stroke="rgb(0,0,0)"  stroke-width="2.0"/>
<line x1="465.3" y1="327.0" x2="441.8" y2="359.4" stroke="rgb(0,0,0)"  stroke-width="2.0"/>
<line x1="441.8" y1="359.4" x2="421.7" y2="377.4" stroke="rgb(0,0,0)"  stroke-width="2.0"/>
<line x1="400.8" y1="392.6" x2="377.4" y2="406.1" stroke="rgb(0,0,0)"  stroke-width="2.0"/>
<line x1="377.4" y1="406.1" x2="339.4" y2="418.5" stroke="rgb(0,0,0)"  stroke-width="2.0"/>
<line x1="339.4" y1="418.5" x2="312.5" y2="421.3" stroke="rgb(0,0,0)"  stroke-width="2.0"/>
<line x1="286.6" y1="421.3" x2="259.8" y2="418.5" stroke="rgb(0,0,0)"  stroke-width="2.0"/>
<line x1="259.8" y1="418.5" x2="221.7" y2="406.1" stroke="rgb(0,0,0)"  stroke-width="2.0"/>
<line x1="221.7" y1="406.1" x2="198.4" y2="392.6" stroke="rgb(0,0,0)"  stroke-width="2.0"/>
<line x1="177.4" y1="377.4" x2="157.4" y2="359.4" stroke="rgb(0,0,0)"  stroke-width="2.0"/>
<line x1="157.4" y1="359.4" x2="133.9" y2="327.0" stroke="rgb(0,0,0)"  stroke-width="2.0"/>
<line x1="133.9" y1="327.0" x2="122.9" y2="302.3" stroke="rgb(0,0,0)"  stroke-width="2.0"/>
<line x1="114.9" y1="277.7" x2="109.3" y2="251.3" stroke="rgb(0,0,0)"  stroke-width="2.0"/>
<line x1="109.3" y1="211.3" x2="114.9" y2="184.9" stroke="rgb(0,0,0)"  stroke-width="2.0"/>
<text x="406.033474" y="84.541818" fill="rgb(255,12,12)"  stroke="rgb(255,12,12)" stroke-width="1" font-size="16" >O</text>
<text x="475.540143" y="180.209541" fill="rgb(255,12,12)"  stroke="rgb(255,12,12)" stroke-width="1" font-size="16" >O</text>
<text x="293.569321" y="48.000000" fill="rgb(255,12,12)"  stroke="rgb(255,12,12)" stroke-width="1" font-size="16" >O</text>
<text x="475.540143" y="298.461349" fill="rgb(255,12,12)"  stroke="rgb(255,12,12)" stroke-width="1" font-size="16" >O</text>
<text x="406.033474" y="394.129071" fill="rgb(255,12,12)"  stroke="rgb(255,12,12)" stroke-width="1" font-size="16" >O</text>
<text x="181.105169" y="394.129071" fill="rgb(255,12,12)"  stroke="rgb(255,12,12)" stroke-width="1" font-size="16" >O</text>
<text x="111.598500" y="298.461349" fill="rgb(255,12,12)"  stroke="rgb(255,12,12)" stroke-width="1" font-size="16" >O</text>
<text x="293.569321" y="430.670889" fill="rgb(255,12,12)"  stroke="rgb(255,12,12)" stroke-width="1" font-size="16" >O</text>
<text x="111.598500" y="180.209541" fill="rgb(255,12,12)"  stroke="rgb(255,12,12)" stroke-width="1" font-size="16" >O</text>
<text x="181.105169" y="84.541818" fill="rgb(255,12,12)"  stroke="rgb(255,12,12)" stroke-width="1" font-size="16" >O</text>
</svg>
</g>
<text font-size="18.000000" fill ="black" font-family="sans-serif"
x="10.000000" y="20.000000" ></text>
</svg>
