<?xml version="1.0"?>
<svg version="1.1" id="topsvg"
xmlns="http://www.w3.org/2000/svg" xmlns:xlink="http://www.w3.org/1999/xlink"
xmlns:cml="http://www.xml-cml.org/schema" x="0" y="0" width="200px" height="200px" viewBox="0 0 100 100">
<title> - Open Babel Depiction</title>
<rect x="0" y="0" width="100" height="100" fill="white"/>
<g transform="translate(0,0)">
<svg width="100" height="100" x="0" y="0" viewBox="0 0 461.051 320"
font-family="sans-serif" stroke="rgb(0,0,0)" stroke-width="2"  stroke-linecap="round">
<line x1="40.0" y1="53.0" x2="40.0" y2="67.0" stroke="rgb(0,0,0)"  stroke-width="2.0"/>
<line x1="51.3" y1="86.5" x2="74.6" y2="100.0" stroke="rgb(0,0,0)"  stroke-width="2.0"/>
<line x1="143.9" y1="100.0" x2="167.3" y2="86.5" stroke="rgb(0,0,0)"  stroke-width="2.0"/>
<line x1="189.8" y1="86.5" x2="213.2" y2="100.0" stroke="rgb(0,0,0)"  stroke-width="2.0"/>
<line x1="213.2" y1="100.0" x2="213.2" y2="140.0" stroke="rgb(0,0,0)"  stroke-width="2.0"/>
<line x1="213.2" y1="220.0" x2="213.2" y2="260.0" stroke="rgb(0,0,0)"  stroke-width="2.0"/>
<line x1="214.7" y1="262.6" x2="191.3" y2="276.1" stroke="rgb(0,0,0)"  stroke-width="2.0"/>
<line x1="211.7" y1="257.4" x2="188.3" y2="270.9" stroke="rgb(0,0,0)"  stroke-width="2.0"/>
<line x1="213.2" y1="260.0" x2="236.6" y2="273.5" stroke="rgb(0,0,0)"  stroke-width="2.0"/>
<line x1="259.1" y1="273.5" x2="282.5" y2="260.0" stroke="rgb(0,0,0)"  stroke-width="2.0"/>
<line x1="351.8" y1="260.0" x2="375.2" y2="273.5" stroke="rgb(0,0,0)"  stroke-width="2.0"/>
<line x1="397.7" y1="273.5" x2="409.8" y2="266.5" stroke="rgb(0,0,0)"  stroke-width="2.0"/>
<line x1="211.7" y1="97.4" x2="235.1" y2="83.9" stroke="rgb(0,0,0)"  stroke-width="2.0"/>
<line x1="214.7" y1="102.6" x2="238.1" y2="89.1" stroke="rgb(0,0,0)"  stroke-width="2.0"/>
<line x1="143.9" y1="100.0" x2="143.9" y2="140.0" stroke="rgb(0,0,0)"  stroke-width="2.0"/>
<line x1="136.7" y1="106.0" x2="136.7" y2="134.0" stroke="rgb(0,0,0)"  stroke-width="2.0"/>
<line x1="143.9" y1="140.0" x2="109.3" y2="160.0" stroke="rgb(0,0,0)"  stroke-width="2.0"/>
<line x1="109.3" y1="160.0" x2="74.6" y2="140.0" stroke="rgb(0,0,0)"  stroke-width="2.0"/>
<line x1="107.7" y1="150.8" x2="83.4" y2="136.8" stroke="rgb(0,0,0)"  stroke-width="2.0"/>
<line x1="74.6" y1="140.0" x2="74.6" y2="100.0" stroke="rgb(0,0,0)"  stroke-width="2.0"/>
<line x1="74.6" y1="100.0" x2="109.3" y2="80.0" stroke="rgb(0,0,0)"  stroke-width="2.0"/>
<line x1="83.4" y1="103.2" x2="107.7" y2="89.2" stroke="rgb(0,0,0)"  stroke-width="2.0"/>
<line x1="109.3" y1="80.0" x2="143.9" y2="100.0" stroke="rgb(0,0,0)"  stroke-width="2.0"/>
<line x1="247.8" y1="200.0" x2="213.2" y2="220.0" stroke="rgb(0,0,0)"  stroke-width="2.0"/>
<line x1="239.0" y1="196.8" x2="214.8" y2="210.8" stroke="rgb(0,0,0)"  stroke-width="2.0"/>
<line x1="213.2" y1="220.0" x2="178.6" y2="200.0" stroke="rgb(0,0,0)"  stroke-width="2.0"/>
<line x1="178.6" y1="200.0" x2="178.6" y2="160.0" stroke="rgb(0,0,0)"  stroke-width="2.0"/>
<line x1="185.8" y1="194.0" x2="185.8" y2="166.0" stroke="rgb(0,0,0)"  stroke-width="2.0"/>
<line x1="178.6" y1="160.0" x2="213.2" y2="140.0" stroke="rgb(0,0,0)"  stroke-width="2.0"/>
<line x1="213.2" y1="140.0" x2="247.8" y2="160.0" stroke="rgb(0,0,0)"  stroke-width="2.0"/>
<line x1="214.8" y1="149.2" x2="239.0" y2="163.2" stroke="rgb(0,0,0)"  stroke-width="2.0"/>
<line x1="247.8" y1="160.0" x2="247.8" y2="200.0" stroke="rgb(0,0,0)"  stroke-width="2.0"/>
<line x1="282.5" y1="220.0" x2="282.5" y2="260.0" stroke="rgb(0,0,0)"  stroke-width="2.0"/>
<line x1="289.7" y1="226.0" x2="289.7" y2="254.0" stroke="rgb(0,0,0)"  stroke-width="2.0"/>
<line x1="282.5" y1="260.0" x2="317.1" y2="280.0" stroke="rgb(0,0,0)"  stroke-width="2.0"/>
<line x1="317.1" y1="280.0" x2="351.8" y2="260.0" stroke="rgb(0,0,0)"  stroke-width="2.0"/>
<line x1="318.7" y1="270.8" x2="343.0" y2="256.8" stroke="rgb(0,0,0)"  stroke-width="2.0"/>
<line x1="351.8" y1="260.0" x2="351.8" y2="220.0" stroke="rgb(0,0,0)"  stroke-width="2.0"/>
<line x1="351.8" y1="220.0" x2="317.1" y2="200.0" stroke="rgb(0,0,0)"  stroke-width="2.0"/>
<line x1="343.0" y1="223.2" x2="318.7" y2="209.2" stroke="rgb(0,0,0)"  stroke-width="2.0"/>
<line x1="317.1" y1="200.0" x2="282.5" y2="220.0" stroke="rgb(0,0,0)"  stroke-width="2.0"/>
<text x="241.846097" y="88.000000" fill="rgb(255,12,12)"  stroke="rgb(255,12,12)" stroke-width="1" font-size="16" >O</text>
<text x="417.051178" y="268.000000" fill="rgb(102,102,102)"  stroke="rgb(102,102,102)" stroke-width="1" font-size="16" >CH</text>
<text x="441.051178" y="271.680000" fill="rgb(102,102,102)"  stroke="rgb(102,102,102)" stroke-width="1" font-size="13" >3</text>
<text x="380.410162" y="288.000000" fill="rgb(255,12,12)"  stroke="rgb(255,12,12)" stroke-width="1" font-size="16" >O</text>
<text x="241.846097" y="288.000000" fill="rgb(12,12,255)"  stroke="rgb(12,12,255)" stroke-width="1" font-size="16" >N</text>
<text x="241.846097" y="304.000000" fill="rgb(12,12,255)"  stroke="rgb(12,12,255)" stroke-width="1" font-size="16" >H</text>
<text x="172.564065" y="288.000000" fill="rgb(255,12,12)"  stroke="rgb(255,12,12)" stroke-width="1" font-size="16" >O</text>
<text x="36.000000" y="48.000000" fill="rgb(102,102,102)"  stroke="rgb(102,102,102)" stroke-width="1" font-size="16" >CH</text>
<text x="60.000000" y="51.680000" fill="rgb(102,102,102)"  stroke="rgb(102,102,102)" stroke-width="1" font-size="13" >3</text>
<text x="172.564065" y="88.000000" fill="rgb(12,12,255)"  stroke="rgb(12,12,255)" stroke-width="1" font-size="16" >N</text>
<text x="172.564065" y="72.000000" fill="rgb(12,12,255)"  stroke="rgb(12,12,255)" stroke-width="1" font-size="16" >H</text>
<text x="34.000000" y="88.000000" fill="rgb(255,12,12)"  stroke="rgb(255,12,12)" stroke-width="1" font-size="16" >O</text>
</svg>
</g>
<text font-size="18.000000" fill ="black" font-family="sans-serif"
x="10.000000" y="20.000000" ></text>
</svg>
