<?xml version="1.0"?>
<svg version="1.1" id="topsvg"
xmlns="http://www.w3.org/2000/svg" xmlns:xlink="http://www.w3.org/1999/xlink"
xmlns:cml="http://www.xml-cml.org/schema" x="0" y="0" width="200px" height="200px" viewBox="0 0 100 100">
<title> - Open Babel Depiction</title>
<rect x="0" y="0" width="100" height="100" fill="white"/>
<g transform="translate(0,0)">
<svg width="100" height="100" x="0" y="0" viewBox="0 0 355.243 316.354"
font-family="sans-serif" stroke="rgb(0,0,0)" stroke-width="2"  stroke-linecap="round">
<line x1="250.2" y1="261.8" x2="250.2" y2="236.0" stroke="rgb(0,0,0)"  stroke-width="2.0"/>
<line x1="250.2" y1="236.0" x2="227.8" y2="223.0" stroke="rgb(0,0,0)"  stroke-width="2.0"/>
<line x1="213.5" y1="203.5" x2="213.5" y2="190.6" stroke="rgb(0,0,0)"  stroke-width="2.0"/>
<line x1="219.5" y1="203.5" x2="219.5" y2="190.6" stroke="rgb(0,0,0)"  stroke-width="2.0"/>
<line x1="229.5" y1="177.6" x2="242.4" y2="177.6" stroke="rgb(0,0,0)"  stroke-width="2.0"/>
<line x1="216.5" y1="164.6" x2="216.5" y2="112.8" stroke="rgb(0,0,0)"  stroke-width="2.0"/>
<line x1="203.5" y1="177.6" x2="190.6" y2="177.6" stroke="rgb(0,0,0)"  stroke-width="2.0"/>
<line x1="164.6" y1="180.6" x2="151.7" y2="180.6" stroke="rgb(0,0,0)"  stroke-width="2.0"/>
<line x1="164.6" y1="174.6" x2="151.7" y2="174.6" stroke="rgb(0,0,0)"  stroke-width="2.0"/>
<line x1="138.7" y1="164.6" x2="138.7" y2="151.7" stroke="rgb(0,0,0)"  stroke-width="2.0"/>
<line x1="125.7" y1="177.6" x2="112.8" y2="177.6" stroke="rgb(0,0,0)"  stroke-width="2.0"/>
<line x1="138.7" y1="190.6" x2="138.7" y2="203.5" stroke="rgb(0,0,0)"  stroke-width="2.0"/>
<line x1="315.2" y1="158.2" x2="315.2" y2="197.1" stroke="rgb(0,0,0)"  stroke-width="2.0"/>
<line x1="315.2" y1="197.1" x2="278.3" y2="209.1" stroke="rgb(0,0,0)"  stroke-width="2.0"/>
<line x1="278.3" y1="209.1" x2="263.0" y2="188.1" stroke="rgb(0,0,0)"  stroke-width="2.0"/>
<line x1="263.0" y1="167.1" x2="278.3" y2="146.2" stroke="rgb(0,0,0)"  stroke-width="2.0"/>
<line x1="278.3" y1="146.2" x2="315.2" y2="158.2" stroke="rgb(0,0,0)"  stroke-width="2.0"/>
<line x1="197.1" y1="40.0" x2="236.0" y2="40.0" stroke="rgb(0,0,0)"  stroke-width="2.0"/>
<line x1="236.0" y1="40.0" x2="248.0" y2="77.0" stroke="rgb(0,0,0)"  stroke-width="2.0"/>
<line x1="248.0" y1="77.0" x2="227.0" y2="92.2" stroke="rgb(0,0,0)"  stroke-width="2.0"/>
<line x1="206.0" y1="92.2" x2="185.0" y2="77.0" stroke="rgb(0,0,0)"  stroke-width="2.0"/>
<line x1="185.0" y1="77.0" x2="197.1" y2="40.0" stroke="rgb(0,0,0)"  stroke-width="2.0"/>
<line x1="119.3" y1="78.9" x2="158.2" y2="78.9" stroke="rgb(0,0,0)"  stroke-width="2.0"/>
<line x1="158.2" y1="78.9" x2="170.2" y2="115.9" stroke="rgb(0,0,0)"  stroke-width="2.0"/>
<line x1="170.2" y1="115.9" x2="149.2" y2="131.1" stroke="rgb(0,0,0)"  stroke-width="2.0"/>
<line x1="128.2" y1="131.1" x2="107.3" y2="115.9" stroke="rgb(0,0,0)"  stroke-width="2.0"/>
<line x1="107.3" y1="115.9" x2="119.3" y2="78.9" stroke="rgb(0,0,0)"  stroke-width="2.0"/>
<line x1="40.0" y1="197.1" x2="40.0" y2="158.2" stroke="rgb(0,0,0)"  stroke-width="2.0"/>
<line x1="40.0" y1="158.2" x2="77.0" y2="146.2" stroke="rgb(0,0,0)"  stroke-width="2.0"/>
<line x1="77.0" y1="146.2" x2="92.2" y2="167.1" stroke="rgb(0,0,0)"  stroke-width="2.0"/>
<line x1="92.2" y1="188.1" x2="77.0" y2="209.1" stroke="rgb(0,0,0)"  stroke-width="2.0"/>
<line x1="77.0" y1="209.1" x2="40.0" y2="197.1" stroke="rgb(0,0,0)"  stroke-width="2.0"/>
<line x1="158.2" y1="276.4" x2="119.3" y2="276.4" stroke="rgb(0,0,0)"  stroke-width="2.0"/>
<line x1="119.3" y1="276.4" x2="107.3" y2="239.4" stroke="rgb(0,0,0)"  stroke-width="2.0"/>
<line x1="107.3" y1="239.4" x2="128.2" y2="224.2" stroke="rgb(0,0,0)"  stroke-width="2.0"/>
<line x1="149.2" y1="224.2" x2="170.2" y2="239.4" stroke="rgb(0,0,0)"  stroke-width="2.0"/>
<line x1="170.2" y1="239.4" x2="158.2" y2="276.4" stroke="rgb(0,0,0)"  stroke-width="2.0"/>
<text x="132.732735" y="185.621624" fill="rgb(255,127,0)"  stroke="rgb(255,127,0)" stroke-width="1" font-size="16" >P</text>
<text x="132.732735" y="224.510513" fill="rgb(12,12,255)"  stroke="rgb(12,12,255)" stroke-width="1" font-size="16" >N</text>
<text x="93.843847" y="185.621624" fill="rgb(12,12,255)"  stroke="rgb(12,12,255)" stroke-width="1" font-size="16" >N</text>
<text x="132.732735" y="146.732735" fill="rgb(12,12,255)"  stroke="rgb(12,12,255)" stroke-width="1" font-size="16" >N</text>
<text x="246.189279" y="282.843847" fill="rgb(102,102,102)"  stroke="rgb(102,102,102)" stroke-width="1" font-size="16" >CH</text>
<text x="270.189279" y="286.523847" fill="rgb(102,102,102)"  stroke="rgb(102,102,102)" stroke-width="1" font-size="13" >3</text>
<text x="171.621624" y="185.621624" fill="rgb(12,12,255)"  stroke="rgb(12,12,255)" stroke-width="1" font-size="16" >N</text>
<text x="210.510513" y="107.843847" fill="rgb(12,12,255)"  stroke="rgb(12,12,255)" stroke-width="1" font-size="16" >N</text>
<text x="249.399402" y="185.621624" fill="rgb(12,12,255)"  stroke="rgb(12,12,255)" stroke-width="1" font-size="16" >N</text>
<text x="210.510513" y="185.621624" fill="rgb(255,127,0)"  stroke="rgb(255,127,0)" stroke-width="1" font-size="16" >P</text>
<text x="210.510513" y="224.510513" fill="rgb(12,12,255)"  stroke="rgb(12,12,255)" stroke-width="1" font-size="16" >N</text>
</svg>
</g>
<text font-size="18.000000" fill ="black" font-family="sans-serif"
x="10.000000" y="20.000000" ></text>
</svg>
