<?xml version="1.0"?>
<svg version="1.1" id="topsvg"
xmlns="http://www.w3.org/2000/svg" xmlns:xlink="http://www.w3.org/1999/xlink"
xmlns:cml="http://www.xml-cml.org/schema" x="0" y="0" width="200px" height="200px" viewBox="0 0 100 100">
<title> - Open Babel Depiction</title>
<rect x="0" y="0" width="100" height="100" fill="white"/>
<g transform="translate(0,0)">
<svg width="100" height="100" x="0" y="0" viewBox="0 0 510.035 510.03"
font-family="sans-serif" stroke="rgb(0,0,0)" stroke-width="2"  stroke-linecap="round">
<line x1="254.5" y1="120.0" x2="254.4" y2="160.3" stroke="rgb(0,0,0)"  stroke-width="2.0"/>
<line x1="349.8" y1="255.7" x2="390.1" y2="255.7" stroke="rgb(0,0,0)"  stroke-width="2.0"/>
<line x1="280.1" y1="281.4" x2="270.3" y2="271.5" stroke="rgb(0,0,0)"  stroke-width="2.0"/>
<line x1="254.4" y1="351.0" x2="254.3" y2="391.3" stroke="rgb(0,0,0)"  stroke-width="2.0"/>
<line x1="228.7" y1="229.9" x2="238.6" y2="239.8" stroke="rgb(0,0,0)"  stroke-width="2.0"/>
<line x1="159.0" y1="255.6" x2="118.7" y2="255.6" stroke="rgb(0,0,0)"  stroke-width="2.0"/>
<line x1="289.3" y1="330.9" x2="324.2" y2="351.0" stroke="rgb(0,0,0)"  stroke-width="2.0"/>
<line x1="324.2" y1="351.0" x2="349.7" y2="325.5" stroke="rgb(0,0,0)"  stroke-width="2.0"/>
<line x1="323.3" y1="341.7" x2="340.4" y2="324.7" stroke="rgb(0,0,0)"  stroke-width="2.0"/>
<line x1="349.7" y1="325.5" x2="329.6" y2="290.6" stroke="rgb(0,0,0)"  stroke-width="2.0"/>
<line x1="329.6" y1="290.6" x2="302.3" y2="290.6" stroke="rgb(0,0,0)"  stroke-width="2.0"/>
<line x1="289.3" y1="303.6" x2="289.3" y2="330.9" stroke="rgb(0,0,0)"  stroke-width="2.0"/>
<line x1="219.5" y1="180.4" x2="184.6" y2="160.3" stroke="rgb(0,0,0)"  stroke-width="2.0"/>
<line x1="210.7" y1="183.6" x2="186.2" y2="169.5" stroke="rgb(0,0,0)"  stroke-width="2.0"/>
<line x1="184.6" y1="160.3" x2="159.1" y2="185.8" stroke="rgb(0,0,0)"  stroke-width="2.0"/>
<line x1="159.1" y1="185.8" x2="179.2" y2="220.7" stroke="rgb(0,0,0)"  stroke-width="2.0"/>
<line x1="168.3" y1="187.4" x2="182.4" y2="211.9" stroke="rgb(0,0,0)"  stroke-width="2.0"/>
<line x1="179.2" y1="220.7" x2="206.5" y2="220.7" stroke="rgb(0,0,0)"  stroke-width="2.0"/>
<line x1="219.5" y1="207.7" x2="219.5" y2="180.4" stroke="rgb(0,0,0)"  stroke-width="2.0"/>
<line x1="269.5" y1="50.5" x2="244.6" y2="40.0" stroke="rgb(0,0,0)"  stroke-width="2.0"/>
<line x1="264.8" y1="56.4" x2="247.3" y2="49.0" stroke="rgb(0,0,0)"  stroke-width="2.0"/>
<line x1="244.6" y1="40.0" x2="212.4" y2="64.3" stroke="rgb(0,0,0)"  stroke-width="2.0"/>
<line x1="212.4" y1="64.3" x2="217.4" y2="104.3" stroke="rgb(0,0,0)"  stroke-width="2.0"/>
<line x1="220.3" y1="69.3" x2="223.8" y2="97.4" stroke="rgb(0,0,0)"  stroke-width="2.0"/>
<line x1="217.4" y1="104.3" x2="254.5" y2="120.0" stroke="rgb(0,0,0)"  stroke-width="2.0"/>
<line x1="254.5" y1="120.0" x2="286.6" y2="95.7" stroke="rgb(0,0,0)"  stroke-width="2.0"/>
<line x1="254.9" y1="110.6" x2="277.5" y2="93.6" stroke="rgb(0,0,0)"  stroke-width="2.0"/>
<line x1="286.6" y1="95.7" x2="283.3" y2="68.6" stroke="rgb(0,0,0)"  stroke-width="2.0"/>
<line x1="454.3" y1="228.5" x2="470.0" y2="265.7" stroke="rgb(0,0,0)"  stroke-width="2.0"/>
<line x1="450.0" y1="236.9" x2="461.1" y2="262.9" stroke="rgb(0,0,0)"  stroke-width="2.0"/>
<line x1="470.0" y1="265.7" x2="453.6" y2="287.4" stroke="rgb(0,0,0)"  stroke-width="2.0"/>
<line x1="432.5" y1="296.2" x2="405.7" y2="292.8" stroke="rgb(0,0,0)"  stroke-width="2.0"/>
<line x1="431.5" y1="288.8" x2="412.6" y2="286.4" stroke="rgb(0,0,0)"  stroke-width="2.0"/>
<line x1="405.7" y1="292.8" x2="390.1" y2="255.7" stroke="rgb(0,0,0)"  stroke-width="2.0"/>
<line x1="390.1" y1="255.7" x2="414.4" y2="223.6" stroke="rgb(0,0,0)"  stroke-width="2.0"/>
<line x1="399.4" y1="255.3" x2="416.5" y2="232.7" stroke="rgb(0,0,0)"  stroke-width="2.0"/>
<line x1="414.4" y1="223.6" x2="454.3" y2="228.5" stroke="rgb(0,0,0)"  stroke-width="2.0"/>
<line x1="275.5" y1="457.8" x2="237.1" y2="470.0" stroke="rgb(0,0,0)"  stroke-width="2.0"/>
<line x1="267.6" y1="452.8" x2="240.6" y2="461.4" stroke="rgb(0,0,0)"  stroke-width="2.0"/>
<line x1="237.1" y1="470.0" x2="216.9" y2="451.6" stroke="rgb(0,0,0)"  stroke-width="2.0"/>
<line x1="210.2" y1="429.9" x2="215.9" y2="403.5" stroke="rgb(0,0,0)"  stroke-width="2.0"/>
<line x1="217.6" y1="429.5" x2="221.7" y2="410.9" stroke="rgb(0,0,0)"  stroke-width="2.0"/>
<line x1="215.9" y1="403.5" x2="254.3" y2="391.3" stroke="rgb(0,0,0)"  stroke-width="2.0"/>
<line x1="254.3" y1="391.3" x2="284.1" y2="418.5" stroke="rgb(0,0,0)"  stroke-width="2.0"/>
<line x1="253.9" y1="400.7" x2="274.8" y2="419.7" stroke="rgb(0,0,0)"  stroke-width="2.0"/>
<line x1="284.1" y1="418.5" x2="275.5" y2="457.8" stroke="rgb(0,0,0)"  stroke-width="2.0"/>
<line x1="67.1" y1="302.6" x2="40.0" y2="272.8" stroke="rgb(0,0,0)"  stroke-width="2.0"/>
<line x1="68.4" y1="293.3" x2="49.4" y2="272.4" stroke="rgb(0,0,0)"  stroke-width="2.0"/>
<line x1="40.0" y1="272.8" x2="48.3" y2="246.8" stroke="rgb(0,0,0)"  stroke-width="2.0"/>
<line x1="65.2" y1="231.6" x2="91.6" y2="225.8" stroke="rgb(0,0,0)"  stroke-width="2.0"/>
<line x1="68.7" y1="238.2" x2="87.3" y2="234.1" stroke="rgb(0,0,0)"  stroke-width="2.0"/>
<line x1="91.6" y1="225.8" x2="118.7" y2="255.6" stroke="rgb(0,0,0)"  stroke-width="2.0"/>
<line x1="118.7" y1="255.6" x2="106.5" y2="294.0" stroke="rgb(0,0,0)"  stroke-width="2.0"/>
<line x1="110.1" y1="259.1" x2="101.5" y2="286.1" stroke="rgb(0,0,0)"  stroke-width="2.0"/>
<line x1="106.5" y1="294.0" x2="67.1" y2="302.6" stroke="rgb(0,0,0)"  stroke-width="2.0"/>
<line x1="329.6" y1="220.8" x2="349.8" y2="185.9" stroke="rgb(0,0,0)"  stroke-width="2.0"/>
<line x1="349.8" y1="185.9" x2="324.3" y2="160.3" stroke="rgb(0,0,0)"  stroke-width="2.0"/>
<line x1="340.5" y1="186.7" x2="323.4" y2="169.7" stroke="rgb(0,0,0)"  stroke-width="2.0"/>
<line x1="324.3" y1="160.3" x2="289.3" y2="180.4" stroke="rgb(0,0,0)"  stroke-width="2.0"/>
<line x1="289.3" y1="180.4" x2="289.3" y2="207.8" stroke="rgb(0,0,0)"  stroke-width="2.0"/>
<line x1="302.6" y1="220.8" x2="329.6" y2="220.8" stroke="rgb(0,0,0)"  stroke-width="2.0"/>
<line x1="304.6" y1="213.6" x2="323.6" y2="213.6" stroke="rgb(0,0,0)"  stroke-width="2.0"/>
<line x1="179.2" y1="290.5" x2="159.0" y2="325.4" stroke="rgb(0,0,0)"  stroke-width="2.0"/>
<line x1="159.0" y1="325.4" x2="184.5" y2="351.0" stroke="rgb(0,0,0)"  stroke-width="2.0"/>
<line x1="168.3" y1="324.6" x2="185.4" y2="341.6" stroke="rgb(0,0,0)"  stroke-width="2.0"/>
<line x1="184.5" y1="351.0" x2="219.4" y2="330.8" stroke="rgb(0,0,0)"  stroke-width="2.0"/>
<line x1="219.4" y1="330.8" x2="219.5" y2="303.8" stroke="rgb(0,0,0)"  stroke-width="2.0"/>
<line x1="212.3" y1="324.8" x2="212.3" y2="305.8" stroke="rgb(0,0,0)"  stroke-width="2.0"/>
<line x1="206.5" y1="290.5" x2="179.2" y2="290.5" stroke="rgb(0,0,0)"  stroke-width="2.0"/>
<line x1="254.4" y1="160.3" x2="289.3" y2="180.4" stroke="rgb(0,0,0)"  stroke-width="2.0"/>
<line x1="256.0" y1="169.5" x2="280.5" y2="183.7" stroke="rgb(0,0,0)"  stroke-width="2.0"/>
<line x1="329.6" y1="220.8" x2="349.8" y2="255.7" stroke="rgb(0,0,0)"  stroke-width="2.0"/>
<line x1="349.8" y1="255.7" x2="329.6" y2="290.6" stroke="rgb(0,0,0)"  stroke-width="2.0"/>
<line x1="340.5" y1="257.3" x2="326.4" y2="281.8" stroke="rgb(0,0,0)"  stroke-width="2.0"/>
<line x1="289.3" y1="330.9" x2="254.4" y2="351.0" stroke="rgb(0,0,0)"  stroke-width="2.0"/>
<line x1="280.5" y1="327.6" x2="256.0" y2="341.8" stroke="rgb(0,0,0)"  stroke-width="2.0"/>
<line x1="254.4" y1="351.0" x2="219.4" y2="330.8" stroke="rgb(0,0,0)"  stroke-width="2.0"/>
<line x1="179.2" y1="290.5" x2="159.0" y2="255.6" stroke="rgb(0,0,0)"  stroke-width="2.0"/>
<line x1="182.4" y1="281.7" x2="168.3" y2="257.2" stroke="rgb(0,0,0)"  stroke-width="2.0"/>
<line x1="159.0" y1="255.6" x2="179.2" y2="220.7" stroke="rgb(0,0,0)"  stroke-width="2.0"/>
<line x1="219.5" y1="180.4" x2="254.4" y2="160.3" stroke="rgb(0,0,0)"  stroke-width="2.0"/>
<text x="201.306285" y="450.870724" fill="rgb(12,12,255)"  stroke="rgb(12,12,255)" stroke-width="1" font-size="16" >N</text>
<text x="213.466118" y="298.545631" fill="rgb(12,12,255)"  stroke="rgb(12,12,255)" stroke-width="1" font-size="16" >N</text>
<text x="213.498391" y="228.736873" fill="rgb(12,12,255)"  stroke="rgb(12,12,255)" stroke-width="1" font-size="16" >N</text>
<text x="241.740592" y="257.005199" fill="rgb(191,191,191)"  stroke="rgb(191,191,191)" stroke-width="1" font-size="16" >H</text>
<text x="46.234458" y="242.403975" fill="rgb(12,12,255)"  stroke="rgb(12,12,255)" stroke-width="1" font-size="16" >N</text>
<text x="275.705063" y="63.725080" fill="rgb(12,12,255)"  stroke="rgb(12,12,255)" stroke-width="1" font-size="16" >N</text>
<text x="283.326222" y="228.769155" fill="rgb(12,12,255)"  stroke="rgb(12,12,255)" stroke-width="1" font-size="16" >N</text>
<text x="439.734522" y="305.809550" fill="rgb(12,12,255)"  stroke="rgb(12,12,255)" stroke-width="1" font-size="16" >N</text>
<text x="283.293949" y="298.577913" fill="rgb(12,12,255)"  stroke="rgb(12,12,255)" stroke-width="1" font-size="16" >N</text>
<text x="255.090853" y="270.348728" fill="rgb(191,191,191)"  stroke="rgb(191,191,191)" stroke-width="1" font-size="16" >H</text>
</svg>
</g>
<text font-size="18.000000" fill ="black" font-family="sans-serif"
x="10.000000" y="20.000000" ></text>
</svg>
