<?xml version="1.0"?>
<svg version="1.1" id="topsvg"
xmlns="http://www.w3.org/2000/svg" xmlns:xlink="http://www.w3.org/1999/xlink"
xmlns:cml="http://www.xml-cml.org/schema" x="0" y="0" width="200px" height="200px" viewBox="0 0 100 100">
<title> - Open Babel Depiction</title>
<rect x="0" y="0" width="100" height="100" fill="white"/>
<g transform="translate(0,0)">
<svg width="100" height="100" x="0" y="0" viewBox="0 0 372.484 208.097"
font-family="sans-serif" stroke="rgb(0,0,0)" stroke-width="2"  stroke-linecap="round">
<line x1="319.8" y1="81.5" x2="293.4" y2="87.1" stroke="rgb(0,0,0)"  stroke-width="2.0"/>
<line x1="178.6" y1="120.0" x2="143.9" y2="100.0" stroke="rgb(0,0,0)"  stroke-width="2.0"/>
<line x1="74.6" y1="60.0" x2="51.3" y2="46.5" stroke="rgb(0,0,0)"  stroke-width="2.0"/>
<line x1="143.9" y1="60.0" x2="167.3" y2="46.5" stroke="rgb(0,0,0)"  stroke-width="2.0"/>
<line x1="195.5" y1="162.5" x2="209.2" y2="165.4" stroke="rgb(0,0,0)"  stroke-width="2.0"/>
<line x1="228.4" y1="156.8" x2="241.9" y2="133.5" stroke="rgb(0,0,0)"  stroke-width="2.0"/>
<line x1="241.9" y1="133.5" x2="215.1" y2="103.7" stroke="rgb(0,0,0)"  stroke-width="2.0"/>
<line x1="215.1" y1="103.7" x2="178.6" y2="120.0" stroke="rgb(0,0,0)"  stroke-width="2.0"/>
<line x1="178.6" y1="120.0" x2="181.4" y2="146.7" stroke="rgb(0,0,0)"  stroke-width="2.0"/>
<line x1="186.4" y1="125.2" x2="188.3" y2="143.9" stroke="rgb(0,0,0)"  stroke-width="2.0"/>
<line x1="227.5" y1="65.7" x2="215.1" y2="103.7" stroke="rgb(0,0,0)"  stroke-width="2.0"/>
<line x1="232.5" y1="73.6" x2="223.8" y2="100.2" stroke="rgb(0,0,0)"  stroke-width="2.0"/>
<line x1="241.9" y1="133.5" x2="281.0" y2="125.1" stroke="rgb(0,0,0)"  stroke-width="2.0"/>
<line x1="246.2" y1="125.2" x2="273.6" y2="119.3" stroke="rgb(0,0,0)"  stroke-width="2.0"/>
<line x1="281.0" y1="125.1" x2="293.4" y2="87.1" stroke="rgb(0,0,0)"  stroke-width="2.0"/>
<line x1="293.4" y1="87.1" x2="266.6" y2="57.4" stroke="rgb(0,0,0)"  stroke-width="2.0"/>
<line x1="284.0" y1="87.5" x2="265.3" y2="66.6" stroke="rgb(0,0,0)"  stroke-width="2.0"/>
<line x1="266.6" y1="57.4" x2="227.5" y2="65.7" stroke="rgb(0,0,0)"  stroke-width="2.0"/>
<line x1="74.6" y1="100.0" x2="74.6" y2="60.0" stroke="rgb(0,0,0)"  stroke-width="2.0"/>
<line x1="81.8" y1="94.0" x2="81.8" y2="66.0" stroke="rgb(0,0,0)"  stroke-width="2.0"/>
<line x1="74.6" y1="60.0" x2="109.3" y2="40.0" stroke="rgb(0,0,0)"  stroke-width="2.0"/>
<line x1="109.3" y1="40.0" x2="143.9" y2="60.0" stroke="rgb(0,0,0)"  stroke-width="2.0"/>
<line x1="110.9" y1="49.2" x2="135.1" y2="63.2" stroke="rgb(0,0,0)"  stroke-width="2.0"/>
<line x1="143.9" y1="60.0" x2="143.9" y2="100.0" stroke="rgb(0,0,0)"  stroke-width="2.0"/>
<line x1="143.9" y1="100.0" x2="109.3" y2="120.0" stroke="rgb(0,0,0)"  stroke-width="2.0"/>
<line x1="135.1" y1="96.8" x2="110.9" y2="110.8" stroke="rgb(0,0,0)"  stroke-width="2.0"/>
<line x1="109.3" y1="120.0" x2="74.6" y2="100.0" stroke="rgb(0,0,0)"  stroke-width="2.0"/>
<text x="172.564065" y="48.000000" fill="rgb(255,12,12)"  stroke="rgb(255,12,12)" stroke-width="1" font-size="16" >OH</text>
<text x="22.000000" y="48.000000" fill="rgb(255,12,12)"  stroke="rgb(255,12,12)" stroke-width="1" font-size="16" >HO</text>
<text x="326.483595" y="86.781131" fill="rgb(255,12,12)"  stroke="rgb(255,12,12)" stroke-width="1" font-size="16" >OH</text>
<text x="176.745203" y="167.780876" fill="rgb(12,12,255)"  stroke="rgb(12,12,255)" stroke-width="1" font-size="16" >N</text>
<text x="215.871107" y="176.097343" fill="rgb(12,12,255)"  stroke="rgb(12,12,255)" stroke-width="1" font-size="16" >N</text>
<text x="215.871107" y="192.097343" fill="rgb(12,12,255)"  stroke="rgb(12,12,255)" stroke-width="1" font-size="16" >H</text>
</svg>
</g>
<text font-size="18.000000" fill ="black" font-family="sans-serif"
x="10.000000" y="20.000000" ></text>
</svg>
