<?xml version="1.0"?>
<svg version="1.1" id="topsvg"
xmlns="http://www.w3.org/2000/svg" xmlns:xlink="http://www.w3.org/1999/xlink"
xmlns:cml="http://www.xml-cml.org/schema" x="0" y="0" width="200px" height="200px" viewBox="0 0 100 100">
<title> - Open Babel Depiction</title>
<rect x="0" y="0" width="100" height="100" fill="white"/>
<g transform="translate(0,0)">
<svg width="100" height="100" x="0" y="0" viewBox="0 0 360 253.205"
font-family="sans-serif" stroke="rgb(0,0,0)" stroke-width="2"  stroke-linecap="round">
<line x1="46.5" y1="120.5" x2="60.0" y2="143.9" stroke="rgb(0,0,0)"  stroke-width="2.0"/>
<line x1="60.0" y1="143.9" x2="100.0" y2="143.9" stroke="rgb(0,0,0)"  stroke-width="2.0"/>
<line x1="220.0" y1="74.6" x2="233.5" y2="51.3" stroke="rgb(0,0,0)"  stroke-width="2.0"/>
<line x1="162.6" y1="177.1" x2="176.1" y2="200.4" stroke="rgb(0,0,0)"  stroke-width="2.0"/>
<line x1="157.4" y1="180.1" x2="170.9" y2="203.4" stroke="rgb(0,0,0)"  stroke-width="2.0"/>
<line x1="240.0" y1="109.3" x2="267.0" y2="109.3" stroke="rgb(0,0,0)"  stroke-width="2.0"/>
<line x1="283.0" y1="122.3" x2="283.0" y2="136.3" stroke="rgb(0,0,0)"  stroke-width="2.0"/>
<line x1="277.0" y1="122.3" x2="277.0" y2="136.3" stroke="rgb(0,0,0)"  stroke-width="2.0"/>
<line x1="293.0" y1="106.3" x2="307.0" y2="106.3" stroke="rgb(0,0,0)"  stroke-width="2.0"/>
<line x1="293.0" y1="112.3" x2="307.0" y2="112.3" stroke="rgb(0,0,0)"  stroke-width="2.0"/>
<line x1="280.0" y1="96.3" x2="280.0" y2="82.3" stroke="rgb(0,0,0)"  stroke-width="2.0"/>
<line x1="220.0" y1="74.6" x2="240.0" y2="109.3" stroke="rgb(0,0,0)"  stroke-width="2.0"/>
<line x1="216.8" y1="83.4" x2="230.8" y2="107.7" stroke="rgb(0,0,0)"  stroke-width="2.0"/>
<line x1="240.0" y1="109.3" x2="220.0" y2="143.9" stroke="rgb(0,0,0)"  stroke-width="2.0"/>
<line x1="220.0" y1="143.9" x2="180.0" y2="143.9" stroke="rgb(0,0,0)"  stroke-width="2.0"/>
<line x1="214.0" y1="136.7" x2="186.0" y2="136.7" stroke="rgb(0,0,0)"  stroke-width="2.0"/>
<line x1="180.0" y1="143.9" x2="160.0" y2="109.3" stroke="rgb(0,0,0)"  stroke-width="2.0"/>
<line x1="160.0" y1="109.3" x2="180.0" y2="74.6" stroke="rgb(0,0,0)"  stroke-width="2.0"/>
<line x1="169.2" y1="107.7" x2="183.2" y2="83.4" stroke="rgb(0,0,0)"  stroke-width="2.0"/>
<line x1="180.0" y1="74.6" x2="220.0" y2="74.6" stroke="rgb(0,0,0)"  stroke-width="2.0"/>
<line x1="100.0" y1="143.9" x2="113.5" y2="120.5" stroke="rgb(0,0,0)"  stroke-width="2.0"/>
<line x1="133.0" y1="109.3" x2="160.0" y2="109.3" stroke="rgb(0,0,0)"  stroke-width="2.0"/>
<line x1="180.0" y1="143.9" x2="160.0" y2="178.6" stroke="rgb(0,0,0)"  stroke-width="2.0"/>
<line x1="160.0" y1="178.6" x2="133.0" y2="178.6" stroke="rgb(0,0,0)"  stroke-width="2.0"/>
<line x1="113.5" y1="167.3" x2="100.0" y2="143.9" stroke="rgb(0,0,0)"  stroke-width="2.0"/>
<text x="276.000000" y="77.282032" fill="rgb(12,12,255)"  stroke="rgb(12,12,255)" stroke-width="1" font-size="16" >NH</text>
<text x="300.000000" y="80.962032" fill="rgb(12,12,255)"  stroke="rgb(12,12,255)" stroke-width="1" font-size="13" >2</text>
<text x="314.000000" y="117.282032" fill="rgb(255,12,12)"  stroke="rgb(255,12,12)" stroke-width="1" font-size="16" >O</text>
<text x="274.000000" y="157.282032" fill="rgb(255,12,12)"  stroke="rgb(255,12,12)" stroke-width="1" font-size="16" >O</text>
<text x="274.000000" y="117.282032" fill="rgb(178,178,0)"  stroke="rgb(178,178,0)" stroke-width="1" font-size="16" >S</text>
<text x="174.000000" y="221.205081" fill="rgb(255,12,12)"  stroke="rgb(255,12,12)" stroke-width="1" font-size="16" >O</text>
<text x="14.000000" y="117.282032" fill="rgb(102,102,102)"  stroke="rgb(102,102,102)" stroke-width="1" font-size="16" >H</text>
<text x="26.000000" y="120.962032" fill="rgb(102,102,102)"  stroke="rgb(102,102,102)" stroke-width="1" font-size="13" >3</text>
<text x="32.500000" y="117.282032" fill="rgb(102,102,102)"  stroke="rgb(102,102,102)" stroke-width="1" font-size="16" >C</text>
<text x="114.000000" y="186.564065" fill="rgb(12,12,255)"  stroke="rgb(12,12,255)" stroke-width="1" font-size="16" >N</text>
<text x="114.000000" y="202.564065" fill="rgb(12,12,255)"  stroke="rgb(12,12,255)" stroke-width="1" font-size="16" >H</text>
<text x="234.000000" y="48.000000" fill="rgb(30,239,30)"  stroke="rgb(30,239,30)" stroke-width="1" font-size="16" >Cl</text>
<text x="114.000000" y="117.282032" fill="rgb(12,12,255)"  stroke="rgb(12,12,255)" stroke-width="1" font-size="16" >N</text>
<text x="114.000000" y="101.282032" fill="rgb(12,12,255)"  stroke="rgb(12,12,255)" stroke-width="1" font-size="16" >H</text>
</svg>
</g>
<text font-size="18.000000" fill ="black" font-family="sans-serif"
x="10.000000" y="20.000000" ></text>
</svg>
