<?xml version="1.0"?>
<svg version="1.1" id="topsvg"
xmlns="http://www.w3.org/2000/svg" xmlns:xlink="http://www.w3.org/1999/xlink"
xmlns:cml="http://www.xml-cml.org/schema" x="0" y="0" width="200px" height="200px" viewBox="0 0 100 100">
<title> - Open Babel Depiction</title>
<rect x="0" y="0" width="100" height="100" fill="white"/>
<g transform="translate(0,0)">
<svg width="100" height="100" x="0" y="0" viewBox="0 0 691.769 518.564"
font-family="sans-serif" stroke="rgb(0,0,0)" stroke-width="2"  stroke-linecap="round">
<line x1="645.3" y1="63.4" x2="631.8" y2="40.0" stroke="rgb(0,0,0)"  stroke-width="2.0"/>
<line x1="631.8" y1="40.0" x2="591.8" y2="40.0" stroke="rgb(0,0,0)"  stroke-width="2.0"/>
<line x1="591.8" y1="40.0" x2="571.8" y2="74.6" stroke="rgb(0,0,0)"  stroke-width="2.0"/>
<line x1="571.8" y1="74.6" x2="531.8" y2="74.6" stroke="rgb(0,0,0)"  stroke-width="2.0"/>
<line x1="531.8" y1="74.6" x2="511.8" y2="109.3" stroke="rgb(0,0,0)"  stroke-width="2.0"/>
<line x1="511.8" y1="109.3" x2="471.8" y2="109.3" stroke="rgb(0,0,0)"  stroke-width="2.0"/>
<line x1="471.8" y1="109.3" x2="451.8" y2="143.9" stroke="rgb(0,0,0)"  stroke-width="2.0"/>
<line x1="451.8" y1="143.9" x2="424.8" y2="143.9" stroke="rgb(0,0,0)"  stroke-width="2.0"/>
<line x1="405.3" y1="155.2" x2="391.8" y2="178.6" stroke="rgb(0,0,0)"  stroke-width="2.0"/>
<line x1="391.8" y1="178.6" x2="351.8" y2="178.6" stroke="rgb(0,0,0)"  stroke-width="2.0"/>
<line x1="351.8" y1="178.6" x2="351.8" y2="138.6" stroke="rgb(0,0,0)"  stroke-width="2.0"/>
<line x1="351.8" y1="138.6" x2="328.4" y2="125.1" stroke="rgb(0,0,0)"  stroke-width="2.0"/>
<line x1="305.9" y1="125.1" x2="282.5" y2="138.6" stroke="rgb(0,0,0)"  stroke-width="2.0"/>
<line x1="282.5" y1="138.6" x2="247.8" y2="118.6" stroke="rgb(0,0,0)"  stroke-width="2.0"/>
<line x1="247.8" y1="118.6" x2="213.2" y2="138.6" stroke="rgb(0,0,0)"  stroke-width="2.0"/>
<line x1="213.2" y1="138.6" x2="178.6" y2="118.6" stroke="rgb(0,0,0)"  stroke-width="2.0"/>
<line x1="178.6" y1="118.6" x2="143.9" y2="138.6" stroke="rgb(0,0,0)"  stroke-width="2.0"/>
<line x1="143.9" y1="138.6" x2="109.3" y2="118.6" stroke="rgb(0,0,0)"  stroke-width="2.0"/>
<line x1="109.3" y1="118.6" x2="74.6" y2="138.6" stroke="rgb(0,0,0)"  stroke-width="2.0"/>
<line x1="74.6" y1="138.6" x2="51.3" y2="125.1" stroke="rgb(0,0,0)"  stroke-width="2.0"/>
<line x1="285.5" y1="138.6" x2="285.5" y2="165.6" stroke="rgb(0,0,0)"  stroke-width="2.0"/>
<line x1="279.5" y1="138.6" x2="279.5" y2="165.6" stroke="rgb(0,0,0)"  stroke-width="2.0"/>
<line x1="351.8" y1="178.6" x2="311.8" y2="178.6" stroke="rgb(0,0,0)"  stroke-width="2.0"/>
<line x1="311.8" y1="178.6" x2="298.3" y2="201.9" stroke="rgb(0,0,0)"  stroke-width="2.0"/>
<line x1="278.8" y1="213.2" x2="251.8" y2="213.2" stroke="rgb(0,0,0)"  stroke-width="2.0"/>
<line x1="251.8" y1="213.2" x2="231.8" y2="178.6" stroke="rgb(0,0,0)"  stroke-width="2.0"/>
<line x1="231.8" y1="178.6" x2="191.8" y2="178.6" stroke="rgb(0,0,0)"  stroke-width="2.0"/>
<line x1="191.8" y1="178.6" x2="171.8" y2="213.2" stroke="rgb(0,0,0)"  stroke-width="2.0"/>
<line x1="171.8" y1="213.2" x2="131.8" y2="213.2" stroke="rgb(0,0,0)"  stroke-width="2.0"/>
<line x1="131.8" y1="213.2" x2="111.8" y2="247.8" stroke="rgb(0,0,0)"  stroke-width="2.0"/>
<line x1="111.8" y1="247.8" x2="71.8" y2="247.8" stroke="rgb(0,0,0)"  stroke-width="2.0"/>
<line x1="71.8" y1="247.8" x2="58.3" y2="271.2" stroke="rgb(0,0,0)"  stroke-width="2.0"/>
<line x1="254.4" y1="214.7" x2="240.9" y2="238.1" stroke="rgb(0,0,0)"  stroke-width="2.0"/>
<line x1="249.2" y1="211.7" x2="235.7" y2="235.1" stroke="rgb(0,0,0)"  stroke-width="2.0"/>
<line x1="351.8" y1="178.6" x2="351.8" y2="218.6" stroke="rgb(0,0,0)"  stroke-width="2.0"/>
<line x1="351.8" y1="218.6" x2="328.4" y2="232.1" stroke="rgb(0,0,0)"  stroke-width="2.0"/>
<line x1="317.1" y1="251.6" x2="317.1" y2="278.6" stroke="rgb(0,0,0)"  stroke-width="2.0"/>
<line x1="317.1" y1="278.6" x2="282.5" y2="298.6" stroke="rgb(0,0,0)"  stroke-width="2.0"/>
<line x1="282.5" y1="298.6" x2="282.5" y2="338.6" stroke="rgb(0,0,0)"  stroke-width="2.0"/>
<line x1="282.5" y1="338.6" x2="247.8" y2="358.6" stroke="rgb(0,0,0)"  stroke-width="2.0"/>
<line x1="247.8" y1="358.6" x2="247.8" y2="398.6" stroke="rgb(0,0,0)"  stroke-width="2.0"/>
<line x1="247.8" y1="398.6" x2="213.2" y2="418.6" stroke="rgb(0,0,0)"  stroke-width="2.0"/>
<line x1="213.2" y1="418.6" x2="213.2" y2="458.6" stroke="rgb(0,0,0)"  stroke-width="2.0"/>
<line x1="213.2" y1="458.6" x2="189.8" y2="472.1" stroke="rgb(0,0,0)"  stroke-width="2.0"/>
<line x1="318.6" y1="276.0" x2="342.0" y2="289.5" stroke="rgb(0,0,0)"  stroke-width="2.0"/>
<line x1="315.6" y1="281.2" x2="339.0" y2="294.7" stroke="rgb(0,0,0)"  stroke-width="2.0"/>
<line x1="454.4" y1="142.4" x2="467.9" y2="165.8" stroke="rgb(0,0,0)"  stroke-width="2.0"/>
<line x1="449.2" y1="145.4" x2="462.7" y2="168.8" stroke="rgb(0,0,0)"  stroke-width="2.0"/>
<text x="311.128129" y="246.564065" fill="rgb(255,12,12)"  stroke="rgb(255,12,12)" stroke-width="1" font-size="16" >O</text>
<text x="285.769145" y="221.205081" fill="rgb(255,12,12)"  stroke="rgb(255,12,12)" stroke-width="1" font-size="16" >O</text>
<text x="25.769145" y="290.487113" fill="rgb(102,102,102)"  stroke="rgb(102,102,102)" stroke-width="1" font-size="16" >H</text>
<text x="37.769145" y="294.167113" fill="rgb(102,102,102)"  stroke="rgb(102,102,102)" stroke-width="1" font-size="13" >3</text>
<text x="44.269145" y="290.487113" fill="rgb(102,102,102)"  stroke="rgb(102,102,102)" stroke-width="1" font-size="16" >C</text>
<text x="225.769145" y="255.846097" fill="rgb(255,12,12)"  stroke="rgb(255,12,12)" stroke-width="1" font-size="16" >O</text>
<text x="152.564065" y="486.564065" fill="rgb(102,102,102)"  stroke="rgb(102,102,102)" stroke-width="1" font-size="16" >H</text>
<text x="164.564065" y="490.244065" fill="rgb(102,102,102)"  stroke="rgb(102,102,102)" stroke-width="1" font-size="13" >3</text>
<text x="171.064065" y="486.564065" fill="rgb(102,102,102)"  stroke="rgb(102,102,102)" stroke-width="1" font-size="16" >C</text>
<text x="345.769145" y="306.564065" fill="rgb(255,12,12)"  stroke="rgb(255,12,12)" stroke-width="1" font-size="16" >O</text>
<text x="465.769145" y="186.564065" fill="rgb(255,12,12)"  stroke="rgb(255,12,12)" stroke-width="1" font-size="16" >O</text>
<text x="405.769145" y="151.923048" fill="rgb(255,12,12)"  stroke="rgb(255,12,12)" stroke-width="1" font-size="16" >O</text>
<text x="647.769145" y="82.641016" fill="rgb(102,102,102)"  stroke="rgb(102,102,102)" stroke-width="1" font-size="16" >CH</text>
<text x="671.769145" y="86.321016" fill="rgb(102,102,102)"  stroke="rgb(102,102,102)" stroke-width="1" font-size="13" >3</text>
<text x="311.128129" y="126.564065" fill="rgb(255,12,12)"  stroke="rgb(255,12,12)" stroke-width="1" font-size="16" >O</text>
<text x="14.000000" y="126.564065" fill="rgb(102,102,102)"  stroke="rgb(102,102,102)" stroke-width="1" font-size="16" >H</text>
<text x="26.000000" y="130.244065" fill="rgb(102,102,102)"  stroke="rgb(102,102,102)" stroke-width="1" font-size="13" >3</text>
<text x="32.500000" y="126.564065" fill="rgb(102,102,102)"  stroke="rgb(102,102,102)" stroke-width="1" font-size="16" >C</text>
<text x="276.487113" y="186.564065" fill="rgb(255,12,12)"  stroke="rgb(255,12,12)" stroke-width="1" font-size="16" >O</text>
</svg>
</g>
<text font-size="18.000000" fill ="black" font-family="sans-serif"
x="10.000000" y="20.000000" ></text>
</svg>
