<?xml version="1.0"?>
<svg version="1.1" id="topsvg"
xmlns="http://www.w3.org/2000/svg" xmlns:xlink="http://www.w3.org/1999/xlink"
xmlns:cml="http://www.xml-cml.org/schema" x="0" y="0" width="200px" height="200px" viewBox="0 0 100 100">
<title> - Open Babel Depiction</title>
<rect x="0" y="0" width="100" height="100" fill="white"/>
<g transform="translate(0,0)">
<svg width="100" height="100" x="0" y="0" viewBox="0 0 404.259 275.178"
font-family="sans-serif" stroke="rgb(0,0,0)" stroke-width="2"  stroke-linecap="round">
<line x1="152.0" y1="170.6" x2="175.6" y2="157.0" stroke="rgb(0,0,0)"  stroke-width="2.0"/>
<line x1="242.8" y1="157.0" x2="242.8" y2="184.2" stroke="rgb(0,0,0)"  stroke-width="2.0"/>
<line x1="142.0" y1="98.9" x2="142.0" y2="126.1" stroke="rgb(0,0,0)"  stroke-width="2.0"/>
<line x1="73.3" y1="62.7" x2="49.8" y2="49.1" stroke="rgb(0,0,0)"  stroke-width="2.0"/>
<line x1="76.3" y1="57.5" x2="52.8" y2="43.9" stroke="rgb(0,0,0)"  stroke-width="2.0"/>
<line x1="276.4" y1="176.4" x2="276.4" y2="203.6" stroke="rgb(0,0,0)"  stroke-width="2.0"/>
<line x1="276.4" y1="176.4" x2="309.9" y2="195.7" stroke="rgb(0,0,0)"  stroke-width="2.0"/>
<line x1="309.9" y1="195.7" x2="325.7" y2="231.1" stroke="rgb(0,0,0)"  stroke-width="2.0"/>
<line x1="325.7" y1="231.1" x2="351.3" y2="233.8" stroke="rgb(0,0,0)"  stroke-width="2.0"/>
<line x1="307.5" y1="194.0" x2="322.6" y2="173.1" stroke="rgb(0,0,0)"  stroke-width="2.0"/>
<line x1="312.4" y1="197.5" x2="327.5" y2="176.7" stroke="rgb(0,0,0)"  stroke-width="2.0"/>
<line x1="309.9" y1="157.0" x2="276.4" y2="176.4" stroke="rgb(0,0,0)"  stroke-width="2.0"/>
<line x1="276.4" y1="176.4" x2="242.8" y2="157.0" stroke="rgb(0,0,0)"  stroke-width="2.0"/>
<line x1="242.8" y1="157.0" x2="242.8" y2="118.2" stroke="rgb(0,0,0)"  stroke-width="2.0"/>
<line x1="242.8" y1="118.2" x2="309.9" y2="118.2" stroke="rgb(0,0,0)"  stroke-width="2.0"/>
<line x1="309.9" y1="118.2" x2="309.9" y2="157.0" stroke="rgb(0,0,0)"  stroke-width="2.0"/>
<line x1="209.2" y1="176.4" x2="175.6" y2="157.0" stroke="rgb(0,0,0)"  stroke-width="2.0"/>
<line x1="175.6" y1="157.0" x2="175.6" y2="118.2" stroke="rgb(0,0,0)"  stroke-width="2.0"/>
<line x1="175.6" y1="118.2" x2="209.2" y2="98.8" stroke="rgb(0,0,0)"  stroke-width="2.0"/>
<line x1="209.2" y1="98.8" x2="242.8" y2="118.2" stroke="rgb(0,0,0)"  stroke-width="2.0"/>
<line x1="242.8" y1="157.0" x2="209.2" y2="176.4" stroke="rgb(0,0,0)"  stroke-width="2.0"/>
<line x1="142.0" y1="98.9" x2="142.0" y2="60.1" stroke="rgb(0,0,0)"  stroke-width="2.0"/>
<line x1="142.0" y1="60.1" x2="175.6" y2="40.7" stroke="rgb(0,0,0)"  stroke-width="2.0"/>
<line x1="175.6" y1="40.7" x2="209.2" y2="60.0" stroke="rgb(0,0,0)"  stroke-width="2.0"/>
<line x1="209.2" y1="60.0" x2="209.2" y2="98.8" stroke="rgb(0,0,0)"  stroke-width="2.0"/>
<line x1="175.6" y1="118.2" x2="142.0" y2="98.9" stroke="rgb(0,0,0)"  stroke-width="2.0"/>
<line x1="74.8" y1="60.1" x2="108.4" y2="40.7" stroke="rgb(0,0,0)"  stroke-width="2.0"/>
<line x1="108.4" y1="40.7" x2="142.0" y2="60.1" stroke="rgb(0,0,0)"  stroke-width="2.0"/>
<line x1="110.0" y1="49.9" x2="133.2" y2="63.3" stroke="rgb(0,0,0)"  stroke-width="2.0"/>
<line x1="142.0" y1="98.9" x2="108.4" y2="118.3" stroke="rgb(0,0,0)"  stroke-width="2.0"/>
<line x1="108.4" y1="118.3" x2="74.8" y2="98.9" stroke="rgb(0,0,0)"  stroke-width="2.0"/>
<line x1="106.8" y1="109.0" x2="83.6" y2="95.6" stroke="rgb(0,0,0)"  stroke-width="2.0"/>
<line x1="74.8" y1="98.9" x2="74.8" y2="60.1" stroke="rgb(0,0,0)"  stroke-width="2.0"/>
<text x="326.714605" y="172.384952" fill="rgb(255,12,12)"  stroke="rgb(255,12,12)" stroke-width="1" font-size="16" >O</text>
<text x="358.259351" y="243.177842" fill="rgb(255,12,12)"  stroke="rgb(255,12,12)" stroke-width="1" font-size="16" >OH</text>
<text x="270.404618" y="224.576651" fill="rgb(255,12,12)"  stroke="rgb(255,12,12)" stroke-width="1" font-size="16" >OH</text>
<text x="122.781249" y="185.120307" fill="rgb(255,12,12)"  stroke="rgb(255,12,12)" stroke-width="1" font-size="16" >HO</text>
<text x="34.000000" y="48.000000" fill="rgb(255,12,12)"  stroke="rgb(255,12,12)" stroke-width="1" font-size="16" >O</text>
<text x="137.988867" y="147.056552" fill="rgb(102,102,102)"  stroke="rgb(102,102,102)" stroke-width="1" font-size="16" >CH</text>
<text x="161.988867" y="150.736552" fill="rgb(102,102,102)"  stroke="rgb(102,102,102)" stroke-width="1" font-size="13" >3</text>
<text x="238.791534" y="205.190753" fill="rgb(102,102,102)"  stroke="rgb(102,102,102)" stroke-width="1" font-size="16" >CH</text>
<text x="262.791534" y="208.870753" fill="rgb(102,102,102)"  stroke="rgb(102,102,102)" stroke-width="1" font-size="13" >3</text>
</svg>
</g>
<text font-size="18.000000" fill ="black" font-family="sans-serif"
x="10.000000" y="20.000000" ></text>
</svg>
