<?xml version="1.0"?>
<svg version="1.1" id="topsvg"
xmlns="http://www.w3.org/2000/svg" xmlns:xlink="http://www.w3.org/1999/xlink"
xmlns:cml="http://www.xml-cml.org/schema" x="0" y="0" width="200px" height="200px" viewBox="0 0 100 100">
<title> - Open Babel Depiction</title>
<rect x="0" y="0" width="100" height="100" fill="white"/>
<g transform="translate(0,0)">
<svg width="100" height="100" x="0" y="0" viewBox="0 0 351.153 321.554"
font-family="sans-serif" stroke="rgb(0,0,0)" stroke-width="2"  stroke-linecap="round">
<line x1="114.6" y1="113.5" x2="137.9" y2="100.0" stroke="rgb(0,0,0)"  stroke-width="2.0"/>
<line x1="276.5" y1="180.0" x2="276.5" y2="207.0" stroke="rgb(0,0,0)"  stroke-width="2.0"/>
<line x1="172.6" y1="40.0" x2="195.8" y2="53.4" stroke="rgb(0,0,0)"  stroke-width="2.0"/>
<line x1="174.2" y1="49.2" x2="190.5" y2="58.6" stroke="rgb(0,0,0)"  stroke-width="2.0"/>
<line x1="207.2" y1="73.0" x2="207.2" y2="100.0" stroke="rgb(0,0,0)"  stroke-width="2.0"/>
<line x1="207.2" y1="100.0" x2="172.6" y2="120.0" stroke="rgb(0,0,0)"  stroke-width="2.0"/>
<line x1="198.4" y1="96.8" x2="174.2" y2="110.8" stroke="rgb(0,0,0)"  stroke-width="2.0"/>
<line x1="172.6" y1="120.0" x2="137.9" y2="100.0" stroke="rgb(0,0,0)"  stroke-width="2.0"/>
<line x1="137.9" y1="100.0" x2="137.9" y2="60.0" stroke="rgb(0,0,0)"  stroke-width="2.0"/>
<line x1="145.1" y1="94.0" x2="145.1" y2="66.0" stroke="rgb(0,0,0)"  stroke-width="2.0"/>
<line x1="137.9" y1="60.0" x2="172.6" y2="40.0" stroke="rgb(0,0,0)"  stroke-width="2.0"/>
<line x1="241.9" y1="160.0" x2="207.2" y2="180.0" stroke="rgb(0,0,0)"  stroke-width="2.0"/>
<line x1="207.2" y1="180.0" x2="172.6" y2="160.0" stroke="rgb(0,0,0)"  stroke-width="2.0"/>
<line x1="205.6" y1="170.8" x2="181.4" y2="156.8" stroke="rgb(0,0,0)"  stroke-width="2.0"/>
<line x1="172.6" y1="160.0" x2="172.6" y2="120.0" stroke="rgb(0,0,0)"  stroke-width="2.0"/>
<line x1="207.2" y1="100.0" x2="241.9" y2="120.0" stroke="rgb(0,0,0)"  stroke-width="2.0"/>
<line x1="241.9" y1="120.0" x2="241.9" y2="160.0" stroke="rgb(0,0,0)"  stroke-width="2.0"/>
<line x1="234.7" y1="126.0" x2="234.7" y2="154.0" stroke="rgb(0,0,0)"  stroke-width="2.0"/>
<line x1="311.2" y1="160.0" x2="311.2" y2="120.0" stroke="rgb(0,0,0)"  stroke-width="2.0"/>
<line x1="311.2" y1="120.0" x2="287.9" y2="106.6" stroke="rgb(0,0,0)"  stroke-width="2.0"/>
<line x1="302.4" y1="123.2" x2="286.1" y2="113.8" stroke="rgb(0,0,0)"  stroke-width="2.0"/>
<line x1="265.3" y1="106.5" x2="241.9" y2="120.0" stroke="rgb(0,0,0)"  stroke-width="2.0"/>
<line x1="241.9" y1="160.0" x2="276.5" y2="180.0" stroke="rgb(0,0,0)"  stroke-width="2.0"/>
<line x1="276.5" y1="180.0" x2="311.2" y2="160.0" stroke="rgb(0,0,0)"  stroke-width="2.0"/>
<line x1="278.1" y1="170.8" x2="302.4" y2="156.8" stroke="rgb(0,0,0)"  stroke-width="2.0"/>
<line x1="296.5" y1="281.6" x2="256.5" y2="281.6" stroke="rgb(0,0,0)"  stroke-width="2.0"/>
<line x1="256.5" y1="281.6" x2="244.2" y2="243.5" stroke="rgb(0,0,0)"  stroke-width="2.0"/>
<line x1="244.2" y1="243.5" x2="266.0" y2="227.6" stroke="rgb(0,0,0)"  stroke-width="2.0"/>
<line x1="287.0" y1="227.6" x2="308.9" y2="243.5" stroke="rgb(0,0,0)"  stroke-width="2.0"/>
<line x1="308.9" y1="243.5" x2="296.5" y2="281.6" stroke="rgb(0,0,0)"  stroke-width="2.0"/>
<line x1="40.0" y1="133.5" x2="60.0" y2="168.1" stroke="rgb(0,0,0)"  stroke-width="2.0"/>
<line x1="60.0" y1="168.1" x2="99.1" y2="159.8" stroke="rgb(0,0,0)"  stroke-width="2.0"/>
<line x1="99.1" y1="159.8" x2="101.9" y2="132.9" stroke="rgb(0,0,0)"  stroke-width="2.0"/>
<line x1="91.4" y1="114.7" x2="66.8" y2="103.7" stroke="rgb(0,0,0)"  stroke-width="2.0"/>
<line x1="66.8" y1="103.7" x2="40.0" y2="133.5" stroke="rgb(0,0,0)"  stroke-width="2.0"/>
<text x="270.512123" y="228.000000" fill="rgb(12,12,255)"  stroke="rgb(12,12,255)" stroke-width="1" font-size="16" >N</text>
<text x="270.512123" y="108.000000" fill="rgb(12,12,255)"  stroke="rgb(12,12,255)" stroke-width="1" font-size="16" >N</text>
<text x="201.230091" y="68.000000" fill="rgb(12,12,255)"  stroke="rgb(12,12,255)" stroke-width="1" font-size="16" >N</text>
<text x="97.307043" y="128.000000" fill="rgb(12,12,255)"  stroke="rgb(12,12,255)" stroke-width="1" font-size="16" >N</text>
</svg>
</g>
<text font-size="18.000000" fill ="black" font-family="sans-serif"
x="10.000000" y="20.000000" ></text>
</svg>
