<?xml version="1.0"?>
<svg version="1.1" id="topsvg"
xmlns="http://www.w3.org/2000/svg" xmlns:xlink="http://www.w3.org/1999/xlink"
xmlns:cml="http://www.xml-cml.org/schema" x="0" y="0" width="200px" height="200px" viewBox="0 0 100 100">
<title> - Open Babel Depiction</title>
<rect x="0" y="0" width="100" height="100" fill="white"/>
<g transform="translate(0,0)">
<svg width="100" height="100" x="0" y="0" viewBox="0 0 300 258.564"
font-family="sans-serif" stroke="rgb(0,0,0)" stroke-width="2"  stroke-linecap="round">
<line x1="173.5" y1="207.3" x2="160.0" y2="183.9" stroke="rgb(0,0,0)"  stroke-width="2.0"/>
<line x1="109.8" y1="70.9" x2="121.9" y2="63.9" stroke="rgb(0,0,0)"  stroke-width="2.0"/>
<line x1="112.8" y1="76.1" x2="124.9" y2="69.1" stroke="rgb(0,0,0)"  stroke-width="2.0"/>
<line x1="97.0" y1="67.0" x2="97.0" y2="53.0" stroke="rgb(0,0,0)"  stroke-width="2.0"/>
<line x1="103.0" y1="67.0" x2="103.0" y2="53.0" stroke="rgb(0,0,0)"  stroke-width="2.0"/>
<line x1="180.0" y1="149.3" x2="207.0" y2="149.3" stroke="rgb(0,0,0)"  stroke-width="2.0"/>
<line x1="223.0" y1="162.3" x2="223.0" y2="176.3" stroke="rgb(0,0,0)"  stroke-width="2.0"/>
<line x1="217.0" y1="162.3" x2="217.0" y2="176.3" stroke="rgb(0,0,0)"  stroke-width="2.0"/>
<line x1="233.0" y1="146.3" x2="247.0" y2="146.3" stroke="rgb(0,0,0)"  stroke-width="2.0"/>
<line x1="233.0" y1="152.3" x2="247.0" y2="152.3" stroke="rgb(0,0,0)"  stroke-width="2.0"/>
<line x1="220.0" y1="136.3" x2="220.0" y2="122.3" stroke="rgb(0,0,0)"  stroke-width="2.0"/>
<line x1="100.0" y1="149.3" x2="120.0" y2="114.6" stroke="rgb(0,0,0)"  stroke-width="2.0"/>
<line x1="109.2" y1="147.7" x2="123.2" y2="123.4" stroke="rgb(0,0,0)"  stroke-width="2.0"/>
<line x1="120.0" y1="114.6" x2="160.0" y2="114.6" stroke="rgb(0,0,0)"  stroke-width="2.0"/>
<line x1="160.0" y1="114.6" x2="180.0" y2="149.3" stroke="rgb(0,0,0)"  stroke-width="2.0"/>
<line x1="156.8" y1="123.4" x2="170.8" y2="147.7" stroke="rgb(0,0,0)"  stroke-width="2.0"/>
<line x1="180.0" y1="149.3" x2="160.0" y2="183.9" stroke="rgb(0,0,0)"  stroke-width="2.0"/>
<line x1="160.0" y1="183.9" x2="120.0" y2="183.9" stroke="rgb(0,0,0)"  stroke-width="2.0"/>
<line x1="154.0" y1="176.7" x2="126.0" y2="176.7" stroke="rgb(0,0,0)"  stroke-width="2.0"/>
<line x1="120.0" y1="183.9" x2="100.0" y2="149.3" stroke="rgb(0,0,0)"  stroke-width="2.0"/>
<line x1="73.0" y1="80.0" x2="87.0" y2="80.0" stroke="rgb(0,0,0)"  stroke-width="2.0"/>
<line x1="106.5" y1="91.3" x2="120.0" y2="114.6" stroke="rgb(0,0,0)"  stroke-width="2.0"/>
<line x1="100.0" y1="149.3" x2="73.0" y2="149.3" stroke="rgb(0,0,0)"  stroke-width="2.0"/>
<line x1="53.5" y1="138.0" x2="40.0" y2="114.6" stroke="rgb(0,0,0)"  stroke-width="2.0"/>
<line x1="40.0" y1="114.6" x2="53.5" y2="91.3" stroke="rgb(0,0,0)"  stroke-width="2.0"/>
<text x="128.641016" y="68.000000" fill="rgb(255,12,12)"  stroke="rgb(255,12,12)" stroke-width="1" font-size="16" >O</text>
<text x="216.000000" y="117.282032" fill="rgb(12,12,255)"  stroke="rgb(12,12,255)" stroke-width="1" font-size="16" >NH</text>
<text x="240.000000" y="120.962032" fill="rgb(12,12,255)"  stroke="rgb(12,12,255)" stroke-width="1" font-size="13" >2</text>
<text x="254.000000" y="157.282032" fill="rgb(255,12,12)"  stroke="rgb(255,12,12)" stroke-width="1" font-size="16" >O</text>
<text x="214.000000" y="197.282032" fill="rgb(255,12,12)"  stroke="rgb(255,12,12)" stroke-width="1" font-size="16" >O</text>
<text x="214.000000" y="157.282032" fill="rgb(178,178,0)"  stroke="rgb(178,178,0)" stroke-width="1" font-size="16" >S</text>
<text x="94.000000" y="48.000000" fill="rgb(255,12,12)"  stroke="rgb(255,12,12)" stroke-width="1" font-size="16" >O</text>
<text x="174.000000" y="226.564065" fill="rgb(30,239,30)"  stroke="rgb(30,239,30)" stroke-width="1" font-size="16" >Cl</text>
<text x="94.000000" y="88.000000" fill="rgb(178,178,0)"  stroke="rgb(178,178,0)" stroke-width="1" font-size="16" >S</text>
<text x="54.000000" y="88.000000" fill="rgb(12,12,255)"  stroke="rgb(12,12,255)" stroke-width="1" font-size="16" >N</text>
<text x="54.000000" y="72.000000" fill="rgb(12,12,255)"  stroke="rgb(12,12,255)" stroke-width="1" font-size="16" >H</text>
<text x="54.000000" y="157.282032" fill="rgb(12,12,255)"  stroke="rgb(12,12,255)" stroke-width="1" font-size="16" >N</text>
<text x="54.000000" y="173.282032" fill="rgb(12,12,255)"  stroke="rgb(12,12,255)" stroke-width="1" font-size="16" >H</text>
</svg>
</g>
<text font-size="18.000000" fill ="black" font-family="sans-serif"
x="10.000000" y="20.000000" ></text>
</svg>
