<?xml version="1.0"?>
<svg version="1.1" id="topsvg"
xmlns="http://www.w3.org/2000/svg" xmlns:xlink="http://www.w3.org/1999/xlink"
xmlns:cml="http://www.xml-cml.org/schema" x="0" y="0" width="200px" height="200px" viewBox="0 0 100 100">
<title> - Open Babel Depiction</title>
<rect x="0" y="0" width="100" height="100" fill="white"/>
<g transform="translate(0,0)">
<svg width="100" height="100" x="0" y="0" viewBox="0 0 245.477 200"
font-family="sans-serif" stroke="rgb(0,0,0)" stroke-width="2"  stroke-linecap="round">
<line x1="195.7" y1="49.1" x2="172.3" y2="62.6" stroke="rgb(0,0,0)"  stroke-width="2.0"/>
<line x1="192.7" y1="43.9" x2="169.3" y2="57.4" stroke="rgb(0,0,0)"  stroke-width="2.0"/>
<line x1="139.2" y1="120.0" x2="139.2" y2="147.0" stroke="rgb(0,0,0)"  stroke-width="2.0"/>
<line x1="133.2" y1="120.0" x2="133.2" y2="147.0" stroke="rgb(0,0,0)"  stroke-width="2.0"/>
<line x1="47.6" y1="69.5" x2="55.9" y2="58.2" stroke="rgb(0,0,0)"  stroke-width="2.0"/>
<line x1="75.9" y1="51.7" x2="101.6" y2="60.0" stroke="rgb(0,0,0)"  stroke-width="2.0"/>
<line x1="101.6" y1="60.0" x2="101.6" y2="100.0" stroke="rgb(0,0,0)"  stroke-width="2.0"/>
<line x1="101.6" y1="100.0" x2="63.5" y2="112.4" stroke="rgb(0,0,0)"  stroke-width="2.0"/>
<line x1="93.6" y1="95.0" x2="67.0" y2="103.7" stroke="rgb(0,0,0)"  stroke-width="2.0"/>
<line x1="63.5" y1="112.4" x2="47.6" y2="90.5" stroke="rgb(0,0,0)"  stroke-width="2.0"/>
<line x1="136.2" y1="120.0" x2="101.6" y2="100.0" stroke="rgb(0,0,0)"  stroke-width="2.0"/>
<line x1="101.6" y1="60.0" x2="124.8" y2="46.6" stroke="rgb(0,0,0)"  stroke-width="2.0"/>
<line x1="110.3" y1="63.2" x2="126.6" y2="53.8" stroke="rgb(0,0,0)"  stroke-width="2.0"/>
<line x1="147.5" y1="46.5" x2="170.8" y2="60.0" stroke="rgb(0,0,0)"  stroke-width="2.0"/>
<line x1="170.8" y1="60.0" x2="170.8" y2="87.0" stroke="rgb(0,0,0)"  stroke-width="2.0"/>
<line x1="159.6" y1="106.5" x2="136.2" y2="120.0" stroke="rgb(0,0,0)"  stroke-width="2.0"/>
<text x="199.476719" y="48.000000" fill="rgb(255,12,12)"  stroke="rgb(255,12,12)" stroke-width="1" font-size="16" >O</text>
<text x="164.835703" y="108.000000" fill="rgb(12,12,255)"  stroke="rgb(12,12,255)" stroke-width="1" font-size="16" >NH</text>
<text x="130.194687" y="168.000000" fill="rgb(255,12,12)"  stroke="rgb(255,12,12)" stroke-width="1" font-size="16" >O</text>
<text x="22.000000" y="88.000000" fill="rgb(12,12,255)"  stroke="rgb(12,12,255)" stroke-width="1" font-size="16" >HN</text>
<text x="57.511410" y="55.639320" fill="rgb(12,12,255)"  stroke="rgb(12,12,255)" stroke-width="1" font-size="16" >N</text>
<text x="57.511410" y="39.639320" fill="rgb(12,12,255)"  stroke="rgb(12,12,255)" stroke-width="1" font-size="16" >H</text>
<text x="130.194687" y="48.000000" fill="rgb(12,12,255)"  stroke="rgb(12,12,255)" stroke-width="1" font-size="16" >N</text>
</svg>
</g>
<text font-size="18.000000" fill ="black" font-family="sans-serif"
x="10.000000" y="20.000000" ></text>
</svg>
