<?xml version="1.0"?>
<svg version="1.1" id="topsvg"
xmlns="http://www.w3.org/2000/svg" xmlns:xlink="http://www.w3.org/1999/xlink"
xmlns:cml="http://www.xml-cml.org/schema" x="0" y="0" width="200px" height="200px" viewBox="0 0 100 100">
<title> - Open Babel Depiction</title>
<rect x="0" y="0" width="100" height="100" fill="white"/>
<g transform="translate(0,0)">
<svg width="100" height="100" x="0" y="0" viewBox="0 0 795.041 505.632"
font-family="sans-serif" stroke="rgb(0,0,0)" stroke-width="2"  stroke-linecap="round">
<line x1="744.1" y1="453.8" x2="755.0" y2="429.1" stroke="rgb(0,0,0)"  stroke-width="2.0"/>
<line x1="755.0" y1="429.1" x2="731.5" y2="396.7" stroke="rgb(0,0,0)"  stroke-width="2.0"/>
<line x1="731.5" y1="396.7" x2="742.5" y2="372.1" stroke="rgb(0,0,0)"  stroke-width="2.0"/>
<line x1="731.5" y1="396.7" x2="704.7" y2="399.6" stroke="rgb(0,0,0)"  stroke-width="2.0"/>
<line x1="617.2" y1="381.0" x2="593.8" y2="367.5" stroke="rgb(0,0,0)"  stroke-width="2.0"/>
<line x1="524.5" y1="327.5" x2="501.1" y2="314.0" stroke="rgb(0,0,0)"  stroke-width="2.0"/>
<line x1="409.3" y1="261.0" x2="386.0" y2="247.5" stroke="rgb(0,0,0)"  stroke-width="2.0"/>
<line x1="316.7" y1="207.5" x2="293.3" y2="194.0" stroke="rgb(0,0,0)"  stroke-width="2.0"/>
<line x1="270.8" y1="194.0" x2="247.4" y2="207.5" stroke="rgb(0,0,0)"  stroke-width="2.0"/>
<line x1="247.4" y1="207.5" x2="212.7" y2="187.5" stroke="rgb(0,0,0)"  stroke-width="2.0"/>
<line x1="169.4" y1="139.4" x2="173.6" y2="99.6" stroke="rgb(0,0,0)"  stroke-width="2.0"/>
<line x1="173.6" y1="99.6" x2="198.3" y2="88.6" stroke="rgb(0,0,0)"  stroke-width="2.0"/>
<line x1="169.4" y1="139.4" x2="137.1" y2="115.8" stroke="rgb(0,0,0)"  stroke-width="2.0"/>
<line x1="72.4" y1="68.8" x2="50.5" y2="53.0" stroke="rgb(0,0,0)"  stroke-width="2.0"/>
<line x1="141.3" y1="76.1" x2="165.9" y2="65.1" stroke="rgb(0,0,0)"  stroke-width="2.0"/>
<line x1="662.0" y1="370.6" x2="667.7" y2="344.2" stroke="rgb(0,0,0)"  stroke-width="2.0"/>
<line x1="667.9" y1="371.8" x2="673.5" y2="345.4" stroke="rgb(0,0,0)"  stroke-width="2.0"/>
<line x1="631.3" y1="414.3" x2="629.8" y2="400.4" stroke="rgb(0,0,0)"  stroke-width="2.0"/>
<line x1="640.3" y1="382.2" x2="665.0" y2="371.2" stroke="rgb(0,0,0)"  stroke-width="2.0"/>
<line x1="665.0" y1="371.2" x2="683.1" y2="391.3" stroke="rgb(0,0,0)"  stroke-width="2.0"/>
<line x1="685.2" y1="412.2" x2="671.7" y2="435.6" stroke="rgb(0,0,0)"  stroke-width="2.0"/>
<line x1="671.7" y1="435.6" x2="645.5" y2="430.0" stroke="rgb(0,0,0)"  stroke-width="2.0"/>
<line x1="667.4" y1="427.3" x2="649.0" y2="423.4" stroke="rgb(0,0,0)"  stroke-width="2.0"/>
<line x1="269.2" y1="64.7" x2="258.3" y2="40.0" stroke="rgb(0,0,0)"  stroke-width="2.0"/>
<line x1="258.3" y1="40.0" x2="231.6" y2="42.8" stroke="rgb(0,0,0)"  stroke-width="2.0"/>
<line x1="253.0" y1="47.8" x2="234.4" y2="49.8" stroke="rgb(0,0,0)"  stroke-width="2.0"/>
<line x1="215.8" y1="56.9" x2="212.9" y2="70.6" stroke="rgb(0,0,0)"  stroke-width="2.0"/>
<line x1="221.4" y1="89.8" x2="244.8" y2="103.3" stroke="rgb(0,0,0)"  stroke-width="2.0"/>
<line x1="244.8" y1="103.3" x2="264.7" y2="85.4" stroke="rgb(0,0,0)"  stroke-width="2.0"/>
<line x1="244.4" y1="93.9" x2="258.4" y2="81.4" stroke="rgb(0,0,0)"  stroke-width="2.0"/>
<line x1="559.2" y1="387.5" x2="593.8" y2="367.5" stroke="rgb(0,0,0)"  stroke-width="2.0"/>
<line x1="560.8" y1="378.2" x2="585.0" y2="364.2" stroke="rgb(0,0,0)"  stroke-width="2.0"/>
<line x1="593.8" y1="367.5" x2="593.8" y2="327.5" stroke="rgb(0,0,0)"  stroke-width="2.0"/>
<line x1="593.8" y1="327.5" x2="559.2" y2="307.5" stroke="rgb(0,0,0)"  stroke-width="2.0"/>
<line x1="585.0" y1="330.7" x2="560.8" y2="316.7" stroke="rgb(0,0,0)"  stroke-width="2.0"/>
<line x1="559.2" y1="307.5" x2="524.5" y2="327.5" stroke="rgb(0,0,0)"  stroke-width="2.0"/>
<line x1="524.5" y1="327.5" x2="524.5" y2="367.5" stroke="rgb(0,0,0)"  stroke-width="2.0"/>
<line x1="531.7" y1="333.5" x2="531.7" y2="361.5" stroke="rgb(0,0,0)"  stroke-width="2.0"/>
<line x1="524.5" y1="367.5" x2="559.2" y2="387.5" stroke="rgb(0,0,0)"  stroke-width="2.0"/>
<line x1="351.3" y1="267.5" x2="386.0" y2="247.5" stroke="rgb(0,0,0)"  stroke-width="2.0"/>
<line x1="352.9" y1="258.2" x2="377.2" y2="244.2" stroke="rgb(0,0,0)"  stroke-width="2.0"/>
<line x1="386.0" y1="247.5" x2="386.0" y2="207.5" stroke="rgb(0,0,0)"  stroke-width="2.0"/>
<line x1="386.0" y1="207.5" x2="351.3" y2="187.5" stroke="rgb(0,0,0)"  stroke-width="2.0"/>
<line x1="377.2" y1="210.7" x2="352.9" y2="196.7" stroke="rgb(0,0,0)"  stroke-width="2.0"/>
<line x1="351.3" y1="187.5" x2="316.7" y2="207.5" stroke="rgb(0,0,0)"  stroke-width="2.0"/>
<line x1="316.7" y1="207.5" x2="316.7" y2="247.5" stroke="rgb(0,0,0)"  stroke-width="2.0"/>
<line x1="323.9" y1="213.5" x2="323.9" y2="241.5" stroke="rgb(0,0,0)"  stroke-width="2.0"/>
<line x1="316.7" y1="247.5" x2="351.3" y2="267.5" stroke="rgb(0,0,0)"  stroke-width="2.0"/>
<line x1="68.2" y1="108.6" x2="72.4" y2="68.8" stroke="rgb(0,0,0)"  stroke-width="2.0"/>
<line x1="76.0" y1="103.4" x2="78.9" y2="75.5" stroke="rgb(0,0,0)"  stroke-width="2.0"/>
<line x1="72.4" y1="68.8" x2="108.9" y2="52.6" stroke="rgb(0,0,0)"  stroke-width="2.0"/>
<line x1="108.9" y1="52.6" x2="141.3" y2="76.1" stroke="rgb(0,0,0)"  stroke-width="2.0"/>
<line x1="109.5" y1="61.9" x2="132.2" y2="78.4" stroke="rgb(0,0,0)"  stroke-width="2.0"/>
<line x1="141.3" y1="76.1" x2="137.1" y2="115.8" stroke="rgb(0,0,0)"  stroke-width="2.0"/>
<line x1="137.1" y1="115.8" x2="100.5" y2="132.1" stroke="rgb(0,0,0)"  stroke-width="2.0"/>
<line x1="128.7" y1="111.7" x2="103.1" y2="123.1" stroke="rgb(0,0,0)"  stroke-width="2.0"/>
<line x1="100.5" y1="132.1" x2="68.2" y2="108.6" stroke="rgb(0,0,0)"  stroke-width="2.0"/>
<line x1="176.2" y1="203.7" x2="212.7" y2="187.5" stroke="rgb(0,0,0)"  stroke-width="2.0"/>
<line x1="212.7" y1="187.5" x2="209.9" y2="160.6" stroke="rgb(0,0,0)"  stroke-width="2.0"/>
<line x1="195.9" y1="145.0" x2="169.4" y2="139.4" stroke="rgb(0,0,0)"  stroke-width="2.0"/>
<line x1="169.4" y1="139.4" x2="155.9" y2="162.7" stroke="rgb(0,0,0)"  stroke-width="2.0"/>
<line x1="158.1" y1="183.7" x2="176.2" y2="203.7" stroke="rgb(0,0,0)"  stroke-width="2.0"/>
<line x1="455.2" y1="327.5" x2="478.6" y2="314.0" stroke="rgb(0,0,0)"  stroke-width="2.0"/>
<line x1="489.9" y1="294.5" x2="489.9" y2="267.5" stroke="rgb(0,0,0)"  stroke-width="2.0"/>
<line x1="489.9" y1="267.5" x2="455.2" y2="247.5" stroke="rgb(0,0,0)"  stroke-width="2.0"/>
<line x1="455.2" y1="247.5" x2="431.9" y2="261.0" stroke="rgb(0,0,0)"  stroke-width="2.0"/>
<line x1="420.6" y1="280.5" x2="420.6" y2="307.5" stroke="rgb(0,0,0)"  stroke-width="2.0"/>
<line x1="420.6" y1="307.5" x2="455.2" y2="327.5" stroke="rgb(0,0,0)"  stroke-width="2.0"/>
<text x="276.031794" y="195.454728" fill="rgb(255,12,12)"  stroke="rgb(255,12,12)" stroke-width="1" font-size="16" >O</text>
<text x="143.442719" y="181.998400" fill="rgb(255,12,12)"  stroke="rgb(255,12,12)" stroke-width="1" font-size="16" >O</text>
<text x="202.568623" y="155.673852" fill="rgb(255,12,12)"  stroke="rgb(255,12,12)" stroke-width="1" font-size="16" >O</text>
<text x="204.165676" y="91.307043" fill="rgb(12,12,255)"  stroke="rgb(12,12,255)" stroke-width="1" font-size="16" >N</text>
<text x="268.532485" y="84.541818" fill="rgb(12,12,255)"  stroke="rgb(12,12,255)" stroke-width="1" font-size="16" >N</text>
<text x="212.482144" y="52.181139" fill="rgb(12,12,255)"  stroke="rgb(12,12,255)" stroke-width="1" font-size="16" >N</text>
<text x="22.000000" y="53.311744" fill="rgb(30,239,30)"  stroke="rgb(30,239,30)" stroke-width="1" font-size="16" >Cl</text>
<text x="171.804996" y="67.795632" fill="rgb(30,239,30)"  stroke="rgb(30,239,30)" stroke-width="1" font-size="16" >Cl</text>
<text x="667.300241" y="340.059358" fill="rgb(255,12,12)"  stroke="rgb(255,12,12)" stroke-width="1" font-size="16" >O</text>
<text x="743.799340" y="368.188098" fill="rgb(102,102,102)"  stroke="rgb(102,102,102)" stroke-width="1" font-size="16" >CH</text>
<text x="767.799340" y="371.868098" fill="rgb(102,102,102)"  stroke="rgb(102,102,102)" stroke-width="1" font-size="13" >3</text>
<text x="685.748998" y="408.911055" fill="rgb(12,12,255)"  stroke="rgb(12,12,255)" stroke-width="1" font-size="16" >N</text>
<text x="626.623094" y="435.235603" fill="rgb(12,12,255)"  stroke="rgb(12,12,255)" stroke-width="1" font-size="16" >N</text>
<text x="622.441955" y="395.454728" fill="rgb(12,12,255)"  stroke="rgb(12,12,255)" stroke-width="1" font-size="16" >N</text>
<text x="712.771818" y="473.632414" fill="rgb(102,102,102)"  stroke="rgb(102,102,102)" stroke-width="1" font-size="16" >H</text>
<text x="724.771818" y="477.312414" fill="rgb(102,102,102)"  stroke="rgb(102,102,102)" stroke-width="1" font-size="13" >3</text>
<text x="731.271818" y="473.632414" fill="rgb(102,102,102)"  stroke="rgb(102,102,102)" stroke-width="1" font-size="16" >C</text>
<text x="483.877891" y="315.454728" fill="rgb(12,12,255)"  stroke="rgb(12,12,255)" stroke-width="1" font-size="16" >N</text>
<text x="414.595859" y="275.454728" fill="rgb(12,12,255)"  stroke="rgb(12,12,255)" stroke-width="1" font-size="16" >N</text>
</svg>
</g>
<text font-size="18.000000" fill ="black" font-family="sans-serif"
x="10.000000" y="20.000000" ></text>
</svg>
