<?xml version="1.0"?>
<svg version="1.1" id="topsvg"
xmlns="http://www.w3.org/2000/svg" xmlns:xlink="http://www.w3.org/1999/xlink"
xmlns:cml="http://www.xml-cml.org/schema" x="0" y="0" width="200px" height="200px" viewBox="0 0 100 100">
<title> - Open Babel Depiction</title>
<rect x="0" y="0" width="100" height="100" fill="white"/>
<g transform="translate(0,0)">
<svg width="100" height="100" x="0" y="0" viewBox="0 0 562.487 322.487"
font-family="sans-serif" stroke="rgb(0,0,0)" stroke-width="2"  stroke-linecap="round">
<line x1="46.5" y1="259.1" x2="60.0" y2="282.5" stroke="rgb(0,0,0)"  stroke-width="2.0"/>
<line x1="60.0" y1="282.5" x2="100.0" y2="282.5" stroke="rgb(0,0,0)"  stroke-width="2.0"/>
<line x1="100.0" y1="282.5" x2="120.0" y2="247.8" stroke="rgb(0,0,0)"  stroke-width="2.0"/>
<line x1="120.0" y1="247.8" x2="160.0" y2="247.8" stroke="rgb(0,0,0)"  stroke-width="2.0"/>
<line x1="160.0" y1="247.8" x2="180.0" y2="213.2" stroke="rgb(0,0,0)"  stroke-width="2.0"/>
<line x1="180.0" y1="213.2" x2="220.0" y2="213.2" stroke="rgb(0,0,0)"  stroke-width="2.0"/>
<line x1="220.0" y1="213.2" x2="240.0" y2="178.6" stroke="rgb(0,0,0)"  stroke-width="2.0"/>
<line x1="240.0" y1="178.6" x2="267.0" y2="178.6" stroke="rgb(0,0,0)"  stroke-width="2.0"/>
<line x1="280.0" y1="191.6" x2="280.0" y2="218.6" stroke="rgb(0,0,0)"  stroke-width="2.0"/>
<line x1="280.0" y1="218.6" x2="314.6" y2="238.6" stroke="rgb(0,0,0)"  stroke-width="2.0"/>
<line x1="314.6" y1="238.6" x2="349.3" y2="218.6" stroke="rgb(0,0,0)"  stroke-width="2.0"/>
<line x1="349.3" y1="218.6" x2="383.9" y2="238.6" stroke="rgb(0,0,0)"  stroke-width="2.0"/>
<line x1="383.9" y1="238.6" x2="418.6" y2="218.6" stroke="rgb(0,0,0)"  stroke-width="2.0"/>
<line x1="418.6" y1="218.6" x2="453.2" y2="238.6" stroke="rgb(0,0,0)"  stroke-width="2.0"/>
<line x1="453.2" y1="238.6" x2="487.8" y2="218.6" stroke="rgb(0,0,0)"  stroke-width="2.0"/>
<line x1="487.8" y1="218.6" x2="511.2" y2="232.1" stroke="rgb(0,0,0)"  stroke-width="2.0"/>
<line x1="293.0" y1="178.6" x2="320.0" y2="178.6" stroke="rgb(0,0,0)"  stroke-width="2.0"/>
<line x1="320.0" y1="178.6" x2="340.0" y2="143.9" stroke="rgb(0,0,0)"  stroke-width="2.0"/>
<line x1="340.0" y1="143.9" x2="380.0" y2="143.9" stroke="rgb(0,0,0)"  stroke-width="2.0"/>
<line x1="380.0" y1="143.9" x2="400.0" y2="109.3" stroke="rgb(0,0,0)"  stroke-width="2.0"/>
<line x1="400.0" y1="109.3" x2="440.0" y2="109.3" stroke="rgb(0,0,0)"  stroke-width="2.0"/>
<line x1="440.0" y1="109.3" x2="460.0" y2="74.6" stroke="rgb(0,0,0)"  stroke-width="2.0"/>
<line x1="460.0" y1="74.6" x2="500.0" y2="74.6" stroke="rgb(0,0,0)"  stroke-width="2.0"/>
<line x1="500.0" y1="74.6" x2="513.5" y2="51.3" stroke="rgb(0,0,0)"  stroke-width="2.0"/>
<line x1="277.0" y1="165.6" x2="277.0" y2="151.6" stroke="rgb(0,0,0)"  stroke-width="2.0"/>
<line x1="283.0" y1="165.6" x2="283.0" y2="151.6" stroke="rgb(0,0,0)"  stroke-width="2.0"/>
<text x="274.000000" y="146.564065" fill="rgb(255,12,12)"  stroke="rgb(255,12,12)" stroke-width="1" font-size="16" >O</text>
<text x="516.000000" y="48.000000" fill="rgb(102,102,102)"  stroke="rgb(102,102,102)" stroke-width="1" font-size="16" >CH</text>
<text x="540.000000" y="51.680000" fill="rgb(102,102,102)"  stroke="rgb(102,102,102)" stroke-width="1" font-size="13" >3</text>
<text x="518.487113" y="246.564065" fill="rgb(102,102,102)"  stroke="rgb(102,102,102)" stroke-width="1" font-size="16" >CH</text>
<text x="542.487113" y="250.244065" fill="rgb(102,102,102)"  stroke="rgb(102,102,102)" stroke-width="1" font-size="13" >3</text>
<text x="14.000000" y="255.846097" fill="rgb(102,102,102)"  stroke="rgb(102,102,102)" stroke-width="1" font-size="16" >H</text>
<text x="26.000000" y="259.526097" fill="rgb(102,102,102)"  stroke="rgb(102,102,102)" stroke-width="1" font-size="13" >3</text>
<text x="32.500000" y="255.846097" fill="rgb(102,102,102)"  stroke="rgb(102,102,102)" stroke-width="1" font-size="16" >C</text>
<text x="274.000000" y="186.564065" fill="rgb(12,12,255)"  stroke="rgb(12,12,255)" stroke-width="1" font-size="16" >N</text>
</svg>
</g>
<text font-size="18.000000" fill ="black" font-family="sans-serif"
x="10.000000" y="20.000000" ></text>
</svg>
