<?xml version="1.0"?>
<svg version="1.1" id="topsvg"
xmlns="http://www.w3.org/2000/svg" xmlns:xlink="http://www.w3.org/1999/xlink"
xmlns:cml="http://www.xml-cml.org/schema" x="0" y="0" width="200px" height="200px" viewBox="0 0 100 100">
<title> - Open Babel Depiction</title>
<rect x="0" y="0" width="100" height="100" fill="white"/>
<g transform="translate(0,0)">
<svg width="100" height="100" x="0" y="0" viewBox="0 0 738.179 1120"
font-family="sans-serif" stroke="rgb(0,0,0)" stroke-width="2"  stroke-linecap="round">
<line x1="686.9" y1="53.5" x2="663.5" y2="40.0" stroke="rgb(0,0,0)"  stroke-width="2.0"/>
<line x1="663.5" y1="40.0" x2="628.9" y2="60.0" stroke="rgb(0,0,0)"  stroke-width="2.0"/>
<line x1="628.9" y1="60.0" x2="628.9" y2="87.0" stroke="rgb(0,0,0)"  stroke-width="2.0"/>
<line x1="617.6" y1="106.5" x2="594.3" y2="120.0" stroke="rgb(0,0,0)"  stroke-width="2.0"/>
<line x1="594.3" y1="120.0" x2="594.3" y2="160.0" stroke="rgb(0,0,0)"  stroke-width="2.0"/>
<line x1="594.3" y1="160.0" x2="570.9" y2="173.5" stroke="rgb(0,0,0)"  stroke-width="2.0"/>
<line x1="559.6" y1="193.0" x2="559.6" y2="220.0" stroke="rgb(0,0,0)"  stroke-width="2.0"/>
<line x1="559.6" y1="220.0" x2="525.0" y2="240.0" stroke="rgb(0,0,0)"  stroke-width="2.0"/>
<line x1="525.0" y1="240.0" x2="525.0" y2="267.0" stroke="rgb(0,0,0)"  stroke-width="2.0"/>
<line x1="513.7" y1="286.5" x2="490.3" y2="300.0" stroke="rgb(0,0,0)"  stroke-width="2.0"/>
<line x1="490.3" y1="300.0" x2="490.3" y2="340.0" stroke="rgb(0,0,0)"  stroke-width="2.0"/>
<line x1="490.3" y1="340.0" x2="467.0" y2="353.5" stroke="rgb(0,0,0)"  stroke-width="2.0"/>
<line x1="455.7" y1="373.0" x2="455.7" y2="400.0" stroke="rgb(0,0,0)"  stroke-width="2.0"/>
<line x1="455.7" y1="400.0" x2="421.1" y2="420.0" stroke="rgb(0,0,0)"  stroke-width="2.0"/>
<line x1="421.1" y1="420.0" x2="421.1" y2="447.0" stroke="rgb(0,0,0)"  stroke-width="2.0"/>
<line x1="409.8" y1="466.5" x2="386.4" y2="480.0" stroke="rgb(0,0,0)"  stroke-width="2.0"/>
<line x1="386.4" y1="480.0" x2="386.4" y2="520.0" stroke="rgb(0,0,0)"  stroke-width="2.0"/>
<line x1="386.4" y1="520.0" x2="363.0" y2="533.5" stroke="rgb(0,0,0)"  stroke-width="2.0"/>
<line x1="351.8" y1="553.0" x2="351.8" y2="580.0" stroke="rgb(0,0,0)"  stroke-width="2.0"/>
<line x1="351.8" y1="580.0" x2="317.1" y2="600.0" stroke="rgb(0,0,0)"  stroke-width="2.0"/>
<line x1="317.1" y1="600.0" x2="317.1" y2="627.0" stroke="rgb(0,0,0)"  stroke-width="2.0"/>
<line x1="305.9" y1="646.5" x2="282.5" y2="660.0" stroke="rgb(0,0,0)"  stroke-width="2.0"/>
<line x1="282.5" y1="660.0" x2="282.5" y2="700.0" stroke="rgb(0,0,0)"  stroke-width="2.0"/>
<line x1="282.5" y1="700.0" x2="259.1" y2="713.5" stroke="rgb(0,0,0)"  stroke-width="2.0"/>
<line x1="247.8" y1="733.0" x2="247.8" y2="760.0" stroke="rgb(0,0,0)"  stroke-width="2.0"/>
<line x1="247.8" y1="760.0" x2="213.2" y2="780.0" stroke="rgb(0,0,0)"  stroke-width="2.0"/>
<line x1="213.2" y1="780.0" x2="213.2" y2="807.0" stroke="rgb(0,0,0)"  stroke-width="2.0"/>
<line x1="201.9" y1="826.5" x2="178.6" y2="840.0" stroke="rgb(0,0,0)"  stroke-width="2.0"/>
<line x1="178.6" y1="840.0" x2="178.6" y2="880.0" stroke="rgb(0,0,0)"  stroke-width="2.0"/>
<line x1="178.6" y1="880.0" x2="155.2" y2="893.5" stroke="rgb(0,0,0)"  stroke-width="2.0"/>
<line x1="143.9" y1="913.0" x2="143.9" y2="940.0" stroke="rgb(0,0,0)"  stroke-width="2.0"/>
<line x1="143.9" y1="940.0" x2="109.3" y2="960.0" stroke="rgb(0,0,0)"  stroke-width="2.0"/>
<line x1="109.3" y1="960.0" x2="109.3" y2="987.0" stroke="rgb(0,0,0)"  stroke-width="2.0"/>
<line x1="98.0" y1="1006.5" x2="74.6" y2="1020.0" stroke="rgb(0,0,0)"  stroke-width="2.0"/>
<line x1="74.6" y1="1020.0" x2="74.6" y2="1060.0" stroke="rgb(0,0,0)"  stroke-width="2.0"/>
<line x1="74.6" y1="1060.0" x2="51.3" y2="1073.5" stroke="rgb(0,0,0)"  stroke-width="2.0"/>
<text x="311.128129" y="648.000000" fill="rgb(255,12,12)"  stroke="rgb(255,12,12)" stroke-width="1" font-size="16" >O</text>
<text x="241.846097" y="728.000000" fill="rgb(255,12,12)"  stroke="rgb(255,12,12)" stroke-width="1" font-size="16" >O</text>
<text x="207.205081" y="828.000000" fill="rgb(255,12,12)"  stroke="rgb(255,12,12)" stroke-width="1" font-size="16" >O</text>
<text x="345.769145" y="548.000000" fill="rgb(255,12,12)"  stroke="rgb(255,12,12)" stroke-width="1" font-size="16" >O</text>
<text x="137.923048" y="908.000000" fill="rgb(255,12,12)"  stroke="rgb(255,12,12)" stroke-width="1" font-size="16" >O</text>
<text x="103.282032" y="1008.000000" fill="rgb(255,12,12)"  stroke="rgb(255,12,12)" stroke-width="1" font-size="16" >O</text>
<text x="22.000000" y="1088.000000" fill="rgb(255,12,12)"  stroke="rgb(255,12,12)" stroke-width="1" font-size="16" >HO</text>
<text x="518.974226" y="288.000000" fill="rgb(255,12,12)"  stroke="rgb(255,12,12)" stroke-width="1" font-size="16" >O</text>
<text x="622.897275" y="108.000000" fill="rgb(255,12,12)"  stroke="rgb(255,12,12)" stroke-width="1" font-size="16" >O</text>
<text x="553.615242" y="188.000000" fill="rgb(255,12,12)"  stroke="rgb(255,12,12)" stroke-width="1" font-size="16" >O</text>
<text x="692.179307" y="68.000000" fill="rgb(255,12,12)"  stroke="rgb(255,12,12)" stroke-width="1" font-size="16" >OH</text>
<text x="449.692194" y="368.000000" fill="rgb(255,12,12)"  stroke="rgb(255,12,12)" stroke-width="1" font-size="16" >O</text>
<text x="415.051178" y="468.000000" fill="rgb(255,12,12)"  stroke="rgb(255,12,12)" stroke-width="1" font-size="16" >O</text>
</svg>
</g>
<text font-size="18.000000" fill ="black" font-family="sans-serif"
x="10.000000" y="20.000000" ></text>
</svg>
