<?xml version="1.0"?>
<svg version="1.1" id="topsvg"
xmlns="http://www.w3.org/2000/svg" xmlns:xlink="http://www.w3.org/1999/xlink"
xmlns:cml="http://www.xml-cml.org/schema" x="0" y="0" width="200px" height="200px" viewBox="0 0 100 100">
<title> - Open Babel Depiction</title>
<rect x="0" y="0" width="100" height="100" fill="white"/>
<g transform="translate(0,0)">
<svg width="100" height="100" x="0" y="0" viewBox="0 0 523.2 523.17"
font-family="sans-serif" stroke="rgb(0,0,0)" stroke-width="2"  stroke-linecap="round">
<line x1="51.3" y1="228.7" x2="75.7" y2="242.8" stroke="rgb(0,0,0)"  stroke-width="2.0"/>
<line x1="108.1" y1="224.1" x2="108.2" y2="195.9" stroke="rgb(0,0,0)"  stroke-width="2.0"/>
<line x1="108.1" y1="299.0" x2="108.1" y2="327.1" stroke="rgb(0,0,0)"  stroke-width="2.0"/>
<line x1="75.7" y1="280.2" x2="51.3" y2="294.3" stroke="rgb(0,0,0)"  stroke-width="2.0"/>
<line x1="261.6" y1="223.4" x2="261.6" y2="237.4" stroke="rgb(0,0,0)"  stroke-width="2.0"/>
<line x1="299.1" y1="108.1" x2="327.3" y2="108.1" stroke="rgb(0,0,0)"  stroke-width="2.0"/>
<line x1="280.4" y1="75.7" x2="294.5" y2="51.3" stroke="rgb(0,0,0)"  stroke-width="2.0"/>
<line x1="224.2" y1="108.1" x2="196.1" y2="108.1" stroke="rgb(0,0,0)"  stroke-width="2.0"/>
<line x1="243.0" y1="75.7" x2="228.9" y2="51.3" stroke="rgb(0,0,0)"  stroke-width="2.0"/>
<line x1="261.6" y1="299.8" x2="261.6" y2="285.8" stroke="rgb(0,0,0)"  stroke-width="2.0"/>
<line x1="415.1" y1="299.1" x2="415.1" y2="327.2" stroke="rgb(0,0,0)"  stroke-width="2.0"/>
<line x1="447.5" y1="280.4" x2="471.9" y2="294.5" stroke="rgb(0,0,0)"  stroke-width="2.0"/>
<line x1="415.1" y1="224.2" x2="415.1" y2="196.0" stroke="rgb(0,0,0)"  stroke-width="2.0"/>
<line x1="447.5" y1="242.9" x2="471.9" y2="228.9" stroke="rgb(0,0,0)"  stroke-width="2.0"/>
<line x1="299.0" y1="415.1" x2="327.2" y2="415.1" stroke="rgb(0,0,0)"  stroke-width="2.0"/>
<line x1="280.3" y1="447.5" x2="294.4" y2="471.9" stroke="rgb(0,0,0)"  stroke-width="2.0"/>
<line x1="224.1" y1="415.1" x2="196.0" y2="415.1" stroke="rgb(0,0,0)"  stroke-width="2.0"/>
<line x1="242.9" y1="447.5" x2="228.8" y2="471.9" stroke="rgb(0,0,0)"  stroke-width="2.0"/>
<line x1="201.2" y1="270.7" x2="180.9" y2="291.1" stroke="rgb(0,0,0)"  stroke-width="2.0"/>
<line x1="180.9" y1="291.1" x2="140.5" y2="280.3" stroke="rgb(0,0,0)"  stroke-width="2.0"/>
<line x1="177.0" y1="282.6" x2="148.2" y2="274.9" stroke="rgb(0,0,0)"  stroke-width="2.0"/>
<line x1="140.5" y1="280.3" x2="140.6" y2="242.8" stroke="rgb(0,0,0)"  stroke-width="2.0"/>
<line x1="140.6" y1="242.8" x2="180.9" y2="232.0" stroke="rgb(0,0,0)"  stroke-width="2.0"/>
<line x1="148.2" y1="248.2" x2="177.0" y2="240.5" stroke="rgb(0,0,0)"  stroke-width="2.0"/>
<line x1="180.9" y1="232.0" x2="201.3" y2="252.4" stroke="rgb(0,0,0)"  stroke-width="2.0"/>
<line x1="232.1" y1="180.8" x2="252.4" y2="201.2" stroke="rgb(0,0,0)"  stroke-width="2.0"/>
<line x1="270.8" y1="201.2" x2="291.2" y2="180.9" stroke="rgb(0,0,0)"  stroke-width="2.0"/>
<line x1="291.2" y1="180.9" x2="280.4" y2="140.5" stroke="rgb(0,0,0)"  stroke-width="2.0"/>
<line x1="282.7" y1="176.9" x2="275.0" y2="148.2" stroke="rgb(0,0,0)"  stroke-width="2.0"/>
<line x1="280.4" y1="140.5" x2="242.9" y2="140.5" stroke="rgb(0,0,0)"  stroke-width="2.0"/>
<line x1="242.9" y1="140.5" x2="232.1" y2="180.8" stroke="rgb(0,0,0)"  stroke-width="2.0"/>
<line x1="248.3" y1="148.2" x2="240.6" y2="176.9" stroke="rgb(0,0,0)"  stroke-width="2.0"/>
<line x1="291.1" y1="342.3" x2="280.3" y2="382.7" stroke="rgb(0,0,0)"  stroke-width="2.0"/>
<line x1="280.3" y1="382.7" x2="242.9" y2="382.7" stroke="rgb(0,0,0)"  stroke-width="2.0"/>
<line x1="274.3" y1="375.5" x2="248.9" y2="375.5" stroke="rgb(0,0,0)"  stroke-width="2.0"/>
<line x1="242.9" y1="382.7" x2="232.0" y2="342.3" stroke="rgb(0,0,0)"  stroke-width="2.0"/>
<line x1="232.0" y1="342.3" x2="252.4" y2="321.9" stroke="rgb(0,0,0)"  stroke-width="2.0"/>
<line x1="270.8" y1="321.9" x2="291.1" y2="342.3" stroke="rgb(0,0,0)"  stroke-width="2.0"/>
<line x1="342.4" y1="232.1" x2="322.0" y2="252.4" stroke="rgb(0,0,0)"  stroke-width="2.0"/>
<line x1="322.0" y1="270.8" x2="342.3" y2="291.2" stroke="rgb(0,0,0)"  stroke-width="2.0"/>
<line x1="342.3" y1="291.2" x2="382.7" y2="280.3" stroke="rgb(0,0,0)"  stroke-width="2.0"/>
<line x1="346.3" y1="282.6" x2="375.0" y2="274.9" stroke="rgb(0,0,0)"  stroke-width="2.0"/>
<line x1="382.7" y1="280.3" x2="382.7" y2="242.9" stroke="rgb(0,0,0)"  stroke-width="2.0"/>
<line x1="382.7" y1="242.9" x2="342.4" y2="232.1" stroke="rgb(0,0,0)"  stroke-width="2.0"/>
<line x1="375.0" y1="248.3" x2="346.3" y2="240.6" stroke="rgb(0,0,0)"  stroke-width="2.0"/>
<line x1="140.5" y1="280.3" x2="108.1" y2="299.0" stroke="rgb(0,0,0)"  stroke-width="2.0"/>
<line x1="108.1" y1="299.0" x2="75.7" y2="280.2" stroke="rgb(0,0,0)"  stroke-width="2.0"/>
<line x1="106.5" y1="289.7" x2="84.5" y2="277.0" stroke="rgb(0,0,0)"  stroke-width="2.0"/>
<line x1="75.7" y1="280.2" x2="75.7" y2="242.8" stroke="rgb(0,0,0)"  stroke-width="2.0"/>
<line x1="75.7" y1="242.8" x2="108.1" y2="224.1" stroke="rgb(0,0,0)"  stroke-width="2.0"/>
<line x1="84.5" y1="246.0" x2="106.5" y2="233.3" stroke="rgb(0,0,0)"  stroke-width="2.0"/>
<line x1="108.1" y1="224.1" x2="140.6" y2="242.8" stroke="rgb(0,0,0)"  stroke-width="2.0"/>
<line x1="447.5" y1="242.9" x2="447.5" y2="280.4" stroke="rgb(0,0,0)"  stroke-width="2.0"/>
<line x1="447.5" y1="280.4" x2="415.1" y2="299.1" stroke="rgb(0,0,0)"  stroke-width="2.0"/>
<line x1="438.7" y1="277.1" x2="416.7" y2="289.8" stroke="rgb(0,0,0)"  stroke-width="2.0"/>
<line x1="415.1" y1="299.1" x2="382.7" y2="280.3" stroke="rgb(0,0,0)"  stroke-width="2.0"/>
<line x1="382.7" y1="242.9" x2="415.1" y2="224.2" stroke="rgb(0,0,0)"  stroke-width="2.0"/>
<line x1="415.1" y1="224.2" x2="447.5" y2="242.9" stroke="rgb(0,0,0)"  stroke-width="2.0"/>
<line x1="416.7" y1="233.4" x2="438.7" y2="246.2" stroke="rgb(0,0,0)"  stroke-width="2.0"/>
<line x1="242.9" y1="447.5" x2="280.3" y2="447.5" stroke="rgb(0,0,0)"  stroke-width="2.0"/>
<line x1="280.3" y1="447.5" x2="299.0" y2="415.1" stroke="rgb(0,0,0)"  stroke-width="2.0"/>
<line x1="277.1" y1="438.7" x2="289.8" y2="416.7" stroke="rgb(0,0,0)"  stroke-width="2.0"/>
<line x1="299.0" y1="415.1" x2="280.3" y2="382.7" stroke="rgb(0,0,0)"  stroke-width="2.0"/>
<line x1="242.9" y1="382.7" x2="224.1" y2="415.1" stroke="rgb(0,0,0)"  stroke-width="2.0"/>
<line x1="224.1" y1="415.1" x2="242.9" y2="447.5" stroke="rgb(0,0,0)"  stroke-width="2.0"/>
<line x1="233.4" y1="416.7" x2="246.1" y2="438.7" stroke="rgb(0,0,0)"  stroke-width="2.0"/>
<line x1="243.0" y1="75.7" x2="280.4" y2="75.7" stroke="rgb(0,0,0)"  stroke-width="2.0"/>
<line x1="280.4" y1="75.7" x2="299.1" y2="108.1" stroke="rgb(0,0,0)"  stroke-width="2.0"/>
<line x1="277.2" y1="84.5" x2="289.9" y2="106.5" stroke="rgb(0,0,0)"  stroke-width="2.0"/>
<line x1="299.1" y1="108.1" x2="280.4" y2="140.5" stroke="rgb(0,0,0)"  stroke-width="2.0"/>
<line x1="242.9" y1="140.5" x2="224.2" y2="108.1" stroke="rgb(0,0,0)"  stroke-width="2.0"/>
<line x1="224.2" y1="108.1" x2="243.0" y2="75.7" stroke="rgb(0,0,0)"  stroke-width="2.0"/>
<line x1="233.5" y1="106.5" x2="246.2" y2="84.5" stroke="rgb(0,0,0)"  stroke-width="2.0"/>
<line x1="180.9" y1="232.0" x2="188.4" y2="204.2" stroke="rgb(0,0,0)"  stroke-width="2.0"/>
<line x1="204.3" y1="188.3" x2="232.1" y2="180.8" stroke="rgb(0,0,0)"  stroke-width="2.0"/>
<line x1="291.2" y1="180.9" x2="319.0" y2="188.3" stroke="rgb(0,0,0)"  stroke-width="2.0"/>
<line x1="334.9" y1="204.3" x2="342.4" y2="232.1" stroke="rgb(0,0,0)"  stroke-width="2.0"/>
<line x1="342.3" y1="291.2" x2="334.9" y2="318.9" stroke="rgb(0,0,0)"  stroke-width="2.0"/>
<line x1="318.2" y1="335.1" x2="291.1" y2="342.3" stroke="rgb(0,0,0)"  stroke-width="2.0"/>
<line x1="314.6" y1="328.6" x2="295.1" y2="333.8" stroke="rgb(0,0,0)"  stroke-width="2.0"/>
<line x1="232.0" y1="342.3" x2="205.0" y2="335.0" stroke="rgb(0,0,0)"  stroke-width="2.0"/>
<line x1="228.1" y1="333.8" x2="208.6" y2="328.5" stroke="rgb(0,0,0)"  stroke-width="2.0"/>
<line x1="188.3" y1="318.9" x2="180.9" y2="291.1" stroke="rgb(0,0,0)"  stroke-width="2.0"/>
<text x="204.398021" y="48.000000" fill="rgb(30,239,30)"  stroke="rgb(30,239,30)" stroke-width="1" font-size="16" >Cl</text>
<text x="185.685367" y="339.448074" fill="rgb(12,12,255)"  stroke="rgb(12,12,255)" stroke-width="1" font-size="16" >N</text>
<text x="255.610623" y="320.753805" fill="rgb(12,12,255)"  stroke="rgb(12,12,255)" stroke-width="1" font-size="16" >N</text>
<text x="255.625554" y="280.753808" fill="rgb(191,191,191)"  stroke="rgb(191,191,191)" stroke-width="1" font-size="16" >H</text>
<text x="325.493942" y="339.500261" fill="rgb(12,12,255)"  stroke="rgb(12,12,255)" stroke-width="1" font-size="16" >N</text>
<text x="409.085257" y="348.242014" fill="rgb(30,239,30)"  stroke="rgb(30,239,30)" stroke-width="1" font-size="16" >Cl</text>
<text x="477.170265" y="308.966995" fill="rgb(30,239,30)"  stroke="rgb(30,239,30)" stroke-width="1" font-size="16" >Cl</text>
<text x="409.143936" y="191.040303" fill="rgb(30,239,30)"  stroke="rgb(30,239,30)" stroke-width="1" font-size="16" >Cl</text>
<text x="477.199604" y="230.366140" fill="rgb(30,239,30)"  stroke="rgb(30,239,30)" stroke-width="1" font-size="16" >Cl</text>
<text x="334.192387" y="423.087840" fill="rgb(30,239,30)"  stroke="rgb(30,239,30)" stroke-width="1" font-size="16" >Cl</text>
<text x="294.884964" y="491.170293" fill="rgb(30,239,30)"  stroke="rgb(30,239,30)" stroke-width="1" font-size="16" >Cl</text>
<text x="164.962697" y="423.087840" fill="rgb(30,239,30)"  stroke="rgb(30,239,30)" stroke-width="1" font-size="16" >Cl</text>
<text x="204.270120" y="491.170293" fill="rgb(30,239,30)"  stroke="rgb(30,239,30)" stroke-width="1" font-size="16" >Cl</text>
<text x="255.634848" y="218.399943" fill="rgb(12,12,255)"  stroke="rgb(12,12,255)" stroke-width="1" font-size="16" >N</text>
<text x="102.170468" y="190.892642" fill="rgb(30,239,30)"  stroke="rgb(30,239,30)" stroke-width="1" font-size="16" >Cl</text>
<text x="102.053089" y="348.122287" fill="rgb(30,239,30)"  stroke="rgb(30,239,30)" stroke-width="1" font-size="16" >Cl</text>
<text x="22.000000" y="308.764049" fill="rgb(30,239,30)"  stroke="rgb(30,239,30)" stroke-width="1" font-size="16" >Cl</text>
<text x="204.445810" y="269.550780" fill="rgb(12,12,255)"  stroke="rgb(12,12,255)" stroke-width="1" font-size="16" >NH</text>
<text x="185.751530" y="199.653486" fill="rgb(12,12,255)"  stroke="rgb(12,12,255)" stroke-width="1" font-size="16" >N</text>
<text x="185.751530" y="183.653486" fill="rgb(12,12,255)"  stroke="rgb(12,12,255)" stroke-width="1" font-size="16" >H</text>
<text x="22.058690" y="230.149226" fill="rgb(30,239,30)"  stroke="rgb(30,239,30)" stroke-width="1" font-size="16" >Cl</text>
<text x="255.619917" y="258.399940" fill="rgb(191,191,191)"  stroke="rgb(191,191,191)" stroke-width="1" font-size="16" >H</text>
<text x="325.532142" y="199.705663" fill="rgb(12,12,255)"  stroke="rgb(12,12,255)" stroke-width="1" font-size="16" >N</text>
<text x="325.532142" y="183.705663" fill="rgb(12,12,255)"  stroke="rgb(12,12,255)" stroke-width="1" font-size="16" >H</text>
<text x="294.799662" y="269.602967" fill="rgb(12,12,255)"  stroke="rgb(12,12,255)" stroke-width="1" font-size="16" >HN</text>
<text x="334.273896" y="116.114347" fill="rgb(30,239,30)"  stroke="rgb(30,239,30)" stroke-width="1" font-size="16" >Cl</text>
<text x="294.998877" y="48.029340" fill="rgb(30,239,30)"  stroke="rgb(30,239,30)" stroke-width="1" font-size="16" >Cl</text>
<text x="165.072184" y="116.055668" fill="rgb(30,239,30)"  stroke="rgb(30,239,30)" stroke-width="1" font-size="16" >Cl</text>
</svg>
</g>
<text font-size="18.000000" fill ="black" font-family="sans-serif"
x="10.000000" y="20.000000" ></text>
</svg>
