<?xml version="1.0"?>
<svg version="1.1" id="topsvg"
xmlns="http://www.w3.org/2000/svg" xmlns:xlink="http://www.w3.org/1999/xlink"
xmlns:cml="http://www.xml-cml.org/schema" x="0" y="0" width="200px" height="200px" viewBox="0 0 100 100">
<title> - Open Babel Depiction</title>
<rect x="0" y="0" width="100" height="100" fill="white"/>
<g transform="translate(0,0)">
<svg width="100" height="100" x="0" y="0" viewBox="0 0 431.769 354.641"
font-family="sans-serif" stroke="rgb(0,0,0)" stroke-width="2"  stroke-linecap="round">
<line x1="56.6" y1="106.5" x2="80.0" y2="120.0" stroke="rgb(0,0,0)"  stroke-width="2.0"/>
<line x1="80.0" y1="120.0" x2="114.6" y2="100.0" stroke="rgb(0,0,0)"  stroke-width="2.0"/>
<line x1="114.6" y1="100.0" x2="114.6" y2="60.0" stroke="rgb(0,0,0)"  stroke-width="2.0"/>
<line x1="114.6" y1="60.0" x2="149.3" y2="40.0" stroke="rgb(0,0,0)"  stroke-width="2.0"/>
<line x1="149.3" y1="40.0" x2="172.7" y2="53.5" stroke="rgb(0,0,0)"  stroke-width="2.0"/>
<line x1="253.2" y1="100.0" x2="287.8" y2="120.0" stroke="rgb(0,0,0)"  stroke-width="2.0"/>
<line x1="287.8" y1="120.0" x2="301.3" y2="96.6" stroke="rgb(0,0,0)"  stroke-width="2.0"/>
<line x1="287.8" y1="120.0" x2="322.5" y2="140.0" stroke="rgb(0,0,0)"  stroke-width="2.0"/>
<line x1="287.8" y1="120.0" x2="267.8" y2="154.6" stroke="rgb(0,0,0)"  stroke-width="2.0"/>
<line x1="80.0" y1="120.0" x2="80.0" y2="160.0" stroke="rgb(0,0,0)"  stroke-width="2.0"/>
<line x1="80.0" y1="240.0" x2="80.0" y2="280.0" stroke="rgb(0,0,0)"  stroke-width="2.0"/>
<line x1="80.0" y1="280.0" x2="66.5" y2="303.4" stroke="rgb(0,0,0)"  stroke-width="2.0"/>
<line x1="80.0" y1="280.0" x2="53.0" y2="280.0" stroke="rgb(0,0,0)"  stroke-width="2.0"/>
<line x1="80.0" y1="280.0" x2="103.4" y2="293.5" stroke="rgb(0,0,0)"  stroke-width="2.0"/>
<line x1="357.1" y1="200.0" x2="391.8" y2="180.0" stroke="rgb(0,0,0)"  stroke-width="2.0"/>
<line x1="358.7" y1="190.8" x2="383.0" y2="176.8" stroke="rgb(0,0,0)"  stroke-width="2.0"/>
<line x1="391.8" y1="180.0" x2="391.8" y2="140.0" stroke="rgb(0,0,0)"  stroke-width="2.0"/>
<line x1="391.8" y1="140.0" x2="357.1" y2="120.0" stroke="rgb(0,0,0)"  stroke-width="2.0"/>
<line x1="383.0" y1="143.2" x2="358.7" y2="129.2" stroke="rgb(0,0,0)"  stroke-width="2.0"/>
<line x1="357.1" y1="120.0" x2="322.5" y2="140.0" stroke="rgb(0,0,0)"  stroke-width="2.0"/>
<line x1="322.5" y1="140.0" x2="322.5" y2="180.0" stroke="rgb(0,0,0)"  stroke-width="2.0"/>
<line x1="329.7" y1="146.0" x2="329.7" y2="174.0" stroke="rgb(0,0,0)"  stroke-width="2.0"/>
<line x1="322.5" y1="180.0" x2="357.1" y2="200.0" stroke="rgb(0,0,0)"  stroke-width="2.0"/>
<line x1="207.8" y1="189.3" x2="227.8" y2="223.9" stroke="rgb(0,0,0)"  stroke-width="2.0"/>
<line x1="217.1" y1="190.9" x2="231.1" y2="215.1" stroke="rgb(0,0,0)"  stroke-width="2.0"/>
<line x1="227.8" y1="223.9" x2="267.8" y2="223.9" stroke="rgb(0,0,0)"  stroke-width="2.0"/>
<line x1="267.8" y1="223.9" x2="287.8" y2="189.3" stroke="rgb(0,0,0)"  stroke-width="2.0"/>
<line x1="264.6" y1="215.1" x2="278.6" y2="190.9" stroke="rgb(0,0,0)"  stroke-width="2.0"/>
<line x1="287.8" y1="189.3" x2="267.8" y2="154.6" stroke="rgb(0,0,0)"  stroke-width="2.0"/>
<line x1="267.8" y1="154.6" x2="227.8" y2="154.6" stroke="rgb(0,0,0)"  stroke-width="2.0"/>
<line x1="261.8" y1="161.8" x2="233.8" y2="161.8" stroke="rgb(0,0,0)"  stroke-width="2.0"/>
<line x1="227.8" y1="154.6" x2="207.8" y2="189.3" stroke="rgb(0,0,0)"  stroke-width="2.0"/>
<line x1="45.4" y1="220.0" x2="80.0" y2="240.0" stroke="rgb(0,0,0)"  stroke-width="2.0"/>
<line x1="54.2" y1="216.8" x2="78.4" y2="230.8" stroke="rgb(0,0,0)"  stroke-width="2.0"/>
<line x1="80.0" y1="240.0" x2="114.6" y2="220.0" stroke="rgb(0,0,0)"  stroke-width="2.0"/>
<line x1="114.6" y1="220.0" x2="114.6" y2="180.0" stroke="rgb(0,0,0)"  stroke-width="2.0"/>
<line x1="107.4" y1="214.0" x2="107.4" y2="186.0" stroke="rgb(0,0,0)"  stroke-width="2.0"/>
<line x1="114.6" y1="180.0" x2="80.0" y2="160.0" stroke="rgb(0,0,0)"  stroke-width="2.0"/>
<line x1="80.0" y1="160.0" x2="45.4" y2="180.0" stroke="rgb(0,0,0)"  stroke-width="2.0"/>
<line x1="78.4" y1="169.2" x2="54.2" y2="183.2" stroke="rgb(0,0,0)"  stroke-width="2.0"/>
<line x1="45.4" y1="180.0" x2="45.4" y2="220.0" stroke="rgb(0,0,0)"  stroke-width="2.0"/>
<line x1="218.6" y1="120.0" x2="253.2" y2="100.0" stroke="rgb(0,0,0)"  stroke-width="2.0"/>
<line x1="253.2" y1="100.0" x2="253.2" y2="60.0" stroke="rgb(0,0,0)"  stroke-width="2.0"/>
<line x1="253.2" y1="60.0" x2="218.6" y2="40.0" stroke="rgb(0,0,0)"  stroke-width="2.0"/>
<line x1="218.6" y1="40.0" x2="195.2" y2="53.5" stroke="rgb(0,0,0)"  stroke-width="2.0"/>
<line x1="183.9" y1="73.0" x2="183.9" y2="100.0" stroke="rgb(0,0,0)"  stroke-width="2.0"/>
<line x1="183.9" y1="100.0" x2="218.6" y2="120.0" stroke="rgb(0,0,0)"  stroke-width="2.0"/>
<text x="34.000000" y="322.641016" fill="rgb(102,102,102)"  stroke="rgb(102,102,102)" stroke-width="1" font-size="16" >H</text>
<text x="46.000000" y="326.321016" fill="rgb(102,102,102)"  stroke="rgb(102,102,102)" stroke-width="1" font-size="13" >3</text>
<text x="52.500000" y="322.641016" fill="rgb(102,102,102)"  stroke="rgb(102,102,102)" stroke-width="1" font-size="16" >C</text>
<text x="14.000000" y="288.000000" fill="rgb(102,102,102)"  stroke="rgb(102,102,102)" stroke-width="1" font-size="16" >H</text>
<text x="26.000000" y="291.680000" fill="rgb(102,102,102)"  stroke="rgb(102,102,102)" stroke-width="1" font-size="13" >3</text>
<text x="32.500000" y="288.000000" fill="rgb(102,102,102)"  stroke="rgb(102,102,102)" stroke-width="1" font-size="16" >C</text>
<text x="110.641016" y="308.000000" fill="rgb(102,102,102)"  stroke="rgb(102,102,102)" stroke-width="1" font-size="16" >CH</text>
<text x="134.641016" y="311.680000" fill="rgb(102,102,102)"  stroke="rgb(102,102,102)" stroke-width="1" font-size="13" >3</text>
<text x="177.923048" y="68.000000" fill="rgb(12,12,255)"  stroke="rgb(12,12,255)" stroke-width="1" font-size="16" >N</text>
<text x="27.358984" y="108.000000" fill="rgb(255,12,12)"  stroke="rgb(255,12,12)" stroke-width="1" font-size="16" >HO</text>
<text x="301.846097" y="93.358984" fill="rgb(255,12,12)"  stroke="rgb(255,12,12)" stroke-width="1" font-size="16" >OH</text>
</svg>
</g>
<text font-size="18.000000" fill ="black" font-family="sans-serif"
x="10.000000" y="20.000000" ></text>
</svg>
