<?xml version="1.0"?>
<svg version="1.1" id="topsvg"
xmlns="http://www.w3.org/2000/svg" xmlns:xlink="http://www.w3.org/1999/xlink"
xmlns:cml="http://www.xml-cml.org/schema" x="0" y="0" width="200px" height="200px" viewBox="0 0 100 100">
<title> - Open Babel Depiction</title>
<rect x="0" y="0" width="100" height="100" fill="white"/>
<g transform="translate(0,0)">
<svg width="100" height="100" x="0" y="0" viewBox="0 0 189.282 234.641"
font-family="sans-serif" stroke="rgb(0,0,0)" stroke-width="2"  stroke-linecap="round">
<line x1="138.0" y1="188.1" x2="114.6" y2="174.6" stroke="rgb(0,0,0)"  stroke-width="2.0"/>
<line x1="114.6" y1="174.6" x2="114.6" y2="134.6" stroke="rgb(0,0,0)"  stroke-width="2.0"/>
<line x1="73.5" y1="63.4" x2="66.5" y2="51.3" stroke="rgb(0,0,0)"  stroke-width="2.0"/>
<line x1="67.0" y1="74.6" x2="53.0" y2="74.6" stroke="rgb(0,0,0)"  stroke-width="2.0"/>
<line x1="116.1" y1="177.2" x2="92.8" y2="190.7" stroke="rgb(0,0,0)"  stroke-width="2.0"/>
<line x1="113.1" y1="172.0" x2="89.8" y2="185.5" stroke="rgb(0,0,0)"  stroke-width="2.0"/>
<line x1="91.3" y1="68.1" x2="114.6" y2="54.6" stroke="rgb(0,0,0)"  stroke-width="2.0"/>
<line x1="114.6" y1="54.6" x2="149.3" y2="74.6" stroke="rgb(0,0,0)"  stroke-width="2.0"/>
<line x1="149.3" y1="74.6" x2="149.3" y2="114.6" stroke="rgb(0,0,0)"  stroke-width="2.0"/>
<line x1="149.3" y1="114.6" x2="114.6" y2="134.6" stroke="rgb(0,0,0)"  stroke-width="2.0"/>
<line x1="114.6" y1="134.6" x2="80.0" y2="114.6" stroke="rgb(0,0,0)"  stroke-width="2.0"/>
<line x1="80.0" y1="114.6" x2="80.0" y2="87.6" stroke="rgb(0,0,0)"  stroke-width="2.0"/>
<text x="154.082032" y="180.529016" fill="rgb(255,12,12)"  stroke="rgb(255,12,12)" stroke-width="1" font-size="16" >_</text>
<text x="143.282032" y="202.641016" fill="rgb(255,12,12)"  stroke="rgb(255,12,12)" stroke-width="1" font-size="16" >O</text>
<text x="84.800000" y="70.609016" fill="rgb(12,12,255)"  stroke="rgb(12,12,255)" stroke-width="1" font-size="16" >+</text>
<text x="74.000000" y="82.641016" fill="rgb(12,12,255)"  stroke="rgb(12,12,255)" stroke-width="1" font-size="16" >N</text>
<text x="54.000000" y="48.000000" fill="rgb(191,191,191)"  stroke="rgb(191,191,191)" stroke-width="1" font-size="16" >H</text>
<text x="34.000000" y="82.641016" fill="rgb(191,191,191)"  stroke="rgb(191,191,191)" stroke-width="1" font-size="16" >H</text>
<text x="74.000000" y="202.641016" fill="rgb(255,12,12)"  stroke="rgb(255,12,12)" stroke-width="1" font-size="16" >O</text>
</svg>
</g>
<text font-size="18.000000" fill ="black" font-family="sans-serif"
x="10.000000" y="20.000000" ></text>
</svg>
