<?xml version="1.0"?>
<svg version="1.1" id="topsvg"
xmlns="http://www.w3.org/2000/svg" xmlns:xlink="http://www.w3.org/1999/xlink"
xmlns:cml="http://www.xml-cml.org/schema" x="0" y="0" width="200px" height="200px" viewBox="0 0 100 100">
<title> - Open Babel Depiction</title>
<rect x="0" y="0" width="100" height="100" fill="white"/>
<g transform="translate(0,0)">
<svg width="100" height="100" x="0" y="0" viewBox="0 0 589.16 589.153"
font-family="sans-serif" stroke="rgb(0,0,0)" stroke-width="2"  stroke-linecap="round">
<line x1="308.6" y1="536.3" x2="305.3" y2="509.2" stroke="rgb(0,0,0)"  stroke-width="2.0"/>
<line x1="295.4" y1="429.2" x2="295.5" y2="388.9" stroke="rgb(0,0,0)"  stroke-width="2.0"/>
<line x1="321.2" y1="319.3" x2="311.4" y2="309.5" stroke="rgb(0,0,0)"  stroke-width="2.0"/>
<line x1="390.8" y1="293.7" x2="431.1" y2="293.7" stroke="rgb(0,0,0)"  stroke-width="2.0"/>
<line x1="509.8" y1="276.5" x2="536.5" y2="270.7" stroke="rgb(0,0,0)"  stroke-width="2.0"/>
<line x1="295.5" y1="198.3" x2="295.6" y2="158.0" stroke="rgb(0,0,0)"  stroke-width="2.0"/>
<line x1="312.8" y1="79.3" x2="318.7" y2="52.7" stroke="rgb(0,0,0)"  stroke-width="2.0"/>
<line x1="269.8" y1="267.9" x2="279.7" y2="277.8" stroke="rgb(0,0,0)"  stroke-width="2.0"/>
<line x1="200.2" y1="293.6" x2="159.9" y2="293.6" stroke="rgb(0,0,0)"  stroke-width="2.0"/>
<line x1="80.0" y1="283.6" x2="52.9" y2="280.3" stroke="rgb(0,0,0)"  stroke-width="2.0"/>
<line x1="330.4" y1="368.8" x2="365.3" y2="389.0" stroke="rgb(0,0,0)"  stroke-width="2.0"/>
<line x1="339.2" y1="365.6" x2="363.7" y2="379.7" stroke="rgb(0,0,0)"  stroke-width="2.0"/>
<line x1="365.3" y1="389.0" x2="390.8" y2="363.4" stroke="rgb(0,0,0)"  stroke-width="2.0"/>
<line x1="390.8" y1="363.4" x2="370.7" y2="328.5" stroke="rgb(0,0,0)"  stroke-width="2.0"/>
<line x1="381.6" y1="361.8" x2="367.4" y2="337.3" stroke="rgb(0,0,0)"  stroke-width="2.0"/>
<line x1="370.7" y1="328.5" x2="343.4" y2="328.5" stroke="rgb(0,0,0)"  stroke-width="2.0"/>
<line x1="330.4" y1="341.5" x2="330.4" y2="368.8" stroke="rgb(0,0,0)"  stroke-width="2.0"/>
<line x1="260.6" y1="218.4" x2="225.8" y2="198.3" stroke="rgb(0,0,0)"  stroke-width="2.0"/>
<line x1="225.8" y1="198.3" x2="200.2" y2="223.8" stroke="rgb(0,0,0)"  stroke-width="2.0"/>
<line x1="226.6" y1="207.6" x2="209.6" y2="224.7" stroke="rgb(0,0,0)"  stroke-width="2.0"/>
<line x1="200.2" y1="223.8" x2="220.3" y2="258.7" stroke="rgb(0,0,0)"  stroke-width="2.0"/>
<line x1="220.3" y1="258.7" x2="247.6" y2="258.7" stroke="rgb(0,0,0)"  stroke-width="2.0"/>
<line x1="260.6" y1="245.7" x2="260.6" y2="218.4" stroke="rgb(0,0,0)"  stroke-width="2.0"/>
<line x1="263.3" y1="453.5" x2="295.4" y2="429.2" stroke="rgb(0,0,0)"  stroke-width="2.0"/>
<line x1="272.4" y1="455.6" x2="295.0" y2="438.6" stroke="rgb(0,0,0)"  stroke-width="2.0"/>
<line x1="295.4" y1="429.2" x2="332.5" y2="444.9" stroke="rgb(0,0,0)"  stroke-width="2.0"/>
<line x1="332.5" y1="444.9" x2="337.5" y2="484.9" stroke="rgb(0,0,0)"  stroke-width="2.0"/>
<line x1="326.1" y1="451.8" x2="329.6" y2="479.8" stroke="rgb(0,0,0)"  stroke-width="2.0"/>
<line x1="337.5" y1="484.9" x2="305.3" y2="509.2" stroke="rgb(0,0,0)"  stroke-width="2.0"/>
<line x1="305.3" y1="509.2" x2="268.2" y2="493.5" stroke="rgb(0,0,0)"  stroke-width="2.0"/>
<line x1="302.6" y1="500.2" x2="276.5" y2="489.2" stroke="rgb(0,0,0)"  stroke-width="2.0"/>
<line x1="268.2" y1="493.5" x2="263.3" y2="453.5" stroke="rgb(0,0,0)"  stroke-width="2.0"/>
<line x1="443.3" y1="255.3" x2="431.1" y2="293.7" stroke="rgb(0,0,0)"  stroke-width="2.0"/>
<line x1="448.4" y1="263.2" x2="439.8" y2="290.2" stroke="rgb(0,0,0)"  stroke-width="2.0"/>
<line x1="431.1" y1="293.7" x2="458.2" y2="323.5" stroke="rgb(0,0,0)"  stroke-width="2.0"/>
<line x1="458.2" y1="323.5" x2="497.6" y2="314.9" stroke="rgb(0,0,0)"  stroke-width="2.0"/>
<line x1="462.6" y1="315.1" x2="490.2" y2="309.1" stroke="rgb(0,0,0)"  stroke-width="2.0"/>
<line x1="497.6" y1="314.9" x2="509.8" y2="276.5" stroke="rgb(0,0,0)"  stroke-width="2.0"/>
<line x1="509.8" y1="276.5" x2="482.7" y2="246.7" stroke="rgb(0,0,0)"  stroke-width="2.0"/>
<line x1="500.4" y1="276.9" x2="481.4" y2="256.0" stroke="rgb(0,0,0)"  stroke-width="2.0"/>
<line x1="482.7" y1="246.7" x2="443.3" y2="255.3" stroke="rgb(0,0,0)"  stroke-width="2.0"/>
<line x1="265.8" y1="130.9" x2="295.6" y2="158.0" stroke="rgb(0,0,0)"  stroke-width="2.0"/>
<line x1="275.1" y1="129.6" x2="296.0" y2="148.7" stroke="rgb(0,0,0)"  stroke-width="2.0"/>
<line x1="295.6" y1="158.0" x2="333.9" y2="145.8" stroke="rgb(0,0,0)"  stroke-width="2.0"/>
<line x1="333.9" y1="145.8" x2="342.6" y2="106.5" stroke="rgb(0,0,0)"  stroke-width="2.0"/>
<line x1="328.2" y1="138.4" x2="334.3" y2="110.8" stroke="rgb(0,0,0)"  stroke-width="2.0"/>
<line x1="342.6" y1="106.5" x2="312.8" y2="79.3" stroke="rgb(0,0,0)"  stroke-width="2.0"/>
<line x1="312.8" y1="79.3" x2="274.4" y2="91.5" stroke="rgb(0,0,0)"  stroke-width="2.0"/>
<line x1="309.3" y1="88.0" x2="282.3" y2="96.6" stroke="rgb(0,0,0)"  stroke-width="2.0"/>
<line x1="274.4" y1="91.5" x2="265.8" y2="130.9" stroke="rgb(0,0,0)"  stroke-width="2.0"/>
<line x1="135.6" y1="325.7" x2="159.9" y2="293.6" stroke="rgb(0,0,0)"  stroke-width="2.0"/>
<line x1="133.5" y1="316.6" x2="150.6" y2="294.0" stroke="rgb(0,0,0)"  stroke-width="2.0"/>
<line x1="159.9" y1="293.6" x2="144.2" y2="256.5" stroke="rgb(0,0,0)"  stroke-width="2.0"/>
<line x1="144.2" y1="256.5" x2="104.3" y2="251.5" stroke="rgb(0,0,0)"  stroke-width="2.0"/>
<line x1="137.4" y1="262.9" x2="109.3" y2="259.4" stroke="rgb(0,0,0)"  stroke-width="2.0"/>
<line x1="104.3" y1="251.5" x2="80.0" y2="283.6" stroke="rgb(0,0,0)"  stroke-width="2.0"/>
<line x1="80.0" y1="283.6" x2="95.7" y2="320.7" stroke="rgb(0,0,0)"  stroke-width="2.0"/>
<line x1="88.9" y1="286.3" x2="100.0" y2="312.4" stroke="rgb(0,0,0)"  stroke-width="2.0"/>
<line x1="95.7" y1="320.7" x2="135.6" y2="325.7" stroke="rgb(0,0,0)"  stroke-width="2.0"/>
<line x1="220.3" y1="328.5" x2="200.2" y2="363.4" stroke="rgb(0,0,0)"  stroke-width="2.0"/>
<line x1="200.2" y1="363.4" x2="225.7" y2="388.9" stroke="rgb(0,0,0)"  stroke-width="2.0"/>
<line x1="209.5" y1="362.5" x2="226.5" y2="379.6" stroke="rgb(0,0,0)"  stroke-width="2.0"/>
<line x1="225.7" y1="388.9" x2="260.6" y2="368.8" stroke="rgb(0,0,0)"  stroke-width="2.0"/>
<line x1="260.6" y1="368.8" x2="260.6" y2="341.5" stroke="rgb(0,0,0)"  stroke-width="2.0"/>
<line x1="247.3" y1="328.5" x2="220.3" y2="328.5" stroke="rgb(0,0,0)"  stroke-width="2.0"/>
<line x1="245.3" y1="335.7" x2="226.3" y2="335.7" stroke="rgb(0,0,0)"  stroke-width="2.0"/>
<line x1="370.7" y1="258.8" x2="343.4" y2="258.8" stroke="rgb(0,0,0)"  stroke-width="2.0"/>
<line x1="330.4" y1="245.5" x2="330.4" y2="218.5" stroke="rgb(0,0,0)"  stroke-width="2.0"/>
<line x1="337.6" y1="243.5" x2="337.6" y2="224.5" stroke="rgb(0,0,0)"  stroke-width="2.0"/>
<line x1="330.4" y1="218.5" x2="365.3" y2="198.3" stroke="rgb(0,0,0)"  stroke-width="2.0"/>
<line x1="365.3" y1="198.3" x2="390.9" y2="223.9" stroke="rgb(0,0,0)"  stroke-width="2.0"/>
<line x1="364.5" y1="207.7" x2="381.5" y2="224.7" stroke="rgb(0,0,0)"  stroke-width="2.0"/>
<line x1="390.9" y1="223.9" x2="370.7" y2="258.8" stroke="rgb(0,0,0)"  stroke-width="2.0"/>
<line x1="295.5" y1="388.9" x2="260.6" y2="368.8" stroke="rgb(0,0,0)"  stroke-width="2.0"/>
<line x1="293.9" y1="379.7" x2="269.4" y2="365.6" stroke="rgb(0,0,0)"  stroke-width="2.0"/>
<line x1="220.3" y1="328.5" x2="200.2" y2="293.6" stroke="rgb(0,0,0)"  stroke-width="2.0"/>
<line x1="200.2" y1="293.6" x2="220.3" y2="258.7" stroke="rgb(0,0,0)"  stroke-width="2.0"/>
<line x1="209.4" y1="292.0" x2="223.6" y2="267.5" stroke="rgb(0,0,0)"  stroke-width="2.0"/>
<line x1="260.6" y1="218.4" x2="295.5" y2="198.3" stroke="rgb(0,0,0)"  stroke-width="2.0"/>
<line x1="269.4" y1="221.7" x2="293.9" y2="207.5" stroke="rgb(0,0,0)"  stroke-width="2.0"/>
<line x1="295.5" y1="198.3" x2="330.4" y2="218.5" stroke="rgb(0,0,0)"  stroke-width="2.0"/>
<line x1="370.7" y1="258.8" x2="390.8" y2="293.7" stroke="rgb(0,0,0)"  stroke-width="2.0"/>
<line x1="367.5" y1="267.6" x2="381.6" y2="292.1" stroke="rgb(0,0,0)"  stroke-width="2.0"/>
<line x1="390.8" y1="293.7" x2="370.7" y2="328.5" stroke="rgb(0,0,0)"  stroke-width="2.0"/>
<line x1="330.4" y1="368.8" x2="295.5" y2="388.9" stroke="rgb(0,0,0)"  stroke-width="2.0"/>
<text x="324.425485" y="266.746184" fill="rgb(12,12,255)"  stroke="rgb(12,12,255)" stroke-width="1" font-size="16" >N</text>
<text x="315.452403" y="48.000000" fill="rgb(165,40,40)"  stroke="rgb(165,40,40)" stroke-width="1" font-size="16" >Br</text>
<text x="254.629951" y="266.713917" fill="rgb(12,12,255)"  stroke="rgb(12,12,255)" stroke-width="1" font-size="16" >N</text>
<text x="282.871802" y="294.981893" fill="rgb(191,191,191)"  stroke="rgb(191,191,191)" stroke-width="1" font-size="16" >H</text>
<text x="22.000000" y="286.650258" fill="rgb(165,40,40)"  stroke="rgb(165,40,40)" stroke-width="1" font-size="16" >Br</text>
<text x="254.597693" y="336.490387" fill="rgb(12,12,255)"  stroke="rgb(12,12,255)" stroke-width="1" font-size="16" >N</text>
<text x="304.233824" y="557.153133" fill="rgb(165,40,40)"  stroke="rgb(165,40,40)" stroke-width="1" font-size="16" >Br</text>
<text x="324.393227" y="336.522654" fill="rgb(12,12,255)"  stroke="rgb(12,12,255)" stroke-width="1" font-size="16" >N</text>
<text x="296.249708" y="308.353101" fill="rgb(191,191,191)"  stroke="rgb(191,191,191)" stroke-width="1" font-size="16" >H</text>
<text x="543.160241" y="275.883733" fill="rgb(165,40,40)"  stroke="rgb(165,40,40)" stroke-width="1" font-size="16" >Br</text>
</svg>
</g>
<text font-size="18.000000" fill ="black" font-family="sans-serif"
x="10.000000" y="20.000000" ></text>
</svg>
