<?xml version="1.0"?>
<svg version="1.1" id="topsvg"
xmlns="http://www.w3.org/2000/svg" xmlns:xlink="http://www.w3.org/1999/xlink"
xmlns:cml="http://www.xml-cml.org/schema" x="0" y="0" width="200px" height="200px" viewBox="0 0 100 100">
<title> - Open Babel Depiction</title>
<rect x="0" y="0" width="100" height="100" fill="white"/>
<g transform="translate(0,0)">
<svg width="100" height="100" x="0" y="0" viewBox="0 0 616.82 625.354"
font-family="sans-serif" stroke="rgb(0,0,0)" stroke-width="2"  stroke-linecap="round">
<line x1="312.8" y1="47.8" x2="301.4" y2="56.4" stroke="rgb(0,0,0)"  stroke-width="2.0"/>
<line x1="292.6" y1="77.2" x2="296.0" y2="104.2" stroke="rgb(0,0,0)"  stroke-width="2.0"/>
<line x1="305.8" y1="184.1" x2="305.8" y2="224.4" stroke="rgb(0,0,0)"  stroke-width="2.0"/>
<line x1="401.0" y1="319.7" x2="441.3" y2="319.7" stroke="rgb(0,0,0)"  stroke-width="2.0"/>
<line x1="521.2" y1="329.7" x2="548.2" y2="333.0" stroke="rgb(0,0,0)"  stroke-width="2.0"/>
<line x1="566.2" y1="346.6" x2="571.8" y2="359.7" stroke="rgb(0,0,0)"  stroke-width="2.0"/>
<line x1="331.4" y1="345.4" x2="321.6" y2="335.5" stroke="rgb(0,0,0)"  stroke-width="2.0"/>
<line x1="305.7" y1="414.9" x2="305.7" y2="455.2" stroke="rgb(0,0,0)"  stroke-width="2.0"/>
<line x1="288.5" y1="533.8" x2="282.6" y2="560.5" stroke="rgb(0,0,0)"  stroke-width="2.0"/>
<line x1="267.4" y1="577.1" x2="253.8" y2="581.4" stroke="rgb(0,0,0)"  stroke-width="2.0"/>
<line x1="280.1" y1="294.0" x2="289.9" y2="303.8" stroke="rgb(0,0,0)"  stroke-width="2.0"/>
<line x1="210.5" y1="319.6" x2="170.2" y2="319.6" stroke="rgb(0,0,0)"  stroke-width="2.0"/>
<line x1="91.6" y1="336.8" x2="64.9" y2="342.6" stroke="rgb(0,0,0)"  stroke-width="2.0"/>
<line x1="48.3" y1="357.8" x2="43.9" y2="371.4" stroke="rgb(0,0,0)"  stroke-width="2.0"/>
<line x1="340.6" y1="394.8" x2="375.5" y2="415.0" stroke="rgb(0,0,0)"  stroke-width="2.0"/>
<line x1="375.5" y1="415.0" x2="401.0" y2="389.5" stroke="rgb(0,0,0)"  stroke-width="2.0"/>
<line x1="374.6" y1="405.6" x2="391.7" y2="388.6" stroke="rgb(0,0,0)"  stroke-width="2.0"/>
<line x1="401.0" y1="389.5" x2="380.9" y2="354.6" stroke="rgb(0,0,0)"  stroke-width="2.0"/>
<line x1="380.9" y1="354.6" x2="353.6" y2="354.6" stroke="rgb(0,0,0)"  stroke-width="2.0"/>
<line x1="340.6" y1="367.6" x2="340.6" y2="394.8" stroke="rgb(0,0,0)"  stroke-width="2.0"/>
<line x1="270.9" y1="244.5" x2="270.9" y2="271.8" stroke="rgb(0,0,0)"  stroke-width="2.0"/>
<line x1="257.9" y1="284.8" x2="230.6" y2="284.8" stroke="rgb(0,0,0)"  stroke-width="2.0"/>
<line x1="230.6" y1="284.8" x2="210.5" y2="249.9" stroke="rgb(0,0,0)"  stroke-width="2.0"/>
<line x1="233.9" y1="276.0" x2="219.8" y2="251.5" stroke="rgb(0,0,0)"  stroke-width="2.0"/>
<line x1="210.5" y1="249.9" x2="236.0" y2="224.4" stroke="rgb(0,0,0)"  stroke-width="2.0"/>
<line x1="236.0" y1="224.4" x2="270.9" y2="244.5" stroke="rgb(0,0,0)"  stroke-width="2.0"/>
<line x1="237.6" y1="233.6" x2="262.1" y2="247.7" stroke="rgb(0,0,0)"  stroke-width="2.0"/>
<line x1="338.0" y1="159.9" x2="305.8" y2="184.1" stroke="rgb(0,0,0)"  stroke-width="2.0"/>
<line x1="328.8" y1="157.7" x2="306.3" y2="174.8" stroke="rgb(0,0,0)"  stroke-width="2.0"/>
<line x1="305.8" y1="184.1" x2="268.8" y2="168.4" stroke="rgb(0,0,0)"  stroke-width="2.0"/>
<line x1="268.8" y1="168.4" x2="263.8" y2="128.5" stroke="rgb(0,0,0)"  stroke-width="2.0"/>
<line x1="275.2" y1="161.6" x2="271.7" y2="133.5" stroke="rgb(0,0,0)"  stroke-width="2.0"/>
<line x1="263.8" y1="128.5" x2="296.0" y2="104.2" stroke="rgb(0,0,0)"  stroke-width="2.0"/>
<line x1="296.0" y1="104.2" x2="333.0" y2="119.9" stroke="rgb(0,0,0)"  stroke-width="2.0"/>
<line x1="298.7" y1="113.2" x2="324.7" y2="124.2" stroke="rgb(0,0,0)"  stroke-width="2.0"/>
<line x1="333.0" y1="119.9" x2="338.0" y2="159.9" stroke="rgb(0,0,0)"  stroke-width="2.0"/>
<line x1="465.6" y1="287.6" x2="441.3" y2="319.7" stroke="rgb(0,0,0)"  stroke-width="2.0"/>
<line x1="467.7" y1="296.7" x2="450.6" y2="319.3" stroke="rgb(0,0,0)"  stroke-width="2.0"/>
<line x1="441.3" y1="319.7" x2="457.0" y2="356.8" stroke="rgb(0,0,0)"  stroke-width="2.0"/>
<line x1="457.0" y1="356.8" x2="496.9" y2="361.8" stroke="rgb(0,0,0)"  stroke-width="2.0"/>
<line x1="463.8" y1="350.4" x2="491.8" y2="353.9" stroke="rgb(0,0,0)"  stroke-width="2.0"/>
<line x1="496.9" y1="361.8" x2="521.2" y2="329.7" stroke="rgb(0,0,0)"  stroke-width="2.0"/>
<line x1="521.2" y1="329.7" x2="505.5" y2="292.6" stroke="rgb(0,0,0)"  stroke-width="2.0"/>
<line x1="512.2" y1="326.9" x2="501.2" y2="300.9" stroke="rgb(0,0,0)"  stroke-width="2.0"/>
<line x1="505.5" y1="292.6" x2="465.6" y2="287.6" stroke="rgb(0,0,0)"  stroke-width="2.0"/>
<line x1="335.4" y1="482.3" x2="305.7" y2="455.2" stroke="rgb(0,0,0)"  stroke-width="2.0"/>
<line x1="326.2" y1="483.6" x2="305.3" y2="464.5" stroke="rgb(0,0,0)"  stroke-width="2.0"/>
<line x1="305.7" y1="455.2" x2="267.3" y2="467.4" stroke="rgb(0,0,0)"  stroke-width="2.0"/>
<line x1="267.3" y1="467.4" x2="258.7" y2="506.7" stroke="rgb(0,0,0)"  stroke-width="2.0"/>
<line x1="273.1" y1="474.8" x2="267.0" y2="502.4" stroke="rgb(0,0,0)"  stroke-width="2.0"/>
<line x1="258.7" y1="506.7" x2="288.5" y2="533.8" stroke="rgb(0,0,0)"  stroke-width="2.0"/>
<line x1="288.5" y1="533.8" x2="326.8" y2="521.6" stroke="rgb(0,0,0)"  stroke-width="2.0"/>
<line x1="292.0" y1="525.2" x2="318.9" y2="516.6" stroke="rgb(0,0,0)"  stroke-width="2.0"/>
<line x1="326.8" y1="521.6" x2="335.4" y2="482.3" stroke="rgb(0,0,0)"  stroke-width="2.0"/>
<line x1="158.0" y1="358.0" x2="170.2" y2="319.6" stroke="rgb(0,0,0)"  stroke-width="2.0"/>
<line x1="153.0" y1="350.1" x2="161.5" y2="323.1" stroke="rgb(0,0,0)"  stroke-width="2.0"/>
<line x1="170.2" y1="319.6" x2="143.1" y2="289.8" stroke="rgb(0,0,0)"  stroke-width="2.0"/>
<line x1="143.1" y1="289.8" x2="103.8" y2="298.4" stroke="rgb(0,0,0)"  stroke-width="2.0"/>
<line x1="138.8" y1="298.1" x2="111.2" y2="304.2" stroke="rgb(0,0,0)"  stroke-width="2.0"/>
<line x1="103.8" y1="298.4" x2="91.6" y2="336.8" stroke="rgb(0,0,0)"  stroke-width="2.0"/>
<line x1="91.6" y1="336.8" x2="118.7" y2="366.6" stroke="rgb(0,0,0)"  stroke-width="2.0"/>
<line x1="100.9" y1="336.4" x2="119.9" y2="357.3" stroke="rgb(0,0,0)"  stroke-width="2.0"/>
<line x1="118.7" y1="366.6" x2="158.0" y2="358.0" stroke="rgb(0,0,0)"  stroke-width="2.0"/>
<line x1="380.9" y1="284.8" x2="401.1" y2="250.0" stroke="rgb(0,0,0)"  stroke-width="2.0"/>
<line x1="401.1" y1="250.0" x2="375.5" y2="224.4" stroke="rgb(0,0,0)"  stroke-width="2.0"/>
<line x1="391.7" y1="250.8" x2="374.7" y2="233.7" stroke="rgb(0,0,0)"  stroke-width="2.0"/>
<line x1="375.5" y1="224.4" x2="340.7" y2="244.5" stroke="rgb(0,0,0)"  stroke-width="2.0"/>
<line x1="340.7" y1="244.5" x2="340.7" y2="271.8" stroke="rgb(0,0,0)"  stroke-width="2.0"/>
<line x1="353.9" y1="284.8" x2="380.9" y2="284.8" stroke="rgb(0,0,0)"  stroke-width="2.0"/>
<line x1="355.9" y1="277.6" x2="374.9" y2="277.6" stroke="rgb(0,0,0)"  stroke-width="2.0"/>
<line x1="230.6" y1="354.5" x2="257.9" y2="354.5" stroke="rgb(0,0,0)"  stroke-width="2.0"/>
<line x1="270.8" y1="367.8" x2="270.8" y2="394.8" stroke="rgb(0,0,0)"  stroke-width="2.0"/>
<line x1="263.6" y1="369.8" x2="263.6" y2="388.8" stroke="rgb(0,0,0)"  stroke-width="2.0"/>
<line x1="270.8" y1="394.8" x2="236.0" y2="414.9" stroke="rgb(0,0,0)"  stroke-width="2.0"/>
<line x1="236.0" y1="414.9" x2="210.5" y2="389.4" stroke="rgb(0,0,0)"  stroke-width="2.0"/>
<line x1="236.8" y1="405.6" x2="219.8" y2="388.5" stroke="rgb(0,0,0)"  stroke-width="2.0"/>
<line x1="210.5" y1="389.4" x2="230.6" y2="354.5" stroke="rgb(0,0,0)"  stroke-width="2.0"/>
<line x1="305.8" y1="224.4" x2="340.7" y2="244.5" stroke="rgb(0,0,0)"  stroke-width="2.0"/>
<line x1="307.4" y1="233.6" x2="331.9" y2="247.8" stroke="rgb(0,0,0)"  stroke-width="2.0"/>
<line x1="380.9" y1="284.8" x2="401.0" y2="319.7" stroke="rgb(0,0,0)"  stroke-width="2.0"/>
<line x1="401.0" y1="319.7" x2="380.9" y2="354.6" stroke="rgb(0,0,0)"  stroke-width="2.0"/>
<line x1="391.8" y1="321.3" x2="377.6" y2="345.8" stroke="rgb(0,0,0)"  stroke-width="2.0"/>
<line x1="340.6" y1="394.8" x2="305.7" y2="414.9" stroke="rgb(0,0,0)"  stroke-width="2.0"/>
<line x1="331.8" y1="391.6" x2="307.3" y2="405.7" stroke="rgb(0,0,0)"  stroke-width="2.0"/>
<line x1="305.7" y1="414.9" x2="270.8" y2="394.8" stroke="rgb(0,0,0)"  stroke-width="2.0"/>
<line x1="230.6" y1="354.5" x2="210.5" y2="319.6" stroke="rgb(0,0,0)"  stroke-width="2.0"/>
<line x1="233.8" y1="345.7" x2="219.7" y2="321.2" stroke="rgb(0,0,0)"  stroke-width="2.0"/>
<line x1="210.5" y1="319.6" x2="230.6" y2="284.8" stroke="rgb(0,0,0)"  stroke-width="2.0"/>
<line x1="270.9" y1="244.5" x2="305.8" y2="224.4" stroke="rgb(0,0,0)"  stroke-width="2.0"/>
<text x="273.823986" y="581.162083" fill="rgb(255,12,12)"  stroke="rgb(255,12,12)" stroke-width="1" font-size="16" >O</text>
<text x="215.453100" y="593.354203" fill="rgb(102,102,102)"  stroke="rgb(102,102,102)" stroke-width="1" font-size="16" >H</text>
<text x="227.453100" y="597.034203" fill="rgb(102,102,102)"  stroke="rgb(102,102,102)" stroke-width="1" font-size="13" >3</text>
<text x="233.953100" y="593.354203" fill="rgb(102,102,102)"  stroke="rgb(102,102,102)" stroke-width="1" font-size="16" >C</text>
<text x="264.887359" y="292.774892" fill="rgb(12,12,255)"  stroke="rgb(12,12,255)" stroke-width="1" font-size="16" >N</text>
<text x="293.129391" y="321.043049" fill="rgb(191,191,191)"  stroke="rgb(191,191,191)" stroke-width="1" font-size="16" >H</text>
<text x="46.223058" y="353.385343" fill="rgb(255,12,12)"  stroke="rgb(255,12,12)" stroke-width="1" font-size="16" >O</text>
<text x="14.000000" y="391.746385" fill="rgb(102,102,102)"  stroke="rgb(102,102,102)" stroke-width="1" font-size="16" >H</text>
<text x="26.000000" y="395.426385" fill="rgb(102,102,102)"  stroke="rgb(102,102,102)" stroke-width="1" font-size="13" >3</text>
<text x="32.500000" y="391.746385" fill="rgb(102,102,102)"  stroke="rgb(102,102,102)" stroke-width="1" font-size="16" >C</text>
<text x="264.855116" y="362.518602" fill="rgb(12,12,255)"  stroke="rgb(12,12,255)" stroke-width="1" font-size="16" >N</text>
<text x="285.037298" y="72.248001" fill="rgb(255,12,12)"  stroke="rgb(255,12,12)" stroke-width="1" font-size="16" >O</text>
<text x="334.650125" y="292.807144" fill="rgb(12,12,255)"  stroke="rgb(12,12,255)" stroke-width="1" font-size="16" >N</text>
<text x="319.177726" y="48.000000" fill="rgb(102,102,102)"  stroke="rgb(102,102,102)" stroke-width="1" font-size="16" >CH</text>
<text x="343.177726" y="51.680000" fill="rgb(102,102,102)"  stroke="rgb(102,102,102)" stroke-width="1" font-size="13" >3</text>
<text x="555.144245" y="342.623873" fill="rgb(255,12,12)"  stroke="rgb(255,12,12)" stroke-width="1" font-size="16" >O</text>
<text x="572.820391" y="379.707982" fill="rgb(102,102,102)"  stroke="rgb(102,102,102)" stroke-width="1" font-size="16" >CH</text>
<text x="596.820391" y="383.387982" fill="rgb(102,102,102)"  stroke="rgb(102,102,102)" stroke-width="1" font-size="13" >3</text>
<text x="334.617882" y="362.550854" fill="rgb(12,12,255)"  stroke="rgb(12,12,255)" stroke-width="1" font-size="16" >N</text>
<text x="306.416800" y="334.323684" fill="rgb(191,191,191)"  stroke="rgb(191,191,191)" stroke-width="1" font-size="16" >H</text>
</svg>
</g>
<text font-size="18.000000" fill ="black" font-family="sans-serif"
x="10.000000" y="20.000000" ></text>
</svg>
