<?xml version="1.0"?>
<svg version="1.1" id="topsvg"
xmlns="http://www.w3.org/2000/svg" xmlns:xlink="http://www.w3.org/1999/xlink"
xmlns:cml="http://www.xml-cml.org/schema" x="0" y="0" width="200px" height="200px" viewBox="0 0 100 100">
<title> - Open Babel Depiction</title>
<rect x="0" y="0" width="100" height="100" fill="white"/>
<g transform="translate(0,0)">
<svg width="100" height="100" x="0" y="0" viewBox="0 0 347.762 240.67"
font-family="sans-serif" stroke="rgb(0,0,0)" stroke-width="2"  stroke-linecap="round">
<line x1="274.9" y1="188.3" x2="266.6" y2="162.6" stroke="rgb(0,0,0)"  stroke-width="2.0"/>
<line x1="278.8" y1="92.9" x2="296.8" y2="72.8" stroke="rgb(0,0,0)"  stroke-width="2.0"/>
<line x1="283.2" y1="96.9" x2="301.3" y2="76.8" stroke="rgb(0,0,0)"  stroke-width="2.0"/>
<line x1="178.6" y1="100.0" x2="143.9" y2="120.0" stroke="rgb(0,0,0)"  stroke-width="2.0"/>
<line x1="143.9" y1="120.0" x2="109.3" y2="100.0" stroke="rgb(0,0,0)"  stroke-width="2.0"/>
<line x1="182.7" y1="60.2" x2="178.6" y2="100.0" stroke="rgb(0,0,0)"  stroke-width="2.0"/>
<line x1="189.3" y1="66.9" x2="186.4" y2="94.8" stroke="rgb(0,0,0)"  stroke-width="2.0"/>
<line x1="178.6" y1="100.0" x2="215.1" y2="116.3" stroke="rgb(0,0,0)"  stroke-width="2.0"/>
<line x1="215.1" y1="116.3" x2="241.9" y2="86.5" stroke="rgb(0,0,0)"  stroke-width="2.0"/>
<line x1="213.8" y1="107.0" x2="232.5" y2="86.2" stroke="rgb(0,0,0)"  stroke-width="2.0"/>
<line x1="241.9" y1="86.5" x2="228.4" y2="63.2" stroke="rgb(0,0,0)"  stroke-width="2.0"/>
<line x1="209.2" y1="54.6" x2="182.7" y2="60.2" stroke="rgb(0,0,0)"  stroke-width="2.0"/>
<line x1="281.0" y1="94.9" x2="241.9" y2="86.5" stroke="rgb(0,0,0)"  stroke-width="2.0"/>
<line x1="215.1" y1="116.3" x2="223.4" y2="141.9" stroke="rgb(0,0,0)"  stroke-width="2.0"/>
<line x1="240.2" y1="157.0" x2="266.6" y2="162.6" stroke="rgb(0,0,0)"  stroke-width="2.0"/>
<line x1="266.6" y1="162.6" x2="284.5" y2="142.7" stroke="rgb(0,0,0)"  stroke-width="2.0"/>
<line x1="265.3" y1="153.4" x2="277.8" y2="139.4" stroke="rgb(0,0,0)"  stroke-width="2.0"/>
<line x1="289.3" y1="120.5" x2="281.0" y2="94.9" stroke="rgb(0,0,0)"  stroke-width="2.0"/>
<line x1="40.0" y1="86.8" x2="40.0" y2="60.0" stroke="rgb(0,0,0)"  stroke-width="2.0"/>
<line x1="47.2" y1="84.8" x2="47.2" y2="66.0" stroke="rgb(0,0,0)"  stroke-width="2.0"/>
<line x1="40.0" y1="60.0" x2="74.6" y2="40.0" stroke="rgb(0,0,0)"  stroke-width="2.0"/>
<line x1="74.6" y1="40.0" x2="109.3" y2="60.0" stroke="rgb(0,0,0)"  stroke-width="2.0"/>
<line x1="76.2" y1="49.2" x2="100.5" y2="63.2" stroke="rgb(0,0,0)"  stroke-width="2.0"/>
<line x1="109.3" y1="60.0" x2="109.3" y2="100.0" stroke="rgb(0,0,0)"  stroke-width="2.0"/>
<line x1="109.3" y1="100.0" x2="74.6" y2="120.0" stroke="rgb(0,0,0)"  stroke-width="2.0"/>
<line x1="100.5" y1="96.8" x2="76.2" y2="110.8" stroke="rgb(0,0,0)"  stroke-width="2.0"/>
<line x1="74.6" y1="120.0" x2="51.3" y2="106.5" stroke="rgb(0,0,0)"  stroke-width="2.0"/>
<text x="215.871107" y="59.902657" fill="rgb(12,12,255)"  stroke="rgb(12,12,255)" stroke-width="1" font-size="16" >N</text>
<text x="215.871107" y="43.902657" fill="rgb(12,12,255)"  stroke="rgb(12,12,255)" stroke-width="1" font-size="16" >H</text>
<text x="34.000000" y="108.000000" fill="rgb(12,12,255)"  stroke="rgb(12,12,255)" stroke-width="1" font-size="16" >N</text>
<text x="274.953146" y="208.670455" fill="rgb(12,12,255)"  stroke="rgb(12,12,255)" stroke-width="1" font-size="16" >NH</text>
<text x="298.953146" y="212.350455" fill="rgb(12,12,255)"  stroke="rgb(12,12,255)" stroke-width="1" font-size="13" >2</text>
<text x="221.466563" y="162.311726" fill="rgb(12,12,255)"  stroke="rgb(12,12,255)" stroke-width="1" font-size="16" >N</text>
<text x="221.466563" y="178.311726" fill="rgb(12,12,255)"  stroke="rgb(12,12,255)" stroke-width="1" font-size="16" >H</text>
<text x="301.762235" y="73.134347" fill="rgb(255,12,12)"  stroke="rgb(255,12,12)" stroke-width="1" font-size="16" >O</text>
<text x="287.357691" y="140.902401" fill="rgb(12,12,255)"  stroke="rgb(12,12,255)" stroke-width="1" font-size="16" >N</text>
</svg>
</g>
<text font-size="18.000000" fill ="black" font-family="sans-serif"
x="10.000000" y="20.000000" ></text>
</svg>
