<?xml version="1.0"?>
<svg version="1.1" id="topsvg"
xmlns="http://www.w3.org/2000/svg" xmlns:xlink="http://www.w3.org/1999/xlink"
xmlns:cml="http://www.xml-cml.org/schema" x="0" y="0" width="200px" height="200px" viewBox="0 0 100 100">
<title> - Open Babel Depiction</title>
<rect x="0" y="0" width="100" height="100" fill="white"/>
<g transform="translate(0,0)">
<svg width="100" height="100" x="0" y="0" viewBox="0 0 387.23 248.097"
font-family="sans-serif" stroke="rgb(0,0,0)" stroke-width="2"  stroke-linecap="round">
<line x1="307.2" y1="195.1" x2="307.2" y2="181.1" stroke="rgb(0,0,0)"  stroke-width="2.0"/>
<line x1="320.2" y1="165.1" x2="334.2" y2="165.1" stroke="rgb(0,0,0)"  stroke-width="2.0"/>
<line x1="320.2" y1="171.1" x2="334.2" y2="171.1" stroke="rgb(0,0,0)"  stroke-width="2.0"/>
<line x1="304.2" y1="155.1" x2="304.2" y2="141.1" stroke="rgb(0,0,0)"  stroke-width="2.0"/>
<line x1="310.2" y1="155.1" x2="310.2" y2="141.1" stroke="rgb(0,0,0)"  stroke-width="2.0"/>
<line x1="294.2" y1="168.1" x2="267.2" y2="168.1" stroke="rgb(0,0,0)"  stroke-width="2.0"/>
<line x1="143.9" y1="120.0" x2="109.3" y2="100.0" stroke="rgb(0,0,0)"  stroke-width="2.0"/>
<line x1="143.9" y1="120.0" x2="146.7" y2="146.7" stroke="rgb(0,0,0)"  stroke-width="2.0"/>
<line x1="151.7" y1="125.2" x2="153.7" y2="143.9" stroke="rgb(0,0,0)"  stroke-width="2.0"/>
<line x1="160.8" y1="162.5" x2="187.2" y2="168.1" stroke="rgb(0,0,0)"  stroke-width="2.0"/>
<line x1="187.2" y1="168.1" x2="207.2" y2="133.5" stroke="rgb(0,0,0)"  stroke-width="2.0"/>
<line x1="184.0" y1="159.3" x2="198.0" y2="135.1" stroke="rgb(0,0,0)"  stroke-width="2.0"/>
<line x1="207.2" y1="133.5" x2="189.2" y2="113.4" stroke="rgb(0,0,0)"  stroke-width="2.0"/>
<line x1="168.6" y1="109.0" x2="143.9" y2="120.0" stroke="rgb(0,0,0)"  stroke-width="2.0"/>
<line x1="187.2" y1="168.1" x2="207.2" y2="202.7" stroke="rgb(0,0,0)"  stroke-width="2.0"/>
<line x1="207.2" y1="202.7" x2="247.2" y2="202.7" stroke="rgb(0,0,0)"  stroke-width="2.0"/>
<line x1="213.2" y1="195.5" x2="241.2" y2="195.5" stroke="rgb(0,0,0)"  stroke-width="2.0"/>
<line x1="247.2" y1="202.7" x2="267.2" y2="168.1" stroke="rgb(0,0,0)"  stroke-width="2.0"/>
<line x1="267.2" y1="168.1" x2="247.2" y2="133.5" stroke="rgb(0,0,0)"  stroke-width="2.0"/>
<line x1="258.0" y1="166.5" x2="244.0" y2="142.3" stroke="rgb(0,0,0)"  stroke-width="2.0"/>
<line x1="247.2" y1="133.5" x2="207.2" y2="133.5" stroke="rgb(0,0,0)"  stroke-width="2.0"/>
<line x1="40.0" y1="100.0" x2="40.0" y2="60.0" stroke="rgb(0,0,0)"  stroke-width="2.0"/>
<line x1="47.2" y1="94.0" x2="47.2" y2="66.0" stroke="rgb(0,0,0)"  stroke-width="2.0"/>
<line x1="40.0" y1="60.0" x2="74.6" y2="40.0" stroke="rgb(0,0,0)"  stroke-width="2.0"/>
<line x1="74.6" y1="40.0" x2="109.3" y2="60.0" stroke="rgb(0,0,0)"  stroke-width="2.0"/>
<line x1="76.2" y1="49.2" x2="100.5" y2="63.2" stroke="rgb(0,0,0)"  stroke-width="2.0"/>
<line x1="109.3" y1="60.0" x2="109.3" y2="100.0" stroke="rgb(0,0,0)"  stroke-width="2.0"/>
<line x1="109.3" y1="100.0" x2="74.6" y2="120.0" stroke="rgb(0,0,0)"  stroke-width="2.0"/>
<line x1="100.5" y1="96.8" x2="76.2" y2="110.8" stroke="rgb(0,0,0)"  stroke-width="2.0"/>
<line x1="74.6" y1="120.0" x2="40.0" y2="100.0" stroke="rgb(0,0,0)"  stroke-width="2.0"/>
<text x="174.464867" y="111.730534" fill="rgb(12,12,255)"  stroke="rgb(12,12,255)" stroke-width="1" font-size="16" >N</text>
<text x="174.464867" y="95.730534" fill="rgb(12,12,255)"  stroke="rgb(12,12,255)" stroke-width="1" font-size="16" >H</text>
<text x="142.104187" y="167.780876" fill="rgb(12,12,255)"  stroke="rgb(12,12,255)" stroke-width="1" font-size="16" >N</text>
<text x="301.230091" y="216.097343" fill="rgb(255,12,12)"  stroke="rgb(255,12,12)" stroke-width="1" font-size="16" >OH</text>
<text x="301.230091" y="136.097343" fill="rgb(255,12,12)"  stroke="rgb(255,12,12)" stroke-width="1" font-size="16" >O</text>
<text x="341.230091" y="176.097343" fill="rgb(255,12,12)"  stroke="rgb(255,12,12)" stroke-width="1" font-size="16" >O</text>
<text x="301.230091" y="176.097343" fill="rgb(178,178,0)"  stroke="rgb(178,178,0)" stroke-width="1" font-size="16" >S</text>
</svg>
</g>
<text font-size="18.000000" fill ="black" font-family="sans-serif"
x="10.000000" y="20.000000" ></text>
</svg>
