<?xml version="1.0"?>
<svg version="1.1" id="topsvg"
xmlns="http://www.w3.org/2000/svg" xmlns:xlink="http://www.w3.org/1999/xlink"
xmlns:cml="http://www.xml-cml.org/schema" x="0" y="0" width="200px" height="200px" viewBox="0 0 100 100">
<title> - Open Babel Depiction</title>
<rect x="0" y="0" width="100" height="100" fill="white"/>
<g transform="translate(0,0)">
<svg width="100" height="100" x="0" y="0" viewBox="0 0 257.118 324.736"
font-family="sans-serif" stroke="rgb(0,0,0)" stroke-width="2"  stroke-linecap="round">
<line x1="140.1" y1="53.0" x2="140.1" y2="80.0" stroke="rgb(0,0,0)"  stroke-width="2.0"/>
<line x1="184.9" y1="99.5" x2="198.2" y2="95.2" stroke="rgb(0,0,0)"  stroke-width="2.0"/>
<line x1="107.8" y1="103.5" x2="69.7" y2="91.2" stroke="rgb(0,0,0)"  stroke-width="2.0"/>
<line x1="69.7" y1="91.2" x2="49.7" y2="109.2" stroke="rgb(0,0,0)"  stroke-width="2.0"/>
<line x1="42.7" y1="130.6" x2="48.3" y2="157.0" stroke="rgb(0,0,0)"  stroke-width="2.0"/>
<line x1="48.3" y1="157.0" x2="86.4" y2="169.4" stroke="rgb(0,0,0)"  stroke-width="2.0"/>
<line x1="86.4" y1="169.4" x2="92.0" y2="195.8" stroke="rgb(0,0,0)"  stroke-width="2.0"/>
<line x1="107.0" y1="212.5" x2="132.7" y2="220.9" stroke="rgb(0,0,0)"  stroke-width="2.0"/>
<line x1="132.7" y1="220.9" x2="152.8" y2="202.8" stroke="rgb(0,0,0)"  stroke-width="2.0"/>
<line x1="174.8" y1="198.1" x2="188.1" y2="202.5" stroke="rgb(0,0,0)"  stroke-width="2.0"/>
<line x1="135.7" y1="220.3" x2="135.4" y2="247.9" stroke="rgb(0,0,0)"  stroke-width="2.0"/>
<line x1="129.8" y1="221.5" x2="141.3" y2="246.7" stroke="rgb(0,0,0)"  stroke-width="2.0"/>
<line x1="153.4" y1="264.0" x2="179.1" y2="272.4" stroke="rgb(0,0,0)"  stroke-width="2.0"/>
<line x1="179.1" y1="272.4" x2="204.8" y2="280.7" stroke="rgb(0,0,0)"  stroke-width="2.0"/>
<line x1="180.4" y1="268.4" x2="206.1" y2="276.7" stroke="rgb(0,0,0)"  stroke-width="2.0"/>
<line x1="177.8" y1="276.4" x2="203.5" y2="284.7" stroke="rgb(0,0,0)"  stroke-width="2.0"/>
<line x1="160.1" y1="141.6" x2="133.3" y2="141.6" stroke="rgb(0,0,0)"  stroke-width="2.0"/>
<line x1="154.1" y1="134.4" x2="135.3" y2="134.4" stroke="rgb(0,0,0)"  stroke-width="2.0"/>
<line x1="116.1" y1="129.2" x2="107.8" y2="103.5" stroke="rgb(0,0,0)"  stroke-width="2.0"/>
<line x1="107.8" y1="103.5" x2="140.1" y2="80.0" stroke="rgb(0,0,0)"  stroke-width="2.0"/>
<line x1="116.9" y1="105.8" x2="139.5" y2="89.4" stroke="rgb(0,0,0)"  stroke-width="2.0"/>
<line x1="140.1" y1="80.0" x2="162.0" y2="95.9" stroke="rgb(0,0,0)"  stroke-width="2.0"/>
<line x1="168.5" y1="115.9" x2="160.1" y2="141.6" stroke="rgb(0,0,0)"  stroke-width="2.0"/>
<text x="211.118446" y="292.736386" fill="rgb(12,12,255)"  stroke="rgb(12,12,255)" stroke-width="1" font-size="16" >N</text>
<text x="135.033924" y="268.015026" fill="rgb(12,12,255)"  stroke="rgb(12,12,255)" stroke-width="1" font-size="16" >N</text>
<text x="196.485510" y="214.484578" fill="rgb(102,102,102)"  stroke="rgb(102,102,102)" stroke-width="1" font-size="16" >CH</text>
<text x="220.485510" y="218.164578" fill="rgb(102,102,102)"  stroke="rgb(102,102,102)" stroke-width="1" font-size="13" >3</text>
<text x="156.443250" y="202.123898" fill="rgb(12,12,255)"  stroke="rgb(12,12,255)" stroke-width="1" font-size="16" >N</text>
<text x="156.443250" y="186.123898" fill="rgb(12,12,255)"  stroke="rgb(12,12,255)" stroke-width="1" font-size="16" >H</text>
<text x="76.675196" y="216.528442" fill="rgb(12,12,255)"  stroke="rgb(12,12,255)" stroke-width="1" font-size="16" >HN</text>
<text x="136.128733" y="48.000000" fill="rgb(102,102,102)"  stroke="rgb(102,102,102)" stroke-width="1" font-size="16" >CH</text>
<text x="160.128733" y="51.680000" fill="rgb(102,102,102)"  stroke="rgb(102,102,102)" stroke-width="1" font-size="13" >3</text>
<text x="34.000000" y="125.915955" fill="rgb(178,178,0)"  stroke="rgb(178,178,0)" stroke-width="1" font-size="16" >S</text>
<text x="114.128733" y="149.553671" fill="rgb(12,12,255)"  stroke="rgb(12,12,255)" stroke-width="1" font-size="16" >N</text>
<text x="204.531674" y="99.150730" fill="rgb(191,191,191)"  stroke="rgb(191,191,191)" stroke-width="1" font-size="16" >H</text>
<text x="166.489413" y="111.511410" fill="rgb(12,12,255)"  stroke="rgb(12,12,255)" stroke-width="1" font-size="16" >N</text>
</svg>
</g>
<text font-size="18.000000" fill ="black" font-family="sans-serif"
x="10.000000" y="20.000000" ></text>
</svg>
