<?xml version="1.0"?>
<svg version="1.1" id="topsvg"
xmlns="http://www.w3.org/2000/svg" xmlns:xlink="http://www.w3.org/1999/xlink"
xmlns:cml="http://www.xml-cml.org/schema" x="0" y="0" width="200px" height="200px" viewBox="0 0 100 100">
<title> - Open Babel Depiction</title>
<rect x="0" y="0" width="100" height="100" fill="white"/>
<g transform="translate(0,0)">
<svg width="100" height="100" x="0" y="0" viewBox="0 0 225.455 189.091"
font-family="sans-serif" stroke="rgb(0,0,0)" stroke-width="2"  stroke-linecap="round">
<line x1="53.0" y1="112.7" x2="76.4" y2="112.7" stroke="rgb(0,0,0)"  stroke-width="2.0"/>
<line x1="76.4" y1="112.7" x2="76.4" y2="136.1" stroke="rgb(0,0,0)"  stroke-width="2.0"/>
<line x1="76.4" y1="112.7" x2="136.1" y2="112.7" stroke="rgb(0,0,0)"  stroke-width="2.0"/>
<line x1="149.1" y1="125.7" x2="149.1" y2="136.1" stroke="rgb(0,0,0)"  stroke-width="2.0"/>
<line x1="162.1" y1="112.7" x2="172.5" y2="112.7" stroke="rgb(0,0,0)"  stroke-width="2.0"/>
<line x1="146.1" y1="99.7" x2="146.1" y2="89.4" stroke="rgb(0,0,0)"  stroke-width="2.0"/>
<line x1="152.1" y1="99.7" x2="152.1" y2="89.4" stroke="rgb(0,0,0)"  stroke-width="2.0"/>
<line x1="76.4" y1="112.7" x2="76.4" y2="89.4" stroke="rgb(0,0,0)"  stroke-width="2.0"/>
<line x1="89.4" y1="76.4" x2="99.7" y2="76.4" stroke="rgb(0,0,0)"  stroke-width="2.0"/>
<line x1="76.4" y1="63.4" x2="76.4" y2="53.0" stroke="rgb(0,0,0)"  stroke-width="2.0"/>
<line x1="63.4" y1="79.4" x2="53.0" y2="79.4" stroke="rgb(0,0,0)"  stroke-width="2.0"/>
<line x1="63.4" y1="73.4" x2="53.0" y2="73.4" stroke="rgb(0,0,0)"  stroke-width="2.0"/>
<text x="22.000000" y="120.727273" fill="rgb(255,12,12)"  stroke="rgb(255,12,12)" stroke-width="1" font-size="16" >HO</text>
<text x="72.363636" y="157.090909" fill="rgb(102,102,102)"  stroke="rgb(102,102,102)" stroke-width="1" font-size="16" >CH</text>
<text x="96.363636" y="160.770909" fill="rgb(102,102,102)"  stroke="rgb(102,102,102)" stroke-width="1" font-size="13" >3</text>
<text x="143.090909" y="120.727273" fill="rgb(255,127,0)"  stroke="rgb(255,127,0)" stroke-width="1" font-size="16" >P</text>
<text x="143.090909" y="157.090909" fill="rgb(255,12,12)"  stroke="rgb(255,12,12)" stroke-width="1" font-size="16" >OH</text>
<text x="179.454545" y="120.727273" fill="rgb(255,12,12)"  stroke="rgb(255,12,12)" stroke-width="1" font-size="16" >OH</text>
<text x="143.090909" y="84.363636" fill="rgb(255,12,12)"  stroke="rgb(255,12,12)" stroke-width="1" font-size="16" >O</text>
<text x="70.363636" y="84.363636" fill="rgb(255,127,0)"  stroke="rgb(255,127,0)" stroke-width="1" font-size="16" >P</text>
<text x="106.727273" y="84.363636" fill="rgb(255,12,12)"  stroke="rgb(255,12,12)" stroke-width="1" font-size="16" >OH</text>
<text x="70.363636" y="48.000000" fill="rgb(255,12,12)"  stroke="rgb(255,12,12)" stroke-width="1" font-size="16" >OH</text>
<text x="34.000000" y="84.363636" fill="rgb(255,12,12)"  stroke="rgb(255,12,12)" stroke-width="1" font-size="16" >O</text>
</svg>
</g>
<text font-size="18.000000" fill ="black" font-family="sans-serif"
x="10.000000" y="20.000000" ></text>
</svg>
