<?xml version="1.0"?>
<svg version="1.1" id="topsvg"
xmlns="http://www.w3.org/2000/svg" xmlns:xlink="http://www.w3.org/1999/xlink"
xmlns:cml="http://www.xml-cml.org/schema" x="0" y="0" width="200px" height="200px" viewBox="0 0 100 100">
<title> - Open Babel Depiction</title>
<rect x="0" y="0" width="100" height="100" fill="white"/>
<g transform="translate(0,0)">
<svg width="100" height="100" x="0" y="0" viewBox="0 0 449.599 297.326"
font-family="sans-serif" stroke="rgb(0,0,0)" stroke-width="2"  stroke-linecap="round">
<line x1="40.0" y1="169.8" x2="79.6" y2="192.7" stroke="rgb(0,0,0)"  stroke-width="2.0"/>
<line x1="79.6" y1="192.7" x2="119.2" y2="169.8" stroke="rgb(0,0,0)"  stroke-width="2.0"/>
<line x1="81.2" y1="183.4" x2="110.4" y2="166.6" stroke="rgb(0,0,0)"  stroke-width="2.0"/>
<line x1="119.2" y1="169.8" x2="119.2" y2="124.1" stroke="rgb(0,0,0)"  stroke-width="2.0"/>
<line x1="119.2" y1="124.1" x2="79.6" y2="101.2" stroke="rgb(0,0,0)"  stroke-width="2.0"/>
<line x1="110.4" y1="127.3" x2="81.2" y2="110.4" stroke="rgb(0,0,0)"  stroke-width="2.0"/>
<line x1="79.6" y1="101.2" x2="40.0" y2="124.1" stroke="rgb(0,0,0)"  stroke-width="2.0"/>
<line x1="40.0" y1="124.1" x2="40.0" y2="169.8" stroke="rgb(0,0,0)"  stroke-width="2.0"/>
<line x1="47.2" y1="130.1" x2="47.2" y2="163.8" stroke="rgb(0,0,0)"  stroke-width="2.0"/>
<line x1="409.6" y1="126.4" x2="376.3" y2="107.1" stroke="rgb(0,0,0)"  stroke-width="2.0"/>
<line x1="376.3" y1="107.1" x2="342.9" y2="126.3" stroke="rgb(0,0,0)"  stroke-width="2.0"/>
<line x1="374.7" y1="116.3" x2="351.7" y2="129.6" stroke="rgb(0,0,0)"  stroke-width="2.0"/>
<line x1="342.9" y1="126.3" x2="342.9" y2="164.8" stroke="rgb(0,0,0)"  stroke-width="2.0"/>
<line x1="342.9" y1="164.8" x2="376.2" y2="184.1" stroke="rgb(0,0,0)"  stroke-width="2.0"/>
<line x1="351.7" y1="161.6" x2="374.6" y2="174.8" stroke="rgb(0,0,0)"  stroke-width="2.0"/>
<line x1="376.2" y1="184.1" x2="409.6" y2="164.9" stroke="rgb(0,0,0)"  stroke-width="2.0"/>
<line x1="409.6" y1="164.9" x2="409.6" y2="126.4" stroke="rgb(0,0,0)"  stroke-width="2.0"/>
<line x1="402.4" y1="158.8" x2="402.4" y2="132.4" stroke="rgb(0,0,0)"  stroke-width="2.0"/>
<line x1="167.6" y1="45.8" x2="132.8" y2="80.6" stroke="rgb(0,0,0)"  stroke-width="2.0"/>
<line x1="132.8" y1="80.6" x2="151.6" y2="104.9" stroke="rgb(0,0,0)"  stroke-width="2.0"/>
<line x1="146.9" y1="118.0" x2="119.2" y2="124.1" stroke="rgb(0,0,0)"  stroke-width="2.0"/>
<line x1="119.2" y1="169.8" x2="146.8" y2="174.8" stroke="rgb(0,0,0)"  stroke-width="2.0"/>
<line x1="153.0" y1="188.4" x2="139.7" y2="211.2" stroke="rgb(0,0,0)"  stroke-width="2.0"/>
<line x1="139.7" y1="211.2" x2="170.3" y2="241.8" stroke="rgb(0,0,0)"  stroke-width="2.0"/>
<line x1="170.3" y1="241.8" x2="192.3" y2="227.8" stroke="rgb(0,0,0)"  stroke-width="2.0"/>
<line x1="207.0" y1="233.4" x2="214.3" y2="257.3" stroke="rgb(0,0,0)"  stroke-width="2.0"/>
<line x1="214.3" y1="257.3" x2="255.6" y2="257.3" stroke="rgb(0,0,0)"  stroke-width="2.0"/>
<line x1="255.6" y1="257.3" x2="261.9" y2="233.5" stroke="rgb(0,0,0)"  stroke-width="2.0"/>
<line x1="276.8" y1="226.7" x2="298.3" y2="237.4" stroke="rgb(0,0,0)"  stroke-width="2.0"/>
<line x1="298.3" y1="237.4" x2="326.4" y2="209.3" stroke="rgb(0,0,0)"  stroke-width="2.0"/>
<line x1="326.4" y1="209.3" x2="315.2" y2="188.6" stroke="rgb(0,0,0)"  stroke-width="2.0"/>
<line x1="321.2" y1="172.7" x2="342.9" y2="164.8" stroke="rgb(0,0,0)"  stroke-width="2.0"/>
<line x1="342.9" y1="126.3" x2="321.4" y2="119.3" stroke="rgb(0,0,0)"  stroke-width="2.0"/>
<line x1="314.2" y1="103.4" x2="323.2" y2="82.9" stroke="rgb(0,0,0)"  stroke-width="2.0"/>
<line x1="323.2" y1="82.9" x2="296.8" y2="56.4" stroke="rgb(0,0,0)"  stroke-width="2.0"/>
<line x1="296.8" y1="56.4" x2="277.0" y2="65.9" stroke="rgb(0,0,0)"  stroke-width="2.0"/>
<line x1="260.1" y1="59.6" x2="251.6" y2="40.0" stroke="rgb(0,0,0)"  stroke-width="2.0"/>
<line x1="251.6" y1="40.0" x2="215.9" y2="40.0" stroke="rgb(0,0,0)"  stroke-width="2.0"/>
<line x1="215.9" y1="40.0" x2="208.2" y2="59.4" stroke="rgb(0,0,0)"  stroke-width="2.0"/>
<line x1="192.8" y1="63.9" x2="167.6" y2="45.8" stroke="rgb(0,0,0)"  stroke-width="2.0"/>
<text x="259.275347" y="79.499228" fill="rgb(255,12,12)"  stroke="rgb(255,12,12)" stroke-width="1" font-size="16" >O</text>
<text x="303.013817" y="123.277209" fill="rgb(255,12,12)"  stroke="rgb(255,12,12)" stroke-width="1" font-size="16" >O</text>
<text x="302.985861" y="185.199531" fill="rgb(255,12,12)"  stroke="rgb(255,12,12)" stroke-width="1" font-size="16" >O</text>
<text x="259.207880" y="228.938001" fill="rgb(255,12,12)"  stroke="rgb(255,12,12)" stroke-width="1" font-size="16" >O</text>
<text x="197.285558" y="228.910045" fill="rgb(255,12,12)"  stroke="rgb(255,12,12)" stroke-width="1" font-size="16" >O</text>
<text x="153.547088" y="185.132064" fill="rgb(255,12,12)"  stroke="rgb(255,12,12)" stroke-width="1" font-size="16" >O</text>
<text x="153.575044" y="123.209743" fill="rgb(255,12,12)"  stroke="rgb(255,12,12)" stroke-width="1" font-size="16" >O</text>
<text x="197.353025" y="79.471272" fill="rgb(255,12,12)"  stroke="rgb(255,12,12)" stroke-width="1" font-size="16" >O</text>
</svg>
</g>
<text font-size="18.000000" fill ="black" font-family="sans-serif"
x="10.000000" y="20.000000" ></text>
</svg>
