<?xml version="1.0"?>
<svg version="1.1" id="topsvg"
xmlns="http://www.w3.org/2000/svg" xmlns:xlink="http://www.w3.org/1999/xlink"
xmlns:cml="http://www.xml-cml.org/schema" x="0" y="0" width="200px" height="200px" viewBox="0 0 100 100">
<title> - Open Babel Depiction</title>
<rect x="0" y="0" width="100" height="100" fill="white"/>
<g transform="translate(0,0)">
<svg width="100" height="100" x="0" y="0" viewBox="0 0 274.641 253.205"
font-family="sans-serif" stroke="rgb(0,0,0)" stroke-width="2"  stroke-linecap="round">
<line x1="81.1" y1="201.9" x2="94.6" y2="178.6" stroke="rgb(0,0,0)"  stroke-width="2.0"/>
<line x1="134.6" y1="178.6" x2="148.1" y2="201.9" stroke="rgb(0,0,0)"  stroke-width="2.0"/>
<line x1="154.6" y1="143.9" x2="181.6" y2="143.9" stroke="rgb(0,0,0)"  stroke-width="2.0"/>
<line x1="197.6" y1="156.9" x2="197.6" y2="170.9" stroke="rgb(0,0,0)"  stroke-width="2.0"/>
<line x1="191.6" y1="156.9" x2="191.6" y2="170.9" stroke="rgb(0,0,0)"  stroke-width="2.0"/>
<line x1="207.6" y1="140.9" x2="221.6" y2="140.9" stroke="rgb(0,0,0)"  stroke-width="2.0"/>
<line x1="207.6" y1="146.9" x2="221.6" y2="146.9" stroke="rgb(0,0,0)"  stroke-width="2.0"/>
<line x1="194.6" y1="130.9" x2="194.6" y2="116.9" stroke="rgb(0,0,0)"  stroke-width="2.0"/>
<line x1="94.6" y1="109.3" x2="81.1" y2="85.9" stroke="rgb(0,0,0)"  stroke-width="2.0"/>
<line x1="84.4" y1="65.5" x2="96.5" y2="58.5" stroke="rgb(0,0,0)"  stroke-width="2.0"/>
<line x1="87.4" y1="70.7" x2="99.5" y2="63.7" stroke="rgb(0,0,0)"  stroke-width="2.0"/>
<line x1="65.5" y1="64.9" x2="58.5" y2="52.8" stroke="rgb(0,0,0)"  stroke-width="2.0"/>
<line x1="70.7" y1="61.9" x2="63.7" y2="49.8" stroke="rgb(0,0,0)"  stroke-width="2.0"/>
<line x1="63.4" y1="81.1" x2="51.3" y2="88.1" stroke="rgb(0,0,0)"  stroke-width="2.0"/>
<line x1="94.6" y1="109.3" x2="134.6" y2="109.3" stroke="rgb(0,0,0)"  stroke-width="2.0"/>
<line x1="100.6" y1="116.5" x2="128.6" y2="116.5" stroke="rgb(0,0,0)"  stroke-width="2.0"/>
<line x1="134.6" y1="109.3" x2="154.6" y2="143.9" stroke="rgb(0,0,0)"  stroke-width="2.0"/>
<line x1="154.6" y1="143.9" x2="134.6" y2="178.6" stroke="rgb(0,0,0)"  stroke-width="2.0"/>
<line x1="145.4" y1="145.5" x2="131.4" y2="169.8" stroke="rgb(0,0,0)"  stroke-width="2.0"/>
<line x1="134.6" y1="178.6" x2="94.6" y2="178.6" stroke="rgb(0,0,0)"  stroke-width="2.0"/>
<line x1="94.6" y1="178.6" x2="74.6" y2="143.9" stroke="rgb(0,0,0)"  stroke-width="2.0"/>
<line x1="97.9" y1="169.8" x2="83.9" y2="145.5" stroke="rgb(0,0,0)"  stroke-width="2.0"/>
<line x1="74.6" y1="143.9" x2="94.6" y2="109.3" stroke="rgb(0,0,0)"  stroke-width="2.0"/>
<text x="56.641016" y="221.205081" fill="rgb(30,239,30)"  stroke="rgb(30,239,30)" stroke-width="1" font-size="16" >Cl</text>
<text x="148.641016" y="221.205081" fill="rgb(30,239,30)"  stroke="rgb(30,239,30)" stroke-width="1" font-size="16" >Cl</text>
<text x="188.641016" y="151.923048" fill="rgb(178,178,0)"  stroke="rgb(178,178,0)" stroke-width="1" font-size="16" >S</text>
<text x="188.641016" y="191.923048" fill="rgb(255,12,12)"  stroke="rgb(255,12,12)" stroke-width="1" font-size="16" >O</text>
<text x="228.641016" y="151.923048" fill="rgb(255,12,12)"  stroke="rgb(255,12,12)" stroke-width="1" font-size="16" >O</text>
<text x="190.641016" y="111.923048" fill="rgb(12,12,255)"  stroke="rgb(12,12,255)" stroke-width="1" font-size="16" >NH</text>
<text x="214.641016" y="115.603048" fill="rgb(12,12,255)"  stroke="rgb(12,12,255)" stroke-width="1" font-size="13" >2</text>
<text x="68.641016" y="82.641016" fill="rgb(178,178,0)"  stroke="rgb(178,178,0)" stroke-width="1" font-size="16" >S</text>
<text x="103.282032" y="62.641016" fill="rgb(255,12,12)"  stroke="rgb(255,12,12)" stroke-width="1" font-size="16" >O</text>
<text x="48.641016" y="48.000000" fill="rgb(255,12,12)"  stroke="rgb(255,12,12)" stroke-width="1" font-size="16" >O</text>
<text x="14.000000" y="102.641016" fill="rgb(12,12,255)"  stroke="rgb(12,12,255)" stroke-width="1" font-size="16" >H</text>
<text x="26.000000" y="106.321016" fill="rgb(12,12,255)"  stroke="rgb(12,12,255)" stroke-width="1" font-size="13" >2</text>
<text x="32.500000" y="102.641016" fill="rgb(12,12,255)"  stroke="rgb(12,12,255)" stroke-width="1" font-size="16" >N</text>
</svg>
</g>
<text font-size="18.000000" fill ="black" font-family="sans-serif"
x="10.000000" y="20.000000" ></text>
</svg>
