<?xml version="1.0"?>
<svg version="1.1" id="topsvg"
xmlns="http://www.w3.org/2000/svg" xmlns:xlink="http://www.w3.org/1999/xlink"
xmlns:cml="http://www.xml-cml.org/schema" x="0" y="0" width="200px" height="200px" viewBox="0 0 100 100">
<title> - Open Babel Depiction</title>
<rect x="0" y="0" width="100" height="100" fill="white"/>
<g transform="translate(0,0)">
<svg width="100" height="100" x="0" y="0" viewBox="0 0 380 194.641"
font-family="sans-serif" stroke="rgb(0,0,0)" stroke-width="2"  stroke-linecap="round">
<line x1="300.0" y1="107.0" x2="300.0" y2="93.0" stroke="rgb(0,0,0)"  stroke-width="2.0"/>
<line x1="313.0" y1="77.0" x2="327.0" y2="77.0" stroke="rgb(0,0,0)"  stroke-width="2.0"/>
<line x1="313.0" y1="83.0" x2="327.0" y2="83.0" stroke="rgb(0,0,0)"  stroke-width="2.0"/>
<line x1="297.0" y1="67.0" x2="297.0" y2="53.0" stroke="rgb(0,0,0)"  stroke-width="2.0"/>
<line x1="303.0" y1="67.0" x2="303.0" y2="53.0" stroke="rgb(0,0,0)"  stroke-width="2.0"/>
<line x1="287.0" y1="80.0" x2="260.0" y2="80.0" stroke="rgb(0,0,0)"  stroke-width="2.0"/>
<line x1="120.0" y1="114.6" x2="93.0" y2="114.6" stroke="rgb(0,0,0)"  stroke-width="2.0"/>
<line x1="80.0" y1="101.6" x2="80.0" y2="87.6" stroke="rgb(0,0,0)"  stroke-width="2.0"/>
<line x1="67.0" y1="117.6" x2="53.0" y2="117.6" stroke="rgb(0,0,0)"  stroke-width="2.0"/>
<line x1="67.0" y1="111.6" x2="53.0" y2="111.6" stroke="rgb(0,0,0)"  stroke-width="2.0"/>
<line x1="83.0" y1="127.6" x2="83.0" y2="141.6" stroke="rgb(0,0,0)"  stroke-width="2.0"/>
<line x1="77.0" y1="127.6" x2="77.0" y2="141.6" stroke="rgb(0,0,0)"  stroke-width="2.0"/>
<line x1="200.0" y1="114.6" x2="180.0" y2="80.0" stroke="rgb(0,0,0)"  stroke-width="2.0"/>
<line x1="180.0" y1="80.0" x2="200.0" y2="45.4" stroke="rgb(0,0,0)"  stroke-width="2.0"/>
<line x1="200.0" y1="45.4" x2="240.0" y2="45.4" stroke="rgb(0,0,0)"  stroke-width="2.0"/>
<line x1="206.0" y1="52.6" x2="234.0" y2="52.6" stroke="rgb(0,0,0)"  stroke-width="2.0"/>
<line x1="240.0" y1="45.4" x2="260.0" y2="80.0" stroke="rgb(0,0,0)"  stroke-width="2.0"/>
<line x1="260.0" y1="80.0" x2="240.0" y2="114.6" stroke="rgb(0,0,0)"  stroke-width="2.0"/>
<line x1="250.8" y1="81.6" x2="236.8" y2="105.8" stroke="rgb(0,0,0)"  stroke-width="2.0"/>
<line x1="240.0" y1="114.6" x2="200.0" y2="114.6" stroke="rgb(0,0,0)"  stroke-width="2.0"/>
<line x1="120.0" y1="114.6" x2="140.0" y2="80.0" stroke="rgb(0,0,0)"  stroke-width="2.0"/>
<line x1="140.0" y1="80.0" x2="180.0" y2="80.0" stroke="rgb(0,0,0)"  stroke-width="2.0"/>
<line x1="146.0" y1="87.2" x2="174.0" y2="87.2" stroke="rgb(0,0,0)"  stroke-width="2.0"/>
<line x1="200.0" y1="114.6" x2="180.0" y2="149.3" stroke="rgb(0,0,0)"  stroke-width="2.0"/>
<line x1="190.8" y1="116.2" x2="176.8" y2="140.5" stroke="rgb(0,0,0)"  stroke-width="2.0"/>
<line x1="180.0" y1="149.3" x2="140.0" y2="149.3" stroke="rgb(0,0,0)"  stroke-width="2.0"/>
<line x1="140.0" y1="149.3" x2="120.0" y2="114.6" stroke="rgb(0,0,0)"  stroke-width="2.0"/>
<line x1="143.2" y1="140.5" x2="129.2" y2="116.2" stroke="rgb(0,0,0)"  stroke-width="2.0"/>
<text x="74.000000" y="162.641016" fill="rgb(255,12,12)"  stroke="rgb(255,12,12)" stroke-width="1" font-size="16" >O</text>
<text x="34.000000" y="122.641016" fill="rgb(255,12,12)"  stroke="rgb(255,12,12)" stroke-width="1" font-size="16" >O</text>
<text x="74.000000" y="82.641016" fill="rgb(255,12,12)"  stroke="rgb(255,12,12)" stroke-width="1" font-size="16" >OH</text>
<text x="74.000000" y="122.641016" fill="rgb(178,178,0)"  stroke="rgb(178,178,0)" stroke-width="1" font-size="16" >S</text>
<text x="294.000000" y="128.000000" fill="rgb(255,12,12)"  stroke="rgb(255,12,12)" stroke-width="1" font-size="16" >OH</text>
<text x="294.000000" y="48.000000" fill="rgb(255,12,12)"  stroke="rgb(255,12,12)" stroke-width="1" font-size="16" >O</text>
<text x="334.000000" y="88.000000" fill="rgb(255,12,12)"  stroke="rgb(255,12,12)" stroke-width="1" font-size="16" >O</text>
<text x="294.000000" y="88.000000" fill="rgb(178,178,0)"  stroke="rgb(178,178,0)" stroke-width="1" font-size="16" >S</text>
</svg>
</g>
<text font-size="18.000000" fill ="black" font-family="sans-serif"
x="10.000000" y="20.000000" ></text>
</svg>
