<?xml version="1.0"?>
<svg version="1.1" id="topsvg"
xmlns="http://www.w3.org/2000/svg" xmlns:xlink="http://www.w3.org/1999/xlink"
xmlns:cml="http://www.xml-cml.org/schema" x="0" y="0" width="200px" height="200px" viewBox="0 0 100 100">
<title> - Open Babel Depiction</title>
<rect x="0" y="0" width="100" height="100" fill="white"/>
<g transform="translate(0,0)">
<svg width="100" height="100" x="0" y="0" viewBox="0 0 502.817 274.676"
font-family="sans-serif" stroke="rgb(0,0,0)" stroke-width="2"  stroke-linecap="round">
<line x1="69.5" y1="184.3" x2="72.4" y2="211.2" stroke="rgb(0,0,0)"  stroke-width="2.0"/>
<line x1="72.4" y1="211.2" x2="50.5" y2="227.0" stroke="rgb(0,0,0)"  stroke-width="2.0"/>
<line x1="73.6" y1="208.4" x2="98.2" y2="219.4" stroke="rgb(0,0,0)"  stroke-width="2.0"/>
<line x1="71.1" y1="213.9" x2="95.8" y2="224.9" stroke="rgb(0,0,0)"  stroke-width="2.0"/>
<line x1="119.4" y1="219.8" x2="141.3" y2="203.9" stroke="rgb(0,0,0)"  stroke-width="2.0"/>
<line x1="202.8" y1="183.9" x2="242.8" y2="183.9" stroke="rgb(0,0,0)"  stroke-width="2.0"/>
<line x1="242.8" y1="183.9" x2="256.3" y2="160.5" stroke="rgb(0,0,0)"  stroke-width="2.0"/>
<line x1="275.8" y1="149.3" x2="302.8" y2="149.3" stroke="rgb(0,0,0)"  stroke-width="2.0"/>
<line x1="302.8" y1="149.3" x2="322.8" y2="114.6" stroke="rgb(0,0,0)"  stroke-width="2.0"/>
<line x1="322.8" y1="114.6" x2="362.8" y2="114.6" stroke="rgb(0,0,0)"  stroke-width="2.0"/>
<line x1="362.8" y1="114.6" x2="376.3" y2="138.0" stroke="rgb(0,0,0)"  stroke-width="2.0"/>
<line x1="360.2" y1="113.1" x2="378.9" y2="92.8" stroke="rgb(0,0,0)"  stroke-width="2.0"/>
<line x1="365.4" y1="116.1" x2="373.7" y2="89.8" stroke="rgb(0,0,0)"  stroke-width="2.0"/>
<line x1="395.8" y1="80.0" x2="409.8" y2="80.0" stroke="rgb(0,0,0)"  stroke-width="2.0"/>
<line x1="425.8" y1="93.0" x2="425.8" y2="107.0" stroke="rgb(0,0,0)"  stroke-width="2.0"/>
<line x1="419.8" y1="93.0" x2="419.8" y2="107.0" stroke="rgb(0,0,0)"  stroke-width="2.0"/>
<line x1="435.8" y1="77.0" x2="449.8" y2="77.0" stroke="rgb(0,0,0)"  stroke-width="2.0"/>
<line x1="435.8" y1="83.0" x2="449.8" y2="83.0" stroke="rgb(0,0,0)"  stroke-width="2.0"/>
<line x1="422.8" y1="67.0" x2="422.8" y2="53.0" stroke="rgb(0,0,0)"  stroke-width="2.0"/>
<line x1="141.3" y1="176.9" x2="141.3" y2="203.9" stroke="rgb(0,0,0)"  stroke-width="2.0"/>
<line x1="141.3" y1="203.9" x2="166.8" y2="212.2" stroke="rgb(0,0,0)"  stroke-width="2.0"/>
<line x1="149.2" y1="198.9" x2="167.1" y2="204.7" stroke="rgb(0,0,0)"  stroke-width="2.0"/>
<line x1="186.9" y1="205.8" x2="202.8" y2="183.9" stroke="rgb(0,0,0)"  stroke-width="2.0"/>
<line x1="202.8" y1="183.9" x2="179.3" y2="151.6" stroke="rgb(0,0,0)"  stroke-width="2.0"/>
<line x1="193.5" y1="183.3" x2="177.0" y2="160.6" stroke="rgb(0,0,0)"  stroke-width="2.0"/>
<line x1="179.3" y1="151.6" x2="153.6" y2="159.9" stroke="rgb(0,0,0)"  stroke-width="2.0"/>
<text x="256.816849" y="157.282032" fill="rgb(178,178,0)"  stroke="rgb(178,178,0)" stroke-width="1" font-size="16" >S</text>
<text x="418.816849" y="48.000000" fill="rgb(12,12,255)"  stroke="rgb(12,12,255)" stroke-width="1" font-size="16" >NH</text>
<text x="442.816849" y="51.680000" fill="rgb(12,12,255)"  stroke="rgb(12,12,255)" stroke-width="1" font-size="13" >2</text>
<text x="456.816849" y="88.000000" fill="rgb(255,12,12)"  stroke="rgb(255,12,12)" stroke-width="1" font-size="16" >O</text>
<text x="416.816849" y="128.000000" fill="rgb(255,12,12)"  stroke="rgb(255,12,12)" stroke-width="1" font-size="16" >O</text>
<text x="416.816849" y="88.000000" fill="rgb(178,178,0)"  stroke="rgb(178,178,0)" stroke-width="1" font-size="16" >S</text>
<text x="376.816849" y="88.000000" fill="rgb(12,12,255)"  stroke="rgb(12,12,255)" stroke-width="1" font-size="16" >N</text>
<text x="378.816849" y="157.282032" fill="rgb(12,12,255)"  stroke="rgb(12,12,255)" stroke-width="1" font-size="16" >NH</text>
<text x="402.816849" y="160.962032" fill="rgb(12,12,255)"  stroke="rgb(12,12,255)" stroke-width="1" font-size="13" >2</text>
<text x="42.179541" y="179.384117" fill="rgb(12,12,255)"  stroke="rgb(12,12,255)" stroke-width="1" font-size="16" >H</text>
<text x="54.179541" y="183.064117" fill="rgb(12,12,255)"  stroke="rgb(12,12,255)" stroke-width="1" font-size="13" >2</text>
<text x="60.679541" y="179.384117" fill="rgb(12,12,255)"  stroke="rgb(12,12,255)" stroke-width="1" font-size="16" >N</text>
<text x="173.305439" y="224.283728" fill="rgb(12,12,255)"  stroke="rgb(12,12,255)" stroke-width="1" font-size="16" >N</text>
<text x="135.263178" y="171.923048" fill="rgb(178,178,0)"  stroke="rgb(178,178,0)" stroke-width="1" font-size="16" >S</text>
<text x="102.902498" y="235.434459" fill="rgb(12,12,255)"  stroke="rgb(12,12,255)" stroke-width="1" font-size="16" >N</text>
<text x="14.000000" y="242.676403" fill="rgb(12,12,255)"  stroke="rgb(12,12,255)" stroke-width="1" font-size="16" >H</text>
<text x="26.000000" y="246.356403" fill="rgb(12,12,255)"  stroke="rgb(12,12,255)" stroke-width="1" font-size="13" >2</text>
<text x="32.500000" y="242.676403" fill="rgb(12,12,255)"  stroke="rgb(12,12,255)" stroke-width="1" font-size="16" >N</text>
</svg>
</g>
<text font-size="18.000000" fill ="black" font-family="sans-serif"
x="10.000000" y="20.000000" ></text>
</svg>
