<?xml version="1.0"?>
<svg version="1.1" id="topsvg"
xmlns="http://www.w3.org/2000/svg" xmlns:xlink="http://www.w3.org/1999/xlink"
xmlns:cml="http://www.xml-cml.org/schema" x="0" y="0" width="200px" height="200px" viewBox="0 0 100 100">
<title> - Open Babel Depiction</title>
<rect x="0" y="0" width="100" height="100" fill="white"/>
<g transform="translate(0,0)">
<svg width="100" height="100" x="0" y="0" viewBox="0 0 285.477 200"
font-family="sans-serif" stroke="rgb(0,0,0)" stroke-width="2"  stroke-linecap="round">
<line x1="176.2" y1="147.0" x2="176.2" y2="120.0" stroke="rgb(0,0,0)"  stroke-width="2.0"/>
<line x1="209.3" y1="57.4" x2="232.7" y2="43.9" stroke="rgb(0,0,0)"  stroke-width="2.0"/>
<line x1="212.3" y1="62.6" x2="235.7" y2="49.1" stroke="rgb(0,0,0)"  stroke-width="2.0"/>
<line x1="80.0" y1="80.0" x2="53.0" y2="80.0" stroke="rgb(0,0,0)"  stroke-width="2.0"/>
<line x1="80.0" y1="80.0" x2="95.8" y2="101.7" stroke="rgb(0,0,0)"  stroke-width="2.0"/>
<line x1="89.4" y1="80.6" x2="100.4" y2="95.8" stroke="rgb(0,0,0)"  stroke-width="2.0"/>
<line x1="115.9" y1="108.3" x2="141.6" y2="100.0" stroke="rgb(0,0,0)"  stroke-width="2.0"/>
<line x1="141.6" y1="100.0" x2="141.6" y2="60.0" stroke="rgb(0,0,0)"  stroke-width="2.0"/>
<line x1="134.4" y1="94.0" x2="134.4" y2="66.0" stroke="rgb(0,0,0)"  stroke-width="2.0"/>
<line x1="141.6" y1="60.0" x2="115.9" y2="51.7" stroke="rgb(0,0,0)"  stroke-width="2.0"/>
<line x1="95.9" y1="58.2" x2="80.0" y2="80.0" stroke="rgb(0,0,0)"  stroke-width="2.0"/>
<line x1="210.8" y1="60.0" x2="187.5" y2="46.5" stroke="rgb(0,0,0)"  stroke-width="2.0"/>
<line x1="164.9" y1="46.5" x2="141.6" y2="60.0" stroke="rgb(0,0,0)"  stroke-width="2.0"/>
<line x1="141.6" y1="100.0" x2="176.2" y2="120.0" stroke="rgb(0,0,0)"  stroke-width="2.0"/>
<line x1="176.2" y1="120.0" x2="199.4" y2="106.6" stroke="rgb(0,0,0)"  stroke-width="2.0"/>
<line x1="177.8" y1="110.8" x2="194.1" y2="101.4" stroke="rgb(0,0,0)"  stroke-width="2.0"/>
<line x1="210.8" y1="87.0" x2="210.8" y2="60.0" stroke="rgb(0,0,0)"  stroke-width="2.0"/>
<text x="170.194687" y="168.000000" fill="rgb(255,12,12)"  stroke="rgb(255,12,12)" stroke-width="1" font-size="16" >OH</text>
<text x="204.835703" y="108.000000" fill="rgb(12,12,255)"  stroke="rgb(12,12,255)" stroke-width="1" font-size="16" >N</text>
<text x="239.476719" y="48.000000" fill="rgb(12,12,255)"  stroke="rgb(12,12,255)" stroke-width="1" font-size="16" >NH</text>
<text x="170.194687" y="48.000000" fill="rgb(12,12,255)"  stroke="rgb(12,12,255)" stroke-width="1" font-size="16" >N</text>
<text x="170.194687" y="32.000000" fill="rgb(12,12,255)"  stroke="rgb(12,12,255)" stroke-width="1" font-size="16" >H</text>
<text x="97.511410" y="120.360680" fill="rgb(12,12,255)"  stroke="rgb(12,12,255)" stroke-width="1" font-size="16" >N</text>
<text x="34.000000" y="88.000000" fill="rgb(147,0,147)"  stroke="rgb(147,0,147)" stroke-width="1" font-size="16" >I</text>
<text x="97.511410" y="55.639320" fill="rgb(12,12,255)"  stroke="rgb(12,12,255)" stroke-width="1" font-size="16" >N</text>
<text x="97.511410" y="39.639320" fill="rgb(12,12,255)"  stroke="rgb(12,12,255)" stroke-width="1" font-size="16" >H</text>
</svg>
</g>
<text font-size="18.000000" fill ="black" font-family="sans-serif"
x="10.000000" y="20.000000" ></text>
</svg>
