<?xml version="1.0"?>
<svg version="1.1" id="topsvg"
xmlns="http://www.w3.org/2000/svg" xmlns:xlink="http://www.w3.org/1999/xlink"
xmlns:cml="http://www.xml-cml.org/schema" x="0" y="0" width="200px" height="200px" viewBox="0 0 100 100">
<title> - Open Babel Depiction</title>
<rect x="0" y="0" width="100" height="100" fill="white"/>
<g transform="translate(0,0)">
<svg width="100" height="100" x="0" y="0" viewBox="0 0 323.295 299.993"
font-family="sans-serif" stroke="rgb(0,0,0)" stroke-width="2"  stroke-linecap="round">
<line x1="51.3" y1="212.8" x2="74.8" y2="199.4" stroke="rgb(0,0,0)"  stroke-width="2.0"/>
<line x1="75.1" y1="159.1" x2="51.8" y2="145.5" stroke="rgb(0,0,0)"  stroke-width="2.0"/>
<line x1="181.5" y1="220.0" x2="181.3" y2="247.0" stroke="rgb(0,0,0)"  stroke-width="2.0"/>
<line x1="175.5" y1="220.0" x2="175.3" y2="247.0" stroke="rgb(0,0,0)"  stroke-width="2.0"/>
<line x1="248.4" y1="100.4" x2="271.9" y2="86.9" stroke="rgb(0,0,0)"  stroke-width="2.0"/>
<line x1="248.7" y1="140.6" x2="272.0" y2="154.1" stroke="rgb(0,0,0)"  stroke-width="2.0"/>
<line x1="141.9" y1="80.0" x2="141.9" y2="53.0" stroke="rgb(0,0,0)"  stroke-width="2.0"/>
<line x1="147.9" y1="80.0" x2="147.9" y2="53.0" stroke="rgb(0,0,0)"  stroke-width="2.0"/>
<line x1="109.9" y1="139.4" x2="144.4" y2="159.9" stroke="rgb(0,0,0)"  stroke-width="2.0"/>
<line x1="111.4" y1="148.6" x2="135.6" y2="163.0" stroke="rgb(0,0,0)"  stroke-width="2.0"/>
<line x1="144.4" y1="159.9" x2="144.2" y2="199.9" stroke="rgb(0,0,0)"  stroke-width="2.0"/>
<line x1="144.2" y1="199.9" x2="109.4" y2="219.6" stroke="rgb(0,0,0)"  stroke-width="2.0"/>
<line x1="135.4" y1="196.6" x2="111.1" y2="210.4" stroke="rgb(0,0,0)"  stroke-width="2.0"/>
<line x1="109.4" y1="219.6" x2="74.8" y2="199.4" stroke="rgb(0,0,0)"  stroke-width="2.0"/>
<line x1="74.8" y1="199.4" x2="75.1" y2="159.1" stroke="rgb(0,0,0)"  stroke-width="2.0"/>
<line x1="82.0" y1="193.5" x2="82.2" y2="165.2" stroke="rgb(0,0,0)"  stroke-width="2.0"/>
<line x1="75.1" y1="159.1" x2="109.9" y2="139.4" stroke="rgb(0,0,0)"  stroke-width="2.0"/>
<line x1="213.9" y1="160.4" x2="213.4" y2="187.4" stroke="rgb(0,0,0)"  stroke-width="2.0"/>
<line x1="201.8" y1="206.8" x2="178.5" y2="220.0" stroke="rgb(0,0,0)"  stroke-width="2.0"/>
<line x1="178.5" y1="220.0" x2="144.2" y2="199.9" stroke="rgb(0,0,0)"  stroke-width="2.0"/>
<line x1="144.4" y1="159.9" x2="179.1" y2="140.3" stroke="rgb(0,0,0)"  stroke-width="2.0"/>
<line x1="179.1" y1="140.3" x2="213.9" y2="160.4" stroke="rgb(0,0,0)"  stroke-width="2.0"/>
<line x1="180.6" y1="149.5" x2="205.1" y2="163.6" stroke="rgb(0,0,0)"  stroke-width="2.0"/>
<line x1="144.9" y1="80.0" x2="179.5" y2="99.9" stroke="rgb(0,0,0)"  stroke-width="2.0"/>
<line x1="179.5" y1="99.9" x2="179.1" y2="140.3" stroke="rgb(0,0,0)"  stroke-width="2.0"/>
<line x1="109.9" y1="139.4" x2="110.1" y2="112.6" stroke="rgb(0,0,0)"  stroke-width="2.0"/>
<line x1="121.5" y1="93.2" x2="144.9" y2="80.0" stroke="rgb(0,0,0)"  stroke-width="2.0"/>
<line x1="248.4" y1="100.4" x2="214.4" y2="80.1" stroke="rgb(0,0,0)"  stroke-width="2.0"/>
<line x1="214.4" y1="80.1" x2="179.5" y2="99.9" stroke="rgb(0,0,0)"  stroke-width="2.0"/>
<line x1="212.7" y1="89.4" x2="188.3" y2="103.2" stroke="rgb(0,0,0)"  stroke-width="2.0"/>
<line x1="213.9" y1="160.4" x2="248.7" y2="140.6" stroke="rgb(0,0,0)"  stroke-width="2.0"/>
<line x1="248.7" y1="140.6" x2="248.4" y2="100.4" stroke="rgb(0,0,0)"  stroke-width="2.0"/>
<line x1="241.4" y1="134.7" x2="241.3" y2="106.4" stroke="rgb(0,0,0)"  stroke-width="2.0"/>
<text x="104.225462" y="107.645674" fill="rgb(255,12,12)"  stroke="rgb(255,12,12)" stroke-width="1" font-size="16" >O</text>
<text x="138.941289" y="48.000000" fill="rgb(255,12,12)"  stroke="rgb(255,12,12)" stroke-width="1" font-size="16" >O</text>
<text x="277.295033" y="168.652438" fill="rgb(255,12,12)"  stroke="rgb(255,12,12)" stroke-width="1" font-size="16" >OH</text>
<text x="277.152470" y="88.459274" fill="rgb(255,12,12)"  stroke="rgb(255,12,12)" stroke-width="1" font-size="16" >OH</text>
<text x="22.000000" y="227.171744" fill="rgb(255,12,12)"  stroke="rgb(255,12,12)" stroke-width="1" font-size="16" >HO</text>
<text x="207.133333" y="208.348200" fill="rgb(255,12,12)"  stroke="rgb(255,12,12)" stroke-width="1" font-size="16" >O</text>
<text x="172.218343" y="267.992932" fill="rgb(255,12,12)"  stroke="rgb(255,12,12)" stroke-width="1" font-size="16" >O</text>
<text x="22.593409" y="146.892098" fill="rgb(255,12,12)"  stroke="rgb(255,12,12)" stroke-width="1" font-size="16" >HO</text>
</svg>
</g>
<text font-size="18.000000" fill ="black" font-family="sans-serif"
x="10.000000" y="20.000000" ></text>
</svg>
