<?xml version="1.0"?>
<svg version="1.1" id="topsvg"
xmlns="http://www.w3.org/2000/svg" xmlns:xlink="http://www.w3.org/1999/xlink"
xmlns:cml="http://www.xml-cml.org/schema" x="0" y="0" width="200px" height="200px" viewBox="0 0 100 100">
<title> - Open Babel Depiction</title>
<rect x="0" y="0" width="100" height="100" fill="white"/>
<g transform="translate(0,0)">
<svg width="100" height="100" x="0" y="0" viewBox="0 0 365.09 282.027"
font-family="sans-serif" stroke="rgb(0,0,0)" stroke-width="2"  stroke-linecap="round">
<line x1="312.1" y1="242.0" x2="287.6" y2="242.0" stroke="rgb(0,0,0)"  stroke-width="2.0"/>
<line x1="287.6" y1="242.0" x2="268.8" y2="209.5" stroke="rgb(0,0,0)"  stroke-width="2.0"/>
<line x1="268.8" y1="209.5" x2="268.8" y2="172.0" stroke="rgb(0,0,0)"  stroke-width="2.0"/>
<line x1="268.8" y1="172.0" x2="291.0" y2="184.8" stroke="rgb(0,0,0)"  stroke-width="2.0"/>
<line x1="72.0" y1="61.9" x2="49.8" y2="49.1" stroke="rgb(0,0,0)"  stroke-width="2.0"/>
<line x1="75.0" y1="56.7" x2="52.8" y2="43.9" stroke="rgb(0,0,0)"  stroke-width="2.0"/>
<line x1="138.6" y1="96.9" x2="138.6" y2="122.6" stroke="rgb(0,0,0)"  stroke-width="2.0"/>
<line x1="236.2" y1="153.2" x2="236.2" y2="178.9" stroke="rgb(0,0,0)"  stroke-width="2.0"/>
<line x1="172.6" y1="155.8" x2="150.4" y2="168.7" stroke="rgb(0,0,0)"  stroke-width="2.0"/>
<line x1="169.6" y1="150.6" x2="147.4" y2="163.5" stroke="rgb(0,0,0)"  stroke-width="2.0"/>
<line x1="268.8" y1="212.5" x2="206.7" y2="212.5" stroke="rgb(0,0,0)"  stroke-width="2.0"/>
<line x1="268.8" y1="206.5" x2="206.7" y2="206.5" stroke="rgb(0,0,0)"  stroke-width="2.0"/>
<line x1="301.2" y1="115.6" x2="236.2" y2="115.7" stroke="rgb(0,0,0)"  stroke-width="2.0"/>
<line x1="236.2" y1="115.7" x2="236.2" y2="153.2" stroke="rgb(0,0,0)"  stroke-width="2.0"/>
<line x1="236.2" y1="153.2" x2="268.8" y2="172.0" stroke="rgb(0,0,0)"  stroke-width="2.0"/>
<line x1="268.8" y1="172.0" x2="301.3" y2="153.2" stroke="rgb(0,0,0)"  stroke-width="2.0"/>
<line x1="301.3" y1="153.2" x2="301.2" y2="115.6" stroke="rgb(0,0,0)"  stroke-width="2.0"/>
<line x1="171.1" y1="153.2" x2="203.7" y2="172.0" stroke="rgb(0,0,0)"  stroke-width="2.0"/>
<line x1="203.7" y1="172.0" x2="236.2" y2="153.2" stroke="rgb(0,0,0)"  stroke-width="2.0"/>
<line x1="236.2" y1="115.7" x2="203.7" y2="96.9" stroke="rgb(0,0,0)"  stroke-width="2.0"/>
<line x1="203.7" y1="96.9" x2="171.1" y2="115.7" stroke="rgb(0,0,0)"  stroke-width="2.0"/>
<line x1="171.1" y1="115.7" x2="171.1" y2="153.2" stroke="rgb(0,0,0)"  stroke-width="2.0"/>
<line x1="203.7" y1="96.9" x2="203.6" y2="59.3" stroke="rgb(0,0,0)"  stroke-width="2.0"/>
<line x1="203.6" y1="59.3" x2="171.1" y2="40.5" stroke="rgb(0,0,0)"  stroke-width="2.0"/>
<line x1="171.1" y1="40.5" x2="138.6" y2="59.3" stroke="rgb(0,0,0)"  stroke-width="2.0"/>
<line x1="138.6" y1="59.3" x2="138.6" y2="96.9" stroke="rgb(0,0,0)"  stroke-width="2.0"/>
<line x1="138.6" y1="96.9" x2="171.1" y2="115.7" stroke="rgb(0,0,0)"  stroke-width="2.0"/>
<line x1="106.0" y1="40.5" x2="138.6" y2="59.3" stroke="rgb(0,0,0)"  stroke-width="2.0"/>
<line x1="107.6" y1="49.8" x2="129.8" y2="62.6" stroke="rgb(0,0,0)"  stroke-width="2.0"/>
<line x1="138.6" y1="96.9" x2="106.1" y2="115.7" stroke="rgb(0,0,0)"  stroke-width="2.0"/>
<line x1="106.1" y1="115.7" x2="73.5" y2="96.9" stroke="rgb(0,0,0)"  stroke-width="2.0"/>
<line x1="104.5" y1="106.5" x2="82.3" y2="93.7" stroke="rgb(0,0,0)"  stroke-width="2.0"/>
<line x1="73.5" y1="96.9" x2="73.5" y2="59.3" stroke="rgb(0,0,0)"  stroke-width="2.0"/>
<line x1="73.5" y1="59.3" x2="106.0" y2="40.5" stroke="rgb(0,0,0)"  stroke-width="2.0"/>
<text x="187.702746" y="217.546674" fill="rgb(255,12,12)"  stroke="rgb(255,12,12)" stroke-width="1" font-size="16" >O</text>
<text x="131.619123" y="180.591819" fill="rgb(255,12,12)"  stroke="rgb(255,12,12)" stroke-width="1" font-size="16" >O</text>
<text x="232.228732" y="199.916183" fill="rgb(102,102,102)"  stroke="rgb(102,102,102)" stroke-width="1" font-size="16" >CH</text>
<text x="256.228732" y="203.596183" fill="rgb(102,102,102)"  stroke="rgb(102,102,102)" stroke-width="1" font-size="13" >3</text>
<text x="134.586358" y="143.604563" fill="rgb(102,102,102)"  stroke="rgb(102,102,102)" stroke-width="1" font-size="16" >CH</text>
<text x="158.586358" y="147.284563" fill="rgb(102,102,102)"  stroke="rgb(102,102,102)" stroke-width="1" font-size="13" >3</text>
<text x="34.000000" y="48.000000" fill="rgb(255,12,12)"  stroke="rgb(255,12,12)" stroke-width="1" font-size="16" >O</text>
<text x="319.089976" y="250.016767" fill="rgb(255,12,12)"  stroke="rgb(255,12,12)" stroke-width="1" font-size="16" >OH</text>
<text x="296.291069" y="199.331334" fill="rgb(255,12,12)"  stroke="rgb(255,12,12)" stroke-width="1" font-size="16" >OH</text>
</svg>
</g>
<text font-size="18.000000" fill ="black" font-family="sans-serif"
x="10.000000" y="20.000000" ></text>
</svg>
