<?xml version="1.0"?>
<svg version="1.1" id="topsvg"
xmlns="http://www.w3.org/2000/svg" xmlns:xlink="http://www.w3.org/1999/xlink"
xmlns:cml="http://www.xml-cml.org/schema" x="0" y="0" width="200px" height="200px" viewBox="0 0 100 100">
<title> - Open Babel Depiction</title>
<rect x="0" y="0" width="100" height="100" fill="white"/>
<g transform="translate(0,0)">
<svg width="100" height="100" x="0" y="0" viewBox="0 0 372.983 273.741"
font-family="sans-serif" stroke="rgb(0,0,0)" stroke-width="2"  stroke-linecap="round">
<line x1="298.0" y1="84.3" x2="270.7" y2="78.5" stroke="rgb(0,0,0)"  stroke-width="2.0"/>
<line x1="299.2" y1="78.4" x2="272.0" y2="72.6" stroke="rgb(0,0,0)"  stroke-width="2.0"/>
<line x1="174.9" y1="101.6" x2="174.9" y2="140.6" stroke="rgb(0,0,0)"  stroke-width="2.0"/>
<line x1="174.9" y1="140.6" x2="152.5" y2="153.6" stroke="rgb(0,0,0)"  stroke-width="2.0"/>
<line x1="130.0" y1="153.6" x2="107.5" y2="140.6" stroke="rgb(0,0,0)"  stroke-width="2.0"/>
<line x1="107.5" y1="140.6" x2="107.5" y2="101.6" stroke="rgb(0,0,0)"  stroke-width="2.0"/>
<line x1="107.5" y1="101.6" x2="174.9" y2="101.6" stroke="rgb(0,0,0)"  stroke-width="2.0"/>
<line x1="255.5" y1="202.2" x2="229.7" y2="199.5" stroke="rgb(0,0,0)"  stroke-width="2.0"/>
<line x1="214.1" y1="185.5" x2="208.7" y2="160.1" stroke="rgb(0,0,0)"  stroke-width="2.0"/>
<line x1="208.7" y1="160.1" x2="242.4" y2="140.6" stroke="rgb(0,0,0)"  stroke-width="2.0"/>
<line x1="242.4" y1="140.6" x2="271.4" y2="166.7" stroke="rgb(0,0,0)"  stroke-width="2.0"/>
<line x1="271.4" y1="166.7" x2="255.5" y2="202.2" stroke="rgb(0,0,0)"  stroke-width="2.0"/>
<line x1="262.3" y1="169.2" x2="251.4" y2="193.8" stroke="rgb(0,0,0)"  stroke-width="2.0"/>
<line x1="242.4" y1="140.6" x2="242.4" y2="101.6" stroke="rgb(0,0,0)"  stroke-width="2.0"/>
<line x1="235.2" y1="134.6" x2="235.2" y2="107.6" stroke="rgb(0,0,0)"  stroke-width="2.0"/>
<line x1="242.4" y1="101.6" x2="208.7" y2="82.2" stroke="rgb(0,0,0)"  stroke-width="2.0"/>
<line x1="208.7" y1="82.2" x2="174.9" y2="101.6" stroke="rgb(0,0,0)"  stroke-width="2.0"/>
<line x1="207.1" y1="91.4" x2="183.7" y2="104.9" stroke="rgb(0,0,0)"  stroke-width="2.0"/>
<line x1="174.9" y1="140.6" x2="208.7" y2="160.1" stroke="rgb(0,0,0)"  stroke-width="2.0"/>
<line x1="183.7" y1="137.4" x2="207.1" y2="150.8" stroke="rgb(0,0,0)"  stroke-width="2.0"/>
<line x1="40.0" y1="101.6" x2="73.7" y2="82.2" stroke="rgb(0,0,0)"  stroke-width="2.0"/>
<line x1="73.7" y1="82.2" x2="107.5" y2="101.6" stroke="rgb(0,0,0)"  stroke-width="2.0"/>
<line x1="75.3" y1="91.4" x2="98.7" y2="104.9" stroke="rgb(0,0,0)"  stroke-width="2.0"/>
<line x1="107.5" y1="140.6" x2="73.7" y2="160.1" stroke="rgb(0,0,0)"  stroke-width="2.0"/>
<line x1="98.7" y1="137.4" x2="75.3" y2="150.9" stroke="rgb(0,0,0)"  stroke-width="2.0"/>
<line x1="73.7" y1="160.1" x2="40.0" y2="140.6" stroke="rgb(0,0,0)"  stroke-width="2.0"/>
<line x1="40.0" y1="140.6" x2="40.0" y2="101.6" stroke="rgb(0,0,0)"  stroke-width="2.0"/>
<line x1="47.2" y1="134.6" x2="47.2" y2="107.6" stroke="rgb(0,0,0)"  stroke-width="2.0"/>
<line x1="317.1" y1="229.7" x2="278.4" y2="233.7" stroke="rgb(0,0,0)"  stroke-width="2.0"/>
<line x1="310.4" y1="223.1" x2="283.6" y2="226.0" stroke="rgb(0,0,0)"  stroke-width="2.0"/>
<line x1="278.4" y1="233.7" x2="255.5" y2="202.2" stroke="rgb(0,0,0)"  stroke-width="2.0"/>
<line x1="271.4" y1="166.7" x2="310.1" y2="162.6" stroke="rgb(0,0,0)"  stroke-width="2.0"/>
<line x1="310.1" y1="162.6" x2="333.0" y2="194.1" stroke="rgb(0,0,0)"  stroke-width="2.0"/>
<line x1="307.8" y1="171.7" x2="323.6" y2="193.5" stroke="rgb(0,0,0)"  stroke-width="2.0"/>
<line x1="333.0" y1="194.1" x2="317.1" y2="229.7" stroke="rgb(0,0,0)"  stroke-width="2.0"/>
<line x1="216.8" y1="44.1" x2="208.7" y2="82.2" stroke="rgb(0,0,0)"  stroke-width="2.0"/>
<line x1="242.4" y1="101.6" x2="271.4" y2="75.6" stroke="rgb(0,0,0)"  stroke-width="2.0"/>
<line x1="271.4" y1="75.6" x2="260.8" y2="51.9" stroke="rgb(0,0,0)"  stroke-width="2.0"/>
<line x1="242.6" y1="41.4" x2="216.8" y2="44.1" stroke="rgb(0,0,0)"  stroke-width="2.0"/>
<text x="210.792066" y="206.171878" fill="rgb(12,12,255)"  stroke="rgb(12,12,255)" stroke-width="1" font-size="16" >N</text>
<text x="210.792066" y="222.171878" fill="rgb(12,12,255)"  stroke="rgb(12,12,255)" stroke-width="1" font-size="16" >H</text>
<text x="305.318466" y="92.071921" fill="rgb(255,12,12)"  stroke="rgb(255,12,12)" stroke-width="1" font-size="16" >O</text>
<text x="135.219797" y="168.084026" fill="rgb(12,12,255)"  stroke="rgb(12,12,255)" stroke-width="1" font-size="16" >N</text>
<text x="135.219797" y="184.084026" fill="rgb(12,12,255)"  stroke="rgb(12,12,255)" stroke-width="1" font-size="16" >H</text>
<text x="249.513334" y="48.000000" fill="rgb(12,12,255)"  stroke="rgb(12,12,255)" stroke-width="1" font-size="16" >N</text>
<text x="249.513334" y="32.000000" fill="rgb(12,12,255)"  stroke="rgb(12,12,255)" stroke-width="1" font-size="16" >H</text>
</svg>
</g>
<text font-size="18.000000" fill ="black" font-family="sans-serif"
x="10.000000" y="20.000000" ></text>
</svg>
