<?xml version="1.0"?>
<svg version="1.1" id="topsvg"
xmlns="http://www.w3.org/2000/svg" xmlns:xlink="http://www.w3.org/1999/xlink"
xmlns:cml="http://www.xml-cml.org/schema" x="0" y="0" width="200px" height="200px" viewBox="0 0 100 100">
<title> - Open Babel Depiction</title>
<rect x="0" y="0" width="100" height="100" fill="white"/>
<g transform="translate(0,0)">
<svg width="100" height="100" x="0" y="0" viewBox="0 0 1049.95 1200"
font-family="sans-serif" stroke="rgb(0,0,0)" stroke-width="2"  stroke-linecap="round">
<line x1="1009.9" y1="1147.0" x2="1009.9" y2="1120.0" stroke="rgb(0,0,0)"  stroke-width="2.0"/>
<line x1="1009.9" y1="1120.0" x2="975.3" y2="1100.0" stroke="rgb(0,0,0)"  stroke-width="2.0"/>
<line x1="975.3" y1="1100.0" x2="975.3" y2="1060.0" stroke="rgb(0,0,0)"  stroke-width="2.0"/>
<line x1="975.3" y1="1060.0" x2="940.7" y2="1040.0" stroke="rgb(0,0,0)"  stroke-width="2.0"/>
<line x1="940.7" y1="1040.0" x2="940.7" y2="1000.0" stroke="rgb(0,0,0)"  stroke-width="2.0"/>
<line x1="940.7" y1="1000.0" x2="906.0" y2="980.0" stroke="rgb(0,0,0)"  stroke-width="2.0"/>
<line x1="906.0" y1="980.0" x2="906.0" y2="940.0" stroke="rgb(0,0,0)"  stroke-width="2.0"/>
<line x1="906.0" y1="940.0" x2="871.4" y2="920.0" stroke="rgb(0,0,0)"  stroke-width="2.0"/>
<line x1="868.4" y1="920.0" x2="874.4" y2="880.0" stroke="rgb(0,0,0)"  stroke-width="2.0"/>
<line x1="874.4" y1="920.0" x2="868.4" y2="880.0" stroke="rgb(0,0,0)"  stroke-width="2.0"/>
<line x1="871.4" y1="880.0" x2="836.7" y2="860.0" stroke="rgb(0,0,0)"  stroke-width="2.0"/>
<line x1="836.7" y1="860.0" x2="836.7" y2="820.0" stroke="rgb(0,0,0)"  stroke-width="2.0"/>
<line x1="836.7" y1="820.0" x2="802.1" y2="800.0" stroke="rgb(0,0,0)"  stroke-width="2.0"/>
<line x1="802.1" y1="800.0" x2="802.1" y2="760.0" stroke="rgb(0,0,0)"  stroke-width="2.0"/>
<line x1="802.1" y1="760.0" x2="767.5" y2="740.0" stroke="rgb(0,0,0)"  stroke-width="2.0"/>
<line x1="767.5" y1="740.0" x2="767.5" y2="700.0" stroke="rgb(0,0,0)"  stroke-width="2.0"/>
<line x1="767.5" y1="700.0" x2="732.8" y2="680.0" stroke="rgb(0,0,0)"  stroke-width="2.0"/>
<line x1="732.8" y1="680.0" x2="732.8" y2="640.0" stroke="rgb(0,0,0)"  stroke-width="2.0"/>
<line x1="732.8" y1="640.0" x2="709.4" y2="626.5" stroke="rgb(0,0,0)"  stroke-width="2.0"/>
<line x1="698.2" y1="607.0" x2="698.2" y2="580.0" stroke="rgb(0,0,0)"  stroke-width="2.0"/>
<line x1="698.2" y1="580.0" x2="663.5" y2="560.0" stroke="rgb(0,0,0)"  stroke-width="2.0"/>
<line x1="663.5" y1="560.0" x2="640.2" y2="573.5" stroke="rgb(0,0,0)"  stroke-width="2.0"/>
<line x1="617.6" y1="573.5" x2="594.3" y2="560.0" stroke="rgb(0,0,0)"  stroke-width="2.0"/>
<line x1="594.3" y1="560.0" x2="594.3" y2="520.0" stroke="rgb(0,0,0)"  stroke-width="2.0"/>
<line x1="594.3" y1="520.0" x2="559.6" y2="500.0" stroke="rgb(0,0,0)"  stroke-width="2.0"/>
<line x1="559.6" y1="500.0" x2="525.0" y2="520.0" stroke="rgb(0,0,0)"  stroke-width="2.0"/>
<line x1="525.0" y1="520.0" x2="490.3" y2="500.0" stroke="rgb(0,0,0)"  stroke-width="2.0"/>
<line x1="490.3" y1="500.0" x2="455.7" y2="520.0" stroke="rgb(0,0,0)"  stroke-width="2.0"/>
<line x1="455.7" y1="520.0" x2="421.1" y2="500.0" stroke="rgb(0,0,0)"  stroke-width="2.0"/>
<line x1="421.1" y1="500.0" x2="386.4" y2="520.0" stroke="rgb(0,0,0)"  stroke-width="2.0"/>
<line x1="386.4" y1="520.0" x2="351.8" y2="500.0" stroke="rgb(0,0,0)"  stroke-width="2.0"/>
<line x1="353.3" y1="502.6" x2="315.6" y2="517.4" stroke="rgb(0,0,0)"  stroke-width="2.0"/>
<line x1="350.3" y1="497.4" x2="318.6" y2="522.6" stroke="rgb(0,0,0)"  stroke-width="2.0"/>
<line x1="317.1" y1="520.0" x2="282.5" y2="500.0" stroke="rgb(0,0,0)"  stroke-width="2.0"/>
<line x1="282.5" y1="500.0" x2="247.8" y2="520.0" stroke="rgb(0,0,0)"  stroke-width="2.0"/>
<line x1="247.8" y1="520.0" x2="213.2" y2="500.0" stroke="rgb(0,0,0)"  stroke-width="2.0"/>
<line x1="213.2" y1="500.0" x2="178.6" y2="520.0" stroke="rgb(0,0,0)"  stroke-width="2.0"/>
<line x1="178.6" y1="520.0" x2="143.9" y2="500.0" stroke="rgb(0,0,0)"  stroke-width="2.0"/>
<line x1="143.9" y1="500.0" x2="109.3" y2="520.0" stroke="rgb(0,0,0)"  stroke-width="2.0"/>
<line x1="109.3" y1="520.0" x2="74.6" y2="500.0" stroke="rgb(0,0,0)"  stroke-width="2.0"/>
<line x1="74.6" y1="500.0" x2="51.3" y2="513.5" stroke="rgb(0,0,0)"  stroke-width="2.0"/>
<line x1="595.8" y1="562.6" x2="572.4" y2="576.1" stroke="rgb(0,0,0)"  stroke-width="2.0"/>
<line x1="592.8" y1="557.4" x2="569.4" y2="570.9" stroke="rgb(0,0,0)"  stroke-width="2.0"/>
<line x1="698.2" y1="580.0" x2="732.8" y2="560.0" stroke="rgb(0,0,0)"  stroke-width="2.0"/>
<line x1="732.8" y1="560.0" x2="732.8" y2="533.0" stroke="rgb(0,0,0)"  stroke-width="2.0"/>
<line x1="721.6" y1="513.5" x2="698.2" y2="500.0" stroke="rgb(0,0,0)"  stroke-width="2.0"/>
<line x1="698.2" y1="500.0" x2="663.5" y2="520.0" stroke="rgb(0,0,0)"  stroke-width="2.0"/>
<line x1="663.5" y1="520.0" x2="628.9" y2="500.0" stroke="rgb(0,0,0)"  stroke-width="2.0"/>
<line x1="628.9" y1="500.0" x2="628.9" y2="460.0" stroke="rgb(0,0,0)"  stroke-width="2.0"/>
<line x1="628.9" y1="460.0" x2="594.3" y2="440.0" stroke="rgb(0,0,0)"  stroke-width="2.0"/>
<line x1="594.3" y1="440.0" x2="594.3" y2="400.0" stroke="rgb(0,0,0)"  stroke-width="2.0"/>
<line x1="594.3" y1="400.0" x2="559.6" y2="380.0" stroke="rgb(0,0,0)"  stroke-width="2.0"/>
<line x1="559.6" y1="380.0" x2="559.6" y2="340.0" stroke="rgb(0,0,0)"  stroke-width="2.0"/>
<line x1="559.6" y1="340.0" x2="525.0" y2="320.0" stroke="rgb(0,0,0)"  stroke-width="2.0"/>
<line x1="522.0" y1="320.0" x2="528.0" y2="280.0" stroke="rgb(0,0,0)"  stroke-width="2.0"/>
<line x1="528.0" y1="320.0" x2="522.0" y2="280.0" stroke="rgb(0,0,0)"  stroke-width="2.0"/>
<line x1="525.0" y1="280.0" x2="490.3" y2="260.0" stroke="rgb(0,0,0)"  stroke-width="2.0"/>
<line x1="490.3" y1="260.0" x2="490.3" y2="220.0" stroke="rgb(0,0,0)"  stroke-width="2.0"/>
<line x1="490.3" y1="220.0" x2="455.7" y2="200.0" stroke="rgb(0,0,0)"  stroke-width="2.0"/>
<line x1="455.7" y1="200.0" x2="455.7" y2="160.0" stroke="rgb(0,0,0)"  stroke-width="2.0"/>
<line x1="455.7" y1="160.0" x2="421.1" y2="140.0" stroke="rgb(0,0,0)"  stroke-width="2.0"/>
<line x1="421.1" y1="140.0" x2="421.1" y2="100.0" stroke="rgb(0,0,0)"  stroke-width="2.0"/>
<line x1="421.1" y1="100.0" x2="386.4" y2="80.0" stroke="rgb(0,0,0)"  stroke-width="2.0"/>
<line x1="386.4" y1="80.0" x2="386.4" y2="53.0" stroke="rgb(0,0,0)"  stroke-width="2.0"/>
<line x1="695.2" y1="500.0" x2="695.2" y2="473.0" stroke="rgb(0,0,0)"  stroke-width="2.0"/>
<line x1="701.2" y1="500.0" x2="701.2" y2="473.0" stroke="rgb(0,0,0)"  stroke-width="2.0"/>
<line x1="731.3" y1="637.4" x2="754.7" y2="623.9" stroke="rgb(0,0,0)"  stroke-width="2.0"/>
<line x1="734.3" y1="642.6" x2="757.7" y2="629.1" stroke="rgb(0,0,0)"  stroke-width="2.0"/>
<text x="14.000000" y="528.000000" fill="rgb(102,102,102)"  stroke="rgb(102,102,102)" stroke-width="1" font-size="16" >H</text>
<text x="26.000000" y="531.680000" fill="rgb(102,102,102)"  stroke="rgb(102,102,102)" stroke-width="1" font-size="13" >3</text>
<text x="32.500000" y="528.000000" fill="rgb(102,102,102)"  stroke="rgb(102,102,102)" stroke-width="1" font-size="16" >C</text>
<text x="553.615242" y="588.000000" fill="rgb(255,12,12)"  stroke="rgb(255,12,12)" stroke-width="1" font-size="16" >O</text>
<text x="726.820323" y="528.000000" fill="rgb(255,12,12)"  stroke="rgb(255,12,12)" stroke-width="1" font-size="16" >O</text>
<text x="382.410162" y="48.000000" fill="rgb(102,102,102)"  stroke="rgb(102,102,102)" stroke-width="1" font-size="16" >CH</text>
<text x="406.410162" y="51.680000" fill="rgb(102,102,102)"  stroke="rgb(102,102,102)" stroke-width="1" font-size="13" >3</text>
<text x="692.179307" y="468.000000" fill="rgb(255,12,12)"  stroke="rgb(255,12,12)" stroke-width="1" font-size="16" >O</text>
<text x="761.461339" y="628.000000" fill="rgb(255,12,12)"  stroke="rgb(255,12,12)" stroke-width="1" font-size="16" >O</text>
<text x="1005.948452" y="1168.000000" fill="rgb(102,102,102)"  stroke="rgb(102,102,102)" stroke-width="1" font-size="16" >CH</text>
<text x="1029.948452" y="1171.680000" fill="rgb(102,102,102)"  stroke="rgb(102,102,102)" stroke-width="1" font-size="13" >3</text>
<text x="692.179307" y="628.000000" fill="rgb(255,12,12)"  stroke="rgb(255,12,12)" stroke-width="1" font-size="16" >O</text>
<text x="622.897275" y="588.000000" fill="rgb(255,12,12)"  stroke="rgb(255,12,12)" stroke-width="1" font-size="16" >O</text>
</svg>
</g>
<text font-size="18.000000" fill ="black" font-family="sans-serif"
x="10.000000" y="20.000000" ></text>
</svg>
