<?xml version="1.0"?>
<svg version="1.1" id="topsvg"
xmlns="http://www.w3.org/2000/svg" xmlns:xlink="http://www.w3.org/1999/xlink"
xmlns:cml="http://www.xml-cml.org/schema" x="0" y="0" width="200px" height="200px" viewBox="0 0 100 100">
<title> - Open Babel Depiction</title>
<rect x="0" y="0" width="100" height="100" fill="white"/>
<g transform="translate(0,0)">
<svg width="100" height="100" x="0" y="0" viewBox="0 0 422.058 282.351"
font-family="sans-serif" stroke="rgb(0,0,0)" stroke-width="2"  stroke-linecap="round">
<line x1="136.2" y1="186.7" x2="122.7" y2="163.3" stroke="rgb(0,0,0)"  stroke-width="2.0"/>
<line x1="151.7" y1="124.1" x2="178.1" y2="118.4" stroke="rgb(0,0,0)"  stroke-width="2.0"/>
<line x1="256.4" y1="101.8" x2="295.5" y2="93.5" stroke="rgb(0,0,0)"  stroke-width="2.0"/>
<line x1="295.5" y1="93.5" x2="313.6" y2="113.6" stroke="rgb(0,0,0)"  stroke-width="2.0"/>
<line x1="359.5" y1="117.5" x2="373.0" y2="94.2" stroke="rgb(0,0,0)"  stroke-width="2.0"/>
<line x1="364.7" y1="120.5" x2="378.2" y2="97.2" stroke="rgb(0,0,0)"  stroke-width="2.0"/>
<line x1="74.6" y1="120.0" x2="109.3" y2="100.0" stroke="rgb(0,0,0)"  stroke-width="2.0"/>
<line x1="83.4" y1="123.2" x2="107.7" y2="109.2" stroke="rgb(0,0,0)"  stroke-width="2.0"/>
<line x1="109.3" y1="100.0" x2="129.3" y2="118.1" stroke="rgb(0,0,0)"  stroke-width="2.0"/>
<line x1="133.7" y1="138.6" x2="122.7" y2="163.3" stroke="rgb(0,0,0)"  stroke-width="2.0"/>
<line x1="122.7" y1="163.3" x2="96.1" y2="160.5" stroke="rgb(0,0,0)"  stroke-width="2.0"/>
<line x1="117.5" y1="155.5" x2="98.8" y2="153.6" stroke="rgb(0,0,0)"  stroke-width="2.0"/>
<line x1="80.3" y1="146.4" x2="74.6" y2="120.0" stroke="rgb(0,0,0)"  stroke-width="2.0"/>
<line x1="368.7" y1="164.3" x2="348.6" y2="182.4" stroke="rgb(0,0,0)"  stroke-width="2.0"/>
<line x1="348.6" y1="182.4" x2="314.0" y2="162.4" stroke="rgb(0,0,0)"  stroke-width="2.0"/>
<line x1="347.0" y1="173.1" x2="322.8" y2="159.1" stroke="rgb(0,0,0)"  stroke-width="2.0"/>
<line x1="314.0" y1="162.4" x2="319.6" y2="135.9" stroke="rgb(0,0,0)"  stroke-width="2.0"/>
<line x1="335.2" y1="121.9" x2="362.1" y2="119.0" stroke="rgb(0,0,0)"  stroke-width="2.0"/>
<line x1="362.1" y1="119.0" x2="373.0" y2="143.7" stroke="rgb(0,0,0)"  stroke-width="2.0"/>
<line x1="51.3" y1="53.5" x2="74.6" y2="40.0" stroke="rgb(0,0,0)"  stroke-width="2.0"/>
<line x1="74.6" y1="40.0" x2="109.3" y2="60.0" stroke="rgb(0,0,0)"  stroke-width="2.0"/>
<line x1="76.2" y1="49.2" x2="100.5" y2="63.2" stroke="rgb(0,0,0)"  stroke-width="2.0"/>
<line x1="109.3" y1="60.0" x2="109.3" y2="100.0" stroke="rgb(0,0,0)"  stroke-width="2.0"/>
<line x1="74.6" y1="120.0" x2="40.0" y2="100.0" stroke="rgb(0,0,0)"  stroke-width="2.0"/>
<line x1="40.0" y1="100.0" x2="40.0" y2="73.2" stroke="rgb(0,0,0)"  stroke-width="2.0"/>
<line x1="47.2" y1="94.0" x2="47.2" y2="75.2" stroke="rgb(0,0,0)"  stroke-width="2.0"/>
<line x1="229.6" y1="72.1" x2="256.4" y2="101.8" stroke="rgb(0,0,0)"  stroke-width="2.0"/>
<line x1="228.3" y1="81.4" x2="247.0" y2="102.2" stroke="rgb(0,0,0)"  stroke-width="2.0"/>
<line x1="256.4" y1="101.8" x2="244.0" y2="139.9" stroke="rgb(0,0,0)"  stroke-width="2.0"/>
<line x1="244.0" y1="139.9" x2="204.9" y2="148.2" stroke="rgb(0,0,0)"  stroke-width="2.0"/>
<line x1="236.7" y1="134.1" x2="209.3" y2="139.9" stroke="rgb(0,0,0)"  stroke-width="2.0"/>
<line x1="204.9" y1="148.2" x2="178.1" y2="118.4" stroke="rgb(0,0,0)"  stroke-width="2.0"/>
<line x1="178.1" y1="118.4" x2="190.5" y2="80.4" stroke="rgb(0,0,0)"  stroke-width="2.0"/>
<line x1="186.8" y1="115.0" x2="195.5" y2="88.3" stroke="rgb(0,0,0)"  stroke-width="2.0"/>
<line x1="190.5" y1="80.4" x2="229.6" y2="72.1" stroke="rgb(0,0,0)"  stroke-width="2.0"/>
<line x1="314.0" y1="242.4" x2="279.3" y2="222.4" stroke="rgb(0,0,0)"  stroke-width="2.0"/>
<line x1="279.3" y1="222.4" x2="279.3" y2="182.4" stroke="rgb(0,0,0)"  stroke-width="2.0"/>
<line x1="286.5" y1="216.4" x2="286.5" y2="188.4" stroke="rgb(0,0,0)"  stroke-width="2.0"/>
<line x1="279.3" y1="182.4" x2="314.0" y2="162.4" stroke="rgb(0,0,0)"  stroke-width="2.0"/>
<line x1="348.6" y1="182.4" x2="348.6" y2="222.4" stroke="rgb(0,0,0)"  stroke-width="2.0"/>
<line x1="348.6" y1="222.4" x2="314.0" y2="242.4" stroke="rgb(0,0,0)"  stroke-width="2.0"/>
<line x1="339.8" y1="219.1" x2="315.6" y2="233.1" stroke="rgb(0,0,0)"  stroke-width="2.0"/>
<text x="372.327007" y="163.585827" fill="rgb(178,178,0)"  stroke="rgb(178,178,0)" stroke-width="1" font-size="16" >S</text>
<text x="376.057542" y="92.402992" fill="rgb(255,12,12)"  stroke="rgb(255,12,12)" stroke-width="1" font-size="16" >O</text>
<text x="316.276666" y="131.225147" fill="rgb(12,12,255)"  stroke="rgb(12,12,255)" stroke-width="1" font-size="16" >N</text>
<text x="138.738360" y="205.948059" fill="rgb(102,102,102)"  stroke="rgb(102,102,102)" stroke-width="1" font-size="16" >CH</text>
<text x="162.738360" y="209.628059" fill="rgb(102,102,102)"  stroke="rgb(102,102,102)" stroke-width="1" font-size="13" >3</text>
<text x="133.007825" y="134.765224" fill="rgb(12,12,255)"  stroke="rgb(12,12,255)" stroke-width="1" font-size="16" >N</text>
<text x="34.000000" y="68.000000" fill="rgb(12,12,255)"  stroke="rgb(12,12,255)" stroke-width="1" font-size="16" >N</text>
<text x="76.957484" y="167.125904" fill="rgb(12,12,255)"  stroke="rgb(12,12,255)" stroke-width="1" font-size="16" >N</text>
</svg>
</g>
<text font-size="18.000000" fill ="black" font-family="sans-serif"
x="10.000000" y="20.000000" ></text>
</svg>
