<?xml version="1.0"?>
<svg version="1.1" id="topsvg"
xmlns="http://www.w3.org/2000/svg" xmlns:xlink="http://www.w3.org/1999/xlink"
xmlns:cml="http://www.xml-cml.org/schema" x="0" y="0" width="200px" height="200px" viewBox="0 0 100 100">
<title> - Open Babel Depiction</title>
<rect x="0" y="0" width="100" height="100" fill="white"/>
<g transform="translate(0,0)">
<svg width="100" height="100" x="0" y="0" viewBox="0 0 634.256 980"
font-family="sans-serif" stroke="rgb(0,0,0)" stroke-width="2"  stroke-linecap="round">
<line x1="583.0" y1="53.5" x2="570.9" y2="46.5" stroke="rgb(0,0,0)"  stroke-width="2.0"/>
<line x1="548.4" y1="46.5" x2="525.0" y2="60.0" stroke="rgb(0,0,0)"  stroke-width="2.0"/>
<line x1="525.0" y1="60.0" x2="525.0" y2="100.0" stroke="rgb(0,0,0)"  stroke-width="2.0"/>
<line x1="525.0" y1="100.0" x2="501.6" y2="113.5" stroke="rgb(0,0,0)"  stroke-width="2.0"/>
<line x1="490.3" y1="133.0" x2="490.3" y2="160.0" stroke="rgb(0,0,0)"  stroke-width="2.0"/>
<line x1="490.3" y1="160.0" x2="455.7" y2="180.0" stroke="rgb(0,0,0)"  stroke-width="2.0"/>
<line x1="455.7" y1="180.0" x2="455.7" y2="207.0" stroke="rgb(0,0,0)"  stroke-width="2.0"/>
<line x1="444.4" y1="226.5" x2="421.1" y2="240.0" stroke="rgb(0,0,0)"  stroke-width="2.0"/>
<line x1="421.1" y1="240.0" x2="421.1" y2="280.0" stroke="rgb(0,0,0)"  stroke-width="2.0"/>
<line x1="421.1" y1="280.0" x2="397.7" y2="293.5" stroke="rgb(0,0,0)"  stroke-width="2.0"/>
<line x1="386.4" y1="313.0" x2="386.4" y2="340.0" stroke="rgb(0,0,0)"  stroke-width="2.0"/>
<line x1="386.4" y1="340.0" x2="351.8" y2="360.0" stroke="rgb(0,0,0)"  stroke-width="2.0"/>
<line x1="351.8" y1="360.0" x2="351.8" y2="387.0" stroke="rgb(0,0,0)"  stroke-width="2.0"/>
<line x1="340.5" y1="406.5" x2="317.1" y2="420.0" stroke="rgb(0,0,0)"  stroke-width="2.0"/>
<line x1="317.1" y1="420.0" x2="317.1" y2="460.0" stroke="rgb(0,0,0)"  stroke-width="2.0"/>
<line x1="317.1" y1="460.0" x2="293.7" y2="473.5" stroke="rgb(0,0,0)"  stroke-width="2.0"/>
<line x1="282.5" y1="493.0" x2="282.5" y2="520.0" stroke="rgb(0,0,0)"  stroke-width="2.0"/>
<line x1="282.5" y1="520.0" x2="247.8" y2="540.0" stroke="rgb(0,0,0)"  stroke-width="2.0"/>
<line x1="247.8" y1="540.0" x2="247.8" y2="567.0" stroke="rgb(0,0,0)"  stroke-width="2.0"/>
<line x1="236.6" y1="586.5" x2="213.2" y2="600.0" stroke="rgb(0,0,0)"  stroke-width="2.0"/>
<line x1="213.2" y1="600.0" x2="213.2" y2="640.0" stroke="rgb(0,0,0)"  stroke-width="2.0"/>
<line x1="213.2" y1="640.0" x2="189.8" y2="653.5" stroke="rgb(0,0,0)"  stroke-width="2.0"/>
<line x1="178.6" y1="673.0" x2="178.6" y2="700.0" stroke="rgb(0,0,0)"  stroke-width="2.0"/>
<line x1="178.6" y1="700.0" x2="143.9" y2="720.0" stroke="rgb(0,0,0)"  stroke-width="2.0"/>
<line x1="143.9" y1="720.0" x2="143.9" y2="747.0" stroke="rgb(0,0,0)"  stroke-width="2.0"/>
<line x1="132.7" y1="766.5" x2="109.3" y2="780.0" stroke="rgb(0,0,0)"  stroke-width="2.0"/>
<line x1="109.3" y1="780.0" x2="109.3" y2="820.0" stroke="rgb(0,0,0)"  stroke-width="2.0"/>
<line x1="109.3" y1="820.0" x2="85.9" y2="833.5" stroke="rgb(0,0,0)"  stroke-width="2.0"/>
<line x1="74.6" y1="853.0" x2="74.6" y2="880.0" stroke="rgb(0,0,0)"  stroke-width="2.0"/>
<line x1="74.6" y1="880.0" x2="40.0" y2="900.0" stroke="rgb(0,0,0)"  stroke-width="2.0"/>
<line x1="40.0" y1="900.0" x2="40.0" y2="927.0" stroke="rgb(0,0,0)"  stroke-width="2.0"/>
<text x="276.487113" y="488.000000" fill="rgb(255,12,12)"  stroke="rgb(255,12,12)" stroke-width="1" font-size="16" >O</text>
<text x="34.000000" y="948.000000" fill="rgb(255,12,12)"  stroke="rgb(255,12,12)" stroke-width="1" font-size="16" >OH</text>
<text x="68.641016" y="848.000000" fill="rgb(255,12,12)"  stroke="rgb(255,12,12)" stroke-width="1" font-size="16" >O</text>
<text x="137.923048" y="768.000000" fill="rgb(255,12,12)"  stroke="rgb(255,12,12)" stroke-width="1" font-size="16" >O</text>
<text x="172.564065" y="668.000000" fill="rgb(255,12,12)"  stroke="rgb(255,12,12)" stroke-width="1" font-size="16" >O</text>
<text x="241.846097" y="588.000000" fill="rgb(255,12,12)"  stroke="rgb(255,12,12)" stroke-width="1" font-size="16" >O</text>
<text x="590.256258" y="68.000000" fill="rgb(102,102,102)"  stroke="rgb(102,102,102)" stroke-width="1" font-size="16" >CH</text>
<text x="614.256258" y="71.680000" fill="rgb(102,102,102)"  stroke="rgb(102,102,102)" stroke-width="1" font-size="13" >3</text>
<text x="345.769145" y="408.000000" fill="rgb(255,12,12)"  stroke="rgb(255,12,12)" stroke-width="1" font-size="16" >O</text>
<text x="380.410162" y="308.000000" fill="rgb(255,12,12)"  stroke="rgb(255,12,12)" stroke-width="1" font-size="16" >O</text>
<text x="449.692194" y="228.000000" fill="rgb(255,12,12)"  stroke="rgb(255,12,12)" stroke-width="1" font-size="16" >O</text>
<text x="484.333210" y="128.000000" fill="rgb(255,12,12)"  stroke="rgb(255,12,12)" stroke-width="1" font-size="16" >O</text>
<text x="553.615242" y="48.000000" fill="rgb(255,12,12)"  stroke="rgb(255,12,12)" stroke-width="1" font-size="16" >O</text>
</svg>
</g>
<text font-size="18.000000" fill ="black" font-family="sans-serif"
x="10.000000" y="20.000000" ></text>
</svg>
