<?xml version="1.0"?>
<svg version="1.1" id="topsvg"
xmlns="http://www.w3.org/2000/svg" xmlns:xlink="http://www.w3.org/1999/xlink"
xmlns:cml="http://www.xml-cml.org/schema" x="0" y="0" width="200px" height="200px" viewBox="0 0 100 100">
<title> - Open Babel Depiction</title>
<rect x="0" y="0" width="100" height="100" fill="white"/>
<g transform="translate(0,0)">
<svg width="100" height="100" x="0" y="0" viewBox="0 0 400.118 220"
font-family="sans-serif" stroke="rgb(0,0,0)" stroke-width="2"  stroke-linecap="round">
<line x1="348.9" y1="113.5" x2="325.5" y2="100.0" stroke="rgb(0,0,0)"  stroke-width="2.0"/>
<line x1="322.5" y1="100.0" x2="322.5" y2="73.0" stroke="rgb(0,0,0)"  stroke-width="2.0"/>
<line x1="328.5" y1="100.0" x2="328.5" y2="73.0" stroke="rgb(0,0,0)"  stroke-width="2.0"/>
<line x1="336.7" y1="53.5" x2="348.9" y2="46.5" stroke="rgb(0,0,0)"  stroke-width="2.0"/>
<line x1="314.2" y1="53.5" x2="302.1" y2="46.5" stroke="rgb(0,0,0)"  stroke-width="2.0"/>
<line x1="325.5" y1="100.0" x2="290.8" y2="120.0" stroke="rgb(0,0,0)"  stroke-width="2.0"/>
<line x1="160.0" y1="140.0" x2="120.0" y2="140.0" stroke="rgb(0,0,0)"  stroke-width="2.0"/>
<line x1="100.0" y1="105.4" x2="113.5" y2="82.0" stroke="rgb(0,0,0)"  stroke-width="2.0"/>
<line x1="160.0" y1="140.0" x2="175.8" y2="118.3" stroke="rgb(0,0,0)"  stroke-width="2.0"/>
<line x1="169.4" y1="139.4" x2="180.4" y2="124.2" stroke="rgb(0,0,0)"  stroke-width="2.0"/>
<line x1="195.9" y1="111.7" x2="221.6" y2="120.0" stroke="rgb(0,0,0)"  stroke-width="2.0"/>
<line x1="221.6" y1="120.0" x2="221.6" y2="160.0" stroke="rgb(0,0,0)"  stroke-width="2.0"/>
<line x1="221.6" y1="160.0" x2="195.9" y2="168.3" stroke="rgb(0,0,0)"  stroke-width="2.0"/>
<line x1="175.9" y1="161.8" x2="160.0" y2="140.0" stroke="rgb(0,0,0)"  stroke-width="2.0"/>
<line x1="256.2" y1="180.0" x2="221.6" y2="160.0" stroke="rgb(0,0,0)"  stroke-width="2.0"/>
<line x1="254.6" y1="170.8" x2="230.3" y2="156.8" stroke="rgb(0,0,0)"  stroke-width="2.0"/>
<line x1="221.6" y1="120.0" x2="256.2" y2="100.0" stroke="rgb(0,0,0)"  stroke-width="2.0"/>
<line x1="230.3" y1="123.2" x2="254.6" y2="109.2" stroke="rgb(0,0,0)"  stroke-width="2.0"/>
<line x1="256.2" y1="100.0" x2="290.8" y2="120.0" stroke="rgb(0,0,0)"  stroke-width="2.0"/>
<line x1="290.8" y1="120.0" x2="290.8" y2="160.0" stroke="rgb(0,0,0)"  stroke-width="2.0"/>
<line x1="283.6" y1="126.0" x2="283.6" y2="154.0" stroke="rgb(0,0,0)"  stroke-width="2.0"/>
<line x1="290.8" y1="160.0" x2="256.2" y2="180.0" stroke="rgb(0,0,0)"  stroke-width="2.0"/>
<line x1="60.0" y1="174.6" x2="40.0" y2="140.0" stroke="rgb(0,0,0)"  stroke-width="2.0"/>
<line x1="63.2" y1="165.8" x2="49.2" y2="141.6" stroke="rgb(0,0,0)"  stroke-width="2.0"/>
<line x1="40.0" y1="140.0" x2="60.0" y2="105.4" stroke="rgb(0,0,0)"  stroke-width="2.0"/>
<line x1="60.0" y1="105.4" x2="100.0" y2="105.4" stroke="rgb(0,0,0)"  stroke-width="2.0"/>
<line x1="66.0" y1="112.6" x2="94.0" y2="112.6" stroke="rgb(0,0,0)"  stroke-width="2.0"/>
<line x1="100.0" y1="105.4" x2="120.0" y2="140.0" stroke="rgb(0,0,0)"  stroke-width="2.0"/>
<line x1="120.0" y1="140.0" x2="100.0" y2="174.6" stroke="rgb(0,0,0)"  stroke-width="2.0"/>
<line x1="110.8" y1="141.6" x2="96.8" y2="165.8" stroke="rgb(0,0,0)"  stroke-width="2.0"/>
<line x1="100.0" y1="174.6" x2="60.0" y2="174.6" stroke="rgb(0,0,0)"  stroke-width="2.0"/>
<text x="124.800000" y="56.605968" fill="rgb(255,12,12)"  stroke="rgb(255,12,12)" stroke-width="1" font-size="16" >_</text>
<text x="114.000000" y="78.717968" fill="rgb(255,12,12)"  stroke="rgb(255,12,12)" stroke-width="1" font-size="16" >O</text>
<text x="177.511410" y="115.639320" fill="rgb(12,12,255)"  stroke="rgb(12,12,255)" stroke-width="1" font-size="16" >N</text>
<text x="356.117735" y="128.000000" fill="rgb(12,12,255)"  stroke="rgb(12,12,255)" stroke-width="1" font-size="16" >NH</text>
<text x="380.117735" y="131.680000" fill="rgb(12,12,255)"  stroke="rgb(12,12,255)" stroke-width="1" font-size="13" >2</text>
<text x="177.511410" y="180.360680" fill="rgb(12,12,255)"  stroke="rgb(12,12,255)" stroke-width="1" font-size="16" >N</text>
<text x="177.511410" y="196.360680" fill="rgb(12,12,255)"  stroke="rgb(12,12,255)" stroke-width="1" font-size="16" >H</text>
<text x="284.835703" y="48.000000" fill="rgb(191,191,191)"  stroke="rgb(191,191,191)" stroke-width="1" font-size="16" >H</text>
<text x="354.117735" y="48.000000" fill="rgb(191,191,191)"  stroke="rgb(191,191,191)" stroke-width="1" font-size="16" >H</text>
<text x="330.276719" y="55.968000" fill="rgb(12,12,255)"  stroke="rgb(12,12,255)" stroke-width="1" font-size="16" >+</text>
<text x="319.476719" y="68.000000" fill="rgb(12,12,255)"  stroke="rgb(12,12,255)" stroke-width="1" font-size="16" >N</text>
</svg>
</g>
<text font-size="18.000000" fill ="black" font-family="sans-serif"
x="10.000000" y="20.000000" ></text>
</svg>
