<?xml version="1.0"?>
<svg version="1.1" id="topsvg"
xmlns="http://www.w3.org/2000/svg" xmlns:xlink="http://www.w3.org/1999/xlink"
xmlns:cml="http://www.xml-cml.org/schema" x="0" y="0" width="200px" height="200px" viewBox="0 0 100 100">
<title> - Open Babel Depiction</title>
<rect x="0" y="0" width="100" height="100" fill="white"/>
<g transform="translate(0,0)">
<svg width="100" height="100" x="0" y="0" viewBox="0 0 760 700"
font-family="sans-serif" stroke="rgb(0,0,0)" stroke-width="2"  stroke-linecap="round">
<line x1="587.8" y1="647.0" x2="587.8" y2="620.0" stroke="rgb(0,0,0)"  stroke-width="2.0"/>
<line x1="587.8" y1="620.0" x2="553.2" y2="600.0" stroke="rgb(0,0,0)"  stroke-width="2.0"/>
<line x1="553.2" y1="600.0" x2="553.2" y2="560.0" stroke="rgb(0,0,0)"  stroke-width="2.0"/>
<line x1="553.2" y1="560.0" x2="518.6" y2="540.0" stroke="rgb(0,0,0)"  stroke-width="2.0"/>
<line x1="518.6" y1="540.0" x2="518.6" y2="500.0" stroke="rgb(0,0,0)"  stroke-width="2.0"/>
<line x1="518.6" y1="500.0" x2="483.9" y2="480.0" stroke="rgb(0,0,0)"  stroke-width="2.0"/>
<line x1="483.9" y1="480.0" x2="483.9" y2="440.0" stroke="rgb(0,0,0)"  stroke-width="2.0"/>
<line x1="483.9" y1="440.0" x2="449.3" y2="420.0" stroke="rgb(0,0,0)"  stroke-width="2.0"/>
<line x1="449.3" y1="420.0" x2="425.9" y2="433.5" stroke="rgb(0,0,0)"  stroke-width="2.0"/>
<line x1="403.4" y1="433.5" x2="380.0" y2="420.0" stroke="rgb(0,0,0)"  stroke-width="2.0"/>
<line x1="380.0" y1="420.0" x2="380.0" y2="380.0" stroke="rgb(0,0,0)"  stroke-width="2.0"/>
<line x1="380.0" y1="380.0" x2="340.0" y2="380.0" stroke="rgb(0,0,0)"  stroke-width="2.0"/>
<line x1="340.0" y1="380.0" x2="326.5" y2="356.6" stroke="rgb(0,0,0)"  stroke-width="2.0"/>
<line x1="307.0" y1="345.4" x2="280.0" y2="345.4" stroke="rgb(0,0,0)"  stroke-width="2.0"/>
<line x1="280.0" y1="345.4" x2="260.0" y2="380.0" stroke="rgb(0,0,0)"  stroke-width="2.0"/>
<line x1="260.0" y1="380.0" x2="220.0" y2="380.0" stroke="rgb(0,0,0)"  stroke-width="2.0"/>
<line x1="220.0" y1="380.0" x2="200.0" y2="345.4" stroke="rgb(0,0,0)"  stroke-width="2.0"/>
<line x1="200.0" y1="345.4" x2="160.0" y2="345.4" stroke="rgb(0,0,0)"  stroke-width="2.0"/>
<line x1="160.0" y1="345.4" x2="140.0" y2="310.7" stroke="rgb(0,0,0)"  stroke-width="2.0"/>
<line x1="140.0" y1="310.7" x2="100.0" y2="310.7" stroke="rgb(0,0,0)"  stroke-width="2.0"/>
<line x1="100.0" y1="310.7" x2="80.0" y2="276.1" stroke="rgb(0,0,0)"  stroke-width="2.0"/>
<line x1="80.0" y1="276.1" x2="53.0" y2="276.1" stroke="rgb(0,0,0)"  stroke-width="2.0"/>
<line x1="277.4" y1="346.9" x2="263.9" y2="323.5" stroke="rgb(0,0,0)"  stroke-width="2.0"/>
<line x1="282.6" y1="343.9" x2="269.1" y2="320.5" stroke="rgb(0,0,0)"  stroke-width="2.0"/>
<line x1="380.0" y1="380.0" x2="380.0" y2="340.0" stroke="rgb(0,0,0)"  stroke-width="2.0"/>
<line x1="380.0" y1="340.0" x2="356.6" y2="326.5" stroke="rgb(0,0,0)"  stroke-width="2.0"/>
<line x1="345.4" y1="307.0" x2="345.4" y2="280.0" stroke="rgb(0,0,0)"  stroke-width="2.0"/>
<line x1="345.4" y1="280.0" x2="380.0" y2="260.0" stroke="rgb(0,0,0)"  stroke-width="2.0"/>
<line x1="380.0" y1="260.0" x2="380.0" y2="220.0" stroke="rgb(0,0,0)"  stroke-width="2.0"/>
<line x1="380.0" y1="220.0" x2="414.6" y2="200.0" stroke="rgb(0,0,0)"  stroke-width="2.0"/>
<line x1="414.6" y1="200.0" x2="414.6" y2="160.0" stroke="rgb(0,0,0)"  stroke-width="2.0"/>
<line x1="414.6" y1="160.0" x2="449.3" y2="140.0" stroke="rgb(0,0,0)"  stroke-width="2.0"/>
<line x1="449.3" y1="140.0" x2="449.3" y2="100.0" stroke="rgb(0,0,0)"  stroke-width="2.0"/>
<line x1="449.3" y1="100.0" x2="483.9" y2="80.0" stroke="rgb(0,0,0)"  stroke-width="2.0"/>
<line x1="483.9" y1="80.0" x2="483.9" y2="53.0" stroke="rgb(0,0,0)"  stroke-width="2.0"/>
<line x1="343.9" y1="282.6" x2="320.5" y2="269.1" stroke="rgb(0,0,0)"  stroke-width="2.0"/>
<line x1="346.9" y1="277.4" x2="323.5" y2="263.9" stroke="rgb(0,0,0)"  stroke-width="2.0"/>
<line x1="380.0" y1="380.0" x2="420.0" y2="380.0" stroke="rgb(0,0,0)"  stroke-width="2.0"/>
<line x1="420.0" y1="380.0" x2="433.5" y2="356.6" stroke="rgb(0,0,0)"  stroke-width="2.0"/>
<line x1="453.0" y1="345.4" x2="480.0" y2="345.4" stroke="rgb(0,0,0)"  stroke-width="2.0"/>
<line x1="480.0" y1="345.4" x2="500.0" y2="380.0" stroke="rgb(0,0,0)"  stroke-width="2.0"/>
<line x1="500.0" y1="380.0" x2="540.0" y2="380.0" stroke="rgb(0,0,0)"  stroke-width="2.0"/>
<line x1="540.0" y1="380.0" x2="560.0" y2="414.6" stroke="rgb(0,0,0)"  stroke-width="2.0"/>
<line x1="560.0" y1="414.6" x2="600.0" y2="414.6" stroke="rgb(0,0,0)"  stroke-width="2.0"/>
<line x1="600.0" y1="414.6" x2="620.0" y2="449.3" stroke="rgb(0,0,0)"  stroke-width="2.0"/>
<line x1="620.0" y1="449.3" x2="660.0" y2="449.3" stroke="rgb(0,0,0)"  stroke-width="2.0"/>
<line x1="660.0" y1="449.3" x2="680.0" y2="483.9" stroke="rgb(0,0,0)"  stroke-width="2.0"/>
<line x1="680.0" y1="483.9" x2="707.0" y2="483.9" stroke="rgb(0,0,0)"  stroke-width="2.0"/>
<line x1="477.4" y1="343.9" x2="490.9" y2="320.5" stroke="rgb(0,0,0)"  stroke-width="2.0"/>
<line x1="482.6" y1="346.9" x2="496.1" y2="323.5" stroke="rgb(0,0,0)"  stroke-width="2.0"/>
<line x1="446.3" y1="420.0" x2="446.3" y2="393.0" stroke="rgb(0,0,0)"  stroke-width="2.0"/>
<line x1="452.3" y1="420.0" x2="452.3" y2="393.0" stroke="rgb(0,0,0)"  stroke-width="2.0"/>
<text x="434.000000" y="353.358984" fill="rgb(255,12,12)"  stroke="rgb(255,12,12)" stroke-width="1" font-size="16" >O</text>
<text x="339.358984" y="328.000000" fill="rgb(255,12,12)"  stroke="rgb(255,12,12)" stroke-width="1" font-size="16" >O</text>
<text x="479.923048" y="48.000000" fill="rgb(102,102,102)"  stroke="rgb(102,102,102)" stroke-width="1" font-size="16" >CH</text>
<text x="503.923048" y="51.680000" fill="rgb(102,102,102)"  stroke="rgb(102,102,102)" stroke-width="1" font-size="13" >3</text>
<text x="304.717968" y="268.000000" fill="rgb(255,12,12)"  stroke="rgb(255,12,12)" stroke-width="1" font-size="16" >O</text>
<text x="716.000000" y="491.923048" fill="rgb(102,102,102)"  stroke="rgb(102,102,102)" stroke-width="1" font-size="16" >CH</text>
<text x="740.000000" y="495.603048" fill="rgb(102,102,102)"  stroke="rgb(102,102,102)" stroke-width="1" font-size="13" >3</text>
<text x="494.000000" y="318.717968" fill="rgb(255,12,12)"  stroke="rgb(255,12,12)" stroke-width="1" font-size="16" >O</text>
<text x="443.282032" y="388.000000" fill="rgb(255,12,12)"  stroke="rgb(255,12,12)" stroke-width="1" font-size="16" >O</text>
<text x="408.641016" y="448.000000" fill="rgb(255,12,12)"  stroke="rgb(255,12,12)" stroke-width="1" font-size="16" >O</text>
<text x="583.846097" y="668.000000" fill="rgb(102,102,102)"  stroke="rgb(102,102,102)" stroke-width="1" font-size="16" >CH</text>
<text x="607.846097" y="671.680000" fill="rgb(102,102,102)"  stroke="rgb(102,102,102)" stroke-width="1" font-size="13" >3</text>
<text x="314.000000" y="353.358984" fill="rgb(255,12,12)"  stroke="rgb(255,12,12)" stroke-width="1" font-size="16" >O</text>
<text x="14.000000" y="284.076952" fill="rgb(102,102,102)"  stroke="rgb(102,102,102)" stroke-width="1" font-size="16" >H</text>
<text x="26.000000" y="287.756952" fill="rgb(102,102,102)"  stroke="rgb(102,102,102)" stroke-width="1" font-size="13" >3</text>
<text x="32.500000" y="284.076952" fill="rgb(102,102,102)"  stroke="rgb(102,102,102)" stroke-width="1" font-size="16" >C</text>
<text x="254.000000" y="318.717968" fill="rgb(255,12,12)"  stroke="rgb(255,12,12)" stroke-width="1" font-size="16" >O</text>
</svg>
</g>
<text font-size="18.000000" fill ="black" font-family="sans-serif"
x="10.000000" y="20.000000" ></text>
</svg>
