<?xml version="1.0"?>
<svg version="1.1" id="topsvg"
xmlns="http://www.w3.org/2000/svg" xmlns:xlink="http://www.w3.org/1999/xlink"
xmlns:cml="http://www.xml-cml.org/schema" x="0" y="0" width="200px" height="200px" viewBox="0 0 100 100">
<title> - Open Babel Depiction</title>
<rect x="0" y="0" width="100" height="100" fill="white"/>
<g transform="translate(0,0)">
<svg width="100" height="100" x="0" y="0" viewBox="0 0 281.871 220"
font-family="sans-serif" stroke="rgb(0,0,0)" stroke-width="2"  stroke-linecap="round">
<line x1="96.3" y1="140.0" x2="82.3" y2="140.0" stroke="rgb(0,0,0)"  stroke-width="2.0"/>
<line x1="109.3" y1="153.0" x2="109.3" y2="167.0" stroke="rgb(0,0,0)"  stroke-width="2.0"/>
<line x1="122.3" y1="140.0" x2="136.3" y2="140.0" stroke="rgb(0,0,0)"  stroke-width="2.0"/>
<line x1="109.3" y1="127.0" x2="109.3" y2="100.0" stroke="rgb(0,0,0)"  stroke-width="2.0"/>
<line x1="109.3" y1="100.0" x2="143.9" y2="80.0" stroke="rgb(0,0,0)"  stroke-width="2.0"/>
<line x1="143.9" y1="80.0" x2="178.6" y2="100.0" stroke="rgb(0,0,0)"  stroke-width="2.0"/>
<line x1="173.1" y1="148.5" x2="162.7" y2="157.8" stroke="rgb(0,0,0)"  stroke-width="2.0"/>
<line x1="109.3" y1="100.0" x2="74.6" y2="80.0" stroke="rgb(0,0,0)"  stroke-width="2.0"/>
<line x1="74.6" y1="80.0" x2="74.6" y2="53.0" stroke="rgb(0,0,0)"  stroke-width="2.0"/>
<line x1="76.1" y1="82.6" x2="52.8" y2="96.1" stroke="rgb(0,0,0)"  stroke-width="2.0"/>
<line x1="73.1" y1="77.4" x2="49.8" y2="90.9" stroke="rgb(0,0,0)"  stroke-width="2.0"/>
<line x1="221.9" y1="148.1" x2="235.3" y2="124.9" stroke="rgb(0,0,0)"  stroke-width="2.0"/>
<line x1="218.6" y1="139.3" x2="228.0" y2="123.0" stroke="rgb(0,0,0)"  stroke-width="2.0"/>
<line x1="233.2" y1="103.8" x2="215.1" y2="83.7" stroke="rgb(0,0,0)"  stroke-width="2.0"/>
<line x1="215.1" y1="83.7" x2="178.6" y2="100.0" stroke="rgb(0,0,0)"  stroke-width="2.0"/>
<line x1="212.6" y1="92.7" x2="187.0" y2="104.1" stroke="rgb(0,0,0)"  stroke-width="2.0"/>
<line x1="178.6" y1="100.0" x2="181.4" y2="126.9" stroke="rgb(0,0,0)"  stroke-width="2.0"/>
<line x1="195.5" y1="142.5" x2="221.9" y2="148.1" stroke="rgb(0,0,0)"  stroke-width="2.0"/>
<text x="114.082032" y="135.968000" fill="rgb(12,12,255)"  stroke="rgb(12,12,255)" stroke-width="1" font-size="16" >+</text>
<text x="103.282032" y="148.000000" fill="rgb(12,12,255)"  stroke="rgb(12,12,255)" stroke-width="1" font-size="16" >N</text>
<text x="63.282032" y="148.000000" fill="rgb(191,191,191)"  stroke="rgb(191,191,191)" stroke-width="1" font-size="16" >H</text>
<text x="103.282032" y="188.000000" fill="rgb(191,191,191)"  stroke="rgb(191,191,191)" stroke-width="1" font-size="16" >H</text>
<text x="143.282032" y="148.000000" fill="rgb(191,191,191)"  stroke="rgb(191,191,191)" stroke-width="1" font-size="16" >H</text>
<text x="176.745203" y="147.780876" fill="rgb(12,12,255)"  stroke="rgb(12,12,255)" stroke-width="1" font-size="16" >N</text>
<text x="147.019410" y="174.546100" fill="rgb(191,191,191)"  stroke="rgb(191,191,191)" stroke-width="1" font-size="16" >H</text>
<text x="235.871107" y="121.456327" fill="rgb(12,12,255)"  stroke="rgb(12,12,255)" stroke-width="1" font-size="16" >N</text>
<text x="79.441016" y="25.888000" fill="rgb(255,12,12)"  stroke="rgb(255,12,12)" stroke-width="1" font-size="16" >_</text>
<text x="68.641016" y="48.000000" fill="rgb(255,12,12)"  stroke="rgb(255,12,12)" stroke-width="1" font-size="16" >O</text>
<text x="34.000000" y="108.000000" fill="rgb(255,12,12)"  stroke="rgb(255,12,12)" stroke-width="1" font-size="16" >O</text>
</svg>
</g>
<text font-size="18.000000" fill ="black" font-family="sans-serif"
x="10.000000" y="20.000000" ></text>
</svg>
