<?xml version="1.0"?>
<svg version="1.1" id="topsvg"
xmlns="http://www.w3.org/2000/svg" xmlns:xlink="http://www.w3.org/1999/xlink"
xmlns:cml="http://www.xml-cml.org/schema" x="0" y="0" width="200px" height="200px" viewBox="0 0 100 100">
<title> - Open Babel Depiction</title>
<rect x="0" y="0" width="100" height="100" fill="white"/>
<g transform="translate(0,0)">
<svg width="100" height="100" x="0" y="0" viewBox="0 0 547.654 446.429"
font-family="sans-serif" stroke="rgb(0,0,0)" stroke-width="2"  stroke-linecap="round">
<line x1="471.2" y1="393.4" x2="471.2" y2="380.9" stroke="rgb(0,0,0)"  stroke-width="2.0"/>
<line x1="477.2" y1="393.4" x2="477.2" y2="380.9" stroke="rgb(0,0,0)"  stroke-width="2.0"/>
<line x1="484.0" y1="358.8" x2="494.9" y2="352.5" stroke="rgb(0,0,0)"  stroke-width="2.0"/>
<line x1="487.0" y1="364.0" x2="497.9" y2="357.7" stroke="rgb(0,0,0)"  stroke-width="2.0"/>
<line x1="463.0" y1="361.4" x2="440.8" y2="348.6" stroke="rgb(0,0,0)"  stroke-width="2.0"/>
<line x1="374.0" y1="348.6" x2="351.9" y2="361.4" stroke="rgb(0,0,0)"  stroke-width="2.0"/>
<line x1="327.9" y1="364.0" x2="317.0" y2="357.7" stroke="rgb(0,0,0)"  stroke-width="2.0"/>
<line x1="330.9" y1="358.8" x2="320.0" y2="352.5" stroke="rgb(0,0,0)"  stroke-width="2.0"/>
<line x1="343.6" y1="380.9" x2="343.6" y2="393.4" stroke="rgb(0,0,0)"  stroke-width="2.0"/>
<line x1="337.6" y1="380.9" x2="337.6" y2="393.4" stroke="rgb(0,0,0)"  stroke-width="2.0"/>
<line x1="374.0" y1="310.0" x2="307.2" y2="271.4" stroke="rgb(0,0,0)"  stroke-width="2.0"/>
<line x1="240.4" y1="271.4" x2="173.6" y2="310.0" stroke="rgb(0,0,0)"  stroke-width="2.0"/>
<line x1="140.2" y1="290.7" x2="140.2" y2="265.1" stroke="rgb(0,0,0)"  stroke-width="2.0"/>
<line x1="150.0" y1="243.0" x2="160.9" y2="236.8" stroke="rgb(0,0,0)"  stroke-width="2.0"/>
<line x1="153.0" y1="248.2" x2="163.9" y2="242.0" stroke="rgb(0,0,0)"  stroke-width="2.0"/>
<line x1="127.5" y1="248.2" x2="116.6" y2="242.0" stroke="rgb(0,0,0)"  stroke-width="2.0"/>
<line x1="130.5" y1="243.0" x2="119.6" y2="236.8" stroke="rgb(0,0,0)"  stroke-width="2.0"/>
<line x1="106.8" y1="348.6" x2="84.7" y2="361.4" stroke="rgb(0,0,0)"  stroke-width="2.0"/>
<line x1="60.6" y1="364.0" x2="49.8" y2="357.7" stroke="rgb(0,0,0)"  stroke-width="2.0"/>
<line x1="63.6" y1="358.8" x2="52.8" y2="352.5" stroke="rgb(0,0,0)"  stroke-width="2.0"/>
<line x1="76.4" y1="380.9" x2="76.4" y2="393.4" stroke="rgb(0,0,0)"  stroke-width="2.0"/>
<line x1="70.4" y1="380.9" x2="70.4" y2="393.4" stroke="rgb(0,0,0)"  stroke-width="2.0"/>
<line x1="173.6" y1="348.6" x2="195.8" y2="361.4" stroke="rgb(0,0,0)"  stroke-width="2.0"/>
<line x1="210.0" y1="380.9" x2="210.0" y2="393.4" stroke="rgb(0,0,0)"  stroke-width="2.0"/>
<line x1="204.0" y1="380.9" x2="204.0" y2="393.4" stroke="rgb(0,0,0)"  stroke-width="2.0"/>
<line x1="216.8" y1="358.8" x2="227.7" y2="352.5" stroke="rgb(0,0,0)"  stroke-width="2.0"/>
<line x1="219.8" y1="364.0" x2="230.7" y2="357.7" stroke="rgb(0,0,0)"  stroke-width="2.0"/>
<line x1="273.8" y1="213.6" x2="273.8" y2="175.0" stroke="rgb(0,0,0)"  stroke-width="2.0"/>
<line x1="307.2" y1="155.7" x2="329.4" y2="168.5" stroke="rgb(0,0,0)"  stroke-width="2.0"/>
<line x1="343.6" y1="188.0" x2="343.6" y2="200.6" stroke="rgb(0,0,0)"  stroke-width="2.0"/>
<line x1="337.6" y1="188.0" x2="337.6" y2="200.6" stroke="rgb(0,0,0)"  stroke-width="2.0"/>
<line x1="350.4" y1="165.9" x2="361.3" y2="159.6" stroke="rgb(0,0,0)"  stroke-width="2.0"/>
<line x1="353.4" y1="171.1" x2="364.3" y2="164.8" stroke="rgb(0,0,0)"  stroke-width="2.0"/>
<line x1="273.8" y1="97.9" x2="273.8" y2="72.3" stroke="rgb(0,0,0)"  stroke-width="2.0"/>
<line x1="283.6" y1="50.2" x2="294.5" y2="43.9" stroke="rgb(0,0,0)"  stroke-width="2.0"/>
<line x1="286.6" y1="55.4" x2="297.5" y2="49.1" stroke="rgb(0,0,0)"  stroke-width="2.0"/>
<line x1="261.1" y1="55.4" x2="250.2" y2="49.1" stroke="rgb(0,0,0)"  stroke-width="2.0"/>
<line x1="264.1" y1="50.2" x2="253.2" y2="43.9" stroke="rgb(0,0,0)"  stroke-width="2.0"/>
<line x1="240.4" y1="155.7" x2="218.3" y2="168.5" stroke="rgb(0,0,0)"  stroke-width="2.0"/>
<line x1="194.3" y1="171.1" x2="183.4" y2="164.8" stroke="rgb(0,0,0)"  stroke-width="2.0"/>
<line x1="197.3" y1="165.9" x2="186.4" y2="159.6" stroke="rgb(0,0,0)"  stroke-width="2.0"/>
<line x1="210.0" y1="188.0" x2="210.0" y2="200.6" stroke="rgb(0,0,0)"  stroke-width="2.0"/>
<line x1="204.0" y1="188.0" x2="204.0" y2="200.6" stroke="rgb(0,0,0)"  stroke-width="2.0"/>
<line x1="407.4" y1="290.7" x2="407.4" y2="265.1" stroke="rgb(0,0,0)"  stroke-width="2.0"/>
<line x1="417.2" y1="243.0" x2="428.1" y2="236.8" stroke="rgb(0,0,0)"  stroke-width="2.0"/>
<line x1="420.2" y1="248.2" x2="431.1" y2="242.0" stroke="rgb(0,0,0)"  stroke-width="2.0"/>
<line x1="394.7" y1="248.2" x2="383.8" y2="242.0" stroke="rgb(0,0,0)"  stroke-width="2.0"/>
<line x1="397.7" y1="243.0" x2="386.8" y2="236.8" stroke="rgb(0,0,0)"  stroke-width="2.0"/>
<line x1="407.4" y1="367.9" x2="440.8" y2="348.6" stroke="rgb(0,0,0)"  stroke-width="2.0"/>
<line x1="409.0" y1="358.6" x2="432.0" y2="345.3" stroke="rgb(0,0,0)"  stroke-width="2.0"/>
<line x1="440.8" y1="348.6" x2="440.8" y2="310.0" stroke="rgb(0,0,0)"  stroke-width="2.0"/>
<line x1="440.8" y1="310.0" x2="407.4" y2="290.7" stroke="rgb(0,0,0)"  stroke-width="2.0"/>
<line x1="432.0" y1="313.2" x2="409.0" y2="299.9" stroke="rgb(0,0,0)"  stroke-width="2.0"/>
<line x1="407.4" y1="290.7" x2="374.0" y2="310.0" stroke="rgb(0,0,0)"  stroke-width="2.0"/>
<line x1="374.0" y1="310.0" x2="374.0" y2="348.6" stroke="rgb(0,0,0)"  stroke-width="2.0"/>
<line x1="381.2" y1="316.0" x2="381.2" y2="342.6" stroke="rgb(0,0,0)"  stroke-width="2.0"/>
<line x1="374.0" y1="348.6" x2="407.4" y2="367.9" stroke="rgb(0,0,0)"  stroke-width="2.0"/>
<line x1="284.9" y1="284.3" x2="307.2" y2="271.4" stroke="rgb(0,0,0)"  stroke-width="2.0"/>
<line x1="283.1" y1="277.0" x2="298.4" y2="268.2" stroke="rgb(0,0,0)"  stroke-width="2.0"/>
<line x1="307.2" y1="271.4" x2="307.2" y2="245.9" stroke="rgb(0,0,0)"  stroke-width="2.0"/>
<line x1="296.2" y1="226.5" x2="273.8" y2="213.6" stroke="rgb(0,0,0)"  stroke-width="2.0"/>
<line x1="290.8" y1="231.7" x2="275.4" y2="222.8" stroke="rgb(0,0,0)"  stroke-width="2.0"/>
<line x1="273.8" y1="213.6" x2="251.7" y2="226.4" stroke="rgb(0,0,0)"  stroke-width="2.0"/>
<line x1="240.4" y1="245.6" x2="240.4" y2="271.4" stroke="rgb(0,0,0)"  stroke-width="2.0"/>
<line x1="247.6" y1="247.7" x2="247.6" y2="265.4" stroke="rgb(0,0,0)"  stroke-width="2.0"/>
<line x1="240.4" y1="271.4" x2="262.6" y2="284.2" stroke="rgb(0,0,0)"  stroke-width="2.0"/>
<line x1="140.2" y1="367.9" x2="106.8" y2="348.6" stroke="rgb(0,0,0)"  stroke-width="2.0"/>
<line x1="138.6" y1="358.6" x2="115.6" y2="345.3" stroke="rgb(0,0,0)"  stroke-width="2.0"/>
<line x1="106.8" y1="348.6" x2="106.8" y2="310.0" stroke="rgb(0,0,0)"  stroke-width="2.0"/>
<line x1="106.8" y1="310.0" x2="140.2" y2="290.7" stroke="rgb(0,0,0)"  stroke-width="2.0"/>
<line x1="115.6" y1="313.2" x2="138.6" y2="299.9" stroke="rgb(0,0,0)"  stroke-width="2.0"/>
<line x1="140.2" y1="290.7" x2="173.6" y2="310.0" stroke="rgb(0,0,0)"  stroke-width="2.0"/>
<line x1="173.6" y1="310.0" x2="173.6" y2="348.6" stroke="rgb(0,0,0)"  stroke-width="2.0"/>
<line x1="166.4" y1="316.0" x2="166.4" y2="342.6" stroke="rgb(0,0,0)"  stroke-width="2.0"/>
<line x1="173.6" y1="348.6" x2="140.2" y2="367.9" stroke="rgb(0,0,0)"  stroke-width="2.0"/>
<line x1="240.4" y1="117.1" x2="273.8" y2="97.9" stroke="rgb(0,0,0)"  stroke-width="2.0"/>
<line x1="249.2" y1="120.4" x2="272.2" y2="107.1" stroke="rgb(0,0,0)"  stroke-width="2.0"/>
<line x1="273.8" y1="97.9" x2="307.2" y2="117.1" stroke="rgb(0,0,0)"  stroke-width="2.0"/>
<line x1="307.2" y1="117.1" x2="307.2" y2="155.7" stroke="rgb(0,0,0)"  stroke-width="2.0"/>
<line x1="300.0" y1="123.1" x2="300.0" y2="149.7" stroke="rgb(0,0,0)"  stroke-width="2.0"/>
<line x1="307.2" y1="155.7" x2="273.8" y2="175.0" stroke="rgb(0,0,0)"  stroke-width="2.0"/>
<line x1="273.8" y1="175.0" x2="240.4" y2="155.7" stroke="rgb(0,0,0)"  stroke-width="2.0"/>
<line x1="272.2" y1="165.8" x2="249.2" y2="152.5" stroke="rgb(0,0,0)"  stroke-width="2.0"/>
<line x1="240.4" y1="155.7" x2="240.4" y2="117.1" stroke="rgb(0,0,0)"  stroke-width="2.0"/>
<text x="100.807674" y="240.857143" fill="rgb(255,12,12)"  stroke="rgb(255,12,12)" stroke-width="1" font-size="16" >O</text>
<text x="67.403837" y="375.857143" fill="rgb(12,12,255)"  stroke="rgb(12,12,255)" stroke-width="1" font-size="16" >N</text>
<text x="34.000000" y="356.571429" fill="rgb(255,12,12)"  stroke="rgb(255,12,12)" stroke-width="1" font-size="16" >O</text>
<text x="67.403837" y="414.428571" fill="rgb(255,12,12)"  stroke="rgb(255,12,12)" stroke-width="1" font-size="16" >O</text>
<text x="201.019185" y="375.857143" fill="rgb(12,12,255)"  stroke="rgb(12,12,255)" stroke-width="1" font-size="16" >N</text>
<text x="201.019185" y="414.428571" fill="rgb(255,12,12)"  stroke="rgb(255,12,12)" stroke-width="1" font-size="16" >O</text>
<text x="234.423022" y="356.571429" fill="rgb(255,12,12)"  stroke="rgb(255,12,12)" stroke-width="1" font-size="16" >O</text>
<text x="167.615348" y="240.857143" fill="rgb(255,12,12)"  stroke="rgb(255,12,12)" stroke-width="1" font-size="16" >O</text>
<text x="334.634533" y="183.000000" fill="rgb(12,12,255)"  stroke="rgb(12,12,255)" stroke-width="1" font-size="16" >N</text>
<text x="334.634533" y="221.571429" fill="rgb(255,12,12)"  stroke="rgb(255,12,12)" stroke-width="1" font-size="16" >O</text>
<text x="368.038370" y="163.714286" fill="rgb(255,12,12)"  stroke="rgb(255,12,12)" stroke-width="1" font-size="16" >O</text>
<text x="267.826859" y="67.285714" fill="rgb(12,12,255)"  stroke="rgb(12,12,255)" stroke-width="1" font-size="16" >N</text>
<text x="301.230696" y="48.000000" fill="rgb(255,12,12)"  stroke="rgb(255,12,12)" stroke-width="1" font-size="16" >O</text>
<text x="234.423022" y="48.000000" fill="rgb(255,12,12)"  stroke="rgb(255,12,12)" stroke-width="1" font-size="16" >O</text>
<text x="201.019185" y="183.000000" fill="rgb(12,12,255)"  stroke="rgb(12,12,255)" stroke-width="1" font-size="16" >N</text>
<text x="167.615348" y="163.714286" fill="rgb(255,12,12)"  stroke="rgb(255,12,12)" stroke-width="1" font-size="16" >O</text>
<text x="201.019185" y="221.571429" fill="rgb(255,12,12)"  stroke="rgb(255,12,12)" stroke-width="1" font-size="16" >O</text>
<text x="401.442207" y="260.142857" fill="rgb(12,12,255)"  stroke="rgb(12,12,255)" stroke-width="1" font-size="16" >N</text>
<text x="434.846044" y="240.857143" fill="rgb(255,12,12)"  stroke="rgb(255,12,12)" stroke-width="1" font-size="16" >O</text>
<text x="368.038370" y="240.857143" fill="rgb(255,12,12)"  stroke="rgb(255,12,12)" stroke-width="1" font-size="16" >O</text>
<text x="267.826859" y="298.714286" fill="rgb(12,12,255)"  stroke="rgb(12,12,255)" stroke-width="1" font-size="16" >N</text>
<text x="468.249881" y="375.857143" fill="rgb(12,12,255)"  stroke="rgb(12,12,255)" stroke-width="1" font-size="16" >N</text>
<text x="501.653718" y="356.571429" fill="rgb(255,12,12)"  stroke="rgb(255,12,12)" stroke-width="1" font-size="16" >O</text>
<text x="334.634533" y="375.857143" fill="rgb(12,12,255)"  stroke="rgb(12,12,255)" stroke-width="1" font-size="16" >N</text>
<text x="301.230696" y="356.571429" fill="rgb(255,12,12)"  stroke="rgb(255,12,12)" stroke-width="1" font-size="16" >O</text>
<text x="334.634533" y="414.428571" fill="rgb(255,12,12)"  stroke="rgb(255,12,12)" stroke-width="1" font-size="16" >O</text>
<text x="468.249881" y="414.428571" fill="rgb(255,12,12)"  stroke="rgb(255,12,12)" stroke-width="1" font-size="16" >O</text>
<text x="301.230696" y="240.857143" fill="rgb(12,12,255)"  stroke="rgb(12,12,255)" stroke-width="1" font-size="16" >N</text>
<text x="234.423022" y="240.857143" fill="rgb(12,12,255)"  stroke="rgb(12,12,255)" stroke-width="1" font-size="16" >N</text>
<text x="134.211511" y="260.142857" fill="rgb(12,12,255)"  stroke="rgb(12,12,255)" stroke-width="1" font-size="16" >N</text>
</svg>
</g>
<text font-size="18.000000" fill ="black" font-family="sans-serif"
x="10.000000" y="20.000000" ></text>
</svg>
