<?xml version="1.0"?>
<svg version="1.1" id="topsvg"
xmlns="http://www.w3.org/2000/svg" xmlns:xlink="http://www.w3.org/1999/xlink"
xmlns:cml="http://www.xml-cml.org/schema" x="0" y="0" width="200px" height="200px" viewBox="0 0 100 100">
<title> - Open Babel Depiction</title>
<rect x="0" y="0" width="100" height="100" fill="white"/>
<g transform="translate(0,0)">
<svg width="100" height="100" x="0" y="0" viewBox="0 0 589.158 577.624"
font-family="sans-serif" stroke="rgb(0,0,0)" stroke-width="2"  stroke-linecap="round">
<line x1="536.3" y1="277.5" x2="509.2" y2="280.9" stroke="rgb(0,0,0)"  stroke-width="2.0"/>
<line x1="429.2" y1="290.8" x2="389.0" y2="290.8" stroke="rgb(0,0,0)"  stroke-width="2.0"/>
<line x1="319.3" y1="316.5" x2="309.6" y2="306.7" stroke="rgb(0,0,0)"  stroke-width="2.0"/>
<line x1="293.6" y1="386.1" x2="293.6" y2="426.3" stroke="rgb(0,0,0)"  stroke-width="2.0"/>
<line x1="325.0" y1="500.5" x2="335.7" y2="525.7" stroke="rgb(0,0,0)"  stroke-width="2.0"/>
<line x1="198.3" y1="290.8" x2="158.0" y2="290.8" stroke="rgb(0,0,0)"  stroke-width="2.0"/>
<line x1="79.3" y1="273.5" x2="52.7" y2="267.7" stroke="rgb(0,0,0)"  stroke-width="2.0"/>
<line x1="267.9" y1="265.0" x2="277.8" y2="274.9" stroke="rgb(0,0,0)"  stroke-width="2.0"/>
<line x1="293.6" y1="195.4" x2="293.6" y2="155.2" stroke="rgb(0,0,0)"  stroke-width="2.0"/>
<line x1="318.1" y1="78.4" x2="326.3" y2="52.4" stroke="rgb(0,0,0)"  stroke-width="2.0"/>
<line x1="368.8" y1="325.6" x2="341.5" y2="325.6" stroke="rgb(0,0,0)"  stroke-width="2.0"/>
<line x1="328.5" y1="338.6" x2="328.5" y2="365.9" stroke="rgb(0,0,0)"  stroke-width="2.0"/>
<line x1="328.5" y1="365.9" x2="363.4" y2="386.1" stroke="rgb(0,0,0)"  stroke-width="2.0"/>
<line x1="363.4" y1="386.1" x2="389.0" y2="360.5" stroke="rgb(0,0,0)"  stroke-width="2.0"/>
<line x1="362.6" y1="376.7" x2="379.6" y2="359.7" stroke="rgb(0,0,0)"  stroke-width="2.0"/>
<line x1="389.0" y1="360.5" x2="368.8" y2="325.6" stroke="rgb(0,0,0)"  stroke-width="2.0"/>
<line x1="218.5" y1="255.9" x2="198.3" y2="221.0" stroke="rgb(0,0,0)"  stroke-width="2.0"/>
<line x1="221.7" y1="247.1" x2="207.6" y2="222.6" stroke="rgb(0,0,0)"  stroke-width="2.0"/>
<line x1="198.3" y1="221.0" x2="223.9" y2="195.4" stroke="rgb(0,0,0)"  stroke-width="2.0"/>
<line x1="223.9" y1="195.4" x2="258.7" y2="215.6" stroke="rgb(0,0,0)"  stroke-width="2.0"/>
<line x1="225.5" y1="204.7" x2="249.9" y2="218.8" stroke="rgb(0,0,0)"  stroke-width="2.0"/>
<line x1="258.7" y1="215.6" x2="258.7" y2="242.9" stroke="rgb(0,0,0)"  stroke-width="2.0"/>
<line x1="245.7" y1="255.9" x2="218.5" y2="255.9" stroke="rgb(0,0,0)"  stroke-width="2.0"/>
<line x1="453.5" y1="322.9" x2="429.2" y2="290.8" stroke="rgb(0,0,0)"  stroke-width="2.0"/>
<line x1="455.6" y1="313.8" x2="438.6" y2="291.2" stroke="rgb(0,0,0)"  stroke-width="2.0"/>
<line x1="429.2" y1="290.8" x2="444.9" y2="253.7" stroke="rgb(0,0,0)"  stroke-width="2.0"/>
<line x1="444.9" y1="253.7" x2="484.9" y2="248.7" stroke="rgb(0,0,0)"  stroke-width="2.0"/>
<line x1="451.8" y1="260.1" x2="479.8" y2="256.6" stroke="rgb(0,0,0)"  stroke-width="2.0"/>
<line x1="484.9" y1="248.7" x2="509.2" y2="280.9" stroke="rgb(0,0,0)"  stroke-width="2.0"/>
<line x1="509.2" y1="280.9" x2="493.5" y2="318.0" stroke="rgb(0,0,0)"  stroke-width="2.0"/>
<line x1="500.2" y1="283.6" x2="489.2" y2="309.6" stroke="rgb(0,0,0)"  stroke-width="2.0"/>
<line x1="493.5" y1="318.0" x2="453.5" y2="322.9" stroke="rgb(0,0,0)"  stroke-width="2.0"/>
<line x1="333.6" y1="431.3" x2="293.6" y2="426.3" stroke="rgb(0,0,0)"  stroke-width="2.0"/>
<line x1="326.8" y1="437.7" x2="298.7" y2="434.2" stroke="rgb(0,0,0)"  stroke-width="2.0"/>
<line x1="293.6" y1="426.3" x2="269.4" y2="458.5" stroke="rgb(0,0,0)"  stroke-width="2.0"/>
<line x1="269.4" y1="458.5" x2="285.1" y2="495.6" stroke="rgb(0,0,0)"  stroke-width="2.0"/>
<line x1="278.3" y1="461.2" x2="289.3" y2="487.2" stroke="rgb(0,0,0)"  stroke-width="2.0"/>
<line x1="285.1" y1="495.6" x2="325.0" y2="500.5" stroke="rgb(0,0,0)"  stroke-width="2.0"/>
<line x1="325.0" y1="500.5" x2="349.3" y2="468.4" stroke="rgb(0,0,0)"  stroke-width="2.0"/>
<line x1="322.9" y1="491.4" x2="339.9" y2="468.8" stroke="rgb(0,0,0)"  stroke-width="2.0"/>
<line x1="349.3" y1="468.4" x2="333.6" y2="431.3" stroke="rgb(0,0,0)"  stroke-width="2.0"/>
<line x1="130.9" y1="320.5" x2="158.0" y2="290.8" stroke="rgb(0,0,0)"  stroke-width="2.0"/>
<line x1="129.6" y1="311.2" x2="148.7" y2="290.3" stroke="rgb(0,0,0)"  stroke-width="2.0"/>
<line x1="158.0" y1="290.8" x2="145.8" y2="252.4" stroke="rgb(0,0,0)"  stroke-width="2.0"/>
<line x1="145.8" y1="252.4" x2="106.5" y2="243.8" stroke="rgb(0,0,0)"  stroke-width="2.0"/>
<line x1="138.4" y1="258.1" x2="110.8" y2="252.1" stroke="rgb(0,0,0)"  stroke-width="2.0"/>
<line x1="106.5" y1="243.8" x2="79.3" y2="273.5" stroke="rgb(0,0,0)"  stroke-width="2.0"/>
<line x1="79.3" y1="273.5" x2="91.6" y2="311.9" stroke="rgb(0,0,0)"  stroke-width="2.0"/>
<line x1="88.0" y1="277.1" x2="96.6" y2="304.0" stroke="rgb(0,0,0)"  stroke-width="2.0"/>
<line x1="91.6" y1="311.9" x2="130.9" y2="320.5" stroke="rgb(0,0,0)"  stroke-width="2.0"/>
<line x1="266.5" y1="125.4" x2="293.6" y2="155.2" stroke="rgb(0,0,0)"  stroke-width="2.0"/>
<line x1="275.9" y1="125.0" x2="294.9" y2="145.9" stroke="rgb(0,0,0)"  stroke-width="2.0"/>
<line x1="293.6" y1="155.2" x2="333.0" y2="146.5" stroke="rgb(0,0,0)"  stroke-width="2.0"/>
<line x1="333.0" y1="146.5" x2="345.2" y2="108.2" stroke="rgb(0,0,0)"  stroke-width="2.0"/>
<line x1="327.9" y1="138.6" x2="336.5" y2="111.7" stroke="rgb(0,0,0)"  stroke-width="2.0"/>
<line x1="345.2" y1="108.2" x2="318.1" y2="78.4" stroke="rgb(0,0,0)"  stroke-width="2.0"/>
<line x1="318.1" y1="78.4" x2="278.7" y2="87.0" stroke="rgb(0,0,0)"  stroke-width="2.0"/>
<line x1="313.7" y1="86.7" x2="286.1" y2="92.8" stroke="rgb(0,0,0)"  stroke-width="2.0"/>
<line x1="278.7" y1="87.0" x2="266.5" y2="125.4" stroke="rgb(0,0,0)"  stroke-width="2.0"/>
<line x1="258.7" y1="365.9" x2="258.7" y2="338.9" stroke="rgb(0,0,0)"  stroke-width="2.0"/>
<line x1="251.5" y1="359.9" x2="251.5" y2="340.9" stroke="rgb(0,0,0)"  stroke-width="2.0"/>
<line x1="245.7" y1="325.6" x2="218.5" y2="325.6" stroke="rgb(0,0,0)"  stroke-width="2.0"/>
<line x1="218.5" y1="325.6" x2="198.3" y2="360.5" stroke="rgb(0,0,0)"  stroke-width="2.0"/>
<line x1="198.3" y1="360.5" x2="223.9" y2="386.1" stroke="rgb(0,0,0)"  stroke-width="2.0"/>
<line x1="207.7" y1="359.7" x2="224.7" y2="376.7" stroke="rgb(0,0,0)"  stroke-width="2.0"/>
<line x1="223.9" y1="386.1" x2="258.7" y2="365.9" stroke="rgb(0,0,0)"  stroke-width="2.0"/>
<line x1="328.5" y1="215.6" x2="328.5" y2="242.9" stroke="rgb(0,0,0)"  stroke-width="2.0"/>
<line x1="341.8" y1="255.9" x2="368.8" y2="255.9" stroke="rgb(0,0,0)"  stroke-width="2.0"/>
<line x1="343.8" y1="248.7" x2="362.8" y2="248.7" stroke="rgb(0,0,0)"  stroke-width="2.0"/>
<line x1="368.8" y1="255.9" x2="389.0" y2="221.0" stroke="rgb(0,0,0)"  stroke-width="2.0"/>
<line x1="389.0" y1="221.0" x2="363.4" y2="195.4" stroke="rgb(0,0,0)"  stroke-width="2.0"/>
<line x1="379.6" y1="221.8" x2="362.6" y2="204.8" stroke="rgb(0,0,0)"  stroke-width="2.0"/>
<line x1="363.4" y1="195.4" x2="328.5" y2="215.6" stroke="rgb(0,0,0)"  stroke-width="2.0"/>
<line x1="328.5" y1="365.9" x2="293.6" y2="386.1" stroke="rgb(0,0,0)"  stroke-width="2.0"/>
<line x1="319.7" y1="362.7" x2="295.2" y2="376.8" stroke="rgb(0,0,0)"  stroke-width="2.0"/>
<line x1="293.6" y1="386.1" x2="258.7" y2="365.9" stroke="rgb(0,0,0)"  stroke-width="2.0"/>
<line x1="218.5" y1="325.6" x2="198.3" y2="290.8" stroke="rgb(0,0,0)"  stroke-width="2.0"/>
<line x1="221.7" y1="316.9" x2="207.6" y2="292.4" stroke="rgb(0,0,0)"  stroke-width="2.0"/>
<line x1="198.3" y1="290.8" x2="218.5" y2="255.9" stroke="rgb(0,0,0)"  stroke-width="2.0"/>
<line x1="258.7" y1="215.6" x2="293.6" y2="195.4" stroke="rgb(0,0,0)"  stroke-width="2.0"/>
<line x1="293.6" y1="195.4" x2="328.5" y2="215.6" stroke="rgb(0,0,0)"  stroke-width="2.0"/>
<line x1="295.2" y1="204.7" x2="319.7" y2="218.8" stroke="rgb(0,0,0)"  stroke-width="2.0"/>
<line x1="368.8" y1="255.9" x2="389.0" y2="290.8" stroke="rgb(0,0,0)"  stroke-width="2.0"/>
<line x1="389.0" y1="290.8" x2="368.8" y2="325.6" stroke="rgb(0,0,0)"  stroke-width="2.0"/>
<line x1="379.7" y1="292.4" x2="365.6" y2="316.9" stroke="rgb(0,0,0)"  stroke-width="2.0"/>
<text x="22.000000" y="272.924311" fill="rgb(30,239,30)"  stroke="rgb(30,239,30)" stroke-width="1" font-size="16" >Cl</text>
<text x="252.742012" y="263.850102" fill="rgb(12,12,255)"  stroke="rgb(12,12,255)" stroke-width="1" font-size="16" >N</text>
<text x="280.996929" y="292.105018" fill="rgb(191,191,191)"  stroke="rgb(191,191,191)" stroke-width="1" font-size="16" >H</text>
<text x="324.263417" y="48.000000" fill="rgb(30,239,30)"  stroke="rgb(30,239,30)" stroke-width="1" font-size="16" >Cl</text>
<text x="322.518490" y="263.850102" fill="rgb(12,12,255)"  stroke="rgb(12,12,255)" stroke-width="1" font-size="16" >N</text>
<text x="322.518490" y="333.645644" fill="rgb(12,12,255)"  stroke="rgb(12,12,255)" stroke-width="1" font-size="16" >N</text>
<text x="294.361950" y="305.489105" fill="rgb(191,191,191)"  stroke="rgb(191,191,191)" stroke-width="1" font-size="16" >H</text>
<text x="543.158265" y="283.907504" fill="rgb(30,239,30)"  stroke="rgb(30,239,30)" stroke-width="1" font-size="16" >Cl</text>
<text x="334.732229" y="545.624436" fill="rgb(30,239,30)"  stroke="rgb(30,239,30)" stroke-width="1" font-size="16" >Cl</text>
<text x="252.742012" y="333.645644" fill="rgb(12,12,255)"  stroke="rgb(12,12,255)" stroke-width="1" font-size="16" >N</text>
</svg>
</g>
<text font-size="18.000000" fill ="black" font-family="sans-serif"
x="10.000000" y="20.000000" ></text>
</svg>
