<?xml version="1.0"?>
<svg version="1.1" id="topsvg"
xmlns="http://www.w3.org/2000/svg" xmlns:xlink="http://www.w3.org/1999/xlink"
xmlns:cml="http://www.xml-cml.org/schema" x="0" y="0" width="200px" height="200px" viewBox="0 0 100 100">
<title> - Open Babel Depiction</title>
<rect x="0" y="0" width="100" height="100" fill="white"/>
<g transform="translate(0,0)">
<svg width="100" height="100" x="0" y="0" viewBox="0 0 427.457 279.909"
font-family="sans-serif" stroke="rgb(0,0,0)" stroke-width="2"  stroke-linecap="round">
<line x1="40.3" y1="159.7" x2="75.0" y2="179.4" stroke="rgb(0,0,0)"  stroke-width="2.0"/>
<line x1="75.0" y1="179.4" x2="109.4" y2="159.2" stroke="rgb(0,0,0)"  stroke-width="2.0"/>
<line x1="76.5" y1="170.2" x2="100.6" y2="156.0" stroke="rgb(0,0,0)"  stroke-width="2.0"/>
<line x1="109.4" y1="159.2" x2="109.1" y2="119.3" stroke="rgb(0,0,0)"  stroke-width="2.0"/>
<line x1="109.1" y1="119.3" x2="74.4" y2="99.6" stroke="rgb(0,0,0)"  stroke-width="2.0"/>
<line x1="100.4" y1="122.6" x2="76.1" y2="108.8" stroke="rgb(0,0,0)"  stroke-width="2.0"/>
<line x1="74.4" y1="99.6" x2="40.0" y2="119.8" stroke="rgb(0,0,0)"  stroke-width="2.0"/>
<line x1="40.0" y1="119.8" x2="40.3" y2="159.7" stroke="rgb(0,0,0)"  stroke-width="2.0"/>
<line x1="47.2" y1="125.8" x2="47.5" y2="153.7" stroke="rgb(0,0,0)"  stroke-width="2.0"/>
<line x1="387.2" y1="120.2" x2="352.4" y2="100.5" stroke="rgb(0,0,0)"  stroke-width="2.0"/>
<line x1="352.4" y1="100.5" x2="318.0" y2="120.7" stroke="rgb(0,0,0)"  stroke-width="2.0"/>
<line x1="350.9" y1="109.7" x2="326.8" y2="123.9" stroke="rgb(0,0,0)"  stroke-width="2.0"/>
<line x1="318.0" y1="120.7" x2="318.3" y2="160.6" stroke="rgb(0,0,0)"  stroke-width="2.0"/>
<line x1="318.3" y1="160.6" x2="353.0" y2="180.3" stroke="rgb(0,0,0)"  stroke-width="2.0"/>
<line x1="327.1" y1="157.3" x2="351.4" y2="171.1" stroke="rgb(0,0,0)"  stroke-width="2.0"/>
<line x1="353.0" y1="180.3" x2="387.5" y2="160.1" stroke="rgb(0,0,0)"  stroke-width="2.0"/>
<line x1="387.5" y1="160.1" x2="387.2" y2="120.2" stroke="rgb(0,0,0)"  stroke-width="2.0"/>
<line x1="380.2" y1="154.2" x2="380.0" y2="126.2" stroke="rgb(0,0,0)"  stroke-width="2.0"/>
<line x1="143.5" y1="59.7" x2="143.7" y2="86.6" stroke="rgb(0,0,0)"  stroke-width="2.0"/>
<line x1="132.5" y1="106.0" x2="109.1" y2="119.3" stroke="rgb(0,0,0)"  stroke-width="2.0"/>
<line x1="109.4" y1="159.2" x2="133.1" y2="172.9" stroke="rgb(0,0,0)"  stroke-width="2.0"/>
<line x1="144.5" y1="192.4" x2="144.6" y2="219.3" stroke="rgb(0,0,0)"  stroke-width="2.0"/>
<line x1="144.6" y1="219.3" x2="179.6" y2="239.4" stroke="rgb(0,0,0)"  stroke-width="2.0"/>
<line x1="179.6" y1="239.4" x2="203.0" y2="226.2" stroke="rgb(0,0,0)"  stroke-width="2.0"/>
<line x1="225.5" y1="226.2" x2="249.2" y2="239.9" stroke="rgb(0,0,0)"  stroke-width="2.0"/>
<line x1="249.2" y1="239.9" x2="283.9" y2="220.2" stroke="rgb(0,0,0)"  stroke-width="2.0"/>
<line x1="283.9" y1="220.2" x2="283.7" y2="193.3" stroke="rgb(0,0,0)"  stroke-width="2.0"/>
<line x1="294.9" y1="173.9" x2="318.3" y2="160.6" stroke="rgb(0,0,0)"  stroke-width="2.0"/>
<line x1="318.0" y1="120.7" x2="294.4" y2="107.0" stroke="rgb(0,0,0)"  stroke-width="2.0"/>
<line x1="283.0" y1="87.5" x2="282.8" y2="60.6" stroke="rgb(0,0,0)"  stroke-width="2.0"/>
<line x1="282.8" y1="60.6" x2="247.9" y2="40.5" stroke="rgb(0,0,0)"  stroke-width="2.0"/>
<line x1="247.9" y1="40.5" x2="224.5" y2="53.7" stroke="rgb(0,0,0)"  stroke-width="2.0"/>
<line x1="201.9" y1="53.7" x2="178.3" y2="40.0" stroke="rgb(0,0,0)"  stroke-width="2.0"/>
<line x1="178.3" y1="40.0" x2="143.5" y2="59.7" stroke="rgb(0,0,0)"  stroke-width="2.0"/>
<text x="208.281030" y="227.747088" fill="rgb(255,12,12)"  stroke="rgb(255,12,12)" stroke-width="1" font-size="16" >O</text>
<text x="277.107273" y="108.536537" fill="rgb(255,12,12)"  stroke="rgb(255,12,12)" stroke-width="1" font-size="16" >O</text>
<text x="277.620298" y="188.294512" fill="rgb(255,12,12)"  stroke="rgb(255,12,12)" stroke-width="1" font-size="16" >O</text>
<text x="207.193781" y="68.171963" fill="rgb(255,12,12)"  stroke="rgb(255,12,12)" stroke-width="1" font-size="16" >O</text>
<text x="138.367537" y="187.382514" fill="rgb(255,12,12)"  stroke="rgb(255,12,12)" stroke-width="1" font-size="16" >O</text>
<text x="137.846955" y="107.596335" fill="rgb(255,12,12)"  stroke="rgb(255,12,12)" stroke-width="1" font-size="16" >O</text>
</svg>
</g>
<text font-size="18.000000" fill ="black" font-family="sans-serif"
x="10.000000" y="20.000000" ></text>
</svg>
