<?xml version="1.0"?>
<svg version="1.1" id="topsvg"
xmlns="http://www.w3.org/2000/svg" xmlns:xlink="http://www.w3.org/1999/xlink"
xmlns:cml="http://www.xml-cml.org/schema" x="0" y="0" width="200px" height="200px" viewBox="0 0 100 100">
<title> - Open Babel Depiction</title>
<rect x="0" y="0" width="100" height="100" fill="white"/>
<g transform="translate(0,0)">
<svg width="100" height="100" x="0" y="0" viewBox="0 0 401.554 253.205"
font-family="sans-serif" stroke="rgb(0,0,0)" stroke-width="2"  stroke-linecap="round">
<line x1="215.1" y1="51.3" x2="201.6" y2="74.6" stroke="rgb(0,0,0)"  stroke-width="2.0"/>
<line x1="201.6" y1="77.6" x2="174.6" y2="77.6" stroke="rgb(0,0,0)"  stroke-width="2.0"/>
<line x1="201.6" y1="71.6" x2="174.6" y2="71.6" stroke="rgb(0,0,0)"  stroke-width="2.0"/>
<line x1="201.6" y1="74.6" x2="221.6" y2="109.3" stroke="rgb(0,0,0)"  stroke-width="2.0"/>
<line x1="261.6" y1="178.6" x2="275.1" y2="201.9" stroke="rgb(0,0,0)"  stroke-width="2.0"/>
<line x1="201.6" y1="143.9" x2="174.6" y2="143.9" stroke="rgb(0,0,0)"  stroke-width="2.0"/>
<line x1="155.1" y1="155.2" x2="141.6" y2="178.6" stroke="rgb(0,0,0)"  stroke-width="2.0"/>
<line x1="141.6" y1="178.6" x2="101.6" y2="178.6" stroke="rgb(0,0,0)"  stroke-width="2.0"/>
<line x1="281.6" y1="143.9" x2="308.6" y2="143.9" stroke="rgb(0,0,0)"  stroke-width="2.0"/>
<line x1="324.6" y1="156.9" x2="324.6" y2="170.9" stroke="rgb(0,0,0)"  stroke-width="2.0"/>
<line x1="318.6" y1="156.9" x2="318.6" y2="170.9" stroke="rgb(0,0,0)"  stroke-width="2.0"/>
<line x1="334.6" y1="140.9" x2="348.6" y2="140.9" stroke="rgb(0,0,0)"  stroke-width="2.0"/>
<line x1="334.6" y1="146.9" x2="348.6" y2="146.9" stroke="rgb(0,0,0)"  stroke-width="2.0"/>
<line x1="321.6" y1="130.9" x2="321.6" y2="116.9" stroke="rgb(0,0,0)"  stroke-width="2.0"/>
<line x1="40.0" y1="198.6" x2="40.0" y2="158.6" stroke="rgb(0,0,0)"  stroke-width="2.0"/>
<line x1="47.2" y1="192.6" x2="47.2" y2="164.6" stroke="rgb(0,0,0)"  stroke-width="2.0"/>
<line x1="40.0" y1="158.6" x2="78.0" y2="146.2" stroke="rgb(0,0,0)"  stroke-width="2.0"/>
<line x1="78.0" y1="146.2" x2="101.6" y2="178.6" stroke="rgb(0,0,0)"  stroke-width="2.0"/>
<line x1="75.7" y1="155.3" x2="92.2" y2="177.9" stroke="rgb(0,0,0)"  stroke-width="2.0"/>
<line x1="101.6" y1="178.6" x2="85.7" y2="200.4" stroke="rgb(0,0,0)"  stroke-width="2.0"/>
<line x1="65.7" y1="206.9" x2="40.0" y2="198.6" stroke="rgb(0,0,0)"  stroke-width="2.0"/>
<line x1="281.6" y1="143.9" x2="261.6" y2="178.6" stroke="rgb(0,0,0)"  stroke-width="2.0"/>
<line x1="272.3" y1="145.5" x2="258.3" y2="169.8" stroke="rgb(0,0,0)"  stroke-width="2.0"/>
<line x1="261.6" y1="178.6" x2="221.6" y2="178.6" stroke="rgb(0,0,0)"  stroke-width="2.0"/>
<line x1="221.6" y1="178.6" x2="201.6" y2="143.9" stroke="rgb(0,0,0)"  stroke-width="2.0"/>
<line x1="224.8" y1="169.8" x2="210.8" y2="145.5" stroke="rgb(0,0,0)"  stroke-width="2.0"/>
<line x1="201.6" y1="143.9" x2="221.6" y2="109.3" stroke="rgb(0,0,0)"  stroke-width="2.0"/>
<line x1="221.6" y1="109.3" x2="261.6" y2="109.3" stroke="rgb(0,0,0)"  stroke-width="2.0"/>
<line x1="227.6" y1="116.5" x2="255.6" y2="116.5" stroke="rgb(0,0,0)"  stroke-width="2.0"/>
<line x1="261.6" y1="109.3" x2="281.6" y2="143.9" stroke="rgb(0,0,0)"  stroke-width="2.0"/>
<text x="155.553671" y="151.923048" fill="rgb(12,12,255)"  stroke="rgb(12,12,255)" stroke-width="1" font-size="16" >N</text>
<text x="155.553671" y="135.923048" fill="rgb(12,12,255)"  stroke="rgb(12,12,255)" stroke-width="1" font-size="16" >H</text>
<text x="317.553671" y="111.923048" fill="rgb(12,12,255)"  stroke="rgb(12,12,255)" stroke-width="1" font-size="16" >NH</text>
<text x="341.553671" y="115.603048" fill="rgb(12,12,255)"  stroke="rgb(12,12,255)" stroke-width="1" font-size="13" >2</text>
<text x="355.553671" y="151.923048" fill="rgb(255,12,12)"  stroke="rgb(255,12,12)" stroke-width="1" font-size="16" >O</text>
<text x="315.553671" y="191.923048" fill="rgb(255,12,12)"  stroke="rgb(255,12,12)" stroke-width="1" font-size="16" >O</text>
<text x="315.553671" y="151.923048" fill="rgb(178,178,0)"  stroke="rgb(178,178,0)" stroke-width="1" font-size="16" >S</text>
<text x="72.042261" y="218.924744" fill="rgb(255,12,12)"  stroke="rgb(255,12,12)" stroke-width="1" font-size="16" >O</text>
<text x="215.553671" y="48.000000" fill="rgb(255,12,12)"  stroke="rgb(255,12,12)" stroke-width="1" font-size="16" >OH</text>
<text x="275.553671" y="221.205081" fill="rgb(30,239,30)"  stroke="rgb(30,239,30)" stroke-width="1" font-size="16" >Cl</text>
<text x="155.553671" y="82.641016" fill="rgb(255,12,12)"  stroke="rgb(255,12,12)" stroke-width="1" font-size="16" >O</text>
</svg>
</g>
<text font-size="18.000000" fill ="black" font-family="sans-serif"
x="10.000000" y="20.000000" ></text>
</svg>
