<?xml version="1.0"?>
<svg version="1.1" id="topsvg"
xmlns="http://www.w3.org/2000/svg" xmlns:xlink="http://www.w3.org/1999/xlink"
xmlns:cml="http://www.xml-cml.org/schema" x="0" y="0" width="200px" height="200px" viewBox="0 0 100 100">
<title> - Open Babel Depiction</title>
<rect x="0" y="0" width="100" height="100" fill="white"/>
<g transform="translate(0,0)">
<svg width="100" height="100" x="0" y="0" viewBox="0 0 530.333 220"
font-family="sans-serif" stroke="rgb(0,0,0)" stroke-width="2"  stroke-linecap="round">
<line x1="490.3" y1="147.0" x2="490.3" y2="133.0" stroke="rgb(0,0,0)"  stroke-width="2.0"/>
<line x1="479.1" y1="113.5" x2="455.7" y2="100.0" stroke="rgb(0,0,0)"  stroke-width="2.0"/>
<line x1="455.7" y1="60.0" x2="479.1" y2="46.5" stroke="rgb(0,0,0)"  stroke-width="2.0"/>
<line x1="386.4" y1="100.0" x2="351.8" y2="120.0" stroke="rgb(0,0,0)"  stroke-width="2.0"/>
<line x1="350.3" y1="122.6" x2="318.6" y2="97.4" stroke="rgb(0,0,0)"  stroke-width="2.0"/>
<line x1="353.3" y1="117.4" x2="315.6" y2="102.6" stroke="rgb(0,0,0)"  stroke-width="2.0"/>
<line x1="317.1" y1="100.0" x2="282.5" y2="120.0" stroke="rgb(0,0,0)"  stroke-width="2.0"/>
<line x1="282.5" y1="120.0" x2="247.8" y2="100.0" stroke="rgb(0,0,0)"  stroke-width="2.0"/>
<line x1="247.8" y1="100.0" x2="213.2" y2="120.0" stroke="rgb(0,0,0)"  stroke-width="2.0"/>
<line x1="211.7" y1="122.6" x2="188.3" y2="109.1" stroke="rgb(0,0,0)"  stroke-width="2.0"/>
<line x1="214.7" y1="117.4" x2="191.3" y2="103.9" stroke="rgb(0,0,0)"  stroke-width="2.0"/>
<line x1="213.2" y1="120.0" x2="213.2" y2="160.0" stroke="rgb(0,0,0)"  stroke-width="2.0"/>
<line x1="214.7" y1="162.6" x2="177.1" y2="177.4" stroke="rgb(0,0,0)"  stroke-width="2.0"/>
<line x1="211.7" y1="157.4" x2="180.1" y2="182.6" stroke="rgb(0,0,0)"  stroke-width="2.0"/>
<line x1="178.6" y1="180.0" x2="143.9" y2="160.0" stroke="rgb(0,0,0)"  stroke-width="2.0"/>
<line x1="74.6" y1="120.0" x2="51.3" y2="106.5" stroke="rgb(0,0,0)"  stroke-width="2.0"/>
<line x1="109.3" y1="100.0" x2="109.3" y2="73.0" stroke="rgb(0,0,0)"  stroke-width="2.0"/>
<line x1="98.0" y1="53.5" x2="85.9" y2="46.5" stroke="rgb(0,0,0)"  stroke-width="2.0"/>
<line x1="285.5" y1="120.0" x2="285.5" y2="147.0" stroke="rgb(0,0,0)"  stroke-width="2.0"/>
<line x1="279.5" y1="120.0" x2="279.5" y2="147.0" stroke="rgb(0,0,0)"  stroke-width="2.0"/>
<line x1="386.4" y1="100.0" x2="386.4" y2="60.0" stroke="rgb(0,0,0)"  stroke-width="2.0"/>
<line x1="393.6" y1="94.0" x2="393.6" y2="66.0" stroke="rgb(0,0,0)"  stroke-width="2.0"/>
<line x1="386.4" y1="60.0" x2="421.1" y2="40.0" stroke="rgb(0,0,0)"  stroke-width="2.0"/>
<line x1="421.1" y1="40.0" x2="455.7" y2="60.0" stroke="rgb(0,0,0)"  stroke-width="2.0"/>
<line x1="422.6" y1="49.2" x2="446.9" y2="63.2" stroke="rgb(0,0,0)"  stroke-width="2.0"/>
<line x1="455.7" y1="60.0" x2="455.7" y2="100.0" stroke="rgb(0,0,0)"  stroke-width="2.0"/>
<line x1="455.7" y1="100.0" x2="421.1" y2="120.0" stroke="rgb(0,0,0)"  stroke-width="2.0"/>
<line x1="446.9" y1="96.8" x2="422.6" y2="110.8" stroke="rgb(0,0,0)"  stroke-width="2.0"/>
<line x1="421.1" y1="120.0" x2="386.4" y2="100.0" stroke="rgb(0,0,0)"  stroke-width="2.0"/>
<line x1="109.3" y1="180.0" x2="143.9" y2="160.0" stroke="rgb(0,0,0)"  stroke-width="2.0"/>
<line x1="110.9" y1="170.8" x2="135.1" y2="156.8" stroke="rgb(0,0,0)"  stroke-width="2.0"/>
<line x1="143.9" y1="160.0" x2="143.9" y2="120.0" stroke="rgb(0,0,0)"  stroke-width="2.0"/>
<line x1="143.9" y1="120.0" x2="109.3" y2="100.0" stroke="rgb(0,0,0)"  stroke-width="2.0"/>
<line x1="135.1" y1="123.2" x2="110.9" y2="109.2" stroke="rgb(0,0,0)"  stroke-width="2.0"/>
<line x1="109.3" y1="100.0" x2="74.6" y2="120.0" stroke="rgb(0,0,0)"  stroke-width="2.0"/>
<line x1="74.6" y1="120.0" x2="74.6" y2="160.0" stroke="rgb(0,0,0)"  stroke-width="2.0"/>
<line x1="81.8" y1="126.0" x2="81.8" y2="154.0" stroke="rgb(0,0,0)"  stroke-width="2.0"/>
<line x1="74.6" y1="160.0" x2="109.3" y2="180.0" stroke="rgb(0,0,0)"  stroke-width="2.0"/>
<text x="276.487113" y="168.000000" fill="rgb(255,12,12)"  stroke="rgb(255,12,12)" stroke-width="1" font-size="16" >O</text>
<text x="48.641016" y="48.000000" fill="rgb(102,102,102)"  stroke="rgb(102,102,102)" stroke-width="1" font-size="16" >H</text>
<text x="60.641016" y="51.680000" fill="rgb(102,102,102)"  stroke="rgb(102,102,102)" stroke-width="1" font-size="13" >3</text>
<text x="67.141016" y="48.000000" fill="rgb(102,102,102)"  stroke="rgb(102,102,102)" stroke-width="1" font-size="16" >C</text>
<text x="103.282032" y="68.000000" fill="rgb(255,12,12)"  stroke="rgb(255,12,12)" stroke-width="1" font-size="16" >O</text>
<text x="22.000000" y="108.000000" fill="rgb(255,12,12)"  stroke="rgb(255,12,12)" stroke-width="1" font-size="16" >HO</text>
<text x="172.564065" y="108.000000" fill="rgb(255,12,12)"  stroke="rgb(255,12,12)" stroke-width="1" font-size="16" >O</text>
<text x="486.333210" y="168.000000" fill="rgb(102,102,102)"  stroke="rgb(102,102,102)" stroke-width="1" font-size="16" >CH</text>
<text x="510.333210" y="171.680000" fill="rgb(102,102,102)"  stroke="rgb(102,102,102)" stroke-width="1" font-size="13" >3</text>
<text x="484.333210" y="48.000000" fill="rgb(255,12,12)"  stroke="rgb(255,12,12)" stroke-width="1" font-size="16" >OH</text>
<text x="484.333210" y="128.000000" fill="rgb(255,12,12)"  stroke="rgb(255,12,12)" stroke-width="1" font-size="16" >O</text>
</svg>
</g>
<text font-size="18.000000" fill ="black" font-family="sans-serif"
x="10.000000" y="20.000000" ></text>
</svg>
