<?xml version="1.0"?>
<svg version="1.1" id="topsvg"
xmlns="http://www.w3.org/2000/svg" xmlns:xlink="http://www.w3.org/1999/xlink"
xmlns:cml="http://www.xml-cml.org/schema" x="0" y="0" width="200px" height="200px" viewBox="0 0 100 100">
<title> - Open Babel Depiction</title>
<rect x="0" y="0" width="100" height="100" fill="white"/>
<g transform="translate(0,0)">
<svg width="100" height="100" x="0" y="0" viewBox="0 0 556.487 427.897"
font-family="sans-serif" stroke="rgb(0,0,0)" stroke-width="2"  stroke-linecap="round">
<line x1="293.7" y1="341.4" x2="317.1" y2="327.9" stroke="rgb(0,0,0)"  stroke-width="2.0"/>
<line x1="317.1" y1="327.9" x2="340.5" y2="341.4" stroke="rgb(0,0,0)"  stroke-width="2.0"/>
<line x1="317.1" y1="327.9" x2="317.1" y2="287.9" stroke="rgb(0,0,0)"  stroke-width="2.0"/>
<line x1="317.1" y1="287.9" x2="293.7" y2="274.4" stroke="rgb(0,0,0)"  stroke-width="2.0"/>
<line x1="282.5" y1="254.9" x2="282.5" y2="227.9" stroke="rgb(0,0,0)"  stroke-width="2.0"/>
<line x1="282.5" y1="227.9" x2="317.1" y2="207.9" stroke="rgb(0,0,0)"  stroke-width="2.0"/>
<line x1="317.1" y1="207.9" x2="293.7" y2="194.4" stroke="rgb(0,0,0)"  stroke-width="2.0"/>
<line x1="271.2" y1="194.4" x2="247.8" y2="207.9" stroke="rgb(0,0,0)"  stroke-width="2.0"/>
<line x1="213.2" y1="267.9" x2="213.2" y2="307.9" stroke="rgb(0,0,0)"  stroke-width="2.0"/>
<line x1="213.2" y1="307.9" x2="189.8" y2="321.4" stroke="rgb(0,0,0)"  stroke-width="2.0"/>
<line x1="178.6" y1="340.9" x2="178.6" y2="367.9" stroke="rgb(0,0,0)"  stroke-width="2.0"/>
<line x1="178.6" y1="367.9" x2="201.9" y2="381.4" stroke="rgb(0,0,0)"  stroke-width="2.0"/>
<line x1="180.1" y1="370.5" x2="156.7" y2="384.0" stroke="rgb(0,0,0)"  stroke-width="2.0"/>
<line x1="177.1" y1="365.3" x2="153.7" y2="378.8" stroke="rgb(0,0,0)"  stroke-width="2.0"/>
<line x1="178.6" y1="247.9" x2="155.2" y2="261.4" stroke="rgb(0,0,0)"  stroke-width="2.0"/>
<line x1="132.7" y1="261.4" x2="109.3" y2="247.9" stroke="rgb(0,0,0)"  stroke-width="2.0"/>
<line x1="109.3" y1="247.9" x2="74.6" y2="267.9" stroke="rgb(0,0,0)"  stroke-width="2.0"/>
<line x1="74.6" y1="267.9" x2="74.6" y2="294.9" stroke="rgb(0,0,0)"  stroke-width="2.0"/>
<line x1="74.6" y1="267.9" x2="51.3" y2="254.4" stroke="rgb(0,0,0)"  stroke-width="2.0"/>
<line x1="106.3" y1="247.9" x2="106.3" y2="220.9" stroke="rgb(0,0,0)"  stroke-width="2.0"/>
<line x1="112.3" y1="247.9" x2="112.3" y2="220.9" stroke="rgb(0,0,0)"  stroke-width="2.0"/>
<line x1="178.6" y1="207.9" x2="155.2" y2="194.4" stroke="rgb(0,0,0)"  stroke-width="2.0"/>
<line x1="143.9" y1="174.9" x2="143.9" y2="147.9" stroke="rgb(0,0,0)"  stroke-width="2.0"/>
<line x1="143.9" y1="147.9" x2="109.3" y2="127.9" stroke="rgb(0,0,0)"  stroke-width="2.0"/>
<line x1="109.3" y1="127.9" x2="85.9" y2="141.4" stroke="rgb(0,0,0)"  stroke-width="2.0"/>
<line x1="109.3" y1="127.9" x2="109.3" y2="100.9" stroke="rgb(0,0,0)"  stroke-width="2.0"/>
<line x1="142.4" y1="145.3" x2="165.8" y2="131.8" stroke="rgb(0,0,0)"  stroke-width="2.0"/>
<line x1="145.4" y1="150.5" x2="168.8" y2="137.0" stroke="rgb(0,0,0)"  stroke-width="2.0"/>
<line x1="213.2" y1="187.9" x2="213.2" y2="160.9" stroke="rgb(0,0,0)"  stroke-width="2.0"/>
<line x1="224.5" y1="141.4" x2="247.8" y2="127.9" stroke="rgb(0,0,0)"  stroke-width="2.0"/>
<line x1="247.8" y1="127.9" x2="247.8" y2="87.9" stroke="rgb(0,0,0)"  stroke-width="2.0"/>
<line x1="247.8" y1="87.9" x2="224.5" y2="74.4" stroke="rgb(0,0,0)"  stroke-width="2.0"/>
<line x1="247.8" y1="87.9" x2="271.2" y2="74.4" stroke="rgb(0,0,0)"  stroke-width="2.0"/>
<line x1="249.3" y1="125.3" x2="272.7" y2="138.8" stroke="rgb(0,0,0)"  stroke-width="2.0"/>
<line x1="246.3" y1="130.5" x2="269.7" y2="144.0" stroke="rgb(0,0,0)"  stroke-width="2.0"/>
<line x1="378.7" y1="227.9" x2="411.0" y2="251.4" stroke="rgb(0,0,0)"  stroke-width="2.0"/>
<line x1="411.0" y1="251.4" x2="408.2" y2="278.3" stroke="rgb(0,0,0)"  stroke-width="2.0"/>
<line x1="417.4" y1="298.8" x2="439.2" y2="314.7" stroke="rgb(0,0,0)"  stroke-width="2.0"/>
<line x1="439.2" y1="314.7" x2="436.4" y2="341.6" stroke="rgb(0,0,0)"  stroke-width="2.0"/>
<line x1="438.0" y1="312.0" x2="462.7" y2="301.0" stroke="rgb(0,0,0)"  stroke-width="2.0"/>
<line x1="440.4" y1="317.4" x2="465.1" y2="306.5" stroke="rgb(0,0,0)"  stroke-width="2.0"/>
<line x1="340.6" y1="175.5" x2="332.3" y2="149.9" stroke="rgb(0,0,0)"  stroke-width="2.0"/>
<line x1="337.0" y1="127.8" x2="355.0" y2="107.8" stroke="rgb(0,0,0)"  stroke-width="2.0"/>
<line x1="355.0" y1="107.8" x2="342.7" y2="69.7" stroke="rgb(0,0,0)"  stroke-width="2.0"/>
<line x1="342.7" y1="69.7" x2="316.3" y2="64.1" stroke="rgb(0,0,0)"  stroke-width="2.0"/>
<line x1="342.7" y1="69.7" x2="360.7" y2="49.7" stroke="rgb(0,0,0)"  stroke-width="2.0"/>
<line x1="355.7" y1="104.8" x2="382.1" y2="110.4" stroke="rgb(0,0,0)"  stroke-width="2.0"/>
<line x1="354.4" y1="110.7" x2="380.8" y2="116.3" stroke="rgb(0,0,0)"  stroke-width="2.0"/>
<line x1="378.7" y1="187.9" x2="400.5" y2="172.0" stroke="rgb(0,0,0)"  stroke-width="2.0"/>
<line x1="422.9" y1="169.7" x2="447.6" y2="180.7" stroke="rgb(0,0,0)"  stroke-width="2.0"/>
<line x1="447.6" y1="180.7" x2="479.9" y2="157.1" stroke="rgb(0,0,0)"  stroke-width="2.0"/>
<line x1="479.9" y1="157.1" x2="477.1" y2="130.3" stroke="rgb(0,0,0)"  stroke-width="2.0"/>
<line x1="479.9" y1="157.1" x2="504.6" y2="168.1" stroke="rgb(0,0,0)"  stroke-width="2.0"/>
<line x1="450.6" y1="180.3" x2="453.4" y2="207.2" stroke="rgb(0,0,0)"  stroke-width="2.0"/>
<line x1="444.6" y1="181.0" x2="447.4" y2="207.8" stroke="rgb(0,0,0)"  stroke-width="2.0"/>
<line x1="315.6" y1="285.3" x2="339.0" y2="271.8" stroke="rgb(0,0,0)"  stroke-width="2.0"/>
<line x1="318.6" y1="290.5" x2="342.0" y2="277.0" stroke="rgb(0,0,0)"  stroke-width="2.0"/>
<line x1="378.7" y1="227.9" x2="378.7" y2="187.9" stroke="rgb(0,0,0)"  stroke-width="2.0"/>
<line x1="378.7" y1="187.9" x2="340.6" y2="175.5" stroke="rgb(0,0,0)"  stroke-width="2.0"/>
<line x1="340.6" y1="175.5" x2="317.1" y2="207.9" stroke="rgb(0,0,0)"  stroke-width="2.0"/>
<line x1="317.1" y1="207.9" x2="333.0" y2="229.7" stroke="rgb(0,0,0)"  stroke-width="2.0"/>
<line x1="353.0" y1="236.2" x2="378.7" y2="227.9" stroke="rgb(0,0,0)"  stroke-width="2.0"/>
<line x1="247.8" y1="234.9" x2="247.8" y2="207.9" stroke="rgb(0,0,0)"  stroke-width="2.0"/>
<line x1="247.8" y1="207.9" x2="213.2" y2="187.9" stroke="rgb(0,0,0)"  stroke-width="2.0"/>
<line x1="213.2" y1="187.9" x2="178.6" y2="207.9" stroke="rgb(0,0,0)"  stroke-width="2.0"/>
<line x1="178.6" y1="207.9" x2="178.6" y2="247.9" stroke="rgb(0,0,0)"  stroke-width="2.0"/>
<line x1="178.6" y1="247.9" x2="213.2" y2="267.9" stroke="rgb(0,0,0)"  stroke-width="2.0"/>
<line x1="213.2" y1="267.9" x2="236.6" y2="254.4" stroke="rgb(0,0,0)"  stroke-width="2.0"/>
<text x="172.564065" y="135.896787" fill="rgb(255,12,12)"  stroke="rgb(255,12,12)" stroke-width="1" font-size="16" >O</text>
<text x="207.205081" y="155.896787" fill="rgb(255,12,12)"  stroke="rgb(255,12,12)" stroke-width="1" font-size="16" >O</text>
<text x="187.205081" y="75.896787" fill="rgb(102,102,102)"  stroke="rgb(102,102,102)" stroke-width="1" font-size="16" >H</text>
<text x="199.205081" y="79.576787" fill="rgb(102,102,102)"  stroke="rgb(102,102,102)" stroke-width="1" font-size="13" >3</text>
<text x="205.705081" y="75.896787" fill="rgb(102,102,102)"  stroke="rgb(102,102,102)" stroke-width="1" font-size="16" >C</text>
<text x="278.487113" y="75.896787" fill="rgb(102,102,102)"  stroke="rgb(102,102,102)" stroke-width="1" font-size="16" >CH</text>
<text x="302.487113" y="79.576787" fill="rgb(102,102,102)"  stroke="rgb(102,102,102)" stroke-width="1" font-size="13" >3</text>
<text x="276.487113" y="155.896787" fill="rgb(255,12,12)"  stroke="rgb(255,12,12)" stroke-width="1" font-size="16" >O</text>
<text x="334.639539" y="248.257467" fill="rgb(255,12,12)"  stroke="rgb(255,12,12)" stroke-width="1" font-size="16" >O</text>
<text x="400.861341" y="299.189073" fill="rgb(255,12,12)"  stroke="rgb(255,12,12)" stroke-width="1" font-size="16" >O</text>
<text x="409.040882" y="362.481359" fill="rgb(102,102,102)"  stroke="rgb(102,102,102)" stroke-width="1" font-size="16" >H</text>
<text x="421.040882" y="366.161359" fill="rgb(102,102,102)"  stroke="rgb(102,102,102)" stroke-width="1" font-size="13" >3</text>
<text x="427.540882" y="362.481359" fill="rgb(102,102,102)"  stroke="rgb(102,102,102)" stroke-width="1" font-size="16" >C</text>
<text x="469.763839" y="306.431017" fill="rgb(255,12,12)"  stroke="rgb(255,12,12)" stroke-width="1" font-size="16" >O</text>
<text x="105.282032" y="95.896787" fill="rgb(102,102,102)"  stroke="rgb(102,102,102)" stroke-width="1" font-size="16" >CH</text>
<text x="129.282032" y="99.576787" fill="rgb(102,102,102)"  stroke="rgb(102,102,102)" stroke-width="1" font-size="13" >3</text>
<text x="322.278860" y="145.493847" fill="rgb(255,12,12)"  stroke="rgb(255,12,12)" stroke-width="1" font-size="16" >O</text>
<text x="277.557500" y="69.409325" fill="rgb(102,102,102)"  stroke="rgb(102,102,102)" stroke-width="1" font-size="16" >H</text>
<text x="289.557500" y="73.089325" fill="rgb(102,102,102)"  stroke="rgb(102,102,102)" stroke-width="1" font-size="13" >3</text>
<text x="296.057500" y="69.409325" fill="rgb(102,102,102)"  stroke="rgb(102,102,102)" stroke-width="1" font-size="16" >C</text>
<text x="365.448628" y="48.000000" fill="rgb(102,102,102)"  stroke="rgb(102,102,102)" stroke-width="1" font-size="16" >CH</text>
<text x="389.448628" y="51.680000" fill="rgb(102,102,102)"  stroke="rgb(102,102,102)" stroke-width="1" font-size="13" >3</text>
<text x="388.169988" y="124.084521" fill="rgb(255,12,12)"  stroke="rgb(255,12,12)" stroke-width="1" font-size="16" >O</text>
<text x="405.042480" y="172.385377" fill="rgb(255,12,12)"  stroke="rgb(255,12,12)" stroke-width="1" font-size="16" >O</text>
<text x="449.763839" y="125.362557" fill="rgb(102,102,102)"  stroke="rgb(102,102,102)" stroke-width="1" font-size="16" >H</text>
<text x="461.763839" y="129.042557" fill="rgb(102,102,102)"  stroke="rgb(102,102,102)" stroke-width="1" font-size="13" >3</text>
<text x="468.263839" y="125.362557" fill="rgb(102,102,102)"  stroke="rgb(102,102,102)" stroke-width="1" font-size="16" >C</text>
<text x="512.486796" y="181.412898" fill="rgb(102,102,102)"  stroke="rgb(102,102,102)" stroke-width="1" font-size="16" >CH</text>
<text x="536.486796" y="185.092898" fill="rgb(102,102,102)"  stroke="rgb(102,102,102)" stroke-width="1" font-size="13" >3</text>
<text x="445.765437" y="228.435719" fill="rgb(255,12,12)"  stroke="rgb(255,12,12)" stroke-width="1" font-size="16" >O</text>
<text x="345.769145" y="275.896787" fill="rgb(255,12,12)"  stroke="rgb(255,12,12)" stroke-width="1" font-size="16" >O</text>
<text x="137.923048" y="395.896787" fill="rgb(255,12,12)"  stroke="rgb(255,12,12)" stroke-width="1" font-size="16" >O</text>
<text x="347.769145" y="355.896787" fill="rgb(102,102,102)"  stroke="rgb(102,102,102)" stroke-width="1" font-size="16" >CH</text>
<text x="371.769145" y="359.576787" fill="rgb(102,102,102)"  stroke="rgb(102,102,102)" stroke-width="1" font-size="13" >3</text>
<text x="276.487113" y="275.896787" fill="rgb(255,12,12)"  stroke="rgb(255,12,12)" stroke-width="1" font-size="16" >O</text>
<text x="276.487113" y="195.896787" fill="rgb(255,12,12)"  stroke="rgb(255,12,12)" stroke-width="1" font-size="16" >O</text>
<text x="241.846097" y="255.896787" fill="rgb(255,12,12)"  stroke="rgb(255,12,12)" stroke-width="1" font-size="16" >O</text>
<text x="172.564065" y="335.896787" fill="rgb(255,12,12)"  stroke="rgb(255,12,12)" stroke-width="1" font-size="16" >O</text>
<text x="209.205081" y="395.896787" fill="rgb(102,102,102)"  stroke="rgb(102,102,102)" stroke-width="1" font-size="16" >CH</text>
<text x="233.205081" y="399.576787" fill="rgb(102,102,102)"  stroke="rgb(102,102,102)" stroke-width="1" font-size="13" >3</text>
<text x="256.487113" y="355.896787" fill="rgb(102,102,102)"  stroke="rgb(102,102,102)" stroke-width="1" font-size="16" >H</text>
<text x="268.487113" y="359.576787" fill="rgb(102,102,102)"  stroke="rgb(102,102,102)" stroke-width="1" font-size="13" >3</text>
<text x="274.987113" y="355.896787" fill="rgb(102,102,102)"  stroke="rgb(102,102,102)" stroke-width="1" font-size="16" >C</text>
<text x="137.923048" y="275.896787" fill="rgb(255,12,12)"  stroke="rgb(255,12,12)" stroke-width="1" font-size="16" >O</text>
<text x="70.641016" y="315.896787" fill="rgb(102,102,102)"  stroke="rgb(102,102,102)" stroke-width="1" font-size="16" >CH</text>
<text x="94.641016" y="319.576787" fill="rgb(102,102,102)"  stroke="rgb(102,102,102)" stroke-width="1" font-size="13" >3</text>
<text x="14.000000" y="255.896787" fill="rgb(102,102,102)"  stroke="rgb(102,102,102)" stroke-width="1" font-size="16" >H</text>
<text x="26.000000" y="259.576787" fill="rgb(102,102,102)"  stroke="rgb(102,102,102)" stroke-width="1" font-size="13" >3</text>
<text x="32.500000" y="255.896787" fill="rgb(102,102,102)"  stroke="rgb(102,102,102)" stroke-width="1" font-size="16" >C</text>
<text x="103.282032" y="215.896787" fill="rgb(255,12,12)"  stroke="rgb(255,12,12)" stroke-width="1" font-size="16" >O</text>
<text x="137.923048" y="195.896787" fill="rgb(255,12,12)"  stroke="rgb(255,12,12)" stroke-width="1" font-size="16" >O</text>
<text x="48.641016" y="155.896787" fill="rgb(102,102,102)"  stroke="rgb(102,102,102)" stroke-width="1" font-size="16" >H</text>
<text x="60.641016" y="159.576787" fill="rgb(102,102,102)"  stroke="rgb(102,102,102)" stroke-width="1" font-size="13" >3</text>
<text x="67.141016" y="155.896787" fill="rgb(102,102,102)"  stroke="rgb(102,102,102)" stroke-width="1" font-size="16" >C</text>
</svg>
</g>
<text font-size="18.000000" fill ="black" font-family="sans-serif"
x="10.000000" y="20.000000" ></text>
</svg>
