<?xml version="1.0"?>
<svg version="1.1" id="topsvg"
xmlns="http://www.w3.org/2000/svg" xmlns:xlink="http://www.w3.org/1999/xlink"
xmlns:cml="http://www.xml-cml.org/schema" x="0" y="0" width="200px" height="200px" viewBox="0 0 100 100">
<title> - Open Babel Depiction</title>
<rect x="0" y="0" width="100" height="100" fill="white"/>
<g transform="translate(0,0)">
<svg width="100" height="100" x="0" y="0" viewBox="0 0 181.016 178.637"
font-family="sans-serif" stroke="rgb(0,0,0)" stroke-width="2"  stroke-linecap="round">
<line x1="116.3" y1="52.6" x2="112.6" y2="66.1" stroke="rgb(0,0,0)"  stroke-width="2.0"/>
<line x1="121.4" y1="84.2" x2="132.5" y2="92.7" stroke="rgb(0,0,0)"  stroke-width="2.0"/>
<line x1="117.8" y1="88.9" x2="128.9" y2="97.5" stroke="rgb(0,0,0)"  stroke-width="2.0"/>
<line x1="74.6" y1="138.6" x2="40.0" y2="118.6" stroke="rgb(0,0,0)"  stroke-width="2.0"/>
<line x1="40.0" y1="118.6" x2="40.0" y2="78.6" stroke="rgb(0,0,0)"  stroke-width="2.0"/>
<line x1="40.0" y1="78.6" x2="74.6" y2="58.6" stroke="rgb(0,0,0)"  stroke-width="2.0"/>
<line x1="74.6" y1="58.6" x2="98.0" y2="72.1" stroke="rgb(0,0,0)"  stroke-width="2.0"/>
<line x1="109.3" y1="91.6" x2="109.3" y2="118.6" stroke="rgb(0,0,0)"  stroke-width="2.0"/>
<line x1="109.3" y1="118.6" x2="74.6" y2="138.6" stroke="rgb(0,0,0)"  stroke-width="2.0"/>
<text x="115.634794" y="48.000000" fill="rgb(102,102,102)"  stroke="rgb(102,102,102)" stroke-width="1" font-size="16" >CH</text>
<text x="139.634794" y="51.680000" fill="rgb(102,102,102)"  stroke="rgb(102,102,102)" stroke-width="1" font-size="13" >3</text>
<text x="103.282032" y="86.637033" fill="rgb(12,12,255)"  stroke="rgb(12,12,255)" stroke-width="1" font-size="16" >N</text>
<text x="135.016166" y="110.987490" fill="rgb(255,12,12)"  stroke="rgb(255,12,12)" stroke-width="1" font-size="16" >O</text>
</svg>
</g>
<text font-size="18.000000" fill ="black" font-family="sans-serif"
x="10.000000" y="20.000000" ></text>
</svg>
