<?xml version="1.0"?>
<svg version="1.1" id="topsvg"
xmlns="http://www.w3.org/2000/svg" xmlns:xlink="http://www.w3.org/1999/xlink"
xmlns:cml="http://www.xml-cml.org/schema" x="0" y="0" width="200px" height="200px" viewBox="0 0 100 100">
<title> - Open Babel Depiction</title>
<rect x="0" y="0" width="100" height="100" fill="white"/>
<g transform="translate(0,0)">
<svg width="100" height="100" x="0" y="0" viewBox="0 0 366.573 288.097"
font-family="sans-serif" stroke="rgb(0,0,0)" stroke-width="2"  stroke-linecap="round">
<line x1="74.6" y1="235.1" x2="74.6" y2="208.1" stroke="rgb(0,0,0)"  stroke-width="2.0"/>
<line x1="70.4" y1="235.1" x2="70.4" y2="208.1" stroke="rgb(0,0,0)"  stroke-width="2.0"/>
<line x1="78.8" y1="235.1" x2="78.8" y2="208.1" stroke="rgb(0,0,0)"  stroke-width="2.0"/>
<line x1="74.6" y1="208.1" x2="74.6" y2="168.1" stroke="rgb(0,0,0)"  stroke-width="2.0"/>
<line x1="109.3" y1="108.1" x2="143.9" y2="88.1" stroke="rgb(0,0,0)"  stroke-width="2.0"/>
<line x1="207.2" y1="74.6" x2="247.0" y2="78.8" stroke="rgb(0,0,0)"  stroke-width="2.0"/>
<line x1="193.7" y1="51.3" x2="207.2" y2="74.6" stroke="rgb(0,0,0)"  stroke-width="2.0"/>
<line x1="207.2" y1="74.6" x2="189.3" y2="94.6" stroke="rgb(0,0,0)"  stroke-width="2.0"/>
<line x1="197.9" y1="74.3" x2="185.3" y2="88.3" stroke="rgb(0,0,0)"  stroke-width="2.0"/>
<line x1="168.6" y1="99.1" x2="143.9" y2="88.1" stroke="rgb(0,0,0)"  stroke-width="2.0"/>
<line x1="143.9" y1="88.1" x2="146.7" y2="61.4" stroke="rgb(0,0,0)"  stroke-width="2.0"/>
<line x1="151.7" y1="82.9" x2="153.7" y2="64.2" stroke="rgb(0,0,0)"  stroke-width="2.0"/>
<line x1="160.8" y1="45.6" x2="174.5" y2="42.7" stroke="rgb(0,0,0)"  stroke-width="2.0"/>
<line x1="40.0" y1="108.1" x2="74.6" y2="88.1" stroke="rgb(0,0,0)"  stroke-width="2.0"/>
<line x1="48.8" y1="111.3" x2="73.0" y2="97.3" stroke="rgb(0,0,0)"  stroke-width="2.0"/>
<line x1="74.6" y1="88.1" x2="109.3" y2="108.1" stroke="rgb(0,0,0)"  stroke-width="2.0"/>
<line x1="109.3" y1="108.1" x2="109.3" y2="148.1" stroke="rgb(0,0,0)"  stroke-width="2.0"/>
<line x1="102.1" y1="114.1" x2="102.1" y2="142.1" stroke="rgb(0,0,0)"  stroke-width="2.0"/>
<line x1="109.3" y1="148.1" x2="74.6" y2="168.1" stroke="rgb(0,0,0)"  stroke-width="2.0"/>
<line x1="74.6" y1="168.1" x2="51.4" y2="154.7" stroke="rgb(0,0,0)"  stroke-width="2.0"/>
<line x1="73.0" y1="158.9" x2="56.8" y2="149.5" stroke="rgb(0,0,0)"  stroke-width="2.0"/>
<line x1="40.0" y1="135.1" x2="40.0" y2="108.1" stroke="rgb(0,0,0)"  stroke-width="2.0"/>
<line x1="310.3" y1="50.6" x2="321.2" y2="75.1" stroke="rgb(0,0,0)"  stroke-width="2.0"/>
<line x1="306.2" y1="59.1" x2="313.8" y2="76.2" stroke="rgb(0,0,0)"  stroke-width="2.0"/>
<line x1="318.9" y1="97.7" x2="303.1" y2="119.5" stroke="rgb(0,0,0)"  stroke-width="2.0"/>
<line x1="303.1" y1="119.5" x2="263.3" y2="115.4" stroke="rgb(0,0,0)"  stroke-width="2.0"/>
<line x1="297.8" y1="111.8" x2="270.0" y2="108.8" stroke="rgb(0,0,0)"  stroke-width="2.0"/>
<line x1="263.3" y1="115.4" x2="247.0" y2="78.8" stroke="rgb(0,0,0)"  stroke-width="2.0"/>
<line x1="247.0" y1="78.8" x2="270.5" y2="46.5" stroke="rgb(0,0,0)"  stroke-width="2.0"/>
<line x1="256.4" y1="78.2" x2="272.8" y2="55.5" stroke="rgb(0,0,0)"  stroke-width="2.0"/>
<line x1="270.5" y1="46.5" x2="310.3" y2="50.6" stroke="rgb(0,0,0)"  stroke-width="2.0"/>
<text x="142.104187" y="56.316468" fill="rgb(12,12,255)"  stroke="rgb(12,12,255)" stroke-width="1" font-size="16" >N</text>
<text x="320.572718" y="95.184432" fill="rgb(12,12,255)"  stroke="rgb(12,12,255)" stroke-width="1" font-size="16" >N</text>
<text x="174.464867" y="112.366809" fill="rgb(12,12,255)"  stroke="rgb(12,12,255)" stroke-width="1" font-size="16" >N</text>
<text x="181.230091" y="48.000000" fill="rgb(12,12,255)"  stroke="rgb(12,12,255)" stroke-width="1" font-size="16" >N</text>
<text x="181.230091" y="32.000000" fill="rgb(12,12,255)"  stroke="rgb(12,12,255)" stroke-width="1" font-size="16" >H</text>
<text x="68.641016" y="256.097343" fill="rgb(12,12,255)"  stroke="rgb(12,12,255)" stroke-width="1" font-size="16" >N</text>
<text x="34.000000" y="156.097343" fill="rgb(12,12,255)"  stroke="rgb(12,12,255)" stroke-width="1" font-size="16" >N</text>
</svg>
</g>
<text font-size="18.000000" fill ="black" font-family="sans-serif"
x="10.000000" y="20.000000" ></text>
</svg>
