<?xml version="1.0"?>
<svg version="1.1" id="topsvg"
xmlns="http://www.w3.org/2000/svg" xmlns:xlink="http://www.w3.org/1999/xlink"
xmlns:cml="http://www.xml-cml.org/schema" x="0" y="0" width="200px" height="200px" viewBox="0 0 100 100">
<title> - Open Babel Depiction</title>
<rect x="0" y="0" width="100" height="100" fill="white"/>
<g transform="translate(0,0)">
<svg width="100" height="100" x="0" y="0" viewBox="0 0 378.564 300"
font-family="sans-serif" stroke="rgb(0,0,0)" stroke-width="2"  stroke-linecap="round">
<line x1="53.0" y1="220.0" x2="80.0" y2="220.0" stroke="rgb(0,0,0)"  stroke-width="2.0"/>
<line x1="160.0" y1="220.0" x2="187.0" y2="220.0" stroke="rgb(0,0,0)"  stroke-width="2.0"/>
<line x1="203.0" y1="233.0" x2="203.0" y2="247.0" stroke="rgb(0,0,0)"  stroke-width="2.0"/>
<line x1="197.0" y1="233.0" x2="197.0" y2="247.0" stroke="rgb(0,0,0)"  stroke-width="2.0"/>
<line x1="213.0" y1="217.0" x2="227.0" y2="217.0" stroke="rgb(0,0,0)"  stroke-width="2.0"/>
<line x1="213.0" y1="223.0" x2="227.0" y2="223.0" stroke="rgb(0,0,0)"  stroke-width="2.0"/>
<line x1="200.0" y1="207.0" x2="200.0" y2="193.0" stroke="rgb(0,0,0)"  stroke-width="2.0"/>
<line x1="211.3" y1="173.5" x2="234.6" y2="160.0" stroke="rgb(0,0,0)"  stroke-width="2.0"/>
<line x1="140.0" y1="185.4" x2="160.0" y2="220.0" stroke="rgb(0,0,0)"  stroke-width="2.0"/>
<line x1="136.8" y1="194.2" x2="150.8" y2="218.4" stroke="rgb(0,0,0)"  stroke-width="2.0"/>
<line x1="160.0" y1="220.0" x2="140.0" y2="254.6" stroke="rgb(0,0,0)"  stroke-width="2.0"/>
<line x1="140.0" y1="254.6" x2="100.0" y2="254.6" stroke="rgb(0,0,0)"  stroke-width="2.0"/>
<line x1="134.0" y1="247.4" x2="106.0" y2="247.4" stroke="rgb(0,0,0)"  stroke-width="2.0"/>
<line x1="100.0" y1="254.6" x2="80.0" y2="220.0" stroke="rgb(0,0,0)"  stroke-width="2.0"/>
<line x1="80.0" y1="220.0" x2="100.0" y2="185.4" stroke="rgb(0,0,0)"  stroke-width="2.0"/>
<line x1="89.2" y1="218.4" x2="103.2" y2="194.2" stroke="rgb(0,0,0)"  stroke-width="2.0"/>
<line x1="100.0" y1="185.4" x2="140.0" y2="185.4" stroke="rgb(0,0,0)"  stroke-width="2.0"/>
<line x1="269.3" y1="100.0" x2="303.9" y2="120.0" stroke="rgb(0,0,0)"  stroke-width="2.0"/>
<line x1="303.9" y1="120.0" x2="303.9" y2="147.0" stroke="rgb(0,0,0)"  stroke-width="2.0"/>
<line x1="292.5" y1="166.6" x2="269.3" y2="180.0" stroke="rgb(0,0,0)"  stroke-width="2.0"/>
<line x1="287.2" y1="161.4" x2="270.9" y2="170.8" stroke="rgb(0,0,0)"  stroke-width="2.0"/>
<line x1="269.3" y1="180.0" x2="234.6" y2="160.0" stroke="rgb(0,0,0)"  stroke-width="2.0"/>
<line x1="234.6" y1="160.0" x2="234.6" y2="133.2" stroke="rgb(0,0,0)"  stroke-width="2.0"/>
<line x1="241.8" y1="154.0" x2="241.8" y2="135.2" stroke="rgb(0,0,0)"  stroke-width="2.0"/>
<line x1="245.9" y1="113.5" x2="269.3" y2="100.0" stroke="rgb(0,0,0)"  stroke-width="2.0"/>
<line x1="338.6" y1="60.0" x2="338.6" y2="100.0" stroke="rgb(0,0,0)"  stroke-width="2.0"/>
<line x1="338.6" y1="100.0" x2="303.9" y2="120.0" stroke="rgb(0,0,0)"  stroke-width="2.0"/>
<line x1="329.8" y1="96.8" x2="305.5" y2="110.8" stroke="rgb(0,0,0)"  stroke-width="2.0"/>
<line x1="269.3" y1="100.0" x2="269.3" y2="60.0" stroke="rgb(0,0,0)"  stroke-width="2.0"/>
<line x1="276.5" y1="94.0" x2="276.5" y2="66.0" stroke="rgb(0,0,0)"  stroke-width="2.0"/>
<line x1="269.3" y1="60.0" x2="303.9" y2="40.0" stroke="rgb(0,0,0)"  stroke-width="2.0"/>
<line x1="303.9" y1="40.0" x2="338.6" y2="60.0" stroke="rgb(0,0,0)"  stroke-width="2.0"/>
<line x1="305.5" y1="49.2" x2="329.8" y2="63.2" stroke="rgb(0,0,0)"  stroke-width="2.0"/>
<text x="182.000000" y="188.000000" fill="rgb(12,12,255)"  stroke="rgb(12,12,255)" stroke-width="1" font-size="16" >HN</text>
<text x="297.923048" y="168.000000" fill="rgb(12,12,255)"  stroke="rgb(12,12,255)" stroke-width="1" font-size="16" >N</text>
<text x="228.641016" y="128.000000" fill="rgb(12,12,255)"  stroke="rgb(12,12,255)" stroke-width="1" font-size="16" >N</text>
<text x="14.000000" y="228.000000" fill="rgb(12,12,255)"  stroke="rgb(12,12,255)" stroke-width="1" font-size="16" >H</text>
<text x="26.000000" y="231.680000" fill="rgb(12,12,255)"  stroke="rgb(12,12,255)" stroke-width="1" font-size="13" >2</text>
<text x="32.500000" y="228.000000" fill="rgb(12,12,255)"  stroke="rgb(12,12,255)" stroke-width="1" font-size="16" >N</text>
<text x="234.000000" y="228.000000" fill="rgb(255,12,12)"  stroke="rgb(255,12,12)" stroke-width="1" font-size="16" >O</text>
<text x="194.000000" y="268.000000" fill="rgb(255,12,12)"  stroke="rgb(255,12,12)" stroke-width="1" font-size="16" >O</text>
<text x="194.000000" y="228.000000" fill="rgb(178,178,0)"  stroke="rgb(178,178,0)" stroke-width="1" font-size="16" >S</text>
</svg>
</g>
<text font-size="18.000000" fill ="black" font-family="sans-serif"
x="10.000000" y="20.000000" ></text>
</svg>
