<?xml version="1.0"?>
<svg version="1.1" id="topsvg"
xmlns="http://www.w3.org/2000/svg" xmlns:xlink="http://www.w3.org/1999/xlink"
xmlns:cml="http://www.xml-cml.org/schema" x="0" y="0" width="200px" height="200px" viewBox="0 0 100 100">
<title> - Open Babel Depiction</title>
<rect x="0" y="0" width="100" height="100" fill="white"/>
<g transform="translate(0,0)">
<svg width="100" height="100" x="0" y="0" viewBox="0 0 440 240"
font-family="sans-serif" stroke="rgb(0,0,0)" stroke-width="2"  stroke-linecap="round">
<line x1="49.1" y1="135.1" x2="56.1" y2="147.2" stroke="rgb(0,0,0)"  stroke-width="2.0"/>
<line x1="43.9" y1="138.1" x2="50.9" y2="150.2" stroke="rgb(0,0,0)"  stroke-width="2.0"/>
<line x1="56.1" y1="172.8" x2="49.1" y2="184.9" stroke="rgb(0,0,0)"  stroke-width="2.0"/>
<line x1="50.9" y1="169.8" x2="43.9" y2="181.9" stroke="rgb(0,0,0)"  stroke-width="2.0"/>
<line x1="73.0" y1="160.0" x2="100.0" y2="160.0" stroke="rgb(0,0,0)"  stroke-width="2.0"/>
<line x1="180.0" y1="160.0" x2="207.0" y2="160.0" stroke="rgb(0,0,0)"  stroke-width="2.0"/>
<line x1="223.0" y1="173.0" x2="223.0" y2="187.0" stroke="rgb(0,0,0)"  stroke-width="2.0"/>
<line x1="217.0" y1="173.0" x2="217.0" y2="187.0" stroke="rgb(0,0,0)"  stroke-width="2.0"/>
<line x1="233.0" y1="157.0" x2="247.0" y2="157.0" stroke="rgb(0,0,0)"  stroke-width="2.0"/>
<line x1="233.0" y1="163.0" x2="247.0" y2="163.0" stroke="rgb(0,0,0)"  stroke-width="2.0"/>
<line x1="220.0" y1="147.0" x2="220.0" y2="133.0" stroke="rgb(0,0,0)"  stroke-width="2.0"/>
<line x1="220.0" y1="107.0" x2="220.0" y2="93.0" stroke="rgb(0,0,0)"  stroke-width="2.0"/>
<line x1="233.0" y1="80.0" x2="260.0" y2="80.0" stroke="rgb(0,0,0)"  stroke-width="2.0"/>
<line x1="340.0" y1="80.0" x2="367.0" y2="80.0" stroke="rgb(0,0,0)"  stroke-width="2.0"/>
<line x1="389.1" y1="89.8" x2="396.1" y2="101.9" stroke="rgb(0,0,0)"  stroke-width="2.0"/>
<line x1="383.9" y1="92.8" x2="390.9" y2="104.9" stroke="rgb(0,0,0)"  stroke-width="2.0"/>
<line x1="383.9" y1="67.2" x2="390.9" y2="55.1" stroke="rgb(0,0,0)"  stroke-width="2.0"/>
<line x1="389.1" y1="70.2" x2="396.1" y2="58.1" stroke="rgb(0,0,0)"  stroke-width="2.0"/>
<line x1="217.0" y1="67.0" x2="217.0" y2="53.0" stroke="rgb(0,0,0)"  stroke-width="2.0"/>
<line x1="223.0" y1="67.0" x2="223.0" y2="53.0" stroke="rgb(0,0,0)"  stroke-width="2.0"/>
<line x1="207.0" y1="83.0" x2="193.0" y2="83.0" stroke="rgb(0,0,0)"  stroke-width="2.0"/>
<line x1="207.0" y1="77.0" x2="193.0" y2="77.0" stroke="rgb(0,0,0)"  stroke-width="2.0"/>
<line x1="160.0" y1="125.4" x2="180.0" y2="160.0" stroke="rgb(0,0,0)"  stroke-width="2.0"/>
<line x1="156.8" y1="134.2" x2="170.8" y2="158.4" stroke="rgb(0,0,0)"  stroke-width="2.0"/>
<line x1="180.0" y1="160.0" x2="160.0" y2="194.6" stroke="rgb(0,0,0)"  stroke-width="2.0"/>
<line x1="160.0" y1="194.6" x2="120.0" y2="194.6" stroke="rgb(0,0,0)"  stroke-width="2.0"/>
<line x1="154.0" y1="187.4" x2="126.0" y2="187.4" stroke="rgb(0,0,0)"  stroke-width="2.0"/>
<line x1="120.0" y1="194.6" x2="100.0" y2="160.0" stroke="rgb(0,0,0)"  stroke-width="2.0"/>
<line x1="100.0" y1="160.0" x2="120.0" y2="125.4" stroke="rgb(0,0,0)"  stroke-width="2.0"/>
<line x1="109.2" y1="158.4" x2="123.2" y2="134.2" stroke="rgb(0,0,0)"  stroke-width="2.0"/>
<line x1="120.0" y1="125.4" x2="160.0" y2="125.4" stroke="rgb(0,0,0)"  stroke-width="2.0"/>
<line x1="280.0" y1="45.4" x2="260.0" y2="80.0" stroke="rgb(0,0,0)"  stroke-width="2.0"/>
<line x1="283.2" y1="54.2" x2="269.2" y2="78.4" stroke="rgb(0,0,0)"  stroke-width="2.0"/>
<line x1="260.0" y1="80.0" x2="280.0" y2="114.6" stroke="rgb(0,0,0)"  stroke-width="2.0"/>
<line x1="280.0" y1="114.6" x2="320.0" y2="114.6" stroke="rgb(0,0,0)"  stroke-width="2.0"/>
<line x1="286.0" y1="107.4" x2="314.0" y2="107.4" stroke="rgb(0,0,0)"  stroke-width="2.0"/>
<line x1="320.0" y1="114.6" x2="340.0" y2="80.0" stroke="rgb(0,0,0)"  stroke-width="2.0"/>
<line x1="340.0" y1="80.0" x2="320.0" y2="45.4" stroke="rgb(0,0,0)"  stroke-width="2.0"/>
<line x1="330.8" y1="78.4" x2="316.8" y2="54.2" stroke="rgb(0,0,0)"  stroke-width="2.0"/>
<line x1="320.0" y1="45.4" x2="280.0" y2="45.4" stroke="rgb(0,0,0)"  stroke-width="2.0"/>
<text x="214.000000" y="128.000000" fill="rgb(12,12,255)"  stroke="rgb(12,12,255)" stroke-width="1" font-size="16" >NH</text>
<text x="174.000000" y="88.000000" fill="rgb(255,12,12)"  stroke="rgb(255,12,12)" stroke-width="1" font-size="16" >O</text>
<text x="214.000000" y="48.000000" fill="rgb(255,12,12)"  stroke="rgb(255,12,12)" stroke-width="1" font-size="16" >O</text>
<text x="394.000000" y="53.358984" fill="rgb(255,12,12)"  stroke="rgb(255,12,12)" stroke-width="1" font-size="16" >O</text>
<text x="394.000000" y="122.641016" fill="rgb(255,12,12)"  stroke="rgb(255,12,12)" stroke-width="1" font-size="16" >O</text>
<text x="374.000000" y="88.000000" fill="rgb(12,12,255)"  stroke="rgb(12,12,255)" stroke-width="1" font-size="16" >N</text>
<text x="214.000000" y="88.000000" fill="rgb(178,178,0)"  stroke="rgb(178,178,0)" stroke-width="1" font-size="16" >S</text>
<text x="34.000000" y="133.358984" fill="rgb(255,12,12)"  stroke="rgb(255,12,12)" stroke-width="1" font-size="16" >O</text>
<text x="254.000000" y="168.000000" fill="rgb(255,12,12)"  stroke="rgb(255,12,12)" stroke-width="1" font-size="16" >O</text>
<text x="214.000000" y="208.000000" fill="rgb(255,12,12)"  stroke="rgb(255,12,12)" stroke-width="1" font-size="16" >O</text>
<text x="214.000000" y="168.000000" fill="rgb(178,178,0)"  stroke="rgb(178,178,0)" stroke-width="1" font-size="16" >S</text>
<text x="34.000000" y="202.641016" fill="rgb(255,12,12)"  stroke="rgb(255,12,12)" stroke-width="1" font-size="16" >O</text>
<text x="54.000000" y="168.000000" fill="rgb(12,12,255)"  stroke="rgb(12,12,255)" stroke-width="1" font-size="16" >N</text>
</svg>
</g>
<text font-size="18.000000" fill ="black" font-family="sans-serif"
x="10.000000" y="20.000000" ></text>
</svg>
