<?xml version="1.0"?>
<svg version="1.1" id="topsvg"
xmlns="http://www.w3.org/2000/svg" xmlns:xlink="http://www.w3.org/1999/xlink"
xmlns:cml="http://www.xml-cml.org/schema" x="0" y="0" width="200px" height="200px" viewBox="0 0 100 100">
<title> - Open Babel Depiction</title>
<rect x="0" y="0" width="100" height="100" fill="white"/>
<g transform="translate(0,0)">
<svg width="100" height="100" x="0" y="0" viewBox="0 0 282.094 226.804"
font-family="sans-serif" stroke="rgb(0,0,0)" stroke-width="2"  stroke-linecap="round">
<line x1="97.0" y1="52.5" x2="72.4" y2="63.5" stroke="rgb(0,0,0)"  stroke-width="2.0"/>
<line x1="70.6" y1="65.9" x2="48.8" y2="50.1" stroke="rgb(0,0,0)"  stroke-width="2.0"/>
<line x1="74.1" y1="61.1" x2="52.3" y2="45.2" stroke="rgb(0,0,0)"  stroke-width="2.0"/>
<line x1="72.4" y1="63.5" x2="69.5" y2="90.4" stroke="rgb(0,0,0)"  stroke-width="2.0"/>
<line x1="78.7" y1="110.9" x2="100.5" y2="126.8" stroke="rgb(0,0,0)"  stroke-width="2.0"/>
<line x1="162.1" y1="146.8" x2="189.1" y2="146.8" stroke="rgb(0,0,0)"  stroke-width="2.0"/>
<line x1="205.1" y1="159.8" x2="205.1" y2="173.8" stroke="rgb(0,0,0)"  stroke-width="2.0"/>
<line x1="199.1" y1="159.8" x2="199.1" y2="173.8" stroke="rgb(0,0,0)"  stroke-width="2.0"/>
<line x1="215.1" y1="143.8" x2="229.1" y2="143.8" stroke="rgb(0,0,0)"  stroke-width="2.0"/>
<line x1="215.1" y1="149.8" x2="229.1" y2="149.8" stroke="rgb(0,0,0)"  stroke-width="2.0"/>
<line x1="202.1" y1="133.8" x2="202.1" y2="119.8" stroke="rgb(0,0,0)"  stroke-width="2.0"/>
<line x1="162.1" y1="146.8" x2="146.3" y2="168.5" stroke="rgb(0,0,0)"  stroke-width="2.0"/>
<line x1="152.7" y1="147.4" x2="141.7" y2="162.6" stroke="rgb(0,0,0)"  stroke-width="2.0"/>
<line x1="126.2" y1="175.1" x2="112.9" y2="170.8" stroke="rgb(0,0,0)"  stroke-width="2.0"/>
<line x1="100.5" y1="153.6" x2="100.5" y2="126.8" stroke="rgb(0,0,0)"  stroke-width="2.0"/>
<line x1="107.7" y1="151.6" x2="107.7" y2="132.8" stroke="rgb(0,0,0)"  stroke-width="2.0"/>
<line x1="100.5" y1="126.8" x2="126.2" y2="118.5" stroke="rgb(0,0,0)"  stroke-width="2.0"/>
<line x1="146.2" y1="125.0" x2="162.1" y2="146.8" stroke="rgb(0,0,0)"  stroke-width="2.0"/>
<text x="104.902498" y="55.241944" fill="rgb(102,102,102)"  stroke="rgb(102,102,102)" stroke-width="1" font-size="16" >CH</text>
<text x="128.902498" y="58.921944" fill="rgb(102,102,102)"  stroke="rgb(102,102,102)" stroke-width="1" font-size="13" >3</text>
<text x="34.000000" y="48.000000" fill="rgb(255,12,12)"  stroke="rgb(255,12,12)" stroke-width="1" font-size="16" >O</text>
<text x="50.179541" y="111.292286" fill="rgb(12,12,255)"  stroke="rgb(12,12,255)" stroke-width="1" font-size="16" >HN</text>
<text x="132.582482" y="122.443016" fill="rgb(178,178,0)"  stroke="rgb(178,178,0)" stroke-width="1" font-size="16" >S</text>
<text x="132.582482" y="187.164376" fill="rgb(12,12,255)"  stroke="rgb(12,12,255)" stroke-width="1" font-size="16" >N</text>
<text x="94.540221" y="174.803696" fill="rgb(12,12,255)"  stroke="rgb(12,12,255)" stroke-width="1" font-size="16" >N</text>
<text x="196.093892" y="154.803696" fill="rgb(178,178,0)"  stroke="rgb(178,178,0)" stroke-width="1" font-size="16" >S</text>
<text x="196.093892" y="194.803696" fill="rgb(255,12,12)"  stroke="rgb(255,12,12)" stroke-width="1" font-size="16" >O</text>
<text x="236.093892" y="154.803696" fill="rgb(255,12,12)"  stroke="rgb(255,12,12)" stroke-width="1" font-size="16" >O</text>
<text x="198.093892" y="114.803696" fill="rgb(12,12,255)"  stroke="rgb(12,12,255)" stroke-width="1" font-size="16" >NH</text>
<text x="222.093892" y="118.483696" fill="rgb(12,12,255)"  stroke="rgb(12,12,255)" stroke-width="1" font-size="13" >2</text>
</svg>
</g>
<text font-size="18.000000" fill ="black" font-family="sans-serif"
x="10.000000" y="20.000000" ></text>
</svg>
