<?xml version="1.0"?>
<svg version="1.1" id="topsvg"
xmlns="http://www.w3.org/2000/svg" xmlns:xlink="http://www.w3.org/1999/xlink"
xmlns:cml="http://www.xml-cml.org/schema" x="0" y="0" width="200px" height="200px" viewBox="0 0 100 100">
<title> - Open Babel Depiction</title>
<rect x="0" y="0" width="100" height="100" fill="white"/>
<g transform="translate(0,0)">
<svg width="100" height="100" x="0" y="0" viewBox="0 0 403.923 373.205"
font-family="sans-serif" stroke="rgb(0,0,0)" stroke-width="2"  stroke-linecap="round">
<line x1="363.9" y1="300.2" x2="363.9" y2="286.2" stroke="rgb(0,0,0)"  stroke-width="2.0"/>
<line x1="352.7" y1="266.7" x2="329.3" y2="253.2" stroke="rgb(0,0,0)"  stroke-width="2.0"/>
<line x1="326.3" y1="253.2" x2="326.3" y2="226.2" stroke="rgb(0,0,0)"  stroke-width="2.0"/>
<line x1="332.3" y1="253.2" x2="332.3" y2="226.2" stroke="rgb(0,0,0)"  stroke-width="2.0"/>
<line x1="329.3" y1="253.2" x2="294.6" y2="273.2" stroke="rgb(0,0,0)"  stroke-width="2.0"/>
<line x1="260.0" y1="253.2" x2="260.0" y2="226.2" stroke="rgb(0,0,0)"  stroke-width="2.0"/>
<line x1="273.0" y1="210.2" x2="287.0" y2="210.2" stroke="rgb(0,0,0)"  stroke-width="2.0"/>
<line x1="273.0" y1="216.2" x2="287.0" y2="216.2" stroke="rgb(0,0,0)"  stroke-width="2.0"/>
<line x1="257.0" y1="200.2" x2="257.0" y2="186.2" stroke="rgb(0,0,0)"  stroke-width="2.0"/>
<line x1="263.0" y1="200.2" x2="263.0" y2="186.2" stroke="rgb(0,0,0)"  stroke-width="2.0"/>
<line x1="247.0" y1="213.2" x2="233.0" y2="213.2" stroke="rgb(0,0,0)"  stroke-width="2.0"/>
<line x1="213.5" y1="201.9" x2="200.0" y2="178.6" stroke="rgb(0,0,0)"  stroke-width="2.0"/>
<line x1="197.4" y1="177.1" x2="210.9" y2="153.7" stroke="rgb(0,0,0)"  stroke-width="2.0"/>
<line x1="202.6" y1="180.1" x2="216.1" y2="156.7" stroke="rgb(0,0,0)"  stroke-width="2.0"/>
<line x1="200.0" y1="178.6" x2="173.0" y2="178.6" stroke="rgb(0,0,0)"  stroke-width="2.0"/>
<line x1="153.5" y1="167.3" x2="140.0" y2="143.9" stroke="rgb(0,0,0)"  stroke-width="2.0"/>
<line x1="80.0" y1="109.3" x2="53.0" y2="109.3" stroke="rgb(0,0,0)"  stroke-width="2.0"/>
<line x1="140.0" y1="74.6" x2="153.5" y2="51.3" stroke="rgb(0,0,0)"  stroke-width="2.0"/>
<line x1="260.0" y1="333.2" x2="225.4" y2="313.2" stroke="rgb(0,0,0)"  stroke-width="2.0"/>
<line x1="258.4" y1="324.0" x2="234.2" y2="310.0" stroke="rgb(0,0,0)"  stroke-width="2.0"/>
<line x1="225.4" y1="313.2" x2="225.4" y2="273.2" stroke="rgb(0,0,0)"  stroke-width="2.0"/>
<line x1="225.4" y1="273.2" x2="260.0" y2="253.2" stroke="rgb(0,0,0)"  stroke-width="2.0"/>
<line x1="234.2" y1="276.4" x2="258.4" y2="262.4" stroke="rgb(0,0,0)"  stroke-width="2.0"/>
<line x1="260.0" y1="253.2" x2="294.6" y2="273.2" stroke="rgb(0,0,0)"  stroke-width="2.0"/>
<line x1="294.6" y1="273.2" x2="294.6" y2="313.2" stroke="rgb(0,0,0)"  stroke-width="2.0"/>
<line x1="287.4" y1="279.2" x2="287.4" y2="307.2" stroke="rgb(0,0,0)"  stroke-width="2.0"/>
<line x1="294.6" y1="313.2" x2="260.0" y2="333.2" stroke="rgb(0,0,0)"  stroke-width="2.0"/>
<line x1="113.2" y1="143.9" x2="140.0" y2="143.9" stroke="rgb(0,0,0)"  stroke-width="2.0"/>
<line x1="115.2" y1="136.7" x2="134.0" y2="136.7" stroke="rgb(0,0,0)"  stroke-width="2.0"/>
<line x1="140.0" y1="143.9" x2="153.5" y2="120.5" stroke="rgb(0,0,0)"  stroke-width="2.0"/>
<line x1="153.4" y1="97.9" x2="140.0" y2="74.6" stroke="rgb(0,0,0)"  stroke-width="2.0"/>
<line x1="146.2" y1="99.7" x2="136.8" y2="83.4" stroke="rgb(0,0,0)"  stroke-width="2.0"/>
<line x1="140.0" y1="74.6" x2="100.0" y2="74.6" stroke="rgb(0,0,0)"  stroke-width="2.0"/>
<line x1="100.0" y1="74.6" x2="80.0" y2="109.3" stroke="rgb(0,0,0)"  stroke-width="2.0"/>
<line x1="103.2" y1="83.4" x2="89.2" y2="107.7" stroke="rgb(0,0,0)"  stroke-width="2.0"/>
<line x1="80.0" y1="109.3" x2="93.5" y2="132.7" stroke="rgb(0,0,0)"  stroke-width="2.0"/>
<text x="254.000000" y="181.205081" fill="rgb(255,12,12)"  stroke="rgb(255,12,12)" stroke-width="1" font-size="16" >O</text>
<text x="156.000000" y="48.000000" fill="rgb(102,102,102)"  stroke="rgb(102,102,102)" stroke-width="1" font-size="16" >CH</text>
<text x="180.000000" y="51.680000" fill="rgb(102,102,102)"  stroke="rgb(102,102,102)" stroke-width="1" font-size="13" >3</text>
<text x="154.000000" y="117.282032" fill="rgb(12,12,255)"  stroke="rgb(12,12,255)" stroke-width="1" font-size="16" >N</text>
<text x="14.000000" y="117.282032" fill="rgb(102,102,102)"  stroke="rgb(102,102,102)" stroke-width="1" font-size="16" >H</text>
<text x="26.000000" y="120.962032" fill="rgb(102,102,102)"  stroke="rgb(102,102,102)" stroke-width="1" font-size="13" >3</text>
<text x="32.500000" y="117.282032" fill="rgb(102,102,102)"  stroke="rgb(102,102,102)" stroke-width="1" font-size="16" >C</text>
<text x="94.000000" y="151.923048" fill="rgb(12,12,255)"  stroke="rgb(12,12,255)" stroke-width="1" font-size="16" >N</text>
<text x="154.000000" y="186.564065" fill="rgb(12,12,255)"  stroke="rgb(12,12,255)" stroke-width="1" font-size="16" >N</text>
<text x="154.000000" y="202.564065" fill="rgb(12,12,255)"  stroke="rgb(12,12,255)" stroke-width="1" font-size="16" >H</text>
<text x="214.000000" y="151.923048" fill="rgb(255,12,12)"  stroke="rgb(255,12,12)" stroke-width="1" font-size="16" >O</text>
<text x="214.000000" y="221.205081" fill="rgb(12,12,255)"  stroke="rgb(12,12,255)" stroke-width="1" font-size="16" >N</text>
<text x="214.000000" y="237.205081" fill="rgb(12,12,255)"  stroke="rgb(12,12,255)" stroke-width="1" font-size="16" >H</text>
<text x="359.923048" y="321.205081" fill="rgb(102,102,102)"  stroke="rgb(102,102,102)" stroke-width="1" font-size="16" >CH</text>
<text x="383.923048" y="324.885081" fill="rgb(102,102,102)"  stroke="rgb(102,102,102)" stroke-width="1" font-size="13" >3</text>
<text x="294.000000" y="221.205081" fill="rgb(255,12,12)"  stroke="rgb(255,12,12)" stroke-width="1" font-size="16" >O</text>
<text x="254.000000" y="221.205081" fill="rgb(178,178,0)"  stroke="rgb(178,178,0)" stroke-width="1" font-size="16" >S</text>
<text x="323.282032" y="221.205081" fill="rgb(255,12,12)"  stroke="rgb(255,12,12)" stroke-width="1" font-size="16" >O</text>
<text x="357.923048" y="281.205081" fill="rgb(255,12,12)"  stroke="rgb(255,12,12)" stroke-width="1" font-size="16" >O</text>
</svg>
</g>
<text font-size="18.000000" fill ="black" font-family="sans-serif"
x="10.000000" y="20.000000" ></text>
</svg>
