<?xml version="1.0"?>
<svg version="1.1" id="topsvg"
xmlns="http://www.w3.org/2000/svg" xmlns:xlink="http://www.w3.org/1999/xlink"
xmlns:cml="http://www.xml-cml.org/schema" x="0" y="0" width="200px" height="200px" viewBox="0 0 100 100">
<title> - Open Babel Depiction</title>
<rect x="0" y="0" width="100" height="100" fill="white"/>
<g transform="translate(0,0)">
<svg width="100" height="100" x="0" y="0" viewBox="0 0 300 253.205"
font-family="sans-serif" stroke="rgb(0,0,0)" stroke-width="2"  stroke-linecap="round">
<line x1="186.5" y1="155.2" x2="200.0" y2="178.6" stroke="rgb(0,0,0)"  stroke-width="2.0"/>
<line x1="200.0" y1="178.6" x2="180.0" y2="213.2" stroke="rgb(0,0,0)"  stroke-width="2.0"/>
<line x1="180.0" y1="213.2" x2="153.0" y2="213.2" stroke="rgb(0,0,0)"  stroke-width="2.0"/>
<line x1="133.5" y1="201.9" x2="126.5" y2="189.8" stroke="rgb(0,0,0)"  stroke-width="2.0"/>
<line x1="126.5" y1="167.3" x2="140.0" y2="143.9" stroke="rgb(0,0,0)"  stroke-width="2.0"/>
<line x1="140.0" y1="143.9" x2="120.0" y2="109.3" stroke="rgb(0,0,0)"  stroke-width="2.0"/>
<line x1="120.0" y1="109.3" x2="93.0" y2="109.3" stroke="rgb(0,0,0)"  stroke-width="2.0"/>
<line x1="80.0" y1="122.3" x2="80.0" y2="136.3" stroke="rgb(0,0,0)"  stroke-width="2.0"/>
<line x1="67.0" y1="109.3" x2="53.0" y2="109.3" stroke="rgb(0,0,0)"  stroke-width="2.0"/>
<line x1="80.0" y1="96.3" x2="80.0" y2="82.3" stroke="rgb(0,0,0)"  stroke-width="2.0"/>
<line x1="120.0" y1="109.3" x2="140.0" y2="74.6" stroke="rgb(0,0,0)"  stroke-width="2.0"/>
<line x1="140.0" y1="74.6" x2="126.5" y2="51.3" stroke="rgb(0,0,0)"  stroke-width="2.0"/>
<line x1="140.0" y1="71.6" x2="167.0" y2="71.6" stroke="rgb(0,0,0)"  stroke-width="2.0"/>
<line x1="140.0" y1="77.6" x2="167.0" y2="77.6" stroke="rgb(0,0,0)"  stroke-width="2.0"/>
<line x1="200.0" y1="178.6" x2="240.0" y2="178.6" stroke="rgb(0,0,0)"  stroke-width="2.0"/>
<line x1="240.0" y1="178.6" x2="253.5" y2="201.9" stroke="rgb(0,0,0)"  stroke-width="2.0"/>
<line x1="237.4" y1="177.1" x2="250.9" y2="153.7" stroke="rgb(0,0,0)"  stroke-width="2.0"/>
<line x1="242.6" y1="180.1" x2="256.1" y2="156.7" stroke="rgb(0,0,0)"  stroke-width="2.0"/>
<text x="74.000000" y="157.282032" fill="rgb(191,191,191)"  stroke="rgb(191,191,191)" stroke-width="1" font-size="16" >H</text>
<text x="254.000000" y="151.923048" fill="rgb(255,12,12)"  stroke="rgb(255,12,12)" stroke-width="1" font-size="16" >O</text>
<text x="254.000000" y="221.205081" fill="rgb(255,12,12)"  stroke="rgb(255,12,12)" stroke-width="1" font-size="16" >OH</text>
<text x="174.000000" y="82.641016" fill="rgb(255,12,12)"  stroke="rgb(255,12,12)" stroke-width="1" font-size="16" >O</text>
<text x="124.800000" y="25.888000" fill="rgb(255,12,12)"  stroke="rgb(255,12,12)" stroke-width="1" font-size="16" >_</text>
<text x="114.000000" y="48.000000" fill="rgb(255,12,12)"  stroke="rgb(255,12,12)" stroke-width="1" font-size="16" >O</text>
<text x="74.000000" y="77.282032" fill="rgb(191,191,191)"  stroke="rgb(191,191,191)" stroke-width="1" font-size="16" >H</text>
<text x="34.000000" y="117.282032" fill="rgb(191,191,191)"  stroke="rgb(191,191,191)" stroke-width="1" font-size="16" >H</text>
<text x="154.000000" y="151.923048" fill="rgb(12,12,255)"  stroke="rgb(12,12,255)" stroke-width="1" font-size="16" >H</text>
<text x="166.000000" y="155.603048" fill="rgb(12,12,255)"  stroke="rgb(12,12,255)" stroke-width="1" font-size="13" >2</text>
<text x="172.500000" y="151.923048" fill="rgb(12,12,255)"  stroke="rgb(12,12,255)" stroke-width="1" font-size="16" >N</text>
<text x="84.800000" y="105.250032" fill="rgb(12,12,255)"  stroke="rgb(12,12,255)" stroke-width="1" font-size="16" >+</text>
<text x="74.000000" y="117.282032" fill="rgb(12,12,255)"  stroke="rgb(12,12,255)" stroke-width="1" font-size="16" >N</text>
<text x="114.000000" y="186.564065" fill="rgb(178,178,0)"  stroke="rgb(178,178,0)" stroke-width="1" font-size="16" >S</text>
<text x="134.000000" y="221.205081" fill="rgb(178,178,0)"  stroke="rgb(178,178,0)" stroke-width="1" font-size="16" >S</text>
</svg>
</g>
<text font-size="18.000000" fill ="black" font-family="sans-serif"
x="10.000000" y="20.000000" ></text>
</svg>
