<?xml version="1.0"?>
<svg version="1.1" id="topsvg"
xmlns="http://www.w3.org/2000/svg" xmlns:xlink="http://www.w3.org/1999/xlink"
xmlns:cml="http://www.xml-cml.org/schema" x="0" y="0" width="200px" height="200px" viewBox="0 0 100 100">
<title> - Open Babel Depiction</title>
<rect x="0" y="0" width="100" height="100" fill="white"/>
<g transform="translate(0,0)">
<svg width="100" height="100" x="0" y="0" viewBox="0 0 414.843 423.381"
font-family="sans-serif" stroke="rgb(0,0,0)" stroke-width="2"  stroke-linecap="round">
<line x1="116.8" y1="371.4" x2="126.2" y2="348.6" stroke="rgb(0,0,0)"  stroke-width="2.0"/>
<line x1="126.2" y1="348.6" x2="156.0" y2="325.7" stroke="rgb(0,0,0)"  stroke-width="2.0"/>
<line x1="192.4" y1="335.4" x2="206.8" y2="370.1" stroke="rgb(0,0,0)"  stroke-width="2.0"/>
<line x1="206.8" y1="370.1" x2="231.0" y2="365.6" stroke="rgb(0,0,0)"  stroke-width="2.0"/>
<line x1="83.3" y1="199.8" x2="48.5" y2="214.3" stroke="rgb(0,0,0)"  stroke-width="2.0"/>
<line x1="48.5" y1="214.3" x2="45.0" y2="238.6" stroke="rgb(0,0,0)"  stroke-width="2.0"/>
<line x1="168.5" y1="203.2" x2="182.7" y2="207.0" stroke="rgb(0,0,0)"  stroke-width="2.0"/>
<line x1="218.9" y1="90.8" x2="204.5" y2="56.0" stroke="rgb(0,0,0)"  stroke-width="2.0"/>
<line x1="204.5" y1="56.0" x2="180.9" y2="63.0" stroke="rgb(0,0,0)"  stroke-width="2.0"/>
<line x1="255.2" y1="100.5" x2="285.0" y2="77.6" stroke="rgb(0,0,0)"  stroke-width="2.0"/>
<line x1="285.0" y1="77.6" x2="284.3" y2="53.0" stroke="rgb(0,0,0)"  stroke-width="2.0"/>
<line x1="327.9" y1="226.3" x2="362.7" y2="211.9" stroke="rgb(0,0,0)"  stroke-width="2.0"/>
<line x1="362.7" y1="211.9" x2="357.9" y2="187.8" stroke="rgb(0,0,0)"  stroke-width="2.0"/>
<line x1="242.7" y1="223.0" x2="229.0" y2="219.3" stroke="rgb(0,0,0)"  stroke-width="2.0"/>
<line x1="318.2" y1="262.7" x2="341.1" y2="292.5" stroke="rgb(0,0,0)"  stroke-width="2.0"/>
<line x1="341.1" y1="292.5" x2="363.2" y2="281.6" stroke="rgb(0,0,0)"  stroke-width="2.0"/>
<line x1="93.0" y1="163.5" x2="70.1" y2="133.7" stroke="rgb(0,0,0)"  stroke-width="2.0"/>
<line x1="70.1" y1="133.7" x2="50.4" y2="148.4" stroke="rgb(0,0,0)"  stroke-width="2.0"/>
<line x1="291.6" y1="205.4" x2="266.5" y2="219.9" stroke="rgb(0,0,0)"  stroke-width="2.0"/>
<line x1="261.8" y1="237.6" x2="276.3" y2="262.7" stroke="rgb(0,0,0)"  stroke-width="2.0"/>
<line x1="276.3" y1="262.7" x2="318.2" y2="262.7" stroke="rgb(0,0,0)"  stroke-width="2.0"/>
<line x1="318.2" y1="262.7" x2="327.9" y2="226.3" stroke="rgb(0,0,0)"  stroke-width="2.0"/>
<line x1="312.8" y1="255.0" x2="319.4" y2="230.3" stroke="rgb(0,0,0)"  stroke-width="2.0"/>
<line x1="327.9" y1="226.3" x2="291.6" y2="205.4" stroke="rgb(0,0,0)"  stroke-width="2.0"/>
<line x1="119.6" y1="220.8" x2="144.7" y2="206.3" stroke="rgb(0,0,0)"  stroke-width="2.0"/>
<line x1="149.5" y1="188.6" x2="135.0" y2="163.5" stroke="rgb(0,0,0)"  stroke-width="2.0"/>
<line x1="135.0" y1="163.5" x2="93.0" y2="163.5" stroke="rgb(0,0,0)"  stroke-width="2.0"/>
<line x1="129.0" y1="170.7" x2="99.0" y2="170.7" stroke="rgb(0,0,0)"  stroke-width="2.0"/>
<line x1="93.0" y1="163.5" x2="83.3" y2="199.8" stroke="rgb(0,0,0)"  stroke-width="2.0"/>
<line x1="83.3" y1="199.8" x2="119.6" y2="220.8" stroke="rgb(0,0,0)"  stroke-width="2.0"/>
<line x1="92.1" y1="196.6" x2="118.0" y2="211.6" stroke="rgb(0,0,0)"  stroke-width="2.0"/>
<line x1="192.4" y1="335.4" x2="156.0" y2="325.7" stroke="rgb(0,0,0)"  stroke-width="2.0"/>
<line x1="188.4" y1="326.9" x2="163.7" y2="320.3" stroke="rgb(0,0,0)"  stroke-width="2.0"/>
<line x1="156.0" y1="325.7" x2="156.0" y2="283.7" stroke="rgb(0,0,0)"  stroke-width="2.0"/>
<line x1="156.0" y1="283.7" x2="181.1" y2="269.2" stroke="rgb(0,0,0)"  stroke-width="2.0"/>
<line x1="199.3" y1="274.7" x2="213.3" y2="299.1" stroke="rgb(0,0,0)"  stroke-width="2.0"/>
<line x1="193.9" y1="279.9" x2="204.1" y2="297.5" stroke="rgb(0,0,0)"  stroke-width="2.0"/>
<line x1="213.3" y1="299.1" x2="192.4" y2="335.4" stroke="rgb(0,0,0)"  stroke-width="2.0"/>
<line x1="197.9" y1="127.1" x2="218.9" y2="90.8" stroke="rgb(0,0,0)"  stroke-width="2.0"/>
<line x1="218.9" y1="90.8" x2="255.2" y2="100.5" stroke="rgb(0,0,0)"  stroke-width="2.0"/>
<line x1="222.8" y1="99.3" x2="247.5" y2="105.9" stroke="rgb(0,0,0)"  stroke-width="2.0"/>
<line x1="255.2" y1="100.5" x2="255.2" y2="142.4" stroke="rgb(0,0,0)"  stroke-width="2.0"/>
<line x1="255.2" y1="142.4" x2="230.9" y2="156.5" stroke="rgb(0,0,0)"  stroke-width="2.0"/>
<line x1="246.4" y1="139.2" x2="228.8" y2="149.4" stroke="rgb(0,0,0)"  stroke-width="2.0"/>
<line x1="212.4" y1="152.2" x2="197.9" y2="127.1" stroke="rgb(0,0,0)"  stroke-width="2.0"/>
<line x1="255.2" y1="142.4" x2="291.5" y2="163.4" stroke="rgb(0,0,0)"  stroke-width="2.0"/>
<line x1="291.5" y1="163.4" x2="291.6" y2="205.4" stroke="rgb(0,0,0)"  stroke-width="2.0"/>
<line x1="284.4" y1="169.4" x2="284.4" y2="199.4" stroke="rgb(0,0,0)"  stroke-width="2.0"/>
<line x1="276.3" y1="262.7" x2="255.3" y2="299.0" stroke="rgb(0,0,0)"  stroke-width="2.0"/>
<line x1="267.0" y1="264.3" x2="252.1" y2="290.2" stroke="rgb(0,0,0)"  stroke-width="2.0"/>
<line x1="255.3" y1="299.0" x2="213.3" y2="299.1" stroke="rgb(0,0,0)"  stroke-width="2.0"/>
<line x1="156.0" y1="283.7" x2="119.7" y2="262.8" stroke="rgb(0,0,0)"  stroke-width="2.0"/>
<line x1="154.4" y1="274.5" x2="128.5" y2="259.5" stroke="rgb(0,0,0)"  stroke-width="2.0"/>
<line x1="119.7" y1="262.8" x2="119.6" y2="220.8" stroke="rgb(0,0,0)"  stroke-width="2.0"/>
<line x1="135.0" y1="163.5" x2="155.9" y2="127.1" stroke="rgb(0,0,0)"  stroke-width="2.0"/>
<line x1="155.9" y1="127.1" x2="197.9" y2="127.1" stroke="rgb(0,0,0)"  stroke-width="2.0"/>
<line x1="161.9" y1="134.3" x2="191.9" y2="134.3" stroke="rgb(0,0,0)"  stroke-width="2.0"/>
<text x="257.995402" y="48.000000" fill="rgb(102,102,102)"  stroke="rgb(102,102,102)" stroke-width="1" font-size="16" >H</text>
<text x="269.995402" y="51.680000" fill="rgb(102,102,102)"  stroke="rgb(102,102,102)" stroke-width="1" font-size="13" >3</text>
<text x="276.495402" y="48.000000" fill="rgb(102,102,102)"  stroke="rgb(102,102,102)" stroke-width="1" font-size="16" >C</text>
<text x="212.888329" y="171.439825" fill="rgb(12,12,255)"  stroke="rgb(12,12,255)" stroke-width="1" font-size="16" >N</text>
<text x="329.338305" y="183.068134" fill="rgb(102,102,102)"  stroke="rgb(102,102,102)" stroke-width="1" font-size="16" >H</text>
<text x="341.338305" y="186.748134" fill="rgb(102,102,102)"  stroke="rgb(102,102,102)" stroke-width="1" font-size="13" >3</text>
<text x="347.838305" y="183.068134" fill="rgb(102,102,102)"  stroke="rgb(102,102,102)" stroke-width="1" font-size="16" >C</text>
<text x="249.263788" y="234.376756" fill="rgb(12,12,255)"  stroke="rgb(12,12,255)" stroke-width="1" font-size="16" >N</text>
<text x="210.401800" y="223.982971" fill="rgb(191,191,191)"  stroke="rgb(191,191,191)" stroke-width="1" font-size="16" >H</text>
<text x="186.344048" y="270.742279" fill="rgb(12,12,255)"  stroke="rgb(12,12,255)" stroke-width="1" font-size="16" >N</text>
<text x="370.842733" y="283.866256" fill="rgb(102,102,102)"  stroke="rgb(102,102,102)" stroke-width="1" font-size="16" >CH</text>
<text x="394.842733" y="287.546256" fill="rgb(102,102,102)"  stroke="rgb(102,102,102)" stroke-width="1" font-size="13" >3</text>
<text x="14.000000" y="164.217244" fill="rgb(102,102,102)"  stroke="rgb(102,102,102)" stroke-width="1" font-size="16" >H</text>
<text x="26.000000" y="167.897244" fill="rgb(102,102,102)"  stroke="rgb(102,102,102)" stroke-width="1" font-size="13" >3</text>
<text x="32.500000" y="164.217244" fill="rgb(102,102,102)"  stroke="rgb(102,102,102)" stroke-width="1" font-size="16" >C</text>
<text x="17.198029" y="259.486967" fill="rgb(102,102,102)"  stroke="rgb(102,102,102)" stroke-width="1" font-size="16" >H</text>
<text x="29.198029" y="263.166967" fill="rgb(102,102,102)"  stroke="rgb(102,102,102)" stroke-width="1" font-size="13" >3</text>
<text x="35.698029" y="259.486967" fill="rgb(102,102,102)"  stroke="rgb(102,102,102)" stroke-width="1" font-size="16" >C</text>
<text x="239.764437" y="371.272523" fill="rgb(102,102,102)"  stroke="rgb(102,102,102)" stroke-width="1" font-size="16" >CH</text>
<text x="263.764437" y="374.952523" fill="rgb(102,102,102)"  stroke="rgb(102,102,102)" stroke-width="1" font-size="13" >3</text>
<text x="85.839298" y="391.381426" fill="rgb(102,102,102)"  stroke="rgb(102,102,102)" stroke-width="1" font-size="16" >H</text>
<text x="97.839298" y="395.061426" fill="rgb(102,102,102)"  stroke="rgb(102,102,102)" stroke-width="1" font-size="13" >3</text>
<text x="104.339298" y="391.381426" fill="rgb(102,102,102)"  stroke="rgb(102,102,102)" stroke-width="1" font-size="16" >C</text>
<text x="149.968589" y="207.805348" fill="rgb(12,12,255)"  stroke="rgb(12,12,255)" stroke-width="1" font-size="16" >N</text>
<text x="189.265795" y="218.315534" fill="rgb(191,191,191)"  stroke="rgb(191,191,191)" stroke-width="1" font-size="16" >H</text>
<text x="142.412424" y="74.736987" fill="rgb(102,102,102)"  stroke="rgb(102,102,102)" stroke-width="1" font-size="16" >H</text>
<text x="154.412424" y="78.416987" fill="rgb(102,102,102)"  stroke="rgb(102,102,102)" stroke-width="1" font-size="13" >3</text>
<text x="160.912424" y="74.736987" fill="rgb(102,102,102)"  stroke="rgb(102,102,102)" stroke-width="1" font-size="16" >C</text>
</svg>
</g>
<text font-size="18.000000" fill ="black" font-family="sans-serif"
x="10.000000" y="20.000000" ></text>
</svg>
