<?xml version="1.0"?>
<svg version="1.1" id="topsvg"
xmlns="http://www.w3.org/2000/svg" xmlns:xlink="http://www.w3.org/1999/xlink"
xmlns:cml="http://www.xml-cml.org/schema" x="0" y="0" width="200px" height="200px" viewBox="0 0 100 100">
<title> - Open Babel Depiction</title>
<rect x="0" y="0" width="100" height="100" fill="white"/>
<g transform="translate(0,0)">
<svg width="100" height="100" x="0" y="0" viewBox="0 0 349.704 287.446"
font-family="sans-serif" stroke="rgb(0,0,0)" stroke-width="2"  stroke-linecap="round">
<line x1="107.1" y1="103.4" x2="107.1" y2="130.6" stroke="rgb(0,0,0)"  stroke-width="2.0"/>
<line x1="207.8" y1="188.6" x2="207.8" y2="161.5" stroke="rgb(0,0,0)"  stroke-width="2.0"/>
<line x1="276.4" y1="224.8" x2="299.9" y2="238.4" stroke="rgb(0,0,0)"  stroke-width="2.0"/>
<line x1="273.4" y1="230.0" x2="296.9" y2="243.5" stroke="rgb(0,0,0)"  stroke-width="2.0"/>
<line x1="73.5" y1="111.2" x2="73.5" y2="72.5" stroke="rgb(0,0,0)"  stroke-width="2.0"/>
<line x1="73.5" y1="72.5" x2="99.2" y2="71.1" stroke="rgb(0,0,0)"  stroke-width="2.0"/>
<line x1="71.0" y1="74.1" x2="57.0" y2="52.5" stroke="rgb(0,0,0)"  stroke-width="2.0"/>
<line x1="76.0" y1="70.8" x2="62.0" y2="49.3" stroke="rgb(0,0,0)"  stroke-width="2.0"/>
<line x1="40.0" y1="130.6" x2="40.0" y2="169.3" stroke="rgb(0,0,0)"  stroke-width="2.0"/>
<line x1="40.0" y1="169.3" x2="107.1" y2="169.3" stroke="rgb(0,0,0)"  stroke-width="2.0"/>
<line x1="107.1" y1="169.3" x2="107.1" y2="130.6" stroke="rgb(0,0,0)"  stroke-width="2.0"/>
<line x1="107.1" y1="130.6" x2="73.5" y2="111.2" stroke="rgb(0,0,0)"  stroke-width="2.0"/>
<line x1="73.5" y1="111.2" x2="40.0" y2="130.6" stroke="rgb(0,0,0)"  stroke-width="2.0"/>
<line x1="174.2" y1="130.5" x2="140.7" y2="111.2" stroke="rgb(0,0,0)"  stroke-width="2.0"/>
<line x1="140.7" y1="111.2" x2="107.1" y2="130.6" stroke="rgb(0,0,0)"  stroke-width="2.0"/>
<line x1="107.1" y1="169.3" x2="140.7" y2="188.7" stroke="rgb(0,0,0)"  stroke-width="2.0"/>
<line x1="140.7" y1="188.7" x2="174.2" y2="169.3" stroke="rgb(0,0,0)"  stroke-width="2.0"/>
<line x1="174.2" y1="169.3" x2="174.2" y2="130.5" stroke="rgb(0,0,0)"  stroke-width="2.0"/>
<line x1="207.8" y1="227.4" x2="207.8" y2="188.6" stroke="rgb(0,0,0)"  stroke-width="2.0"/>
<line x1="207.8" y1="188.6" x2="174.2" y2="169.3" stroke="rgb(0,0,0)"  stroke-width="2.0"/>
<line x1="140.7" y1="188.7" x2="140.7" y2="227.4" stroke="rgb(0,0,0)"  stroke-width="2.0"/>
<line x1="140.7" y1="227.4" x2="174.3" y2="246.8" stroke="rgb(0,0,0)"  stroke-width="2.0"/>
<line x1="174.3" y1="246.8" x2="207.8" y2="227.4" stroke="rgb(0,0,0)"  stroke-width="2.0"/>
<line x1="241.4" y1="246.8" x2="207.8" y2="227.4" stroke="rgb(0,0,0)"  stroke-width="2.0"/>
<line x1="239.8" y1="237.5" x2="216.6" y2="224.2" stroke="rgb(0,0,0)"  stroke-width="2.0"/>
<line x1="207.8" y1="188.6" x2="241.3" y2="169.2" stroke="rgb(0,0,0)"  stroke-width="2.0"/>
<line x1="241.3" y1="169.2" x2="274.9" y2="188.6" stroke="rgb(0,0,0)"  stroke-width="2.0"/>
<line x1="274.9" y1="188.6" x2="274.9" y2="227.4" stroke="rgb(0,0,0)"  stroke-width="2.0"/>
<line x1="274.9" y1="227.4" x2="241.4" y2="246.8" stroke="rgb(0,0,0)"  stroke-width="2.0"/>
<text x="46.385166" y="48.000000" fill="rgb(255,12,12)"  stroke="rgb(255,12,12)" stroke-width="1" font-size="16" >O</text>
<text x="108.158224" y="78.411568" fill="rgb(102,102,102)"  stroke="rgb(102,102,102)" stroke-width="1" font-size="16" >CH</text>
<text x="132.158224" y="82.091568" fill="rgb(102,102,102)"  stroke="rgb(102,102,102)" stroke-width="1" font-size="13" >3</text>
<text x="303.703566" y="255.446281" fill="rgb(255,12,12)"  stroke="rgb(255,12,12)" stroke-width="1" font-size="16" >O</text>
<text x="203.797890" y="156.470528" fill="rgb(102,102,102)"  stroke="rgb(102,102,102)" stroke-width="1" font-size="16" >CH</text>
<text x="227.797890" y="160.150528" fill="rgb(102,102,102)"  stroke="rgb(102,102,102)" stroke-width="1" font-size="13" >3</text>
<text x="103.077447" y="98.383746" fill="rgb(102,102,102)"  stroke="rgb(102,102,102)" stroke-width="1" font-size="16" >CH</text>
<text x="127.077447" y="102.063746" fill="rgb(102,102,102)"  stroke="rgb(102,102,102)" stroke-width="1" font-size="13" >3</text>
</svg>
</g>
<text font-size="18.000000" fill ="black" font-family="sans-serif"
x="10.000000" y="20.000000" ></text>
</svg>
