<?xml version="1.0"?>
<svg version="1.1" id="topsvg"
xmlns="http://www.w3.org/2000/svg" xmlns:xlink="http://www.w3.org/1999/xlink"
xmlns:cml="http://www.xml-cml.org/schema" x="0" y="0" width="200px" height="200px" viewBox="0 0 100 100">
<title> - Open Babel Depiction</title>
<rect x="0" y="0" width="100" height="100" fill="white"/>
<g transform="translate(0,0)">
<svg width="100" height="100" x="0" y="0" viewBox="0 0 287.846 260"
font-family="sans-serif" stroke="rgb(0,0,0)" stroke-width="2"  stroke-linecap="round">
<line x1="213.2" y1="207.0" x2="213.2" y2="180.0" stroke="rgb(0,0,0)"  stroke-width="2.0"/>
<line x1="211.7" y1="177.4" x2="235.1" y2="163.9" stroke="rgb(0,0,0)"  stroke-width="2.0"/>
<line x1="214.7" y1="182.6" x2="238.1" y2="169.1" stroke="rgb(0,0,0)"  stroke-width="2.0"/>
<line x1="213.2" y1="180.0" x2="178.6" y2="160.0" stroke="rgb(0,0,0)"  stroke-width="2.0"/>
<line x1="109.3" y1="120.0" x2="74.6" y2="100.0" stroke="rgb(0,0,0)"  stroke-width="2.0"/>
<line x1="74.6" y1="100.0" x2="74.6" y2="73.0" stroke="rgb(0,0,0)"  stroke-width="2.0"/>
<line x1="76.1" y1="102.6" x2="52.8" y2="116.1" stroke="rgb(0,0,0)"  stroke-width="2.0"/>
<line x1="73.1" y1="97.4" x2="49.8" y2="110.9" stroke="rgb(0,0,0)"  stroke-width="2.0"/>
<line x1="143.9" y1="100.0" x2="143.9" y2="60.0" stroke="rgb(0,0,0)"  stroke-width="2.0"/>
<line x1="143.9" y1="60.0" x2="167.3" y2="46.5" stroke="rgb(0,0,0)"  stroke-width="2.0"/>
<line x1="142.4" y1="62.6" x2="119.0" y2="49.1" stroke="rgb(0,0,0)"  stroke-width="2.0"/>
<line x1="145.4" y1="57.4" x2="122.0" y2="43.9" stroke="rgb(0,0,0)"  stroke-width="2.0"/>
<line x1="143.9" y1="180.0" x2="178.6" y2="160.0" stroke="rgb(0,0,0)"  stroke-width="2.0"/>
<line x1="145.5" y1="170.8" x2="169.8" y2="156.8" stroke="rgb(0,0,0)"  stroke-width="2.0"/>
<line x1="178.6" y1="160.0" x2="178.6" y2="120.0" stroke="rgb(0,0,0)"  stroke-width="2.0"/>
<line x1="178.6" y1="120.0" x2="143.9" y2="100.0" stroke="rgb(0,0,0)"  stroke-width="2.0"/>
<line x1="169.8" y1="123.2" x2="145.5" y2="109.2" stroke="rgb(0,0,0)"  stroke-width="2.0"/>
<line x1="143.9" y1="100.0" x2="109.3" y2="120.0" stroke="rgb(0,0,0)"  stroke-width="2.0"/>
<line x1="109.3" y1="120.0" x2="109.3" y2="160.0" stroke="rgb(0,0,0)"  stroke-width="2.0"/>
<line x1="116.5" y1="126.0" x2="116.5" y2="154.0" stroke="rgb(0,0,0)"  stroke-width="2.0"/>
<line x1="109.3" y1="160.0" x2="143.9" y2="180.0" stroke="rgb(0,0,0)"  stroke-width="2.0"/>
<text x="207.205081" y="228.000000" fill="rgb(255,12,12)"  stroke="rgb(255,12,12)" stroke-width="1" font-size="16" >OH</text>
<text x="241.846097" y="168.000000" fill="rgb(255,12,12)"  stroke="rgb(255,12,12)" stroke-width="1" font-size="16" >O</text>
<text x="68.641016" y="68.000000" fill="rgb(255,12,12)"  stroke="rgb(255,12,12)" stroke-width="1" font-size="16" >OH</text>
<text x="34.000000" y="128.000000" fill="rgb(255,12,12)"  stroke="rgb(255,12,12)" stroke-width="1" font-size="16" >O</text>
<text x="172.564065" y="48.000000" fill="rgb(255,12,12)"  stroke="rgb(255,12,12)" stroke-width="1" font-size="16" >OH</text>
<text x="103.282032" y="48.000000" fill="rgb(255,12,12)"  stroke="rgb(255,12,12)" stroke-width="1" font-size="16" >O</text>
</svg>
</g>
<text font-size="18.000000" fill ="black" font-family="sans-serif"
x="10.000000" y="20.000000" ></text>
</svg>
