<?xml version="1.0"?>
<svg version="1.1" id="topsvg"
xmlns="http://www.w3.org/2000/svg" xmlns:xlink="http://www.w3.org/1999/xlink"
xmlns:cml="http://www.xml-cml.org/schema" x="0" y="0" width="200px" height="200px" viewBox="0 0 100 100">
<title> - Open Babel Depiction</title>
<rect x="0" y="0" width="100" height="100" fill="white"/>
<g transform="translate(0,0)">
<svg width="100" height="100" x="0" y="0" viewBox="0 0 379.816 334.256"
font-family="sans-serif" stroke="rgb(0,0,0)" stroke-width="2"  stroke-linecap="round">
<line x1="327.1" y1="64.1" x2="300.7" y2="69.7" stroke="rgb(0,0,0)"  stroke-width="2.0"/>
<line x1="298.5" y1="71.7" x2="280.4" y2="51.7" stroke="rgb(0,0,0)"  stroke-width="2.0"/>
<line x1="302.9" y1="67.7" x2="284.9" y2="47.7" stroke="rgb(0,0,0)"  stroke-width="2.0"/>
<line x1="300.7" y1="69.7" x2="288.3" y2="107.8" stroke="rgb(0,0,0)"  stroke-width="2.0"/>
<line x1="263.6" y1="183.9" x2="251.2" y2="221.9" stroke="rgb(0,0,0)"  stroke-width="2.0"/>
<line x1="143.9" y1="234.3" x2="109.3" y2="214.3" stroke="rgb(0,0,0)"  stroke-width="2.0"/>
<line x1="238.9" y1="282.6" x2="213.2" y2="274.3" stroke="rgb(0,0,0)"  stroke-width="2.0"/>
<line x1="213.2" y1="274.3" x2="213.2" y2="234.3" stroke="rgb(0,0,0)"  stroke-width="2.0"/>
<line x1="220.4" y1="268.3" x2="220.4" y2="240.3" stroke="rgb(0,0,0)"  stroke-width="2.0"/>
<line x1="213.2" y1="234.3" x2="251.2" y2="221.9" stroke="rgb(0,0,0)"  stroke-width="2.0"/>
<line x1="251.2" y1="221.9" x2="274.8" y2="254.3" stroke="rgb(0,0,0)"  stroke-width="2.0"/>
<line x1="248.9" y1="231.0" x2="265.4" y2="253.6" stroke="rgb(0,0,0)"  stroke-width="2.0"/>
<line x1="274.8" y1="254.3" x2="258.9" y2="276.1" stroke="rgb(0,0,0)"  stroke-width="2.0"/>
<line x1="302.7" y1="175.5" x2="263.6" y2="183.9" stroke="rgb(0,0,0)"  stroke-width="2.0"/>
<line x1="295.4" y1="169.7" x2="268.0" y2="175.6" stroke="rgb(0,0,0)"  stroke-width="2.0"/>
<line x1="263.6" y1="183.9" x2="236.8" y2="154.1" stroke="rgb(0,0,0)"  stroke-width="2.0"/>
<line x1="236.8" y1="154.1" x2="249.2" y2="116.1" stroke="rgb(0,0,0)"  stroke-width="2.0"/>
<line x1="245.5" y1="150.6" x2="254.2" y2="124.0" stroke="rgb(0,0,0)"  stroke-width="2.0"/>
<line x1="249.2" y1="116.1" x2="288.3" y2="107.8" stroke="rgb(0,0,0)"  stroke-width="2.0"/>
<line x1="288.3" y1="107.8" x2="315.1" y2="137.5" stroke="rgb(0,0,0)"  stroke-width="2.0"/>
<line x1="287.0" y1="117.0" x2="305.7" y2="137.9" stroke="rgb(0,0,0)"  stroke-width="2.0"/>
<line x1="315.1" y1="137.5" x2="302.7" y2="175.5" stroke="rgb(0,0,0)"  stroke-width="2.0"/>
<line x1="143.9" y1="274.3" x2="143.9" y2="234.3" stroke="rgb(0,0,0)"  stroke-width="2.0"/>
<line x1="143.9" y1="234.3" x2="178.6" y2="214.3" stroke="rgb(0,0,0)"  stroke-width="2.0"/>
<line x1="152.7" y1="237.5" x2="177.0" y2="223.5" stroke="rgb(0,0,0)"  stroke-width="2.0"/>
<line x1="178.6" y1="214.3" x2="213.2" y2="234.3" stroke="rgb(0,0,0)"  stroke-width="2.0"/>
<line x1="213.2" y1="274.3" x2="189.8" y2="287.8" stroke="rgb(0,0,0)"  stroke-width="2.0"/>
<line x1="167.1" y1="287.7" x2="143.9" y2="274.3" stroke="rgb(0,0,0)"  stroke-width="2.0"/>
<line x1="169.0" y1="280.4" x2="152.7" y2="271.0" stroke="rgb(0,0,0)"  stroke-width="2.0"/>
<line x1="40.0" y1="214.3" x2="40.0" y2="174.3" stroke="rgb(0,0,0)"  stroke-width="2.0"/>
<line x1="47.2" y1="208.3" x2="47.2" y2="180.3" stroke="rgb(0,0,0)"  stroke-width="2.0"/>
<line x1="40.0" y1="174.3" x2="74.6" y2="154.3" stroke="rgb(0,0,0)"  stroke-width="2.0"/>
<line x1="74.6" y1="154.3" x2="109.3" y2="174.3" stroke="rgb(0,0,0)"  stroke-width="2.0"/>
<line x1="76.2" y1="163.5" x2="100.5" y2="177.5" stroke="rgb(0,0,0)"  stroke-width="2.0"/>
<line x1="109.3" y1="174.3" x2="109.3" y2="214.3" stroke="rgb(0,0,0)"  stroke-width="2.0"/>
<line x1="109.3" y1="214.3" x2="74.6" y2="234.3" stroke="rgb(0,0,0)"  stroke-width="2.0"/>
<line x1="100.5" y1="211.0" x2="76.2" y2="225.0" stroke="rgb(0,0,0)"  stroke-width="2.0"/>
<line x1="74.6" y1="234.3" x2="40.0" y2="214.3" stroke="rgb(0,0,0)"  stroke-width="2.0"/>
<text x="172.564065" y="302.255515" fill="rgb(12,12,255)"  stroke="rgb(12,12,255)" stroke-width="1" font-size="16" >N</text>
<text x="333.815965" y="69.409325" fill="rgb(255,12,12)"  stroke="rgb(255,12,12)" stroke-width="1" font-size="16" >OH</text>
<text x="245.247341" y="294.616195" fill="rgb(12,12,255)"  stroke="rgb(12,12,255)" stroke-width="1" font-size="16" >N</text>
<text x="245.247341" y="310.616195" fill="rgb(12,12,255)"  stroke="rgb(12,12,255)" stroke-width="1" font-size="16" >H</text>
<text x="267.924836" y="48.000000" fill="rgb(255,12,12)"  stroke="rgb(255,12,12)" stroke-width="1" font-size="16" >O</text>
</svg>
</g>
<text font-size="18.000000" fill ="black" font-family="sans-serif"
x="10.000000" y="20.000000" ></text>
</svg>
