<?xml version="1.0"?>
<svg version="1.1" id="topsvg"
xmlns="http://www.w3.org/2000/svg" xmlns:xlink="http://www.w3.org/1999/xlink"
xmlns:cml="http://www.xml-cml.org/schema" x="0" y="0" width="200px" height="200px" viewBox="0 0 100 100">
<title> - Open Babel Depiction</title>
<rect x="0" y="0" width="100" height="100" fill="white"/>
<g transform="translate(0,0)">
<svg width="100" height="100" x="0" y="0" viewBox="0 0 249.282 240"
font-family="sans-serif" stroke="rgb(0,0,0)" stroke-width="2"  stroke-linecap="round">
<line x1="167.0" y1="140.0" x2="140.0" y2="140.0" stroke="rgb(0,0,0)"  stroke-width="2.0"/>
<line x1="140.0" y1="140.0" x2="140.0" y2="100.0" stroke="rgb(0,0,0)"  stroke-width="2.0"/>
<line x1="140.0" y1="100.0" x2="174.6" y2="80.0" stroke="rgb(0,0,0)"  stroke-width="2.0"/>
<line x1="174.6" y1="80.0" x2="174.6" y2="53.0" stroke="rgb(0,0,0)"  stroke-width="2.0"/>
<line x1="176.1" y1="77.4" x2="199.5" y2="90.9" stroke="rgb(0,0,0)"  stroke-width="2.0"/>
<line x1="173.1" y1="82.6" x2="196.5" y2="96.1" stroke="rgb(0,0,0)"  stroke-width="2.0"/>
<line x1="140.0" y1="140.0" x2="100.0" y2="140.0" stroke="rgb(0,0,0)"  stroke-width="2.0"/>
<line x1="100.0" y1="140.0" x2="80.0" y2="105.4" stroke="rgb(0,0,0)"  stroke-width="2.0"/>
<line x1="80.0" y1="105.4" x2="53.0" y2="105.4" stroke="rgb(0,0,0)"  stroke-width="2.0"/>
<line x1="77.4" y1="103.9" x2="90.9" y2="80.5" stroke="rgb(0,0,0)"  stroke-width="2.0"/>
<line x1="82.6" y1="106.9" x2="96.1" y2="83.5" stroke="rgb(0,0,0)"  stroke-width="2.0"/>
<line x1="140.0" y1="140.0" x2="140.0" y2="180.0" stroke="rgb(0,0,0)"  stroke-width="2.0"/>
<line x1="140.0" y1="180.0" x2="116.6" y2="193.5" stroke="rgb(0,0,0)"  stroke-width="2.0"/>
<line x1="141.5" y1="177.4" x2="164.9" y2="190.9" stroke="rgb(0,0,0)"  stroke-width="2.0"/>
<line x1="138.5" y1="182.6" x2="161.9" y2="196.1" stroke="rgb(0,0,0)"  stroke-width="2.0"/>
<text x="174.000000" y="148.000000" fill="rgb(255,12,12)"  stroke="rgb(255,12,12)" stroke-width="1" font-size="16" >OH</text>
<text x="168.641016" y="48.000000" fill="rgb(255,12,12)"  stroke="rgb(255,12,12)" stroke-width="1" font-size="16" >OH</text>
<text x="203.282032" y="108.000000" fill="rgb(255,12,12)"  stroke="rgb(255,12,12)" stroke-width="1" font-size="16" >O</text>
<text x="22.000000" y="113.358984" fill="rgb(255,12,12)"  stroke="rgb(255,12,12)" stroke-width="1" font-size="16" >HO</text>
<text x="94.000000" y="78.717968" fill="rgb(255,12,12)"  stroke="rgb(255,12,12)" stroke-width="1" font-size="16" >O</text>
<text x="87.358984" y="208.000000" fill="rgb(255,12,12)"  stroke="rgb(255,12,12)" stroke-width="1" font-size="16" >HO</text>
<text x="168.641016" y="208.000000" fill="rgb(255,12,12)"  stroke="rgb(255,12,12)" stroke-width="1" font-size="16" >O</text>
</svg>
</g>
<text font-size="18.000000" fill ="black" font-family="sans-serif"
x="10.000000" y="20.000000" ></text>
</svg>
