<?xml version="1.0"?>
<svg version="1.1" id="topsvg"
xmlns="http://www.w3.org/2000/svg" xmlns:xlink="http://www.w3.org/1999/xlink"
xmlns:cml="http://www.xml-cml.org/schema" x="0" y="0" width="200px" height="200px" viewBox="0 0 100 100">
<title> - Open Babel Depiction</title>
<rect x="0" y="0" width="100" height="100" fill="white"/>
<g transform="translate(0,0)">
<svg width="100" height="100" x="0" y="0" viewBox="0 0 409.375 268.558"
font-family="sans-serif" stroke="rgb(0,0,0)" stroke-width="2"  stroke-linecap="round">
<line x1="53.0" y1="156.2" x2="78.8" y2="156.2" stroke="rgb(0,0,0)"  stroke-width="2.0"/>
<line x1="156.2" y1="156.2" x2="182.0" y2="156.2" stroke="rgb(0,0,0)"  stroke-width="2.0"/>
<line x1="198.0" y1="169.2" x2="198.0" y2="182.0" stroke="rgb(0,0,0)"  stroke-width="2.0"/>
<line x1="192.0" y1="169.2" x2="192.0" y2="182.0" stroke="rgb(0,0,0)"  stroke-width="2.0"/>
<line x1="208.0" y1="153.2" x2="259.5" y2="153.2" stroke="rgb(0,0,0)"  stroke-width="2.0"/>
<line x1="208.0" y1="159.2" x2="259.5" y2="159.2" stroke="rgb(0,0,0)"  stroke-width="2.0"/>
<line x1="285.5" y1="156.2" x2="298.2" y2="156.2" stroke="rgb(0,0,0)"  stroke-width="2.0"/>
<line x1="311.2" y1="169.2" x2="311.2" y2="195.0" stroke="rgb(0,0,0)"  stroke-width="2.0"/>
<line x1="311.2" y1="195.0" x2="324.1" y2="217.3" stroke="rgb(0,0,0)"  stroke-width="2.0"/>
<line x1="311.2" y1="195.0" x2="337.0" y2="195.0" stroke="rgb(0,0,0)"  stroke-width="2.0"/>
<line x1="311.2" y1="195.0" x2="288.9" y2="207.9" stroke="rgb(0,0,0)"  stroke-width="2.0"/>
<line x1="324.2" y1="153.2" x2="337.0" y2="153.2" stroke="rgb(0,0,0)"  stroke-width="2.0"/>
<line x1="324.2" y1="159.2" x2="337.0" y2="159.2" stroke="rgb(0,0,0)"  stroke-width="2.0"/>
<line x1="308.2" y1="143.2" x2="308.2" y2="130.5" stroke="rgb(0,0,0)"  stroke-width="2.0"/>
<line x1="314.2" y1="143.2" x2="314.2" y2="130.5" stroke="rgb(0,0,0)"  stroke-width="2.0"/>
<line x1="195.0" y1="143.2" x2="195.0" y2="130.5" stroke="rgb(0,0,0)"  stroke-width="2.0"/>
<line x1="195.0" y1="104.5" x2="195.0" y2="91.7" stroke="rgb(0,0,0)"  stroke-width="2.0"/>
<line x1="208.0" y1="78.7" x2="233.8" y2="78.7" stroke="rgb(0,0,0)"  stroke-width="2.0"/>
<line x1="311.2" y1="78.7" x2="337.0" y2="78.7" stroke="rgb(0,0,0)"  stroke-width="2.0"/>
<line x1="359.1" y1="88.5" x2="365.5" y2="99.6" stroke="rgb(0,0,0)"  stroke-width="2.0"/>
<line x1="353.9" y1="91.5" x2="360.3" y2="102.6" stroke="rgb(0,0,0)"  stroke-width="2.0"/>
<line x1="353.9" y1="66.0" x2="360.3" y2="54.9" stroke="rgb(0,0,0)"  stroke-width="2.0"/>
<line x1="359.1" y1="69.0" x2="365.5" y2="57.9" stroke="rgb(0,0,0)"  stroke-width="2.0"/>
<line x1="192.0" y1="65.7" x2="192.0" y2="53.0" stroke="rgb(0,0,0)"  stroke-width="2.0"/>
<line x1="198.0" y1="65.7" x2="198.0" y2="53.0" stroke="rgb(0,0,0)"  stroke-width="2.0"/>
<line x1="182.0" y1="81.7" x2="169.2" y2="81.7" stroke="rgb(0,0,0)"  stroke-width="2.0"/>
<line x1="182.0" y1="75.7" x2="169.2" y2="75.7" stroke="rgb(0,0,0)"  stroke-width="2.0"/>
<line x1="136.9" y1="122.7" x2="156.2" y2="156.2" stroke="rgb(0,0,0)"  stroke-width="2.0"/>
<line x1="133.6" y1="131.5" x2="147.0" y2="154.7" stroke="rgb(0,0,0)"  stroke-width="2.0"/>
<line x1="156.2" y1="156.2" x2="136.9" y2="189.8" stroke="rgb(0,0,0)"  stroke-width="2.0"/>
<line x1="136.9" y1="189.8" x2="98.1" y2="189.8" stroke="rgb(0,0,0)"  stroke-width="2.0"/>
<line x1="130.9" y1="182.6" x2="104.1" y2="182.6" stroke="rgb(0,0,0)"  stroke-width="2.0"/>
<line x1="98.1" y1="189.8" x2="78.8" y2="156.2" stroke="rgb(0,0,0)"  stroke-width="2.0"/>
<line x1="78.8" y1="156.2" x2="98.1" y2="122.7" stroke="rgb(0,0,0)"  stroke-width="2.0"/>
<line x1="88.0" y1="154.7" x2="101.4" y2="131.5" stroke="rgb(0,0,0)"  stroke-width="2.0"/>
<line x1="98.1" y1="122.7" x2="136.9" y2="122.7" stroke="rgb(0,0,0)"  stroke-width="2.0"/>
<line x1="253.1" y1="45.2" x2="233.8" y2="78.7" stroke="rgb(0,0,0)"  stroke-width="2.0"/>
<line x1="256.4" y1="54.0" x2="243.0" y2="77.2" stroke="rgb(0,0,0)"  stroke-width="2.0"/>
<line x1="233.8" y1="78.7" x2="253.1" y2="112.3" stroke="rgb(0,0,0)"  stroke-width="2.0"/>
<line x1="253.1" y1="112.3" x2="291.9" y2="112.3" stroke="rgb(0,0,0)"  stroke-width="2.0"/>
<line x1="259.1" y1="105.1" x2="285.9" y2="105.1" stroke="rgb(0,0,0)"  stroke-width="2.0"/>
<line x1="291.9" y1="112.3" x2="311.2" y2="78.7" stroke="rgb(0,0,0)"  stroke-width="2.0"/>
<line x1="311.2" y1="78.7" x2="291.9" y2="45.2" stroke="rgb(0,0,0)"  stroke-width="2.0"/>
<line x1="302.0" y1="77.2" x2="288.6" y2="54.0" stroke="rgb(0,0,0)"  stroke-width="2.0"/>
<line x1="291.9" y1="45.2" x2="253.1" y2="45.2" stroke="rgb(0,0,0)"  stroke-width="2.0"/>
<text x="344.000000" y="164.250000" fill="rgb(255,12,12)"  stroke="rgb(255,12,12)" stroke-width="1" font-size="16" >O</text>
<text x="150.250000" y="86.750000" fill="rgb(255,12,12)"  stroke="rgb(255,12,12)" stroke-width="1" font-size="16" >O</text>
<text x="189.000000" y="48.000000" fill="rgb(255,12,12)"  stroke="rgb(255,12,12)" stroke-width="1" font-size="16" >O</text>
<text x="363.375000" y="53.191516" fill="rgb(255,12,12)"  stroke="rgb(255,12,12)" stroke-width="1" font-size="16" >O</text>
<text x="363.375000" y="120.308484" fill="rgb(255,12,12)"  stroke="rgb(255,12,12)" stroke-width="1" font-size="16" >O</text>
<text x="344.000000" y="86.750000" fill="rgb(12,12,255)"  stroke="rgb(12,12,255)" stroke-width="1" font-size="16" >N</text>
<text x="189.000000" y="86.750000" fill="rgb(178,178,0)"  stroke="rgb(178,178,0)" stroke-width="1" font-size="16" >S</text>
<text x="189.000000" y="125.500000" fill="rgb(12,12,255)"  stroke="rgb(12,12,255)" stroke-width="1" font-size="16" >N</text>
<text x="189.000000" y="141.500000" fill="rgb(12,12,255)"  stroke="rgb(12,12,255)" stroke-width="1" font-size="16" >H</text>
<text x="305.250000" y="125.500000" fill="rgb(255,12,12)"  stroke="rgb(255,12,12)" stroke-width="1" font-size="16" >O</text>
<text x="22.000000" y="164.250000" fill="rgb(30,239,30)"  stroke="rgb(30,239,30)" stroke-width="1" font-size="16" >Cl</text>
<text x="271.691516" y="222.375000" fill="rgb(127,178,255)"  stroke="rgb(127,178,255)" stroke-width="1" font-size="16" >F</text>
<text x="344.000000" y="203.000000" fill="rgb(127,178,255)"  stroke="rgb(127,178,255)" stroke-width="1" font-size="16" >F</text>
<text x="324.625000" y="236.558484" fill="rgb(127,178,255)"  stroke="rgb(127,178,255)" stroke-width="1" font-size="16" >F</text>
<text x="305.250000" y="164.250000" fill="rgb(178,178,0)"  stroke="rgb(178,178,0)" stroke-width="1" font-size="16" >S</text>
<text x="266.500000" y="164.250000" fill="rgb(12,12,255)"  stroke="rgb(12,12,255)" stroke-width="1" font-size="16" >N</text>
<text x="189.000000" y="203.000000" fill="rgb(255,12,12)"  stroke="rgb(255,12,12)" stroke-width="1" font-size="16" >O</text>
<text x="189.000000" y="164.250000" fill="rgb(178,178,0)"  stroke="rgb(178,178,0)" stroke-width="1" font-size="16" >S</text>
</svg>
</g>
<text font-size="18.000000" fill ="black" font-family="sans-serif"
x="10.000000" y="20.000000" ></text>
</svg>
