<?xml version="1.0"?>
<svg version="1.1" id="topsvg"
xmlns="http://www.w3.org/2000/svg" xmlns:xlink="http://www.w3.org/1999/xlink"
xmlns:cml="http://www.xml-cml.org/schema" x="0" y="0" width="200px" height="200px" viewBox="0 0 100 100">
<title> - Open Babel Depiction</title>
<rect x="0" y="0" width="100" height="100" fill="white"/>
<g transform="translate(0,0)">
<svg width="100" height="100" x="0" y="0" viewBox="0 0 703.538 1100"
font-family="sans-serif" stroke="rgb(0,0,0)" stroke-width="2"  stroke-linecap="round">
<line x1="652.3" y1="53.5" x2="628.9" y2="40.0" stroke="rgb(0,0,0)"  stroke-width="2.0"/>
<line x1="628.9" y1="40.0" x2="594.3" y2="60.0" stroke="rgb(0,0,0)"  stroke-width="2.0"/>
<line x1="594.3" y1="60.0" x2="594.3" y2="100.0" stroke="rgb(0,0,0)"  stroke-width="2.0"/>
<line x1="594.3" y1="100.0" x2="559.6" y2="120.0" stroke="rgb(0,0,0)"  stroke-width="2.0"/>
<line x1="559.6" y1="120.0" x2="559.6" y2="160.0" stroke="rgb(0,0,0)"  stroke-width="2.0"/>
<line x1="559.6" y1="160.0" x2="525.0" y2="180.0" stroke="rgb(0,0,0)"  stroke-width="2.0"/>
<line x1="525.0" y1="180.0" x2="525.0" y2="220.0" stroke="rgb(0,0,0)"  stroke-width="2.0"/>
<line x1="525.0" y1="220.0" x2="490.3" y2="240.0" stroke="rgb(0,0,0)"  stroke-width="2.0"/>
<line x1="490.3" y1="240.0" x2="490.3" y2="280.0" stroke="rgb(0,0,0)"  stroke-width="2.0"/>
<line x1="490.3" y1="280.0" x2="455.7" y2="300.0" stroke="rgb(0,0,0)"  stroke-width="2.0"/>
<line x1="455.7" y1="300.0" x2="455.7" y2="340.0" stroke="rgb(0,0,0)"  stroke-width="2.0"/>
<line x1="455.7" y1="340.0" x2="421.1" y2="360.0" stroke="rgb(0,0,0)"  stroke-width="2.0"/>
<line x1="421.1" y1="360.0" x2="421.1" y2="400.0" stroke="rgb(0,0,0)"  stroke-width="2.0"/>
<line x1="421.1" y1="400.0" x2="386.4" y2="420.0" stroke="rgb(0,0,0)"  stroke-width="2.0"/>
<line x1="386.4" y1="420.0" x2="386.4" y2="460.0" stroke="rgb(0,0,0)"  stroke-width="2.0"/>
<line x1="386.4" y1="460.0" x2="351.8" y2="480.0" stroke="rgb(0,0,0)"  stroke-width="2.0"/>
<line x1="351.8" y1="480.0" x2="351.8" y2="520.0" stroke="rgb(0,0,0)"  stroke-width="2.0"/>
<line x1="351.8" y1="520.0" x2="317.1" y2="540.0" stroke="rgb(0,0,0)"  stroke-width="2.0"/>
<line x1="317.1" y1="540.0" x2="317.1" y2="580.0" stroke="rgb(0,0,0)"  stroke-width="2.0"/>
<line x1="317.1" y1="580.0" x2="282.5" y2="600.0" stroke="rgb(0,0,0)"  stroke-width="2.0"/>
<line x1="282.5" y1="600.0" x2="282.5" y2="640.0" stroke="rgb(0,0,0)"  stroke-width="2.0"/>
<line x1="282.5" y1="640.0" x2="247.8" y2="660.0" stroke="rgb(0,0,0)"  stroke-width="2.0"/>
<line x1="247.8" y1="660.0" x2="247.8" y2="700.0" stroke="rgb(0,0,0)"  stroke-width="2.0"/>
<line x1="247.8" y1="700.0" x2="213.2" y2="720.0" stroke="rgb(0,0,0)"  stroke-width="2.0"/>
<line x1="213.2" y1="720.0" x2="213.2" y2="760.0" stroke="rgb(0,0,0)"  stroke-width="2.0"/>
<line x1="213.2" y1="760.0" x2="178.6" y2="780.0" stroke="rgb(0,0,0)"  stroke-width="2.0"/>
<line x1="178.6" y1="780.0" x2="178.6" y2="820.0" stroke="rgb(0,0,0)"  stroke-width="2.0"/>
<line x1="178.6" y1="820.0" x2="143.9" y2="840.0" stroke="rgb(0,0,0)"  stroke-width="2.0"/>
<line x1="143.9" y1="840.0" x2="143.9" y2="880.0" stroke="rgb(0,0,0)"  stroke-width="2.0"/>
<line x1="143.9" y1="880.0" x2="109.3" y2="900.0" stroke="rgb(0,0,0)"  stroke-width="2.0"/>
<line x1="109.3" y1="900.0" x2="109.3" y2="940.0" stroke="rgb(0,0,0)"  stroke-width="2.0"/>
<line x1="109.3" y1="940.0" x2="74.6" y2="960.0" stroke="rgb(0,0,0)"  stroke-width="2.0"/>
<line x1="74.6" y1="960.0" x2="74.6" y2="1000.0" stroke="rgb(0,0,0)"  stroke-width="2.0"/>
<line x1="74.6" y1="1000.0" x2="40.0" y2="1020.0" stroke="rgb(0,0,0)"  stroke-width="2.0"/>
<line x1="40.0" y1="1020.0" x2="40.0" y2="1047.0" stroke="rgb(0,0,0)"  stroke-width="2.0"/>
<text x="36.000000" y="1068.000000" fill="rgb(102,102,102)"  stroke="rgb(102,102,102)" stroke-width="1" font-size="16" >CH</text>
<text x="60.000000" y="1071.680000" fill="rgb(102,102,102)"  stroke="rgb(102,102,102)" stroke-width="1" font-size="13" >3</text>
<text x="659.538291" y="68.000000" fill="rgb(102,102,102)"  stroke="rgb(102,102,102)" stroke-width="1" font-size="16" >CH</text>
<text x="683.538291" y="71.680000" fill="rgb(102,102,102)"  stroke="rgb(102,102,102)" stroke-width="1" font-size="13" >3</text>
</svg>
</g>
<text font-size="18.000000" fill ="black" font-family="sans-serif"
x="10.000000" y="20.000000" ></text>
</svg>
