<?xml version="1.0"?>
<svg version="1.1" id="topsvg"
xmlns="http://www.w3.org/2000/svg" xmlns:xlink="http://www.w3.org/1999/xlink"
xmlns:cml="http://www.xml-cml.org/schema" x="0" y="0" width="200px" height="200px" viewBox="0 0 100 100">
<title> - Open Babel Depiction</title>
<rect x="0" y="0" width="100" height="100" fill="white"/>
<g transform="translate(0,0)">
<svg width="100" height="100" x="0" y="0" viewBox="0 0 473.73 357.34"
font-family="sans-serif" stroke="rgb(0,0,0)" stroke-width="2"  stroke-linecap="round">
<line x1="149.5" y1="304.3" x2="149.8" y2="277.3" stroke="rgb(0,0,0)"  stroke-width="2.0"/>
<line x1="155.5" y1="304.4" x2="155.8" y2="277.4" stroke="rgb(0,0,0)"  stroke-width="2.0"/>
<line x1="394.2" y1="129.8" x2="420.2" y2="145.6" stroke="rgb(0,0,0)"  stroke-width="2.0"/>
<line x1="391.1" y1="134.9" x2="417.1" y2="150.7" stroke="rgb(0,0,0)"  stroke-width="2.0"/>
<line x1="228.1" y1="277.5" x2="265.6" y2="256.2" stroke="rgb(0,0,0)"  stroke-width="2.0"/>
<line x1="265.6" y1="256.2" x2="266.0" y2="213.1" stroke="rgb(0,0,0)"  stroke-width="2.0"/>
<line x1="258.5" y1="250.1" x2="258.7" y2="219.1" stroke="rgb(0,0,0)"  stroke-width="2.0"/>
<line x1="266.0" y1="213.1" x2="228.6" y2="190.9" stroke="rgb(0,0,0)"  stroke-width="2.0"/>
<line x1="228.6" y1="190.9" x2="191.0" y2="212.2" stroke="rgb(0,0,0)"  stroke-width="2.0"/>
<line x1="226.9" y1="200.1" x2="199.8" y2="215.5" stroke="rgb(0,0,0)"  stroke-width="2.0"/>
<line x1="191.0" y1="212.2" x2="190.5" y2="255.9" stroke="rgb(0,0,0)"  stroke-width="2.0"/>
<line x1="190.5" y1="255.9" x2="228.1" y2="277.5" stroke="rgb(0,0,0)"  stroke-width="2.0"/>
<line x1="199.3" y1="252.7" x2="226.5" y2="268.3" stroke="rgb(0,0,0)"  stroke-width="2.0"/>
<line x1="40.2" y1="255.8" x2="78.2" y2="277.5" stroke="rgb(0,0,0)"  stroke-width="2.0"/>
<line x1="78.2" y1="277.5" x2="115.8" y2="255.4" stroke="rgb(0,0,0)"  stroke-width="2.0"/>
<line x1="79.7" y1="268.2" x2="107.0" y2="252.2" stroke="rgb(0,0,0)"  stroke-width="2.0"/>
<line x1="115.8" y1="255.4" x2="115.6" y2="211.8" stroke="rgb(0,0,0)"  stroke-width="2.0"/>
<line x1="115.6" y1="211.8" x2="77.7" y2="190.2" stroke="rgb(0,0,0)"  stroke-width="2.0"/>
<line x1="106.8" y1="215.1" x2="79.3" y2="199.4" stroke="rgb(0,0,0)"  stroke-width="2.0"/>
<line x1="77.7" y1="190.2" x2="40.0" y2="212.2" stroke="rgb(0,0,0)"  stroke-width="2.0"/>
<line x1="40.0" y1="212.2" x2="40.2" y2="255.8" stroke="rgb(0,0,0)"  stroke-width="2.0"/>
<line x1="47.2" y1="218.2" x2="47.4" y2="249.8" stroke="rgb(0,0,0)"  stroke-width="2.0"/>
<line x1="342.0" y1="83.1" x2="341.8" y2="126.5" stroke="rgb(0,0,0)"  stroke-width="2.0"/>
<line x1="341.8" y1="126.5" x2="304.0" y2="148.0" stroke="rgb(0,0,0)"  stroke-width="2.0"/>
<line x1="333.0" y1="123.2" x2="305.7" y2="138.8" stroke="rgb(0,0,0)"  stroke-width="2.0"/>
<line x1="304.0" y1="148.0" x2="266.5" y2="126.1" stroke="rgb(0,0,0)"  stroke-width="2.0"/>
<line x1="266.5" y1="126.1" x2="266.7" y2="82.7" stroke="rgb(0,0,0)"  stroke-width="2.0"/>
<line x1="273.8" y1="120.2" x2="273.9" y2="88.7" stroke="rgb(0,0,0)"  stroke-width="2.0"/>
<line x1="266.7" y1="82.7" x2="304.4" y2="61.2" stroke="rgb(0,0,0)"  stroke-width="2.0"/>
<line x1="304.4" y1="61.2" x2="342.0" y2="83.1" stroke="rgb(0,0,0)"  stroke-width="2.0"/>
<line x1="306.0" y1="70.4" x2="333.2" y2="86.3" stroke="rgb(0,0,0)"  stroke-width="2.0"/>
<line x1="304.0" y1="148.0" x2="303.7" y2="191.7" stroke="rgb(0,0,0)"  stroke-width="2.0"/>
<line x1="303.7" y1="191.7" x2="266.0" y2="213.1" stroke="rgb(0,0,0)"  stroke-width="2.0"/>
<line x1="228.6" y1="190.9" x2="228.8" y2="147.6" stroke="rgb(0,0,0)"  stroke-width="2.0"/>
<line x1="228.8" y1="147.6" x2="266.5" y2="126.1" stroke="rgb(0,0,0)"  stroke-width="2.0"/>
<line x1="191.0" y1="212.2" x2="153.3" y2="190.4" stroke="rgb(0,0,0)"  stroke-width="2.0"/>
<line x1="153.3" y1="190.4" x2="154.1" y2="147.1" stroke="rgb(0,0,0)"  stroke-width="2.0"/>
<line x1="160.6" y1="184.5" x2="161.2" y2="153.2" stroke="rgb(0,0,0)"  stroke-width="2.0"/>
<line x1="154.1" y1="147.1" x2="191.6" y2="125.8" stroke="rgb(0,0,0)"  stroke-width="2.0"/>
<line x1="191.6" y1="125.8" x2="228.8" y2="147.6" stroke="rgb(0,0,0)"  stroke-width="2.0"/>
<line x1="193.2" y1="135.0" x2="220.0" y2="150.7" stroke="rgb(0,0,0)"  stroke-width="2.0"/>
<line x1="411.2" y1="40.0" x2="433.7" y2="61.9" stroke="rgb(0,0,0)"  stroke-width="2.0"/>
<line x1="410.4" y1="49.3" x2="424.4" y2="62.9" stroke="rgb(0,0,0)"  stroke-width="2.0"/>
<line x1="433.7" y1="61.9" x2="426.0" y2="92.4" stroke="rgb(0,0,0)"  stroke-width="2.0"/>
<line x1="426.0" y1="92.4" x2="395.8" y2="101.0" stroke="rgb(0,0,0)"  stroke-width="2.0"/>
<line x1="418.3" y1="87.1" x2="399.6" y2="92.5" stroke="rgb(0,0,0)"  stroke-width="2.0"/>
<line x1="395.8" y1="101.0" x2="373.2" y2="79.1" stroke="rgb(0,0,0)"  stroke-width="2.0"/>
<line x1="373.2" y1="79.1" x2="380.9" y2="48.6" stroke="rgb(0,0,0)"  stroke-width="2.0"/>
<line x1="381.6" y1="75.0" x2="386.4" y2="56.2" stroke="rgb(0,0,0)"  stroke-width="2.0"/>
<line x1="380.9" y1="48.6" x2="411.2" y2="40.0" stroke="rgb(0,0,0)"  stroke-width="2.0"/>
<line x1="335.8" y1="201.8" x2="303.7" y2="191.7" stroke="rgb(0,0,0)"  stroke-width="2.0"/>
<line x1="332.2" y1="193.1" x2="311.6" y2="186.6" stroke="rgb(0,0,0)"  stroke-width="2.0"/>
<line x1="341.8" y1="126.5" x2="366.3" y2="149.5" stroke="rgb(0,0,0)"  stroke-width="2.0"/>
<line x1="366.3" y1="149.5" x2="363.6" y2="183.0" stroke="rgb(0,0,0)"  stroke-width="2.0"/>
<line x1="358.6" y1="154.9" x2="356.9" y2="176.4" stroke="rgb(0,0,0)"  stroke-width="2.0"/>
<line x1="363.6" y1="183.0" x2="335.8" y2="201.8" stroke="rgb(0,0,0)"  stroke-width="2.0"/>
<line x1="153.3" y1="190.4" x2="115.6" y2="211.8" stroke="rgb(0,0,0)"  stroke-width="2.0"/>
<line x1="115.8" y1="255.4" x2="152.8" y2="277.3" stroke="rgb(0,0,0)"  stroke-width="2.0"/>
<line x1="152.8" y1="277.3" x2="190.5" y2="255.9" stroke="rgb(0,0,0)"  stroke-width="2.0"/>
<line x1="342.0" y1="83.1" x2="373.2" y2="79.1" stroke="rgb(0,0,0)"  stroke-width="2.0"/>
<line x1="395.8" y1="101.0" x2="392.7" y2="132.3" stroke="rgb(0,0,0)"  stroke-width="2.0"/>
<line x1="392.7" y1="132.3" x2="366.3" y2="149.5" stroke="rgb(0,0,0)"  stroke-width="2.0"/>
<text x="423.716004" y="162.870740" fill="rgb(255,12,12)"  stroke="rgb(255,12,12)" stroke-width="1" font-size="16" >O</text>
<text x="146.395408" y="325.339705" fill="rgb(255,12,12)"  stroke="rgb(255,12,12)" stroke-width="1" font-size="16" >O</text>
</svg>
</g>
<text font-size="18.000000" fill ="black" font-family="sans-serif"
x="10.000000" y="20.000000" ></text>
</svg>
