<?xml version="1.0"?>
<svg version="1.1" id="topsvg"
xmlns="http://www.w3.org/2000/svg" xmlns:xlink="http://www.w3.org/1999/xlink"
xmlns:cml="http://www.xml-cml.org/schema" x="0" y="0" width="200px" height="200px" viewBox="0 0 100 100">
<title> - Open Babel Depiction</title>
<rect x="0" y="0" width="100" height="100" fill="white"/>
<g transform="translate(0,0)">
<svg width="100" height="100" x="0" y="0" viewBox="0 0 495.692 360"
font-family="sans-serif" stroke="rgb(0,0,0)" stroke-width="2"  stroke-linecap="round">
<line x1="271.2" y1="86.5" x2="247.8" y2="100.0" stroke="rgb(0,0,0)"  stroke-width="2.0"/>
<line x1="293.7" y1="153.5" x2="305.9" y2="146.5" stroke="rgb(0,0,0)"  stroke-width="2.0"/>
<line x1="348.8" y1="200.0" x2="348.8" y2="173.0" stroke="rgb(0,0,0)"  stroke-width="2.0"/>
<line x1="354.8" y1="200.0" x2="354.8" y2="173.0" stroke="rgb(0,0,0)"  stroke-width="2.0"/>
<line x1="354.8" y1="280.0" x2="354.8" y2="307.0" stroke="rgb(0,0,0)"  stroke-width="2.0"/>
<line x1="348.8" y1="280.0" x2="348.8" y2="307.0" stroke="rgb(0,0,0)"  stroke-width="2.0"/>
<line x1="247.8" y1="260.0" x2="224.5" y2="273.5" stroke="rgb(0,0,0)"  stroke-width="2.0"/>
<line x1="201.9" y1="206.5" x2="189.8" y2="213.5" stroke="rgb(0,0,0)"  stroke-width="2.0"/>
<line x1="146.9" y1="160.0" x2="146.9" y2="187.0" stroke="rgb(0,0,0)"  stroke-width="2.0"/>
<line x1="140.9" y1="160.0" x2="140.9" y2="187.0" stroke="rgb(0,0,0)"  stroke-width="2.0"/>
<line x1="140.9" y1="80.0" x2="140.9" y2="53.0" stroke="rgb(0,0,0)"  stroke-width="2.0"/>
<line x1="146.9" y1="80.0" x2="146.9" y2="53.0" stroke="rgb(0,0,0)"  stroke-width="2.0"/>
<line x1="282.5" y1="173.0" x2="282.5" y2="200.0" stroke="rgb(0,0,0)"  stroke-width="2.0"/>
<line x1="282.5" y1="200.0" x2="247.8" y2="220.0" stroke="rgb(0,0,0)"  stroke-width="2.0"/>
<line x1="247.8" y1="220.0" x2="224.5" y2="206.5" stroke="rgb(0,0,0)"  stroke-width="2.0"/>
<line x1="213.2" y1="187.0" x2="213.2" y2="160.0" stroke="rgb(0,0,0)"  stroke-width="2.0"/>
<line x1="213.2" y1="160.0" x2="247.8" y2="140.0" stroke="rgb(0,0,0)"  stroke-width="2.0"/>
<line x1="247.8" y1="140.0" x2="271.2" y2="153.5" stroke="rgb(0,0,0)"  stroke-width="2.0"/>
<line x1="282.5" y1="280.0" x2="247.8" y2="260.0" stroke="rgb(0,0,0)"  stroke-width="2.0"/>
<line x1="247.8" y1="260.0" x2="247.8" y2="220.0" stroke="rgb(0,0,0)"  stroke-width="2.0"/>
<line x1="255.0" y1="254.0" x2="255.0" y2="226.0" stroke="rgb(0,0,0)"  stroke-width="2.0"/>
<line x1="282.5" y1="200.0" x2="317.1" y2="220.0" stroke="rgb(0,0,0)"  stroke-width="2.0"/>
<line x1="284.1" y1="209.2" x2="308.3" y2="223.2" stroke="rgb(0,0,0)"  stroke-width="2.0"/>
<line x1="317.1" y1="220.0" x2="317.1" y2="260.0" stroke="rgb(0,0,0)"  stroke-width="2.0"/>
<line x1="317.1" y1="260.0" x2="282.5" y2="280.0" stroke="rgb(0,0,0)"  stroke-width="2.0"/>
<line x1="308.3" y1="256.8" x2="284.1" y2="270.8" stroke="rgb(0,0,0)"  stroke-width="2.0"/>
<line x1="213.2" y1="160.0" x2="178.6" y2="140.0" stroke="rgb(0,0,0)"  stroke-width="2.0"/>
<line x1="211.6" y1="150.8" x2="187.4" y2="136.8" stroke="rgb(0,0,0)"  stroke-width="2.0"/>
<line x1="178.6" y1="140.0" x2="178.6" y2="100.0" stroke="rgb(0,0,0)"  stroke-width="2.0"/>
<line x1="178.6" y1="100.0" x2="213.2" y2="80.0" stroke="rgb(0,0,0)"  stroke-width="2.0"/>
<line x1="187.4" y1="103.2" x2="211.6" y2="89.2" stroke="rgb(0,0,0)"  stroke-width="2.0"/>
<line x1="213.2" y1="80.0" x2="247.8" y2="100.0" stroke="rgb(0,0,0)"  stroke-width="2.0"/>
<line x1="247.8" y1="100.0" x2="247.8" y2="140.0" stroke="rgb(0,0,0)"  stroke-width="2.0"/>
<line x1="240.6" y1="106.0" x2="240.6" y2="134.0" stroke="rgb(0,0,0)"  stroke-width="2.0"/>
<line x1="40.0" y1="100.0" x2="74.6" y2="80.0" stroke="rgb(0,0,0)"  stroke-width="2.0"/>
<line x1="74.6" y1="80.0" x2="109.3" y2="100.0" stroke="rgb(0,0,0)"  stroke-width="2.0"/>
<line x1="76.2" y1="89.2" x2="100.5" y2="103.2" stroke="rgb(0,0,0)"  stroke-width="2.0"/>
<line x1="109.3" y1="100.0" x2="109.3" y2="140.0" stroke="rgb(0,0,0)"  stroke-width="2.0"/>
<line x1="109.3" y1="140.0" x2="74.6" y2="160.0" stroke="rgb(0,0,0)"  stroke-width="2.0"/>
<line x1="100.5" y1="136.8" x2="76.2" y2="150.8" stroke="rgb(0,0,0)"  stroke-width="2.0"/>
<line x1="74.6" y1="160.0" x2="40.0" y2="140.0" stroke="rgb(0,0,0)"  stroke-width="2.0"/>
<line x1="40.0" y1="140.0" x2="40.0" y2="100.0" stroke="rgb(0,0,0)"  stroke-width="2.0"/>
<line x1="47.2" y1="134.0" x2="47.2" y2="106.0" stroke="rgb(0,0,0)"  stroke-width="2.0"/>
<line x1="109.3" y1="100.0" x2="143.9" y2="80.0" stroke="rgb(0,0,0)"  stroke-width="2.0"/>
<line x1="143.9" y1="80.0" x2="178.6" y2="100.0" stroke="rgb(0,0,0)"  stroke-width="2.0"/>
<line x1="178.6" y1="140.0" x2="143.9" y2="160.0" stroke="rgb(0,0,0)"  stroke-width="2.0"/>
<line x1="143.9" y1="160.0" x2="109.3" y2="140.0" stroke="rgb(0,0,0)"  stroke-width="2.0"/>
<line x1="317.1" y1="220.0" x2="351.8" y2="200.0" stroke="rgb(0,0,0)"  stroke-width="2.0"/>
<line x1="351.8" y1="200.0" x2="386.4" y2="220.0" stroke="rgb(0,0,0)"  stroke-width="2.0"/>
<line x1="386.4" y1="220.0" x2="386.4" y2="260.0" stroke="rgb(0,0,0)"  stroke-width="2.0"/>
<line x1="386.4" y1="260.0" x2="351.8" y2="280.0" stroke="rgb(0,0,0)"  stroke-width="2.0"/>
<line x1="351.8" y1="280.0" x2="317.1" y2="260.0" stroke="rgb(0,0,0)"  stroke-width="2.0"/>
<line x1="455.7" y1="220.0" x2="455.7" y2="260.0" stroke="rgb(0,0,0)"  stroke-width="2.0"/>
<line x1="448.5" y1="226.0" x2="448.5" y2="254.0" stroke="rgb(0,0,0)"  stroke-width="2.0"/>
<line x1="455.7" y1="260.0" x2="421.1" y2="280.0" stroke="rgb(0,0,0)"  stroke-width="2.0"/>
<line x1="421.1" y1="280.0" x2="386.4" y2="260.0" stroke="rgb(0,0,0)"  stroke-width="2.0"/>
<line x1="419.5" y1="270.8" x2="395.2" y2="256.8" stroke="rgb(0,0,0)"  stroke-width="2.0"/>
<line x1="386.4" y1="220.0" x2="421.1" y2="200.0" stroke="rgb(0,0,0)"  stroke-width="2.0"/>
<line x1="395.2" y1="223.2" x2="419.5" y2="209.2" stroke="rgb(0,0,0)"  stroke-width="2.0"/>
<line x1="421.1" y1="200.0" x2="455.7" y2="220.0" stroke="rgb(0,0,0)"  stroke-width="2.0"/>
<text x="195.205081" y="288.000000" fill="rgb(30,239,30)"  stroke="rgb(30,239,30)" stroke-width="1" font-size="16" >Cl</text>
<text x="207.205081" y="208.000000" fill="rgb(12,12,255)"  stroke="rgb(12,12,255)" stroke-width="1" font-size="16" >N</text>
<text x="172.564065" y="228.000000" fill="rgb(191,191,191)"  stroke="rgb(191,191,191)" stroke-width="1" font-size="16" >H</text>
<text x="137.923048" y="208.000000" fill="rgb(255,12,12)"  stroke="rgb(255,12,12)" stroke-width="1" font-size="16" >O</text>
<text x="137.923048" y="48.000000" fill="rgb(255,12,12)"  stroke="rgb(255,12,12)" stroke-width="1" font-size="16" >O</text>
<text x="276.487113" y="168.000000" fill="rgb(12,12,255)"  stroke="rgb(12,12,255)" stroke-width="1" font-size="16" >N</text>
<text x="311.128129" y="148.000000" fill="rgb(191,191,191)"  stroke="rgb(191,191,191)" stroke-width="1" font-size="16" >H</text>
<text x="345.769145" y="168.000000" fill="rgb(255,12,12)"  stroke="rgb(255,12,12)" stroke-width="1" font-size="16" >O</text>
<text x="276.487113" y="88.000000" fill="rgb(30,239,30)"  stroke="rgb(30,239,30)" stroke-width="1" font-size="16" >Cl</text>
<text x="345.769145" y="328.000000" fill="rgb(255,12,12)"  stroke="rgb(255,12,12)" stroke-width="1" font-size="16" >O</text>
</svg>
</g>
<text font-size="18.000000" fill ="black" font-family="sans-serif"
x="10.000000" y="20.000000" ></text>
</svg>
