<?xml version="1.0"?>
<svg version="1.1" id="topsvg"
xmlns="http://www.w3.org/2000/svg" xmlns:xlink="http://www.w3.org/1999/xlink"
xmlns:cml="http://www.xml-cml.org/schema" x="0" y="0" width="200px" height="200px" viewBox="0 0 100 100">
<title> - Open Babel Depiction</title>
<rect x="0" y="0" width="100" height="100" fill="white"/>
<g transform="translate(0,0)">
<svg width="100" height="100" x="0" y="0" viewBox="0 0 370.648 302.813"
font-family="sans-serif" stroke="rgb(0,0,0)" stroke-width="2"  stroke-linecap="round">
<line x1="53.0" y1="133.9" x2="77.6" y2="133.9" stroke="rgb(0,0,0)"  stroke-width="2.0"/>
<line x1="296.6" y1="56.2" x2="317.9" y2="43.9" stroke="rgb(0,0,0)"  stroke-width="2.0"/>
<line x1="299.6" y1="61.4" x2="320.9" y2="49.1" stroke="rgb(0,0,0)"  stroke-width="2.0"/>
<line x1="233.0" y1="96.4" x2="233.0" y2="120.9" stroke="rgb(0,0,0)"  stroke-width="2.0"/>
<line x1="200.5" y1="115.2" x2="254.3" y2="146.2" stroke="rgb(0,0,0)"  stroke-width="2.0"/>
<line x1="200.5" y1="152.7" x2="221.8" y2="165.0" stroke="rgb(0,0,0)"  stroke-width="2.0"/>
<line x1="135.4" y1="152.7" x2="145.4" y2="175.2" stroke="rgb(0,0,0)"  stroke-width="2.0"/>
<line x1="99.7" y1="164.3" x2="76.0" y2="170.9" stroke="rgb(0,0,0)"  stroke-width="2.0"/>
<line x1="99.7" y1="164.3" x2="116.7" y2="197.8" stroke="rgb(0,0,0)"  stroke-width="2.0"/>
<line x1="116.7" y1="197.8" x2="96.3" y2="229.3" stroke="rgb(0,0,0)"  stroke-width="2.0"/>
<line x1="96.3" y1="229.3" x2="107.4" y2="251.2" stroke="rgb(0,0,0)"  stroke-width="2.0"/>
<line x1="116.9" y1="194.8" x2="178.9" y2="198.1" stroke="rgb(0,0,0)"  stroke-width="2.0"/>
<line x1="116.6" y1="200.8" x2="178.6" y2="204.1" stroke="rgb(0,0,0)"  stroke-width="2.0"/>
<line x1="77.6" y1="133.9" x2="99.7" y2="103.5" stroke="rgb(0,0,0)"  stroke-width="2.0"/>
<line x1="99.7" y1="103.5" x2="135.4" y2="115.2" stroke="rgb(0,0,0)"  stroke-width="2.0"/>
<line x1="135.4" y1="115.2" x2="135.4" y2="152.7" stroke="rgb(0,0,0)"  stroke-width="2.0"/>
<line x1="135.4" y1="152.7" x2="99.7" y2="164.3" stroke="rgb(0,0,0)"  stroke-width="2.0"/>
<line x1="99.7" y1="164.3" x2="77.6" y2="133.9" stroke="rgb(0,0,0)"  stroke-width="2.0"/>
<line x1="167.9" y1="58.8" x2="200.5" y2="40.0" stroke="rgb(0,0,0)"  stroke-width="2.0"/>
<line x1="200.5" y1="40.0" x2="233.0" y2="58.8" stroke="rgb(0,0,0)"  stroke-width="2.0"/>
<line x1="233.0" y1="58.8" x2="233.0" y2="96.4" stroke="rgb(0,0,0)"  stroke-width="2.0"/>
<line x1="233.0" y1="96.4" x2="200.5" y2="115.2" stroke="rgb(0,0,0)"  stroke-width="2.0"/>
<line x1="200.5" y1="115.2" x2="167.9" y2="96.4" stroke="rgb(0,0,0)"  stroke-width="2.0"/>
<line x1="167.9" y1="96.4" x2="167.9" y2="58.8" stroke="rgb(0,0,0)"  stroke-width="2.0"/>
<line x1="200.5" y1="115.2" x2="200.5" y2="152.7" stroke="rgb(0,0,0)"  stroke-width="2.0"/>
<line x1="200.5" y1="152.7" x2="167.9" y2="171.5" stroke="rgb(0,0,0)"  stroke-width="2.0"/>
<line x1="167.9" y1="171.5" x2="135.4" y2="152.7" stroke="rgb(0,0,0)"  stroke-width="2.0"/>
<line x1="135.4" y1="115.2" x2="167.9" y2="96.4" stroke="rgb(0,0,0)"  stroke-width="2.0"/>
<line x1="265.6" y1="40.0" x2="233.0" y2="58.8" stroke="rgb(0,0,0)"  stroke-width="2.0"/>
<line x1="264.0" y1="49.2" x2="241.8" y2="62.0" stroke="rgb(0,0,0)"  stroke-width="2.0"/>
<line x1="233.0" y1="96.4" x2="265.6" y2="115.2" stroke="rgb(0,0,0)"  stroke-width="2.0"/>
<line x1="265.6" y1="115.2" x2="298.1" y2="96.4" stroke="rgb(0,0,0)"  stroke-width="2.0"/>
<line x1="267.2" y1="105.9" x2="289.3" y2="93.1" stroke="rgb(0,0,0)"  stroke-width="2.0"/>
<line x1="298.1" y1="96.4" x2="298.1" y2="58.8" stroke="rgb(0,0,0)"  stroke-width="2.0"/>
<line x1="298.1" y1="58.8" x2="265.6" y2="40.0" stroke="rgb(0,0,0)"  stroke-width="2.0"/>
<text x="229.023585" y="141.939394" fill="rgb(102,102,102)"  stroke="rgb(102,102,102)" stroke-width="1" font-size="16" >CH</text>
<text x="253.023585" y="145.619394" fill="rgb(102,102,102)"  stroke="rgb(102,102,102)" stroke-width="1" font-size="13" >3</text>
<text x="185.769793" y="209.752192" fill="rgb(255,12,12)"  stroke="rgb(255,12,12)" stroke-width="1" font-size="16" >O</text>
<text x="107.315083" y="270.812993" fill="rgb(255,12,12)"  stroke="rgb(255,12,12)" stroke-width="1" font-size="16" >OH</text>
<text x="45.457436" y="182.396165" fill="rgb(255,12,12)"  stroke="rgb(255,12,12)" stroke-width="1" font-size="16" >HO</text>
<text x="146.682340" y="195.054435" fill="rgb(102,102,102)"  stroke="rgb(102,102,102)" stroke-width="1" font-size="16" >CH</text>
<text x="170.682340" y="198.734435" fill="rgb(102,102,102)"  stroke="rgb(102,102,102)" stroke-width="1" font-size="13" >3</text>
<text x="227.023585" y="179.515152" fill="rgb(255,12,12)"  stroke="rgb(255,12,12)" stroke-width="1" font-size="16" >OH</text>
<text x="259.565145" y="160.727273" fill="rgb(127,178,255)"  stroke="rgb(127,178,255)" stroke-width="1" font-size="16" >F</text>
<text x="14.000000" y="141.939394" fill="rgb(102,102,102)"  stroke="rgb(102,102,102)" stroke-width="1" font-size="16" >H</text>
<text x="26.000000" y="145.619394" fill="rgb(102,102,102)"  stroke="rgb(102,102,102)" stroke-width="1" font-size="13" >3</text>
<text x="32.500000" y="141.939394" fill="rgb(102,102,102)"  stroke="rgb(102,102,102)" stroke-width="1" font-size="16" >C</text>
<text x="324.648267" y="48.000000" fill="rgb(255,12,12)"  stroke="rgb(255,12,12)" stroke-width="1" font-size="16" >O</text>
</svg>
</g>
<text font-size="18.000000" fill ="black" font-family="sans-serif"
x="10.000000" y="20.000000" ></text>
</svg>
