<?xml version="1.0"?>
<svg version="1.1" id="topsvg"
xmlns="http://www.w3.org/2000/svg" xmlns:xlink="http://www.w3.org/1999/xlink"
xmlns:cml="http://www.xml-cml.org/schema" x="0" y="0" width="200px" height="200px" viewBox="0 0 100 100">
<title> - Open Babel Depiction</title>
<rect x="0" y="0" width="100" height="100" fill="white"/>
<g transform="translate(0,0)">
<svg width="100" height="100" x="0" y="0" viewBox="0 0 386.729 278.569"
font-family="sans-serif" stroke="rgb(0,0,0)" stroke-width="2"  stroke-linecap="round">
<line x1="296.2" y1="51.2" x2="308.7" y2="72.8" stroke="rgb(0,0,0)"  stroke-width="2.0"/>
<line x1="308.7" y1="72.8" x2="289.9" y2="105.8" stroke="rgb(0,0,0)"  stroke-width="2.0"/>
<line x1="289.9" y1="105.8" x2="251.9" y2="105.9" stroke="rgb(0,0,0)"  stroke-width="2.0"/>
<line x1="251.9" y1="105.9" x2="233.0" y2="138.9" stroke="rgb(0,0,0)"  stroke-width="2.0"/>
<line x1="233.0" y1="138.9" x2="195.0" y2="139.0" stroke="rgb(0,0,0)"  stroke-width="2.0"/>
<line x1="195.0" y1="139.0" x2="176.1" y2="172.0" stroke="rgb(0,0,0)"  stroke-width="2.0"/>
<line x1="80.0" y1="208.8" x2="53.0" y2="209.0" stroke="rgb(0,0,0)"  stroke-width="2.0"/>
<line x1="80.0" y1="202.8" x2="53.0" y2="203.0" stroke="rgb(0,0,0)"  stroke-width="2.0"/>
<line x1="308.7" y1="69.8" x2="333.7" y2="69.7" stroke="rgb(0,0,0)"  stroke-width="2.0"/>
<line x1="308.7" y1="75.8" x2="333.7" y2="75.7" stroke="rgb(0,0,0)"  stroke-width="2.0"/>
<line x1="92.8" y1="183.3" x2="80.0" y2="205.8" stroke="rgb(0,0,0)"  stroke-width="2.0"/>
<line x1="80.0" y1="205.8" x2="92.6" y2="227.4" stroke="rgb(0,0,0)"  stroke-width="2.0"/>
<line x1="112.2" y1="238.6" x2="137.7" y2="238.6" stroke="rgb(0,0,0)"  stroke-width="2.0"/>
<line x1="137.7" y1="238.6" x2="137.7" y2="172.0" stroke="rgb(0,0,0)"  stroke-width="2.0"/>
<line x1="137.7" y1="172.0" x2="112.2" y2="172.0" stroke="rgb(0,0,0)"  stroke-width="2.0"/>
<line x1="137.7" y1="238.6" x2="176.1" y2="238.6" stroke="rgb(0,0,0)"  stroke-width="2.0"/>
<line x1="176.1" y1="238.6" x2="188.9" y2="216.1" stroke="rgb(0,0,0)"  stroke-width="2.0"/>
<line x1="188.8" y1="193.6" x2="176.1" y2="172.0" stroke="rgb(0,0,0)"  stroke-width="2.0"/>
<line x1="176.1" y1="172.0" x2="137.7" y2="172.0" stroke="rgb(0,0,0)"  stroke-width="2.0"/>
<text x="271.622768" y="48.000000" fill="rgb(255,12,12)"  stroke="rgb(255,12,12)" stroke-width="1" font-size="16" >HO</text>
<text x="93.227060" y="180.015127" fill="rgb(12,12,255)"  stroke="rgb(12,12,255)" stroke-width="1" font-size="16" >N</text>
<text x="93.227060" y="164.015127" fill="rgb(12,12,255)"  stroke="rgb(12,12,255)" stroke-width="1" font-size="16" >H</text>
<text x="34.000000" y="214.063836" fill="rgb(255,12,12)"  stroke="rgb(255,12,12)" stroke-width="1" font-size="16" >O</text>
<text x="93.227060" y="246.568922" fill="rgb(12,12,255)"  stroke="rgb(12,12,255)" stroke-width="1" font-size="16" >N</text>
<text x="93.227060" y="262.568922" fill="rgb(12,12,255)"  stroke="rgb(12,12,255)" stroke-width="1" font-size="16" >H</text>
<text x="189.332124" y="212.784508" fill="rgb(178,178,0)"  stroke="rgb(178,178,0)" stroke-width="1" font-size="16" >S</text>
<text x="340.729147" y="80.703193" fill="rgb(255,12,12)"  stroke="rgb(255,12,12)" stroke-width="1" font-size="16" >O</text>
</svg>
</g>
<text font-size="18.000000" fill ="black" font-family="sans-serif"
x="10.000000" y="20.000000" ></text>
</svg>
