<?xml version="1.0"?>
<svg version="1.1" id="topsvg"
xmlns="http://www.w3.org/2000/svg" xmlns:xlink="http://www.w3.org/1999/xlink"
xmlns:cml="http://www.xml-cml.org/schema" x="0" y="0" width="200px" height="200px" viewBox="0 0 100 100">
<title> - Open Babel Depiction</title>
<rect x="0" y="0" width="100" height="100" fill="white"/>
<g transform="translate(0,0)">
<svg width="100" height="100" x="0" y="0" viewBox="0 0 372.484 208.097"
font-family="sans-serif" stroke="rgb(0,0,0)" stroke-width="2"  stroke-linecap="round">
<line x1="319.8" y1="126.6" x2="293.4" y2="121.0" stroke="rgb(0,0,0)"  stroke-width="2.0"/>
<line x1="178.6" y1="88.1" x2="143.9" y2="108.1" stroke="rgb(0,0,0)"  stroke-width="2.0"/>
<line x1="143.9" y1="148.1" x2="167.3" y2="161.6" stroke="rgb(0,0,0)"  stroke-width="2.0"/>
<line x1="74.6" y1="148.1" x2="51.3" y2="161.6" stroke="rgb(0,0,0)"  stroke-width="2.0"/>
<line x1="181.4" y1="61.4" x2="178.6" y2="88.1" stroke="rgb(0,0,0)"  stroke-width="2.0"/>
<line x1="188.3" y1="64.2" x2="186.4" y2="82.9" stroke="rgb(0,0,0)"  stroke-width="2.0"/>
<line x1="178.6" y1="88.1" x2="215.1" y2="104.4" stroke="rgb(0,0,0)"  stroke-width="2.0"/>
<line x1="215.1" y1="104.4" x2="241.9" y2="74.6" stroke="rgb(0,0,0)"  stroke-width="2.0"/>
<line x1="213.8" y1="95.1" x2="232.5" y2="74.3" stroke="rgb(0,0,0)"  stroke-width="2.0"/>
<line x1="241.9" y1="74.6" x2="228.4" y2="51.3" stroke="rgb(0,0,0)"  stroke-width="2.0"/>
<line x1="209.2" y1="42.7" x2="195.5" y2="45.6" stroke="rgb(0,0,0)"  stroke-width="2.0"/>
<line x1="215.1" y1="104.4" x2="227.5" y2="142.4" stroke="rgb(0,0,0)"  stroke-width="2.0"/>
<line x1="227.5" y1="142.4" x2="266.6" y2="150.7" stroke="rgb(0,0,0)"  stroke-width="2.0"/>
<line x1="234.8" y1="136.6" x2="262.2" y2="142.4" stroke="rgb(0,0,0)"  stroke-width="2.0"/>
<line x1="266.6" y1="150.7" x2="293.4" y2="121.0" stroke="rgb(0,0,0)"  stroke-width="2.0"/>
<line x1="293.4" y1="121.0" x2="281.0" y2="83.0" stroke="rgb(0,0,0)"  stroke-width="2.0"/>
<line x1="284.7" y1="117.5" x2="276.0" y2="90.9" stroke="rgb(0,0,0)"  stroke-width="2.0"/>
<line x1="281.0" y1="83.0" x2="241.9" y2="74.6" stroke="rgb(0,0,0)"  stroke-width="2.0"/>
<line x1="109.3" y1="168.1" x2="74.6" y2="148.1" stroke="rgb(0,0,0)"  stroke-width="2.0"/>
<line x1="107.7" y1="158.9" x2="83.4" y2="144.9" stroke="rgb(0,0,0)"  stroke-width="2.0"/>
<line x1="74.6" y1="148.1" x2="74.6" y2="108.1" stroke="rgb(0,0,0)"  stroke-width="2.0"/>
<line x1="74.6" y1="108.1" x2="109.3" y2="88.1" stroke="rgb(0,0,0)"  stroke-width="2.0"/>
<line x1="83.4" y1="111.3" x2="107.7" y2="97.3" stroke="rgb(0,0,0)"  stroke-width="2.0"/>
<line x1="109.3" y1="88.1" x2="143.9" y2="108.1" stroke="rgb(0,0,0)"  stroke-width="2.0"/>
<line x1="143.9" y1="108.1" x2="143.9" y2="148.1" stroke="rgb(0,0,0)"  stroke-width="2.0"/>
<line x1="136.7" y1="114.1" x2="136.7" y2="142.1" stroke="rgb(0,0,0)"  stroke-width="2.0"/>
<line x1="143.9" y1="148.1" x2="109.3" y2="168.1" stroke="rgb(0,0,0)"  stroke-width="2.0"/>
<text x="215.871107" y="48.000000" fill="rgb(255,12,12)"  stroke="rgb(255,12,12)" stroke-width="1" font-size="16" >O</text>
<text x="22.000000" y="176.097343" fill="rgb(255,12,12)"  stroke="rgb(255,12,12)" stroke-width="1" font-size="16" >HO</text>
<text x="172.564065" y="176.097343" fill="rgb(255,12,12)"  stroke="rgb(255,12,12)" stroke-width="1" font-size="16" >OH</text>
<text x="326.483595" y="137.316212" fill="rgb(255,12,12)"  stroke="rgb(255,12,12)" stroke-width="1" font-size="16" >OH</text>
<text x="176.745203" y="56.316468" fill="rgb(12,12,255)"  stroke="rgb(12,12,255)" stroke-width="1" font-size="16" >N</text>
</svg>
</g>
<text font-size="18.000000" fill ="black" font-family="sans-serif"
x="10.000000" y="20.000000" ></text>
</svg>
