<?xml version="1.0"?>
<svg version="1.1" id="topsvg"
xmlns="http://www.w3.org/2000/svg" xmlns:xlink="http://www.w3.org/1999/xlink"
xmlns:cml="http://www.xml-cml.org/schema" x="0" y="0" width="200px" height="200px" viewBox="0 0 100 100">
<title> - Open Babel Depiction</title>
<rect x="0" y="0" width="100" height="100" fill="white"/>
<g transform="translate(0,0)">
<svg width="100" height="100" x="0" y="0" viewBox="0 0 405.477 240"
font-family="sans-serif" stroke="rgb(0,0,0)" stroke-width="2"  stroke-linecap="round">
<line x1="352.5" y1="160.0" x2="325.5" y2="160.0" stroke="rgb(0,0,0)"  stroke-width="2.0"/>
<line x1="245.5" y1="160.0" x2="205.5" y2="160.0" stroke="rgb(0,0,0)"  stroke-width="2.0"/>
<line x1="74.6" y1="180.0" x2="51.3" y2="193.5" stroke="rgb(0,0,0)"  stroke-width="2.0"/>
<line x1="109.3" y1="120.0" x2="109.3" y2="80.0" stroke="rgb(0,0,0)"  stroke-width="2.0"/>
<line x1="109.3" y1="80.0" x2="109.3" y2="53.0" stroke="rgb(0,0,0)"  stroke-width="2.0"/>
<line x1="105.1" y1="80.0" x2="105.1" y2="53.0" stroke="rgb(0,0,0)"  stroke-width="2.0"/>
<line x1="113.5" y1="80.0" x2="113.5" y2="53.0" stroke="rgb(0,0,0)"  stroke-width="2.0"/>
<line x1="143.9" y1="180.0" x2="143.9" y2="140.0" stroke="rgb(0,0,0)"  stroke-width="2.0"/>
<line x1="151.1" y1="174.0" x2="151.1" y2="146.0" stroke="rgb(0,0,0)"  stroke-width="2.0"/>
<line x1="143.9" y1="140.0" x2="169.6" y2="131.7" stroke="rgb(0,0,0)"  stroke-width="2.0"/>
<line x1="189.6" y1="138.2" x2="205.5" y2="160.0" stroke="rgb(0,0,0)"  stroke-width="2.0"/>
<line x1="205.5" y1="160.0" x2="182.0" y2="192.4" stroke="rgb(0,0,0)"  stroke-width="2.0"/>
<line x1="196.1" y1="160.6" x2="179.7" y2="183.3" stroke="rgb(0,0,0)"  stroke-width="2.0"/>
<line x1="182.0" y1="192.4" x2="143.9" y2="180.0" stroke="rgb(0,0,0)"  stroke-width="2.0"/>
<line x1="265.5" y1="194.6" x2="245.5" y2="160.0" stroke="rgb(0,0,0)"  stroke-width="2.0"/>
<line x1="268.7" y1="185.8" x2="254.7" y2="161.6" stroke="rgb(0,0,0)"  stroke-width="2.0"/>
<line x1="245.5" y1="160.0" x2="265.5" y2="125.4" stroke="rgb(0,0,0)"  stroke-width="2.0"/>
<line x1="265.5" y1="125.4" x2="305.5" y2="125.4" stroke="rgb(0,0,0)"  stroke-width="2.0"/>
<line x1="271.5" y1="132.6" x2="299.5" y2="132.6" stroke="rgb(0,0,0)"  stroke-width="2.0"/>
<line x1="305.5" y1="125.4" x2="325.5" y2="160.0" stroke="rgb(0,0,0)"  stroke-width="2.0"/>
<line x1="325.5" y1="160.0" x2="305.5" y2="194.6" stroke="rgb(0,0,0)"  stroke-width="2.0"/>
<line x1="316.2" y1="161.6" x2="302.2" y2="185.8" stroke="rgb(0,0,0)"  stroke-width="2.0"/>
<line x1="305.5" y1="194.6" x2="265.5" y2="194.6" stroke="rgb(0,0,0)"  stroke-width="2.0"/>
<line x1="74.6" y1="180.0" x2="74.6" y2="140.0" stroke="rgb(0,0,0)"  stroke-width="2.0"/>
<line x1="74.6" y1="140.0" x2="109.3" y2="120.0" stroke="rgb(0,0,0)"  stroke-width="2.0"/>
<line x1="83.4" y1="143.2" x2="107.7" y2="129.2" stroke="rgb(0,0,0)"  stroke-width="2.0"/>
<line x1="109.3" y1="120.0" x2="143.9" y2="140.0" stroke="rgb(0,0,0)"  stroke-width="2.0"/>
<line x1="143.9" y1="180.0" x2="109.3" y2="200.0" stroke="rgb(0,0,0)"  stroke-width="2.0"/>
<line x1="109.3" y1="200.0" x2="74.6" y2="180.0" stroke="rgb(0,0,0)"  stroke-width="2.0"/>
<line x1="107.7" y1="190.8" x2="83.4" y2="176.8" stroke="rgb(0,0,0)"  stroke-width="2.0"/>
<text x="103.282032" y="48.000000" fill="rgb(12,12,255)"  stroke="rgb(12,12,255)" stroke-width="1" font-size="16" >N</text>
<text x="22.000000" y="208.000000" fill="rgb(255,12,12)"  stroke="rgb(255,12,12)" stroke-width="1" font-size="16" >HO</text>
<text x="175.965309" y="135.639320" fill="rgb(255,12,12)"  stroke="rgb(255,12,12)" stroke-width="1" font-size="16" >O</text>
<text x="359.476719" y="168.000000" fill="rgb(255,12,12)"  stroke="rgb(255,12,12)" stroke-width="1" font-size="16" >OH</text>
</svg>
</g>
<text font-size="18.000000" fill ="black" font-family="sans-serif"
x="10.000000" y="20.000000" ></text>
</svg>
