<?xml version="1.0"?>
<svg version="1.1" id="topsvg"
xmlns="http://www.w3.org/2000/svg" xmlns:xlink="http://www.w3.org/1999/xlink"
xmlns:cml="http://www.xml-cml.org/schema" x="0" y="0" width="200px" height="200px" viewBox="0 0 100 100">
<title> - Open Babel Depiction</title>
<rect x="0" y="0" width="100" height="100" fill="white"/>
<g transform="translate(0,0)">
<svg width="100" height="100" x="0" y="0" viewBox="0 0 280 280"
font-family="sans-serif" stroke="rgb(0,0,0)" stroke-width="2"  stroke-linecap="round">
<line x1="200.0" y1="227.0" x2="200.0" y2="200.0" stroke="rgb(0,0,0)"  stroke-width="2.0"/>
<line x1="200.0" y1="120.0" x2="200.0" y2="93.0" stroke="rgb(0,0,0)"  stroke-width="2.0"/>
<line x1="213.0" y1="77.0" x2="227.0" y2="77.0" stroke="rgb(0,0,0)"  stroke-width="2.0"/>
<line x1="213.0" y1="83.0" x2="227.0" y2="83.0" stroke="rgb(0,0,0)"  stroke-width="2.0"/>
<line x1="197.0" y1="67.0" x2="197.0" y2="53.0" stroke="rgb(0,0,0)"  stroke-width="2.0"/>
<line x1="203.0" y1="67.0" x2="203.0" y2="53.0" stroke="rgb(0,0,0)"  stroke-width="2.0"/>
<line x1="187.0" y1="80.0" x2="160.0" y2="80.0" stroke="rgb(0,0,0)"  stroke-width="2.0"/>
<line x1="80.0" y1="80.0" x2="53.0" y2="80.0" stroke="rgb(0,0,0)"  stroke-width="2.0"/>
<line x1="165.4" y1="140.0" x2="200.0" y2="120.0" stroke="rgb(0,0,0)"  stroke-width="2.0"/>
<line x1="174.2" y1="143.2" x2="198.4" y2="129.2" stroke="rgb(0,0,0)"  stroke-width="2.0"/>
<line x1="200.0" y1="120.0" x2="234.6" y2="140.0" stroke="rgb(0,0,0)"  stroke-width="2.0"/>
<line x1="234.6" y1="140.0" x2="234.6" y2="180.0" stroke="rgb(0,0,0)"  stroke-width="2.0"/>
<line x1="227.4" y1="146.0" x2="227.4" y2="174.0" stroke="rgb(0,0,0)"  stroke-width="2.0"/>
<line x1="234.6" y1="180.0" x2="200.0" y2="200.0" stroke="rgb(0,0,0)"  stroke-width="2.0"/>
<line x1="200.0" y1="200.0" x2="165.4" y2="180.0" stroke="rgb(0,0,0)"  stroke-width="2.0"/>
<line x1="198.4" y1="190.8" x2="174.2" y2="176.8" stroke="rgb(0,0,0)"  stroke-width="2.0"/>
<line x1="165.4" y1="180.0" x2="165.4" y2="140.0" stroke="rgb(0,0,0)"  stroke-width="2.0"/>
<line x1="100.0" y1="114.6" x2="80.0" y2="80.0" stroke="rgb(0,0,0)"  stroke-width="2.0"/>
<line x1="103.2" y1="105.8" x2="89.2" y2="81.6" stroke="rgb(0,0,0)"  stroke-width="2.0"/>
<line x1="80.0" y1="80.0" x2="100.0" y2="45.4" stroke="rgb(0,0,0)"  stroke-width="2.0"/>
<line x1="100.0" y1="45.4" x2="140.0" y2="45.4" stroke="rgb(0,0,0)"  stroke-width="2.0"/>
<line x1="106.0" y1="52.6" x2="134.0" y2="52.6" stroke="rgb(0,0,0)"  stroke-width="2.0"/>
<line x1="140.0" y1="45.4" x2="160.0" y2="80.0" stroke="rgb(0,0,0)"  stroke-width="2.0"/>
<line x1="160.0" y1="80.0" x2="140.0" y2="114.6" stroke="rgb(0,0,0)"  stroke-width="2.0"/>
<line x1="150.8" y1="81.6" x2="136.8" y2="105.8" stroke="rgb(0,0,0)"  stroke-width="2.0"/>
<line x1="140.0" y1="114.6" x2="100.0" y2="114.6" stroke="rgb(0,0,0)"  stroke-width="2.0"/>
<text x="234.000000" y="88.000000" fill="rgb(255,12,12)"  stroke="rgb(255,12,12)" stroke-width="1" font-size="16" >O</text>
<text x="14.000000" y="88.000000" fill="rgb(12,12,255)"  stroke="rgb(12,12,255)" stroke-width="1" font-size="16" >H</text>
<text x="26.000000" y="91.680000" fill="rgb(12,12,255)"  stroke="rgb(12,12,255)" stroke-width="1" font-size="13" >2</text>
<text x="32.500000" y="88.000000" fill="rgb(12,12,255)"  stroke="rgb(12,12,255)" stroke-width="1" font-size="16" >N</text>
<text x="194.000000" y="48.000000" fill="rgb(255,12,12)"  stroke="rgb(255,12,12)" stroke-width="1" font-size="16" >O</text>
<text x="196.000000" y="248.000000" fill="rgb(12,12,255)"  stroke="rgb(12,12,255)" stroke-width="1" font-size="16" >NH</text>
<text x="220.000000" y="251.680000" fill="rgb(12,12,255)"  stroke="rgb(12,12,255)" stroke-width="1" font-size="13" >2</text>
<text x="194.000000" y="88.000000" fill="rgb(178,178,0)"  stroke="rgb(178,178,0)" stroke-width="1" font-size="16" >S</text>
</svg>
</g>
<text font-size="18.000000" fill ="black" font-family="sans-serif"
x="10.000000" y="20.000000" ></text>
</svg>
