<?xml version="1.0"?>
<svg version="1.1" id="topsvg"
xmlns="http://www.w3.org/2000/svg" xmlns:xlink="http://www.w3.org/1999/xlink"
xmlns:cml="http://www.xml-cml.org/schema" x="0" y="0" width="200px" height="200px" viewBox="0 0 100 100">
<title> - Open Babel Depiction</title>
<rect x="0" y="0" width="100" height="100" fill="white"/>
<g transform="translate(0,0)">
<svg width="100" height="100" x="0" y="0" viewBox="0 0 385.794 280"
font-family="sans-serif" stroke="rgb(0,0,0)" stroke-width="2"  stroke-linecap="round">
<line x1="49.0" y1="87.2" x2="60.0" y2="111.9" stroke="rgb(0,0,0)"  stroke-width="2.0"/>
<line x1="103.3" y1="160.0" x2="126.7" y2="173.5" stroke="rgb(0,0,0)"  stroke-width="2.0"/>
<line x1="149.2" y1="173.5" x2="172.6" y2="160.0" stroke="rgb(0,0,0)"  stroke-width="2.0"/>
<line x1="241.9" y1="160.0" x2="276.5" y2="180.0" stroke="rgb(0,0,0)"  stroke-width="2.0"/>
<line x1="103.3" y1="160.0" x2="78.8" y2="170.9" stroke="rgb(0,0,0)"  stroke-width="2.0"/>
<line x1="94.9" y1="155.9" x2="77.7" y2="163.5" stroke="rgb(0,0,0)"  stroke-width="2.0"/>
<line x1="58.1" y1="166.6" x2="48.7" y2="156.2" stroke="rgb(0,0,0)"  stroke-width="2.0"/>
<line x1="46.5" y1="135.3" x2="60.0" y2="111.9" stroke="rgb(0,0,0)"  stroke-width="2.0"/>
<line x1="60.0" y1="111.9" x2="99.1" y2="120.2" stroke="rgb(0,0,0)"  stroke-width="2.0"/>
<line x1="64.4" y1="120.2" x2="91.8" y2="126.0" stroke="rgb(0,0,0)"  stroke-width="2.0"/>
<line x1="99.1" y1="120.2" x2="103.3" y2="160.0" stroke="rgb(0,0,0)"  stroke-width="2.0"/>
<line x1="137.9" y1="100.0" x2="137.9" y2="60.0" stroke="rgb(0,0,0)"  stroke-width="2.0"/>
<line x1="145.1" y1="94.0" x2="145.1" y2="66.0" stroke="rgb(0,0,0)"  stroke-width="2.0"/>
<line x1="137.9" y1="60.0" x2="172.6" y2="40.0" stroke="rgb(0,0,0)"  stroke-width="2.0"/>
<line x1="172.6" y1="40.0" x2="207.2" y2="60.0" stroke="rgb(0,0,0)"  stroke-width="2.0"/>
<line x1="174.2" y1="49.2" x2="198.4" y2="63.2" stroke="rgb(0,0,0)"  stroke-width="2.0"/>
<line x1="207.2" y1="60.0" x2="207.2" y2="100.0" stroke="rgb(0,0,0)"  stroke-width="2.0"/>
<line x1="207.2" y1="100.0" x2="172.6" y2="120.0" stroke="rgb(0,0,0)"  stroke-width="2.0"/>
<line x1="172.6" y1="120.0" x2="137.9" y2="100.0" stroke="rgb(0,0,0)"  stroke-width="2.0"/>
<line x1="207.2" y1="100.0" x2="230.4" y2="113.4" stroke="rgb(0,0,0)"  stroke-width="2.0"/>
<line x1="208.8" y1="109.2" x2="225.1" y2="118.6" stroke="rgb(0,0,0)"  stroke-width="2.0"/>
<line x1="241.9" y1="133.0" x2="241.9" y2="160.0" stroke="rgb(0,0,0)"  stroke-width="2.0"/>
<line x1="241.9" y1="160.0" x2="218.7" y2="173.4" stroke="rgb(0,0,0)"  stroke-width="2.0"/>
<line x1="233.1" y1="156.8" x2="216.8" y2="166.2" stroke="rgb(0,0,0)"  stroke-width="2.0"/>
<line x1="196.0" y1="173.5" x2="172.6" y2="160.0" stroke="rgb(0,0,0)"  stroke-width="2.0"/>
<line x1="172.6" y1="160.0" x2="172.6" y2="120.0" stroke="rgb(0,0,0)"  stroke-width="2.0"/>
<line x1="179.8" y1="154.0" x2="179.8" y2="126.0" stroke="rgb(0,0,0)"  stroke-width="2.0"/>
<line x1="345.8" y1="180.0" x2="345.8" y2="220.0" stroke="rgb(0,0,0)"  stroke-width="2.0"/>
<line x1="338.6" y1="186.0" x2="338.6" y2="214.0" stroke="rgb(0,0,0)"  stroke-width="2.0"/>
<line x1="345.8" y1="220.0" x2="311.2" y2="240.0" stroke="rgb(0,0,0)"  stroke-width="2.0"/>
<line x1="311.2" y1="240.0" x2="276.5" y2="220.0" stroke="rgb(0,0,0)"  stroke-width="2.0"/>
<line x1="309.6" y1="230.8" x2="285.3" y2="216.8" stroke="rgb(0,0,0)"  stroke-width="2.0"/>
<line x1="276.5" y1="220.0" x2="276.5" y2="180.0" stroke="rgb(0,0,0)"  stroke-width="2.0"/>
<line x1="276.5" y1="180.0" x2="311.2" y2="160.0" stroke="rgb(0,0,0)"  stroke-width="2.0"/>
<line x1="285.3" y1="183.2" x2="309.6" y2="169.2" stroke="rgb(0,0,0)"  stroke-width="2.0"/>
<line x1="311.2" y1="160.0" x2="345.8" y2="180.0" stroke="rgb(0,0,0)"  stroke-width="2.0"/>
<text x="22.000000" y="154.543673" fill="rgb(12,12,255)"  stroke="rgb(12,12,255)" stroke-width="1" font-size="16" >HN</text>
<text x="60.765224" y="184.269466" fill="rgb(12,12,255)"  stroke="rgb(12,12,255)" stroke-width="1" font-size="16" >N</text>
<text x="201.230091" y="188.000000" fill="rgb(12,12,255)"  stroke="rgb(12,12,255)" stroke-width="1" font-size="16" >N</text>
<text x="235.871107" y="128.000000" fill="rgb(12,12,255)"  stroke="rgb(12,12,255)" stroke-width="1" font-size="16" >N</text>
<text x="17.730534" y="83.360838" fill="rgb(102,102,102)"  stroke="rgb(102,102,102)" stroke-width="1" font-size="16" >H</text>
<text x="29.730534" y="87.040838" fill="rgb(102,102,102)"  stroke="rgb(102,102,102)" stroke-width="1" font-size="13" >3</text>
<text x="36.230534" y="83.360838" fill="rgb(102,102,102)"  stroke="rgb(102,102,102)" stroke-width="1" font-size="16" >C</text>
<text x="131.948059" y="188.000000" fill="rgb(12,12,255)"  stroke="rgb(12,12,255)" stroke-width="1" font-size="16" >N</text>
<text x="131.948059" y="204.000000" fill="rgb(12,12,255)"  stroke="rgb(12,12,255)" stroke-width="1" font-size="16" >H</text>
</svg>
</g>
<text font-size="18.000000" fill ="black" font-family="sans-serif"
x="10.000000" y="20.000000" ></text>
</svg>
