<?xml version="1.0"?>
<svg version="1.1" id="topsvg"
xmlns="http://www.w3.org/2000/svg" xmlns:xlink="http://www.w3.org/1999/xlink"
xmlns:cml="http://www.xml-cml.org/schema" x="0" y="0" width="200px" height="200px" viewBox="0 0 100 100">
<title> - Open Babel Depiction</title>
<rect x="0" y="0" width="100" height="100" fill="white"/>
<g transform="translate(0,0)">
<svg width="100" height="100" x="0" y="0" viewBox="0 0 520 480"
font-family="sans-serif" stroke="rgb(0,0,0)" stroke-width="2"  stroke-linecap="round">
<line x1="318.0" y1="53.5" x2="294.6" y2="40.0" stroke="rgb(0,0,0)"  stroke-width="2.0"/>
<line x1="294.6" y1="40.0" x2="260.0" y2="60.0" stroke="rgb(0,0,0)"  stroke-width="2.0"/>
<line x1="260.0" y1="60.0" x2="260.0" y2="100.0" stroke="rgb(0,0,0)"  stroke-width="2.0"/>
<line x1="260.0" y1="100.0" x2="236.6" y2="113.5" stroke="rgb(0,0,0)"  stroke-width="2.0"/>
<line x1="260.0" y1="100.0" x2="294.6" y2="120.0" stroke="rgb(0,0,0)"  stroke-width="2.0"/>
<line x1="294.6" y1="120.0" x2="294.6" y2="147.0" stroke="rgb(0,0,0)"  stroke-width="2.0"/>
<line x1="283.4" y1="166.5" x2="260.0" y2="180.0" stroke="rgb(0,0,0)"  stroke-width="2.0"/>
<line x1="260.0" y1="180.0" x2="260.0" y2="220.0" stroke="rgb(0,0,0)"  stroke-width="2.0"/>
<line x1="260.0" y1="220.0" x2="220.0" y2="220.0" stroke="rgb(0,0,0)"  stroke-width="2.0"/>
<line x1="220.0" y1="220.0" x2="206.5" y2="243.4" stroke="rgb(0,0,0)"  stroke-width="2.0"/>
<line x1="187.0" y1="254.6" x2="160.0" y2="254.6" stroke="rgb(0,0,0)"  stroke-width="2.0"/>
<line x1="160.0" y1="254.6" x2="140.0" y2="220.0" stroke="rgb(0,0,0)"  stroke-width="2.0"/>
<line x1="140.0" y1="220.0" x2="153.5" y2="196.6" stroke="rgb(0,0,0)"  stroke-width="2.0"/>
<line x1="140.0" y1="220.0" x2="100.0" y2="220.0" stroke="rgb(0,0,0)"  stroke-width="2.0"/>
<line x1="100.0" y1="220.0" x2="80.0" y2="254.6" stroke="rgb(0,0,0)"  stroke-width="2.0"/>
<line x1="80.0" y1="254.6" x2="53.0" y2="254.6" stroke="rgb(0,0,0)"  stroke-width="2.0"/>
<line x1="162.6" y1="256.1" x2="149.1" y2="279.5" stroke="rgb(0,0,0)"  stroke-width="2.0"/>
<line x1="157.4" y1="253.1" x2="143.9" y2="276.5" stroke="rgb(0,0,0)"  stroke-width="2.0"/>
<line x1="260.0" y1="220.0" x2="260.0" y2="260.0" stroke="rgb(0,0,0)"  stroke-width="2.0"/>
<line x1="260.0" y1="260.0" x2="283.4" y2="273.5" stroke="rgb(0,0,0)"  stroke-width="2.0"/>
<line x1="294.6" y1="293.0" x2="294.6" y2="320.0" stroke="rgb(0,0,0)"  stroke-width="2.0"/>
<line x1="294.6" y1="320.0" x2="329.3" y2="340.0" stroke="rgb(0,0,0)"  stroke-width="2.0"/>
<line x1="329.3" y1="340.0" x2="352.7" y2="326.5" stroke="rgb(0,0,0)"  stroke-width="2.0"/>
<line x1="329.3" y1="340.0" x2="329.3" y2="380.0" stroke="rgb(0,0,0)"  stroke-width="2.0"/>
<line x1="329.3" y1="380.0" x2="363.9" y2="400.0" stroke="rgb(0,0,0)"  stroke-width="2.0"/>
<line x1="363.9" y1="400.0" x2="363.9" y2="427.0" stroke="rgb(0,0,0)"  stroke-width="2.0"/>
<line x1="296.1" y1="322.6" x2="272.8" y2="336.1" stroke="rgb(0,0,0)"  stroke-width="2.0"/>
<line x1="293.1" y1="317.4" x2="269.8" y2="330.9" stroke="rgb(0,0,0)"  stroke-width="2.0"/>
<line x1="260.0" y1="220.0" x2="300.0" y2="220.0" stroke="rgb(0,0,0)"  stroke-width="2.0"/>
<line x1="300.0" y1="220.0" x2="313.5" y2="243.4" stroke="rgb(0,0,0)"  stroke-width="2.0"/>
<line x1="333.0" y1="254.6" x2="360.0" y2="254.6" stroke="rgb(0,0,0)"  stroke-width="2.0"/>
<line x1="360.0" y1="254.6" x2="380.0" y2="220.0" stroke="rgb(0,0,0)"  stroke-width="2.0"/>
<line x1="380.0" y1="220.0" x2="366.5" y2="196.6" stroke="rgb(0,0,0)"  stroke-width="2.0"/>
<line x1="380.0" y1="220.0" x2="420.0" y2="220.0" stroke="rgb(0,0,0)"  stroke-width="2.0"/>
<line x1="420.0" y1="220.0" x2="440.0" y2="185.4" stroke="rgb(0,0,0)"  stroke-width="2.0"/>
<line x1="440.0" y1="185.4" x2="467.0" y2="185.4" stroke="rgb(0,0,0)"  stroke-width="2.0"/>
<line x1="362.6" y1="253.1" x2="376.1" y2="276.5" stroke="rgb(0,0,0)"  stroke-width="2.0"/>
<line x1="357.4" y1="256.1" x2="370.9" y2="279.5" stroke="rgb(0,0,0)"  stroke-width="2.0"/>
<line x1="293.1" y1="117.4" x2="316.5" y2="103.9" stroke="rgb(0,0,0)"  stroke-width="2.0"/>
<line x1="296.1" y1="122.6" x2="319.5" y2="109.1" stroke="rgb(0,0,0)"  stroke-width="2.0"/>
<text x="314.000000" y="262.641016" fill="rgb(255,12,12)"  stroke="rgb(255,12,12)" stroke-width="1" font-size="16" >O</text>
<text x="288.641016" y="288.000000" fill="rgb(255,12,12)"  stroke="rgb(255,12,12)" stroke-width="1" font-size="16" >O</text>
<text x="359.923048" y="328.000000" fill="rgb(102,102,102)"  stroke="rgb(102,102,102)" stroke-width="1" font-size="16" >CH</text>
<text x="383.923048" y="331.680000" fill="rgb(102,102,102)"  stroke="rgb(102,102,102)" stroke-width="1" font-size="13" >3</text>
<text x="359.923048" y="448.000000" fill="rgb(102,102,102)"  stroke="rgb(102,102,102)" stroke-width="1" font-size="16" >CH</text>
<text x="383.923048" y="451.680000" fill="rgb(102,102,102)"  stroke="rgb(102,102,102)" stroke-width="1" font-size="13" >3</text>
<text x="254.000000" y="348.000000" fill="rgb(255,12,12)"  stroke="rgb(255,12,12)" stroke-width="1" font-size="16" >O</text>
<text x="334.000000" y="193.358984" fill="rgb(102,102,102)"  stroke="rgb(102,102,102)" stroke-width="1" font-size="16" >H</text>
<text x="346.000000" y="197.038984" fill="rgb(102,102,102)"  stroke="rgb(102,102,102)" stroke-width="1" font-size="13" >3</text>
<text x="352.500000" y="193.358984" fill="rgb(102,102,102)"  stroke="rgb(102,102,102)" stroke-width="1" font-size="16" >C</text>
<text x="476.000000" y="193.358984" fill="rgb(102,102,102)"  stroke="rgb(102,102,102)" stroke-width="1" font-size="16" >CH</text>
<text x="500.000000" y="197.038984" fill="rgb(102,102,102)"  stroke="rgb(102,102,102)" stroke-width="1" font-size="13" >3</text>
<text x="374.000000" y="297.282032" fill="rgb(255,12,12)"  stroke="rgb(255,12,12)" stroke-width="1" font-size="16" >O</text>
<text x="323.282032" y="108.000000" fill="rgb(255,12,12)"  stroke="rgb(255,12,12)" stroke-width="1" font-size="16" >O</text>
<text x="199.358984" y="128.000000" fill="rgb(102,102,102)"  stroke="rgb(102,102,102)" stroke-width="1" font-size="16" >H</text>
<text x="211.358984" y="131.680000" fill="rgb(102,102,102)"  stroke="rgb(102,102,102)" stroke-width="1" font-size="13" >3</text>
<text x="217.858984" y="128.000000" fill="rgb(102,102,102)"  stroke="rgb(102,102,102)" stroke-width="1" font-size="16" >C</text>
<text x="288.641016" y="168.000000" fill="rgb(255,12,12)"  stroke="rgb(255,12,12)" stroke-width="1" font-size="16" >O</text>
<text x="325.282032" y="68.000000" fill="rgb(102,102,102)"  stroke="rgb(102,102,102)" stroke-width="1" font-size="16" >CH</text>
<text x="349.282032" y="71.680000" fill="rgb(102,102,102)"  stroke="rgb(102,102,102)" stroke-width="1" font-size="13" >3</text>
<text x="194.000000" y="262.641016" fill="rgb(255,12,12)"  stroke="rgb(255,12,12)" stroke-width="1" font-size="16" >O</text>
<text x="156.000000" y="193.358984" fill="rgb(102,102,102)"  stroke="rgb(102,102,102)" stroke-width="1" font-size="16" >CH</text>
<text x="180.000000" y="197.038984" fill="rgb(102,102,102)"  stroke="rgb(102,102,102)" stroke-width="1" font-size="13" >3</text>
<text x="14.000000" y="262.641016" fill="rgb(102,102,102)"  stroke="rgb(102,102,102)" stroke-width="1" font-size="16" >H</text>
<text x="26.000000" y="266.321016" fill="rgb(102,102,102)"  stroke="rgb(102,102,102)" stroke-width="1" font-size="13" >3</text>
<text x="32.500000" y="262.641016" fill="rgb(102,102,102)"  stroke="rgb(102,102,102)" stroke-width="1" font-size="16" >C</text>
<text x="134.000000" y="297.282032" fill="rgb(255,12,12)"  stroke="rgb(255,12,12)" stroke-width="1" font-size="16" >O</text>
</svg>
</g>
<text font-size="18.000000" fill ="black" font-family="sans-serif"
x="10.000000" y="20.000000" ></text>
</svg>
