<?xml version="1.0"?>
<svg version="1.1" id="topsvg"
xmlns="http://www.w3.org/2000/svg" xmlns:xlink="http://www.w3.org/1999/xlink"
xmlns:cml="http://www.xml-cml.org/schema" x="0" y="0" width="200px" height="200px" viewBox="0 0 100 100">
<title> - Open Babel Depiction</title>
<rect x="0" y="0" width="100" height="100" fill="white"/>
<g transform="translate(0,0)">
<svg width="100" height="100" x="0" y="0" viewBox="0 0 212.489 176.195"
font-family="sans-serif" stroke="rgb(0,0,0)" stroke-width="2"  stroke-linecap="round">
<line x1="49.7" y1="103.9" x2="69.7" y2="85.8" stroke="rgb(0,0,0)"  stroke-width="2.0"/>
<line x1="69.7" y1="85.8" x2="107.8" y2="98.2" stroke="rgb(0,0,0)"  stroke-width="2.0"/>
<line x1="146.6" y1="63.4" x2="153.6" y2="51.3" stroke="rgb(0,0,0)"  stroke-width="2.0"/>
<line x1="133.6" y1="63.4" x2="126.6" y2="51.3" stroke="rgb(0,0,0)"  stroke-width="2.0"/>
<line x1="66.8" y1="86.4" x2="61.2" y2="60.0" stroke="rgb(0,0,0)"  stroke-width="2.0"/>
<line x1="72.7" y1="85.2" x2="67.0" y2="58.8" stroke="rgb(0,0,0)"  stroke-width="2.0"/>
<line x1="172.5" y1="98.2" x2="160.1" y2="136.2" stroke="rgb(0,0,0)"  stroke-width="2.0"/>
<line x1="160.1" y1="136.2" x2="120.1" y2="136.2" stroke="rgb(0,0,0)"  stroke-width="2.0"/>
<line x1="120.1" y1="136.2" x2="107.8" y2="98.2" stroke="rgb(0,0,0)"  stroke-width="2.0"/>
<line x1="107.8" y1="98.2" x2="129.6" y2="82.3" stroke="rgb(0,0,0)"  stroke-width="2.0"/>
<line x1="150.6" y1="82.3" x2="172.5" y2="98.2" stroke="rgb(0,0,0)"  stroke-width="2.0"/>
<text x="44.800000" y="98.444971" fill="rgb(255,12,12)"  stroke="rgb(255,12,12)" stroke-width="1" font-size="16" >_</text>
<text x="34.000000" y="120.556971" fill="rgb(255,12,12)"  stroke="rgb(255,12,12)" stroke-width="1" font-size="16" >O</text>
<text x="144.928733" y="70.609016" fill="rgb(12,12,255)"  stroke="rgb(12,12,255)" stroke-width="1" font-size="16" >+</text>
<text x="134.128733" y="82.641016" fill="rgb(12,12,255)"  stroke="rgb(12,12,255)" stroke-width="1" font-size="16" >N</text>
<text x="154.128733" y="48.000000" fill="rgb(191,191,191)"  stroke="rgb(191,191,191)" stroke-width="1" font-size="16" >H</text>
<text x="114.128733" y="48.000000" fill="rgb(191,191,191)"  stroke="rgb(191,191,191)" stroke-width="1" font-size="16" >H</text>
<text x="55.409325" y="54.665842" fill="rgb(255,12,12)"  stroke="rgb(255,12,12)" stroke-width="1" font-size="16" >O</text>
</svg>
</g>
<text font-size="18.000000" fill ="black" font-family="sans-serif"
x="10.000000" y="20.000000" ></text>
</svg>
