<?xml version="1.0"?>
<svg version="1.1" id="topsvg"
xmlns="http://www.w3.org/2000/svg" xmlns:xlink="http://www.w3.org/1999/xlink"
xmlns:cml="http://www.xml-cml.org/schema" x="0" y="0" width="200px" height="200px" viewBox="0 0 100 100">
<title> - Open Babel Depiction</title>
<rect x="0" y="0" width="100" height="100" fill="white"/>
<g transform="translate(0,0)">
<svg width="100" height="100" x="0" y="0" viewBox="0 0 380.452 367.847"
font-family="sans-serif" stroke="rgb(0,0,0)" stroke-width="2"  stroke-linecap="round">
<line x1="51.3" y1="315.3" x2="61.8" y2="321.3" stroke="rgb(0,0,0)"  stroke-width="2.0"/>
<line x1="84.3" y1="321.3" x2="106.1" y2="308.8" stroke="rgb(0,0,0)"  stroke-width="2.0"/>
<line x1="172.3" y1="270.6" x2="194.1" y2="258.0" stroke="rgb(0,0,0)"  stroke-width="2.0"/>
<line x1="202.3" y1="238.5" x2="202.3" y2="226.3" stroke="rgb(0,0,0)"  stroke-width="2.0"/>
<line x1="208.3" y1="238.5" x2="208.3" y2="226.3" stroke="rgb(0,0,0)"  stroke-width="2.0"/>
<line x1="192.3" y1="213.3" x2="142.0" y2="213.3" stroke="rgb(0,0,0)"  stroke-width="2.0"/>
<line x1="218.3" y1="213.3" x2="268.7" y2="213.3" stroke="rgb(0,0,0)"  stroke-width="2.0"/>
<line x1="205.3" y1="200.3" x2="205.3" y2="188.1" stroke="rgb(0,0,0)"  stroke-width="2.0"/>
<line x1="202.3" y1="162.1" x2="202.3" y2="149.9" stroke="rgb(0,0,0)"  stroke-width="2.0"/>
<line x1="208.3" y1="162.1" x2="208.3" y2="149.9" stroke="rgb(0,0,0)"  stroke-width="2.0"/>
<line x1="218.3" y1="136.9" x2="230.5" y2="136.9" stroke="rgb(0,0,0)"  stroke-width="2.0"/>
<line x1="205.3" y1="123.9" x2="205.3" y2="111.8" stroke="rgb(0,0,0)"  stroke-width="2.0"/>
<line x1="192.3" y1="136.9" x2="180.2" y2="136.9" stroke="rgb(0,0,0)"  stroke-width="2.0"/>
<line x1="139.2" y1="251.5" x2="172.3" y2="270.6" stroke="rgb(0,0,0)"  stroke-width="2.0"/>
<line x1="140.8" y1="260.7" x2="163.5" y2="273.8" stroke="rgb(0,0,0)"  stroke-width="2.0"/>
<line x1="172.3" y1="270.6" x2="172.3" y2="308.8" stroke="rgb(0,0,0)"  stroke-width="2.0"/>
<line x1="172.3" y1="308.8" x2="139.2" y2="327.8" stroke="rgb(0,0,0)"  stroke-width="2.0"/>
<line x1="163.5" y1="305.5" x2="140.8" y2="318.6" stroke="rgb(0,0,0)"  stroke-width="2.0"/>
<line x1="139.2" y1="327.8" x2="106.1" y2="308.8" stroke="rgb(0,0,0)"  stroke-width="2.0"/>
<line x1="106.1" y1="308.8" x2="106.1" y2="270.6" stroke="rgb(0,0,0)"  stroke-width="2.0"/>
<line x1="113.3" y1="302.8" x2="113.3" y2="276.6" stroke="rgb(0,0,0)"  stroke-width="2.0"/>
<line x1="106.1" y1="270.6" x2="139.2" y2="251.5" stroke="rgb(0,0,0)"  stroke-width="2.0"/>
<line x1="70.2" y1="232.4" x2="70.2" y2="194.2" stroke="rgb(0,0,0)"  stroke-width="2.0"/>
<line x1="70.2" y1="194.2" x2="106.5" y2="182.4" stroke="rgb(0,0,0)"  stroke-width="2.0"/>
<line x1="106.5" y1="182.4" x2="121.3" y2="202.8" stroke="rgb(0,0,0)"  stroke-width="2.0"/>
<line x1="121.3" y1="223.8" x2="106.5" y2="244.2" stroke="rgb(0,0,0)"  stroke-width="2.0"/>
<line x1="106.5" y1="244.2" x2="70.2" y2="232.4" stroke="rgb(0,0,0)"  stroke-width="2.0"/>
<line x1="340.5" y1="194.2" x2="340.5" y2="232.4" stroke="rgb(0,0,0)"  stroke-width="2.0"/>
<line x1="340.5" y1="232.4" x2="304.1" y2="244.2" stroke="rgb(0,0,0)"  stroke-width="2.0"/>
<line x1="304.1" y1="244.2" x2="289.3" y2="223.8" stroke="rgb(0,0,0)"  stroke-width="2.0"/>
<line x1="289.3" y1="202.8" x2="304.1" y2="182.4" stroke="rgb(0,0,0)"  stroke-width="2.0"/>
<line x1="304.1" y1="182.4" x2="340.5" y2="194.2" stroke="rgb(0,0,0)"  stroke-width="2.0"/>
<line x1="302.3" y1="117.8" x2="302.3" y2="156.0" stroke="rgb(0,0,0)"  stroke-width="2.0"/>
<line x1="302.3" y1="156.0" x2="266.0" y2="167.8" stroke="rgb(0,0,0)"  stroke-width="2.0"/>
<line x1="266.0" y1="167.8" x2="251.2" y2="147.5" stroke="rgb(0,0,0)"  stroke-width="2.0"/>
<line x1="251.2" y1="126.4" x2="266.0" y2="106.0" stroke="rgb(0,0,0)"  stroke-width="2.0"/>
<line x1="266.0" y1="106.0" x2="302.3" y2="117.8" stroke="rgb(0,0,0)"  stroke-width="2.0"/>
<line x1="186.2" y1="40.0" x2="224.4" y2="40.0" stroke="rgb(0,0,0)"  stroke-width="2.0"/>
<line x1="224.4" y1="40.0" x2="236.2" y2="76.3" stroke="rgb(0,0,0)"  stroke-width="2.0"/>
<line x1="236.2" y1="76.3" x2="215.8" y2="91.1" stroke="rgb(0,0,0)"  stroke-width="2.0"/>
<line x1="194.8" y1="91.1" x2="174.4" y2="76.3" stroke="rgb(0,0,0)"  stroke-width="2.0"/>
<line x1="174.4" y1="76.3" x2="186.2" y2="40.0" stroke="rgb(0,0,0)"  stroke-width="2.0"/>
<line x1="108.4" y1="156.0" x2="108.4" y2="117.8" stroke="rgb(0,0,0)"  stroke-width="2.0"/>
<line x1="108.4" y1="117.8" x2="144.7" y2="106.0" stroke="rgb(0,0,0)"  stroke-width="2.0"/>
<line x1="144.7" y1="106.0" x2="159.5" y2="126.4" stroke="rgb(0,0,0)"  stroke-width="2.0"/>
<line x1="159.5" y1="147.5" x2="144.7" y2="167.8" stroke="rgb(0,0,0)"  stroke-width="2.0"/>
<line x1="144.7" y1="167.8" x2="108.4" y2="156.0" stroke="rgb(0,0,0)"  stroke-width="2.0"/>
<text x="199.332123" y="183.119413" fill="rgb(12,12,255)"  stroke="rgb(12,12,255)" stroke-width="1" font-size="16" >N</text>
<text x="199.332123" y="144.937595" fill="rgb(255,127,0)"  stroke="rgb(255,127,0)" stroke-width="1" font-size="16" >P</text>
<text x="237.513941" y="144.937595" fill="rgb(12,12,255)"  stroke="rgb(12,12,255)" stroke-width="1" font-size="16" >N</text>
<text x="199.332123" y="106.755777" fill="rgb(12,12,255)"  stroke="rgb(12,12,255)" stroke-width="1" font-size="16" >N</text>
<text x="161.150304" y="144.937595" fill="rgb(12,12,255)"  stroke="rgb(12,12,255)" stroke-width="1" font-size="16" >N</text>
<text x="199.332123" y="221.301231" fill="rgb(255,127,0)"  stroke="rgb(255,127,0)" stroke-width="1" font-size="16" >P</text>
<text x="67.066425" y="335.846686" fill="rgb(255,12,12)"  stroke="rgb(255,12,12)" stroke-width="1" font-size="16" >O</text>
<text x="199.332123" y="259.483049" fill="rgb(12,12,255)"  stroke="rgb(12,12,255)" stroke-width="1" font-size="16" >N</text>
<text x="14.000000" y="316.755777" fill="rgb(102,102,102)"  stroke="rgb(102,102,102)" stroke-width="1" font-size="16" >H</text>
<text x="26.000000" y="320.435777" fill="rgb(102,102,102)"  stroke="rgb(102,102,102)" stroke-width="1" font-size="13" >3</text>
<text x="32.500000" y="316.755777" fill="rgb(102,102,102)"  stroke="rgb(102,102,102)" stroke-width="1" font-size="16" >C</text>
<text x="122.968486" y="221.301231" fill="rgb(12,12,255)"  stroke="rgb(12,12,255)" stroke-width="1" font-size="16" >N</text>
<text x="275.695759" y="221.301231" fill="rgb(12,12,255)"  stroke="rgb(12,12,255)" stroke-width="1" font-size="16" >N</text>
</svg>
</g>
<text font-size="18.000000" fill ="black" font-family="sans-serif"
x="10.000000" y="20.000000" ></text>
</svg>
