<?xml version="1.0"?>
<svg version="1.1" id="topsvg"
xmlns="http://www.w3.org/2000/svg" xmlns:xlink="http://www.w3.org/1999/xlink"
xmlns:cml="http://www.xml-cml.org/schema" x="0" y="0" width="200px" height="200px" viewBox="0 0 100 100">
<title> - Open Babel Depiction</title>
<rect x="0" y="0" width="100" height="100" fill="white"/>
<g transform="translate(0,0)">
<svg width="100" height="100" x="0" y="0" viewBox="0 0 416.512 242.738"
font-family="sans-serif" stroke="rgb(0,0,0)" stroke-width="2"  stroke-linecap="round">
<line x1="53.0" y1="74.6" x2="80.0" y2="74.6" stroke="rgb(0,0,0)"  stroke-width="2.0"/>
<line x1="203.3" y1="122.7" x2="237.9" y2="142.7" stroke="rgb(0,0,0)"  stroke-width="2.0"/>
<line x1="341.9" y1="122.7" x2="365.3" y2="136.2" stroke="rgb(0,0,0)"  stroke-width="2.0"/>
<line x1="203.3" y1="122.7" x2="200.5" y2="96.1" stroke="rgb(0,0,0)"  stroke-width="2.0"/>
<line x1="195.5" y1="117.5" x2="193.6" y2="98.8" stroke="rgb(0,0,0)"  stroke-width="2.0"/>
<line x1="186.4" y1="80.3" x2="160.0" y2="74.6" stroke="rgb(0,0,0)"  stroke-width="2.0"/>
<line x1="160.0" y1="74.6" x2="140.0" y2="109.3" stroke="rgb(0,0,0)"  stroke-width="2.0"/>
<line x1="163.2" y1="83.4" x2="149.2" y2="107.7" stroke="rgb(0,0,0)"  stroke-width="2.0"/>
<line x1="140.0" y1="109.3" x2="158.1" y2="129.3" stroke="rgb(0,0,0)"  stroke-width="2.0"/>
<line x1="178.6" y1="133.7" x2="203.3" y2="122.7" stroke="rgb(0,0,0)"  stroke-width="2.0"/>
<line x1="160.0" y1="74.6" x2="140.0" y2="40.0" stroke="rgb(0,0,0)"  stroke-width="2.0"/>
<line x1="140.0" y1="40.0" x2="100.0" y2="40.0" stroke="rgb(0,0,0)"  stroke-width="2.0"/>
<line x1="134.0" y1="47.2" x2="106.0" y2="47.2" stroke="rgb(0,0,0)"  stroke-width="2.0"/>
<line x1="100.0" y1="40.0" x2="80.0" y2="74.6" stroke="rgb(0,0,0)"  stroke-width="2.0"/>
<line x1="80.0" y1="74.6" x2="100.0" y2="109.3" stroke="rgb(0,0,0)"  stroke-width="2.0"/>
<line x1="89.2" y1="76.2" x2="103.2" y2="100.5" stroke="rgb(0,0,0)"  stroke-width="2.0"/>
<line x1="100.0" y1="109.3" x2="140.0" y2="109.3" stroke="rgb(0,0,0)"  stroke-width="2.0"/>
<line x1="272.6" y1="82.7" x2="307.2" y2="62.7" stroke="rgb(0,0,0)"  stroke-width="2.0"/>
<line x1="281.4" y1="86.0" x2="305.6" y2="72.0" stroke="rgb(0,0,0)"  stroke-width="2.0"/>
<line x1="307.2" y1="62.7" x2="341.9" y2="82.7" stroke="rgb(0,0,0)"  stroke-width="2.0"/>
<line x1="341.9" y1="82.7" x2="341.9" y2="122.7" stroke="rgb(0,0,0)"  stroke-width="2.0"/>
<line x1="334.7" y1="88.7" x2="334.7" y2="116.7" stroke="rgb(0,0,0)"  stroke-width="2.0"/>
<line x1="341.9" y1="122.7" x2="307.2" y2="142.7" stroke="rgb(0,0,0)"  stroke-width="2.0"/>
<line x1="307.2" y1="142.7" x2="272.6" y2="122.7" stroke="rgb(0,0,0)"  stroke-width="2.0"/>
<line x1="272.6" y1="122.7" x2="272.6" y2="82.7" stroke="rgb(0,0,0)"  stroke-width="2.0"/>
<line x1="307.2" y1="142.7" x2="307.2" y2="182.7" stroke="rgb(0,0,0)"  stroke-width="2.0"/>
<line x1="300.0" y1="148.7" x2="300.0" y2="176.7" stroke="rgb(0,0,0)"  stroke-width="2.0"/>
<line x1="307.2" y1="182.7" x2="272.6" y2="202.7" stroke="rgb(0,0,0)"  stroke-width="2.0"/>
<line x1="272.6" y1="202.7" x2="237.9" y2="182.7" stroke="rgb(0,0,0)"  stroke-width="2.0"/>
<line x1="271.0" y1="193.5" x2="246.7" y2="179.5" stroke="rgb(0,0,0)"  stroke-width="2.0"/>
<line x1="237.9" y1="182.7" x2="237.9" y2="142.7" stroke="rgb(0,0,0)"  stroke-width="2.0"/>
<line x1="237.9" y1="142.7" x2="272.6" y2="122.7" stroke="rgb(0,0,0)"  stroke-width="2.0"/>
<line x1="246.7" y1="146.0" x2="271.0" y2="132.0" stroke="rgb(0,0,0)"  stroke-width="2.0"/>
<text x="370.512123" y="150.738360" fill="rgb(255,12,12)"  stroke="rgb(255,12,12)" stroke-width="1" font-size="16" >OH</text>
<text x="22.000000" y="82.641016" fill="rgb(255,12,12)"  stroke="rgb(255,12,12)" stroke-width="1" font-size="16" >HO</text>
<text x="160.765224" y="147.007825" fill="rgb(255,12,12)"  stroke="rgb(255,12,12)" stroke-width="1" font-size="16" >O</text>
<text x="193.125904" y="90.957484" fill="rgb(12,12,255)"  stroke="rgb(12,12,255)" stroke-width="1" font-size="16" >N</text>
</svg>
</g>
<text font-size="18.000000" fill ="black" font-family="sans-serif"
x="10.000000" y="20.000000" ></text>
</svg>
