<?xml version="1.0"?>
<svg version="1.1" id="topsvg"
xmlns="http://www.w3.org/2000/svg" xmlns:xlink="http://www.w3.org/1999/xlink"
xmlns:cml="http://www.xml-cml.org/schema" x="0" y="0" width="200px" height="200px" viewBox="0 0 100 100">
<title> - Open Babel Depiction</title>
<rect x="0" y="0" width="100" height="100" fill="white"/>
<g transform="translate(0,0)">
<svg width="100" height="100" x="0" y="0" viewBox="0 0 381.255 236.195"
font-family="sans-serif" stroke="rgb(0,0,0)" stroke-width="2"  stroke-linecap="round">
<line x1="301.3" y1="183.2" x2="301.3" y2="169.2" stroke="rgb(0,0,0)"  stroke-width="2.0"/>
<line x1="314.3" y1="153.2" x2="328.3" y2="153.2" stroke="rgb(0,0,0)"  stroke-width="2.0"/>
<line x1="314.3" y1="159.2" x2="328.3" y2="159.2" stroke="rgb(0,0,0)"  stroke-width="2.0"/>
<line x1="298.3" y1="143.2" x2="298.3" y2="129.2" stroke="rgb(0,0,0)"  stroke-width="2.0"/>
<line x1="304.3" y1="143.2" x2="304.3" y2="129.2" stroke="rgb(0,0,0)"  stroke-width="2.0"/>
<line x1="288.3" y1="156.2" x2="261.3" y2="156.2" stroke="rgb(0,0,0)"  stroke-width="2.0"/>
<line x1="137.9" y1="108.1" x2="103.3" y2="88.1" stroke="rgb(0,0,0)"  stroke-width="2.0"/>
<line x1="137.9" y1="108.1" x2="162.4" y2="97.2" stroke="rgb(0,0,0)"  stroke-width="2.0"/>
<line x1="146.4" y1="112.2" x2="163.5" y2="104.6" stroke="rgb(0,0,0)"  stroke-width="2.0"/>
<line x1="183.2" y1="101.5" x2="201.3" y2="121.6" stroke="rgb(0,0,0)"  stroke-width="2.0"/>
<line x1="201.3" y1="121.6" x2="181.3" y2="156.2" stroke="rgb(0,0,0)"  stroke-width="2.0"/>
<line x1="181.3" y1="156.2" x2="154.8" y2="150.6" stroke="rgb(0,0,0)"  stroke-width="2.0"/>
<line x1="140.8" y1="134.9" x2="137.9" y2="108.1" stroke="rgb(0,0,0)"  stroke-width="2.0"/>
<line x1="46.5" y1="63.4" x2="60.0" y2="40.0" stroke="rgb(0,0,0)"  stroke-width="2.0"/>
<line x1="60.0" y1="40.0" x2="86.2" y2="45.6" stroke="rgb(0,0,0)"  stroke-width="2.0"/>
<line x1="64.4" y1="48.3" x2="82.8" y2="52.2" stroke="rgb(0,0,0)"  stroke-width="2.0"/>
<line x1="100.5" y1="61.2" x2="103.3" y2="88.1" stroke="rgb(0,0,0)"  stroke-width="2.0"/>
<line x1="103.3" y1="88.1" x2="66.8" y2="104.4" stroke="rgb(0,0,0)"  stroke-width="2.0"/>
<line x1="94.9" y1="84.0" x2="69.3" y2="95.3" stroke="rgb(0,0,0)"  stroke-width="2.0"/>
<line x1="66.8" y1="104.4" x2="48.7" y2="84.3" stroke="rgb(0,0,0)"  stroke-width="2.0"/>
<line x1="201.3" y1="190.8" x2="181.3" y2="156.2" stroke="rgb(0,0,0)"  stroke-width="2.0"/>
<line x1="204.5" y1="182.0" x2="190.5" y2="157.8" stroke="rgb(0,0,0)"  stroke-width="2.0"/>
<line x1="201.3" y1="121.6" x2="241.3" y2="121.6" stroke="rgb(0,0,0)"  stroke-width="2.0"/>
<line x1="207.3" y1="128.8" x2="235.3" y2="128.8" stroke="rgb(0,0,0)"  stroke-width="2.0"/>
<line x1="241.3" y1="121.6" x2="261.3" y2="156.2" stroke="rgb(0,0,0)"  stroke-width="2.0"/>
<line x1="261.3" y1="156.2" x2="241.3" y2="190.8" stroke="rgb(0,0,0)"  stroke-width="2.0"/>
<line x1="252.0" y1="157.8" x2="238.0" y2="182.0" stroke="rgb(0,0,0)"  stroke-width="2.0"/>
<line x1="241.3" y1="190.8" x2="201.3" y2="190.8" stroke="rgb(0,0,0)"  stroke-width="2.0"/>
<text x="93.125904" y="56.316468" fill="rgb(12,12,255)"  stroke="rgb(12,12,255)" stroke-width="1" font-size="16" >N</text>
<text x="34.000000" y="82.641016" fill="rgb(178,178,0)"  stroke="rgb(178,178,0)" stroke-width="1" font-size="16" >S</text>
<text x="168.489877" y="99.827878" fill="rgb(12,12,255)"  stroke="rgb(12,12,255)" stroke-width="1" font-size="16" >N</text>
<text x="297.255101" y="204.194687" fill="rgb(12,12,255)"  stroke="rgb(12,12,255)" stroke-width="1" font-size="16" >NH</text>
<text x="321.255101" y="207.874687" fill="rgb(12,12,255)"  stroke="rgb(12,12,255)" stroke-width="1" font-size="13" >2</text>
<text x="124.129197" y="155.878219" fill="rgb(12,12,255)"  stroke="rgb(12,12,255)" stroke-width="1" font-size="16" >HN</text>
<text x="295.255101" y="124.194687" fill="rgb(255,12,12)"  stroke="rgb(255,12,12)" stroke-width="1" font-size="16" >O</text>
<text x="335.255101" y="164.194687" fill="rgb(255,12,12)"  stroke="rgb(255,12,12)" stroke-width="1" font-size="16" >O</text>
<text x="295.255101" y="164.194687" fill="rgb(178,178,0)"  stroke="rgb(178,178,0)" stroke-width="1" font-size="16" >S</text>
</svg>
</g>
<text font-size="18.000000" fill ="black" font-family="sans-serif"
x="10.000000" y="20.000000" ></text>
</svg>
