<?xml version="1.0"?>
<svg version="1.1" id="topsvg"
xmlns="http://www.w3.org/2000/svg" xmlns:xlink="http://www.w3.org/1999/xlink"
xmlns:cml="http://www.xml-cml.org/schema" x="0" y="0" width="200px" height="200px" viewBox="0 0 100 100">
<title> - Open Babel Depiction</title>
<rect x="0" y="0" width="100" height="100" fill="white"/>
<g transform="translate(0,0)">
<svg width="100" height="100" x="0" y="0" viewBox="0 0 343.425 280"
font-family="sans-serif" stroke="rgb(0,0,0)" stroke-width="2"  stroke-linecap="round">
<line x1="147.5" y1="46.5" x2="170.8" y2="60.0" stroke="rgb(0,0,0)"  stroke-width="2.0"/>
<line x1="205.5" y1="120.0" x2="205.5" y2="160.0" stroke="rgb(0,0,0)"  stroke-width="2.0"/>
<line x1="205.5" y1="160.0" x2="228.9" y2="173.5" stroke="rgb(0,0,0)"  stroke-width="2.0"/>
<line x1="205.5" y1="160.0" x2="170.8" y2="180.0" stroke="rgb(0,0,0)"  stroke-width="2.0"/>
<line x1="303.4" y1="193.5" x2="289.9" y2="216.8" stroke="rgb(0,0,0)"  stroke-width="2.0"/>
<line x1="270.5" y1="225.4" x2="244.3" y2="219.8" stroke="rgb(0,0,0)"  stroke-width="2.0"/>
<line x1="270.1" y1="217.9" x2="251.7" y2="214.0" stroke="rgb(0,0,0)"  stroke-width="2.0"/>
<line x1="244.3" y1="219.8" x2="241.5" y2="192.9" stroke="rgb(0,0,0)"  stroke-width="2.0"/>
<line x1="252.0" y1="174.7" x2="276.7" y2="163.7" stroke="rgb(0,0,0)"  stroke-width="2.0"/>
<line x1="276.7" y1="163.7" x2="303.4" y2="193.5" stroke="rgb(0,0,0)"  stroke-width="2.0"/>
<line x1="275.3" y1="173.0" x2="294.1" y2="193.8" stroke="rgb(0,0,0)"  stroke-width="2.0"/>
<line x1="40.0" y1="200.0" x2="55.9" y2="178.2" stroke="rgb(0,0,0)"  stroke-width="2.0"/>
<line x1="75.9" y1="171.7" x2="101.6" y2="180.0" stroke="rgb(0,0,0)"  stroke-width="2.0"/>
<line x1="101.6" y1="180.0" x2="101.6" y2="220.0" stroke="rgb(0,0,0)"  stroke-width="2.0"/>
<line x1="101.6" y1="220.0" x2="75.9" y2="228.3" stroke="rgb(0,0,0)"  stroke-width="2.0"/>
<line x1="55.8" y1="221.7" x2="40.0" y2="200.0" stroke="rgb(0,0,0)"  stroke-width="2.0"/>
<line x1="60.4" y1="215.8" x2="49.4" y2="200.6" stroke="rgb(0,0,0)"  stroke-width="2.0"/>
<line x1="240.1" y1="60.0" x2="240.1" y2="100.0" stroke="rgb(0,0,0)"  stroke-width="2.0"/>
<line x1="232.9" y1="66.0" x2="232.9" y2="94.0" stroke="rgb(0,0,0)"  stroke-width="2.0"/>
<line x1="240.1" y1="100.0" x2="205.5" y2="120.0" stroke="rgb(0,0,0)"  stroke-width="2.0"/>
<line x1="205.5" y1="120.0" x2="170.8" y2="100.0" stroke="rgb(0,0,0)"  stroke-width="2.0"/>
<line x1="203.9" y1="110.8" x2="179.6" y2="96.8" stroke="rgb(0,0,0)"  stroke-width="2.0"/>
<line x1="170.8" y1="100.0" x2="170.8" y2="60.0" stroke="rgb(0,0,0)"  stroke-width="2.0"/>
<line x1="170.8" y1="60.0" x2="205.5" y2="40.0" stroke="rgb(0,0,0)"  stroke-width="2.0"/>
<line x1="179.6" y1="63.2" x2="203.9" y2="49.2" stroke="rgb(0,0,0)"  stroke-width="2.0"/>
<line x1="205.5" y1="40.0" x2="240.1" y2="60.0" stroke="rgb(0,0,0)"  stroke-width="2.0"/>
<line x1="136.2" y1="240.0" x2="101.6" y2="220.0" stroke="rgb(0,0,0)"  stroke-width="2.0"/>
<line x1="134.6" y1="230.8" x2="110.3" y2="216.8" stroke="rgb(0,0,0)"  stroke-width="2.0"/>
<line x1="101.6" y1="180.0" x2="136.2" y2="160.0" stroke="rgb(0,0,0)"  stroke-width="2.0"/>
<line x1="110.3" y1="183.2" x2="134.6" y2="169.2" stroke="rgb(0,0,0)"  stroke-width="2.0"/>
<line x1="136.2" y1="160.0" x2="170.8" y2="180.0" stroke="rgb(0,0,0)"  stroke-width="2.0"/>
<line x1="170.8" y1="180.0" x2="170.8" y2="220.0" stroke="rgb(0,0,0)"  stroke-width="2.0"/>
<line x1="163.6" y1="186.0" x2="163.6" y2="214.0" stroke="rgb(0,0,0)"  stroke-width="2.0"/>
<line x1="170.8" y1="220.0" x2="136.2" y2="240.0" stroke="rgb(0,0,0)"  stroke-width="2.0"/>
<text x="277.424778" y="236.097343" fill="rgb(12,12,255)"  stroke="rgb(12,12,255)" stroke-width="1" font-size="16" >N</text>
<text x="57.511410" y="175.639320" fill="rgb(12,12,255)"  stroke="rgb(12,12,255)" stroke-width="1" font-size="16" >N</text>
<text x="57.511410" y="159.639320" fill="rgb(12,12,255)"  stroke="rgb(12,12,255)" stroke-width="1" font-size="16" >H</text>
<text x="57.511410" y="240.360680" fill="rgb(12,12,255)"  stroke="rgb(12,12,255)" stroke-width="1" font-size="16" >N</text>
<text x="118.194687" y="48.000000" fill="rgb(30,239,30)"  stroke="rgb(30,239,30)" stroke-width="1" font-size="16" >Cl</text>
<text x="234.117735" y="188.000000" fill="rgb(12,12,255)"  stroke="rgb(12,12,255)" stroke-width="1" font-size="16" >N</text>
</svg>
</g>
<text font-size="18.000000" fill ="black" font-family="sans-serif"
x="10.000000" y="20.000000" ></text>
</svg>
