<?xml version="1.0"?>
<svg version="1.1" id="topsvg"
xmlns="http://www.w3.org/2000/svg" xmlns:xlink="http://www.w3.org/1999/xlink"
xmlns:cml="http://www.xml-cml.org/schema" x="0" y="0" width="200px" height="200px" viewBox="0 0 100 100">
<title> - Open Babel Depiction</title>
<rect x="0" y="0" width="100" height="100" fill="white"/>
<g transform="translate(0,0)">
<svg width="100" height="100" x="0" y="0" viewBox="0 0 640 580"
font-family="sans-serif" stroke="rgb(0,0,0)" stroke-width="2"  stroke-linecap="round">
<line x1="493.2" y1="527.0" x2="493.2" y2="500.0" stroke="rgb(0,0,0)"  stroke-width="2.0"/>
<line x1="493.2" y1="500.0" x2="458.6" y2="480.0" stroke="rgb(0,0,0)"  stroke-width="2.0"/>
<line x1="458.6" y1="480.0" x2="458.6" y2="440.0" stroke="rgb(0,0,0)"  stroke-width="2.0"/>
<line x1="458.6" y1="440.0" x2="423.9" y2="420.0" stroke="rgb(0,0,0)"  stroke-width="2.0"/>
<line x1="423.9" y1="420.0" x2="423.9" y2="380.0" stroke="rgb(0,0,0)"  stroke-width="2.0"/>
<line x1="423.9" y1="380.0" x2="389.3" y2="360.0" stroke="rgb(0,0,0)"  stroke-width="2.0"/>
<line x1="389.3" y1="360.0" x2="365.9" y2="373.5" stroke="rgb(0,0,0)"  stroke-width="2.0"/>
<line x1="343.4" y1="373.5" x2="320.0" y2="360.0" stroke="rgb(0,0,0)"  stroke-width="2.0"/>
<line x1="320.0" y1="360.0" x2="320.0" y2="320.0" stroke="rgb(0,0,0)"  stroke-width="2.0"/>
<line x1="320.0" y1="320.0" x2="280.0" y2="320.0" stroke="rgb(0,0,0)"  stroke-width="2.0"/>
<line x1="280.0" y1="320.0" x2="266.5" y2="296.6" stroke="rgb(0,0,0)"  stroke-width="2.0"/>
<line x1="247.0" y1="285.4" x2="220.0" y2="285.4" stroke="rgb(0,0,0)"  stroke-width="2.0"/>
<line x1="220.0" y1="285.4" x2="200.0" y2="320.0" stroke="rgb(0,0,0)"  stroke-width="2.0"/>
<line x1="200.0" y1="320.0" x2="160.0" y2="320.0" stroke="rgb(0,0,0)"  stroke-width="2.0"/>
<line x1="160.0" y1="320.0" x2="140.0" y2="285.4" stroke="rgb(0,0,0)"  stroke-width="2.0"/>
<line x1="140.0" y1="285.4" x2="100.0" y2="285.4" stroke="rgb(0,0,0)"  stroke-width="2.0"/>
<line x1="100.0" y1="285.4" x2="80.0" y2="250.7" stroke="rgb(0,0,0)"  stroke-width="2.0"/>
<line x1="80.0" y1="250.7" x2="53.0" y2="250.7" stroke="rgb(0,0,0)"  stroke-width="2.0"/>
<line x1="217.4" y1="286.9" x2="203.9" y2="263.5" stroke="rgb(0,0,0)"  stroke-width="2.0"/>
<line x1="222.6" y1="283.9" x2="209.1" y2="260.5" stroke="rgb(0,0,0)"  stroke-width="2.0"/>
<line x1="320.0" y1="320.0" x2="320.0" y2="280.0" stroke="rgb(0,0,0)"  stroke-width="2.0"/>
<line x1="320.0" y1="280.0" x2="296.6" y2="266.5" stroke="rgb(0,0,0)"  stroke-width="2.0"/>
<line x1="285.4" y1="247.0" x2="285.4" y2="220.0" stroke="rgb(0,0,0)"  stroke-width="2.0"/>
<line x1="285.4" y1="220.0" x2="320.0" y2="200.0" stroke="rgb(0,0,0)"  stroke-width="2.0"/>
<line x1="320.0" y1="200.0" x2="320.0" y2="160.0" stroke="rgb(0,0,0)"  stroke-width="2.0"/>
<line x1="320.0" y1="160.0" x2="354.6" y2="140.0" stroke="rgb(0,0,0)"  stroke-width="2.0"/>
<line x1="354.6" y1="140.0" x2="354.6" y2="100.0" stroke="rgb(0,0,0)"  stroke-width="2.0"/>
<line x1="354.6" y1="100.0" x2="389.3" y2="80.0" stroke="rgb(0,0,0)"  stroke-width="2.0"/>
<line x1="389.3" y1="80.0" x2="389.3" y2="53.0" stroke="rgb(0,0,0)"  stroke-width="2.0"/>
<line x1="283.9" y1="222.6" x2="260.5" y2="209.1" stroke="rgb(0,0,0)"  stroke-width="2.0"/>
<line x1="286.9" y1="217.4" x2="263.5" y2="203.9" stroke="rgb(0,0,0)"  stroke-width="2.0"/>
<line x1="320.0" y1="320.0" x2="360.0" y2="320.0" stroke="rgb(0,0,0)"  stroke-width="2.0"/>
<line x1="360.0" y1="320.0" x2="373.5" y2="296.6" stroke="rgb(0,0,0)"  stroke-width="2.0"/>
<line x1="393.0" y1="285.4" x2="420.0" y2="285.4" stroke="rgb(0,0,0)"  stroke-width="2.0"/>
<line x1="420.0" y1="285.4" x2="440.0" y2="320.0" stroke="rgb(0,0,0)"  stroke-width="2.0"/>
<line x1="440.0" y1="320.0" x2="480.0" y2="320.0" stroke="rgb(0,0,0)"  stroke-width="2.0"/>
<line x1="480.0" y1="320.0" x2="500.0" y2="354.6" stroke="rgb(0,0,0)"  stroke-width="2.0"/>
<line x1="500.0" y1="354.6" x2="540.0" y2="354.6" stroke="rgb(0,0,0)"  stroke-width="2.0"/>
<line x1="540.0" y1="354.6" x2="560.0" y2="389.3" stroke="rgb(0,0,0)"  stroke-width="2.0"/>
<line x1="560.0" y1="389.3" x2="587.0" y2="389.3" stroke="rgb(0,0,0)"  stroke-width="2.0"/>
<line x1="417.4" y1="283.9" x2="430.9" y2="260.5" stroke="rgb(0,0,0)"  stroke-width="2.0"/>
<line x1="422.6" y1="286.9" x2="436.1" y2="263.5" stroke="rgb(0,0,0)"  stroke-width="2.0"/>
<line x1="386.3" y1="360.0" x2="386.3" y2="333.0" stroke="rgb(0,0,0)"  stroke-width="2.0"/>
<line x1="392.3" y1="360.0" x2="392.3" y2="333.0" stroke="rgb(0,0,0)"  stroke-width="2.0"/>
<text x="374.000000" y="293.358984" fill="rgb(255,12,12)"  stroke="rgb(255,12,12)" stroke-width="1" font-size="16" >O</text>
<text x="279.358984" y="268.000000" fill="rgb(255,12,12)"  stroke="rgb(255,12,12)" stroke-width="1" font-size="16" >O</text>
<text x="385.282032" y="48.000000" fill="rgb(102,102,102)"  stroke="rgb(102,102,102)" stroke-width="1" font-size="16" >CH</text>
<text x="409.282032" y="51.680000" fill="rgb(102,102,102)"  stroke="rgb(102,102,102)" stroke-width="1" font-size="13" >3</text>
<text x="244.717968" y="208.000000" fill="rgb(255,12,12)"  stroke="rgb(255,12,12)" stroke-width="1" font-size="16" >O</text>
<text x="596.000000" y="397.282032" fill="rgb(102,102,102)"  stroke="rgb(102,102,102)" stroke-width="1" font-size="16" >CH</text>
<text x="620.000000" y="400.962032" fill="rgb(102,102,102)"  stroke="rgb(102,102,102)" stroke-width="1" font-size="13" >3</text>
<text x="434.000000" y="258.717968" fill="rgb(255,12,12)"  stroke="rgb(255,12,12)" stroke-width="1" font-size="16" >O</text>
<text x="383.282032" y="328.000000" fill="rgb(255,12,12)"  stroke="rgb(255,12,12)" stroke-width="1" font-size="16" >O</text>
<text x="348.641016" y="388.000000" fill="rgb(255,12,12)"  stroke="rgb(255,12,12)" stroke-width="1" font-size="16" >O</text>
<text x="489.205081" y="548.000000" fill="rgb(102,102,102)"  stroke="rgb(102,102,102)" stroke-width="1" font-size="16" >CH</text>
<text x="513.205081" y="551.680000" fill="rgb(102,102,102)"  stroke="rgb(102,102,102)" stroke-width="1" font-size="13" >3</text>
<text x="254.000000" y="293.358984" fill="rgb(255,12,12)"  stroke="rgb(255,12,12)" stroke-width="1" font-size="16" >O</text>
<text x="14.000000" y="258.717968" fill="rgb(102,102,102)"  stroke="rgb(102,102,102)" stroke-width="1" font-size="16" >H</text>
<text x="26.000000" y="262.397968" fill="rgb(102,102,102)"  stroke="rgb(102,102,102)" stroke-width="1" font-size="13" >3</text>
<text x="32.500000" y="258.717968" fill="rgb(102,102,102)"  stroke="rgb(102,102,102)" stroke-width="1" font-size="16" >C</text>
<text x="194.000000" y="258.717968" fill="rgb(255,12,12)"  stroke="rgb(255,12,12)" stroke-width="1" font-size="16" >O</text>
</svg>
</g>
<text font-size="18.000000" fill ="black" font-family="sans-serif"
x="10.000000" y="20.000000" ></text>
</svg>
