<?xml version="1.0"?>
<svg version="1.1" id="topsvg"
xmlns="http://www.w3.org/2000/svg" xmlns:xlink="http://www.w3.org/1999/xlink"
xmlns:cml="http://www.xml-cml.org/schema" x="0" y="0" width="200px" height="200px" viewBox="0 0 100 100">
<title> - Open Babel Depiction</title>
<rect x="0" y="0" width="100" height="100" fill="white"/>
<g transform="translate(0,0)">
<svg width="100" height="100" x="0" y="0" viewBox="0 0 246.687 228.445"
font-family="sans-serif" stroke="rgb(0,0,0)" stroke-width="2"  stroke-linecap="round">
<line x1="137.4" y1="147.0" x2="137.4" y2="120.0" stroke="rgb(0,0,0)"  stroke-width="2.0"/>
<line x1="170.5" y1="57.4" x2="193.9" y2="43.9" stroke="rgb(0,0,0)"  stroke-width="2.0"/>
<line x1="173.5" y1="62.6" x2="196.9" y2="49.1" stroke="rgb(0,0,0)"  stroke-width="2.0"/>
<line x1="64.7" y1="112.4" x2="52.4" y2="150.4" stroke="rgb(0,0,0)"  stroke-width="2.0"/>
<line x1="52.4" y1="150.4" x2="44.0" y2="176.1" stroke="rgb(0,0,0)"  stroke-width="2.0"/>
<line x1="56.4" y1="151.7" x2="48.0" y2="177.4" stroke="rgb(0,0,0)"  stroke-width="2.0"/>
<line x1="48.4" y1="149.1" x2="40.0" y2="174.8" stroke="rgb(0,0,0)"  stroke-width="2.0"/>
<line x1="41.2" y1="80.0" x2="64.7" y2="112.4" stroke="rgb(0,0,0)"  stroke-width="2.0"/>
<line x1="50.6" y1="80.6" x2="67.0" y2="103.3" stroke="rgb(0,0,0)"  stroke-width="2.0"/>
<line x1="64.7" y1="112.4" x2="102.8" y2="100.0" stroke="rgb(0,0,0)"  stroke-width="2.0"/>
<line x1="102.8" y1="100.0" x2="102.8" y2="60.0" stroke="rgb(0,0,0)"  stroke-width="2.0"/>
<line x1="95.6" y1="94.0" x2="95.6" y2="66.0" stroke="rgb(0,0,0)"  stroke-width="2.0"/>
<line x1="102.8" y1="60.0" x2="77.1" y2="51.7" stroke="rgb(0,0,0)"  stroke-width="2.0"/>
<line x1="57.1" y1="58.2" x2="41.2" y2="80.0" stroke="rgb(0,0,0)"  stroke-width="2.0"/>
<line x1="172.0" y1="60.0" x2="148.7" y2="46.5" stroke="rgb(0,0,0)"  stroke-width="2.0"/>
<line x1="126.1" y1="46.5" x2="102.8" y2="60.0" stroke="rgb(0,0,0)"  stroke-width="2.0"/>
<line x1="102.8" y1="100.0" x2="137.4" y2="120.0" stroke="rgb(0,0,0)"  stroke-width="2.0"/>
<line x1="137.4" y1="120.0" x2="160.6" y2="106.6" stroke="rgb(0,0,0)"  stroke-width="2.0"/>
<line x1="139.0" y1="110.8" x2="155.3" y2="101.4" stroke="rgb(0,0,0)"  stroke-width="2.0"/>
<line x1="172.0" y1="87.0" x2="172.0" y2="60.0" stroke="rgb(0,0,0)"  stroke-width="2.0"/>
<text x="131.404636" y="168.000000" fill="rgb(255,12,12)"  stroke="rgb(255,12,12)" stroke-width="1" font-size="16" >OH</text>
<text x="166.045653" y="108.000000" fill="rgb(12,12,255)"  stroke="rgb(12,12,255)" stroke-width="1" font-size="16" >N</text>
<text x="200.686669" y="48.000000" fill="rgb(12,12,255)"  stroke="rgb(12,12,255)" stroke-width="1" font-size="16" >NH</text>
<text x="131.404636" y="48.000000" fill="rgb(12,12,255)"  stroke="rgb(12,12,255)" stroke-width="1" font-size="16" >N</text>
<text x="131.404636" y="32.000000" fill="rgb(12,12,255)"  stroke="rgb(12,12,255)" stroke-width="1" font-size="16" >H</text>
<text x="58.721360" y="55.639320" fill="rgb(12,12,255)"  stroke="rgb(12,12,255)" stroke-width="1" font-size="16" >N</text>
<text x="58.721360" y="39.639320" fill="rgb(12,12,255)"  stroke="rgb(12,12,255)" stroke-width="1" font-size="16" >H</text>
<text x="34.000000" y="196.445201" fill="rgb(12,12,255)"  stroke="rgb(12,12,255)" stroke-width="1" font-size="16" >N</text>
</svg>
</g>
<text font-size="18.000000" fill ="black" font-family="sans-serif"
x="10.000000" y="20.000000" ></text>
</svg>
