<?xml version="1.0"?>
<svg version="1.1" id="topsvg"
xmlns="http://www.w3.org/2000/svg" xmlns:xlink="http://www.w3.org/1999/xlink"
xmlns:cml="http://www.xml-cml.org/schema" x="0" y="0" width="200px" height="200px" viewBox="0 0 100 100">
<title> - Open Babel Depiction</title>
<rect x="0" y="0" width="100" height="100" fill="white"/>
<g transform="translate(0,0)">
<svg width="100" height="100" x="0" y="0" viewBox="0 0 378.564 240"
font-family="sans-serif" stroke="rgb(0,0,0)" stroke-width="2"  stroke-linecap="round">
<line x1="51.3" y1="193.5" x2="74.6" y2="180.0" stroke="rgb(0,0,0)"  stroke-width="2.0"/>
<line x1="143.9" y1="140.0" x2="167.3" y2="126.5" stroke="rgb(0,0,0)"  stroke-width="2.0"/>
<line x1="178.6" y1="107.0" x2="178.6" y2="93.0" stroke="rgb(0,0,0)"  stroke-width="2.0"/>
<line x1="191.6" y1="80.0" x2="218.6" y2="80.0" stroke="rgb(0,0,0)"  stroke-width="2.0"/>
<line x1="298.6" y1="80.0" x2="325.6" y2="80.0" stroke="rgb(0,0,0)"  stroke-width="2.0"/>
<line x1="175.6" y1="67.0" x2="175.6" y2="53.0" stroke="rgb(0,0,0)"  stroke-width="2.0"/>
<line x1="181.6" y1="67.0" x2="181.6" y2="53.0" stroke="rgb(0,0,0)"  stroke-width="2.0"/>
<line x1="165.6" y1="83.0" x2="151.6" y2="83.0" stroke="rgb(0,0,0)"  stroke-width="2.0"/>
<line x1="165.6" y1="77.0" x2="151.6" y2="77.0" stroke="rgb(0,0,0)"  stroke-width="2.0"/>
<line x1="109.3" y1="120.0" x2="143.9" y2="140.0" stroke="rgb(0,0,0)"  stroke-width="2.0"/>
<line x1="110.9" y1="129.2" x2="135.1" y2="143.2" stroke="rgb(0,0,0)"  stroke-width="2.0"/>
<line x1="143.9" y1="140.0" x2="143.9" y2="167.0" stroke="rgb(0,0,0)"  stroke-width="2.0"/>
<line x1="132.5" y1="186.6" x2="120.7" y2="193.4" stroke="rgb(0,0,0)"  stroke-width="2.0"/>
<line x1="127.2" y1="181.4" x2="118.8" y2="186.2" stroke="rgb(0,0,0)"  stroke-width="2.0"/>
<line x1="98.0" y1="193.5" x2="74.6" y2="180.0" stroke="rgb(0,0,0)"  stroke-width="2.0"/>
<line x1="74.6" y1="180.0" x2="74.6" y2="140.0" stroke="rgb(0,0,0)"  stroke-width="2.0"/>
<line x1="81.8" y1="174.0" x2="81.8" y2="146.0" stroke="rgb(0,0,0)"  stroke-width="2.0"/>
<line x1="74.6" y1="140.0" x2="109.3" y2="120.0" stroke="rgb(0,0,0)"  stroke-width="2.0"/>
<line x1="238.6" y1="45.4" x2="218.6" y2="80.0" stroke="rgb(0,0,0)"  stroke-width="2.0"/>
<line x1="241.8" y1="54.2" x2="227.8" y2="78.4" stroke="rgb(0,0,0)"  stroke-width="2.0"/>
<line x1="218.6" y1="80.0" x2="238.6" y2="114.6" stroke="rgb(0,0,0)"  stroke-width="2.0"/>
<line x1="238.6" y1="114.6" x2="278.6" y2="114.6" stroke="rgb(0,0,0)"  stroke-width="2.0"/>
<line x1="244.6" y1="107.4" x2="272.6" y2="107.4" stroke="rgb(0,0,0)"  stroke-width="2.0"/>
<line x1="278.6" y1="114.6" x2="298.6" y2="80.0" stroke="rgb(0,0,0)"  stroke-width="2.0"/>
<line x1="298.6" y1="80.0" x2="278.6" y2="45.4" stroke="rgb(0,0,0)"  stroke-width="2.0"/>
<line x1="289.3" y1="78.4" x2="275.3" y2="54.2" stroke="rgb(0,0,0)"  stroke-width="2.0"/>
<line x1="278.6" y1="45.4" x2="238.6" y2="45.4" stroke="rgb(0,0,0)"  stroke-width="2.0"/>
<text x="132.564065" y="88.000000" fill="rgb(255,12,12)"  stroke="rgb(255,12,12)" stroke-width="1" font-size="16" >O</text>
<text x="172.564065" y="48.000000" fill="rgb(255,12,12)"  stroke="rgb(255,12,12)" stroke-width="1" font-size="16" >O</text>
<text x="334.564065" y="88.000000" fill="rgb(12,12,255)"  stroke="rgb(12,12,255)" stroke-width="1" font-size="16" >NH</text>
<text x="358.564065" y="91.680000" fill="rgb(12,12,255)"  stroke="rgb(12,12,255)" stroke-width="1" font-size="13" >2</text>
<text x="22.000000" y="208.000000" fill="rgb(30,239,30)"  stroke="rgb(30,239,30)" stroke-width="1" font-size="16" >Cl</text>
<text x="172.564065" y="88.000000" fill="rgb(178,178,0)"  stroke="rgb(178,178,0)" stroke-width="1" font-size="16" >S</text>
<text x="172.564065" y="128.000000" fill="rgb(12,12,255)"  stroke="rgb(12,12,255)" stroke-width="1" font-size="16" >NH</text>
<text x="103.282032" y="208.000000" fill="rgb(12,12,255)"  stroke="rgb(12,12,255)" stroke-width="1" font-size="16" >N</text>
<text x="137.923048" y="188.000000" fill="rgb(12,12,255)"  stroke="rgb(12,12,255)" stroke-width="1" font-size="16" >N</text>
</svg>
</g>
<text font-size="18.000000" fill ="black" font-family="sans-serif"
x="10.000000" y="20.000000" ></text>
</svg>
