<?xml version="1.0"?>
<svg version="1.1" id="topsvg"
xmlns="http://www.w3.org/2000/svg" xmlns:xlink="http://www.w3.org/1999/xlink"
xmlns:cml="http://www.xml-cml.org/schema" x="0" y="0" width="200px" height="200px" viewBox="0 0 100 100">
<title> - Open Babel Depiction</title>
<rect x="0" y="0" width="100" height="100" fill="white"/>
<g transform="translate(0,0)">
<svg width="100" height="100" x="0" y="0" viewBox="0 0 316.512 251.404"
font-family="sans-serif" stroke="rgb(0,0,0)" stroke-width="2"  stroke-linecap="round">
<line x1="137.9" y1="108.1" x2="161.3" y2="94.6" stroke="rgb(0,0,0)"  stroke-width="2.0"/>
<line x1="183.8" y1="94.6" x2="207.2" y2="108.1" stroke="rgb(0,0,0)"  stroke-width="2.0"/>
<line x1="137.9" y1="108.1" x2="103.3" y2="88.1" stroke="rgb(0,0,0)"  stroke-width="2.0"/>
<line x1="193.8" y1="211.4" x2="182.8" y2="186.7" stroke="rgb(0,0,0)"  stroke-width="2.0"/>
<line x1="187.2" y1="166.2" x2="207.2" y2="148.1" stroke="rgb(0,0,0)"  stroke-width="2.0"/>
<line x1="207.2" y1="148.1" x2="241.9" y2="168.1" stroke="rgb(0,0,0)"  stroke-width="2.0"/>
<line x1="208.8" y1="157.3" x2="233.1" y2="171.3" stroke="rgb(0,0,0)"  stroke-width="2.0"/>
<line x1="241.9" y1="168.1" x2="236.3" y2="194.5" stroke="rgb(0,0,0)"  stroke-width="2.0"/>
<line x1="220.4" y1="208.6" x2="193.8" y2="211.4" stroke="rgb(0,0,0)"  stroke-width="2.0"/>
<line x1="217.7" y1="201.7" x2="199.0" y2="203.6" stroke="rgb(0,0,0)"  stroke-width="2.0"/>
<line x1="40.0" y1="74.6" x2="60.0" y2="40.0" stroke="rgb(0,0,0)"  stroke-width="2.0"/>
<line x1="49.2" y1="73.0" x2="63.2" y2="48.8" stroke="rgb(0,0,0)"  stroke-width="2.0"/>
<line x1="60.0" y1="40.0" x2="86.4" y2="45.6" stroke="rgb(0,0,0)"  stroke-width="2.0"/>
<line x1="100.5" y1="61.2" x2="103.3" y2="88.1" stroke="rgb(0,0,0)"  stroke-width="2.0"/>
<line x1="103.3" y1="88.1" x2="66.8" y2="104.4" stroke="rgb(0,0,0)"  stroke-width="2.0"/>
<line x1="94.9" y1="84.0" x2="69.3" y2="95.3" stroke="rgb(0,0,0)"  stroke-width="2.0"/>
<line x1="66.8" y1="104.4" x2="40.0" y2="74.6" stroke="rgb(0,0,0)"  stroke-width="2.0"/>
<line x1="276.5" y1="108.1" x2="276.5" y2="134.9" stroke="rgb(0,0,0)"  stroke-width="2.0"/>
<line x1="269.3" y1="114.1" x2="269.3" y2="132.9" stroke="rgb(0,0,0)"  stroke-width="2.0"/>
<line x1="265.3" y1="154.6" x2="241.9" y2="168.1" stroke="rgb(0,0,0)"  stroke-width="2.0"/>
<line x1="207.2" y1="148.1" x2="207.2" y2="108.1" stroke="rgb(0,0,0)"  stroke-width="2.0"/>
<line x1="207.2" y1="108.1" x2="230.4" y2="94.7" stroke="rgb(0,0,0)"  stroke-width="2.0"/>
<line x1="216.0" y1="111.3" x2="232.3" y2="101.9" stroke="rgb(0,0,0)"  stroke-width="2.0"/>
<line x1="253.1" y1="94.6" x2="276.5" y2="108.1" stroke="rgb(0,0,0)"  stroke-width="2.0"/>
<text x="166.589075" y="96.097343" fill="rgb(12,12,255)"  stroke="rgb(12,12,255)" stroke-width="1" font-size="16" >N</text>
<text x="166.589075" y="80.097343" fill="rgb(12,12,255)"  stroke="rgb(12,12,255)" stroke-width="1" font-size="16" >H</text>
<text x="235.871107" y="96.097343" fill="rgb(12,12,255)"  stroke="rgb(12,12,255)" stroke-width="1" font-size="16" >N</text>
<text x="270.512123" y="156.097343" fill="rgb(12,12,255)"  stroke="rgb(12,12,255)" stroke-width="1" font-size="16" >N</text>
<text x="159.504298" y="182.862568" fill="rgb(12,12,255)"  stroke="rgb(12,12,255)" stroke-width="1" font-size="16" >HN</text>
<text x="227.554640" y="215.223247" fill="rgb(12,12,255)"  stroke="rgb(12,12,255)" stroke-width="1" font-size="16" >N</text>
<text x="93.125904" y="56.316468" fill="rgb(255,12,12)"  stroke="rgb(255,12,12)" stroke-width="1" font-size="16" >O</text>
</svg>
</g>
<text font-size="18.000000" fill ="black" font-family="sans-serif"
x="10.000000" y="20.000000" ></text>
</svg>
