<?xml version="1.0"?>
<svg version="1.1" id="topsvg"
xmlns="http://www.w3.org/2000/svg" xmlns:xlink="http://www.w3.org/1999/xlink"
xmlns:cml="http://www.xml-cml.org/schema" x="0" y="0" width="200px" height="200px" viewBox="0 0 100 100">
<title> - Open Babel Depiction</title>
<rect x="0" y="0" width="100" height="100" fill="white"/>
<g transform="translate(0,0)">
<svg width="100" height="100" x="0" y="0" viewBox="0 0 367.528 349.94"
font-family="sans-serif" stroke="rgb(0,0,0)" stroke-width="2"  stroke-linecap="round">
<line x1="321.0" y1="186.2" x2="308.5" y2="208.0" stroke="rgb(0,0,0)"  stroke-width="2.0"/>
<line x1="270.3" y1="208.0" x2="257.7" y2="186.2" stroke="rgb(0,0,0)"  stroke-width="2.0"/>
<line x1="238.2" y1="178.0" x2="226.1" y2="178.0" stroke="rgb(0,0,0)"  stroke-width="2.0"/>
<line x1="238.2" y1="172.0" x2="226.1" y2="172.0" stroke="rgb(0,0,0)"  stroke-width="2.0"/>
<line x1="213.1" y1="188.0" x2="213.1" y2="238.2" stroke="rgb(0,0,0)"  stroke-width="2.0"/>
<line x1="213.1" y1="162.0" x2="213.1" y2="111.7" stroke="rgb(0,0,0)"  stroke-width="2.0"/>
<line x1="200.1" y1="175.0" x2="188.0" y2="175.0" stroke="rgb(0,0,0)"  stroke-width="2.0"/>
<line x1="162.0" y1="178.0" x2="149.8" y2="178.0" stroke="rgb(0,0,0)"  stroke-width="2.0"/>
<line x1="162.0" y1="172.0" x2="149.8" y2="172.0" stroke="rgb(0,0,0)"  stroke-width="2.0"/>
<line x1="136.8" y1="162.0" x2="136.8" y2="149.8" stroke="rgb(0,0,0)"  stroke-width="2.0"/>
<line x1="123.8" y1="175.0" x2="111.7" y2="175.0" stroke="rgb(0,0,0)"  stroke-width="2.0"/>
<line x1="136.8" y1="188.0" x2="136.8" y2="200.1" stroke="rgb(0,0,0)"  stroke-width="2.0"/>
<line x1="308.5" y1="274.1" x2="270.3" y2="274.1" stroke="rgb(0,0,0)"  stroke-width="2.0"/>
<line x1="302.5" y1="266.9" x2="276.3" y2="266.9" stroke="rgb(0,0,0)"  stroke-width="2.0"/>
<line x1="270.3" y1="274.1" x2="251.2" y2="241.0" stroke="rgb(0,0,0)"  stroke-width="2.0"/>
<line x1="251.2" y1="241.0" x2="270.3" y2="208.0" stroke="rgb(0,0,0)"  stroke-width="2.0"/>
<line x1="260.5" y1="239.4" x2="273.6" y2="216.8" stroke="rgb(0,0,0)"  stroke-width="2.0"/>
<line x1="270.3" y1="208.0" x2="308.5" y2="208.0" stroke="rgb(0,0,0)"  stroke-width="2.0"/>
<line x1="308.5" y1="208.0" x2="327.5" y2="241.0" stroke="rgb(0,0,0)"  stroke-width="2.0"/>
<line x1="305.2" y1="216.8" x2="318.3" y2="239.4" stroke="rgb(0,0,0)"  stroke-width="2.0"/>
<line x1="327.5" y1="241.0" x2="308.5" y2="274.1" stroke="rgb(0,0,0)"  stroke-width="2.0"/>
<line x1="232.2" y1="309.9" x2="194.0" y2="309.9" stroke="rgb(0,0,0)"  stroke-width="2.0"/>
<line x1="194.0" y1="309.9" x2="182.3" y2="273.7" stroke="rgb(0,0,0)"  stroke-width="2.0"/>
<line x1="182.3" y1="273.7" x2="202.6" y2="258.9" stroke="rgb(0,0,0)"  stroke-width="2.0"/>
<line x1="223.6" y1="258.9" x2="244.0" y2="273.7" stroke="rgb(0,0,0)"  stroke-width="2.0"/>
<line x1="244.0" y1="273.7" x2="232.2" y2="309.9" stroke="rgb(0,0,0)"  stroke-width="2.0"/>
<line x1="194.0" y1="40.0" x2="232.2" y2="40.0" stroke="rgb(0,0,0)"  stroke-width="2.0"/>
<line x1="232.2" y1="40.0" x2="244.0" y2="76.3" stroke="rgb(0,0,0)"  stroke-width="2.0"/>
<line x1="244.0" y1="76.3" x2="223.6" y2="91.0" stroke="rgb(0,0,0)"  stroke-width="2.0"/>
<line x1="202.6" y1="91.0" x2="182.3" y2="76.3" stroke="rgb(0,0,0)"  stroke-width="2.0"/>
<line x1="182.3" y1="76.3" x2="194.0" y2="40.0" stroke="rgb(0,0,0)"  stroke-width="2.0"/>
<line x1="117.8" y1="78.1" x2="155.9" y2="78.1" stroke="rgb(0,0,0)"  stroke-width="2.0"/>
<line x1="155.9" y1="78.1" x2="167.7" y2="114.4" stroke="rgb(0,0,0)"  stroke-width="2.0"/>
<line x1="167.7" y1="114.4" x2="147.3" y2="129.2" stroke="rgb(0,0,0)"  stroke-width="2.0"/>
<line x1="126.3" y1="129.2" x2="106.0" y2="114.4" stroke="rgb(0,0,0)"  stroke-width="2.0"/>
<line x1="106.0" y1="114.4" x2="117.8" y2="78.1" stroke="rgb(0,0,0)"  stroke-width="2.0"/>
<line x1="40.0" y1="194.0" x2="40.0" y2="155.9" stroke="rgb(0,0,0)"  stroke-width="2.0"/>
<line x1="40.0" y1="155.9" x2="76.3" y2="144.1" stroke="rgb(0,0,0)"  stroke-width="2.0"/>
<line x1="76.3" y1="144.1" x2="91.0" y2="164.5" stroke="rgb(0,0,0)"  stroke-width="2.0"/>
<line x1="91.0" y1="185.5" x2="76.3" y2="205.8" stroke="rgb(0,0,0)"  stroke-width="2.0"/>
<line x1="76.3" y1="205.8" x2="40.0" y2="194.0" stroke="rgb(0,0,0)"  stroke-width="2.0"/>
<line x1="155.9" y1="271.8" x2="117.8" y2="271.8" stroke="rgb(0,0,0)"  stroke-width="2.0"/>
<line x1="117.8" y1="271.8" x2="106.0" y2="235.5" stroke="rgb(0,0,0)"  stroke-width="2.0"/>
<line x1="106.0" y1="235.5" x2="126.3" y2="220.8" stroke="rgb(0,0,0)"  stroke-width="2.0"/>
<line x1="147.3" y1="220.8" x2="167.7" y2="235.5" stroke="rgb(0,0,0)"  stroke-width="2.0"/>
<line x1="167.7" y1="235.5" x2="155.9" y2="271.8" stroke="rgb(0,0,0)"  stroke-width="2.0"/>
<text x="168.969779" y="182.969779" fill="rgb(12,12,255)"  stroke="rgb(12,12,255)" stroke-width="1" font-size="16" >N</text>
<text x="130.830244" y="182.969779" fill="rgb(255,127,0)"  stroke="rgb(255,127,0)" stroke-width="1" font-size="16" >P</text>
<text x="130.830244" y="144.830244" fill="rgb(12,12,255)"  stroke="rgb(12,12,255)" stroke-width="1" font-size="16" >N</text>
<text x="92.690709" y="182.969779" fill="rgb(12,12,255)"  stroke="rgb(12,12,255)" stroke-width="1" font-size="16" >N</text>
<text x="130.830244" y="221.109314" fill="rgb(12,12,255)"  stroke="rgb(12,12,255)" stroke-width="1" font-size="16" >N</text>
<text x="207.109314" y="259.248849" fill="rgb(12,12,255)"  stroke="rgb(12,12,255)" stroke-width="1" font-size="16" >N</text>
<text x="245.248849" y="182.969779" fill="rgb(12,12,255)"  stroke="rgb(12,12,255)" stroke-width="1" font-size="16" >N</text>
<text x="207.109314" y="182.969779" fill="rgb(255,127,0)"  stroke="rgb(255,127,0)" stroke-width="1" font-size="16" >P</text>
<text x="321.527919" y="182.969779" fill="rgb(30,239,30)"  stroke="rgb(30,239,30)" stroke-width="1" font-size="16" >Cl</text>
<text x="207.109314" y="106.690709" fill="rgb(12,12,255)"  stroke="rgb(12,12,255)" stroke-width="1" font-size="16" >N</text>
</svg>
</g>
<text font-size="18.000000" fill ="black" font-family="sans-serif"
x="10.000000" y="20.000000" ></text>
</svg>
