<?xml version="1.0"?>
<svg version="1.1" id="topsvg"
xmlns="http://www.w3.org/2000/svg" xmlns:xlink="http://www.w3.org/1999/xlink"
xmlns:cml="http://www.xml-cml.org/schema" x="0" y="0" width="200px" height="200px" viewBox="0 0 100 100">
<title> - Open Babel Depiction</title>
<rect x="0" y="0" width="100" height="100" fill="white"/>
<g transform="translate(0,0)">
<svg width="100" height="100" x="0" y="0" viewBox="0 0 400 343.923"
font-family="sans-serif" stroke="rgb(0,0,0)" stroke-width="2"  stroke-linecap="round">
<line x1="93.5" y1="51.3" x2="80.0" y2="74.6" stroke="rgb(0,0,0)"  stroke-width="2.0"/>
<line x1="80.0" y1="74.6" x2="53.0" y2="74.6" stroke="rgb(0,0,0)"  stroke-width="2.0"/>
<line x1="80.0" y1="74.6" x2="93.5" y2="98.0" stroke="rgb(0,0,0)"  stroke-width="2.0"/>
<line x1="113.0" y1="109.3" x2="140.0" y2="109.3" stroke="rgb(0,0,0)"  stroke-width="2.0"/>
<line x1="220.0" y1="109.3" x2="260.0" y2="109.3" stroke="rgb(0,0,0)"  stroke-width="2.0"/>
<line x1="257.4" y1="107.8" x2="270.9" y2="84.4" stroke="rgb(0,0,0)"  stroke-width="2.0"/>
<line x1="262.6" y1="110.8" x2="276.1" y2="87.4" stroke="rgb(0,0,0)"  stroke-width="2.0"/>
<line x1="260.0" y1="109.3" x2="273.5" y2="132.7" stroke="rgb(0,0,0)"  stroke-width="2.0"/>
<line x1="293.0" y1="143.9" x2="307.0" y2="143.9" stroke="rgb(0,0,0)"  stroke-width="2.0"/>
<line x1="320.0" y1="156.9" x2="320.0" y2="183.9" stroke="rgb(0,0,0)"  stroke-width="2.0"/>
<line x1="320.0" y1="263.9" x2="320.0" y2="290.9" stroke="rgb(0,0,0)"  stroke-width="2.0"/>
<line x1="333.0" y1="140.9" x2="347.0" y2="140.9" stroke="rgb(0,0,0)"  stroke-width="2.0"/>
<line x1="333.0" y1="146.9" x2="347.0" y2="146.9" stroke="rgb(0,0,0)"  stroke-width="2.0"/>
<line x1="317.0" y1="130.9" x2="317.0" y2="116.9" stroke="rgb(0,0,0)"  stroke-width="2.0"/>
<line x1="323.0" y1="130.9" x2="323.0" y2="116.9" stroke="rgb(0,0,0)"  stroke-width="2.0"/>
<line x1="200.0" y1="143.9" x2="220.0" y2="109.3" stroke="rgb(0,0,0)"  stroke-width="2.0"/>
<line x1="196.8" y1="135.1" x2="210.8" y2="110.9" stroke="rgb(0,0,0)"  stroke-width="2.0"/>
<line x1="220.0" y1="109.3" x2="200.0" y2="74.6" stroke="rgb(0,0,0)"  stroke-width="2.0"/>
<line x1="200.0" y1="74.6" x2="160.0" y2="74.6" stroke="rgb(0,0,0)"  stroke-width="2.0"/>
<line x1="194.0" y1="81.8" x2="166.0" y2="81.8" stroke="rgb(0,0,0)"  stroke-width="2.0"/>
<line x1="160.0" y1="74.6" x2="140.0" y2="109.3" stroke="rgb(0,0,0)"  stroke-width="2.0"/>
<line x1="140.0" y1="109.3" x2="160.0" y2="143.9" stroke="rgb(0,0,0)"  stroke-width="2.0"/>
<line x1="149.2" y1="110.9" x2="163.2" y2="135.1" stroke="rgb(0,0,0)"  stroke-width="2.0"/>
<line x1="160.0" y1="143.9" x2="200.0" y2="143.9" stroke="rgb(0,0,0)"  stroke-width="2.0"/>
<line x1="354.6" y1="203.9" x2="320.0" y2="183.9" stroke="rgb(0,0,0)"  stroke-width="2.0"/>
<line x1="345.8" y1="207.2" x2="321.6" y2="193.2" stroke="rgb(0,0,0)"  stroke-width="2.0"/>
<line x1="320.0" y1="183.9" x2="285.4" y2="203.9" stroke="rgb(0,0,0)"  stroke-width="2.0"/>
<line x1="285.4" y1="203.9" x2="285.4" y2="243.9" stroke="rgb(0,0,0)"  stroke-width="2.0"/>
<line x1="292.6" y1="209.9" x2="292.6" y2="237.9" stroke="rgb(0,0,0)"  stroke-width="2.0"/>
<line x1="285.4" y1="243.9" x2="320.0" y2="263.9" stroke="rgb(0,0,0)"  stroke-width="2.0"/>
<line x1="320.0" y1="263.9" x2="354.6" y2="243.9" stroke="rgb(0,0,0)"  stroke-width="2.0"/>
<line x1="321.6" y1="254.7" x2="345.8" y2="240.7" stroke="rgb(0,0,0)"  stroke-width="2.0"/>
<line x1="354.6" y1="243.9" x2="354.6" y2="203.9" stroke="rgb(0,0,0)"  stroke-width="2.0"/>
<text x="274.000000" y="82.641016" fill="rgb(255,12,12)"  stroke="rgb(255,12,12)" stroke-width="1" font-size="16" >O</text>
<text x="314.000000" y="111.923048" fill="rgb(255,12,12)"  stroke="rgb(255,12,12)" stroke-width="1" font-size="16" >O</text>
<text x="354.000000" y="151.923048" fill="rgb(255,12,12)"  stroke="rgb(255,12,12)" stroke-width="1" font-size="16" >O</text>
<text x="316.000000" y="311.923048" fill="rgb(12,12,255)"  stroke="rgb(12,12,255)" stroke-width="1" font-size="16" >NH</text>
<text x="340.000000" y="315.603048" fill="rgb(12,12,255)"  stroke="rgb(12,12,255)" stroke-width="1" font-size="13" >2</text>
<text x="314.000000" y="151.923048" fill="rgb(178,178,0)"  stroke="rgb(178,178,0)" stroke-width="1" font-size="16" >S</text>
<text x="274.000000" y="151.923048" fill="rgb(12,12,255)"  stroke="rgb(12,12,255)" stroke-width="1" font-size="16" >N</text>
<text x="274.000000" y="167.923048" fill="rgb(12,12,255)"  stroke="rgb(12,12,255)" stroke-width="1" font-size="16" >H</text>
<text x="96.000000" y="48.000000" fill="rgb(102,102,102)"  stroke="rgb(102,102,102)" stroke-width="1" font-size="16" >CH</text>
<text x="120.000000" y="51.680000" fill="rgb(102,102,102)"  stroke="rgb(102,102,102)" stroke-width="1" font-size="13" >3</text>
<text x="94.000000" y="117.282032" fill="rgb(255,12,12)"  stroke="rgb(255,12,12)" stroke-width="1" font-size="16" >O</text>
<text x="14.000000" y="82.641016" fill="rgb(102,102,102)"  stroke="rgb(102,102,102)" stroke-width="1" font-size="16" >H</text>
<text x="26.000000" y="86.321016" fill="rgb(102,102,102)"  stroke="rgb(102,102,102)" stroke-width="1" font-size="13" >3</text>
<text x="32.500000" y="82.641016" fill="rgb(102,102,102)"  stroke="rgb(102,102,102)" stroke-width="1" font-size="16" >C</text>
</svg>
</g>
<text font-size="18.000000" fill ="black" font-family="sans-serif"
x="10.000000" y="20.000000" ></text>
</svg>
