<?xml version="1.0"?>
<svg version="1.1" id="topsvg"
xmlns="http://www.w3.org/2000/svg" xmlns:xlink="http://www.w3.org/1999/xlink"
xmlns:cml="http://www.xml-cml.org/schema" x="0" y="0" width="200px" height="200px" viewBox="0 0 100 100">
<title> - Open Babel Depiction</title>
<rect x="0" y="0" width="100" height="100" fill="white"/>
<g transform="translate(0,0)">
<svg width="100" height="100" x="0" y="0" viewBox="0 0 405.477 160"
font-family="sans-serif" stroke="rgb(0,0,0)" stroke-width="2"  stroke-linecap="round">
<line x1="53.0" y1="80.0" x2="80.0" y2="80.0" stroke="rgb(0,0,0)"  stroke-width="2.0"/>
<line x1="160.0" y1="80.0" x2="200.0" y2="80.0" stroke="rgb(0,0,0)"  stroke-width="2.0"/>
<line x1="330.8" y1="60.0" x2="354.2" y2="46.5" stroke="rgb(0,0,0)"  stroke-width="2.0"/>
<line x1="261.6" y1="60.0" x2="261.6" y2="100.0" stroke="rgb(0,0,0)"  stroke-width="2.0"/>
<line x1="254.4" y1="66.0" x2="254.4" y2="94.0" stroke="rgb(0,0,0)"  stroke-width="2.0"/>
<line x1="261.6" y1="100.0" x2="235.9" y2="108.3" stroke="rgb(0,0,0)"  stroke-width="2.0"/>
<line x1="215.9" y1="101.8" x2="200.0" y2="80.0" stroke="rgb(0,0,0)"  stroke-width="2.0"/>
<line x1="200.0" y1="80.0" x2="223.5" y2="47.6" stroke="rgb(0,0,0)"  stroke-width="2.0"/>
<line x1="209.4" y1="79.4" x2="225.8" y2="56.7" stroke="rgb(0,0,0)"  stroke-width="2.0"/>
<line x1="223.5" y1="47.6" x2="261.6" y2="60.0" stroke="rgb(0,0,0)"  stroke-width="2.0"/>
<line x1="140.0" y1="45.4" x2="160.0" y2="80.0" stroke="rgb(0,0,0)"  stroke-width="2.0"/>
<line x1="136.8" y1="54.2" x2="150.8" y2="78.4" stroke="rgb(0,0,0)"  stroke-width="2.0"/>
<line x1="160.0" y1="80.0" x2="140.0" y2="114.6" stroke="rgb(0,0,0)"  stroke-width="2.0"/>
<line x1="140.0" y1="114.6" x2="100.0" y2="114.6" stroke="rgb(0,0,0)"  stroke-width="2.0"/>
<line x1="134.0" y1="107.4" x2="106.0" y2="107.4" stroke="rgb(0,0,0)"  stroke-width="2.0"/>
<line x1="100.0" y1="114.6" x2="80.0" y2="80.0" stroke="rgb(0,0,0)"  stroke-width="2.0"/>
<line x1="80.0" y1="80.0" x2="100.0" y2="45.4" stroke="rgb(0,0,0)"  stroke-width="2.0"/>
<line x1="89.2" y1="78.4" x2="103.2" y2="54.2" stroke="rgb(0,0,0)"  stroke-width="2.0"/>
<line x1="100.0" y1="45.4" x2="140.0" y2="45.4" stroke="rgb(0,0,0)"  stroke-width="2.0"/>
<line x1="330.8" y1="60.0" x2="330.8" y2="100.0" stroke="rgb(0,0,0)"  stroke-width="2.0"/>
<line x1="330.8" y1="100.0" x2="296.2" y2="120.0" stroke="rgb(0,0,0)"  stroke-width="2.0"/>
<line x1="322.0" y1="96.8" x2="297.8" y2="110.8" stroke="rgb(0,0,0)"  stroke-width="2.0"/>
<line x1="296.2" y1="120.0" x2="261.6" y2="100.0" stroke="rgb(0,0,0)"  stroke-width="2.0"/>
<line x1="261.6" y1="60.0" x2="296.2" y2="40.0" stroke="rgb(0,0,0)"  stroke-width="2.0"/>
<line x1="296.2" y1="40.0" x2="330.8" y2="60.0" stroke="rgb(0,0,0)"  stroke-width="2.0"/>
<line x1="297.8" y1="49.2" x2="322.0" y2="63.2" stroke="rgb(0,0,0)"  stroke-width="2.0"/>
<text x="359.476719" y="48.000000" fill="rgb(255,12,12)"  stroke="rgb(255,12,12)" stroke-width="1" font-size="16" >OH</text>
<text x="217.511410" y="120.360680" fill="rgb(255,12,12)"  stroke="rgb(255,12,12)" stroke-width="1" font-size="16" >O</text>
<text x="22.000000" y="88.000000" fill="rgb(255,12,12)"  stroke="rgb(255,12,12)" stroke-width="1" font-size="16" >HO</text>
</svg>
</g>
<text font-size="18.000000" fill ="black" font-family="sans-serif"
x="10.000000" y="20.000000" ></text>
</svg>
