<?xml version="1.0"?>
<svg version="1.1" id="topsvg"
xmlns="http://www.w3.org/2000/svg" xmlns:xlink="http://www.w3.org/1999/xlink"
xmlns:cml="http://www.xml-cml.org/schema" x="0" y="0" width="200px" height="200px" viewBox="0 0 100 100">
<title> - Open Babel Depiction</title>
<rect x="0" y="0" width="100" height="100" fill="white"/>
<g transform="translate(0,0)">
<svg width="100" height="100" x="0" y="0" viewBox="0 0 233.695 254.637"
font-family="sans-serif" stroke="rgb(0,0,0)" stroke-width="2"  stroke-linecap="round">
<line x1="110.8" y1="213.3" x2="137.6" y2="210.5" stroke="rgb(0,0,0)"  stroke-width="2.0"/>
<line x1="137.6" y1="210.5" x2="153.9" y2="173.9" stroke="rgb(0,0,0)"  stroke-width="2.0"/>
<line x1="153.9" y1="173.9" x2="180.8" y2="171.1" stroke="rgb(0,0,0)"  stroke-width="2.0"/>
<line x1="153.9" y1="173.9" x2="130.4" y2="141.6" stroke="rgb(0,0,0)"  stroke-width="2.0"/>
<line x1="77.1" y1="106.4" x2="51.4" y2="98.0" stroke="rgb(0,0,0)"  stroke-width="2.0"/>
<line x1="79.0" y1="100.7" x2="53.3" y2="92.3" stroke="rgb(0,0,0)"  stroke-width="2.0"/>
<line x1="110.4" y1="80.0" x2="110.4" y2="53.0" stroke="rgb(0,0,0)"  stroke-width="2.0"/>
<line x1="142.8" y1="103.5" x2="168.4" y2="95.2" stroke="rgb(0,0,0)"  stroke-width="2.0"/>
<line x1="78.0" y1="103.5" x2="110.4" y2="80.0" stroke="rgb(0,0,0)"  stroke-width="2.0"/>
<line x1="110.4" y1="80.0" x2="142.8" y2="103.5" stroke="rgb(0,0,0)"  stroke-width="2.0"/>
<line x1="111.0" y1="89.4" x2="133.7" y2="105.8" stroke="rgb(0,0,0)"  stroke-width="2.0"/>
<line x1="142.8" y1="103.5" x2="130.4" y2="141.6" stroke="rgb(0,0,0)"  stroke-width="2.0"/>
<line x1="130.4" y1="141.6" x2="103.4" y2="141.6" stroke="rgb(0,0,0)"  stroke-width="2.0"/>
<line x1="86.4" y1="129.2" x2="78.0" y2="103.5" stroke="rgb(0,0,0)"  stroke-width="2.0"/>
<text x="79.864009" y="222.637307" fill="rgb(255,12,12)"  stroke="rgb(255,12,12)" stroke-width="1" font-size="16" >HO</text>
<text x="187.695226" y="177.733212" fill="rgb(255,12,12)"  stroke="rgb(255,12,12)" stroke-width="1" font-size="16" >OH</text>
<text x="84.402940" y="149.553671" fill="rgb(255,12,12)"  stroke="rgb(255,12,12)" stroke-width="1" font-size="16" >O</text>
<text x="34.000000" y="99.150730" fill="rgb(255,12,12)"  stroke="rgb(255,12,12)" stroke-width="1" font-size="16" >O</text>
<text x="104.402940" y="48.000000" fill="rgb(255,12,12)"  stroke="rgb(255,12,12)" stroke-width="1" font-size="16" >OH</text>
<text x="174.805881" y="99.150730" fill="rgb(255,12,12)"  stroke="rgb(255,12,12)" stroke-width="1" font-size="16" >OH</text>
</svg>
</g>
<text font-size="18.000000" fill ="black" font-family="sans-serif"
x="10.000000" y="20.000000" ></text>
</svg>
