<?xml version="1.0"?>
<svg version="1.1" id="topsvg"
xmlns="http://www.w3.org/2000/svg" xmlns:xlink="http://www.w3.org/1999/xlink"
xmlns:cml="http://www.xml-cml.org/schema" x="0" y="0" width="200px" height="200px" viewBox="0 0 100 100">
<title> - Open Babel Depiction</title>
<rect x="0" y="0" width="100" height="100" fill="white"/>
<g transform="translate(0,0)">
<svg width="100" height="100" x="0" y="0" viewBox="0 0 356.401 353.707"
font-family="sans-serif" stroke="rgb(0,0,0)" stroke-width="2"  stroke-linecap="round">
<line x1="298.0" y1="95.4" x2="289.6" y2="69.7" stroke="rgb(0,0,0)"  stroke-width="2.0"/>
<line x1="287.4" y1="67.7" x2="305.5" y2="47.7" stroke="rgb(0,0,0)"  stroke-width="2.0"/>
<line x1="291.9" y1="71.7" x2="309.9" y2="51.7" stroke="rgb(0,0,0)"  stroke-width="2.0"/>
<line x1="289.6" y1="69.7" x2="250.5" y2="61.4" stroke="rgb(0,0,0)"  stroke-width="2.0"/>
<line x1="250.5" y1="61.4" x2="223.7" y2="91.1" stroke="rgb(0,0,0)"  stroke-width="2.0"/>
<line x1="266.7" y1="190.3" x2="290.1" y2="203.8" stroke="rgb(0,0,0)"  stroke-width="2.0"/>
<line x1="184.0" y1="87.0" x2="170.5" y2="63.6" stroke="rgb(0,0,0)"  stroke-width="2.0"/>
<line x1="168.3" y1="126.4" x2="127.9" y2="128.9" stroke="rgb(0,0,0)"  stroke-width="2.0"/>
<line x1="167.1" y1="120.6" x2="129.2" y2="134.7" stroke="rgb(0,0,0)"  stroke-width="2.0"/>
<line x1="128.6" y1="131.8" x2="116.2" y2="169.9" stroke="rgb(0,0,0)"  stroke-width="2.0"/>
<line x1="91.5" y1="245.9" x2="83.1" y2="271.6" stroke="rgb(0,0,0)"  stroke-width="2.0"/>
<line x1="66.4" y1="286.7" x2="52.7" y2="289.6" stroke="rgb(0,0,0)"  stroke-width="2.0"/>
<line x1="90.1" y1="291.6" x2="99.4" y2="302.0" stroke="rgb(0,0,0)"  stroke-width="2.0"/>
<line x1="85.6" y1="295.6" x2="95.0" y2="306.1" stroke="rgb(0,0,0)"  stroke-width="2.0"/>
<line x1="266.7" y1="150.3" x2="266.7" y2="190.3" stroke="rgb(0,0,0)"  stroke-width="2.0"/>
<line x1="266.7" y1="190.3" x2="232.1" y2="210.3" stroke="rgb(0,0,0)"  stroke-width="2.0"/>
<line x1="257.9" y1="187.0" x2="233.7" y2="201.0" stroke="rgb(0,0,0)"  stroke-width="2.0"/>
<line x1="232.1" y1="210.3" x2="197.4" y2="190.3" stroke="rgb(0,0,0)"  stroke-width="2.0"/>
<line x1="197.4" y1="190.3" x2="197.4" y2="150.3" stroke="rgb(0,0,0)"  stroke-width="2.0"/>
<line x1="204.6" y1="184.3" x2="204.6" y2="156.3" stroke="rgb(0,0,0)"  stroke-width="2.0"/>
<line x1="197.4" y1="150.3" x2="232.1" y2="130.3" stroke="rgb(0,0,0)"  stroke-width="2.0"/>
<line x1="232.1" y1="130.3" x2="266.7" y2="150.3" stroke="rgb(0,0,0)"  stroke-width="2.0"/>
<line x1="233.7" y1="139.5" x2="257.9" y2="153.5" stroke="rgb(0,0,0)"  stroke-width="2.0"/>
<line x1="143.0" y1="199.6" x2="116.2" y2="169.9" stroke="rgb(0,0,0)"  stroke-width="2.0"/>
<line x1="133.6" y1="199.9" x2="114.9" y2="179.1" stroke="rgb(0,0,0)"  stroke-width="2.0"/>
<line x1="116.2" y1="169.9" x2="77.1" y2="178.2" stroke="rgb(0,0,0)"  stroke-width="2.0"/>
<line x1="77.1" y1="178.2" x2="64.7" y2="216.2" stroke="rgb(0,0,0)"  stroke-width="2.0"/>
<line x1="82.1" y1="186.1" x2="73.4" y2="212.7" stroke="rgb(0,0,0)"  stroke-width="2.0"/>
<line x1="64.7" y1="216.2" x2="91.5" y2="245.9" stroke="rgb(0,0,0)"  stroke-width="2.0"/>
<line x1="91.5" y1="245.9" x2="130.6" y2="237.6" stroke="rgb(0,0,0)"  stroke-width="2.0"/>
<line x1="95.9" y1="237.6" x2="123.2" y2="231.8" stroke="rgb(0,0,0)"  stroke-width="2.0"/>
<line x1="130.6" y1="237.6" x2="143.0" y2="199.6" stroke="rgb(0,0,0)"  stroke-width="2.0"/>
<line x1="197.4" y1="150.3" x2="167.7" y2="123.5" stroke="rgb(0,0,0)"  stroke-width="2.0"/>
<line x1="167.7" y1="123.5" x2="184.0" y2="87.0" stroke="rgb(0,0,0)"  stroke-width="2.0"/>
<line x1="184.0" y1="87.0" x2="223.7" y2="91.1" stroke="rgb(0,0,0)"  stroke-width="2.0"/>
<line x1="189.2" y1="94.7" x2="217.0" y2="97.7" stroke="rgb(0,0,0)"  stroke-width="2.0"/>
<line x1="223.7" y1="91.1" x2="232.1" y2="130.3" stroke="rgb(0,0,0)"  stroke-width="2.0"/>
<text x="99.891128" y="321.707101" fill="rgb(255,12,12)"  stroke="rgb(255,12,12)" stroke-width="1" font-size="16" >O</text>
<text x="14.000000" y="300.297776" fill="rgb(102,102,102)"  stroke="rgb(102,102,102)" stroke-width="1" font-size="16" >H</text>
<text x="26.000000" y="303.977776" fill="rgb(102,102,102)"  stroke="rgb(102,102,102)" stroke-width="1" font-size="13" >3</text>
<text x="32.500000" y="300.297776" fill="rgb(102,102,102)"  stroke="rgb(102,102,102)" stroke-width="1" font-size="16" >C</text>
<text x="73.125904" y="291.981308" fill="rgb(178,178,0)"  stroke="rgb(178,178,0)" stroke-width="1" font-size="16" >S</text>
<text x="137.963993" y="60.312964" fill="rgb(102,102,102)"  stroke="rgb(102,102,102)" stroke-width="1" font-size="16" >H</text>
<text x="149.963993" y="63.992964" fill="rgb(102,102,102)"  stroke="rgb(102,102,102)" stroke-width="1" font-size="13" >3</text>
<text x="156.463993" y="60.312964" fill="rgb(102,102,102)"  stroke="rgb(102,102,102)" stroke-width="1" font-size="16" >C</text>
<text x="295.996677" y="115.768054" fill="rgb(255,12,12)"  stroke="rgb(255,12,12)" stroke-width="1" font-size="16" >OH</text>
<text x="295.343369" y="218.261022" fill="rgb(127,178,255)"  stroke="rgb(127,178,255)" stroke-width="1" font-size="16" >F</text>
<text x="310.401221" y="48.000000" fill="rgb(255,12,12)"  stroke="rgb(255,12,12)" stroke-width="1" font-size="16" >O</text>
</svg>
</g>
<text font-size="18.000000" fill ="black" font-family="sans-serif"
x="10.000000" y="20.000000" ></text>
</svg>
