<?xml version="1.0"?>
<svg version="1.1" id="topsvg"
xmlns="http://www.w3.org/2000/svg" xmlns:xlink="http://www.w3.org/1999/xlink"
xmlns:cml="http://www.xml-cml.org/schema" x="0" y="0" width="200px" height="200px" viewBox="0 0 100 100">
<title> - Open Babel Depiction</title>
<rect x="0" y="0" width="100" height="100" fill="white"/>
<g transform="translate(0,0)">
<svg width="100" height="100" x="0" y="0" viewBox="0 0 399.588 490.339"
font-family="sans-serif" stroke="rgb(0,0,0)" stroke-width="2"  stroke-linecap="round">
<line x1="349.9" y1="58.1" x2="329.9" y2="40.0" stroke="rgb(0,0,0)"  stroke-width="2.0"/>
<line x1="329.9" y1="40.0" x2="291.8" y2="52.4" stroke="rgb(0,0,0)"  stroke-width="2.0"/>
<line x1="291.8" y1="52.4" x2="283.5" y2="91.5" stroke="rgb(0,0,0)"  stroke-width="2.0"/>
<line x1="283.5" y1="91.5" x2="313.2" y2="118.3" stroke="rgb(0,0,0)"  stroke-width="2.0"/>
<line x1="313.2" y1="118.3" x2="304.9" y2="157.4" stroke="rgb(0,0,0)"  stroke-width="2.0"/>
<line x1="304.9" y1="157.4" x2="325.0" y2="175.4" stroke="rgb(0,0,0)"  stroke-width="2.0"/>
<line x1="304.9" y1="157.4" x2="266.9" y2="169.7" stroke="rgb(0,0,0)"  stroke-width="2.0"/>
<line x1="269.8" y1="170.4" x2="255.6" y2="208.2" stroke="rgb(0,0,0)"  stroke-width="2.0"/>
<line x1="263.9" y1="169.1" x2="261.5" y2="209.5" stroke="rgb(0,0,0)"  stroke-width="2.0"/>
<line x1="258.6" y1="208.9" x2="220.5" y2="221.2" stroke="rgb(0,0,0)"  stroke-width="2.0"/>
<line x1="208.2" y1="259.3" x2="231.7" y2="291.6" stroke="rgb(0,0,0)"  stroke-width="2.0"/>
<line x1="231.7" y1="291.6" x2="215.4" y2="328.2" stroke="rgb(0,0,0)"  stroke-width="2.0"/>
<line x1="215.4" y1="328.2" x2="175.6" y2="332.4" stroke="rgb(0,0,0)"  stroke-width="2.0"/>
<line x1="175.6" y1="332.4" x2="159.3" y2="368.9" stroke="rgb(0,0,0)"  stroke-width="2.0"/>
<line x1="159.3" y1="368.9" x2="119.6" y2="373.1" stroke="rgb(0,0,0)"  stroke-width="2.0"/>
<line x1="119.6" y1="373.1" x2="103.3" y2="409.6" stroke="rgb(0,0,0)"  stroke-width="2.0"/>
<line x1="103.3" y1="409.6" x2="63.5" y2="413.8" stroke="rgb(0,0,0)"  stroke-width="2.0"/>
<line x1="63.5" y1="413.8" x2="47.6" y2="392.0" stroke="rgb(0,0,0)"  stroke-width="2.0"/>
<line x1="66.3" y1="415.0" x2="55.3" y2="439.7" stroke="rgb(0,0,0)"  stroke-width="2.0"/>
<line x1="60.8" y1="412.6" x2="49.8" y2="437.2" stroke="rgb(0,0,0)"  stroke-width="2.0"/>
<line x1="188.2" y1="197.7" x2="188.2" y2="170.7" stroke="rgb(0,0,0)"  stroke-width="2.0"/>
<line x1="170.6" y1="261.0" x2="154.7" y2="282.9" stroke="rgb(0,0,0)"  stroke-width="2.0"/>
<line x1="165.7" y1="257.5" x2="149.9" y2="279.3" stroke="rgb(0,0,0)"  stroke-width="2.0"/>
<line x1="168.2" y1="259.3" x2="155.8" y2="221.2" stroke="rgb(0,0,0)"  stroke-width="2.0"/>
<line x1="155.8" y1="221.2" x2="188.2" y2="197.7" stroke="rgb(0,0,0)"  stroke-width="2.0"/>
<line x1="188.2" y1="197.7" x2="220.5" y2="221.2" stroke="rgb(0,0,0)"  stroke-width="2.0"/>
<line x1="220.5" y1="221.2" x2="208.2" y2="259.3" stroke="rgb(0,0,0)"  stroke-width="2.0"/>
<line x1="208.2" y1="259.3" x2="168.2" y2="259.3" stroke="rgb(0,0,0)"  stroke-width="2.0"/>
<text x="138.639615" y="299.627916" fill="rgb(255,12,12)"  stroke="rgb(255,12,12)" stroke-width="1" font-size="16" >O</text>
<text x="182.151025" y="165.713566" fill="rgb(255,12,12)"  stroke="rgb(255,12,12)" stroke-width="1" font-size="16" >OH</text>
<text x="41.241944" y="458.338605" fill="rgb(255,12,12)"  stroke="rgb(255,12,12)" stroke-width="1" font-size="16" >O</text>
<text x="22.000000" y="389.436107" fill="rgb(255,12,12)"  stroke="rgb(255,12,12)" stroke-width="1" font-size="16" >HO</text>
<text x="355.587889" y="74.765224" fill="rgb(102,102,102)"  stroke="rgb(102,102,102)" stroke-width="1" font-size="16" >CH</text>
<text x="379.587889" y="78.445224" fill="rgb(102,102,102)"  stroke="rgb(102,102,102)" stroke-width="1" font-size="13" >3</text>
<text x="328.638486" y="192.142936" fill="rgb(255,12,12)"  stroke="rgb(255,12,12)" stroke-width="1" font-size="16" >OH</text>
</svg>
</g>
<text font-size="18.000000" fill ="black" font-family="sans-serif"
x="10.000000" y="20.000000" ></text>
</svg>
