<?xml version="1.0"?>
<svg version="1.1" id="topsvg"
xmlns="http://www.w3.org/2000/svg" xmlns:xlink="http://www.w3.org/1999/xlink"
xmlns:cml="http://www.xml-cml.org/schema" x="0" y="0" width="200px" height="200px" viewBox="0 0 100 100">
<title> - Open Babel Depiction</title>
<rect x="0" y="0" width="100" height="100" fill="white"/>
<g transform="translate(0,0)">
<svg width="100" height="100" x="0" y="0" viewBox="0 0 310.79 320.98"
font-family="sans-serif" stroke="rgb(0,0,0)" stroke-width="2"  stroke-linecap="round">
<line x1="252.4" y1="141.8" x2="244.0" y2="116.1" stroke="rgb(0,0,0)"  stroke-width="2.0"/>
<line x1="244.0" y1="116.1" x2="224.0" y2="98.0" stroke="rgb(0,0,0)"  stroke-width="2.0"/>
<line x1="244.0" y1="116.1" x2="218.3" y2="124.4" stroke="rgb(0,0,0)"  stroke-width="2.0"/>
<line x1="244.0" y1="116.1" x2="270.8" y2="86.4" stroke="rgb(0,0,0)"  stroke-width="2.0"/>
<line x1="270.8" y1="86.4" x2="258.4" y2="48.3" stroke="rgb(0,0,0)"  stroke-width="2.0"/>
<line x1="258.4" y1="48.3" x2="219.3" y2="40.0" stroke="rgb(0,0,0)"  stroke-width="2.0"/>
<line x1="219.3" y1="40.0" x2="192.5" y2="69.7" stroke="rgb(0,0,0)"  stroke-width="2.0"/>
<line x1="192.5" y1="69.7" x2="166.1" y2="64.1" stroke="rgb(0,0,0)"  stroke-width="2.0"/>
<line x1="192.5" y1="69.7" x2="204.9" y2="107.8" stroke="rgb(0,0,0)"  stroke-width="2.0"/>
<line x1="204.9" y1="107.8" x2="178.1" y2="137.5" stroke="rgb(0,0,0)"  stroke-width="2.0"/>
<line x1="178.1" y1="137.5" x2="151.7" y2="131.9" stroke="rgb(0,0,0)"  stroke-width="2.0"/>
<line x1="178.1" y1="137.5" x2="186.5" y2="163.2" stroke="rgb(0,0,0)"  stroke-width="2.0"/>
<line x1="83.0" y1="96.8" x2="74.6" y2="135.9" stroke="rgb(0,0,0)"  stroke-width="2.0"/>
<line x1="74.6" y1="135.9" x2="109.3" y2="155.9" stroke="rgb(0,0,0)"  stroke-width="2.0"/>
<line x1="83.4" y1="132.7" x2="107.7" y2="146.7" stroke="rgb(0,0,0)"  stroke-width="2.0"/>
<line x1="109.3" y1="155.9" x2="129.3" y2="137.9" stroke="rgb(0,0,0)"  stroke-width="2.0"/>
<line x1="133.7" y1="117.3" x2="122.7" y2="92.6" stroke="rgb(0,0,0)"  stroke-width="2.0"/>
<line x1="122.7" y1="92.6" x2="83.0" y2="96.8" stroke="rgb(0,0,0)"  stroke-width="2.0"/>
<line x1="117.5" y1="100.4" x2="89.7" y2="103.4" stroke="rgb(0,0,0)"  stroke-width="2.0"/>
<line x1="228.5" y1="227.9" x2="190.5" y2="240.3" stroke="rgb(0,0,0)"  stroke-width="2.0"/>
<line x1="190.5" y1="240.3" x2="167.0" y2="207.9" stroke="rgb(0,0,0)"  stroke-width="2.0"/>
<line x1="192.8" y1="231.2" x2="176.3" y2="208.5" stroke="rgb(0,0,0)"  stroke-width="2.0"/>
<line x1="167.0" y1="207.9" x2="182.9" y2="186.1" stroke="rgb(0,0,0)"  stroke-width="2.0"/>
<line x1="202.9" y1="179.6" x2="228.5" y2="187.9" stroke="rgb(0,0,0)"  stroke-width="2.0"/>
<line x1="228.5" y1="187.9" x2="228.5" y2="227.9" stroke="rgb(0,0,0)"  stroke-width="2.0"/>
<line x1="221.3" y1="193.9" x2="221.3" y2="221.9" stroke="rgb(0,0,0)"  stroke-width="2.0"/>
<line x1="40.0" y1="195.9" x2="74.6" y2="215.9" stroke="rgb(0,0,0)"  stroke-width="2.0"/>
<line x1="74.6" y1="215.9" x2="109.3" y2="195.9" stroke="rgb(0,0,0)"  stroke-width="2.0"/>
<line x1="76.2" y1="206.7" x2="100.5" y2="192.7" stroke="rgb(0,0,0)"  stroke-width="2.0"/>
<line x1="109.3" y1="195.9" x2="109.3" y2="155.9" stroke="rgb(0,0,0)"  stroke-width="2.0"/>
<line x1="74.6" y1="135.9" x2="40.0" y2="155.9" stroke="rgb(0,0,0)"  stroke-width="2.0"/>
<line x1="40.0" y1="155.9" x2="40.0" y2="195.9" stroke="rgb(0,0,0)"  stroke-width="2.0"/>
<line x1="47.2" y1="161.9" x2="47.2" y2="189.9" stroke="rgb(0,0,0)"  stroke-width="2.0"/>
<line x1="134.4" y1="281.0" x2="110.9" y2="248.6" stroke="rgb(0,0,0)"  stroke-width="2.0"/>
<line x1="110.9" y1="248.6" x2="127.2" y2="212.1" stroke="rgb(0,0,0)"  stroke-width="2.0"/>
<line x1="120.0" y1="246.1" x2="131.3" y2="220.5" stroke="rgb(0,0,0)"  stroke-width="2.0"/>
<line x1="127.2" y1="212.1" x2="167.0" y2="207.9" stroke="rgb(0,0,0)"  stroke-width="2.0"/>
<line x1="190.5" y1="240.3" x2="174.2" y2="276.8" stroke="rgb(0,0,0)"  stroke-width="2.0"/>
<line x1="174.2" y1="276.8" x2="134.4" y2="281.0" stroke="rgb(0,0,0)"  stroke-width="2.0"/>
<line x1="167.5" y1="270.3" x2="139.7" y2="273.2" stroke="rgb(0,0,0)"  stroke-width="2.0"/>
<text x="184.494409" y="183.536107" fill="rgb(12,12,255)"  stroke="rgb(12,12,255)" stroke-width="1" font-size="16" >N</text>
<text x="250.385537" y="162.126782" fill="rgb(255,12,12)"  stroke="rgb(255,12,12)" stroke-width="1" font-size="16" >OH</text>
<text x="133.007825" y="137.177379" fill="rgb(12,12,255)"  stroke="rgb(12,12,255)" stroke-width="1" font-size="16" >N</text>
<text x="127.412370" y="69.409325" fill="rgb(102,102,102)"  stroke="rgb(102,102,102)" stroke-width="1" font-size="16" >H</text>
<text x="139.412370" y="73.089325" fill="rgb(102,102,102)"  stroke="rgb(102,102,102)" stroke-width="1" font-size="13" >3</text>
<text x="145.912370" y="69.409325" fill="rgb(102,102,102)"  stroke="rgb(102,102,102)" stroke-width="1" font-size="16" >C</text>
<text x="179.982597" y="136.445201" fill="rgb(102,102,102)"  stroke="rgb(102,102,102)" stroke-width="1" font-size="16" >H</text>
<text x="191.982597" y="140.125201" fill="rgb(102,102,102)"  stroke="rgb(102,102,102)" stroke-width="1" font-size="13" >3</text>
<text x="198.482597" y="136.445201" fill="rgb(102,102,102)"  stroke="rgb(102,102,102)" stroke-width="1" font-size="16" >C</text>
<text x="188.299065" y="97.319297" fill="rgb(102,102,102)"  stroke="rgb(102,102,102)" stroke-width="1" font-size="16" >H</text>
<text x="200.299065" y="100.999297" fill="rgb(102,102,102)"  stroke="rgb(102,102,102)" stroke-width="1" font-size="13" >3</text>
<text x="206.799065" y="97.319297" fill="rgb(102,102,102)"  stroke="rgb(102,102,102)" stroke-width="1" font-size="16" >C</text>
</svg>
</g>
<text font-size="18.000000" fill ="black" font-family="sans-serif"
x="10.000000" y="20.000000" ></text>
</svg>
