<?xml version="1.0"?>
<svg version="1.1" id="topsvg"
xmlns="http://www.w3.org/2000/svg" xmlns:xlink="http://www.w3.org/1999/xlink"
xmlns:cml="http://www.xml-cml.org/schema" x="0" y="0" width="200px" height="200px" viewBox="0 0 100 100">
<title> - Open Babel Depiction</title>
<rect x="0" y="0" width="100" height="100" fill="white"/>
<g transform="translate(0,0)">
<svg width="100" height="100" x="0" y="0" viewBox="0 0 348.582 255.699"
font-family="sans-serif" stroke="rgb(0,0,0)" stroke-width="2"  stroke-linecap="round">
<line x1="275.2" y1="202.7" x2="275.2" y2="175.7" stroke="rgb(0,0,0)"  stroke-width="2.0"/>
<line x1="141.5" y1="98.6" x2="141.5" y2="125.6" stroke="rgb(0,0,0)"  stroke-width="2.0"/>
<line x1="241.8" y1="156.4" x2="241.8" y2="183.4" stroke="rgb(0,0,0)"  stroke-width="2.0"/>
<line x1="73.2" y1="62.6" x2="49.8" y2="49.1" stroke="rgb(0,0,0)"  stroke-width="2.0"/>
<line x1="76.1" y1="57.4" x2="52.8" y2="43.9" stroke="rgb(0,0,0)"  stroke-width="2.0"/>
<line x1="308.6" y1="117.8" x2="241.8" y2="117.8" stroke="rgb(0,0,0)"  stroke-width="2.0"/>
<line x1="241.8" y1="117.8" x2="241.8" y2="156.4" stroke="rgb(0,0,0)"  stroke-width="2.0"/>
<line x1="241.8" y1="156.4" x2="275.2" y2="175.7" stroke="rgb(0,0,0)"  stroke-width="2.0"/>
<line x1="275.2" y1="175.7" x2="308.6" y2="156.4" stroke="rgb(0,0,0)"  stroke-width="2.0"/>
<line x1="308.6" y1="156.4" x2="308.6" y2="117.8" stroke="rgb(0,0,0)"  stroke-width="2.0"/>
<line x1="174.9" y1="156.4" x2="208.3" y2="175.7" stroke="rgb(0,0,0)"  stroke-width="2.0"/>
<line x1="208.3" y1="175.7" x2="241.8" y2="156.4" stroke="rgb(0,0,0)"  stroke-width="2.0"/>
<line x1="241.8" y1="117.8" x2="208.3" y2="98.5" stroke="rgb(0,0,0)"  stroke-width="2.0"/>
<line x1="208.3" y1="98.5" x2="174.9" y2="117.9" stroke="rgb(0,0,0)"  stroke-width="2.0"/>
<line x1="174.9" y1="117.9" x2="174.9" y2="156.4" stroke="rgb(0,0,0)"  stroke-width="2.0"/>
<line x1="208.3" y1="98.5" x2="208.3" y2="59.9" stroke="rgb(0,0,0)"  stroke-width="2.0"/>
<line x1="208.3" y1="59.9" x2="174.9" y2="40.7" stroke="rgb(0,0,0)"  stroke-width="2.0"/>
<line x1="174.9" y1="40.7" x2="141.5" y2="60.0" stroke="rgb(0,0,0)"  stroke-width="2.0"/>
<line x1="141.5" y1="60.0" x2="141.5" y2="98.6" stroke="rgb(0,0,0)"  stroke-width="2.0"/>
<line x1="141.5" y1="98.6" x2="174.9" y2="117.9" stroke="rgb(0,0,0)"  stroke-width="2.0"/>
<line x1="108.0" y1="40.7" x2="141.5" y2="60.0" stroke="rgb(0,0,0)"  stroke-width="2.0"/>
<line x1="109.6" y1="49.9" x2="132.7" y2="63.2" stroke="rgb(0,0,0)"  stroke-width="2.0"/>
<line x1="141.5" y1="98.6" x2="108.1" y2="117.9" stroke="rgb(0,0,0)"  stroke-width="2.0"/>
<line x1="108.1" y1="117.9" x2="74.7" y2="98.6" stroke="rgb(0,0,0)"  stroke-width="2.0"/>
<line x1="74.7" y1="98.6" x2="74.6" y2="60.0" stroke="rgb(0,0,0)"  stroke-width="2.0"/>
<line x1="74.6" y1="60.0" x2="108.0" y2="40.7" stroke="rgb(0,0,0)"  stroke-width="2.0"/>
<text x="34.000000" y="48.000000" fill="rgb(255,12,12)"  stroke="rgb(255,12,12)" stroke-width="1" font-size="16" >O</text>
<text x="237.783797" y="204.409622" fill="rgb(102,102,102)"  stroke="rgb(102,102,102)" stroke-width="1" font-size="16" >CH</text>
<text x="261.783797" y="208.089622" fill="rgb(102,102,102)"  stroke="rgb(102,102,102)" stroke-width="1" font-size="13" >3</text>
<text x="137.482052" y="146.564308" fill="rgb(102,102,102)"  stroke="rgb(102,102,102)" stroke-width="1" font-size="16" >CH</text>
<text x="161.482052" y="150.244308" fill="rgb(102,102,102)"  stroke="rgb(102,102,102)" stroke-width="1" font-size="13" >3</text>
<text x="269.217715" y="223.699190" fill="rgb(255,12,12)"  stroke="rgb(255,12,12)" stroke-width="1" font-size="16" >OH</text>
</svg>
</g>
<text font-size="18.000000" fill ="black" font-family="sans-serif"
x="10.000000" y="20.000000" ></text>
</svg>
