<?xml version="1.0"?>
<svg version="1.1" id="topsvg"
xmlns="http://www.w3.org/2000/svg" xmlns:xlink="http://www.w3.org/1999/xlink"
xmlns:cml="http://www.xml-cml.org/schema" x="0" y="0" width="200px" height="200px" viewBox="0 0 100 100">
<title> - Open Babel Depiction</title>
<rect x="0" y="0" width="100" height="100" fill="white"/>
<g transform="translate(0,0)">
<svg width="100" height="100" x="0" y="0" viewBox="0 0 217.667 203.359"
font-family="sans-serif" stroke="rgb(0,0,0)" stroke-width="2"  stroke-linecap="round">
<line x1="137.7" y1="110.7" x2="137.7" y2="124.7" stroke="rgb(0,0,0)"  stroke-width="2.0"/>
<line x1="150.7" y1="97.7" x2="164.7" y2="97.7" stroke="rgb(0,0,0)"  stroke-width="2.0"/>
<line x1="137.7" y1="84.7" x2="137.7" y2="70.7" stroke="rgb(0,0,0)"  stroke-width="2.0"/>
<line x1="124.7" y1="97.7" x2="97.7" y2="97.7" stroke="rgb(0,0,0)"  stroke-width="2.0"/>
<line x1="97.7" y1="97.7" x2="89.7" y2="136.9" stroke="rgb(0,0,0)"  stroke-width="2.0"/>
<line x1="89.7" y1="136.9" x2="64.1" y2="145.4" stroke="rgb(0,0,0)"  stroke-width="2.0"/>
<line x1="91.7" y1="134.6" x2="111.9" y2="152.5" stroke="rgb(0,0,0)"  stroke-width="2.0"/>
<line x1="87.7" y1="139.1" x2="108.0" y2="157.0" stroke="rgb(0,0,0)"  stroke-width="2.0"/>
<line x1="40.0" y1="68.3" x2="68.3" y2="40.0" stroke="rgb(0,0,0)"  stroke-width="2.0"/>
<line x1="68.3" y1="40.0" x2="103.9" y2="58.2" stroke="rgb(0,0,0)"  stroke-width="2.0"/>
<line x1="103.9" y1="58.2" x2="97.7" y2="97.7" stroke="rgb(0,0,0)"  stroke-width="2.0"/>
<line x1="97.7" y1="97.7" x2="58.2" y2="103.9" stroke="rgb(0,0,0)"  stroke-width="2.0"/>
<line x1="58.2" y1="103.9" x2="40.0" y2="68.3" stroke="rgb(0,0,0)"  stroke-width="2.0"/>
<text x="142.467154" y="93.635154" fill="rgb(12,12,255)"  stroke="rgb(12,12,255)" stroke-width="1" font-size="16" >+</text>
<text x="131.667154" y="105.667154" fill="rgb(12,12,255)"  stroke="rgb(12,12,255)" stroke-width="1" font-size="16" >N</text>
<text x="131.667154" y="145.667154" fill="rgb(191,191,191)"  stroke="rgb(191,191,191)" stroke-width="1" font-size="16" >H</text>
<text x="171.667154" y="105.667154" fill="rgb(191,191,191)"  stroke="rgb(191,191,191)" stroke-width="1" font-size="16" >H</text>
<text x="131.667154" y="65.667154" fill="rgb(191,191,191)"  stroke="rgb(191,191,191)" stroke-width="1" font-size="16" >H</text>
<text x="56.581938" y="135.464179" fill="rgb(255,12,12)"  stroke="rgb(255,12,12)" stroke-width="1" font-size="16" >_</text>
<text x="45.781938" y="157.576179" fill="rgb(255,12,12)"  stroke="rgb(255,12,12)" stroke-width="1" font-size="16" >O</text>
<text x="113.679081" y="171.359429" fill="rgb(255,12,12)"  stroke="rgb(255,12,12)" stroke-width="1" font-size="16" >O</text>
</svg>
</g>
<text font-size="18.000000" fill ="black" font-family="sans-serif"
x="10.000000" y="20.000000" ></text>
</svg>
