<?xml version="1.0"?>
<svg version="1.1" id="topsvg"
xmlns="http://www.w3.org/2000/svg" xmlns:xlink="http://www.w3.org/1999/xlink"
xmlns:cml="http://www.xml-cml.org/schema" x="0" y="0" width="200px" height="200px" viewBox="0 0 100 100">
<title> - Open Babel Depiction</title>
<rect x="0" y="0" width="100" height="100" fill="white"/>
<g transform="translate(0,0)">
<svg width="100" height="100" x="0" y="0" viewBox="0 0 316.343 312.86"
font-family="sans-serif" stroke="rgb(0,0,0)" stroke-width="2"  stroke-linecap="round">
<line x1="141.9" y1="53.0" x2="141.9" y2="78.8" stroke="rgb(0,0,0)"  stroke-width="2.0"/>
<line x1="143.4" y1="81.4" x2="121.0" y2="94.3" stroke="rgb(0,0,0)"  stroke-width="2.0"/>
<line x1="140.4" y1="76.2" x2="118.0" y2="89.1" stroke="rgb(0,0,0)"  stroke-width="2.0"/>
<line x1="141.9" y1="78.8" x2="175.5" y2="98.2" stroke="rgb(0,0,0)"  stroke-width="2.0"/>
<line x1="175.5" y1="98.2" x2="175.5" y2="137.0" stroke="rgb(0,0,0)"  stroke-width="2.0"/>
<line x1="73.1" y1="159.0" x2="49.8" y2="145.5" stroke="rgb(0,0,0)"  stroke-width="2.0"/>
<line x1="76.1" y1="153.8" x2="52.8" y2="140.3" stroke="rgb(0,0,0)"  stroke-width="2.0"/>
<line x1="154.9" y1="195.3" x2="209.1" y2="195.3" stroke="rgb(0,0,0)"  stroke-width="2.0"/>
<line x1="209.1" y1="195.3" x2="209.1" y2="156.4" stroke="rgb(0,0,0)"  stroke-width="2.0"/>
<line x1="201.9" y1="189.3" x2="201.9" y2="162.4" stroke="rgb(0,0,0)"  stroke-width="2.0"/>
<line x1="209.1" y1="156.4" x2="175.5" y2="137.0" stroke="rgb(0,0,0)"  stroke-width="2.0"/>
<line x1="175.5" y1="137.0" x2="141.9" y2="156.4" stroke="rgb(0,0,0)"  stroke-width="2.0"/>
<line x1="173.9" y1="146.3" x2="150.7" y2="159.7" stroke="rgb(0,0,0)"  stroke-width="2.0"/>
<line x1="141.9" y1="156.4" x2="141.9" y2="182.3" stroke="rgb(0,0,0)"  stroke-width="2.0"/>
<line x1="97.0" y1="143.5" x2="74.6" y2="156.4" stroke="rgb(0,0,0)"  stroke-width="2.0"/>
<line x1="74.6" y1="156.4" x2="74.6" y2="195.2" stroke="rgb(0,0,0)"  stroke-width="2.0"/>
<line x1="74.6" y1="195.2" x2="108.2" y2="214.7" stroke="rgb(0,0,0)"  stroke-width="2.0"/>
<line x1="108.2" y1="214.7" x2="130.6" y2="201.8" stroke="rgb(0,0,0)"  stroke-width="2.0"/>
<line x1="141.9" y1="156.4" x2="119.5" y2="143.5" stroke="rgb(0,0,0)"  stroke-width="2.0"/>
<line x1="276.3" y1="195.3" x2="276.3" y2="156.5" stroke="rgb(0,0,0)"  stroke-width="2.0"/>
<line x1="276.3" y1="156.5" x2="242.7" y2="137.0" stroke="rgb(0,0,0)"  stroke-width="2.0"/>
<line x1="267.5" y1="159.7" x2="244.3" y2="146.3" stroke="rgb(0,0,0)"  stroke-width="2.0"/>
<line x1="242.7" y1="137.0" x2="209.1" y2="156.4" stroke="rgb(0,0,0)"  stroke-width="2.0"/>
<line x1="209.1" y1="195.3" x2="242.7" y2="214.7" stroke="rgb(0,0,0)"  stroke-width="2.0"/>
<line x1="242.7" y1="214.7" x2="276.3" y2="195.3" stroke="rgb(0,0,0)"  stroke-width="2.0"/>
<line x1="244.3" y1="205.4" x2="267.5" y2="192.0" stroke="rgb(0,0,0)"  stroke-width="2.0"/>
<line x1="41.0" y1="214.6" x2="74.6" y2="195.2" stroke="rgb(0,0,0)"  stroke-width="2.0"/>
<line x1="49.8" y1="217.9" x2="73.0" y2="204.5" stroke="rgb(0,0,0)"  stroke-width="2.0"/>
<line x1="108.2" y1="214.7" x2="108.2" y2="253.5" stroke="rgb(0,0,0)"  stroke-width="2.0"/>
<line x1="101.0" y1="220.7" x2="101.0" y2="247.5" stroke="rgb(0,0,0)"  stroke-width="2.0"/>
<line x1="108.2" y1="253.5" x2="74.6" y2="272.9" stroke="rgb(0,0,0)"  stroke-width="2.0"/>
<line x1="74.6" y1="272.9" x2="41.0" y2="253.4" stroke="rgb(0,0,0)"  stroke-width="2.0"/>
<line x1="73.0" y1="263.6" x2="49.8" y2="250.2" stroke="rgb(0,0,0)"  stroke-width="2.0"/>
<line x1="41.0" y1="253.4" x2="41.0" y2="214.6" stroke="rgb(0,0,0)"  stroke-width="2.0"/>
<text x="135.864897" y="203.257695" fill="rgb(12,12,255)"  stroke="rgb(12,12,255)" stroke-width="1" font-size="16" >N</text>
<text x="135.894663" y="48.000000" fill="rgb(255,12,12)"  stroke="rgb(255,12,12)" stroke-width="1" font-size="16" >OH</text>
<text x="34.000000" y="144.406345" fill="rgb(255,12,12)"  stroke="rgb(255,12,12)" stroke-width="1" font-size="16" >O</text>
<text x="102.248916" y="145.012936" fill="rgb(12,12,255)"  stroke="rgb(12,12,255)" stroke-width="1" font-size="16" >N</text>
<text x="102.248916" y="129.012936" fill="rgb(12,12,255)"  stroke="rgb(12,12,255)" stroke-width="1" font-size="16" >H</text>
<text x="102.274474" y="106.205085" fill="rgb(255,12,12)"  stroke="rgb(255,12,12)" stroke-width="1" font-size="16" >O</text>
</svg>
</g>
<text font-size="18.000000" fill ="black" font-family="sans-serif"
x="10.000000" y="20.000000" ></text>
</svg>
