<?xml version="1.0"?>
<svg version="1.1" id="topsvg"
xmlns="http://www.w3.org/2000/svg" xmlns:xlink="http://www.w3.org/1999/xlink"
xmlns:cml="http://www.xml-cml.org/schema" x="0" y="0" width="200px" height="200px" viewBox="0 0 100 100">
<title> - Open Babel Depiction</title>
<rect x="0" y="0" width="100" height="100" fill="white"/>
<g transform="translate(0,0)">
<svg width="100" height="100" x="0" y="0" viewBox="0 0 400 240"
font-family="sans-serif" stroke="rgb(0,0,0)" stroke-width="2"  stroke-linecap="round">
<line x1="53.0" y1="160.0" x2="80.0" y2="160.0" stroke="rgb(0,0,0)"  stroke-width="2.0"/>
<line x1="160.0" y1="160.0" x2="187.0" y2="160.0" stroke="rgb(0,0,0)"  stroke-width="2.0"/>
<line x1="203.0" y1="173.0" x2="203.0" y2="187.0" stroke="rgb(0,0,0)"  stroke-width="2.0"/>
<line x1="197.0" y1="173.0" x2="197.0" y2="187.0" stroke="rgb(0,0,0)"  stroke-width="2.0"/>
<line x1="213.0" y1="157.0" x2="227.0" y2="157.0" stroke="rgb(0,0,0)"  stroke-width="2.0"/>
<line x1="213.0" y1="163.0" x2="227.0" y2="163.0" stroke="rgb(0,0,0)"  stroke-width="2.0"/>
<line x1="200.0" y1="147.0" x2="200.0" y2="133.0" stroke="rgb(0,0,0)"  stroke-width="2.0"/>
<line x1="200.0" y1="107.0" x2="200.0" y2="93.0" stroke="rgb(0,0,0)"  stroke-width="2.0"/>
<line x1="213.0" y1="80.0" x2="240.0" y2="80.0" stroke="rgb(0,0,0)"  stroke-width="2.0"/>
<line x1="320.0" y1="80.0" x2="347.0" y2="80.0" stroke="rgb(0,0,0)"  stroke-width="2.0"/>
<line x1="300.0" y1="114.6" x2="313.5" y2="138.0" stroke="rgb(0,0,0)"  stroke-width="2.0"/>
<line x1="316.1" y1="162.0" x2="309.1" y2="174.2" stroke="rgb(0,0,0)"  stroke-width="2.0"/>
<line x1="310.9" y1="159.0" x2="303.9" y2="171.2" stroke="rgb(0,0,0)"  stroke-width="2.0"/>
<line x1="333.0" y1="146.3" x2="347.0" y2="146.3" stroke="rgb(0,0,0)"  stroke-width="2.0"/>
<line x1="333.0" y1="152.3" x2="347.0" y2="152.3" stroke="rgb(0,0,0)"  stroke-width="2.0"/>
<line x1="197.0" y1="67.0" x2="197.0" y2="53.0" stroke="rgb(0,0,0)"  stroke-width="2.0"/>
<line x1="203.0" y1="67.0" x2="203.0" y2="53.0" stroke="rgb(0,0,0)"  stroke-width="2.0"/>
<line x1="187.0" y1="83.0" x2="173.0" y2="83.0" stroke="rgb(0,0,0)"  stroke-width="2.0"/>
<line x1="187.0" y1="77.0" x2="173.0" y2="77.0" stroke="rgb(0,0,0)"  stroke-width="2.0"/>
<line x1="140.0" y1="125.4" x2="160.0" y2="160.0" stroke="rgb(0,0,0)"  stroke-width="2.0"/>
<line x1="136.8" y1="134.2" x2="150.8" y2="158.4" stroke="rgb(0,0,0)"  stroke-width="2.0"/>
<line x1="160.0" y1="160.0" x2="140.0" y2="194.6" stroke="rgb(0,0,0)"  stroke-width="2.0"/>
<line x1="140.0" y1="194.6" x2="100.0" y2="194.6" stroke="rgb(0,0,0)"  stroke-width="2.0"/>
<line x1="134.0" y1="187.4" x2="106.0" y2="187.4" stroke="rgb(0,0,0)"  stroke-width="2.0"/>
<line x1="100.0" y1="194.6" x2="80.0" y2="160.0" stroke="rgb(0,0,0)"  stroke-width="2.0"/>
<line x1="80.0" y1="160.0" x2="100.0" y2="125.4" stroke="rgb(0,0,0)"  stroke-width="2.0"/>
<line x1="89.2" y1="158.4" x2="103.2" y2="134.2" stroke="rgb(0,0,0)"  stroke-width="2.0"/>
<line x1="100.0" y1="125.4" x2="140.0" y2="125.4" stroke="rgb(0,0,0)"  stroke-width="2.0"/>
<line x1="260.0" y1="45.4" x2="240.0" y2="80.0" stroke="rgb(0,0,0)"  stroke-width="2.0"/>
<line x1="263.2" y1="54.2" x2="249.2" y2="78.4" stroke="rgb(0,0,0)"  stroke-width="2.0"/>
<line x1="240.0" y1="80.0" x2="260.0" y2="114.6" stroke="rgb(0,0,0)"  stroke-width="2.0"/>
<line x1="260.0" y1="114.6" x2="300.0" y2="114.6" stroke="rgb(0,0,0)"  stroke-width="2.0"/>
<line x1="266.0" y1="107.4" x2="294.0" y2="107.4" stroke="rgb(0,0,0)"  stroke-width="2.0"/>
<line x1="300.0" y1="114.6" x2="320.0" y2="80.0" stroke="rgb(0,0,0)"  stroke-width="2.0"/>
<line x1="320.0" y1="80.0" x2="300.0" y2="45.4" stroke="rgb(0,0,0)"  stroke-width="2.0"/>
<line x1="310.8" y1="78.4" x2="296.8" y2="54.2" stroke="rgb(0,0,0)"  stroke-width="2.0"/>
<line x1="300.0" y1="45.4" x2="260.0" y2="45.4" stroke="rgb(0,0,0)"  stroke-width="2.0"/>
<text x="154.000000" y="88.000000" fill="rgb(255,12,12)"  stroke="rgb(255,12,12)" stroke-width="1" font-size="16" >O</text>
<text x="194.000000" y="48.000000" fill="rgb(255,12,12)"  stroke="rgb(255,12,12)" stroke-width="1" font-size="16" >O</text>
<text x="354.000000" y="157.282032" fill="rgb(255,12,12)"  stroke="rgb(255,12,12)" stroke-width="1" font-size="16" >O</text>
<text x="294.000000" y="191.923048" fill="rgb(255,12,12)"  stroke="rgb(255,12,12)" stroke-width="1" font-size="16" >O</text>
<text x="314.000000" y="157.282032" fill="rgb(12,12,255)"  stroke="rgb(12,12,255)" stroke-width="1" font-size="16" >N</text>
<text x="354.000000" y="88.000000" fill="rgb(30,239,30)"  stroke="rgb(30,239,30)" stroke-width="1" font-size="16" >Cl</text>
<text x="14.000000" y="168.000000" fill="rgb(102,102,102)"  stroke="rgb(102,102,102)" stroke-width="1" font-size="16" >H</text>
<text x="26.000000" y="171.680000" fill="rgb(102,102,102)"  stroke="rgb(102,102,102)" stroke-width="1" font-size="13" >3</text>
<text x="32.500000" y="168.000000" fill="rgb(102,102,102)"  stroke="rgb(102,102,102)" stroke-width="1" font-size="16" >C</text>
<text x="194.000000" y="88.000000" fill="rgb(178,178,0)"  stroke="rgb(178,178,0)" stroke-width="1" font-size="16" >S</text>
<text x="194.000000" y="128.000000" fill="rgb(12,12,255)"  stroke="rgb(12,12,255)" stroke-width="1" font-size="16" >N</text>
<text x="194.000000" y="112.000000" fill="rgb(12,12,255)"  stroke="rgb(12,12,255)" stroke-width="1" font-size="16" >H</text>
<text x="234.000000" y="168.000000" fill="rgb(255,12,12)"  stroke="rgb(255,12,12)" stroke-width="1" font-size="16" >O</text>
<text x="194.000000" y="208.000000" fill="rgb(255,12,12)"  stroke="rgb(255,12,12)" stroke-width="1" font-size="16" >O</text>
<text x="194.000000" y="168.000000" fill="rgb(178,178,0)"  stroke="rgb(178,178,0)" stroke-width="1" font-size="16" >S</text>
</svg>
</g>
<text font-size="18.000000" fill ="black" font-family="sans-serif"
x="10.000000" y="20.000000" ></text>
</svg>
