<?xml version="1.0"?>
<svg version="1.1" id="topsvg"
xmlns="http://www.w3.org/2000/svg" xmlns:xlink="http://www.w3.org/1999/xlink"
xmlns:cml="http://www.xml-cml.org/schema" x="0" y="0" width="200px" height="200px" viewBox="0 0 100 100">
<title> - Open Babel Depiction</title>
<rect x="0" y="0" width="100" height="100" fill="white"/>
<g transform="translate(0,0)">
<svg width="100" height="100" x="0" y="0" viewBox="0 0 477.132 403.923"
font-family="sans-serif" stroke="rgb(0,0,0)" stroke-width="2"  stroke-linecap="round">
<line x1="207.4" y1="167.8" x2="230.8" y2="181.3" stroke="rgb(0,0,0)"  stroke-width="2.0"/>
<line x1="204.4" y1="173.0" x2="227.8" y2="186.5" stroke="rgb(0,0,0)"  stroke-width="2.0"/>
<line x1="183.4" y1="157.4" x2="160.0" y2="143.9" stroke="rgb(0,0,0)"  stroke-width="2.0"/>
<line x1="160.0" y1="143.9" x2="180.0" y2="109.3" stroke="rgb(0,0,0)"  stroke-width="2.0"/>
<line x1="160.0" y1="143.9" x2="120.0" y2="143.9" stroke="rgb(0,0,0)"  stroke-width="2.0"/>
<line x1="309.8" y1="230.4" x2="333.2" y2="243.9" stroke="rgb(0,0,0)"  stroke-width="2.0"/>
<line x1="333.2" y1="243.9" x2="333.2" y2="283.9" stroke="rgb(0,0,0)"  stroke-width="2.0"/>
<line x1="333.2" y1="243.9" x2="367.9" y2="223.9" stroke="rgb(0,0,0)"  stroke-width="2.0"/>
<line x1="180.0" y1="40.0" x2="220.0" y2="40.0" stroke="rgb(0,0,0)"  stroke-width="2.0"/>
<line x1="186.0" y1="47.2" x2="214.0" y2="47.2" stroke="rgb(0,0,0)"  stroke-width="2.0"/>
<line x1="220.0" y1="40.0" x2="240.0" y2="74.6" stroke="rgb(0,0,0)"  stroke-width="2.0"/>
<line x1="240.0" y1="74.6" x2="220.0" y2="109.3" stroke="rgb(0,0,0)"  stroke-width="2.0"/>
<line x1="230.8" y1="76.2" x2="216.8" y2="100.5" stroke="rgb(0,0,0)"  stroke-width="2.0"/>
<line x1="220.0" y1="109.3" x2="180.0" y2="109.3" stroke="rgb(0,0,0)"  stroke-width="2.0"/>
<line x1="180.0" y1="109.3" x2="160.0" y2="74.6" stroke="rgb(0,0,0)"  stroke-width="2.0"/>
<line x1="183.2" y1="100.5" x2="169.2" y2="76.2" stroke="rgb(0,0,0)"  stroke-width="2.0"/>
<line x1="160.0" y1="74.6" x2="180.0" y2="40.0" stroke="rgb(0,0,0)"  stroke-width="2.0"/>
<line x1="60.0" y1="178.6" x2="40.0" y2="143.9" stroke="rgb(0,0,0)"  stroke-width="2.0"/>
<line x1="63.2" y1="169.8" x2="49.2" y2="145.5" stroke="rgb(0,0,0)"  stroke-width="2.0"/>
<line x1="40.0" y1="143.9" x2="60.0" y2="109.3" stroke="rgb(0,0,0)"  stroke-width="2.0"/>
<line x1="60.0" y1="109.3" x2="100.0" y2="109.3" stroke="rgb(0,0,0)"  stroke-width="2.0"/>
<line x1="66.0" y1="116.5" x2="94.0" y2="116.5" stroke="rgb(0,0,0)"  stroke-width="2.0"/>
<line x1="100.0" y1="109.3" x2="120.0" y2="143.9" stroke="rgb(0,0,0)"  stroke-width="2.0"/>
<line x1="120.0" y1="143.9" x2="100.0" y2="178.6" stroke="rgb(0,0,0)"  stroke-width="2.0"/>
<line x1="110.8" y1="145.5" x2="96.8" y2="169.8" stroke="rgb(0,0,0)"  stroke-width="2.0"/>
<line x1="100.0" y1="178.6" x2="60.0" y2="178.6" stroke="rgb(0,0,0)"  stroke-width="2.0"/>
<line x1="367.9" y1="343.9" x2="333.2" y2="363.9" stroke="rgb(0,0,0)"  stroke-width="2.0"/>
<line x1="359.1" y1="340.7" x2="334.8" y2="354.7" stroke="rgb(0,0,0)"  stroke-width="2.0"/>
<line x1="333.2" y1="363.9" x2="298.6" y2="343.9" stroke="rgb(0,0,0)"  stroke-width="2.0"/>
<line x1="298.6" y1="343.9" x2="298.6" y2="303.9" stroke="rgb(0,0,0)"  stroke-width="2.0"/>
<line x1="305.8" y1="337.9" x2="305.8" y2="309.9" stroke="rgb(0,0,0)"  stroke-width="2.0"/>
<line x1="298.6" y1="303.9" x2="333.2" y2="283.9" stroke="rgb(0,0,0)"  stroke-width="2.0"/>
<line x1="333.2" y1="283.9" x2="367.9" y2="303.9" stroke="rgb(0,0,0)"  stroke-width="2.0"/>
<line x1="334.8" y1="293.2" x2="359.1" y2="307.2" stroke="rgb(0,0,0)"  stroke-width="2.0"/>
<line x1="367.9" y1="303.9" x2="367.9" y2="343.9" stroke="rgb(0,0,0)"  stroke-width="2.0"/>
<line x1="402.5" y1="163.9" x2="437.1" y2="183.9" stroke="rgb(0,0,0)"  stroke-width="2.0"/>
<line x1="404.1" y1="173.2" x2="428.3" y2="187.2" stroke="rgb(0,0,0)"  stroke-width="2.0"/>
<line x1="437.1" y1="183.9" x2="437.1" y2="223.9" stroke="rgb(0,0,0)"  stroke-width="2.0"/>
<line x1="437.1" y1="223.9" x2="402.5" y2="243.9" stroke="rgb(0,0,0)"  stroke-width="2.0"/>
<line x1="428.3" y1="220.7" x2="404.1" y2="234.7" stroke="rgb(0,0,0)"  stroke-width="2.0"/>
<line x1="402.5" y1="243.9" x2="367.9" y2="223.9" stroke="rgb(0,0,0)"  stroke-width="2.0"/>
<line x1="367.9" y1="223.9" x2="367.8" y2="183.9" stroke="rgb(0,0,0)"  stroke-width="2.0"/>
<line x1="375.0" y1="217.9" x2="375.0" y2="189.9" stroke="rgb(0,0,0)"  stroke-width="2.0"/>
<line x1="367.8" y1="183.9" x2="402.5" y2="163.9" stroke="rgb(0,0,0)"  stroke-width="2.0"/>
<line x1="263.9" y1="243.9" x2="287.3" y2="230.4" stroke="rgb(0,0,0)"  stroke-width="2.0"/>
<line x1="298.6" y1="210.9" x2="298.6" y2="183.9" stroke="rgb(0,0,0)"  stroke-width="2.0"/>
<line x1="298.6" y1="183.9" x2="263.9" y2="163.9" stroke="rgb(0,0,0)"  stroke-width="2.0"/>
<line x1="263.9" y1="163.9" x2="229.3" y2="183.9" stroke="rgb(0,0,0)"  stroke-width="2.0"/>
<line x1="229.3" y1="183.9" x2="229.3" y2="223.9" stroke="rgb(0,0,0)"  stroke-width="2.0"/>
<line x1="229.3" y1="223.9" x2="263.9" y2="243.9" stroke="rgb(0,0,0)"  stroke-width="2.0"/>
<line x1="229.3" y1="143.9" x2="263.9" y2="163.9" stroke="rgb(0,0,0)"  stroke-width="2.0"/>
<line x1="229.3" y1="223.9" x2="194.6" y2="203.9" stroke="rgb(0,0,0)"  stroke-width="2.0"/>
<line x1="194.6" y1="203.9" x2="194.6" y2="176.9" stroke="rgb(0,0,0)"  stroke-width="2.0"/>
<line x1="205.9" y1="157.4" x2="229.3" y2="143.9" stroke="rgb(0,0,0)"  stroke-width="2.0"/>
<text x="292.568344" y="231.925463" fill="rgb(12,12,255)"  stroke="rgb(12,12,255)" stroke-width="1" font-size="16" >N</text>
<text x="188.640767" y="171.922849" fill="rgb(12,12,255)"  stroke="rgb(12,12,255)" stroke-width="1" font-size="16" >N</text>
<text x="188.642124" y="171.923632" fill="rgb(255,12,12)"  stroke="rgb(255,12,12)" stroke-width="1" font-size="16" >O</text>
</svg>
</g>
<text font-size="18.000000" fill ="black" font-family="sans-serif"
x="10.000000" y="20.000000" ></text>
</svg>
