<?xml version="1.0"?>
<svg version="1.1" id="topsvg"
xmlns="http://www.w3.org/2000/svg" xmlns:xlink="http://www.w3.org/1999/xlink"
xmlns:cml="http://www.xml-cml.org/schema" x="0" y="0" width="200px" height="200px" viewBox="0 0 100 100">
<title> - Open Babel Depiction</title>
<rect x="0" y="0" width="100" height="100" fill="white"/>
<g transform="translate(0,0)">
<svg width="100" height="100" x="0" y="0" viewBox="0 0 495.692 720"
font-family="sans-serif" stroke="rgb(0,0,0)" stroke-width="2"  stroke-linecap="round">
<line x1="444.4" y1="93.5" x2="421.1" y2="80.0" stroke="rgb(0,0,0)"  stroke-width="2.0"/>
<line x1="421.1" y1="80.0" x2="386.4" y2="100.0" stroke="rgb(0,0,0)"  stroke-width="2.0"/>
<line x1="386.4" y1="100.0" x2="386.4" y2="140.0" stroke="rgb(0,0,0)"  stroke-width="2.0"/>
<line x1="386.4" y1="140.0" x2="351.8" y2="160.0" stroke="rgb(0,0,0)"  stroke-width="2.0"/>
<line x1="351.8" y1="160.0" x2="351.8" y2="200.0" stroke="rgb(0,0,0)"  stroke-width="2.0"/>
<line x1="351.8" y1="200.0" x2="317.1" y2="220.0" stroke="rgb(0,0,0)"  stroke-width="2.0"/>
<line x1="317.1" y1="220.0" x2="317.1" y2="260.0" stroke="rgb(0,0,0)"  stroke-width="2.0"/>
<line x1="317.1" y1="260.0" x2="282.5" y2="280.0" stroke="rgb(0,0,0)"  stroke-width="2.0"/>
<line x1="282.5" y1="280.0" x2="282.5" y2="320.0" stroke="rgb(0,0,0)"  stroke-width="2.0"/>
<line x1="282.5" y1="320.0" x2="247.8" y2="340.0" stroke="rgb(0,0,0)"  stroke-width="2.0"/>
<line x1="247.8" y1="340.0" x2="247.8" y2="380.0" stroke="rgb(0,0,0)"  stroke-width="2.0"/>
<line x1="247.8" y1="380.0" x2="213.2" y2="400.0" stroke="rgb(0,0,0)"  stroke-width="2.0"/>
<line x1="213.2" y1="400.0" x2="213.2" y2="427.0" stroke="rgb(0,0,0)"  stroke-width="2.0"/>
<line x1="201.9" y1="446.5" x2="178.6" y2="460.0" stroke="rgb(0,0,0)"  stroke-width="2.0"/>
<line x1="178.6" y1="460.0" x2="155.2" y2="446.5" stroke="rgb(0,0,0)"  stroke-width="2.0"/>
<line x1="143.9" y1="427.0" x2="143.9" y2="400.0" stroke="rgb(0,0,0)"  stroke-width="2.0"/>
<line x1="143.9" y1="400.0" x2="178.6" y2="380.0" stroke="rgb(0,0,0)"  stroke-width="2.0"/>
<line x1="178.6" y1="380.0" x2="178.6" y2="340.0" stroke="rgb(0,0,0)"  stroke-width="2.0"/>
<line x1="178.6" y1="340.0" x2="213.2" y2="320.0" stroke="rgb(0,0,0)"  stroke-width="2.0"/>
<line x1="213.2" y1="320.0" x2="213.2" y2="280.0" stroke="rgb(0,0,0)"  stroke-width="2.0"/>
<line x1="213.2" y1="280.0" x2="247.8" y2="260.0" stroke="rgb(0,0,0)"  stroke-width="2.0"/>
<line x1="247.8" y1="260.0" x2="247.8" y2="220.0" stroke="rgb(0,0,0)"  stroke-width="2.0"/>
<line x1="247.8" y1="220.0" x2="282.5" y2="200.0" stroke="rgb(0,0,0)"  stroke-width="2.0"/>
<line x1="282.5" y1="200.0" x2="282.5" y2="160.0" stroke="rgb(0,0,0)"  stroke-width="2.0"/>
<line x1="282.5" y1="160.0" x2="317.1" y2="140.0" stroke="rgb(0,0,0)"  stroke-width="2.0"/>
<line x1="317.1" y1="140.0" x2="317.1" y2="100.0" stroke="rgb(0,0,0)"  stroke-width="2.0"/>
<line x1="317.1" y1="100.0" x2="351.8" y2="80.0" stroke="rgb(0,0,0)"  stroke-width="2.0"/>
<line x1="351.8" y1="80.0" x2="351.8" y2="53.0" stroke="rgb(0,0,0)"  stroke-width="2.0"/>
<line x1="178.6" y1="460.0" x2="178.6" y2="500.0" stroke="rgb(0,0,0)"  stroke-width="2.0"/>
<line x1="178.6" y1="500.0" x2="143.9" y2="520.0" stroke="rgb(0,0,0)"  stroke-width="2.0"/>
<line x1="143.9" y1="520.0" x2="120.5" y2="506.5" stroke="rgb(0,0,0)"  stroke-width="2.0"/>
<line x1="143.9" y1="520.0" x2="143.9" y2="560.0" stroke="rgb(0,0,0)"  stroke-width="2.0"/>
<line x1="143.9" y1="560.0" x2="109.3" y2="580.0" stroke="rgb(0,0,0)"  stroke-width="2.0"/>
<line x1="109.3" y1="580.0" x2="109.3" y2="620.0" stroke="rgb(0,0,0)"  stroke-width="2.0"/>
<line x1="110.8" y1="622.6" x2="76.1" y2="642.6" stroke="rgb(0,0,0)"  stroke-width="2.0"/>
<line x1="107.8" y1="617.4" x2="73.1" y2="637.4" stroke="rgb(0,0,0)"  stroke-width="2.0"/>
<line x1="74.6" y1="640.0" x2="51.3" y2="626.5" stroke="rgb(0,0,0)"  stroke-width="2.0"/>
<line x1="74.6" y1="640.0" x2="74.6" y2="667.0" stroke="rgb(0,0,0)"  stroke-width="2.0"/>
<text x="347.769145" y="48.000000" fill="rgb(102,102,102)"  stroke="rgb(102,102,102)" stroke-width="1" font-size="16" >CH</text>
<text x="371.769145" y="51.680000" fill="rgb(102,102,102)"  stroke="rgb(102,102,102)" stroke-width="1" font-size="13" >3</text>
<text x="83.282032" y="508.000000" fill="rgb(102,102,102)"  stroke="rgb(102,102,102)" stroke-width="1" font-size="16" >H</text>
<text x="95.282032" y="511.680000" fill="rgb(102,102,102)"  stroke="rgb(102,102,102)" stroke-width="1" font-size="13" >3</text>
<text x="101.782032" y="508.000000" fill="rgb(102,102,102)"  stroke="rgb(102,102,102)" stroke-width="1" font-size="16" >C</text>
<text x="14.000000" y="628.000000" fill="rgb(102,102,102)"  stroke="rgb(102,102,102)" stroke-width="1" font-size="16" >H</text>
<text x="26.000000" y="631.680000" fill="rgb(102,102,102)"  stroke="rgb(102,102,102)" stroke-width="1" font-size="13" >3</text>
<text x="32.500000" y="628.000000" fill="rgb(102,102,102)"  stroke="rgb(102,102,102)" stroke-width="1" font-size="16" >C</text>
<text x="70.641016" y="688.000000" fill="rgb(102,102,102)"  stroke="rgb(102,102,102)" stroke-width="1" font-size="16" >CH</text>
<text x="94.641016" y="691.680000" fill="rgb(102,102,102)"  stroke="rgb(102,102,102)" stroke-width="1" font-size="13" >3</text>
<text x="451.692194" y="108.000000" fill="rgb(102,102,102)"  stroke="rgb(102,102,102)" stroke-width="1" font-size="16" >CH</text>
<text x="475.692194" y="111.680000" fill="rgb(102,102,102)"  stroke="rgb(102,102,102)" stroke-width="1" font-size="13" >3</text>
<text x="207.205081" y="448.000000" fill="rgb(255,12,12)"  stroke="rgb(255,12,12)" stroke-width="1" font-size="16" >O</text>
<text x="137.923048" y="448.000000" fill="rgb(255,12,12)"  stroke="rgb(255,12,12)" stroke-width="1" font-size="16" >O</text>
</svg>
</g>
<text font-size="18.000000" fill ="black" font-family="sans-serif"
x="10.000000" y="20.000000" ></text>
</svg>
