<?xml version="1.0"?>
<svg version="1.1" id="topsvg"
xmlns="http://www.w3.org/2000/svg" xmlns:xlink="http://www.w3.org/1999/xlink"
xmlns:cml="http://www.xml-cml.org/schema" x="0" y="0" width="200px" height="200px" viewBox="0 0 100 100">
<title> - Open Babel Depiction</title>
<rect x="0" y="0" width="100" height="100" fill="white"/>
<g transform="translate(0,0)">
<svg width="100" height="100" x="0" y="0" viewBox="0 0 379.086 352.169"
font-family="sans-serif" stroke="rgb(0,0,0)" stroke-width="2"  stroke-linecap="round">
<line x1="51.3" y1="260.7" x2="62.2" y2="267.0" stroke="rgb(0,0,0)"  stroke-width="2.0"/>
<line x1="73.5" y1="286.5" x2="73.5" y2="299.2" stroke="rgb(0,0,0)"  stroke-width="2.0"/>
<line x1="84.7" y1="267.0" x2="107.0" y2="254.2" stroke="rgb(0,0,0)"  stroke-width="2.0"/>
<line x1="173.9" y1="215.5" x2="229.7" y2="183.3" stroke="rgb(0,0,0)"  stroke-width="2.0"/>
<line x1="237.9" y1="163.8" x2="237.9" y2="151.2" stroke="rgb(0,0,0)"  stroke-width="2.0"/>
<line x1="243.9" y1="163.8" x2="243.9" y2="151.2" stroke="rgb(0,0,0)"  stroke-width="2.0"/>
<line x1="227.9" y1="138.2" x2="215.3" y2="138.2" stroke="rgb(0,0,0)"  stroke-width="2.0"/>
<line x1="253.9" y1="138.2" x2="266.6" y2="138.2" stroke="rgb(0,0,0)"  stroke-width="2.0"/>
<line x1="240.9" y1="125.2" x2="240.9" y2="112.5" stroke="rgb(0,0,0)"  stroke-width="2.0"/>
<line x1="140.5" y1="196.2" x2="173.9" y2="215.5" stroke="rgb(0,0,0)"  stroke-width="2.0"/>
<line x1="142.1" y1="205.4" x2="165.1" y2="218.7" stroke="rgb(0,0,0)"  stroke-width="2.0"/>
<line x1="173.9" y1="215.5" x2="173.9" y2="254.2" stroke="rgb(0,0,0)"  stroke-width="2.0"/>
<line x1="173.9" y1="254.2" x2="140.5" y2="273.5" stroke="rgb(0,0,0)"  stroke-width="2.0"/>
<line x1="165.1" y1="250.9" x2="142.1" y2="264.3" stroke="rgb(0,0,0)"  stroke-width="2.0"/>
<line x1="140.5" y1="273.5" x2="107.0" y2="254.2" stroke="rgb(0,0,0)"  stroke-width="2.0"/>
<line x1="107.0" y1="254.2" x2="107.0" y2="215.5" stroke="rgb(0,0,0)"  stroke-width="2.0"/>
<line x1="114.2" y1="248.2" x2="114.2" y2="221.5" stroke="rgb(0,0,0)"  stroke-width="2.0"/>
<line x1="107.0" y1="215.5" x2="140.5" y2="196.2" stroke="rgb(0,0,0)"  stroke-width="2.0"/>
<line x1="142.7" y1="157.5" x2="142.7" y2="118.8" stroke="rgb(0,0,0)"  stroke-width="2.0"/>
<line x1="142.7" y1="118.8" x2="179.5" y2="106.9" stroke="rgb(0,0,0)"  stroke-width="2.0"/>
<line x1="179.5" y1="106.9" x2="194.6" y2="127.7" stroke="rgb(0,0,0)"  stroke-width="2.0"/>
<line x1="194.6" y1="148.7" x2="179.5" y2="169.5" stroke="rgb(0,0,0)"  stroke-width="2.0"/>
<line x1="179.5" y1="169.5" x2="142.7" y2="157.5" stroke="rgb(0,0,0)"  stroke-width="2.0"/>
<line x1="339.1" y1="118.8" x2="339.1" y2="157.5" stroke="rgb(0,0,0)"  stroke-width="2.0"/>
<line x1="339.1" y1="157.5" x2="302.3" y2="169.5" stroke="rgb(0,0,0)"  stroke-width="2.0"/>
<line x1="302.3" y1="169.5" x2="287.2" y2="148.7" stroke="rgb(0,0,0)"  stroke-width="2.0"/>
<line x1="287.2" y1="127.7" x2="302.3" y2="106.9" stroke="rgb(0,0,0)"  stroke-width="2.0"/>
<line x1="302.3" y1="106.9" x2="339.1" y2="118.8" stroke="rgb(0,0,0)"  stroke-width="2.0"/>
<line x1="221.6" y1="40.0" x2="260.3" y2="40.0" stroke="rgb(0,0,0)"  stroke-width="2.0"/>
<line x1="260.3" y1="40.0" x2="272.2" y2="76.8" stroke="rgb(0,0,0)"  stroke-width="2.0"/>
<line x1="272.2" y1="76.8" x2="251.4" y2="91.9" stroke="rgb(0,0,0)"  stroke-width="2.0"/>
<line x1="230.4" y1="91.9" x2="209.6" y2="76.8" stroke="rgb(0,0,0)"  stroke-width="2.0"/>
<line x1="209.6" y1="76.8" x2="221.6" y2="40.0" stroke="rgb(0,0,0)"  stroke-width="2.0"/>
<text x="234.917894" y="107.501882" fill="rgb(12,12,255)"  stroke="rgb(12,12,255)" stroke-width="1" font-size="16" >N</text>
<text x="273.584560" y="146.168548" fill="rgb(12,12,255)"  stroke="rgb(12,12,255)" stroke-width="1" font-size="16" >N</text>
<text x="14.000000" y="262.168548" fill="rgb(102,102,102)"  stroke="rgb(102,102,102)" stroke-width="1" font-size="16" >H</text>
<text x="26.000000" y="265.848548" fill="rgb(102,102,102)"  stroke="rgb(102,102,102)" stroke-width="1" font-size="13" >3</text>
<text x="32.500000" y="262.168548" fill="rgb(102,102,102)"  stroke="rgb(102,102,102)" stroke-width="1" font-size="16" >C</text>
<text x="196.251227" y="146.168548" fill="rgb(12,12,255)"  stroke="rgb(12,12,255)" stroke-width="1" font-size="16" >N</text>
<text x="234.917894" y="146.168548" fill="rgb(255,127,0)"  stroke="rgb(255,127,0)" stroke-width="1" font-size="16" >P</text>
<text x="234.917894" y="184.835215" fill="rgb(12,12,255)"  stroke="rgb(12,12,255)" stroke-width="1" font-size="16" >N</text>
<text x="69.486316" y="320.168548" fill="rgb(102,102,102)"  stroke="rgb(102,102,102)" stroke-width="1" font-size="16" >CH</text>
<text x="93.486316" y="323.848548" fill="rgb(102,102,102)"  stroke="rgb(102,102,102)" stroke-width="1" font-size="13" >3</text>
<text x="67.486316" y="281.501882" fill="rgb(12,12,255)"  stroke="rgb(12,12,255)" stroke-width="1" font-size="16" >N</text>
</svg>
</g>
<text font-size="18.000000" fill ="black" font-family="sans-serif"
x="10.000000" y="20.000000" ></text>
</svg>
