<?xml version="1.0"?>
<svg version="1.1" id="topsvg"
xmlns="http://www.w3.org/2000/svg" xmlns:xlink="http://www.w3.org/1999/xlink"
xmlns:cml="http://www.xml-cml.org/schema" x="0" y="0" width="200px" height="200px" viewBox="0 0 100 100">
<title> - Open Babel Depiction</title>
<rect x="0" y="0" width="100" height="100" fill="white"/>
<g transform="translate(0,0)">
<svg width="100" height="100" x="0" y="0" viewBox="0 0 400.118 200"
font-family="sans-serif" stroke="rgb(0,0,0)" stroke-width="2"  stroke-linecap="round">
<line x1="113.5" y1="138.0" x2="100.0" y2="114.6" stroke="rgb(0,0,0)"  stroke-width="2.0"/>
<line x1="120.0" y1="80.0" x2="160.0" y2="80.0" stroke="rgb(0,0,0)"  stroke-width="2.0"/>
<line x1="290.8" y1="100.0" x2="325.5" y2="120.0" stroke="rgb(0,0,0)"  stroke-width="2.0"/>
<line x1="325.5" y1="120.0" x2="325.5" y2="147.0" stroke="rgb(0,0,0)"  stroke-width="2.0"/>
<line x1="324.0" y1="117.4" x2="347.4" y2="103.9" stroke="rgb(0,0,0)"  stroke-width="2.0"/>
<line x1="327.0" y1="122.6" x2="350.4" y2="109.1" stroke="rgb(0,0,0)"  stroke-width="2.0"/>
<line x1="221.6" y1="60.0" x2="221.6" y2="100.0" stroke="rgb(0,0,0)"  stroke-width="2.0"/>
<line x1="214.4" y1="66.0" x2="214.4" y2="94.0" stroke="rgb(0,0,0)"  stroke-width="2.0"/>
<line x1="221.6" y1="100.0" x2="195.9" y2="108.3" stroke="rgb(0,0,0)"  stroke-width="2.0"/>
<line x1="175.9" y1="101.8" x2="160.0" y2="80.0" stroke="rgb(0,0,0)"  stroke-width="2.0"/>
<line x1="160.0" y1="80.0" x2="183.5" y2="47.6" stroke="rgb(0,0,0)"  stroke-width="2.0"/>
<line x1="169.4" y1="79.4" x2="185.8" y2="56.7" stroke="rgb(0,0,0)"  stroke-width="2.0"/>
<line x1="183.5" y1="47.6" x2="221.6" y2="60.0" stroke="rgb(0,0,0)"  stroke-width="2.0"/>
<line x1="40.0" y1="80.0" x2="60.0" y2="45.4" stroke="rgb(0,0,0)"  stroke-width="2.0"/>
<line x1="49.2" y1="78.4" x2="63.2" y2="54.2" stroke="rgb(0,0,0)"  stroke-width="2.0"/>
<line x1="60.0" y1="45.4" x2="100.0" y2="45.4" stroke="rgb(0,0,0)"  stroke-width="2.0"/>
<line x1="100.0" y1="45.4" x2="120.0" y2="80.0" stroke="rgb(0,0,0)"  stroke-width="2.0"/>
<line x1="96.8" y1="54.2" x2="110.8" y2="78.4" stroke="rgb(0,0,0)"  stroke-width="2.0"/>
<line x1="120.0" y1="80.0" x2="100.0" y2="114.6" stroke="rgb(0,0,0)"  stroke-width="2.0"/>
<line x1="100.0" y1="114.6" x2="60.0" y2="114.6" stroke="rgb(0,0,0)"  stroke-width="2.0"/>
<line x1="94.0" y1="107.4" x2="66.0" y2="107.4" stroke="rgb(0,0,0)"  stroke-width="2.0"/>
<line x1="60.0" y1="114.6" x2="40.0" y2="80.0" stroke="rgb(0,0,0)"  stroke-width="2.0"/>
<line x1="290.8" y1="60.0" x2="290.8" y2="100.0" stroke="rgb(0,0,0)"  stroke-width="2.0"/>
<line x1="290.8" y1="100.0" x2="256.2" y2="120.0" stroke="rgb(0,0,0)"  stroke-width="2.0"/>
<line x1="282.0" y1="96.8" x2="257.8" y2="110.8" stroke="rgb(0,0,0)"  stroke-width="2.0"/>
<line x1="256.2" y1="120.0" x2="221.6" y2="100.0" stroke="rgb(0,0,0)"  stroke-width="2.0"/>
<line x1="221.6" y1="60.0" x2="256.2" y2="40.0" stroke="rgb(0,0,0)"  stroke-width="2.0"/>
<line x1="256.2" y1="40.0" x2="290.8" y2="60.0" stroke="rgb(0,0,0)"  stroke-width="2.0"/>
<line x1="257.8" y1="49.2" x2="282.0" y2="63.2" stroke="rgb(0,0,0)"  stroke-width="2.0"/>
<text x="354.117735" y="108.000000" fill="rgb(12,12,255)"  stroke="rgb(12,12,255)" stroke-width="1" font-size="16" >NH</text>
<text x="321.476719" y="168.000000" fill="rgb(12,12,255)"  stroke="rgb(12,12,255)" stroke-width="1" font-size="16" >NH</text>
<text x="345.476719" y="171.680000" fill="rgb(12,12,255)"  stroke="rgb(12,12,255)" stroke-width="1" font-size="13" >2</text>
<text x="177.511410" y="120.360680" fill="rgb(12,12,255)"  stroke="rgb(12,12,255)" stroke-width="1" font-size="16" >N</text>
<text x="177.511410" y="136.360680" fill="rgb(12,12,255)"  stroke="rgb(12,12,255)" stroke-width="1" font-size="16" >H</text>
<text x="116.000000" y="157.282032" fill="rgb(102,102,102)"  stroke="rgb(102,102,102)" stroke-width="1" font-size="16" >CH</text>
<text x="140.000000" y="160.962032" fill="rgb(102,102,102)"  stroke="rgb(102,102,102)" stroke-width="1" font-size="13" >3</text>
</svg>
</g>
<text font-size="18.000000" fill ="black" font-family="sans-serif"
x="10.000000" y="20.000000" ></text>
</svg>
