<?xml version="1.0"?>
<svg version="1.1" id="topsvg"
xmlns="http://www.w3.org/2000/svg" xmlns:xlink="http://www.w3.org/1999/xlink"
xmlns:cml="http://www.xml-cml.org/schema" x="0" y="0" width="200px" height="200px" viewBox="0 0 100 100">
<title> - Open Babel Depiction</title>
<rect x="0" y="0" width="100" height="100" fill="white"/>
<g transform="translate(0,0)">
<svg width="100" height="100" x="0" y="0" viewBox="0 0 367.194 349.626"
font-family="sans-serif" stroke="rgb(0,0,0)" stroke-width="2"  stroke-linecap="round">
<line x1="270.1" y1="207.8" x2="257.5" y2="186.1" stroke="rgb(0,0,0)"  stroke-width="2.0"/>
<line x1="238.0" y1="177.8" x2="225.9" y2="177.8" stroke="rgb(0,0,0)"  stroke-width="2.0"/>
<line x1="238.0" y1="171.8" x2="225.9" y2="171.8" stroke="rgb(0,0,0)"  stroke-width="2.0"/>
<line x1="212.9" y1="187.8" x2="212.9" y2="238.0" stroke="rgb(0,0,0)"  stroke-width="2.0"/>
<line x1="212.9" y1="161.8" x2="212.9" y2="111.6" stroke="rgb(0,0,0)"  stroke-width="2.0"/>
<line x1="199.9" y1="174.8" x2="187.8" y2="174.8" stroke="rgb(0,0,0)"  stroke-width="2.0"/>
<line x1="161.8" y1="177.8" x2="149.7" y2="177.8" stroke="rgb(0,0,0)"  stroke-width="2.0"/>
<line x1="161.8" y1="171.8" x2="149.7" y2="171.8" stroke="rgb(0,0,0)"  stroke-width="2.0"/>
<line x1="136.7" y1="161.8" x2="136.7" y2="149.7" stroke="rgb(0,0,0)"  stroke-width="2.0"/>
<line x1="123.7" y1="174.8" x2="111.6" y2="174.8" stroke="rgb(0,0,0)"  stroke-width="2.0"/>
<line x1="136.7" y1="187.8" x2="136.7" y2="199.9" stroke="rgb(0,0,0)"  stroke-width="2.0"/>
<line x1="270.1" y1="273.8" x2="308.1" y2="273.8" stroke="rgb(0,0,0)"  stroke-width="2.0"/>
<line x1="276.1" y1="266.6" x2="302.1" y2="266.6" stroke="rgb(0,0,0)"  stroke-width="2.0"/>
<line x1="308.1" y1="273.8" x2="327.2" y2="240.8" stroke="rgb(0,0,0)"  stroke-width="2.0"/>
<line x1="327.2" y1="240.8" x2="308.1" y2="207.8" stroke="rgb(0,0,0)"  stroke-width="2.0"/>
<line x1="318.0" y1="239.2" x2="304.9" y2="216.6" stroke="rgb(0,0,0)"  stroke-width="2.0"/>
<line x1="308.1" y1="207.8" x2="270.1" y2="207.8" stroke="rgb(0,0,0)"  stroke-width="2.0"/>
<line x1="270.1" y1="207.8" x2="251.0" y2="240.8" stroke="rgb(0,0,0)"  stroke-width="2.0"/>
<line x1="273.3" y1="216.6" x2="260.2" y2="239.2" stroke="rgb(0,0,0)"  stroke-width="2.0"/>
<line x1="251.0" y1="240.8" x2="270.1" y2="273.8" stroke="rgb(0,0,0)"  stroke-width="2.0"/>
<line x1="232.0" y1="309.6" x2="193.9" y2="309.6" stroke="rgb(0,0,0)"  stroke-width="2.0"/>
<line x1="193.9" y1="309.6" x2="182.1" y2="273.4" stroke="rgb(0,0,0)"  stroke-width="2.0"/>
<line x1="182.1" y1="273.4" x2="202.4" y2="258.6" stroke="rgb(0,0,0)"  stroke-width="2.0"/>
<line x1="223.4" y1="258.6" x2="243.7" y2="273.4" stroke="rgb(0,0,0)"  stroke-width="2.0"/>
<line x1="243.7" y1="273.4" x2="232.0" y2="309.6" stroke="rgb(0,0,0)"  stroke-width="2.0"/>
<line x1="193.9" y1="40.0" x2="232.0" y2="40.0" stroke="rgb(0,0,0)"  stroke-width="2.0"/>
<line x1="232.0" y1="40.0" x2="243.7" y2="76.2" stroke="rgb(0,0,0)"  stroke-width="2.0"/>
<line x1="243.7" y1="76.2" x2="223.4" y2="91.0" stroke="rgb(0,0,0)"  stroke-width="2.0"/>
<line x1="202.4" y1="91.0" x2="182.1" y2="76.2" stroke="rgb(0,0,0)"  stroke-width="2.0"/>
<line x1="182.1" y1="76.2" x2="193.9" y2="40.0" stroke="rgb(0,0,0)"  stroke-width="2.0"/>
<line x1="117.7" y1="78.1" x2="155.8" y2="78.1" stroke="rgb(0,0,0)"  stroke-width="2.0"/>
<line x1="155.8" y1="78.1" x2="167.5" y2="114.3" stroke="rgb(0,0,0)"  stroke-width="2.0"/>
<line x1="167.5" y1="114.3" x2="147.2" y2="129.1" stroke="rgb(0,0,0)"  stroke-width="2.0"/>
<line x1="126.2" y1="129.1" x2="105.9" y2="114.3" stroke="rgb(0,0,0)"  stroke-width="2.0"/>
<line x1="105.9" y1="114.3" x2="117.7" y2="78.1" stroke="rgb(0,0,0)"  stroke-width="2.0"/>
<line x1="40.0" y1="193.9" x2="40.0" y2="155.8" stroke="rgb(0,0,0)"  stroke-width="2.0"/>
<line x1="40.0" y1="155.8" x2="76.2" y2="144.0" stroke="rgb(0,0,0)"  stroke-width="2.0"/>
<line x1="76.2" y1="144.0" x2="91.0" y2="164.3" stroke="rgb(0,0,0)"  stroke-width="2.0"/>
<line x1="91.0" y1="185.3" x2="76.2" y2="205.6" stroke="rgb(0,0,0)"  stroke-width="2.0"/>
<line x1="76.2" y1="205.6" x2="40.0" y2="193.9" stroke="rgb(0,0,0)"  stroke-width="2.0"/>
<line x1="155.8" y1="271.5" x2="117.7" y2="271.5" stroke="rgb(0,0,0)"  stroke-width="2.0"/>
<line x1="117.7" y1="271.5" x2="105.9" y2="235.3" stroke="rgb(0,0,0)"  stroke-width="2.0"/>
<line x1="105.9" y1="235.3" x2="126.2" y2="220.5" stroke="rgb(0,0,0)"  stroke-width="2.0"/>
<line x1="147.2" y1="220.5" x2="167.5" y2="235.3" stroke="rgb(0,0,0)"  stroke-width="2.0"/>
<line x1="167.5" y1="235.3" x2="155.8" y2="271.5" stroke="rgb(0,0,0)"  stroke-width="2.0"/>
<text x="168.813020" y="182.813020" fill="rgb(12,12,255)"  stroke="rgb(12,12,255)" stroke-width="1" font-size="16" >N</text>
<text x="130.717782" y="182.813020" fill="rgb(255,127,0)"  stroke="rgb(255,127,0)" stroke-width="1" font-size="16" >P</text>
<text x="130.717782" y="144.717782" fill="rgb(12,12,255)"  stroke="rgb(12,12,255)" stroke-width="1" font-size="16" >N</text>
<text x="92.622544" y="182.813020" fill="rgb(12,12,255)"  stroke="rgb(12,12,255)" stroke-width="1" font-size="16" >N</text>
<text x="130.717782" y="220.908258" fill="rgb(12,12,255)"  stroke="rgb(12,12,255)" stroke-width="1" font-size="16" >N</text>
<text x="245.003496" y="182.813020" fill="rgb(12,12,255)"  stroke="rgb(12,12,255)" stroke-width="1" font-size="16" >N</text>
<text x="206.908258" y="182.813020" fill="rgb(255,127,0)"  stroke="rgb(255,127,0)" stroke-width="1" font-size="16" >P</text>
<text x="206.908258" y="259.003496" fill="rgb(12,12,255)"  stroke="rgb(12,12,255)" stroke-width="1" font-size="16" >N</text>
<text x="206.908258" y="106.622544" fill="rgb(12,12,255)"  stroke="rgb(12,12,255)" stroke-width="1" font-size="16" >N</text>
</svg>
</g>
<text font-size="18.000000" fill ="black" font-family="sans-serif"
x="10.000000" y="20.000000" ></text>
</svg>
