<?xml version="1.0"?>
<svg version="1.1" id="topsvg"
xmlns="http://www.w3.org/2000/svg" xmlns:xlink="http://www.w3.org/1999/xlink"
xmlns:cml="http://www.xml-cml.org/schema" x="0" y="0" width="200px" height="200px" viewBox="0 0 100 100">
<title> - Open Babel Depiction</title>
<rect x="0" y="0" width="100" height="100" fill="white"/>
<g transform="translate(0,0)">
<svg width="100" height="100" x="0" y="0" viewBox="0 0 340.118 281.554"
font-family="sans-serif" stroke="rgb(0,0,0)" stroke-width="2"  stroke-linecap="round">
<line x1="165.1" y1="143.4" x2="178.6" y2="120.0" stroke="rgb(0,0,0)"  stroke-width="2.0"/>
<line x1="178.6" y1="120.0" x2="213.2" y2="140.0" stroke="rgb(0,0,0)"  stroke-width="2.0"/>
<line x1="213.2" y1="140.0" x2="213.2" y2="167.0" stroke="rgb(0,0,0)"  stroke-width="2.0"/>
<line x1="178.6" y1="120.0" x2="198.6" y2="85.4" stroke="rgb(0,0,0)"  stroke-width="2.0"/>
<line x1="198.6" y1="85.4" x2="225.6" y2="85.4" stroke="rgb(0,0,0)"  stroke-width="2.0"/>
<line x1="178.6" y1="120.0" x2="143.9" y2="100.0" stroke="rgb(0,0,0)"  stroke-width="2.0"/>
<line x1="74.6" y1="60.0" x2="51.3" y2="46.5" stroke="rgb(0,0,0)"  stroke-width="2.0"/>
<line x1="109.3" y1="120.0" x2="109.3" y2="147.0" stroke="rgb(0,0,0)"  stroke-width="2.0"/>
<line x1="206.2" y1="241.6" x2="233.2" y2="241.6" stroke="rgb(0,0,0)"  stroke-width="2.0"/>
<line x1="233.2" y1="241.6" x2="241.5" y2="216.1" stroke="rgb(0,0,0)"  stroke-width="2.0"/>
<line x1="228.2" y1="233.6" x2="234.0" y2="215.7" stroke="rgb(0,0,0)"  stroke-width="2.0"/>
<line x1="235.0" y1="195.9" x2="223.7" y2="187.6" stroke="rgb(0,0,0)"  stroke-width="2.0"/>
<line x1="202.7" y1="187.6" x2="180.8" y2="203.5" stroke="rgb(0,0,0)"  stroke-width="2.0"/>
<line x1="180.8" y1="203.5" x2="189.1" y2="229.0" stroke="rgb(0,0,0)"  stroke-width="2.0"/>
<line x1="189.5" y1="207.0" x2="195.4" y2="224.9" stroke="rgb(0,0,0)"  stroke-width="2.0"/>
<line x1="300.1" y1="92.4" x2="300.1" y2="65.4" stroke="rgb(0,0,0)"  stroke-width="2.0"/>
<line x1="300.1" y1="65.4" x2="274.6" y2="57.1" stroke="rgb(0,0,0)"  stroke-width="2.0"/>
<line x1="292.2" y1="70.4" x2="274.3" y2="64.5" stroke="rgb(0,0,0)"  stroke-width="2.0"/>
<line x1="254.4" y1="63.5" x2="246.2" y2="74.8" stroke="rgb(0,0,0)"  stroke-width="2.0"/>
<line x1="246.2" y1="95.9" x2="262.1" y2="117.7" stroke="rgb(0,0,0)"  stroke-width="2.0"/>
<line x1="262.1" y1="117.7" x2="287.6" y2="109.4" stroke="rgb(0,0,0)"  stroke-width="2.0"/>
<line x1="265.6" y1="109.0" x2="283.4" y2="103.2" stroke="rgb(0,0,0)"  stroke-width="2.0"/>
<line x1="109.3" y1="40.0" x2="74.6" y2="60.0" stroke="rgb(0,0,0)"  stroke-width="2.0"/>
<line x1="107.7" y1="49.2" x2="83.4" y2="63.2" stroke="rgb(0,0,0)"  stroke-width="2.0"/>
<line x1="74.6" y1="60.0" x2="74.6" y2="100.0" stroke="rgb(0,0,0)"  stroke-width="2.0"/>
<line x1="74.6" y1="100.0" x2="109.3" y2="120.0" stroke="rgb(0,0,0)"  stroke-width="2.0"/>
<line x1="83.4" y1="96.8" x2="107.7" y2="110.8" stroke="rgb(0,0,0)"  stroke-width="2.0"/>
<line x1="109.3" y1="120.0" x2="143.9" y2="100.0" stroke="rgb(0,0,0)"  stroke-width="2.0"/>
<line x1="143.9" y1="100.0" x2="143.9" y2="60.0" stroke="rgb(0,0,0)"  stroke-width="2.0"/>
<line x1="136.7" y1="94.0" x2="136.7" y2="66.0" stroke="rgb(0,0,0)"  stroke-width="2.0"/>
<line x1="143.9" y1="60.0" x2="109.3" y2="40.0" stroke="rgb(0,0,0)"  stroke-width="2.0"/>
<text x="294.117735" y="113.358984" fill="rgb(12,12,255)"  stroke="rgb(12,12,255)" stroke-width="1" font-size="16" >N</text>
<text x="103.282032" y="168.000000" fill="rgb(127,178,255)"  stroke="rgb(127,178,255)" stroke-width="1" font-size="16" >F</text>
<text x="34.000000" y="48.000000" fill="rgb(127,178,255)"  stroke="rgb(127,178,255)" stroke-width="1" font-size="16" >F</text>
<text x="256.075475" y="60.998304" fill="rgb(12,12,255)"  stroke="rgb(12,12,255)" stroke-width="1" font-size="16" >N</text>
<text x="140.564065" y="162.641016" fill="rgb(255,12,12)"  stroke="rgb(255,12,12)" stroke-width="1" font-size="16" >HO</text>
<text x="232.564065" y="93.358984" fill="rgb(12,12,255)"  stroke="rgb(12,12,255)" stroke-width="1" font-size="16" >N</text>
<text x="239.565761" y="211.511410" fill="rgb(12,12,255)"  stroke="rgb(12,12,255)" stroke-width="1" font-size="16" >N</text>
<text x="187.205081" y="249.553671" fill="rgb(12,12,255)"  stroke="rgb(12,12,255)" stroke-width="1" font-size="16" >N</text>
<text x="207.205081" y="188.000000" fill="rgb(12,12,255)"  stroke="rgb(12,12,255)" stroke-width="1" font-size="16" >N</text>
</svg>
</g>
<text font-size="18.000000" fill ="black" font-family="sans-serif"
x="10.000000" y="20.000000" ></text>
</svg>
