<?xml version="1.0"?>
<svg version="1.1" id="topsvg"
xmlns="http://www.w3.org/2000/svg" xmlns:xlink="http://www.w3.org/1999/xlink"
xmlns:cml="http://www.xml-cml.org/schema" x="0" y="0" width="200px" height="200px" viewBox="0 0 100 100">
<title> - Open Babel Depiction</title>
<rect x="0" y="0" width="100" height="100" fill="white"/>
<g transform="translate(0,0)">
<svg width="100" height="100" x="0" y="0" viewBox="0 0 280.874 227.252"
font-family="sans-serif" stroke="rgb(0,0,0)" stroke-width="2"  stroke-linecap="round">
<line x1="181.9" y1="158.7" x2="207.4" y2="156.0" stroke="rgb(0,0,0)"  stroke-width="2.0"/>
<line x1="209.8" y1="154.2" x2="224.9" y2="175.0" stroke="rgb(0,0,0)"  stroke-width="2.0"/>
<line x1="205.0" y1="157.7" x2="220.0" y2="178.5" stroke="rgb(0,0,0)"  stroke-width="2.0"/>
<line x1="207.4" y1="156.0" x2="207.4" y2="117.3" stroke="rgb(0,0,0)"  stroke-width="2.0"/>
<line x1="73.5" y1="117.3" x2="73.5" y2="156.0" stroke="rgb(0,0,0)"  stroke-width="2.0"/>
<line x1="73.5" y1="156.0" x2="51.3" y2="168.8" stroke="rgb(0,0,0)"  stroke-width="2.0"/>
<line x1="75.0" y1="153.4" x2="97.2" y2="166.2" stroke="rgb(0,0,0)"  stroke-width="2.0"/>
<line x1="72.0" y1="158.6" x2="94.2" y2="171.4" stroke="rgb(0,0,0)"  stroke-width="2.0"/>
<line x1="107.0" y1="98.0" x2="129.2" y2="110.8" stroke="rgb(0,0,0)"  stroke-width="2.0"/>
<line x1="151.7" y1="110.8" x2="173.9" y2="98.0" stroke="rgb(0,0,0)"  stroke-width="2.0"/>
<line x1="173.9" y1="98.0" x2="173.9" y2="59.3" stroke="rgb(0,0,0)"  stroke-width="2.0"/>
<line x1="166.7" y1="92.0" x2="166.7" y2="65.3" stroke="rgb(0,0,0)"  stroke-width="2.0"/>
<line x1="173.9" y1="59.3" x2="107.0" y2="59.3" stroke="rgb(0,0,0)"  stroke-width="2.0"/>
<line x1="107.0" y1="59.3" x2="107.0" y2="98.0" stroke="rgb(0,0,0)"  stroke-width="2.0"/>
<line x1="114.2" y1="65.3" x2="114.2" y2="92.0" stroke="rgb(0,0,0)"  stroke-width="2.0"/>
<line x1="240.9" y1="59.4" x2="207.4" y2="40.0" stroke="rgb(0,0,0)"  stroke-width="2.0"/>
<line x1="232.1" y1="62.6" x2="209.0" y2="49.3" stroke="rgb(0,0,0)"  stroke-width="2.0"/>
<line x1="207.4" y1="40.0" x2="173.9" y2="59.3" stroke="rgb(0,0,0)"  stroke-width="2.0"/>
<line x1="173.9" y1="98.0" x2="207.4" y2="117.3" stroke="rgb(0,0,0)"  stroke-width="2.0"/>
<line x1="207.4" y1="117.3" x2="240.9" y2="98.0" stroke="rgb(0,0,0)"  stroke-width="2.0"/>
<line x1="209.0" y1="108.1" x2="232.1" y2="94.8" stroke="rgb(0,0,0)"  stroke-width="2.0"/>
<line x1="240.9" y1="98.0" x2="240.9" y2="59.4" stroke="rgb(0,0,0)"  stroke-width="2.0"/>
<line x1="40.0" y1="98.0" x2="73.5" y2="117.3" stroke="rgb(0,0,0)"  stroke-width="2.0"/>
<line x1="48.8" y1="94.8" x2="71.9" y2="108.1" stroke="rgb(0,0,0)"  stroke-width="2.0"/>
<line x1="73.5" y1="117.3" x2="107.0" y2="98.0" stroke="rgb(0,0,0)"  stroke-width="2.0"/>
<line x1="107.0" y1="59.3" x2="73.5" y2="40.0" stroke="rgb(0,0,0)"  stroke-width="2.0"/>
<line x1="73.5" y1="40.0" x2="40.0" y2="59.3" stroke="rgb(0,0,0)"  stroke-width="2.0"/>
<line x1="71.9" y1="49.2" x2="48.8" y2="62.6" stroke="rgb(0,0,0)"  stroke-width="2.0"/>
<line x1="40.0" y1="59.3" x2="40.0" y2="98.0" stroke="rgb(0,0,0)"  stroke-width="2.0"/>
<text x="134.447690" y="125.328185" fill="rgb(255,12,12)"  stroke="rgb(255,12,12)" stroke-width="1" font-size="16" >O</text>
<text x="100.932202" y="183.286496" fill="rgb(255,12,12)"  stroke="rgb(255,12,12)" stroke-width="1" font-size="16" >O</text>
<text x="22.000000" y="183.273157" fill="rgb(255,12,12)"  stroke="rgb(255,12,12)" stroke-width="1" font-size="16" >HO</text>
<text x="150.957501" y="168.016521" fill="rgb(255,12,12)"  stroke="rgb(255,12,12)" stroke-width="1" font-size="16" >HO</text>
<text x="224.097685" y="195.252486" fill="rgb(255,12,12)"  stroke="rgb(255,12,12)" stroke-width="1" font-size="16" >O</text>
</svg>
</g>
<text font-size="18.000000" fill ="black" font-family="sans-serif"
x="10.000000" y="20.000000" ></text>
</svg>
