<?xml version="1.0"?>
<svg version="1.1" id="topsvg"
xmlns="http://www.w3.org/2000/svg" xmlns:xlink="http://www.w3.org/1999/xlink"
xmlns:cml="http://www.xml-cml.org/schema" x="0" y="0" width="200px" height="200px" viewBox="0 0 100 100">
<title> - Open Babel Depiction</title>
<rect x="0" y="0" width="100" height="100" fill="white"/>
<g transform="translate(0,0)">
<svg width="100" height="100" x="0" y="0" viewBox="0 0 413.205 300"
font-family="sans-serif" stroke="rgb(0,0,0)" stroke-width="2"  stroke-linecap="round">
<line x1="51.3" y1="253.5" x2="74.6" y2="240.0" stroke="rgb(0,0,0)"  stroke-width="2.0"/>
<line x1="74.6" y1="240.0" x2="74.6" y2="213.0" stroke="rgb(0,0,0)"  stroke-width="2.0"/>
<line x1="85.9" y1="193.5" x2="109.3" y2="180.0" stroke="rgb(0,0,0)"  stroke-width="2.0"/>
<line x1="178.6" y1="140.0" x2="201.9" y2="126.5" stroke="rgb(0,0,0)"  stroke-width="2.0"/>
<line x1="213.2" y1="107.0" x2="213.2" y2="93.0" stroke="rgb(0,0,0)"  stroke-width="2.0"/>
<line x1="226.2" y1="80.0" x2="253.2" y2="80.0" stroke="rgb(0,0,0)"  stroke-width="2.0"/>
<line x1="333.2" y1="80.0" x2="360.2" y2="80.0" stroke="rgb(0,0,0)"  stroke-width="2.0"/>
<line x1="210.2" y1="67.0" x2="210.2" y2="53.0" stroke="rgb(0,0,0)"  stroke-width="2.0"/>
<line x1="216.2" y1="67.0" x2="216.2" y2="53.0" stroke="rgb(0,0,0)"  stroke-width="2.0"/>
<line x1="200.2" y1="83.0" x2="186.2" y2="83.0" stroke="rgb(0,0,0)"  stroke-width="2.0"/>
<line x1="200.2" y1="77.0" x2="186.2" y2="77.0" stroke="rgb(0,0,0)"  stroke-width="2.0"/>
<line x1="178.6" y1="180.0" x2="178.6" y2="140.0" stroke="rgb(0,0,0)"  stroke-width="2.0"/>
<line x1="171.4" y1="174.0" x2="171.4" y2="146.0" stroke="rgb(0,0,0)"  stroke-width="2.0"/>
<line x1="178.6" y1="140.0" x2="155.2" y2="126.5" stroke="rgb(0,0,0)"  stroke-width="2.0"/>
<line x1="132.5" y1="126.6" x2="120.7" y2="133.4" stroke="rgb(0,0,0)"  stroke-width="2.0"/>
<line x1="134.4" y1="133.8" x2="126.0" y2="138.6" stroke="rgb(0,0,0)"  stroke-width="2.0"/>
<line x1="109.3" y1="153.0" x2="109.3" y2="180.0" stroke="rgb(0,0,0)"  stroke-width="2.0"/>
<line x1="109.3" y1="180.0" x2="143.9" y2="200.0" stroke="rgb(0,0,0)"  stroke-width="2.0"/>
<line x1="118.1" y1="176.8" x2="142.3" y2="190.8" stroke="rgb(0,0,0)"  stroke-width="2.0"/>
<line x1="143.9" y1="200.0" x2="178.6" y2="180.0" stroke="rgb(0,0,0)"  stroke-width="2.0"/>
<line x1="273.2" y1="45.4" x2="253.2" y2="80.0" stroke="rgb(0,0,0)"  stroke-width="2.0"/>
<line x1="276.4" y1="54.2" x2="262.4" y2="78.4" stroke="rgb(0,0,0)"  stroke-width="2.0"/>
<line x1="253.2" y1="80.0" x2="273.2" y2="114.6" stroke="rgb(0,0,0)"  stroke-width="2.0"/>
<line x1="273.2" y1="114.6" x2="313.2" y2="114.6" stroke="rgb(0,0,0)"  stroke-width="2.0"/>
<line x1="279.2" y1="107.4" x2="307.2" y2="107.4" stroke="rgb(0,0,0)"  stroke-width="2.0"/>
<line x1="313.2" y1="114.6" x2="333.2" y2="80.0" stroke="rgb(0,0,0)"  stroke-width="2.0"/>
<line x1="333.2" y1="80.0" x2="313.2" y2="45.4" stroke="rgb(0,0,0)"  stroke-width="2.0"/>
<line x1="324.0" y1="78.4" x2="310.0" y2="54.2" stroke="rgb(0,0,0)"  stroke-width="2.0"/>
<line x1="313.2" y1="45.4" x2="273.2" y2="45.4" stroke="rgb(0,0,0)"  stroke-width="2.0"/>
<text x="207.205081" y="88.000000" fill="rgb(178,178,0)"  stroke="rgb(178,178,0)" stroke-width="1" font-size="16" >S</text>
<text x="167.205081" y="88.000000" fill="rgb(255,12,12)"  stroke="rgb(255,12,12)" stroke-width="1" font-size="16" >O</text>
<text x="207.205081" y="48.000000" fill="rgb(255,12,12)"  stroke="rgb(255,12,12)" stroke-width="1" font-size="16" >O</text>
<text x="369.205081" y="88.000000" fill="rgb(12,12,255)"  stroke="rgb(12,12,255)" stroke-width="1" font-size="16" >NH</text>
<text x="393.205081" y="91.680000" fill="rgb(12,12,255)"  stroke="rgb(12,12,255)" stroke-width="1" font-size="13" >2</text>
<text x="14.000000" y="268.000000" fill="rgb(102,102,102)"  stroke="rgb(102,102,102)" stroke-width="1" font-size="16" >H</text>
<text x="26.000000" y="271.680000" fill="rgb(102,102,102)"  stroke="rgb(102,102,102)" stroke-width="1" font-size="13" >3</text>
<text x="32.500000" y="268.000000" fill="rgb(102,102,102)"  stroke="rgb(102,102,102)" stroke-width="1" font-size="16" >C</text>
<text x="207.205081" y="128.000000" fill="rgb(12,12,255)"  stroke="rgb(12,12,255)" stroke-width="1" font-size="16" >NH</text>
<text x="103.282032" y="148.000000" fill="rgb(12,12,255)"  stroke="rgb(12,12,255)" stroke-width="1" font-size="16" >N</text>
<text x="137.923048" y="128.000000" fill="rgb(12,12,255)"  stroke="rgb(12,12,255)" stroke-width="1" font-size="16" >N</text>
<text x="68.641016" y="208.000000" fill="rgb(255,12,12)"  stroke="rgb(255,12,12)" stroke-width="1" font-size="16" >O</text>
</svg>
</g>
<text font-size="18.000000" fill ="black" font-family="sans-serif"
x="10.000000" y="20.000000" ></text>
</svg>
