<?xml version="1.0"?>
<svg version="1.1" id="topsvg"
xmlns="http://www.w3.org/2000/svg" xmlns:xlink="http://www.w3.org/1999/xlink"
xmlns:cml="http://www.xml-cml.org/schema" x="0" y="0" width="200px" height="200px" viewBox="0 0 100 100">
<title> - Open Babel Depiction</title>
<rect x="0" y="0" width="100" height="100" fill="white"/>
<g transform="translate(0,0)">
<svg width="100" height="100" x="0" y="0" viewBox="0 0 357.128 220"
font-family="sans-serif" stroke="rgb(0,0,0)" stroke-width="2"  stroke-linecap="round">
<line x1="282.5" y1="167.0" x2="282.5" y2="153.0" stroke="rgb(0,0,0)"  stroke-width="2.0"/>
<line x1="293.7" y1="133.5" x2="305.9" y2="126.5" stroke="rgb(0,0,0)"  stroke-width="2.0"/>
<line x1="271.2" y1="133.5" x2="247.8" y2="120.0" stroke="rgb(0,0,0)"  stroke-width="2.0"/>
<line x1="249.3" y1="122.6" x2="223.0" y2="130.9" stroke="rgb(0,0,0)"  stroke-width="2.0"/>
<line x1="246.3" y1="117.4" x2="226.0" y2="136.1" stroke="rgb(0,0,0)"  stroke-width="2.0"/>
<line x1="201.9" y1="133.5" x2="178.6" y2="120.0" stroke="rgb(0,0,0)"  stroke-width="2.0"/>
<line x1="175.6" y1="120.0" x2="181.6" y2="93.0" stroke="rgb(0,0,0)"  stroke-width="2.0"/>
<line x1="181.6" y1="120.0" x2="175.6" y2="93.0" stroke="rgb(0,0,0)"  stroke-width="2.0"/>
<line x1="167.3" y1="73.5" x2="143.9" y2="60.0" stroke="rgb(0,0,0)"  stroke-width="2.0"/>
<line x1="143.9" y1="60.0" x2="120.5" y2="46.5" stroke="rgb(0,0,0)"  stroke-width="2.0"/>
<line x1="141.8" y1="63.6" x2="118.4" y2="50.1" stroke="rgb(0,0,0)"  stroke-width="2.0"/>
<line x1="146.0" y1="56.4" x2="122.6" y2="42.9" stroke="rgb(0,0,0)"  stroke-width="2.0"/>
<line x1="178.6" y1="120.0" x2="155.2" y2="133.5" stroke="rgb(0,0,0)"  stroke-width="2.0"/>
<line x1="131.2" y1="136.1" x2="110.8" y2="117.4" stroke="rgb(0,0,0)"  stroke-width="2.0"/>
<line x1="134.2" y1="130.9" x2="107.8" y2="122.6" stroke="rgb(0,0,0)"  stroke-width="2.0"/>
<line x1="109.3" y1="120.0" x2="85.9" y2="133.5" stroke="rgb(0,0,0)"  stroke-width="2.0"/>
<line x1="63.4" y1="133.5" x2="51.3" y2="126.5" stroke="rgb(0,0,0)"  stroke-width="2.0"/>
<line x1="74.6" y1="153.0" x2="74.6" y2="167.0" stroke="rgb(0,0,0)"  stroke-width="2.0"/>
<text x="278.487113" y="188.000000" fill="rgb(102,102,102)"  stroke="rgb(102,102,102)" stroke-width="1" font-size="16" >CH</text>
<text x="302.487113" y="191.680000" fill="rgb(102,102,102)"  stroke="rgb(102,102,102)" stroke-width="1" font-size="13" >3</text>
<text x="276.487113" y="148.000000" fill="rgb(12,12,255)"  stroke="rgb(12,12,255)" stroke-width="1" font-size="16" >N</text>
<text x="313.128129" y="128.000000" fill="rgb(102,102,102)"  stroke="rgb(102,102,102)" stroke-width="1" font-size="16" >CH</text>
<text x="337.128129" y="131.680000" fill="rgb(102,102,102)"  stroke="rgb(102,102,102)" stroke-width="1" font-size="13" >3</text>
<text x="207.205081" y="148.000000" fill="rgb(12,12,255)"  stroke="rgb(12,12,255)" stroke-width="1" font-size="16" >N</text>
<text x="172.564065" y="88.000000" fill="rgb(12,12,255)"  stroke="rgb(12,12,255)" stroke-width="1" font-size="16" >N</text>
<text x="103.282032" y="48.000000" fill="rgb(12,12,255)"  stroke="rgb(12,12,255)" stroke-width="1" font-size="16" >N</text>
<text x="137.923048" y="148.000000" fill="rgb(12,12,255)"  stroke="rgb(12,12,255)" stroke-width="1" font-size="16" >N</text>
<text x="68.641016" y="148.000000" fill="rgb(12,12,255)"  stroke="rgb(12,12,255)" stroke-width="1" font-size="16" >N</text>
<text x="14.000000" y="128.000000" fill="rgb(102,102,102)"  stroke="rgb(102,102,102)" stroke-width="1" font-size="16" >H</text>
<text x="26.000000" y="131.680000" fill="rgb(102,102,102)"  stroke="rgb(102,102,102)" stroke-width="1" font-size="13" >3</text>
<text x="32.500000" y="128.000000" fill="rgb(102,102,102)"  stroke="rgb(102,102,102)" stroke-width="1" font-size="16" >C</text>
<text x="70.641016" y="188.000000" fill="rgb(102,102,102)"  stroke="rgb(102,102,102)" stroke-width="1" font-size="16" >CH</text>
<text x="94.641016" y="191.680000" fill="rgb(102,102,102)"  stroke="rgb(102,102,102)" stroke-width="1" font-size="13" >3</text>
</svg>
</g>
<text font-size="18.000000" fill ="black" font-family="sans-serif"
x="10.000000" y="20.000000" ></text>
</svg>
