<?xml version="1.0"?>
<svg version="1.1" id="topsvg"
xmlns="http://www.w3.org/2000/svg" xmlns:xlink="http://www.w3.org/1999/xlink"
xmlns:cml="http://www.xml-cml.org/schema" x="0" y="0" width="200px" height="200px" viewBox="0 0 100 100">
<title> - Open Babel Depiction</title>
<rect x="0" y="0" width="100" height="100" fill="white"/>
<g transform="translate(0,0)">
<svg width="100" height="100" x="0" y="0" viewBox="0 0 420.875 325.164"
font-family="sans-serif" stroke="rgb(0,0,0)" stroke-width="2"  stroke-linecap="round">
<line x1="40.5" y1="136.6" x2="40.0" y2="185.7" stroke="rgb(0,0,0)"  stroke-width="2.0"/>
<line x1="47.6" y1="142.7" x2="47.3" y2="179.7" stroke="rgb(0,0,0)"  stroke-width="2.0"/>
<line x1="40.0" y1="185.7" x2="82.5" y2="211.0" stroke="rgb(0,0,0)"  stroke-width="2.0"/>
<line x1="82.5" y1="211.0" x2="125.3" y2="186.9" stroke="rgb(0,0,0)"  stroke-width="2.0"/>
<line x1="125.3" y1="186.9" x2="126.0" y2="137.1" stroke="rgb(0,0,0)"  stroke-width="2.0"/>
<line x1="126.0" y1="137.1" x2="83.2" y2="112.5" stroke="rgb(0,0,0)"  stroke-width="2.0"/>
<line x1="117.2" y1="140.3" x2="84.8" y2="121.7" stroke="rgb(0,0,0)"  stroke-width="2.0"/>
<line x1="83.2" y1="112.5" x2="40.5" y2="136.6" stroke="rgb(0,0,0)"  stroke-width="2.0"/>
<line x1="124.5" y1="285.2" x2="167.2" y2="261.0" stroke="rgb(0,0,0)"  stroke-width="2.0"/>
<line x1="126.1" y1="275.9" x2="158.4" y2="257.7" stroke="rgb(0,0,0)"  stroke-width="2.0"/>
<line x1="167.2" y1="261.0" x2="168.2" y2="211.7" stroke="rgb(0,0,0)"  stroke-width="2.0"/>
<line x1="168.2" y1="211.7" x2="125.3" y2="186.9" stroke="rgb(0,0,0)"  stroke-width="2.0"/>
<line x1="159.4" y1="214.9" x2="126.9" y2="196.1" stroke="rgb(0,0,0)"  stroke-width="2.0"/>
<line x1="82.5" y1="211.0" x2="82.2" y2="260.3" stroke="rgb(0,0,0)"  stroke-width="2.0"/>
<line x1="89.7" y1="217.1" x2="89.5" y2="254.4" stroke="rgb(0,0,0)"  stroke-width="2.0"/>
<line x1="82.2" y1="260.3" x2="124.5" y2="285.2" stroke="rgb(0,0,0)"  stroke-width="2.0"/>
<line x1="254.3" y1="65.0" x2="212.2" y2="40.0" stroke="rgb(0,0,0)"  stroke-width="2.0"/>
<line x1="245.4" y1="68.1" x2="213.7" y2="49.3" stroke="rgb(0,0,0)"  stroke-width="2.0"/>
<line x1="212.2" y1="40.0" x2="169.6" y2="63.9" stroke="rgb(0,0,0)"  stroke-width="2.0"/>
<line x1="169.6" y1="63.9" x2="168.9" y2="112.8" stroke="rgb(0,0,0)"  stroke-width="2.0"/>
<line x1="176.7" y1="70.0" x2="176.2" y2="106.9" stroke="rgb(0,0,0)"  stroke-width="2.0"/>
<line x1="168.9" y1="112.8" x2="210.9" y2="137.8" stroke="rgb(0,0,0)"  stroke-width="2.0"/>
<line x1="210.9" y1="137.8" x2="253.6" y2="113.9" stroke="rgb(0,0,0)"  stroke-width="2.0"/>
<line x1="212.7" y1="128.5" x2="244.8" y2="110.5" stroke="rgb(0,0,0)"  stroke-width="2.0"/>
<line x1="253.6" y1="113.9" x2="254.3" y2="65.0" stroke="rgb(0,0,0)"  stroke-width="2.0"/>
<line x1="168.9" y1="112.8" x2="126.0" y2="137.1" stroke="rgb(0,0,0)"  stroke-width="2.0"/>
<line x1="168.2" y1="211.7" x2="211.1" y2="187.4" stroke="rgb(0,0,0)"  stroke-width="2.0"/>
<line x1="211.1" y1="187.4" x2="210.9" y2="137.8" stroke="rgb(0,0,0)"  stroke-width="2.0"/>
<line x1="378.8" y1="143.5" x2="380.9" y2="171.2" stroke="rgb(0,0,0)"  stroke-width="2.0"/>
<line x1="372.1" y1="150.0" x2="373.2" y2="165.7" stroke="rgb(0,0,0)"  stroke-width="2.0"/>
<line x1="380.9" y1="171.2" x2="357.9" y2="186.8" stroke="rgb(0,0,0)"  stroke-width="2.0"/>
<line x1="357.9" y1="186.8" x2="332.9" y2="174.8" stroke="rgb(0,0,0)"  stroke-width="2.0"/>
<line x1="355.6" y1="177.7" x2="341.4" y2="170.9" stroke="rgb(0,0,0)"  stroke-width="2.0"/>
<line x1="332.9" y1="174.8" x2="330.8" y2="147.0" stroke="rgb(0,0,0)"  stroke-width="2.0"/>
<line x1="330.8" y1="147.0" x2="353.8" y2="131.4" stroke="rgb(0,0,0)"  stroke-width="2.0"/>
<line x1="353.8" y1="131.4" x2="378.8" y2="143.5" stroke="rgb(0,0,0)"  stroke-width="2.0"/>
<line x1="332.9" y1="174.8" x2="312.5" y2="193.7" stroke="rgb(0,0,0)"  stroke-width="2.0"/>
<line x1="312.5" y1="193.7" x2="278.5" y2="177.3" stroke="rgb(0,0,0)"  stroke-width="2.0"/>
<line x1="278.5" y1="177.3" x2="281.3" y2="139.6" stroke="rgb(0,0,0)"  stroke-width="2.0"/>
<line x1="286.1" y1="171.8" x2="288.0" y2="146.1" stroke="rgb(0,0,0)"  stroke-width="2.0"/>
<line x1="281.3" y1="139.6" x2="307.8" y2="131.4" stroke="rgb(0,0,0)"  stroke-width="2.0"/>
<line x1="307.8" y1="131.4" x2="330.8" y2="147.0" stroke="rgb(0,0,0)"  stroke-width="2.0"/>
<line x1="308.7" y1="140.7" x2="321.8" y2="149.6" stroke="rgb(0,0,0)"  stroke-width="2.0"/>
<line x1="211.1" y1="187.4" x2="247.3" y2="198.5" stroke="rgb(0,0,0)"  stroke-width="2.0"/>
<line x1="219.0" y1="182.3" x2="243.6" y2="189.9" stroke="rgb(0,0,0)"  stroke-width="2.0"/>
<line x1="247.3" y1="198.5" x2="278.5" y2="177.3" stroke="rgb(0,0,0)"  stroke-width="2.0"/>
<line x1="281.3" y1="139.6" x2="253.6" y2="113.9" stroke="rgb(0,0,0)"  stroke-width="2.0"/>
<line x1="250.1" y1="236.2" x2="284.1" y2="252.6" stroke="rgb(0,0,0)"  stroke-width="2.0"/>
<line x1="258.6" y1="232.3" x2="281.8" y2="243.5" stroke="rgb(0,0,0)"  stroke-width="2.0"/>
<line x1="284.1" y1="252.6" x2="315.3" y2="231.3" stroke="rgb(0,0,0)"  stroke-width="2.0"/>
<line x1="315.3" y1="231.3" x2="312.5" y2="193.7" stroke="rgb(0,0,0)"  stroke-width="2.0"/>
<line x1="307.7" y1="225.9" x2="305.8" y2="200.2" stroke="rgb(0,0,0)"  stroke-width="2.0"/>
<line x1="247.3" y1="198.5" x2="250.1" y2="236.2" stroke="rgb(0,0,0)"  stroke-width="2.0"/>
<line x1="307.8" y1="104.9" x2="307.8" y2="131.4" stroke="rgb(0,0,0)"  stroke-width="2.0"/>
<line x1="353.8" y1="131.4" x2="353.8" y2="104.9" stroke="rgb(0,0,0)"  stroke-width="2.0"/>
<line x1="346.6" y1="125.4" x2="346.6" y2="110.9" stroke="rgb(0,0,0)"  stroke-width="2.0"/>
<line x1="353.8" y1="104.9" x2="330.8" y2="91.6" stroke="rgb(0,0,0)"  stroke-width="2.0"/>
<line x1="330.8" y1="91.6" x2="307.8" y2="104.9" stroke="rgb(0,0,0)"  stroke-width="2.0"/>
<line x1="329.2" y1="100.9" x2="316.6" y2="108.1" stroke="rgb(0,0,0)"  stroke-width="2.0"/>
</svg>
</g>
<text font-size="18.000000" fill ="black" font-family="sans-serif"
x="10.000000" y="20.000000" ></text>
</svg>
