<?xml version="1.0"?>
<svg version="1.1" id="topsvg"
xmlns="http://www.w3.org/2000/svg" xmlns:xlink="http://www.w3.org/1999/xlink"
xmlns:cml="http://www.xml-cml.org/schema" x="0" y="0" width="200px" height="200px" viewBox="0 0 100 100">
<title> - Open Babel Depiction</title>
<rect x="0" y="0" width="100" height="100" fill="white"/>
<g transform="translate(0,0)">
<svg width="100" height="100" x="0" y="0" viewBox="0 0 400.118 229.282"
font-family="sans-serif" stroke="rgb(0,0,0)" stroke-width="2"  stroke-linecap="round">
<line x1="353.6" y1="51.3" x2="340.1" y2="74.6" stroke="rgb(0,0,0)"  stroke-width="2.0"/>
<line x1="280.1" y1="109.3" x2="240.1" y2="109.3" stroke="rgb(0,0,0)"  stroke-width="2.0"/>
<line x1="109.3" y1="129.3" x2="74.6" y2="149.3" stroke="rgb(0,0,0)"  stroke-width="2.0"/>
<line x1="74.6" y1="149.3" x2="51.3" y2="135.8" stroke="rgb(0,0,0)"  stroke-width="2.0"/>
<line x1="77.6" y1="149.3" x2="77.6" y2="176.3" stroke="rgb(0,0,0)"  stroke-width="2.0"/>
<line x1="71.6" y1="149.3" x2="71.6" y2="176.3" stroke="rgb(0,0,0)"  stroke-width="2.0"/>
<line x1="178.6" y1="129.3" x2="178.6" y2="89.3" stroke="rgb(0,0,0)"  stroke-width="2.0"/>
<line x1="185.8" y1="123.3" x2="185.8" y2="95.3" stroke="rgb(0,0,0)"  stroke-width="2.0"/>
<line x1="178.6" y1="89.3" x2="204.2" y2="80.9" stroke="rgb(0,0,0)"  stroke-width="2.0"/>
<line x1="224.2" y1="87.4" x2="240.1" y2="109.3" stroke="rgb(0,0,0)"  stroke-width="2.0"/>
<line x1="240.1" y1="109.3" x2="216.6" y2="141.6" stroke="rgb(0,0,0)"  stroke-width="2.0"/>
<line x1="230.8" y1="109.9" x2="214.3" y2="132.6" stroke="rgb(0,0,0)"  stroke-width="2.0"/>
<line x1="216.6" y1="141.6" x2="178.6" y2="129.3" stroke="rgb(0,0,0)"  stroke-width="2.0"/>
<line x1="340.1" y1="143.9" x2="300.1" y2="143.9" stroke="rgb(0,0,0)"  stroke-width="2.0"/>
<line x1="334.1" y1="136.7" x2="306.1" y2="136.7" stroke="rgb(0,0,0)"  stroke-width="2.0"/>
<line x1="300.1" y1="143.9" x2="280.1" y2="109.3" stroke="rgb(0,0,0)"  stroke-width="2.0"/>
<line x1="280.1" y1="109.3" x2="300.1" y2="74.6" stroke="rgb(0,0,0)"  stroke-width="2.0"/>
<line x1="289.4" y1="107.7" x2="303.4" y2="83.4" stroke="rgb(0,0,0)"  stroke-width="2.0"/>
<line x1="300.1" y1="74.6" x2="340.1" y2="74.6" stroke="rgb(0,0,0)"  stroke-width="2.0"/>
<line x1="340.1" y1="74.6" x2="360.1" y2="109.3" stroke="rgb(0,0,0)"  stroke-width="2.0"/>
<line x1="336.9" y1="83.4" x2="350.9" y2="107.7" stroke="rgb(0,0,0)"  stroke-width="2.0"/>
<line x1="360.1" y1="109.3" x2="340.1" y2="143.9" stroke="rgb(0,0,0)"  stroke-width="2.0"/>
<line x1="109.3" y1="129.3" x2="109.3" y2="89.3" stroke="rgb(0,0,0)"  stroke-width="2.0"/>
<line x1="109.3" y1="89.3" x2="143.9" y2="69.3" stroke="rgb(0,0,0)"  stroke-width="2.0"/>
<line x1="118.1" y1="92.5" x2="142.3" y2="78.5" stroke="rgb(0,0,0)"  stroke-width="2.0"/>
<line x1="143.9" y1="69.3" x2="178.6" y2="89.3" stroke="rgb(0,0,0)"  stroke-width="2.0"/>
<line x1="178.6" y1="129.3" x2="143.9" y2="149.3" stroke="rgb(0,0,0)"  stroke-width="2.0"/>
<line x1="143.9" y1="149.3" x2="109.3" y2="129.3" stroke="rgb(0,0,0)"  stroke-width="2.0"/>
<line x1="142.3" y1="140.0" x2="118.1" y2="126.0" stroke="rgb(0,0,0)"  stroke-width="2.0"/>
<text x="68.641016" y="197.282032" fill="rgb(12,12,255)"  stroke="rgb(12,12,255)" stroke-width="1" font-size="16" >NH</text>
<text x="14.000000" y="137.282032" fill="rgb(12,12,255)"  stroke="rgb(12,12,255)" stroke-width="1" font-size="16" >H</text>
<text x="26.000000" y="140.962032" fill="rgb(12,12,255)"  stroke="rgb(12,12,255)" stroke-width="1" font-size="13" >2</text>
<text x="32.500000" y="137.282032" fill="rgb(12,12,255)"  stroke="rgb(12,12,255)" stroke-width="1" font-size="16" >N</text>
<text x="210.606325" y="84.921353" fill="rgb(12,12,255)"  stroke="rgb(12,12,255)" stroke-width="1" font-size="16" >N</text>
<text x="210.606325" y="68.921353" fill="rgb(12,12,255)"  stroke="rgb(12,12,255)" stroke-width="1" font-size="16" >H</text>
<text x="356.117735" y="48.000000" fill="rgb(102,102,102)"  stroke="rgb(102,102,102)" stroke-width="1" font-size="16" >CH</text>
<text x="380.117735" y="51.680000" fill="rgb(102,102,102)"  stroke="rgb(102,102,102)" stroke-width="1" font-size="13" >3</text>
</svg>
</g>
<text font-size="18.000000" fill ="black" font-family="sans-serif"
x="10.000000" y="20.000000" ></text>
</svg>
