<?xml version="1.0"?>
<svg version="1.1" id="topsvg"
xmlns="http://www.w3.org/2000/svg" xmlns:xlink="http://www.w3.org/1999/xlink"
xmlns:cml="http://www.xml-cml.org/schema" x="0" y="0" width="200px" height="200px" viewBox="0 0 100 100">
<title> - Open Babel Depiction</title>
<rect x="0" y="0" width="100" height="100" fill="white"/>
<g transform="translate(0,0)">
<svg width="100" height="100" x="0" y="0" viewBox="0 0 406.253 296.7"
font-family="sans-serif" stroke="rgb(0,0,0)" stroke-width="2"  stroke-linecap="round">
<line x1="362.4" y1="52.8" x2="349.5" y2="75.0" stroke="rgb(0,0,0)"  stroke-width="2.0"/>
<line x1="357.2" y1="49.8" x2="344.3" y2="72.0" stroke="rgb(0,0,0)"  stroke-width="2.0"/>
<line x1="308.2" y1="140.6" x2="241.1" y2="179.3" stroke="rgb(0,0,0)"  stroke-width="2.0"/>
<line x1="162.8" y1="224.5" x2="140.6" y2="237.3" stroke="rgb(0,0,0)"  stroke-width="2.0"/>
<line x1="140.6" y1="237.3" x2="107.0" y2="218.0" stroke="rgb(0,0,0)"  stroke-width="2.0"/>
<line x1="308.2" y1="140.6" x2="308.2" y2="179.3" stroke="rgb(0,0,0)"  stroke-width="2.0"/>
<line x1="288.8" y1="110.0" x2="263.1" y2="110.0" stroke="rgb(0,0,0)"  stroke-width="2.0"/>
<line x1="288.8" y1="104.0" x2="263.1" y2="104.0" stroke="rgb(0,0,0)"  stroke-width="2.0"/>
<line x1="40.0" y1="218.0" x2="40.0" y2="179.3" stroke="rgb(0,0,0)"  stroke-width="2.0"/>
<line x1="47.2" y1="212.0" x2="47.2" y2="185.3" stroke="rgb(0,0,0)"  stroke-width="2.0"/>
<line x1="40.0" y1="179.3" x2="73.5" y2="159.9" stroke="rgb(0,0,0)"  stroke-width="2.0"/>
<line x1="73.5" y1="159.9" x2="107.0" y2="179.3" stroke="rgb(0,0,0)"  stroke-width="2.0"/>
<line x1="75.1" y1="169.2" x2="98.3" y2="182.5" stroke="rgb(0,0,0)"  stroke-width="2.0"/>
<line x1="107.0" y1="179.3" x2="107.0" y2="218.0" stroke="rgb(0,0,0)"  stroke-width="2.0"/>
<line x1="107.0" y1="218.0" x2="73.5" y2="237.3" stroke="rgb(0,0,0)"  stroke-width="2.0"/>
<line x1="98.3" y1="214.8" x2="75.1" y2="228.1" stroke="rgb(0,0,0)"  stroke-width="2.0"/>
<line x1="73.5" y1="237.3" x2="40.0" y2="218.0" stroke="rgb(0,0,0)"  stroke-width="2.0"/>
<line x1="341.7" y1="237.3" x2="308.2" y2="256.7" stroke="rgb(0,0,0)"  stroke-width="2.0"/>
<line x1="332.9" y1="234.1" x2="309.8" y2="247.5" stroke="rgb(0,0,0)"  stroke-width="2.0"/>
<line x1="308.2" y1="256.7" x2="274.7" y2="237.3" stroke="rgb(0,0,0)"  stroke-width="2.0"/>
<line x1="274.7" y1="237.3" x2="274.7" y2="198.6" stroke="rgb(0,0,0)"  stroke-width="2.0"/>
<line x1="281.9" y1="231.3" x2="281.9" y2="204.6" stroke="rgb(0,0,0)"  stroke-width="2.0"/>
<line x1="274.7" y1="198.6" x2="308.2" y2="179.3" stroke="rgb(0,0,0)"  stroke-width="2.0"/>
<line x1="308.2" y1="179.3" x2="341.7" y2="198.6" stroke="rgb(0,0,0)"  stroke-width="2.0"/>
<line x1="309.8" y1="188.5" x2="332.9" y2="201.9" stroke="rgb(0,0,0)"  stroke-width="2.0"/>
<line x1="341.7" y1="198.6" x2="341.7" y2="237.3" stroke="rgb(0,0,0)"  stroke-width="2.0"/>
<line x1="241.1" y1="218.0" x2="241.1" y2="179.3" stroke="rgb(0,0,0)"  stroke-width="2.0"/>
<line x1="241.1" y1="179.3" x2="207.6" y2="159.9" stroke="rgb(0,0,0)"  stroke-width="2.0"/>
<line x1="207.6" y1="159.9" x2="174.1" y2="179.3" stroke="rgb(0,0,0)"  stroke-width="2.0"/>
<line x1="174.1" y1="179.3" x2="174.1" y2="205.0" stroke="rgb(0,0,0)"  stroke-width="2.0"/>
<line x1="185.4" y1="224.5" x2="207.6" y2="237.3" stroke="rgb(0,0,0)"  stroke-width="2.0"/>
<line x1="207.6" y1="237.3" x2="241.1" y2="218.0" stroke="rgb(0,0,0)"  stroke-width="2.0"/>
<line x1="366.3" y1="107.0" x2="346.9" y2="73.5" stroke="rgb(0,0,0)"  stroke-width="2.0"/>
<line x1="346.9" y1="73.5" x2="321.2" y2="73.5" stroke="rgb(0,0,0)"  stroke-width="2.0"/>
<line x1="301.7" y1="84.8" x2="288.8" y2="107.0" stroke="rgb(0,0,0)"  stroke-width="2.0"/>
<line x1="288.8" y1="107.0" x2="308.2" y2="140.6" stroke="rgb(0,0,0)"  stroke-width="2.0"/>
<line x1="308.2" y1="140.6" x2="346.9" y2="140.6" stroke="rgb(0,0,0)"  stroke-width="2.0"/>
<line x1="346.9" y1="140.6" x2="366.3" y2="107.0" stroke="rgb(0,0,0)"  stroke-width="2.0"/>
<text x="244.123996" y="115.047128" fill="rgb(255,12,12)"  stroke="rgb(255,12,12)" stroke-width="1" font-size="16" >O</text>
<text x="302.188512" y="81.523564" fill="rgb(12,12,255)"  stroke="rgb(12,12,255)" stroke-width="1" font-size="16" >N</text>
<text x="302.188512" y="65.523564" fill="rgb(12,12,255)"  stroke="rgb(12,12,255)" stroke-width="1" font-size="16" >H</text>
<text x="360.253028" y="48.000000" fill="rgb(255,12,12)"  stroke="rgb(255,12,12)" stroke-width="1" font-size="16" >O</text>
<text x="168.094256" y="225.990047" fill="rgb(12,12,255)"  stroke="rgb(12,12,255)" stroke-width="1" font-size="16" >N</text>
</svg>
</g>
<text font-size="18.000000" fill ="black" font-family="sans-serif"
x="10.000000" y="20.000000" ></text>
</svg>
