<?xml version="1.0"?>
<svg version="1.1" id="topsvg"
xmlns="http://www.w3.org/2000/svg" xmlns:xlink="http://www.w3.org/1999/xlink"
xmlns:cml="http://www.xml-cml.org/schema" x="0" y="0" width="200px" height="200px" viewBox="0 0 100 100">
<title> - Open Babel Depiction</title>
<rect x="0" y="0" width="100" height="100" fill="white"/>
<g transform="translate(0,0)">
<svg width="100" height="100" x="0" y="0" viewBox="0 0 377.729 228.097"
font-family="sans-serif" stroke="rgb(0,0,0)" stroke-width="2"  stroke-linecap="round">
<line x1="53.0" y1="148.1" x2="80.0" y2="148.1" stroke="rgb(0,0,0)"  stroke-width="2.0"/>
<line x1="160.0" y1="148.1" x2="187.0" y2="148.1" stroke="rgb(0,0,0)"  stroke-width="2.0"/>
<line x1="203.0" y1="161.1" x2="203.0" y2="175.1" stroke="rgb(0,0,0)"  stroke-width="2.0"/>
<line x1="197.0" y1="161.1" x2="197.0" y2="175.1" stroke="rgb(0,0,0)"  stroke-width="2.0"/>
<line x1="213.0" y1="145.1" x2="227.0" y2="145.1" stroke="rgb(0,0,0)"  stroke-width="2.0"/>
<line x1="213.0" y1="151.1" x2="227.0" y2="151.1" stroke="rgb(0,0,0)"  stroke-width="2.0"/>
<line x1="200.0" y1="135.1" x2="200.0" y2="121.1" stroke="rgb(0,0,0)"  stroke-width="2.0"/>
<line x1="211.3" y1="101.6" x2="234.6" y2="88.1" stroke="rgb(0,0,0)"  stroke-width="2.0"/>
<line x1="297.9" y1="74.6" x2="324.8" y2="77.5" stroke="rgb(0,0,0)"  stroke-width="2.0"/>
<line x1="237.4" y1="61.4" x2="234.6" y2="88.1" stroke="rgb(0,0,0)"  stroke-width="2.0"/>
<line x1="244.4" y1="64.2" x2="242.4" y2="82.9" stroke="rgb(0,0,0)"  stroke-width="2.0"/>
<line x1="234.6" y1="88.1" x2="271.2" y2="104.4" stroke="rgb(0,0,0)"  stroke-width="2.0"/>
<line x1="271.2" y1="104.4" x2="297.9" y2="74.6" stroke="rgb(0,0,0)"  stroke-width="2.0"/>
<line x1="269.8" y1="95.1" x2="288.6" y2="74.3" stroke="rgb(0,0,0)"  stroke-width="2.0"/>
<line x1="297.9" y1="74.6" x2="284.4" y2="51.3" stroke="rgb(0,0,0)"  stroke-width="2.0"/>
<line x1="265.2" y1="42.7" x2="251.5" y2="45.6" stroke="rgb(0,0,0)"  stroke-width="2.0"/>
<line x1="140.0" y1="113.5" x2="160.0" y2="148.1" stroke="rgb(0,0,0)"  stroke-width="2.0"/>
<line x1="136.8" y1="122.3" x2="150.8" y2="146.5" stroke="rgb(0,0,0)"  stroke-width="2.0"/>
<line x1="160.0" y1="148.1" x2="140.0" y2="182.7" stroke="rgb(0,0,0)"  stroke-width="2.0"/>
<line x1="140.0" y1="182.7" x2="100.0" y2="182.7" stroke="rgb(0,0,0)"  stroke-width="2.0"/>
<line x1="134.0" y1="175.5" x2="106.0" y2="175.5" stroke="rgb(0,0,0)"  stroke-width="2.0"/>
<line x1="100.0" y1="182.7" x2="80.0" y2="148.1" stroke="rgb(0,0,0)"  stroke-width="2.0"/>
<line x1="80.0" y1="148.1" x2="100.0" y2="113.5" stroke="rgb(0,0,0)"  stroke-width="2.0"/>
<line x1="89.2" y1="146.5" x2="103.2" y2="122.3" stroke="rgb(0,0,0)"  stroke-width="2.0"/>
<line x1="100.0" y1="113.5" x2="140.0" y2="113.5" stroke="rgb(0,0,0)"  stroke-width="2.0"/>
<text x="194.000000" y="196.097343" fill="rgb(255,12,12)"  stroke="rgb(255,12,12)" stroke-width="1" font-size="16" >O</text>
<text x="333.728935" y="86.822155" fill="rgb(102,102,102)"  stroke="rgb(102,102,102)" stroke-width="1" font-size="16" >CH</text>
<text x="357.728935" y="90.502155" fill="rgb(102,102,102)"  stroke="rgb(102,102,102)" stroke-width="1" font-size="13" >3</text>
<text x="271.948059" y="48.000000" fill="rgb(255,12,12)"  stroke="rgb(255,12,12)" stroke-width="1" font-size="16" >O</text>
<text x="232.822155" y="56.316468" fill="rgb(12,12,255)"  stroke="rgb(12,12,255)" stroke-width="1" font-size="16" >N</text>
<text x="182.000000" y="116.097343" fill="rgb(12,12,255)"  stroke="rgb(12,12,255)" stroke-width="1" font-size="16" >HN</text>
<text x="234.000000" y="156.097343" fill="rgb(255,12,12)"  stroke="rgb(255,12,12)" stroke-width="1" font-size="16" >O</text>
<text x="14.000000" y="156.097343" fill="rgb(12,12,255)"  stroke="rgb(12,12,255)" stroke-width="1" font-size="16" >H</text>
<text x="26.000000" y="159.777343" fill="rgb(12,12,255)"  stroke="rgb(12,12,255)" stroke-width="1" font-size="13" >2</text>
<text x="32.500000" y="156.097343" fill="rgb(12,12,255)"  stroke="rgb(12,12,255)" stroke-width="1" font-size="16" >N</text>
<text x="194.000000" y="156.097343" fill="rgb(178,178,0)"  stroke="rgb(178,178,0)" stroke-width="1" font-size="16" >S</text>
</svg>
</g>
<text font-size="18.000000" fill ="black" font-family="sans-serif"
x="10.000000" y="20.000000" ></text>
</svg>
