<?xml version="1.0"?>
<svg version="1.1" id="topsvg"
xmlns="http://www.w3.org/2000/svg" xmlns:xlink="http://www.w3.org/1999/xlink"
xmlns:cml="http://www.xml-cml.org/schema" x="0" y="0" width="200px" height="200px" viewBox="0 0 100 100">
<title> - Open Babel Depiction</title>
<rect x="0" y="0" width="100" height="100" fill="white"/>
<g transform="translate(0,0)">
<svg width="100" height="100" x="0" y="0" viewBox="0 0 373.841 312.846"
font-family="sans-serif" stroke="rgb(0,0,0)" stroke-width="2"  stroke-linecap="round">
<line x1="321.1" y1="42.7" x2="307.4" y2="45.6" stroke="rgb(0,0,0)"  stroke-width="2.0"/>
<line x1="290.7" y1="60.7" x2="282.4" y2="86.4" stroke="rgb(0,0,0)"  stroke-width="2.0"/>
<line x1="257.6" y1="162.4" x2="249.3" y2="188.1" stroke="rgb(0,0,0)"  stroke-width="2.0"/>
<line x1="137.9" y1="212.8" x2="103.3" y2="192.8" stroke="rgb(0,0,0)"  stroke-width="2.0"/>
<line x1="57.3" y1="146.0" x2="46.3" y2="121.3" stroke="rgb(0,0,0)"  stroke-width="2.0"/>
<line x1="62.7" y1="143.5" x2="51.8" y2="118.9" stroke="rgb(0,0,0)"  stroke-width="2.0"/>
<line x1="232.9" y1="261.2" x2="207.2" y2="252.8" stroke="rgb(0,0,0)"  stroke-width="2.0"/>
<line x1="207.2" y1="252.8" x2="207.2" y2="212.8" stroke="rgb(0,0,0)"  stroke-width="2.0"/>
<line x1="214.4" y1="246.8" x2="214.4" y2="218.8" stroke="rgb(0,0,0)"  stroke-width="2.0"/>
<line x1="207.2" y1="212.8" x2="232.9" y2="204.5" stroke="rgb(0,0,0)"  stroke-width="2.0"/>
<line x1="252.9" y1="211.0" x2="268.8" y2="232.8" stroke="rgb(0,0,0)"  stroke-width="2.0"/>
<line x1="268.8" y1="232.8" x2="253.0" y2="254.5" stroke="rgb(0,0,0)"  stroke-width="2.0"/>
<line x1="259.4" y1="233.5" x2="248.4" y2="248.7" stroke="rgb(0,0,0)"  stroke-width="2.0"/>
<line x1="46.5" y1="168.1" x2="60.0" y2="144.7" stroke="rgb(0,0,0)"  stroke-width="2.0"/>
<line x1="60.0" y1="144.7" x2="86.4" y2="150.4" stroke="rgb(0,0,0)"  stroke-width="2.0"/>
<line x1="100.5" y1="166.0" x2="103.3" y2="192.8" stroke="rgb(0,0,0)"  stroke-width="2.0"/>
<line x1="103.3" y1="192.8" x2="78.8" y2="203.7" stroke="rgb(0,0,0)"  stroke-width="2.0"/>
<line x1="94.9" y1="188.7" x2="77.7" y2="196.4" stroke="rgb(0,0,0)"  stroke-width="2.0"/>
<line x1="58.1" y1="199.5" x2="48.7" y2="189.1" stroke="rgb(0,0,0)"  stroke-width="2.0"/>
<line x1="296.8" y1="154.1" x2="257.6" y2="162.4" stroke="rgb(0,0,0)"  stroke-width="2.0"/>
<line x1="289.4" y1="148.3" x2="262.0" y2="154.2" stroke="rgb(0,0,0)"  stroke-width="2.0"/>
<line x1="257.6" y1="162.4" x2="230.9" y2="132.7" stroke="rgb(0,0,0)"  stroke-width="2.0"/>
<line x1="230.9" y1="132.7" x2="243.2" y2="94.7" stroke="rgb(0,0,0)"  stroke-width="2.0"/>
<line x1="239.6" y1="129.2" x2="248.2" y2="102.6" stroke="rgb(0,0,0)"  stroke-width="2.0"/>
<line x1="243.2" y1="94.7" x2="282.4" y2="86.4" stroke="rgb(0,0,0)"  stroke-width="2.0"/>
<line x1="282.4" y1="86.4" x2="309.1" y2="116.1" stroke="rgb(0,0,0)"  stroke-width="2.0"/>
<line x1="281.0" y1="95.6" x2="299.8" y2="116.4" stroke="rgb(0,0,0)"  stroke-width="2.0"/>
<line x1="309.1" y1="116.1" x2="296.8" y2="154.1" stroke="rgb(0,0,0)"  stroke-width="2.0"/>
<line x1="137.9" y1="252.8" x2="137.9" y2="212.8" stroke="rgb(0,0,0)"  stroke-width="2.0"/>
<line x1="137.9" y1="212.8" x2="172.6" y2="192.8" stroke="rgb(0,0,0)"  stroke-width="2.0"/>
<line x1="146.7" y1="216.1" x2="171.0" y2="202.1" stroke="rgb(0,0,0)"  stroke-width="2.0"/>
<line x1="172.6" y1="192.8" x2="207.2" y2="212.8" stroke="rgb(0,0,0)"  stroke-width="2.0"/>
<line x1="207.2" y1="252.8" x2="172.6" y2="272.8" stroke="rgb(0,0,0)"  stroke-width="2.0"/>
<line x1="172.6" y1="272.8" x2="137.9" y2="252.8" stroke="rgb(0,0,0)"  stroke-width="2.0"/>
<line x1="171.0" y1="263.6" x2="146.7" y2="249.6" stroke="rgb(0,0,0)"  stroke-width="2.0"/>
<text x="93.125904" y="161.065314" fill="rgb(255,12,12)"  stroke="rgb(255,12,12)" stroke-width="1" font-size="16" >O</text>
<text x="37.730534" y="116.207028" fill="rgb(178,178,0)"  stroke="rgb(178,178,0)" stroke-width="1" font-size="16" >S</text>
<text x="22.000000" y="187.389863" fill="rgb(12,12,255)"  stroke="rgb(12,12,255)" stroke-width="1" font-size="16" >HN</text>
<text x="60.765224" y="217.115656" fill="rgb(12,12,255)"  stroke="rgb(12,12,255)" stroke-width="1" font-size="16" >N</text>
<text x="329.840975" y="48.000000" fill="rgb(102,102,102)"  stroke="rgb(102,102,102)" stroke-width="1" font-size="16" >CH</text>
<text x="353.840975" y="51.680000" fill="rgb(102,102,102)"  stroke="rgb(102,102,102)" stroke-width="1" font-size="13" >3</text>
<text x="239.272352" y="273.206870" fill="rgb(12,12,255)"  stroke="rgb(12,12,255)" stroke-width="1" font-size="16" >N</text>
<text x="239.272352" y="208.485510" fill="rgb(12,12,255)"  stroke="rgb(12,12,255)" stroke-width="1" font-size="16" >N</text>
<text x="288.715071" y="56.316468" fill="rgb(255,12,12)"  stroke="rgb(255,12,12)" stroke-width="1" font-size="16" >O</text>
</svg>
</g>
<text font-size="18.000000" fill ="black" font-family="sans-serif"
x="10.000000" y="20.000000" ></text>
</svg>
