<?xml version="1.0"?>
<svg version="1.1" id="topsvg"
xmlns="http://www.w3.org/2000/svg" xmlns:xlink="http://www.w3.org/1999/xlink"
xmlns:cml="http://www.xml-cml.org/schema" x="0" y="0" width="200px" height="200px" viewBox="0 0 100 100">
<title> - Open Babel Depiction</title>
<rect x="0" y="0" width="100" height="100" fill="white"/>
<g transform="translate(0,0)">
<svg width="100" height="100" x="0" y="0" viewBox="0 0 322.487 288.852"
font-family="sans-serif" stroke="rgb(0,0,0)" stroke-width="2"  stroke-linecap="round">
<line x1="257.6" y1="239.2" x2="239.5" y2="219.1" stroke="rgb(0,0,0)"  stroke-width="2.0"/>
<line x1="213.2" y1="120.0" x2="189.8" y2="106.5" stroke="rgb(0,0,0)"  stroke-width="2.0"/>
<line x1="167.3" y1="106.5" x2="143.9" y2="120.0" stroke="rgb(0,0,0)"  stroke-width="2.0"/>
<line x1="143.9" y1="120.0" x2="109.3" y2="100.0" stroke="rgb(0,0,0)"  stroke-width="2.0"/>
<line x1="193.3" y1="177.9" x2="213.2" y2="160.0" stroke="rgb(0,0,0)"  stroke-width="2.0"/>
<line x1="199.6" y1="181.9" x2="213.6" y2="169.4" stroke="rgb(0,0,0)"  stroke-width="2.0"/>
<line x1="213.2" y1="160.0" x2="236.6" y2="173.5" stroke="rgb(0,0,0)"  stroke-width="2.0"/>
<line x1="245.1" y1="192.7" x2="239.5" y2="219.1" stroke="rgb(0,0,0)"  stroke-width="2.0"/>
<line x1="239.5" y1="219.1" x2="199.7" y2="223.3" stroke="rgb(0,0,0)"  stroke-width="2.0"/>
<line x1="232.8" y1="212.6" x2="205.0" y2="215.5" stroke="rgb(0,0,0)"  stroke-width="2.0"/>
<line x1="199.7" y1="223.3" x2="188.8" y2="198.6" stroke="rgb(0,0,0)"  stroke-width="2.0"/>
<line x1="259.1" y1="106.5" x2="282.5" y2="120.0" stroke="rgb(0,0,0)"  stroke-width="2.0"/>
<line x1="282.5" y1="120.0" x2="282.5" y2="160.0" stroke="rgb(0,0,0)"  stroke-width="2.0"/>
<line x1="275.3" y1="126.0" x2="275.3" y2="154.0" stroke="rgb(0,0,0)"  stroke-width="2.0"/>
<line x1="282.5" y1="160.0" x2="259.1" y2="173.5" stroke="rgb(0,0,0)"  stroke-width="2.0"/>
<line x1="213.2" y1="160.0" x2="213.2" y2="120.0" stroke="rgb(0,0,0)"  stroke-width="2.0"/>
<line x1="213.2" y1="120.0" x2="236.4" y2="106.6" stroke="rgb(0,0,0)"  stroke-width="2.0"/>
<line x1="222.0" y1="123.2" x2="238.3" y2="113.8" stroke="rgb(0,0,0)"  stroke-width="2.0"/>
<line x1="40.0" y1="100.0" x2="40.0" y2="73.2" stroke="rgb(0,0,0)"  stroke-width="2.0"/>
<line x1="47.2" y1="94.0" x2="47.2" y2="75.2" stroke="rgb(0,0,0)"  stroke-width="2.0"/>
<line x1="51.3" y1="53.5" x2="74.6" y2="40.0" stroke="rgb(0,0,0)"  stroke-width="2.0"/>
<line x1="74.6" y1="40.0" x2="109.3" y2="60.0" stroke="rgb(0,0,0)"  stroke-width="2.0"/>
<line x1="76.2" y1="49.2" x2="100.5" y2="63.2" stroke="rgb(0,0,0)"  stroke-width="2.0"/>
<line x1="109.3" y1="60.0" x2="109.3" y2="100.0" stroke="rgb(0,0,0)"  stroke-width="2.0"/>
<line x1="109.3" y1="100.0" x2="74.6" y2="120.0" stroke="rgb(0,0,0)"  stroke-width="2.0"/>
<line x1="100.5" y1="96.8" x2="76.2" y2="110.8" stroke="rgb(0,0,0)"  stroke-width="2.0"/>
<line x1="74.6" y1="120.0" x2="40.0" y2="100.0" stroke="rgb(0,0,0)"  stroke-width="2.0"/>
<text x="34.000000" y="68.000000" fill="rgb(12,12,255)"  stroke="rgb(12,12,255)" stroke-width="1" font-size="16" >N</text>
<text x="172.564065" y="108.000000" fill="rgb(12,12,255)"  stroke="rgb(12,12,255)" stroke-width="1" font-size="16" >N</text>
<text x="172.564065" y="92.000000" fill="rgb(12,12,255)"  stroke="rgb(12,12,255)" stroke-width="1" font-size="16" >H</text>
<text x="262.294854" y="256.851697" fill="rgb(102,102,102)"  stroke="rgb(102,102,102)" stroke-width="1" font-size="16" >CH</text>
<text x="286.294854" y="260.531697" fill="rgb(102,102,102)"  stroke="rgb(102,102,102)" stroke-width="1" font-size="13" >3</text>
<text x="241.846097" y="108.000000" fill="rgb(12,12,255)"  stroke="rgb(12,12,255)" stroke-width="1" font-size="16" >N</text>
<text x="241.846097" y="188.000000" fill="rgb(12,12,255)"  stroke="rgb(12,12,255)" stroke-width="1" font-size="16" >N</text>
<text x="177.479288" y="194.765224" fill="rgb(12,12,255)"  stroke="rgb(12,12,255)" stroke-width="1" font-size="16" >N</text>
</svg>
</g>
<text font-size="18.000000" fill ="black" font-family="sans-serif"
x="10.000000" y="20.000000" ></text>
</svg>
