<?xml version="1.0"?>
<svg version="1.1" id="topsvg"
xmlns="http://www.w3.org/2000/svg" xmlns:xlink="http://www.w3.org/1999/xlink"
xmlns:cml="http://www.xml-cml.org/schema" x="0" y="0" width="200px" height="200px" viewBox="0 0 100 100">
<title> - Open Babel Depiction</title>
<rect x="0" y="0" width="100" height="100" fill="white"/>
<g transform="translate(0,0)">
<svg width="100" height="100" x="0" y="0" viewBox="0 0 352.471 345.896"
font-family="sans-serif" stroke="rgb(0,0,0)" stroke-width="2"  stroke-linecap="round">
<line x1="267.3" y1="294.6" x2="254.4" y2="272.4" stroke="rgb(0,0,0)"  stroke-width="2.0"/>
<line x1="215.7" y1="205.3" x2="183.5" y2="149.5" stroke="rgb(0,0,0)"  stroke-width="2.0"/>
<line x1="164.0" y1="141.3" x2="151.3" y2="141.3" stroke="rgb(0,0,0)"  stroke-width="2.0"/>
<line x1="164.0" y1="135.3" x2="151.3" y2="135.3" stroke="rgb(0,0,0)"  stroke-width="2.0"/>
<line x1="138.3" y1="151.3" x2="138.3" y2="164.0" stroke="rgb(0,0,0)"  stroke-width="2.0"/>
<line x1="138.3" y1="125.3" x2="138.3" y2="112.6" stroke="rgb(0,0,0)"  stroke-width="2.0"/>
<line x1="125.3" y1="138.3" x2="112.6" y2="138.3" stroke="rgb(0,0,0)"  stroke-width="2.0"/>
<line x1="254.4" y1="205.3" x2="267.3" y2="183.1" stroke="rgb(0,0,0)"  stroke-width="2.0"/>
<line x1="286.8" y1="168.8" x2="299.5" y2="168.8" stroke="rgb(0,0,0)"  stroke-width="2.0"/>
<line x1="286.8" y1="174.8" x2="299.5" y2="174.8" stroke="rgb(0,0,0)"  stroke-width="2.0"/>
<line x1="264.7" y1="162.0" x2="258.3" y2="151.0" stroke="rgb(0,0,0)"  stroke-width="2.0"/>
<line x1="269.9" y1="159.0" x2="263.5" y2="148.0" stroke="rgb(0,0,0)"  stroke-width="2.0"/>
<line x1="215.7" y1="272.4" x2="254.4" y2="272.4" stroke="rgb(0,0,0)"  stroke-width="2.0"/>
<line x1="221.7" y1="265.2" x2="248.4" y2="265.2" stroke="rgb(0,0,0)"  stroke-width="2.0"/>
<line x1="254.4" y1="272.4" x2="273.8" y2="238.8" stroke="rgb(0,0,0)"  stroke-width="2.0"/>
<line x1="273.8" y1="238.8" x2="254.4" y2="205.3" stroke="rgb(0,0,0)"  stroke-width="2.0"/>
<line x1="264.5" y1="237.3" x2="251.2" y2="214.1" stroke="rgb(0,0,0)"  stroke-width="2.0"/>
<line x1="254.4" y1="205.3" x2="215.7" y2="205.3" stroke="rgb(0,0,0)"  stroke-width="2.0"/>
<line x1="215.7" y1="205.3" x2="196.3" y2="238.8" stroke="rgb(0,0,0)"  stroke-width="2.0"/>
<line x1="218.9" y1="214.1" x2="205.6" y2="237.3" stroke="rgb(0,0,0)"  stroke-width="2.0"/>
<line x1="196.3" y1="238.8" x2="215.7" y2="272.4" stroke="rgb(0,0,0)"  stroke-width="2.0"/>
<line x1="157.6" y1="236.6" x2="118.9" y2="236.6" stroke="rgb(0,0,0)"  stroke-width="2.0"/>
<line x1="118.9" y1="236.6" x2="107.0" y2="199.7" stroke="rgb(0,0,0)"  stroke-width="2.0"/>
<line x1="107.0" y1="199.7" x2="127.8" y2="184.6" stroke="rgb(0,0,0)"  stroke-width="2.0"/>
<line x1="148.8" y1="184.6" x2="169.6" y2="199.7" stroke="rgb(0,0,0)"  stroke-width="2.0"/>
<line x1="169.6" y1="199.7" x2="157.6" y2="236.6" stroke="rgb(0,0,0)"  stroke-width="2.0"/>
<line x1="118.9" y1="40.0" x2="157.6" y2="40.0" stroke="rgb(0,0,0)"  stroke-width="2.0"/>
<line x1="157.6" y1="40.0" x2="169.6" y2="76.8" stroke="rgb(0,0,0)"  stroke-width="2.0"/>
<line x1="169.6" y1="76.8" x2="148.8" y2="91.9" stroke="rgb(0,0,0)"  stroke-width="2.0"/>
<line x1="127.8" y1="91.9" x2="107.0" y2="76.8" stroke="rgb(0,0,0)"  stroke-width="2.0"/>
<line x1="107.0" y1="76.8" x2="118.9" y2="40.0" stroke="rgb(0,0,0)"  stroke-width="2.0"/>
<line x1="40.0" y1="157.6" x2="40.0" y2="118.9" stroke="rgb(0,0,0)"  stroke-width="2.0"/>
<line x1="40.0" y1="118.9" x2="76.8" y2="107.0" stroke="rgb(0,0,0)"  stroke-width="2.0"/>
<line x1="76.8" y1="107.0" x2="91.9" y2="127.8" stroke="rgb(0,0,0)"  stroke-width="2.0"/>
<line x1="91.9" y1="148.8" x2="76.8" y2="169.6" stroke="rgb(0,0,0)"  stroke-width="2.0"/>
<line x1="76.8" y1="169.6" x2="40.0" y2="157.6" stroke="rgb(0,0,0)"  stroke-width="2.0"/>
<text x="248.406778" y="146.277746" fill="rgb(255,12,12)"  stroke="rgb(255,12,12)" stroke-width="1" font-size="16" >O</text>
<text x="306.471294" y="179.801310" fill="rgb(255,12,12)"  stroke="rgb(255,12,12)" stroke-width="1" font-size="16" >O</text>
<text x="267.761617" y="179.801310" fill="rgb(12,12,255)"  stroke="rgb(12,12,255)" stroke-width="1" font-size="16" >N</text>
<text x="93.568068" y="146.277746" fill="rgb(12,12,255)"  stroke="rgb(12,12,255)" stroke-width="1" font-size="16" >N</text>
<text x="267.761617" y="313.895566" fill="rgb(30,239,30)"  stroke="rgb(30,239,30)" stroke-width="1" font-size="16" >Cl</text>
<text x="132.277746" y="107.568068" fill="rgb(12,12,255)"  stroke="rgb(12,12,255)" stroke-width="1" font-size="16" >N</text>
<text x="132.277746" y="184.987423" fill="rgb(12,12,255)"  stroke="rgb(12,12,255)" stroke-width="1" font-size="16" >N</text>
<text x="132.277746" y="146.277746" fill="rgb(255,127,0)"  stroke="rgb(255,127,0)" stroke-width="1" font-size="16" >P</text>
<text x="170.987423" y="146.277746" fill="rgb(12,12,255)"  stroke="rgb(12,12,255)" stroke-width="1" font-size="16" >N</text>
</svg>
</g>
<text font-size="18.000000" fill ="black" font-family="sans-serif"
x="10.000000" y="20.000000" ></text>
</svg>
