<?xml version="1.0"?>
<svg version="1.1" id="topsvg"
xmlns="http://www.w3.org/2000/svg" xmlns:xlink="http://www.w3.org/1999/xlink"
xmlns:cml="http://www.xml-cml.org/schema" x="0" y="0" width="200px" height="200px" viewBox="0 0 100 100">
<title> - Open Babel Depiction</title>
<rect x="0" y="0" width="100" height="100" fill="white"/>
<g transform="translate(0,0)">
<svg width="100" height="100" x="0" y="0" viewBox="0 0 378.564 280"
font-family="sans-serif" stroke="rgb(0,0,0)" stroke-width="2"  stroke-linecap="round">
<line x1="53.0" y1="200.0" x2="80.0" y2="200.0" stroke="rgb(0,0,0)"  stroke-width="2.0"/>
<line x1="160.0" y1="200.0" x2="187.0" y2="200.0" stroke="rgb(0,0,0)"  stroke-width="2.0"/>
<line x1="203.0" y1="213.0" x2="203.0" y2="227.0" stroke="rgb(0,0,0)"  stroke-width="2.0"/>
<line x1="197.0" y1="213.0" x2="197.0" y2="227.0" stroke="rgb(0,0,0)"  stroke-width="2.0"/>
<line x1="213.0" y1="197.0" x2="227.0" y2="197.0" stroke="rgb(0,0,0)"  stroke-width="2.0"/>
<line x1="213.0" y1="203.0" x2="227.0" y2="203.0" stroke="rgb(0,0,0)"  stroke-width="2.0"/>
<line x1="200.0" y1="187.0" x2="200.0" y2="173.0" stroke="rgb(0,0,0)"  stroke-width="2.0"/>
<line x1="211.3" y1="153.5" x2="234.6" y2="140.0" stroke="rgb(0,0,0)"  stroke-width="2.0"/>
<line x1="303.9" y1="140.0" x2="327.3" y2="153.5" stroke="rgb(0,0,0)"  stroke-width="2.0"/>
<line x1="269.3" y1="80.0" x2="269.3" y2="53.0" stroke="rgb(0,0,0)"  stroke-width="2.0"/>
<line x1="140.0" y1="165.4" x2="160.0" y2="200.0" stroke="rgb(0,0,0)"  stroke-width="2.0"/>
<line x1="136.8" y1="174.2" x2="150.8" y2="198.4" stroke="rgb(0,0,0)"  stroke-width="2.0"/>
<line x1="160.0" y1="200.0" x2="140.0" y2="234.6" stroke="rgb(0,0,0)"  stroke-width="2.0"/>
<line x1="140.0" y1="234.6" x2="100.0" y2="234.6" stroke="rgb(0,0,0)"  stroke-width="2.0"/>
<line x1="134.0" y1="227.4" x2="106.0" y2="227.4" stroke="rgb(0,0,0)"  stroke-width="2.0"/>
<line x1="100.0" y1="234.6" x2="80.0" y2="200.0" stroke="rgb(0,0,0)"  stroke-width="2.0"/>
<line x1="80.0" y1="200.0" x2="100.0" y2="165.4" stroke="rgb(0,0,0)"  stroke-width="2.0"/>
<line x1="89.2" y1="198.4" x2="103.2" y2="174.2" stroke="rgb(0,0,0)"  stroke-width="2.0"/>
<line x1="100.0" y1="165.4" x2="140.0" y2="165.4" stroke="rgb(0,0,0)"  stroke-width="2.0"/>
<line x1="257.9" y1="153.4" x2="234.6" y2="140.0" stroke="rgb(0,0,0)"  stroke-width="2.0"/>
<line x1="259.7" y1="146.2" x2="243.4" y2="136.8" stroke="rgb(0,0,0)"  stroke-width="2.0"/>
<line x1="234.6" y1="140.0" x2="234.6" y2="113.0" stroke="rgb(0,0,0)"  stroke-width="2.0"/>
<line x1="246.1" y1="93.4" x2="269.3" y2="80.0" stroke="rgb(0,0,0)"  stroke-width="2.0"/>
<line x1="251.4" y1="98.6" x2="267.7" y2="89.2" stroke="rgb(0,0,0)"  stroke-width="2.0"/>
<line x1="269.3" y1="80.0" x2="303.9" y2="100.0" stroke="rgb(0,0,0)"  stroke-width="2.0"/>
<line x1="303.9" y1="100.0" x2="303.9" y2="140.0" stroke="rgb(0,0,0)"  stroke-width="2.0"/>
<line x1="296.7" y1="106.0" x2="296.7" y2="134.0" stroke="rgb(0,0,0)"  stroke-width="2.0"/>
<line x1="303.9" y1="140.0" x2="280.5" y2="153.5" stroke="rgb(0,0,0)"  stroke-width="2.0"/>
<text x="234.000000" y="208.000000" fill="rgb(255,12,12)"  stroke="rgb(255,12,12)" stroke-width="1" font-size="16" >O</text>
<text x="265.282032" y="48.000000" fill="rgb(102,102,102)"  stroke="rgb(102,102,102)" stroke-width="1" font-size="16" >CH</text>
<text x="289.282032" y="51.680000" fill="rgb(102,102,102)"  stroke="rgb(102,102,102)" stroke-width="1" font-size="13" >3</text>
<text x="228.641016" y="108.000000" fill="rgb(12,12,255)"  stroke="rgb(12,12,255)" stroke-width="1" font-size="16" >N</text>
<text x="334.564065" y="168.000000" fill="rgb(102,102,102)"  stroke="rgb(102,102,102)" stroke-width="1" font-size="16" >CH</text>
<text x="358.564065" y="171.680000" fill="rgb(102,102,102)"  stroke="rgb(102,102,102)" stroke-width="1" font-size="13" >3</text>
<text x="263.282032" y="168.000000" fill="rgb(12,12,255)"  stroke="rgb(12,12,255)" stroke-width="1" font-size="16" >N</text>
<text x="182.000000" y="168.000000" fill="rgb(12,12,255)"  stroke="rgb(12,12,255)" stroke-width="1" font-size="16" >HN</text>
<text x="14.000000" y="208.000000" fill="rgb(12,12,255)"  stroke="rgb(12,12,255)" stroke-width="1" font-size="16" >H</text>
<text x="26.000000" y="211.680000" fill="rgb(12,12,255)"  stroke="rgb(12,12,255)" stroke-width="1" font-size="13" >2</text>
<text x="32.500000" y="208.000000" fill="rgb(12,12,255)"  stroke="rgb(12,12,255)" stroke-width="1" font-size="16" >N</text>
<text x="194.000000" y="248.000000" fill="rgb(255,12,12)"  stroke="rgb(255,12,12)" stroke-width="1" font-size="16" >O</text>
<text x="194.000000" y="208.000000" fill="rgb(178,178,0)"  stroke="rgb(178,178,0)" stroke-width="1" font-size="16" >S</text>
</svg>
</g>
<text font-size="18.000000" fill ="black" font-family="sans-serif"
x="10.000000" y="20.000000" ></text>
</svg>
