<?xml version="1.0"?>
<svg version="1.1" id="topsvg"
xmlns="http://www.w3.org/2000/svg" xmlns:xlink="http://www.w3.org/1999/xlink"
xmlns:cml="http://www.xml-cml.org/schema" x="0" y="0" width="200px" height="200px" viewBox="0 0 100 100">
<title> - Open Babel Depiction</title>
<rect x="0" y="0" width="100" height="100" fill="white"/>
<g transform="translate(0,0)">
<svg width="100" height="100" x="0" y="0" viewBox="0 0 405.477 160"
font-family="sans-serif" stroke="rgb(0,0,0)" stroke-width="2"  stroke-linecap="round">
<line x1="352.5" y1="80.0" x2="325.5" y2="80.0" stroke="rgb(0,0,0)"  stroke-width="2.0"/>
<line x1="245.5" y1="80.0" x2="205.5" y2="80.0" stroke="rgb(0,0,0)"  stroke-width="2.0"/>
<line x1="74.6" y1="60.0" x2="51.3" y2="46.5" stroke="rgb(0,0,0)"  stroke-width="2.0"/>
<line x1="143.9" y1="100.0" x2="143.9" y2="60.0" stroke="rgb(0,0,0)"  stroke-width="2.0"/>
<line x1="151.1" y1="94.0" x2="151.1" y2="66.0" stroke="rgb(0,0,0)"  stroke-width="2.0"/>
<line x1="143.9" y1="60.0" x2="169.6" y2="51.7" stroke="rgb(0,0,0)"  stroke-width="2.0"/>
<line x1="189.6" y1="58.2" x2="205.5" y2="80.0" stroke="rgb(0,0,0)"  stroke-width="2.0"/>
<line x1="205.5" y1="80.0" x2="182.0" y2="112.4" stroke="rgb(0,0,0)"  stroke-width="2.0"/>
<line x1="196.1" y1="80.6" x2="179.7" y2="103.3" stroke="rgb(0,0,0)"  stroke-width="2.0"/>
<line x1="182.0" y1="112.4" x2="143.9" y2="100.0" stroke="rgb(0,0,0)"  stroke-width="2.0"/>
<line x1="265.5" y1="114.6" x2="245.5" y2="80.0" stroke="rgb(0,0,0)"  stroke-width="2.0"/>
<line x1="268.7" y1="105.8" x2="254.7" y2="81.6" stroke="rgb(0,0,0)"  stroke-width="2.0"/>
<line x1="245.5" y1="80.0" x2="265.5" y2="45.4" stroke="rgb(0,0,0)"  stroke-width="2.0"/>
<line x1="265.5" y1="45.4" x2="305.5" y2="45.4" stroke="rgb(0,0,0)"  stroke-width="2.0"/>
<line x1="271.5" y1="52.6" x2="299.5" y2="52.6" stroke="rgb(0,0,0)"  stroke-width="2.0"/>
<line x1="305.5" y1="45.4" x2="325.5" y2="80.0" stroke="rgb(0,0,0)"  stroke-width="2.0"/>
<line x1="325.5" y1="80.0" x2="305.5" y2="114.6" stroke="rgb(0,0,0)"  stroke-width="2.0"/>
<line x1="316.2" y1="81.6" x2="302.2" y2="105.8" stroke="rgb(0,0,0)"  stroke-width="2.0"/>
<line x1="305.5" y1="114.6" x2="265.5" y2="114.6" stroke="rgb(0,0,0)"  stroke-width="2.0"/>
<line x1="74.6" y1="100.0" x2="74.6" y2="60.0" stroke="rgb(0,0,0)"  stroke-width="2.0"/>
<line x1="74.6" y1="60.0" x2="109.3" y2="40.0" stroke="rgb(0,0,0)"  stroke-width="2.0"/>
<line x1="83.4" y1="63.2" x2="107.7" y2="49.2" stroke="rgb(0,0,0)"  stroke-width="2.0"/>
<line x1="109.3" y1="40.0" x2="143.9" y2="60.0" stroke="rgb(0,0,0)"  stroke-width="2.0"/>
<line x1="143.9" y1="100.0" x2="109.3" y2="120.0" stroke="rgb(0,0,0)"  stroke-width="2.0"/>
<line x1="109.3" y1="120.0" x2="74.6" y2="100.0" stroke="rgb(0,0,0)"  stroke-width="2.0"/>
<line x1="107.7" y1="110.8" x2="83.4" y2="96.8" stroke="rgb(0,0,0)"  stroke-width="2.0"/>
<text x="22.000000" y="48.000000" fill="rgb(255,12,12)"  stroke="rgb(255,12,12)" stroke-width="1" font-size="16" >HO</text>
<text x="175.965309" y="55.639320" fill="rgb(178,178,0)"  stroke="rgb(178,178,0)" stroke-width="1" font-size="16" >S</text>
<text x="359.476719" y="88.000000" fill="rgb(255,12,12)"  stroke="rgb(255,12,12)" stroke-width="1" font-size="16" >OH</text>
</svg>
</g>
<text font-size="18.000000" fill ="black" font-family="sans-serif"
x="10.000000" y="20.000000" ></text>
</svg>
