<?xml version="1.0"?>
<svg version="1.1" id="topsvg"
xmlns="http://www.w3.org/2000/svg" xmlns:xlink="http://www.w3.org/1999/xlink"
xmlns:cml="http://www.xml-cml.org/schema" x="0" y="0" width="200px" height="200px" viewBox="0 0 100 100">
<title> - Open Babel Depiction</title>
<rect x="0" y="0" width="100" height="100" fill="white"/>
<g transform="translate(0,0)">
<svg width="100" height="100" x="0" y="0" viewBox="0 0 381.067 301.255"
font-family="sans-serif" stroke="rgb(0,0,0)" stroke-width="2"  stroke-linecap="round">
<line x1="259.6" y1="95.8" x2="251.3" y2="121.5" stroke="rgb(0,0,0)"  stroke-width="2.0"/>
<line x1="253.9" y1="93.9" x2="245.6" y2="119.6" stroke="rgb(0,0,0)"  stroke-width="2.0"/>
<line x1="248.4" y1="120.5" x2="222.0" y2="126.1" stroke="rgb(0,0,0)"  stroke-width="2.0"/>
<line x1="200.6" y1="119.2" x2="182.5" y2="99.1" stroke="rgb(0,0,0)"  stroke-width="2.0"/>
<line x1="142.7" y1="103.3" x2="122.7" y2="137.9" stroke="rgb(0,0,0)"  stroke-width="2.0"/>
<line x1="248.4" y1="120.5" x2="275.2" y2="150.3" stroke="rgb(0,0,0)"  stroke-width="2.0"/>
<line x1="146.5" y1="48.7" x2="136.1" y2="58.1" stroke="rgb(0,0,0)"  stroke-width="2.0"/>
<line x1="131.8" y1="78.8" x2="142.7" y2="103.3" stroke="rgb(0,0,0)"  stroke-width="2.0"/>
<line x1="139.2" y1="77.7" x2="146.9" y2="94.9" stroke="rgb(0,0,0)"  stroke-width="2.0"/>
<line x1="142.7" y1="103.3" x2="182.5" y2="99.1" stroke="rgb(0,0,0)"  stroke-width="2.0"/>
<line x1="182.5" y1="99.1" x2="190.8" y2="60.0" stroke="rgb(0,0,0)"  stroke-width="2.0"/>
<line x1="176.7" y1="91.8" x2="182.5" y2="64.4" stroke="rgb(0,0,0)"  stroke-width="2.0"/>
<line x1="190.8" y1="60.0" x2="167.5" y2="46.5" stroke="rgb(0,0,0)"  stroke-width="2.0"/>
<line x1="74.6" y1="181.3" x2="109.3" y2="201.3" stroke="rgb(0,0,0)"  stroke-width="2.0"/>
<line x1="83.4" y1="178.0" x2="107.7" y2="192.0" stroke="rgb(0,0,0)"  stroke-width="2.0"/>
<line x1="109.3" y1="201.3" x2="129.3" y2="183.2" stroke="rgb(0,0,0)"  stroke-width="2.0"/>
<line x1="133.7" y1="162.6" x2="122.7" y2="137.9" stroke="rgb(0,0,0)"  stroke-width="2.0"/>
<line x1="122.7" y1="137.9" x2="96.1" y2="140.7" stroke="rgb(0,0,0)"  stroke-width="2.0"/>
<line x1="117.5" y1="145.7" x2="98.8" y2="147.7" stroke="rgb(0,0,0)"  stroke-width="2.0"/>
<line x1="80.3" y1="154.8" x2="74.6" y2="181.3" stroke="rgb(0,0,0)"  stroke-width="2.0"/>
<line x1="40.0" y1="241.3" x2="74.6" y2="261.3" stroke="rgb(0,0,0)"  stroke-width="2.0"/>
<line x1="74.6" y1="261.3" x2="109.3" y2="241.3" stroke="rgb(0,0,0)"  stroke-width="2.0"/>
<line x1="76.2" y1="252.0" x2="100.5" y2="238.0" stroke="rgb(0,0,0)"  stroke-width="2.0"/>
<line x1="109.3" y1="241.3" x2="109.3" y2="201.3" stroke="rgb(0,0,0)"  stroke-width="2.0"/>
<line x1="74.6" y1="181.3" x2="40.0" y2="201.3" stroke="rgb(0,0,0)"  stroke-width="2.0"/>
<line x1="40.0" y1="201.3" x2="40.0" y2="241.3" stroke="rgb(0,0,0)"  stroke-width="2.0"/>
<line x1="47.2" y1="207.3" x2="47.2" y2="235.3" stroke="rgb(0,0,0)"  stroke-width="2.0"/>
<line x1="341.1" y1="171.7" x2="328.7" y2="209.7" stroke="rgb(0,0,0)"  stroke-width="2.0"/>
<line x1="332.4" y1="175.2" x2="323.7" y2="201.8" stroke="rgb(0,0,0)"  stroke-width="2.0"/>
<line x1="328.7" y1="209.7" x2="289.6" y2="218.0" stroke="rgb(0,0,0)"  stroke-width="2.0"/>
<line x1="289.6" y1="218.0" x2="262.8" y2="188.3" stroke="rgb(0,0,0)"  stroke-width="2.0"/>
<line x1="290.9" y1="208.8" x2="272.2" y2="187.9" stroke="rgb(0,0,0)"  stroke-width="2.0"/>
<line x1="262.8" y1="188.3" x2="275.2" y2="150.3" stroke="rgb(0,0,0)"  stroke-width="2.0"/>
<line x1="275.2" y1="150.3" x2="314.3" y2="141.9" stroke="rgb(0,0,0)"  stroke-width="2.0"/>
<line x1="282.5" y1="156.1" x2="309.9" y2="150.2" stroke="rgb(0,0,0)"  stroke-width="2.0"/>
<line x1="314.3" y1="141.9" x2="341.1" y2="171.7" stroke="rgb(0,0,0)"  stroke-width="2.0"/>
<text x="133.007825" y="182.489877" fill="rgb(12,12,255)"  stroke="rgb(12,12,255)" stroke-width="1" font-size="16" >NH</text>
<text x="254.771043" y="90.492969" fill="rgb(255,12,12)"  stroke="rgb(255,12,12)" stroke-width="1" font-size="16" >O</text>
<text x="76.957484" y="150.129197" fill="rgb(12,12,255)"  stroke="rgb(12,12,255)" stroke-width="1" font-size="16" >N</text>
<text x="120.468894" y="74.765224" fill="rgb(12,12,255)"  stroke="rgb(12,12,255)" stroke-width="1" font-size="16" >N</text>
<text x="150.194687" y="48.000000" fill="rgb(12,12,255)"  stroke="rgb(12,12,255)" stroke-width="1" font-size="16" >N</text>
<text x="150.194687" y="32.000000" fill="rgb(12,12,255)"  stroke="rgb(12,12,255)" stroke-width="1" font-size="16" >H</text>
<text x="203.284460" y="136.851697" fill="rgb(12,12,255)"  stroke="rgb(12,12,255)" stroke-width="1" font-size="16" >N</text>
<text x="203.284460" y="152.851697" fill="rgb(12,12,255)"  stroke="rgb(12,12,255)" stroke-width="1" font-size="16" >H</text>
</svg>
</g>
<text font-size="18.000000" fill ="black" font-family="sans-serif"
x="10.000000" y="20.000000" ></text>
</svg>
