<?xml version="1.0"?>
<svg version="1.1" id="topsvg"
xmlns="http://www.w3.org/2000/svg" xmlns:xlink="http://www.w3.org/1999/xlink"
xmlns:cml="http://www.xml-cml.org/schema" x="0" y="0" width="200px" height="200px" viewBox="0 0 100 100">
<title> - Open Babel Depiction</title>
<rect x="0" y="0" width="100" height="100" fill="white"/>
<g transform="translate(0,0)">
<svg width="100" height="100" x="0" y="0" viewBox="0 0 367.999 248.677"
font-family="sans-serif" stroke="rgb(0,0,0)" stroke-width="2"  stroke-linecap="round">
<line x1="267.5" y1="196.8" x2="261.8" y2="184.0" stroke="rgb(0,0,0)"  stroke-width="2.0"/>
<line x1="262.1" y1="69.7" x2="244.0" y2="49.7" stroke="rgb(0,0,0)"  stroke-width="2.0"/>
<line x1="213.2" y1="124.0" x2="178.6" y2="104.0" stroke="rgb(0,0,0)"  stroke-width="2.0"/>
<line x1="213.2" y1="124.0" x2="249.7" y2="107.8" stroke="rgb(0,0,0)"  stroke-width="2.0"/>
<line x1="249.7" y1="107.8" x2="276.5" y2="137.5" stroke="rgb(0,0,0)"  stroke-width="2.0"/>
<line x1="276.5" y1="137.5" x2="263.0" y2="160.9" stroke="rgb(0,0,0)"  stroke-width="2.0"/>
<line x1="243.8" y1="169.4" x2="230.1" y2="166.5" stroke="rgb(0,0,0)"  stroke-width="2.0"/>
<line x1="216.0" y1="150.7" x2="213.2" y2="124.0" stroke="rgb(0,0,0)"  stroke-width="2.0"/>
<line x1="223.0" y1="147.9" x2="221.0" y2="129.3" stroke="rgb(0,0,0)"  stroke-width="2.0"/>
<line x1="328.0" y1="91.1" x2="319.7" y2="116.8" stroke="rgb(0,0,0)"  stroke-width="2.0"/>
<line x1="302.7" y1="131.9" x2="276.5" y2="137.5" stroke="rgb(0,0,0)"  stroke-width="2.0"/>
<line x1="299.3" y1="125.3" x2="280.9" y2="129.2" stroke="rgb(0,0,0)"  stroke-width="2.0"/>
<line x1="249.7" y1="107.8" x2="262.1" y2="69.7" stroke="rgb(0,0,0)"  stroke-width="2.0"/>
<line x1="258.4" y1="104.3" x2="267.1" y2="77.7" stroke="rgb(0,0,0)"  stroke-width="2.0"/>
<line x1="262.1" y1="69.7" x2="288.5" y2="64.1" stroke="rgb(0,0,0)"  stroke-width="2.0"/>
<line x1="310.1" y1="71.2" x2="328.0" y2="91.1" stroke="rgb(0,0,0)"  stroke-width="2.0"/>
<line x1="306.1" y1="77.5" x2="318.6" y2="91.5" stroke="rgb(0,0,0)"  stroke-width="2.0"/>
<line x1="109.3" y1="104.0" x2="109.3" y2="64.0" stroke="rgb(0,0,0)"  stroke-width="2.0"/>
<line x1="109.3" y1="64.0" x2="143.9" y2="44.0" stroke="rgb(0,0,0)"  stroke-width="2.0"/>
<line x1="143.9" y1="44.0" x2="178.6" y2="64.0" stroke="rgb(0,0,0)"  stroke-width="2.0"/>
<line x1="145.5" y1="53.3" x2="169.8" y2="67.3" stroke="rgb(0,0,0)"  stroke-width="2.0"/>
<line x1="178.6" y1="64.0" x2="178.6" y2="104.0" stroke="rgb(0,0,0)"  stroke-width="2.0"/>
<line x1="178.6" y1="104.0" x2="143.9" y2="124.0" stroke="rgb(0,0,0)"  stroke-width="2.0"/>
<line x1="169.8" y1="100.8" x2="145.5" y2="114.8" stroke="rgb(0,0,0)"  stroke-width="2.0"/>
<line x1="143.9" y1="124.0" x2="109.3" y2="104.0" stroke="rgb(0,0,0)"  stroke-width="2.0"/>
<line x1="40.0" y1="64.0" x2="74.6" y2="44.0" stroke="rgb(0,0,0)"  stroke-width="2.0"/>
<line x1="74.6" y1="44.0" x2="109.3" y2="64.0" stroke="rgb(0,0,0)"  stroke-width="2.0"/>
<line x1="76.2" y1="53.3" x2="100.5" y2="67.3" stroke="rgb(0,0,0)"  stroke-width="2.0"/>
<line x1="109.3" y1="104.0" x2="74.6" y2="124.0" stroke="rgb(0,0,0)"  stroke-width="2.0"/>
<line x1="100.5" y1="100.8" x2="76.2" y2="114.8" stroke="rgb(0,0,0)"  stroke-width="2.0"/>
<line x1="74.6" y1="124.0" x2="40.0" y2="104.0" stroke="rgb(0,0,0)"  stroke-width="2.0"/>
<line x1="40.0" y1="104.0" x2="40.0" y2="64.0" stroke="rgb(0,0,0)"  stroke-width="2.0"/>
<line x1="47.2" y1="98.0" x2="47.2" y2="70.0" stroke="rgb(0,0,0)"  stroke-width="2.0"/>
<text x="268.781589" y="216.676681" fill="rgb(102,102,102)"  stroke="rgb(102,102,102)" stroke-width="1" font-size="16" >CH</text>
<text x="292.781589" y="220.356681" fill="rgb(102,102,102)"  stroke="rgb(102,102,102)" stroke-width="1" font-size="13" >3</text>
<text x="309.638027" y="137.177379" fill="rgb(12,12,255)"  stroke="rgb(12,12,255)" stroke-width="1" font-size="16" >N</text>
<text x="295.233483" y="69.409325" fill="rgb(12,12,255)"  stroke="rgb(12,12,255)" stroke-width="1" font-size="16" >N</text>
<text x="209.342355" y="48.000000" fill="rgb(12,12,255)"  stroke="rgb(12,12,255)" stroke-width="1" font-size="16" >H</text>
<text x="221.342355" y="51.680000" fill="rgb(12,12,255)"  stroke="rgb(12,12,255)" stroke-width="1" font-size="13" >2</text>
<text x="227.842355" y="48.000000" fill="rgb(12,12,255)"  stroke="rgb(12,12,255)" stroke-width="1" font-size="16" >N</text>
<text x="211.386219" y="171.818395" fill="rgb(12,12,255)"  stroke="rgb(12,12,255)" stroke-width="1" font-size="16" >N</text>
<text x="250.512123" y="180.134863" fill="rgb(12,12,255)"  stroke="rgb(12,12,255)" stroke-width="1" font-size="16" >N</text>
</svg>
</g>
<text font-size="18.000000" fill ="black" font-family="sans-serif"
x="10.000000" y="20.000000" ></text>
</svg>
