<?xml version="1.0"?>
<svg version="1.1" id="topsvg"
xmlns="http://www.w3.org/2000/svg" xmlns:xlink="http://www.w3.org/1999/xlink"
xmlns:cml="http://www.xml-cml.org/schema" x="0" y="0" width="200px" height="200px" viewBox="0 0 100 100">
<title> - Open Babel Depiction</title>
<rect x="0" y="0" width="100" height="100" fill="white"/>
<g transform="translate(0,0)">
<svg width="100" height="100" x="0" y="0" viewBox="0 0 330.836 334.933"
font-family="sans-serif" stroke="rgb(0,0,0)" stroke-width="2"  stroke-linecap="round">
<line x1="155.7" y1="282.6" x2="151.3" y2="269.3" stroke="rgb(0,0,0)"  stroke-width="2.0"/>
<line x1="170.8" y1="224.5" x2="210.8" y2="224.5" stroke="rgb(0,0,0)"  stroke-width="2.0"/>
<line x1="147.3" y1="192.2" x2="159.7" y2="154.1" stroke="rgb(0,0,0)"  stroke-width="2.0"/>
<line x1="184.4" y1="78.0" x2="192.7" y2="52.4" stroke="rgb(0,0,0)"  stroke-width="2.0"/>
<line x1="109.3" y1="204.5" x2="147.3" y2="192.2" stroke="rgb(0,0,0)"  stroke-width="2.0"/>
<line x1="147.3" y1="192.2" x2="170.8" y2="224.5" stroke="rgb(0,0,0)"  stroke-width="2.0"/>
<line x1="145.0" y1="201.3" x2="161.5" y2="223.9" stroke="rgb(0,0,0)"  stroke-width="2.0"/>
<line x1="170.8" y1="224.5" x2="155.0" y2="246.4" stroke="rgb(0,0,0)"  stroke-width="2.0"/>
<line x1="135.0" y1="252.9" x2="109.3" y2="244.5" stroke="rgb(0,0,0)"  stroke-width="2.0"/>
<line x1="109.3" y1="244.5" x2="109.3" y2="204.5" stroke="rgb(0,0,0)"  stroke-width="2.0"/>
<line x1="74.6" y1="264.5" x2="40.0" y2="244.5" stroke="rgb(0,0,0)"  stroke-width="2.0"/>
<line x1="40.0" y1="244.5" x2="40.0" y2="204.5" stroke="rgb(0,0,0)"  stroke-width="2.0"/>
<line x1="47.2" y1="238.5" x2="47.2" y2="210.5" stroke="rgb(0,0,0)"  stroke-width="2.0"/>
<line x1="40.0" y1="204.5" x2="63.4" y2="191.0" stroke="rgb(0,0,0)"  stroke-width="2.0"/>
<line x1="86.1" y1="191.1" x2="109.3" y2="204.5" stroke="rgb(0,0,0)"  stroke-width="2.0"/>
<line x1="84.2" y1="198.4" x2="100.5" y2="207.8" stroke="rgb(0,0,0)"  stroke-width="2.0"/>
<line x1="109.3" y1="244.5" x2="74.6" y2="264.5" stroke="rgb(0,0,0)"  stroke-width="2.0"/>
<line x1="100.5" y1="241.3" x2="76.2" y2="255.3" stroke="rgb(0,0,0)"  stroke-width="2.0"/>
<line x1="270.8" y1="189.9" x2="284.2" y2="213.1" stroke="rgb(0,0,0)"  stroke-width="2.0"/>
<line x1="267.6" y1="198.7" x2="277.0" y2="215.0" stroke="rgb(0,0,0)"  stroke-width="2.0"/>
<line x1="284.3" y1="235.8" x2="270.8" y2="259.2" stroke="rgb(0,0,0)"  stroke-width="2.0"/>
<line x1="270.8" y1="259.2" x2="230.8" y2="259.2" stroke="rgb(0,0,0)"  stroke-width="2.0"/>
<line x1="264.8" y1="252.0" x2="236.8" y2="252.0" stroke="rgb(0,0,0)"  stroke-width="2.0"/>
<line x1="230.8" y1="259.2" x2="210.8" y2="224.5" stroke="rgb(0,0,0)"  stroke-width="2.0"/>
<line x1="210.8" y1="224.5" x2="230.8" y2="189.9" stroke="rgb(0,0,0)"  stroke-width="2.0"/>
<line x1="220.1" y1="222.9" x2="234.1" y2="198.7" stroke="rgb(0,0,0)"  stroke-width="2.0"/>
<line x1="230.8" y1="189.9" x2="270.8" y2="189.9" stroke="rgb(0,0,0)"  stroke-width="2.0"/>
<line x1="145.3" y1="86.4" x2="184.4" y2="78.0" stroke="rgb(0,0,0)"  stroke-width="2.0"/>
<line x1="152.6" y1="92.2" x2="180.0" y2="86.3" stroke="rgb(0,0,0)"  stroke-width="2.0"/>
<line x1="184.4" y1="78.0" x2="211.2" y2="107.8" stroke="rgb(0,0,0)"  stroke-width="2.0"/>
<line x1="211.2" y1="107.8" x2="198.8" y2="145.8" stroke="rgb(0,0,0)"  stroke-width="2.0"/>
<line x1="202.5" y1="111.2" x2="193.8" y2="137.9" stroke="rgb(0,0,0)"  stroke-width="2.0"/>
<line x1="198.8" y1="145.8" x2="159.7" y2="154.1" stroke="rgb(0,0,0)"  stroke-width="2.0"/>
<line x1="159.7" y1="154.1" x2="132.9" y2="124.4" stroke="rgb(0,0,0)"  stroke-width="2.0"/>
<line x1="161.0" y1="144.9" x2="142.3" y2="124.0" stroke="rgb(0,0,0)"  stroke-width="2.0"/>
<line x1="132.9" y1="124.4" x2="145.3" y2="86.4" stroke="rgb(0,0,0)"  stroke-width="2.0"/>
<text x="190.767012" y="48.000000" fill="rgb(127,178,255)"  stroke="rgb(127,178,255)" stroke-width="1" font-size="16" >F</text>
<text x="284.835703" y="232.529722" fill="rgb(12,12,255)"  stroke="rgb(12,12,255)" stroke-width="1" font-size="16" >N</text>
<text x="153.684973" y="302.932663" fill="rgb(255,12,12)"  stroke="rgb(255,12,12)" stroke-width="1" font-size="16" >OH</text>
<text x="68.641016" y="192.529722" fill="rgb(12,12,255)"  stroke="rgb(12,12,255)" stroke-width="1" font-size="16" >N</text>
<text x="141.324293" y="264.890402" fill="rgb(12,12,255)"  stroke="rgb(12,12,255)" stroke-width="1" font-size="16" >N</text>
</svg>
</g>
<text font-size="18.000000" fill ="black" font-family="sans-serif"
x="10.000000" y="20.000000" ></text>
</svg>
