<?xml version="1.0"?>
<svg version="1.1" id="topsvg"
xmlns="http://www.w3.org/2000/svg" xmlns:xlink="http://www.w3.org/1999/xlink"
xmlns:cml="http://www.xml-cml.org/schema" x="0" y="0" width="200px" height="200px" viewBox="0 0 100 100">
<title> - Open Babel Depiction</title>
<rect x="0" y="0" width="100" height="100" fill="white"/>
<g transform="translate(0,0)">
<svg width="100" height="100" x="0" y="0" viewBox="0 0 428 268.153"
font-family="sans-serif" stroke="rgb(0,0,0)" stroke-width="2"  stroke-linecap="round">
<line x1="53.0" y1="189.5" x2="78.7" y2="189.5" stroke="rgb(0,0,0)"  stroke-width="2.0"/>
<line x1="156.0" y1="189.5" x2="220.3" y2="189.5" stroke="rgb(0,0,0)"  stroke-width="2.0"/>
<line x1="236.3" y1="202.5" x2="236.3" y2="215.2" stroke="rgb(0,0,0)"  stroke-width="2.0"/>
<line x1="230.3" y1="202.5" x2="230.3" y2="215.2" stroke="rgb(0,0,0)"  stroke-width="2.0"/>
<line x1="246.3" y1="186.5" x2="259.0" y2="186.5" stroke="rgb(0,0,0)"  stroke-width="2.0"/>
<line x1="246.3" y1="192.5" x2="259.0" y2="192.5" stroke="rgb(0,0,0)"  stroke-width="2.0"/>
<line x1="233.3" y1="176.5" x2="233.3" y2="163.8" stroke="rgb(0,0,0)"  stroke-width="2.0"/>
<line x1="233.3" y1="137.8" x2="233.3" y2="125.2" stroke="rgb(0,0,0)"  stroke-width="2.0"/>
<line x1="246.3" y1="112.2" x2="272.0" y2="112.2" stroke="rgb(0,0,0)"  stroke-width="2.0"/>
<line x1="349.3" y1="112.2" x2="375.0" y2="112.2" stroke="rgb(0,0,0)"  stroke-width="2.0"/>
<line x1="230.3" y1="99.2" x2="230.3" y2="86.5" stroke="rgb(0,0,0)"  stroke-width="2.0"/>
<line x1="236.3" y1="99.2" x2="236.3" y2="86.5" stroke="rgb(0,0,0)"  stroke-width="2.0"/>
<line x1="220.3" y1="115.2" x2="207.7" y2="115.2" stroke="rgb(0,0,0)"  stroke-width="2.0"/>
<line x1="220.3" y1="109.2" x2="207.7" y2="109.2" stroke="rgb(0,0,0)"  stroke-width="2.0"/>
<line x1="181.7" y1="112.2" x2="169.0" y2="112.2" stroke="rgb(0,0,0)"  stroke-width="2.0"/>
<line x1="156.0" y1="99.2" x2="156.0" y2="73.5" stroke="rgb(0,0,0)"  stroke-width="2.0"/>
<line x1="156.0" y1="73.5" x2="143.2" y2="51.3" stroke="rgb(0,0,0)"  stroke-width="2.0"/>
<line x1="156.0" y1="73.5" x2="130.3" y2="73.5" stroke="rgb(0,0,0)"  stroke-width="2.0"/>
<line x1="156.0" y1="73.5" x2="178.2" y2="60.7" stroke="rgb(0,0,0)"  stroke-width="2.0"/>
<line x1="143.0" y1="115.2" x2="130.3" y2="115.2" stroke="rgb(0,0,0)"  stroke-width="2.0"/>
<line x1="143.0" y1="109.2" x2="130.3" y2="109.2" stroke="rgb(0,0,0)"  stroke-width="2.0"/>
<line x1="159.0" y1="125.2" x2="159.0" y2="137.8" stroke="rgb(0,0,0)"  stroke-width="2.0"/>
<line x1="153.0" y1="125.2" x2="153.0" y2="137.8" stroke="rgb(0,0,0)"  stroke-width="2.0"/>
<line x1="136.7" y1="156.0" x2="156.0" y2="189.5" stroke="rgb(0,0,0)"  stroke-width="2.0"/>
<line x1="133.4" y1="164.8" x2="146.8" y2="187.9" stroke="rgb(0,0,0)"  stroke-width="2.0"/>
<line x1="156.0" y1="189.5" x2="136.7" y2="223.0" stroke="rgb(0,0,0)"  stroke-width="2.0"/>
<line x1="136.7" y1="223.0" x2="98.0" y2="223.0" stroke="rgb(0,0,0)"  stroke-width="2.0"/>
<line x1="130.7" y1="215.8" x2="104.0" y2="215.8" stroke="rgb(0,0,0)"  stroke-width="2.0"/>
<line x1="98.0" y1="223.0" x2="78.7" y2="189.5" stroke="rgb(0,0,0)"  stroke-width="2.0"/>
<line x1="78.7" y1="189.5" x2="98.0" y2="156.0" stroke="rgb(0,0,0)"  stroke-width="2.0"/>
<line x1="87.9" y1="187.9" x2="101.2" y2="164.8" stroke="rgb(0,0,0)"  stroke-width="2.0"/>
<line x1="98.0" y1="156.0" x2="136.7" y2="156.0" stroke="rgb(0,0,0)"  stroke-width="2.0"/>
<line x1="291.3" y1="78.7" x2="272.0" y2="112.2" stroke="rgb(0,0,0)"  stroke-width="2.0"/>
<line x1="294.6" y1="87.5" x2="281.2" y2="110.6" stroke="rgb(0,0,0)"  stroke-width="2.0"/>
<line x1="272.0" y1="112.2" x2="291.3" y2="145.6" stroke="rgb(0,0,0)"  stroke-width="2.0"/>
<line x1="291.3" y1="145.6" x2="330.0" y2="145.6" stroke="rgb(0,0,0)"  stroke-width="2.0"/>
<line x1="297.3" y1="138.4" x2="324.0" y2="138.4" stroke="rgb(0,0,0)"  stroke-width="2.0"/>
<line x1="330.0" y1="145.6" x2="349.3" y2="112.2" stroke="rgb(0,0,0)"  stroke-width="2.0"/>
<line x1="349.3" y1="112.2" x2="330.0" y2="78.7" stroke="rgb(0,0,0)"  stroke-width="2.0"/>
<line x1="340.1" y1="110.6" x2="326.8" y2="87.5" stroke="rgb(0,0,0)"  stroke-width="2.0"/>
<line x1="330.0" y1="78.7" x2="291.3" y2="78.7" stroke="rgb(0,0,0)"  stroke-width="2.0"/>
<text x="150.000000" y="158.819649" fill="rgb(255,12,12)"  stroke="rgb(255,12,12)" stroke-width="1" font-size="16" >O</text>
<text x="111.333333" y="120.152982" fill="rgb(255,12,12)"  stroke="rgb(255,12,12)" stroke-width="1" font-size="16" >O</text>
<text x="183.486316" y="62.152982" fill="rgb(127,178,255)"  stroke="rgb(127,178,255)" stroke-width="1" font-size="16" >F</text>
<text x="111.333333" y="81.486316" fill="rgb(127,178,255)"  stroke="rgb(127,178,255)" stroke-width="1" font-size="16" >F</text>
<text x="130.666667" y="48.000000" fill="rgb(127,178,255)"  stroke="rgb(127,178,255)" stroke-width="1" font-size="16" >F</text>
<text x="150.000000" y="120.152982" fill="rgb(178,178,0)"  stroke="rgb(178,178,0)" stroke-width="1" font-size="16" >S</text>
<text x="188.666667" y="120.152982" fill="rgb(12,12,255)"  stroke="rgb(12,12,255)" stroke-width="1" font-size="16" >N</text>
<text x="227.333333" y="81.486316" fill="rgb(255,12,12)"  stroke="rgb(255,12,12)" stroke-width="1" font-size="16" >O</text>
<text x="382.000000" y="120.152982" fill="rgb(30,239,30)"  stroke="rgb(30,239,30)" stroke-width="1" font-size="16" >Cl</text>
<text x="22.000000" y="197.486316" fill="rgb(30,239,30)"  stroke="rgb(30,239,30)" stroke-width="1" font-size="16" >Cl</text>
<text x="227.333333" y="120.152982" fill="rgb(178,178,0)"  stroke="rgb(178,178,0)" stroke-width="1" font-size="16" >S</text>
<text x="227.333333" y="158.819649" fill="rgb(12,12,255)"  stroke="rgb(12,12,255)" stroke-width="1" font-size="16" >NH</text>
<text x="266.000000" y="197.486316" fill="rgb(255,12,12)"  stroke="rgb(255,12,12)" stroke-width="1" font-size="16" >O</text>
<text x="227.333333" y="236.152982" fill="rgb(255,12,12)"  stroke="rgb(255,12,12)" stroke-width="1" font-size="16" >O</text>
<text x="227.333333" y="197.486316" fill="rgb(178,178,0)"  stroke="rgb(178,178,0)" stroke-width="1" font-size="16" >S</text>
</svg>
</g>
<text font-size="18.000000" fill ="black" font-family="sans-serif"
x="10.000000" y="20.000000" ></text>
</svg>
