<?xml version="1.0"?>
<svg version="1.1" id="topsvg"
xmlns="http://www.w3.org/2000/svg" xmlns:xlink="http://www.w3.org/1999/xlink"
xmlns:cml="http://www.xml-cml.org/schema" x="0" y="0" width="200px" height="200px" viewBox="0 0 100 100">
<title> - Open Babel Depiction</title>
<rect x="0" y="0" width="100" height="100" fill="white"/>
<g transform="translate(0,0)">
<svg width="100" height="100" x="0" y="0" viewBox="0 0 287.846 280"
font-family="sans-serif" stroke="rgb(0,0,0)" stroke-width="2"  stroke-linecap="round">
<line x1="236.6" y1="53.5" x2="213.2" y2="40.0" stroke="rgb(0,0,0)"  stroke-width="2.0"/>
<line x1="213.2" y1="40.0" x2="178.6" y2="60.0" stroke="rgb(0,0,0)"  stroke-width="2.0"/>
<line x1="178.6" y1="60.0" x2="178.6" y2="87.0" stroke="rgb(0,0,0)"  stroke-width="2.0"/>
<line x1="167.3" y1="106.5" x2="143.9" y2="120.0" stroke="rgb(0,0,0)"  stroke-width="2.0"/>
<line x1="143.9" y1="120.0" x2="143.9" y2="160.0" stroke="rgb(0,0,0)"  stroke-width="2.0"/>
<line x1="143.9" y1="160.0" x2="120.5" y2="173.5" stroke="rgb(0,0,0)"  stroke-width="2.0"/>
<line x1="74.6" y1="240.0" x2="51.3" y2="226.5" stroke="rgb(0,0,0)"  stroke-width="2.0"/>
<line x1="40.0" y1="207.0" x2="40.0" y2="180.0" stroke="rgb(0,0,0)"  stroke-width="2.0"/>
<line x1="40.0" y1="180.0" x2="74.6" y2="160.0" stroke="rgb(0,0,0)"  stroke-width="2.0"/>
<line x1="74.6" y1="160.0" x2="98.0" y2="173.5" stroke="rgb(0,0,0)"  stroke-width="2.0"/>
<line x1="109.3" y1="193.0" x2="109.3" y2="220.0" stroke="rgb(0,0,0)"  stroke-width="2.0"/>
<line x1="109.3" y1="220.0" x2="74.6" y2="240.0" stroke="rgb(0,0,0)"  stroke-width="2.0"/>
<text x="243.846097" y="68.000000" fill="rgb(12,12,255)"  stroke="rgb(12,12,255)" stroke-width="1" font-size="16" >NH</text>
<text x="267.846097" y="71.680000" fill="rgb(12,12,255)"  stroke="rgb(12,12,255)" stroke-width="1" font-size="13" >2</text>
<text x="172.564065" y="108.000000" fill="rgb(255,12,12)"  stroke="rgb(255,12,12)" stroke-width="1" font-size="16" >O</text>
<text x="103.282032" y="188.000000" fill="rgb(12,12,255)"  stroke="rgb(12,12,255)" stroke-width="1" font-size="16" >N</text>
<text x="34.000000" y="228.000000" fill="rgb(255,12,12)"  stroke="rgb(255,12,12)" stroke-width="1" font-size="16" >O</text>
</svg>
</g>
<text font-size="18.000000" fill ="black" font-family="sans-serif"
x="10.000000" y="20.000000" ></text>
</svg>
