<?xml version="1.0"?>
<svg version="1.1" id="topsvg"
xmlns="http://www.w3.org/2000/svg" xmlns:xlink="http://www.w3.org/1999/xlink"
xmlns:cml="http://www.xml-cml.org/schema" x="0" y="0" width="200px" height="200px" viewBox="0 0 100 100">
<title> - Open Babel Depiction</title>
<rect x="0" y="0" width="100" height="100" fill="white"/>
<g transform="translate(0,0)">
<svg width="100" height="100" x="0" y="0" viewBox="0 0 434.854 298.238"
font-family="sans-serif" stroke="rgb(0,0,0)" stroke-width="2"  stroke-linecap="round">
<line x1="40.0" y1="193.8" x2="40.8" y2="237.2" stroke="rgb(0,0,0)"  stroke-width="2.0"/>
<line x1="47.3" y1="199.6" x2="47.9" y2="231.1" stroke="rgb(0,0,0)"  stroke-width="2.0"/>
<line x1="40.8" y1="237.2" x2="78.8" y2="258.2" stroke="rgb(0,0,0)"  stroke-width="2.0"/>
<line x1="78.8" y1="258.2" x2="116.1" y2="235.8" stroke="rgb(0,0,0)"  stroke-width="2.0"/>
<line x1="80.3" y1="249.0" x2="107.2" y2="232.7" stroke="rgb(0,0,0)"  stroke-width="2.0"/>
<line x1="116.1" y1="235.8" x2="115.2" y2="192.4" stroke="rgb(0,0,0)"  stroke-width="2.0"/>
<line x1="115.2" y1="192.4" x2="77.2" y2="171.3" stroke="rgb(0,0,0)"  stroke-width="2.0"/>
<line x1="106.5" y1="195.8" x2="79.0" y2="180.6" stroke="rgb(0,0,0)"  stroke-width="2.0"/>
<line x1="77.2" y1="171.3" x2="40.0" y2="193.8" stroke="rgb(0,0,0)"  stroke-width="2.0"/>
<line x1="265.0" y1="191.8" x2="227.5" y2="170.1" stroke="rgb(0,0,0)"  stroke-width="2.0"/>
<line x1="256.2" y1="195.0" x2="229.1" y2="179.3" stroke="rgb(0,0,0)"  stroke-width="2.0"/>
<line x1="227.5" y1="170.1" x2="190.4" y2="191.8" stroke="rgb(0,0,0)"  stroke-width="2.0"/>
<line x1="190.4" y1="191.8" x2="190.4" y2="235.4" stroke="rgb(0,0,0)"  stroke-width="2.0"/>
<line x1="190.4" y1="235.4" x2="228.1" y2="256.3" stroke="rgb(0,0,0)"  stroke-width="2.0"/>
<line x1="228.1" y1="256.3" x2="265.2" y2="234.7" stroke="rgb(0,0,0)"  stroke-width="2.0"/>
<line x1="229.7" y1="247.1" x2="256.4" y2="231.5" stroke="rgb(0,0,0)"  stroke-width="2.0"/>
<line x1="265.2" y1="234.7" x2="265.0" y2="191.8" stroke="rgb(0,0,0)"  stroke-width="2.0"/>
<line x1="190.4" y1="191.8" x2="152.5" y2="170.6" stroke="rgb(0,0,0)"  stroke-width="2.0"/>
<line x1="181.6" y1="195.1" x2="154.3" y2="179.8" stroke="rgb(0,0,0)"  stroke-width="2.0"/>
<line x1="152.5" y1="170.6" x2="115.2" y2="192.4" stroke="rgb(0,0,0)"  stroke-width="2.0"/>
<line x1="116.1" y1="235.8" x2="153.1" y2="257.2" stroke="rgb(0,0,0)"  stroke-width="2.0"/>
<line x1="153.1" y1="257.2" x2="190.4" y2="235.4" stroke="rgb(0,0,0)"  stroke-width="2.0"/>
<line x1="154.7" y1="247.9" x2="181.6" y2="232.2" stroke="rgb(0,0,0)"  stroke-width="2.0"/>
<line x1="339.0" y1="61.3" x2="339.3" y2="104.6" stroke="rgb(0,0,0)"  stroke-width="2.0"/>
<line x1="339.3" y1="104.6" x2="302.1" y2="126.5" stroke="rgb(0,0,0)"  stroke-width="2.0"/>
<line x1="302.1" y1="126.5" x2="264.4" y2="105.2" stroke="rgb(0,0,0)"  stroke-width="2.0"/>
<line x1="264.4" y1="105.2" x2="264.1" y2="61.9" stroke="rgb(0,0,0)"  stroke-width="2.0"/>
<line x1="264.1" y1="61.9" x2="301.3" y2="40.0" stroke="rgb(0,0,0)"  stroke-width="2.0"/>
<line x1="272.9" y1="65.1" x2="299.8" y2="49.2" stroke="rgb(0,0,0)"  stroke-width="2.0"/>
<line x1="301.3" y1="40.0" x2="339.0" y2="61.3" stroke="rgb(0,0,0)"  stroke-width="2.0"/>
<line x1="302.1" y1="126.5" x2="302.3" y2="170.0" stroke="rgb(0,0,0)"  stroke-width="2.0"/>
<line x1="294.9" y1="132.5" x2="295.1" y2="164.0" stroke="rgb(0,0,0)"  stroke-width="2.0"/>
<line x1="302.3" y1="170.0" x2="265.0" y2="191.8" stroke="rgb(0,0,0)"  stroke-width="2.0"/>
<line x1="227.5" y1="170.1" x2="227.1" y2="127.0" stroke="rgb(0,0,0)"  stroke-width="2.0"/>
<line x1="227.1" y1="127.0" x2="264.4" y2="105.2" stroke="rgb(0,0,0)"  stroke-width="2.0"/>
<line x1="235.9" y1="130.2" x2="262.9" y2="114.4" stroke="rgb(0,0,0)"  stroke-width="2.0"/>
<line x1="152.5" y1="170.6" x2="152.8" y2="127.4" stroke="rgb(0,0,0)"  stroke-width="2.0"/>
<line x1="152.8" y1="127.4" x2="189.9" y2="105.8" stroke="rgb(0,0,0)"  stroke-width="2.0"/>
<line x1="161.6" y1="130.6" x2="188.3" y2="115.0" stroke="rgb(0,0,0)"  stroke-width="2.0"/>
<line x1="189.9" y1="105.8" x2="227.1" y2="127.0" stroke="rgb(0,0,0)"  stroke-width="2.0"/>
<line x1="361.8" y1="160.5" x2="334.3" y2="179.6" stroke="rgb(0,0,0)"  stroke-width="2.0"/>
<line x1="334.3" y1="179.6" x2="302.3" y2="170.0" stroke="rgb(0,0,0)"  stroke-width="2.0"/>
<line x1="339.3" y1="104.6" x2="364.0" y2="127.1" stroke="rgb(0,0,0)"  stroke-width="2.0"/>
<line x1="338.9" y1="113.9" x2="354.8" y2="128.4" stroke="rgb(0,0,0)"  stroke-width="2.0"/>
<line x1="364.0" y1="127.1" x2="361.8" y2="160.5" stroke="rgb(0,0,0)"  stroke-width="2.0"/>
<line x1="370.0" y1="57.0" x2="339.0" y2="61.3" stroke="rgb(0,0,0)"  stroke-width="2.0"/>
<line x1="365.1" y1="64.9" x2="345.9" y2="67.6" stroke="rgb(0,0,0)"  stroke-width="2.0"/>
<line x1="364.0" y1="127.1" x2="390.1" y2="109.7" stroke="rgb(0,0,0)"  stroke-width="2.0"/>
<line x1="390.1" y1="109.7" x2="392.8" y2="78.5" stroke="rgb(0,0,0)"  stroke-width="2.0"/>
<line x1="383.4" y1="103.1" x2="385.1" y2="83.9" stroke="rgb(0,0,0)"  stroke-width="2.0"/>
<line x1="392.8" y1="78.5" x2="370.0" y2="57.0" stroke="rgb(0,0,0)"  stroke-width="2.0"/>
<line x1="337.1" y1="212.9" x2="367.4" y2="227.2" stroke="rgb(0,0,0)"  stroke-width="2.0"/>
<line x1="367.4" y1="227.2" x2="394.9" y2="208.1" stroke="rgb(0,0,0)"  stroke-width="2.0"/>
<line x1="368.2" y1="217.8" x2="385.8" y2="205.6" stroke="rgb(0,0,0)"  stroke-width="2.0"/>
<line x1="394.9" y1="208.1" x2="392.1" y2="174.7" stroke="rgb(0,0,0)"  stroke-width="2.0"/>
<line x1="392.1" y1="174.7" x2="361.8" y2="160.5" stroke="rgb(0,0,0)"  stroke-width="2.0"/>
<line x1="383.6" y1="178.7" x2="364.2" y2="169.6" stroke="rgb(0,0,0)"  stroke-width="2.0"/>
<line x1="334.3" y1="179.6" x2="337.1" y2="212.9" stroke="rgb(0,0,0)"  stroke-width="2.0"/>
<line x1="342.0" y1="184.9" x2="343.8" y2="206.3" stroke="rgb(0,0,0)"  stroke-width="2.0"/>
</svg>
</g>
<text font-size="18.000000" fill ="black" font-family="sans-serif"
x="10.000000" y="20.000000" ></text>
</svg>
