<?xml version="1.0"?>
<svg version="1.1" id="topsvg"
xmlns="http://www.w3.org/2000/svg" xmlns:xlink="http://www.w3.org/1999/xlink"
xmlns:cml="http://www.xml-cml.org/schema" x="0" y="0" width="200px" height="200px" viewBox="0 0 100 100">
<title> - Open Babel Depiction</title>
<rect x="0" y="0" width="100" height="100" fill="white"/>
<g transform="translate(0,0)">
<svg width="100" height="100" x="0" y="0" viewBox="0 0 397.128 334.641"
font-family="sans-serif" stroke="rgb(0,0,0)" stroke-width="2"  stroke-linecap="round">
<line x1="229.8" y1="61.1" x2="253.2" y2="74.6" stroke="rgb(0,0,0)"  stroke-width="2.0"/>
<line x1="253.2" y1="74.6" x2="280.2" y2="74.6" stroke="rgb(0,0,0)"  stroke-width="2.0"/>
<line x1="253.2" y1="74.6" x2="266.7" y2="51.3" stroke="rgb(0,0,0)"  stroke-width="2.0"/>
<line x1="253.2" y1="74.6" x2="253.2" y2="114.6" stroke="rgb(0,0,0)"  stroke-width="2.0"/>
<line x1="253.2" y1="114.6" x2="229.8" y2="128.1" stroke="rgb(0,0,0)"  stroke-width="2.0"/>
<line x1="138.0" y1="181.1" x2="114.6" y2="194.6" stroke="rgb(0,0,0)"  stroke-width="2.0"/>
<line x1="114.6" y1="194.6" x2="80.0" y2="174.6" stroke="rgb(0,0,0)"  stroke-width="2.0"/>
<line x1="80.0" y1="174.6" x2="53.0" y2="174.6" stroke="rgb(0,0,0)"  stroke-width="2.0"/>
<line x1="80.0" y1="174.6" x2="66.5" y2="198.0" stroke="rgb(0,0,0)"  stroke-width="2.0"/>
<line x1="80.0" y1="174.6" x2="80.0" y2="147.6" stroke="rgb(0,0,0)"  stroke-width="2.0"/>
<line x1="114.6" y1="194.6" x2="114.6" y2="221.6" stroke="rgb(0,0,0)"  stroke-width="2.0"/>
<line x1="103.4" y1="241.1" x2="80.0" y2="254.6" stroke="rgb(0,0,0)"  stroke-width="2.0"/>
<line x1="83.0" y1="254.6" x2="83.0" y2="281.6" stroke="rgb(0,0,0)"  stroke-width="2.0"/>
<line x1="77.0" y1="254.6" x2="77.0" y2="281.6" stroke="rgb(0,0,0)"  stroke-width="2.0"/>
<line x1="253.2" y1="114.6" x2="276.6" y2="128.1" stroke="rgb(0,0,0)"  stroke-width="2.0"/>
<line x1="299.1" y1="128.1" x2="322.5" y2="114.6" stroke="rgb(0,0,0)"  stroke-width="2.0"/>
<line x1="324.0" y1="112.0" x2="347.4" y2="125.5" stroke="rgb(0,0,0)"  stroke-width="2.0"/>
<line x1="321.0" y1="117.2" x2="344.4" y2="130.7" stroke="rgb(0,0,0)"  stroke-width="2.0"/>
<line x1="183.9" y1="194.6" x2="160.5" y2="181.1" stroke="rgb(0,0,0)"  stroke-width="2.0"/>
<line x1="149.3" y1="161.6" x2="149.3" y2="134.6" stroke="rgb(0,0,0)"  stroke-width="2.0"/>
<line x1="149.3" y1="134.6" x2="183.9" y2="114.6" stroke="rgb(0,0,0)"  stroke-width="2.0"/>
<line x1="183.9" y1="114.6" x2="207.3" y2="128.1" stroke="rgb(0,0,0)"  stroke-width="2.0"/>
<line x1="218.6" y1="147.6" x2="218.6" y2="174.6" stroke="rgb(0,0,0)"  stroke-width="2.0"/>
<line x1="218.6" y1="174.6" x2="183.9" y2="194.6" stroke="rgb(0,0,0)"  stroke-width="2.0"/>
<text x="351.128129" y="142.641016" fill="rgb(255,12,12)"  stroke="rgb(255,12,12)" stroke-width="1" font-size="16" >O</text>
<text x="281.846097" y="142.641016" fill="rgb(12,12,255)"  stroke="rgb(12,12,255)" stroke-width="1" font-size="16" >N</text>
<text x="281.846097" y="158.641016" fill="rgb(12,12,255)"  stroke="rgb(12,12,255)" stroke-width="1" font-size="16" >H</text>
<text x="74.000000" y="302.641016" fill="rgb(255,12,12)"  stroke="rgb(255,12,12)" stroke-width="1" font-size="16" >O</text>
<text x="108.641016" y="242.641016" fill="rgb(12,12,255)"  stroke="rgb(12,12,255)" stroke-width="1" font-size="16" >NH</text>
<text x="74.000000" y="142.641016" fill="rgb(30,239,30)"  stroke="rgb(30,239,30)" stroke-width="1" font-size="16" >Cl</text>
<text x="42.000000" y="217.282032" fill="rgb(30,239,30)"  stroke="rgb(30,239,30)" stroke-width="1" font-size="16" >Cl</text>
<text x="22.000000" y="182.641016" fill="rgb(30,239,30)"  stroke="rgb(30,239,30)" stroke-width="1" font-size="16" >Cl</text>
<text x="200.564065" y="62.641016" fill="rgb(30,239,30)"  stroke="rgb(30,239,30)" stroke-width="1" font-size="16" >Cl</text>
<text x="143.282032" y="182.641016" fill="rgb(12,12,255)"  stroke="rgb(12,12,255)" stroke-width="1" font-size="16" >N</text>
<text x="212.564065" y="142.641016" fill="rgb(12,12,255)"  stroke="rgb(12,12,255)" stroke-width="1" font-size="16" >N</text>
<text x="267.205081" y="48.000000" fill="rgb(30,239,30)"  stroke="rgb(30,239,30)" stroke-width="1" font-size="16" >Cl</text>
<text x="287.205081" y="82.641016" fill="rgb(30,239,30)"  stroke="rgb(30,239,30)" stroke-width="1" font-size="16" >Cl</text>
</svg>
</g>
<text font-size="18.000000" fill ="black" font-family="sans-serif"
x="10.000000" y="20.000000" ></text>
</svg>
