<?xml version="1.0"?>
<svg version="1.1" id="topsvg"
xmlns="http://www.w3.org/2000/svg" xmlns:xlink="http://www.w3.org/1999/xlink"
xmlns:cml="http://www.xml-cml.org/schema" x="0" y="0" width="200px" height="200px" viewBox="0 0 100 100">
<title> - Open Babel Depiction</title>
<rect x="0" y="0" width="100" height="100" fill="white"/>
<g transform="translate(0,0)">
<svg width="100" height="100" x="0" y="0" viewBox="0 0 426.41 383.923"
font-family="sans-serif" stroke="rgb(0,0,0)" stroke-width="2"  stroke-linecap="round">
<line x1="262.5" y1="274.6" x2="282.5" y2="240.0" stroke="rgb(0,0,0)"  stroke-width="2.0"/>
<line x1="282.5" y1="240.0" x2="317.1" y2="260.0" stroke="rgb(0,0,0)"  stroke-width="2.0"/>
<line x1="282.5" y1="240.0" x2="302.5" y2="205.4" stroke="rgb(0,0,0)"  stroke-width="2.0"/>
<line x1="282.5" y1="240.0" x2="247.8" y2="220.0" stroke="rgb(0,0,0)"  stroke-width="2.0"/>
<line x1="177.1" y1="182.6" x2="142.4" y2="162.6" stroke="rgb(0,0,0)"  stroke-width="2.0"/>
<line x1="180.1" y1="177.4" x2="145.4" y2="157.4" stroke="rgb(0,0,0)"  stroke-width="2.0"/>
<line x1="143.9" y1="160.0" x2="143.9" y2="120.0" stroke="rgb(0,0,0)"  stroke-width="2.0"/>
<line x1="143.9" y1="160.0" x2="109.3" y2="180.0" stroke="rgb(0,0,0)"  stroke-width="2.0"/>
<line x1="202.5" y1="309.3" x2="222.5" y2="343.9" stroke="rgb(0,0,0)"  stroke-width="2.0"/>
<line x1="211.7" y1="310.9" x2="225.7" y2="335.1" stroke="rgb(0,0,0)"  stroke-width="2.0"/>
<line x1="222.5" y1="343.9" x2="262.5" y2="343.9" stroke="rgb(0,0,0)"  stroke-width="2.0"/>
<line x1="262.5" y1="343.9" x2="282.5" y2="309.3" stroke="rgb(0,0,0)"  stroke-width="2.0"/>
<line x1="259.3" y1="335.1" x2="273.3" y2="310.9" stroke="rgb(0,0,0)"  stroke-width="2.0"/>
<line x1="282.5" y1="309.3" x2="262.5" y2="274.6" stroke="rgb(0,0,0)"  stroke-width="2.0"/>
<line x1="262.5" y1="274.6" x2="222.5" y2="274.6" stroke="rgb(0,0,0)"  stroke-width="2.0"/>
<line x1="256.5" y1="281.8" x2="228.5" y2="281.8" stroke="rgb(0,0,0)"  stroke-width="2.0"/>
<line x1="222.5" y1="274.6" x2="202.5" y2="309.3" stroke="rgb(0,0,0)"  stroke-width="2.0"/>
<line x1="386.4" y1="260.0" x2="386.4" y2="300.0" stroke="rgb(0,0,0)"  stroke-width="2.0"/>
<line x1="379.2" y1="266.0" x2="379.2" y2="294.0" stroke="rgb(0,0,0)"  stroke-width="2.0"/>
<line x1="386.4" y1="300.0" x2="351.8" y2="320.0" stroke="rgb(0,0,0)"  stroke-width="2.0"/>
<line x1="351.8" y1="320.0" x2="317.1" y2="300.0" stroke="rgb(0,0,0)"  stroke-width="2.0"/>
<line x1="350.2" y1="310.8" x2="325.9" y2="296.8" stroke="rgb(0,0,0)"  stroke-width="2.0"/>
<line x1="317.1" y1="300.0" x2="317.1" y2="260.0" stroke="rgb(0,0,0)"  stroke-width="2.0"/>
<line x1="317.1" y1="260.0" x2="351.8" y2="240.0" stroke="rgb(0,0,0)"  stroke-width="2.0"/>
<line x1="325.9" y1="263.2" x2="350.2" y2="249.2" stroke="rgb(0,0,0)"  stroke-width="2.0"/>
<line x1="351.8" y1="240.0" x2="386.4" y2="260.0" stroke="rgb(0,0,0)"  stroke-width="2.0"/>
<line x1="302.5" y1="136.1" x2="342.5" y2="136.1" stroke="rgb(0,0,0)"  stroke-width="2.0"/>
<line x1="308.5" y1="143.3" x2="336.5" y2="143.3" stroke="rgb(0,0,0)"  stroke-width="2.0"/>
<line x1="342.5" y1="136.1" x2="362.5" y2="170.7" stroke="rgb(0,0,0)"  stroke-width="2.0"/>
<line x1="362.5" y1="170.7" x2="342.5" y2="205.4" stroke="rgb(0,0,0)"  stroke-width="2.0"/>
<line x1="353.3" y1="172.3" x2="339.3" y2="196.6" stroke="rgb(0,0,0)"  stroke-width="2.0"/>
<line x1="342.5" y1="205.4" x2="302.5" y2="205.4" stroke="rgb(0,0,0)"  stroke-width="2.0"/>
<line x1="302.5" y1="205.4" x2="282.5" y2="170.7" stroke="rgb(0,0,0)"  stroke-width="2.0"/>
<line x1="305.7" y1="196.6" x2="291.7" y2="172.3" stroke="rgb(0,0,0)"  stroke-width="2.0"/>
<line x1="282.5" y1="170.7" x2="302.5" y2="136.1" stroke="rgb(0,0,0)"  stroke-width="2.0"/>
<line x1="109.3" y1="60.0" x2="143.9" y2="40.0" stroke="rgb(0,0,0)"  stroke-width="2.0"/>
<line x1="118.1" y1="63.2" x2="142.3" y2="49.2" stroke="rgb(0,0,0)"  stroke-width="2.0"/>
<line x1="143.9" y1="40.0" x2="178.6" y2="60.0" stroke="rgb(0,0,0)"  stroke-width="2.0"/>
<line x1="178.6" y1="60.0" x2="178.6" y2="100.0" stroke="rgb(0,0,0)"  stroke-width="2.0"/>
<line x1="171.4" y1="66.0" x2="171.4" y2="94.0" stroke="rgb(0,0,0)"  stroke-width="2.0"/>
<line x1="178.6" y1="100.0" x2="143.9" y2="120.0" stroke="rgb(0,0,0)"  stroke-width="2.0"/>
<line x1="143.9" y1="120.0" x2="109.3" y2="100.0" stroke="rgb(0,0,0)"  stroke-width="2.0"/>
<line x1="142.3" y1="110.8" x2="118.1" y2="96.8" stroke="rgb(0,0,0)"  stroke-width="2.0"/>
<line x1="109.3" y1="100.0" x2="109.3" y2="60.0" stroke="rgb(0,0,0)"  stroke-width="2.0"/>
<line x1="74.6" y1="240.0" x2="40.0" y2="220.0" stroke="rgb(0,0,0)"  stroke-width="2.0"/>
<line x1="73.0" y1="230.8" x2="48.8" y2="216.8" stroke="rgb(0,0,0)"  stroke-width="2.0"/>
<line x1="40.0" y1="220.0" x2="40.0" y2="180.0" stroke="rgb(0,0,0)"  stroke-width="2.0"/>
<line x1="40.0" y1="180.0" x2="74.6" y2="160.0" stroke="rgb(0,0,0)"  stroke-width="2.0"/>
<line x1="48.8" y1="183.2" x2="73.0" y2="169.2" stroke="rgb(0,0,0)"  stroke-width="2.0"/>
<line x1="74.6" y1="160.0" x2="109.3" y2="180.0" stroke="rgb(0,0,0)"  stroke-width="2.0"/>
<line x1="109.3" y1="180.0" x2="109.3" y2="220.0" stroke="rgb(0,0,0)"  stroke-width="2.0"/>
<line x1="102.1" y1="186.0" x2="102.1" y2="214.0" stroke="rgb(0,0,0)"  stroke-width="2.0"/>
<line x1="109.3" y1="220.0" x2="74.6" y2="240.0" stroke="rgb(0,0,0)"  stroke-width="2.0"/>
<line x1="178.6" y1="220.0" x2="178.6" y2="180.0" stroke="rgb(0,0,0)"  stroke-width="2.0"/>
<line x1="178.6" y1="180.0" x2="213.2" y2="160.0" stroke="rgb(0,0,0)"  stroke-width="2.0"/>
<line x1="213.2" y1="160.0" x2="247.8" y2="180.0" stroke="rgb(0,0,0)"  stroke-width="2.0"/>
<line x1="214.8" y1="169.2" x2="239.0" y2="183.2" stroke="rgb(0,0,0)"  stroke-width="2.0"/>
<line x1="247.8" y1="180.0" x2="247.8" y2="220.0" stroke="rgb(0,0,0)"  stroke-width="2.0"/>
<line x1="247.8" y1="220.0" x2="213.2" y2="240.0" stroke="rgb(0,0,0)"  stroke-width="2.0"/>
<line x1="213.2" y1="240.0" x2="178.6" y2="220.0" stroke="rgb(0,0,0)"  stroke-width="2.0"/>
<line x1="211.6" y1="230.8" x2="187.4" y2="216.8" stroke="rgb(0,0,0)"  stroke-width="2.0"/>
</svg>
</g>
<text font-size="18.000000" fill ="black" font-family="sans-serif"
x="10.000000" y="20.000000" ></text>
</svg>
