<?xml version="1.0"?>
<svg version="1.1" id="topsvg"
xmlns="http://www.w3.org/2000/svg" xmlns:xlink="http://www.w3.org/1999/xlink"
xmlns:cml="http://www.xml-cml.org/schema" x="0" y="0" width="200px" height="200px" viewBox="0 0 100 100">
<title> - Open Babel Depiction</title>
<rect x="0" y="0" width="100" height="100" fill="white"/>
<g transform="translate(0,0)">
<svg width="100" height="100" x="0" y="0" viewBox="0 0 461.051 680"
font-family="sans-serif" stroke="rgb(0,0,0)" stroke-width="2"  stroke-linecap="round">
<line x1="51.3" y1="626.5" x2="74.6" y2="640.0" stroke="rgb(0,0,0)"  stroke-width="2.0"/>
<line x1="74.6" y1="640.0" x2="109.3" y2="620.0" stroke="rgb(0,0,0)"  stroke-width="2.0"/>
<line x1="109.3" y1="620.0" x2="109.3" y2="580.0" stroke="rgb(0,0,0)"  stroke-width="2.0"/>
<line x1="109.3" y1="580.0" x2="143.9" y2="560.0" stroke="rgb(0,0,0)"  stroke-width="2.0"/>
<line x1="143.9" y1="560.0" x2="143.9" y2="520.0" stroke="rgb(0,0,0)"  stroke-width="2.0"/>
<line x1="143.9" y1="520.0" x2="178.6" y2="500.0" stroke="rgb(0,0,0)"  stroke-width="2.0"/>
<line x1="178.6" y1="500.0" x2="178.6" y2="473.0" stroke="rgb(0,0,0)"  stroke-width="2.0"/>
<line x1="189.8" y1="453.5" x2="213.2" y2="440.0" stroke="rgb(0,0,0)"  stroke-width="2.0"/>
<line x1="214.7" y1="437.4" x2="238.1" y2="450.9" stroke="rgb(0,0,0)"  stroke-width="2.0"/>
<line x1="211.7" y1="442.6" x2="235.1" y2="456.1" stroke="rgb(0,0,0)"  stroke-width="2.0"/>
<line x1="213.2" y1="440.0" x2="213.2" y2="400.0" stroke="rgb(0,0,0)"  stroke-width="2.0"/>
<line x1="213.2" y1="320.0" x2="213.2" y2="280.0" stroke="rgb(0,0,0)"  stroke-width="2.0"/>
<line x1="213.2" y1="280.0" x2="236.6" y2="266.5" stroke="rgb(0,0,0)"  stroke-width="2.0"/>
<line x1="247.8" y1="247.0" x2="247.8" y2="220.0" stroke="rgb(0,0,0)"  stroke-width="2.0"/>
<line x1="247.8" y1="220.0" x2="282.5" y2="200.0" stroke="rgb(0,0,0)"  stroke-width="2.0"/>
<line x1="282.5" y1="200.0" x2="282.5" y2="160.0" stroke="rgb(0,0,0)"  stroke-width="2.0"/>
<line x1="282.5" y1="160.0" x2="317.1" y2="140.0" stroke="rgb(0,0,0)"  stroke-width="2.0"/>
<line x1="317.1" y1="140.0" x2="317.1" y2="100.0" stroke="rgb(0,0,0)"  stroke-width="2.0"/>
<line x1="317.1" y1="100.0" x2="351.8" y2="80.0" stroke="rgb(0,0,0)"  stroke-width="2.0"/>
<line x1="351.8" y1="80.0" x2="351.8" y2="53.0" stroke="rgb(0,0,0)"  stroke-width="2.0"/>
<line x1="211.7" y1="282.6" x2="188.3" y2="269.1" stroke="rgb(0,0,0)"  stroke-width="2.0"/>
<line x1="214.7" y1="277.4" x2="191.3" y2="263.9" stroke="rgb(0,0,0)"  stroke-width="2.0"/>
<line x1="247.8" y1="380.0" x2="282.5" y2="400.0" stroke="rgb(0,0,0)"  stroke-width="2.0"/>
<line x1="282.5" y1="400.0" x2="282.5" y2="427.0" stroke="rgb(0,0,0)"  stroke-width="2.0"/>
<line x1="293.7" y1="446.5" x2="317.1" y2="460.0" stroke="rgb(0,0,0)"  stroke-width="2.0"/>
<line x1="317.1" y1="460.0" x2="351.8" y2="440.0" stroke="rgb(0,0,0)"  stroke-width="2.0"/>
<line x1="351.8" y1="440.0" x2="351.8" y2="400.0" stroke="rgb(0,0,0)"  stroke-width="2.0"/>
<line x1="351.8" y1="400.0" x2="386.4" y2="380.0" stroke="rgb(0,0,0)"  stroke-width="2.0"/>
<line x1="386.4" y1="380.0" x2="386.4" y2="340.0" stroke="rgb(0,0,0)"  stroke-width="2.0"/>
<line x1="386.4" y1="340.0" x2="421.1" y2="320.0" stroke="rgb(0,0,0)"  stroke-width="2.0"/>
<line x1="421.1" y1="320.0" x2="421.1" y2="293.0" stroke="rgb(0,0,0)"  stroke-width="2.0"/>
<line x1="281.0" y1="397.4" x2="304.4" y2="383.9" stroke="rgb(0,0,0)"  stroke-width="2.0"/>
<line x1="284.0" y1="402.6" x2="307.4" y2="389.1" stroke="rgb(0,0,0)"  stroke-width="2.0"/>
<line x1="178.6" y1="340.0" x2="213.2" y2="320.0" stroke="rgb(0,0,0)"  stroke-width="2.0"/>
<line x1="187.4" y1="343.2" x2="211.6" y2="329.2" stroke="rgb(0,0,0)"  stroke-width="2.0"/>
<line x1="213.2" y1="320.0" x2="247.8" y2="340.0" stroke="rgb(0,0,0)"  stroke-width="2.0"/>
<line x1="247.8" y1="340.0" x2="247.8" y2="380.0" stroke="rgb(0,0,0)"  stroke-width="2.0"/>
<line x1="240.6" y1="346.0" x2="240.6" y2="374.0" stroke="rgb(0,0,0)"  stroke-width="2.0"/>
<line x1="247.8" y1="380.0" x2="213.2" y2="400.0" stroke="rgb(0,0,0)"  stroke-width="2.0"/>
<line x1="213.2" y1="400.0" x2="178.6" y2="380.0" stroke="rgb(0,0,0)"  stroke-width="2.0"/>
<line x1="211.6" y1="390.8" x2="187.4" y2="376.8" stroke="rgb(0,0,0)"  stroke-width="2.0"/>
<line x1="178.6" y1="380.0" x2="178.6" y2="340.0" stroke="rgb(0,0,0)"  stroke-width="2.0"/>
<text x="276.487113" y="448.000000" fill="rgb(255,12,12)"  stroke="rgb(255,12,12)" stroke-width="1" font-size="16" >O</text>
<text x="347.769145" y="48.000000" fill="rgb(102,102,102)"  stroke="rgb(102,102,102)" stroke-width="1" font-size="16" >CH</text>
<text x="371.769145" y="51.680000" fill="rgb(102,102,102)"  stroke="rgb(102,102,102)" stroke-width="1" font-size="13" >3</text>
<text x="172.564065" y="268.000000" fill="rgb(255,12,12)"  stroke="rgb(255,12,12)" stroke-width="1" font-size="16" >O</text>
<text x="417.051178" y="288.000000" fill="rgb(102,102,102)"  stroke="rgb(102,102,102)" stroke-width="1" font-size="16" >CH</text>
<text x="441.051178" y="291.680000" fill="rgb(102,102,102)"  stroke="rgb(102,102,102)" stroke-width="1" font-size="13" >3</text>
<text x="311.128129" y="388.000000" fill="rgb(255,12,12)"  stroke="rgb(255,12,12)" stroke-width="1" font-size="16" >O</text>
<text x="241.846097" y="468.000000" fill="rgb(255,12,12)"  stroke="rgb(255,12,12)" stroke-width="1" font-size="16" >O</text>
<text x="172.564065" y="468.000000" fill="rgb(255,12,12)"  stroke="rgb(255,12,12)" stroke-width="1" font-size="16" >O</text>
<text x="14.000000" y="628.000000" fill="rgb(102,102,102)"  stroke="rgb(102,102,102)" stroke-width="1" font-size="16" >H</text>
<text x="26.000000" y="631.680000" fill="rgb(102,102,102)"  stroke="rgb(102,102,102)" stroke-width="1" font-size="13" >3</text>
<text x="32.500000" y="628.000000" fill="rgb(102,102,102)"  stroke="rgb(102,102,102)" stroke-width="1" font-size="16" >C</text>
<text x="241.846097" y="268.000000" fill="rgb(255,12,12)"  stroke="rgb(255,12,12)" stroke-width="1" font-size="16" >O</text>
</svg>
</g>
<text font-size="18.000000" fill ="black" font-family="sans-serif"
x="10.000000" y="20.000000" ></text>
</svg>
