<?xml version="1.0"?>
<svg version="1.1" id="topsvg"
xmlns="http://www.w3.org/2000/svg" xmlns:xlink="http://www.w3.org/1999/xlink"
xmlns:cml="http://www.xml-cml.org/schema" x="0" y="0" width="200px" height="200px" viewBox="0 0 100 100">
<title> - Open Babel Depiction</title>
<rect x="0" y="0" width="100" height="100" fill="white"/>
<g transform="translate(0,0)">
<svg width="100" height="100" x="0" y="0" viewBox="0 0 465.477 194.641"
font-family="sans-serif" stroke="rgb(0,0,0)" stroke-width="2"  stroke-linecap="round">
<line x1="80.0" y1="114.6" x2="80.0" y2="141.6" stroke="rgb(0,0,0)"  stroke-width="2.0"/>
<line x1="80.0" y1="114.6" x2="103.4" y2="128.1" stroke="rgb(0,0,0)"  stroke-width="2.0"/>
<line x1="80.0" y1="114.6" x2="53.0" y2="114.6" stroke="rgb(0,0,0)"  stroke-width="2.0"/>
<line x1="80.0" y1="114.6" x2="93.5" y2="91.3" stroke="rgb(0,0,0)"  stroke-width="2.0"/>
<line x1="113.0" y1="80.0" x2="140.0" y2="80.0" stroke="rgb(0,0,0)"  stroke-width="2.0"/>
<line x1="220.0" y1="80.0" x2="260.0" y2="80.0" stroke="rgb(0,0,0)"  stroke-width="2.0"/>
<line x1="390.8" y1="100.0" x2="414.2" y2="113.5" stroke="rgb(0,0,0)"  stroke-width="2.0"/>
<line x1="321.6" y1="60.0" x2="321.6" y2="100.0" stroke="rgb(0,0,0)"  stroke-width="2.0"/>
<line x1="314.4" y1="66.0" x2="314.4" y2="94.0" stroke="rgb(0,0,0)"  stroke-width="2.0"/>
<line x1="321.6" y1="100.0" x2="295.9" y2="108.3" stroke="rgb(0,0,0)"  stroke-width="2.0"/>
<line x1="275.9" y1="101.8" x2="260.0" y2="80.0" stroke="rgb(0,0,0)"  stroke-width="2.0"/>
<line x1="260.0" y1="80.0" x2="275.8" y2="58.3" stroke="rgb(0,0,0)"  stroke-width="2.0"/>
<line x1="269.4" y1="79.4" x2="280.4" y2="64.2" stroke="rgb(0,0,0)"  stroke-width="2.0"/>
<line x1="295.9" y1="51.7" x2="321.6" y2="60.0" stroke="rgb(0,0,0)"  stroke-width="2.0"/>
<line x1="200.0" y1="45.4" x2="220.0" y2="80.0" stroke="rgb(0,0,0)"  stroke-width="2.0"/>
<line x1="196.8" y1="54.2" x2="210.8" y2="78.4" stroke="rgb(0,0,0)"  stroke-width="2.0"/>
<line x1="220.0" y1="80.0" x2="200.0" y2="114.6" stroke="rgb(0,0,0)"  stroke-width="2.0"/>
<line x1="200.0" y1="114.6" x2="160.0" y2="114.6" stroke="rgb(0,0,0)"  stroke-width="2.0"/>
<line x1="194.0" y1="107.4" x2="166.0" y2="107.4" stroke="rgb(0,0,0)"  stroke-width="2.0"/>
<line x1="160.0" y1="114.6" x2="140.0" y2="80.0" stroke="rgb(0,0,0)"  stroke-width="2.0"/>
<line x1="140.0" y1="80.0" x2="160.0" y2="45.4" stroke="rgb(0,0,0)"  stroke-width="2.0"/>
<line x1="149.2" y1="78.4" x2="163.2" y2="54.2" stroke="rgb(0,0,0)"  stroke-width="2.0"/>
<line x1="160.0" y1="45.4" x2="200.0" y2="45.4" stroke="rgb(0,0,0)"  stroke-width="2.0"/>
<line x1="390.8" y1="60.0" x2="390.8" y2="100.0" stroke="rgb(0,0,0)"  stroke-width="2.0"/>
<line x1="390.8" y1="100.0" x2="356.2" y2="120.0" stroke="rgb(0,0,0)"  stroke-width="2.0"/>
<line x1="382.0" y1="96.8" x2="357.8" y2="110.8" stroke="rgb(0,0,0)"  stroke-width="2.0"/>
<line x1="356.2" y1="120.0" x2="321.6" y2="100.0" stroke="rgb(0,0,0)"  stroke-width="2.0"/>
<line x1="321.6" y1="60.0" x2="356.2" y2="40.0" stroke="rgb(0,0,0)"  stroke-width="2.0"/>
<line x1="356.2" y1="40.0" x2="390.8" y2="60.0" stroke="rgb(0,0,0)"  stroke-width="2.0"/>
<line x1="357.8" y1="49.2" x2="382.0" y2="63.2" stroke="rgb(0,0,0)"  stroke-width="2.0"/>
<text x="419.476719" y="128.000000" fill="rgb(255,12,12)"  stroke="rgb(255,12,12)" stroke-width="1" font-size="16" >OH</text>
<text x="277.511410" y="120.360680" fill="rgb(178,178,0)"  stroke="rgb(178,178,0)" stroke-width="1" font-size="16" >S</text>
<text x="277.511410" y="55.639320" fill="rgb(12,12,255)"  stroke="rgb(12,12,255)" stroke-width="1" font-size="16" >N</text>
<text x="94.000000" y="88.000000" fill="rgb(12,12,255)"  stroke="rgb(12,12,255)" stroke-width="1" font-size="16" >N</text>
<text x="94.000000" y="72.000000" fill="rgb(12,12,255)"  stroke="rgb(12,12,255)" stroke-width="1" font-size="16" >H</text>
<text x="34.000000" y="122.641016" fill="rgb(191,191,191)"  stroke="rgb(191,191,191)" stroke-width="1" font-size="16" >H</text>
<text x="108.641016" y="142.641016" fill="rgb(191,191,191)"  stroke="rgb(191,191,191)" stroke-width="1" font-size="16" >H</text>
<text x="74.000000" y="162.641016" fill="rgb(191,191,191)"  stroke="rgb(191,191,191)" stroke-width="1" font-size="16" >H</text>
</svg>
</g>
<text font-size="18.000000" fill ="black" font-family="sans-serif"
x="10.000000" y="20.000000" ></text>
</svg>
