<?xml version="1.0"?>
<svg version="1.1" id="topsvg"
xmlns="http://www.w3.org/2000/svg" xmlns:xlink="http://www.w3.org/1999/xlink"
xmlns:cml="http://www.xml-cml.org/schema" x="0" y="0" width="200px" height="200px" viewBox="0 0 100 100">
<title> - Open Babel Depiction</title>
<rect x="0" y="0" width="100" height="100" fill="white"/>
<g transform="translate(0,0)">
<svg width="100" height="100" x="0" y="0" viewBox="0 0 542.93 311.636"
font-family="sans-serif" stroke="rgb(0,0,0)" stroke-width="2"  stroke-linecap="round">
<line x1="317.8" y1="93.5" x2="286.9" y2="111.3" stroke="rgb(0,0,0)"  stroke-width="2.0"/>
<line x1="225.2" y1="146.9" x2="101.7" y2="218.2" stroke="rgb(0,0,0)"  stroke-width="2.0"/>
<line x1="256.0" y1="200.4" x2="225.2" y2="218.2" stroke="rgb(0,0,0)"  stroke-width="2.0"/>
<line x1="317.8" y1="164.7" x2="441.2" y2="93.5" stroke="rgb(0,0,0)"  stroke-width="2.0"/>
<line x1="379.5" y1="93.5" x2="379.5" y2="57.8" stroke="rgb(0,0,0)"  stroke-width="2.0"/>
<line x1="372.3" y1="87.5" x2="372.3" y2="63.8" stroke="rgb(0,0,0)"  stroke-width="2.0"/>
<line x1="379.5" y1="57.8" x2="348.6" y2="40.0" stroke="rgb(0,0,0)"  stroke-width="2.0"/>
<line x1="348.6" y1="40.0" x2="317.8" y2="57.8" stroke="rgb(0,0,0)"  stroke-width="2.0"/>
<line x1="347.0" y1="49.2" x2="326.6" y2="61.1" stroke="rgb(0,0,0)"  stroke-width="2.0"/>
<line x1="317.8" y1="57.8" x2="317.8" y2="93.5" stroke="rgb(0,0,0)"  stroke-width="2.0"/>
<line x1="317.8" y1="93.5" x2="348.6" y2="111.3" stroke="rgb(0,0,0)"  stroke-width="2.0"/>
<line x1="326.6" y1="90.2" x2="347.0" y2="102.0" stroke="rgb(0,0,0)"  stroke-width="2.0"/>
<line x1="348.6" y1="111.3" x2="379.5" y2="93.5" stroke="rgb(0,0,0)"  stroke-width="2.0"/>
<line x1="286.9" y1="111.3" x2="256.0" y2="93.5" stroke="rgb(0,0,0)"  stroke-width="2.0"/>
<line x1="278.1" y1="114.5" x2="257.6" y2="102.7" stroke="rgb(0,0,0)"  stroke-width="2.0"/>
<line x1="256.0" y1="93.5" x2="225.2" y2="111.3" stroke="rgb(0,0,0)"  stroke-width="2.0"/>
<line x1="225.2" y1="111.3" x2="225.2" y2="146.9" stroke="rgb(0,0,0)"  stroke-width="2.0"/>
<line x1="232.4" y1="117.3" x2="232.4" y2="140.9" stroke="rgb(0,0,0)"  stroke-width="2.0"/>
<line x1="225.2" y1="146.9" x2="256.0" y2="164.7" stroke="rgb(0,0,0)"  stroke-width="2.0"/>
<line x1="256.0" y1="164.7" x2="286.9" y2="146.9" stroke="rgb(0,0,0)"  stroke-width="2.0"/>
<line x1="257.6" y1="155.5" x2="278.1" y2="143.7" stroke="rgb(0,0,0)"  stroke-width="2.0"/>
<line x1="286.9" y1="146.9" x2="286.9" y2="111.3" stroke="rgb(0,0,0)"  stroke-width="2.0"/>
<line x1="225.2" y1="40.0" x2="194.3" y2="57.8" stroke="rgb(0,0,0)"  stroke-width="2.0"/>
<line x1="194.3" y1="57.8" x2="194.3" y2="93.5" stroke="rgb(0,0,0)"  stroke-width="2.0"/>
<line x1="201.5" y1="63.8" x2="201.5" y2="87.5" stroke="rgb(0,0,0)"  stroke-width="2.0"/>
<line x1="194.3" y1="93.5" x2="225.2" y2="111.3" stroke="rgb(0,0,0)"  stroke-width="2.0"/>
<line x1="256.0" y1="93.5" x2="256.0" y2="57.8" stroke="rgb(0,0,0)"  stroke-width="2.0"/>
<line x1="256.0" y1="57.8" x2="225.2" y2="40.0" stroke="rgb(0,0,0)"  stroke-width="2.0"/>
<line x1="247.2" y1="61.1" x2="226.8" y2="49.2" stroke="rgb(0,0,0)"  stroke-width="2.0"/>
<line x1="348.6" y1="253.8" x2="348.6" y2="218.2" stroke="rgb(0,0,0)"  stroke-width="2.0"/>
<line x1="341.4" y1="247.8" x2="341.4" y2="224.2" stroke="rgb(0,0,0)"  stroke-width="2.0"/>
<line x1="348.6" y1="218.2" x2="317.8" y2="200.4" stroke="rgb(0,0,0)"  stroke-width="2.0"/>
<line x1="317.8" y1="200.4" x2="286.9" y2="218.2" stroke="rgb(0,0,0)"  stroke-width="2.0"/>
<line x1="286.9" y1="218.2" x2="286.9" y2="253.8" stroke="rgb(0,0,0)"  stroke-width="2.0"/>
<line x1="286.9" y1="253.8" x2="317.8" y2="271.6" stroke="rgb(0,0,0)"  stroke-width="2.0"/>
<line x1="295.7" y1="250.6" x2="316.2" y2="262.4" stroke="rgb(0,0,0)"  stroke-width="2.0"/>
<line x1="317.8" y1="271.6" x2="348.6" y2="253.8" stroke="rgb(0,0,0)"  stroke-width="2.0"/>
<line x1="317.8" y1="200.4" x2="317.8" y2="164.7" stroke="rgb(0,0,0)"  stroke-width="2.0"/>
<line x1="310.6" y1="194.4" x2="310.6" y2="170.7" stroke="rgb(0,0,0)"  stroke-width="2.0"/>
<line x1="317.8" y1="164.7" x2="286.9" y2="146.9" stroke="rgb(0,0,0)"  stroke-width="2.0"/>
<line x1="256.0" y1="164.7" x2="256.0" y2="200.4" stroke="rgb(0,0,0)"  stroke-width="2.0"/>
<line x1="256.0" y1="200.4" x2="286.9" y2="218.2" stroke="rgb(0,0,0)"  stroke-width="2.0"/>
<line x1="264.8" y1="197.1" x2="285.3" y2="208.9" stroke="rgb(0,0,0)"  stroke-width="2.0"/>
<line x1="40.0" y1="218.2" x2="40.0" y2="253.8" stroke="rgb(0,0,0)"  stroke-width="2.0"/>
<line x1="47.2" y1="224.2" x2="47.2" y2="247.8" stroke="rgb(0,0,0)"  stroke-width="2.0"/>
<line x1="40.0" y1="253.8" x2="70.9" y2="271.6" stroke="rgb(0,0,0)"  stroke-width="2.0"/>
<line x1="70.9" y1="271.6" x2="101.7" y2="253.8" stroke="rgb(0,0,0)"  stroke-width="2.0"/>
<line x1="72.5" y1="262.4" x2="92.9" y2="250.6" stroke="rgb(0,0,0)"  stroke-width="2.0"/>
<line x1="101.7" y1="253.8" x2="101.7" y2="218.2" stroke="rgb(0,0,0)"  stroke-width="2.0"/>
<line x1="101.7" y1="218.2" x2="70.9" y2="200.4" stroke="rgb(0,0,0)"  stroke-width="2.0"/>
<line x1="92.9" y1="221.4" x2="72.5" y2="209.6" stroke="rgb(0,0,0)"  stroke-width="2.0"/>
<line x1="70.9" y1="200.4" x2="40.0" y2="218.2" stroke="rgb(0,0,0)"  stroke-width="2.0"/>
<line x1="163.4" y1="218.2" x2="163.4" y2="253.8" stroke="rgb(0,0,0)"  stroke-width="2.0"/>
<line x1="170.6" y1="224.2" x2="170.6" y2="247.8" stroke="rgb(0,0,0)"  stroke-width="2.0"/>
<line x1="163.4" y1="253.8" x2="194.3" y2="271.6" stroke="rgb(0,0,0)"  stroke-width="2.0"/>
<line x1="194.3" y1="271.6" x2="225.2" y2="253.8" stroke="rgb(0,0,0)"  stroke-width="2.0"/>
<line x1="195.9" y1="262.4" x2="216.4" y2="250.6" stroke="rgb(0,0,0)"  stroke-width="2.0"/>
<line x1="225.2" y1="253.8" x2="225.2" y2="218.2" stroke="rgb(0,0,0)"  stroke-width="2.0"/>
<line x1="225.2" y1="218.2" x2="194.3" y2="200.4" stroke="rgb(0,0,0)"  stroke-width="2.0"/>
<line x1="216.4" y1="221.4" x2="195.9" y2="209.6" stroke="rgb(0,0,0)"  stroke-width="2.0"/>
<line x1="194.3" y1="200.4" x2="163.4" y2="218.2" stroke="rgb(0,0,0)"  stroke-width="2.0"/>
<line x1="502.9" y1="93.5" x2="502.9" y2="57.8" stroke="rgb(0,0,0)"  stroke-width="2.0"/>
<line x1="495.7" y1="87.5" x2="495.7" y2="63.8" stroke="rgb(0,0,0)"  stroke-width="2.0"/>
<line x1="502.9" y1="57.8" x2="472.1" y2="40.0" stroke="rgb(0,0,0)"  stroke-width="2.0"/>
<line x1="472.1" y1="40.0" x2="441.2" y2="57.8" stroke="rgb(0,0,0)"  stroke-width="2.0"/>
<line x1="470.5" y1="49.2" x2="450.0" y2="61.1" stroke="rgb(0,0,0)"  stroke-width="2.0"/>
<line x1="441.2" y1="57.8" x2="441.2" y2="93.5" stroke="rgb(0,0,0)"  stroke-width="2.0"/>
<line x1="441.2" y1="93.5" x2="472.1" y2="111.3" stroke="rgb(0,0,0)"  stroke-width="2.0"/>
<line x1="450.0" y1="90.2" x2="470.5" y2="102.0" stroke="rgb(0,0,0)"  stroke-width="2.0"/>
<line x1="472.1" y1="111.3" x2="502.9" y2="93.5" stroke="rgb(0,0,0)"  stroke-width="2.0"/>
</svg>
</g>
<text font-size="18.000000" fill ="black" font-family="sans-serif"
x="10.000000" y="20.000000" ></text>
</svg>
