<?xml version="1.0"?>
<svg version="1.1" id="topsvg"
xmlns="http://www.w3.org/2000/svg" xmlns:xlink="http://www.w3.org/1999/xlink"
xmlns:cml="http://www.xml-cml.org/schema" x="0" y="0" width="200px" height="200px" viewBox="0 0 100 100">
<title> - Open Babel Depiction</title>
<rect x="0" y="0" width="100" height="100" fill="white"/>
<g transform="translate(0,0)">
<svg width="100" height="100" x="0" y="0" viewBox="0 0 360 194.641"
font-family="sans-serif" stroke="rgb(0,0,0)" stroke-width="2"  stroke-linecap="round">
<line x1="77.0" y1="107.0" x2="77.0" y2="93.0" stroke="rgb(0,0,0)"  stroke-width="2.0"/>
<line x1="83.0" y1="107.0" x2="83.0" y2="93.0" stroke="rgb(0,0,0)"  stroke-width="2.0"/>
<line x1="93.0" y1="80.0" x2="120.0" y2="80.0" stroke="rgb(0,0,0)"  stroke-width="2.0"/>
<line x1="200.0" y1="80.0" x2="227.0" y2="80.0" stroke="rgb(0,0,0)"  stroke-width="2.0"/>
<line x1="250.2" y1="123.7" x2="238.1" y2="130.7" stroke="rgb(0,0,0)"  stroke-width="2.0"/>
<line x1="247.2" y1="118.5" x2="235.1" y2="125.5" stroke="rgb(0,0,0)"  stroke-width="2.0"/>
<line x1="263.0" y1="127.6" x2="263.0" y2="141.6" stroke="rgb(0,0,0)"  stroke-width="2.0"/>
<line x1="257.0" y1="127.6" x2="257.0" y2="141.6" stroke="rgb(0,0,0)"  stroke-width="2.0"/>
<line x1="77.0" y1="67.0" x2="77.0" y2="53.0" stroke="rgb(0,0,0)"  stroke-width="2.0"/>
<line x1="83.0" y1="67.0" x2="83.0" y2="53.0" stroke="rgb(0,0,0)"  stroke-width="2.0"/>
<line x1="67.0" y1="80.0" x2="53.0" y2="80.0" stroke="rgb(0,0,0)"  stroke-width="2.0"/>
<line x1="140.0" y1="45.4" x2="120.0" y2="80.0" stroke="rgb(0,0,0)"  stroke-width="2.0"/>
<line x1="143.2" y1="54.2" x2="129.2" y2="78.4" stroke="rgb(0,0,0)"  stroke-width="2.0"/>
<line x1="120.0" y1="80.0" x2="140.0" y2="114.6" stroke="rgb(0,0,0)"  stroke-width="2.0"/>
<line x1="140.0" y1="114.6" x2="180.0" y2="114.6" stroke="rgb(0,0,0)"  stroke-width="2.0"/>
<line x1="146.0" y1="107.4" x2="174.0" y2="107.4" stroke="rgb(0,0,0)"  stroke-width="2.0"/>
<line x1="180.0" y1="114.6" x2="200.0" y2="80.0" stroke="rgb(0,0,0)"  stroke-width="2.0"/>
<line x1="200.0" y1="80.0" x2="180.0" y2="45.4" stroke="rgb(0,0,0)"  stroke-width="2.0"/>
<line x1="190.8" y1="78.4" x2="176.8" y2="54.2" stroke="rgb(0,0,0)"  stroke-width="2.0"/>
<line x1="180.0" y1="45.4" x2="140.0" y2="45.4" stroke="rgb(0,0,0)"  stroke-width="2.0"/>
<line x1="300.0" y1="45.4" x2="320.0" y2="80.0" stroke="rgb(0,0,0)"  stroke-width="2.0"/>
<line x1="320.0" y1="80.0" x2="300.0" y2="114.6" stroke="rgb(0,0,0)"  stroke-width="2.0"/>
<line x1="300.0" y1="114.6" x2="273.0" y2="114.6" stroke="rgb(0,0,0)"  stroke-width="2.0"/>
<line x1="253.5" y1="103.4" x2="246.5" y2="91.3" stroke="rgb(0,0,0)"  stroke-width="2.0"/>
<line x1="246.5" y1="68.7" x2="260.0" y2="45.4" stroke="rgb(0,0,0)"  stroke-width="2.0"/>
<line x1="260.0" y1="45.4" x2="300.0" y2="45.4" stroke="rgb(0,0,0)"  stroke-width="2.0"/>
<text x="14.000000" y="88.000000" fill="rgb(12,12,255)"  stroke="rgb(12,12,255)" stroke-width="1" font-size="16" >H</text>
<text x="26.000000" y="91.680000" fill="rgb(12,12,255)"  stroke="rgb(12,12,255)" stroke-width="1" font-size="13" >2</text>
<text x="32.500000" y="88.000000" fill="rgb(12,12,255)"  stroke="rgb(12,12,255)" stroke-width="1" font-size="16" >N</text>
<text x="74.000000" y="48.000000" fill="rgb(255,12,12)"  stroke="rgb(255,12,12)" stroke-width="1" font-size="16" >O</text>
<text x="254.000000" y="162.641016" fill="rgb(255,12,12)"  stroke="rgb(255,12,12)" stroke-width="1" font-size="16" >O</text>
<text x="219.358984" y="142.641016" fill="rgb(255,12,12)"  stroke="rgb(255,12,12)" stroke-width="1" font-size="16" >O</text>
<text x="254.000000" y="122.641016" fill="rgb(178,178,0)"  stroke="rgb(178,178,0)" stroke-width="1" font-size="16" >S</text>
<text x="74.000000" y="128.000000" fill="rgb(255,12,12)"  stroke="rgb(255,12,12)" stroke-width="1" font-size="16" >O</text>
<text x="234.000000" y="88.000000" fill="rgb(12,12,255)"  stroke="rgb(12,12,255)" stroke-width="1" font-size="16" >N</text>
<text x="74.000000" y="88.000000" fill="rgb(178,178,0)"  stroke="rgb(178,178,0)" stroke-width="1" font-size="16" >S</text>
</svg>
</g>
<text font-size="18.000000" fill ="black" font-family="sans-serif"
x="10.000000" y="20.000000" ></text>
</svg>
