<?xml version="1.0"?>
<svg version="1.1" id="topsvg"
xmlns="http://www.w3.org/2000/svg" xmlns:xlink="http://www.w3.org/1999/xlink"
xmlns:cml="http://www.xml-cml.org/schema" x="0" y="0" width="200px" height="200px" viewBox="0 0 100 100">
<title> - Open Babel Depiction</title>
<rect x="0" y="0" width="100" height="100" fill="white"/>
<g transform="translate(0,0)">
<svg width="100" height="100" x="0" y="0" viewBox="0 0 461.051 300"
font-family="sans-serif" stroke="rgb(0,0,0)" stroke-width="2"  stroke-linecap="round">
<line x1="383.4" y1="247.0" x2="383.4" y2="233.0" stroke="rgb(0,0,0)"  stroke-width="2.0"/>
<line x1="389.4" y1="247.0" x2="389.4" y2="233.0" stroke="rgb(0,0,0)"  stroke-width="2.0"/>
<line x1="396.2" y1="210.9" x2="408.3" y2="203.9" stroke="rgb(0,0,0)"  stroke-width="2.0"/>
<line x1="399.2" y1="216.1" x2="411.3" y2="209.1" stroke="rgb(0,0,0)"  stroke-width="2.0"/>
<line x1="375.2" y1="213.5" x2="351.8" y2="200.0" stroke="rgb(0,0,0)"  stroke-width="2.0"/>
<line x1="282.5" y1="200.0" x2="259.1" y2="213.5" stroke="rgb(0,0,0)"  stroke-width="2.0"/>
<line x1="235.1" y1="216.1" x2="223.0" y2="209.1" stroke="rgb(0,0,0)"  stroke-width="2.0"/>
<line x1="238.1" y1="210.9" x2="226.0" y2="203.9" stroke="rgb(0,0,0)"  stroke-width="2.0"/>
<line x1="250.8" y1="233.0" x2="250.8" y2="247.0" stroke="rgb(0,0,0)"  stroke-width="2.0"/>
<line x1="244.8" y1="233.0" x2="244.8" y2="247.0" stroke="rgb(0,0,0)"  stroke-width="2.0"/>
<line x1="282.5" y1="160.0" x2="247.8" y2="140.0" stroke="rgb(0,0,0)"  stroke-width="2.0"/>
<line x1="249.3" y1="142.6" x2="211.7" y2="157.4" stroke="rgb(0,0,0)"  stroke-width="2.0"/>
<line x1="246.3" y1="137.4" x2="214.7" y2="162.6" stroke="rgb(0,0,0)"  stroke-width="2.0"/>
<line x1="213.2" y1="160.0" x2="178.6" y2="140.0" stroke="rgb(0,0,0)"  stroke-width="2.0"/>
<line x1="178.6" y1="100.0" x2="201.9" y2="86.5" stroke="rgb(0,0,0)"  stroke-width="2.0"/>
<line x1="226.0" y1="83.9" x2="238.1" y2="90.9" stroke="rgb(0,0,0)"  stroke-width="2.0"/>
<line x1="223.0" y1="89.1" x2="235.1" y2="96.1" stroke="rgb(0,0,0)"  stroke-width="2.0"/>
<line x1="210.2" y1="67.0" x2="210.2" y2="53.0" stroke="rgb(0,0,0)"  stroke-width="2.0"/>
<line x1="216.2" y1="67.0" x2="216.2" y2="53.0" stroke="rgb(0,0,0)"  stroke-width="2.0"/>
<line x1="109.3" y1="100.0" x2="85.9" y2="86.5" stroke="rgb(0,0,0)"  stroke-width="2.0"/>
<line x1="71.6" y1="67.0" x2="71.6" y2="53.0" stroke="rgb(0,0,0)"  stroke-width="2.0"/>
<line x1="77.6" y1="67.0" x2="77.6" y2="53.0" stroke="rgb(0,0,0)"  stroke-width="2.0"/>
<line x1="64.9" y1="89.1" x2="52.8" y2="96.1" stroke="rgb(0,0,0)"  stroke-width="2.0"/>
<line x1="61.9" y1="83.9" x2="49.8" y2="90.9" stroke="rgb(0,0,0)"  stroke-width="2.0"/>
<line x1="143.9" y1="160.0" x2="143.9" y2="187.0" stroke="rgb(0,0,0)"  stroke-width="2.0"/>
<line x1="134.2" y1="209.1" x2="122.0" y2="216.1" stroke="rgb(0,0,0)"  stroke-width="2.0"/>
<line x1="131.2" y1="203.9" x2="119.0" y2="210.9" stroke="rgb(0,0,0)"  stroke-width="2.0"/>
<line x1="156.7" y1="203.9" x2="168.8" y2="210.9" stroke="rgb(0,0,0)"  stroke-width="2.0"/>
<line x1="153.7" y1="209.1" x2="165.8" y2="216.1" stroke="rgb(0,0,0)"  stroke-width="2.0"/>
<line x1="317.1" y1="140.0" x2="317.1" y2="113.0" stroke="rgb(0,0,0)"  stroke-width="2.0"/>
<line x1="326.9" y1="90.9" x2="339.0" y2="83.9" stroke="rgb(0,0,0)"  stroke-width="2.0"/>
<line x1="329.9" y1="96.1" x2="342.0" y2="89.1" stroke="rgb(0,0,0)"  stroke-width="2.0"/>
<line x1="304.4" y1="96.1" x2="292.2" y2="89.1" stroke="rgb(0,0,0)"  stroke-width="2.0"/>
<line x1="307.4" y1="90.9" x2="295.2" y2="83.9" stroke="rgb(0,0,0)"  stroke-width="2.0"/>
<line x1="317.1" y1="220.0" x2="351.8" y2="200.0" stroke="rgb(0,0,0)"  stroke-width="2.0"/>
<line x1="318.7" y1="210.8" x2="343.0" y2="196.8" stroke="rgb(0,0,0)"  stroke-width="2.0"/>
<line x1="351.8" y1="200.0" x2="351.8" y2="160.0" stroke="rgb(0,0,0)"  stroke-width="2.0"/>
<line x1="351.8" y1="160.0" x2="317.1" y2="140.0" stroke="rgb(0,0,0)"  stroke-width="2.0"/>
<line x1="343.0" y1="163.2" x2="318.7" y2="149.2" stroke="rgb(0,0,0)"  stroke-width="2.0"/>
<line x1="317.1" y1="140.0" x2="282.5" y2="160.0" stroke="rgb(0,0,0)"  stroke-width="2.0"/>
<line x1="282.5" y1="160.0" x2="282.5" y2="200.0" stroke="rgb(0,0,0)"  stroke-width="2.0"/>
<line x1="289.7" y1="166.0" x2="289.7" y2="194.0" stroke="rgb(0,0,0)"  stroke-width="2.0"/>
<line x1="282.5" y1="200.0" x2="317.1" y2="220.0" stroke="rgb(0,0,0)"  stroke-width="2.0"/>
<line x1="109.3" y1="140.0" x2="109.3" y2="100.0" stroke="rgb(0,0,0)"  stroke-width="2.0"/>
<line x1="116.5" y1="134.0" x2="116.5" y2="106.0" stroke="rgb(0,0,0)"  stroke-width="2.0"/>
<line x1="109.3" y1="100.0" x2="143.9" y2="80.0" stroke="rgb(0,0,0)"  stroke-width="2.0"/>
<line x1="143.9" y1="80.0" x2="178.6" y2="100.0" stroke="rgb(0,0,0)"  stroke-width="2.0"/>
<line x1="145.5" y1="89.2" x2="169.8" y2="103.2" stroke="rgb(0,0,0)"  stroke-width="2.0"/>
<line x1="178.6" y1="100.0" x2="178.6" y2="140.0" stroke="rgb(0,0,0)"  stroke-width="2.0"/>
<line x1="178.6" y1="140.0" x2="143.9" y2="160.0" stroke="rgb(0,0,0)"  stroke-width="2.0"/>
<line x1="169.8" y1="136.8" x2="145.5" y2="150.8" stroke="rgb(0,0,0)"  stroke-width="2.0"/>
<line x1="143.9" y1="160.0" x2="109.3" y2="140.0" stroke="rgb(0,0,0)"  stroke-width="2.0"/>
<text x="276.487113" y="88.000000" fill="rgb(255,12,12)"  stroke="rgb(255,12,12)" stroke-width="1" font-size="16" >O</text>
<text x="345.769145" y="88.000000" fill="rgb(255,12,12)"  stroke="rgb(255,12,12)" stroke-width="1" font-size="16" >O</text>
<text x="311.128129" y="108.000000" fill="rgb(12,12,255)"  stroke="rgb(12,12,255)" stroke-width="1" font-size="16" >N</text>
<text x="172.564065" y="228.000000" fill="rgb(255,12,12)"  stroke="rgb(255,12,12)" stroke-width="1" font-size="16" >O</text>
<text x="103.282032" y="228.000000" fill="rgb(255,12,12)"  stroke="rgb(255,12,12)" stroke-width="1" font-size="16" >O</text>
<text x="137.923048" y="208.000000" fill="rgb(12,12,255)"  stroke="rgb(12,12,255)" stroke-width="1" font-size="16" >N</text>
<text x="34.000000" y="108.000000" fill="rgb(255,12,12)"  stroke="rgb(255,12,12)" stroke-width="1" font-size="16" >O</text>
<text x="68.641016" y="48.000000" fill="rgb(255,12,12)"  stroke="rgb(255,12,12)" stroke-width="1" font-size="16" >O</text>
<text x="68.641016" y="88.000000" fill="rgb(12,12,255)"  stroke="rgb(12,12,255)" stroke-width="1" font-size="16" >N</text>
<text x="207.205081" y="48.000000" fill="rgb(255,12,12)"  stroke="rgb(255,12,12)" stroke-width="1" font-size="16" >O</text>
<text x="241.846097" y="108.000000" fill="rgb(255,12,12)"  stroke="rgb(255,12,12)" stroke-width="1" font-size="16" >O</text>
<text x="207.205081" y="88.000000" fill="rgb(12,12,255)"  stroke="rgb(12,12,255)" stroke-width="1" font-size="16" >N</text>
<text x="380.410162" y="268.000000" fill="rgb(255,12,12)"  stroke="rgb(255,12,12)" stroke-width="1" font-size="16" >O</text>
<text x="241.846097" y="268.000000" fill="rgb(255,12,12)"  stroke="rgb(255,12,12)" stroke-width="1" font-size="16" >O</text>
<text x="207.205081" y="208.000000" fill="rgb(255,12,12)"  stroke="rgb(255,12,12)" stroke-width="1" font-size="16" >O</text>
<text x="241.846097" y="228.000000" fill="rgb(12,12,255)"  stroke="rgb(12,12,255)" stroke-width="1" font-size="16" >N</text>
<text x="415.051178" y="208.000000" fill="rgb(255,12,12)"  stroke="rgb(255,12,12)" stroke-width="1" font-size="16" >O</text>
<text x="380.410162" y="228.000000" fill="rgb(12,12,255)"  stroke="rgb(12,12,255)" stroke-width="1" font-size="16" >N</text>
</svg>
</g>
<text font-size="18.000000" fill ="black" font-family="sans-serif"
x="10.000000" y="20.000000" ></text>
</svg>
