<?xml version="1.0"?>
<svg version="1.1" id="topsvg"
xmlns="http://www.w3.org/2000/svg" xmlns:xlink="http://www.w3.org/1999/xlink"
xmlns:cml="http://www.xml-cml.org/schema" x="0" y="0" width="200px" height="200px" viewBox="0 0 100 100">
<title> - Open Babel Depiction</title>
<rect x="0" y="0" width="100" height="100" fill="white"/>
<g transform="translate(0,0)">
<svg width="100" height="100" x="0" y="0" viewBox="0 0 300 218.564"
font-family="sans-serif" stroke="rgb(0,0,0)" stroke-width="2"  stroke-linecap="round">
<line x1="220.0" y1="122.3" x2="220.0" y2="136.3" stroke="rgb(0,0,0)"  stroke-width="2.0"/>
<line x1="233.0" y1="109.3" x2="247.0" y2="109.3" stroke="rgb(0,0,0)"  stroke-width="2.0"/>
<line x1="220.0" y1="96.3" x2="220.0" y2="82.3" stroke="rgb(0,0,0)"  stroke-width="2.0"/>
<line x1="207.0" y1="109.3" x2="180.0" y2="109.3" stroke="rgb(0,0,0)"  stroke-width="2.0"/>
<line x1="180.0" y1="109.3" x2="160.0" y2="74.6" stroke="rgb(0,0,0)"  stroke-width="2.0"/>
<line x1="160.0" y1="74.6" x2="120.0" y2="74.6" stroke="rgb(0,0,0)"  stroke-width="2.0"/>
<line x1="180.0" y1="109.3" x2="160.0" y2="143.9" stroke="rgb(0,0,0)"  stroke-width="2.0"/>
<line x1="160.0" y1="143.9" x2="133.0" y2="143.9" stroke="rgb(0,0,0)"  stroke-width="2.0"/>
<line x1="162.6" y1="142.4" x2="176.1" y2="165.8" stroke="rgb(0,0,0)"  stroke-width="2.0"/>
<line x1="157.4" y1="145.4" x2="170.9" y2="168.8" stroke="rgb(0,0,0)"  stroke-width="2.0"/>
<line x1="60.0" y1="109.3" x2="40.0" y2="74.6" stroke="rgb(0,0,0)"  stroke-width="2.0"/>
<line x1="63.2" y1="100.5" x2="49.2" y2="76.2" stroke="rgb(0,0,0)"  stroke-width="2.0"/>
<line x1="40.0" y1="74.6" x2="60.0" y2="40.0" stroke="rgb(0,0,0)"  stroke-width="2.0"/>
<line x1="60.0" y1="40.0" x2="100.0" y2="40.0" stroke="rgb(0,0,0)"  stroke-width="2.0"/>
<line x1="66.0" y1="47.2" x2="94.0" y2="47.2" stroke="rgb(0,0,0)"  stroke-width="2.0"/>
<line x1="100.0" y1="40.0" x2="120.0" y2="74.6" stroke="rgb(0,0,0)"  stroke-width="2.0"/>
<line x1="120.0" y1="74.6" x2="100.0" y2="109.3" stroke="rgb(0,0,0)"  stroke-width="2.0"/>
<line x1="110.8" y1="76.2" x2="96.8" y2="100.5" stroke="rgb(0,0,0)"  stroke-width="2.0"/>
<line x1="100.0" y1="109.3" x2="60.0" y2="109.3" stroke="rgb(0,0,0)"  stroke-width="2.0"/>
<text x="224.800000" y="105.250032" fill="rgb(12,12,255)"  stroke="rgb(12,12,255)" stroke-width="1" font-size="16" >+</text>
<text x="214.000000" y="117.282032" fill="rgb(12,12,255)"  stroke="rgb(12,12,255)" stroke-width="1" font-size="16" >N</text>
<text x="214.000000" y="157.282032" fill="rgb(191,191,191)"  stroke="rgb(191,191,191)" stroke-width="1" font-size="16" >H</text>
<text x="254.000000" y="117.282032" fill="rgb(191,191,191)"  stroke="rgb(191,191,191)" stroke-width="1" font-size="16" >H</text>
<text x="214.000000" y="77.282032" fill="rgb(191,191,191)"  stroke="rgb(191,191,191)" stroke-width="1" font-size="16" >H</text>
<text x="124.800000" y="129.811048" fill="rgb(255,12,12)"  stroke="rgb(255,12,12)" stroke-width="1" font-size="16" >_</text>
<text x="114.000000" y="151.923048" fill="rgb(255,12,12)"  stroke="rgb(255,12,12)" stroke-width="1" font-size="16" >O</text>
<text x="174.000000" y="186.564065" fill="rgb(255,12,12)"  stroke="rgb(255,12,12)" stroke-width="1" font-size="16" >O</text>
</svg>
</g>
<text font-size="18.000000" fill ="black" font-family="sans-serif"
x="10.000000" y="20.000000" ></text>
</svg>
