<?xml version="1.0"?>
<svg version="1.1" id="topsvg"
xmlns="http://www.w3.org/2000/svg" xmlns:xlink="http://www.w3.org/1999/xlink"
xmlns:cml="http://www.xml-cml.org/schema" x="0" y="0" width="200px" height="200px" viewBox="0 0 100 100">
<title> - Open Babel Depiction</title>
<rect x="0" y="0" width="100" height="100" fill="white"/>
<g transform="translate(0,0)">
<svg width="100" height="100" x="0" y="0" viewBox="0 0 174.697 171.544"
font-family="sans-serif" stroke="rgb(0,0,0)" stroke-width="2"  stroke-linecap="round">
<line x1="96.0" y1="75.5" x2="96.0" y2="107.6" stroke="rgb(0,0,0)"  stroke-width="2.0"/>
<line x1="108.5" y1="124.1" x2="134.7" y2="131.5" stroke="rgb(0,0,0)"  stroke-width="2.0"/>
<line x1="134.7" y1="131.5" x2="119.5" y2="114.1" stroke="rgb(0,0,0)"  stroke-width="2.0"/>
<line x1="111.0" y1="91.2" x2="111.0" y2="60.5" stroke="rgb(0,0,0)"  stroke-width="2.0"/>
<line x1="111.0" y1="60.5" x2="86.8" y2="46.5" stroke="rgb(0,0,0)"  stroke-width="2.0"/>
<line x1="82.0" y1="51.3" x2="96.0" y2="75.5" stroke="rgb(0,0,0)"  stroke-width="2.0"/>
<line x1="50.7" y1="108.8" x2="63.9" y2="117.9" stroke="rgb(0,0,0)"  stroke-width="2.0"/>
<line x1="63.9" y1="117.9" x2="98.5" y2="107.9" stroke="rgb(0,0,0)"  stroke-width="2.0"/>
<line x1="64.2" y1="46.5" x2="40.0" y2="60.5" stroke="rgb(0,0,0)"  stroke-width="2.0"/>
<line x1="40.0" y1="60.5" x2="40.0" y2="88.5" stroke="rgb(0,0,0)"  stroke-width="2.0"/>
<line x1="83.7" y1="124.7" x2="62.6" y2="131.5" stroke="rgb(0,0,0)"  stroke-width="2.0"/>
<line x1="62.6" y1="131.5" x2="47.8" y2="111.9" stroke="rgb(0,0,0)"  stroke-width="2.0"/>
<text x="69.506276" y="48.000000" fill="rgb(12,12,255)"  stroke="rgb(12,12,255)" stroke-width="1" font-size="16" >N</text>
<text x="90.028167" y="128.605026" fill="rgb(12,12,255)"  stroke="rgb(12,12,255)" stroke-width="1" font-size="16" >N</text>
<text x="34.000000" y="109.473587" fill="rgb(12,12,255)"  stroke="rgb(12,12,255)" stroke-width="1" font-size="16" >N</text>
<text x="105.020425" y="112.239921" fill="rgb(12,12,255)"  stroke="rgb(12,12,255)" stroke-width="1" font-size="16" >N</text>
</svg>
</g>
<text font-size="18.000000" fill ="black" font-family="sans-serif"
x="10.000000" y="20.000000" ></text>
</svg>
