<?xml version="1.0"?>
<svg version="1.1" id="topsvg"
xmlns="http://www.w3.org/2000/svg" xmlns:xlink="http://www.w3.org/1999/xlink"
xmlns:cml="http://www.xml-cml.org/schema" x="0" y="0" width="200px" height="200px" viewBox="0 0 100 100">
<title> - Open Babel Depiction</title>
<rect x="0" y="0" width="100" height="100" fill="white"/>
<g transform="translate(0,0)">
<svg width="100" height="100" x="0" y="0" viewBox="0 0 599.615 340"
font-family="sans-serif" stroke="rgb(0,0,0)" stroke-width="2"  stroke-linecap="round">
<line x1="432.3" y1="293.5" x2="455.7" y2="280.0" stroke="rgb(0,0,0)"  stroke-width="2.0"/>
<line x1="455.7" y1="280.0" x2="455.7" y2="240.0" stroke="rgb(0,0,0)"  stroke-width="2.0"/>
<line x1="455.7" y1="240.0" x2="421.1" y2="220.0" stroke="rgb(0,0,0)"  stroke-width="2.0"/>
<line x1="421.1" y1="220.0" x2="386.4" y2="240.0" stroke="rgb(0,0,0)"  stroke-width="2.0"/>
<line x1="386.4" y1="240.0" x2="386.4" y2="280.0" stroke="rgb(0,0,0)"  stroke-width="2.0"/>
<line x1="386.4" y1="280.0" x2="363.0" y2="293.5" stroke="rgb(0,0,0)"  stroke-width="2.0"/>
<line x1="386.4" y1="240.0" x2="351.8" y2="220.0" stroke="rgb(0,0,0)"  stroke-width="2.0"/>
<line x1="351.8" y1="220.0" x2="328.4" y2="233.5" stroke="rgb(0,0,0)"  stroke-width="2.0"/>
<line x1="305.9" y1="233.5" x2="282.5" y2="220.0" stroke="rgb(0,0,0)"  stroke-width="2.0"/>
<line x1="284.0" y1="222.6" x2="260.6" y2="236.1" stroke="rgb(0,0,0)"  stroke-width="2.0"/>
<line x1="281.0" y1="217.4" x2="257.6" y2="230.9" stroke="rgb(0,0,0)"  stroke-width="2.0"/>
<line x1="282.5" y1="220.0" x2="282.5" y2="180.0" stroke="rgb(0,0,0)"  stroke-width="2.0"/>
<line x1="317.1" y1="120.0" x2="351.8" y2="100.0" stroke="rgb(0,0,0)"  stroke-width="2.0"/>
<line x1="351.8" y1="100.0" x2="351.8" y2="73.0" stroke="rgb(0,0,0)"  stroke-width="2.0"/>
<line x1="363.0" y1="53.5" x2="386.4" y2="40.0" stroke="rgb(0,0,0)"  stroke-width="2.0"/>
<line x1="386.4" y1="40.0" x2="421.1" y2="60.0" stroke="rgb(0,0,0)"  stroke-width="2.0"/>
<line x1="421.1" y1="60.0" x2="421.1" y2="100.0" stroke="rgb(0,0,0)"  stroke-width="2.0"/>
<line x1="421.1" y1="100.0" x2="444.4" y2="113.5" stroke="rgb(0,0,0)"  stroke-width="2.0"/>
<line x1="421.1" y1="60.0" x2="455.7" y2="40.0" stroke="rgb(0,0,0)"  stroke-width="2.0"/>
<line x1="455.7" y1="40.0" x2="490.3" y2="60.0" stroke="rgb(0,0,0)"  stroke-width="2.0"/>
<line x1="490.3" y1="60.0" x2="525.0" y2="40.0" stroke="rgb(0,0,0)"  stroke-width="2.0"/>
<line x1="525.0" y1="40.0" x2="548.4" y2="53.5" stroke="rgb(0,0,0)"  stroke-width="2.0"/>
<line x1="353.3" y1="97.4" x2="376.7" y2="110.9" stroke="rgb(0,0,0)"  stroke-width="2.0"/>
<line x1="350.3" y1="102.6" x2="373.7" y2="116.1" stroke="rgb(0,0,0)"  stroke-width="2.0"/>
<line x1="247.8" y1="160.0" x2="213.2" y2="180.0" stroke="rgb(0,0,0)"  stroke-width="2.0"/>
<line x1="213.2" y1="180.0" x2="213.2" y2="207.0" stroke="rgb(0,0,0)"  stroke-width="2.0"/>
<line x1="201.9" y1="226.5" x2="178.6" y2="240.0" stroke="rgb(0,0,0)"  stroke-width="2.0"/>
<line x1="178.6" y1="240.0" x2="143.9" y2="220.0" stroke="rgb(0,0,0)"  stroke-width="2.0"/>
<line x1="143.9" y1="220.0" x2="109.3" y2="240.0" stroke="rgb(0,0,0)"  stroke-width="2.0"/>
<line x1="109.3" y1="240.0" x2="85.9" y2="226.5" stroke="rgb(0,0,0)"  stroke-width="2.0"/>
<line x1="143.9" y1="220.0" x2="143.9" y2="180.0" stroke="rgb(0,0,0)"  stroke-width="2.0"/>
<line x1="143.9" y1="180.0" x2="109.3" y2="160.0" stroke="rgb(0,0,0)"  stroke-width="2.0"/>
<line x1="109.3" y1="160.0" x2="74.6" y2="180.0" stroke="rgb(0,0,0)"  stroke-width="2.0"/>
<line x1="74.6" y1="180.0" x2="51.3" y2="166.5" stroke="rgb(0,0,0)"  stroke-width="2.0"/>
<line x1="211.7" y1="182.6" x2="188.3" y2="169.1" stroke="rgb(0,0,0)"  stroke-width="2.0"/>
<line x1="214.7" y1="177.4" x2="191.3" y2="163.9" stroke="rgb(0,0,0)"  stroke-width="2.0"/>
<line x1="317.1" y1="120.0" x2="282.5" y2="100.0" stroke="rgb(0,0,0)"  stroke-width="2.0"/>
<line x1="308.3" y1="123.2" x2="284.1" y2="109.2" stroke="rgb(0,0,0)"  stroke-width="2.0"/>
<line x1="282.5" y1="100.0" x2="247.8" y2="120.0" stroke="rgb(0,0,0)"  stroke-width="2.0"/>
<line x1="247.8" y1="120.0" x2="247.8" y2="160.0" stroke="rgb(0,0,0)"  stroke-width="2.0"/>
<line x1="255.0" y1="126.0" x2="255.0" y2="154.0" stroke="rgb(0,0,0)"  stroke-width="2.0"/>
<line x1="247.8" y1="160.0" x2="282.5" y2="180.0" stroke="rgb(0,0,0)"  stroke-width="2.0"/>
<line x1="282.5" y1="180.0" x2="317.1" y2="160.0" stroke="rgb(0,0,0)"  stroke-width="2.0"/>
<line x1="284.1" y1="170.8" x2="308.3" y2="156.8" stroke="rgb(0,0,0)"  stroke-width="2.0"/>
<line x1="317.1" y1="160.0" x2="317.1" y2="120.0" stroke="rgb(0,0,0)"  stroke-width="2.0"/>
<text x="207.205081" y="228.000000" fill="rgb(255,12,12)"  stroke="rgb(255,12,12)" stroke-width="1" font-size="16" >O</text>
<text x="555.615242" y="68.000000" fill="rgb(102,102,102)"  stroke="rgb(102,102,102)" stroke-width="1" font-size="16" >CH</text>
<text x="579.615242" y="71.680000" fill="rgb(102,102,102)"  stroke="rgb(102,102,102)" stroke-width="1" font-size="13" >3</text>
<text x="380.410162" y="128.000000" fill="rgb(255,12,12)"  stroke="rgb(255,12,12)" stroke-width="1" font-size="16" >O</text>
<text x="451.692194" y="128.000000" fill="rgb(102,102,102)"  stroke="rgb(102,102,102)" stroke-width="1" font-size="16" >CH</text>
<text x="475.692194" y="131.680000" fill="rgb(102,102,102)"  stroke="rgb(102,102,102)" stroke-width="1" font-size="13" >3</text>
<text x="48.641016" y="228.000000" fill="rgb(102,102,102)"  stroke="rgb(102,102,102)" stroke-width="1" font-size="16" >H</text>
<text x="60.641016" y="231.680000" fill="rgb(102,102,102)"  stroke="rgb(102,102,102)" stroke-width="1" font-size="13" >3</text>
<text x="67.141016" y="228.000000" fill="rgb(102,102,102)"  stroke="rgb(102,102,102)" stroke-width="1" font-size="16" >C</text>
<text x="14.000000" y="168.000000" fill="rgb(102,102,102)"  stroke="rgb(102,102,102)" stroke-width="1" font-size="16" >H</text>
<text x="26.000000" y="171.680000" fill="rgb(102,102,102)"  stroke="rgb(102,102,102)" stroke-width="1" font-size="13" >3</text>
<text x="32.500000" y="168.000000" fill="rgb(102,102,102)"  stroke="rgb(102,102,102)" stroke-width="1" font-size="16" >C</text>
<text x="172.564065" y="168.000000" fill="rgb(255,12,12)"  stroke="rgb(255,12,12)" stroke-width="1" font-size="16" >O</text>
<text x="241.846097" y="248.000000" fill="rgb(255,12,12)"  stroke="rgb(255,12,12)" stroke-width="1" font-size="16" >O</text>
<text x="325.769145" y="308.000000" fill="rgb(102,102,102)"  stroke="rgb(102,102,102)" stroke-width="1" font-size="16" >H</text>
<text x="337.769145" y="311.680000" fill="rgb(102,102,102)"  stroke="rgb(102,102,102)" stroke-width="1" font-size="13" >3</text>
<text x="344.269145" y="308.000000" fill="rgb(102,102,102)"  stroke="rgb(102,102,102)" stroke-width="1" font-size="16" >C</text>
<text x="311.128129" y="248.000000" fill="rgb(255,12,12)"  stroke="rgb(255,12,12)" stroke-width="1" font-size="16" >O</text>
<text x="395.051178" y="308.000000" fill="rgb(102,102,102)"  stroke="rgb(102,102,102)" stroke-width="1" font-size="16" >H</text>
<text x="407.051178" y="311.680000" fill="rgb(102,102,102)"  stroke="rgb(102,102,102)" stroke-width="1" font-size="13" >3</text>
<text x="413.551178" y="308.000000" fill="rgb(102,102,102)"  stroke="rgb(102,102,102)" stroke-width="1" font-size="16" >C</text>
<text x="345.769145" y="68.000000" fill="rgb(255,12,12)"  stroke="rgb(255,12,12)" stroke-width="1" font-size="16" >O</text>
</svg>
</g>
<text font-size="18.000000" fill ="black" font-family="sans-serif"
x="10.000000" y="20.000000" ></text>
</svg>
