<?xml version="1.0"?>
<svg version="1.1" id="topsvg"
xmlns="http://www.w3.org/2000/svg" xmlns:xlink="http://www.w3.org/1999/xlink"
xmlns:cml="http://www.xml-cml.org/schema" x="0" y="0" width="200px" height="200px" viewBox="0 0 100 100">
<title> - Open Babel Depiction</title>
<rect x="0" y="0" width="100" height="100" fill="white"/>
<g transform="translate(0,0)">
<svg width="100" height="100" x="0" y="0" viewBox="0 0 390.641 237.338"
font-family="sans-serif" stroke="rgb(0,0,0)" stroke-width="2"  stroke-linecap="round">
<line x1="297.1" y1="157.4" x2="302.8" y2="144.6" stroke="rgb(0,0,0)"  stroke-width="2.0"/>
<line x1="302.6" y1="159.8" x2="308.3" y2="147.0" stroke="rgb(0,0,0)"  stroke-width="2.0"/>
<line x1="323.5" y1="129.6" x2="337.4" y2="128.1" stroke="rgb(0,0,0)"  stroke-width="2.0"/>
<line x1="324.1" y1="135.5" x2="338.0" y2="134.1" stroke="rgb(0,0,0)"  stroke-width="2.0"/>
<line x1="303.2" y1="123.4" x2="287.3" y2="101.6" stroke="rgb(0,0,0)"  stroke-width="2.0"/>
<line x1="235.0" y1="63.5" x2="196.9" y2="51.2" stroke="rgb(0,0,0)"  stroke-width="2.0"/>
<line x1="199.0" y1="53.4" x2="165.2" y2="75.7" stroke="rgb(0,0,0)"  stroke-width="2.0"/>
<line x1="194.9" y1="48.9" x2="169.2" y2="80.1" stroke="rgb(0,0,0)"  stroke-width="2.0"/>
<line x1="167.2" y1="77.9" x2="175.5" y2="117.0" stroke="rgb(0,0,0)"  stroke-width="2.0"/>
<line x1="177.5" y1="119.3" x2="153.5" y2="132.9" stroke="rgb(0,0,0)"  stroke-width="2.0"/>
<line x1="173.5" y1="114.8" x2="157.5" y2="137.3" stroke="rgb(0,0,0)"  stroke-width="2.0"/>
<line x1="133.4" y1="139.8" x2="120.1" y2="135.5" stroke="rgb(0,0,0)"  stroke-width="2.0"/>
<line x1="98.1" y1="140.1" x2="78.0" y2="158.2" stroke="rgb(0,0,0)"  stroke-width="2.0"/>
<line x1="77.1" y1="161.1" x2="51.4" y2="152.7" stroke="rgb(0,0,0)"  stroke-width="2.0"/>
<line x1="79.0" y1="155.4" x2="53.3" y2="147.0" stroke="rgb(0,0,0)"  stroke-width="2.0"/>
<line x1="78.0" y1="158.2" x2="83.7" y2="184.6" stroke="rgb(0,0,0)"  stroke-width="2.0"/>
<line x1="235.0" y1="63.5" x2="267.3" y2="40.0" stroke="rgb(0,0,0)"  stroke-width="2.0"/>
<line x1="244.1" y1="65.8" x2="266.7" y2="49.4" stroke="rgb(0,0,0)"  stroke-width="2.0"/>
<line x1="267.3" y1="40.0" x2="299.7" y2="63.5" stroke="rgb(0,0,0)"  stroke-width="2.0"/>
<line x1="299.7" y1="63.5" x2="287.3" y2="101.6" stroke="rgb(0,0,0)"  stroke-width="2.0"/>
<line x1="291.0" y1="67.0" x2="282.4" y2="93.6" stroke="rgb(0,0,0)"  stroke-width="2.0"/>
<line x1="287.3" y1="101.6" x2="260.3" y2="101.6" stroke="rgb(0,0,0)"  stroke-width="2.0"/>
<line x1="243.3" y1="89.2" x2="235.0" y2="63.5" stroke="rgb(0,0,0)"  stroke-width="2.0"/>
<text x="288.590318" y="178.456169" fill="rgb(255,12,12)"  stroke="rgb(255,12,12)" stroke-width="1" font-size="16" >O</text>
<text x="304.859783" y="141.914351" fill="rgb(12,12,255)"  stroke="rgb(12,12,255)" stroke-width="1" font-size="16" >N</text>
<text x="344.640659" y="137.733212" fill="rgb(255,12,12)"  stroke="rgb(255,12,12)" stroke-width="1" font-size="16" >O</text>
<text x="241.348373" y="109.553671" fill="rgb(255,12,12)"  stroke="rgb(255,12,12)" stroke-width="1" font-size="16" >O</text>
<text x="139.810314" y="151.807083" fill="rgb(12,12,255)"  stroke="rgb(12,12,255)" stroke-width="1" font-size="16" >N</text>
<text x="101.768054" y="139.446403" fill="rgb(12,12,255)"  stroke="rgb(12,12,255)" stroke-width="1" font-size="16" >N</text>
<text x="101.768054" y="123.446403" fill="rgb(12,12,255)"  stroke="rgb(12,12,255)" stroke-width="1" font-size="16" >H</text>
<text x="34.000000" y="153.850948" fill="rgb(255,12,12)"  stroke="rgb(255,12,12)" stroke-width="1" font-size="16" >O</text>
<text x="82.358728" y="205.337531" fill="rgb(12,12,255)"  stroke="rgb(12,12,255)" stroke-width="1" font-size="16" >NH</text>
<text x="106.358728" y="209.017531" fill="rgb(12,12,255)"  stroke="rgb(12,12,255)" stroke-width="1" font-size="13" >2</text>
</svg>
</g>
<text font-size="18.000000" fill ="black" font-family="sans-serif"
x="10.000000" y="20.000000" ></text>
</svg>
