<?xml version="1.0"?>
<svg version="1.1" id="topsvg"
xmlns="http://www.w3.org/2000/svg" xmlns:xlink="http://www.w3.org/1999/xlink"
xmlns:cml="http://www.xml-cml.org/schema" x="0" y="0" width="200px" height="200px" viewBox="0 0 100 100">
<title> - Open Babel Depiction</title>
<rect x="0" y="0" width="100" height="100" fill="white"/>
<g transform="translate(0,0)">
<svg width="100" height="100" x="0" y="0" viewBox="0 0 372.102 256.207"
font-family="sans-serif" stroke="rgb(0,0,0)" stroke-width="2"  stroke-linecap="round">
<line x1="242.4" y1="183.9" x2="242.4" y2="156.7" stroke="rgb(0,0,0)"  stroke-width="2.0"/>
<line x1="74.7" y1="60.0" x2="51.3" y2="46.5" stroke="rgb(0,0,0)"  stroke-width="2.0"/>
<line x1="275.9" y1="176.1" x2="275.9" y2="203.2" stroke="rgb(0,0,0)"  stroke-width="2.0"/>
<line x1="275.9" y1="176.1" x2="309.4" y2="195.4" stroke="rgb(0,0,0)"  stroke-width="2.0"/>
<line x1="309.4" y1="195.4" x2="324.5" y2="174.6" stroke="rgb(0,0,0)"  stroke-width="2.0"/>
<line x1="306.0" y1="192.9" x2="321.1" y2="172.2" stroke="rgb(0,0,0)"  stroke-width="2.0"/>
<line x1="312.8" y1="197.9" x2="327.9" y2="177.1" stroke="rgb(0,0,0)"  stroke-width="2.0"/>
<line x1="108.3" y1="118.1" x2="141.8" y2="98.7" stroke="rgb(0,0,0)"  stroke-width="2.0"/>
<line x1="109.9" y1="108.9" x2="133.0" y2="95.5" stroke="rgb(0,0,0)"  stroke-width="2.0"/>
<line x1="141.8" y1="98.7" x2="141.8" y2="60.0" stroke="rgb(0,0,0)"  stroke-width="2.0"/>
<line x1="141.8" y1="60.0" x2="108.2" y2="40.7" stroke="rgb(0,0,0)"  stroke-width="2.0"/>
<line x1="133.0" y1="63.3" x2="109.8" y2="49.9" stroke="rgb(0,0,0)"  stroke-width="2.0"/>
<line x1="108.2" y1="40.7" x2="74.7" y2="60.0" stroke="rgb(0,0,0)"  stroke-width="2.0"/>
<line x1="74.7" y1="60.0" x2="74.8" y2="98.8" stroke="rgb(0,0,0)"  stroke-width="2.0"/>
<line x1="82.0" y1="66.0" x2="82.0" y2="92.8" stroke="rgb(0,0,0)"  stroke-width="2.0"/>
<line x1="74.8" y1="98.8" x2="108.3" y2="118.1" stroke="rgb(0,0,0)"  stroke-width="2.0"/>
<line x1="309.4" y1="156.7" x2="275.9" y2="176.1" stroke="rgb(0,0,0)"  stroke-width="2.0"/>
<line x1="275.9" y1="176.1" x2="242.4" y2="156.7" stroke="rgb(0,0,0)"  stroke-width="2.0"/>
<line x1="242.4" y1="156.7" x2="242.3" y2="118.1" stroke="rgb(0,0,0)"  stroke-width="2.0"/>
<line x1="242.3" y1="118.1" x2="309.3" y2="118.0" stroke="rgb(0,0,0)"  stroke-width="2.0"/>
<line x1="309.3" y1="118.0" x2="309.4" y2="156.7" stroke="rgb(0,0,0)"  stroke-width="2.0"/>
<line x1="175.3" y1="156.8" x2="175.3" y2="118.1" stroke="rgb(0,0,0)"  stroke-width="2.0"/>
<line x1="175.3" y1="118.1" x2="208.8" y2="98.7" stroke="rgb(0,0,0)"  stroke-width="2.0"/>
<line x1="208.8" y1="98.7" x2="242.3" y2="118.1" stroke="rgb(0,0,0)"  stroke-width="2.0"/>
<line x1="242.4" y1="156.7" x2="208.8" y2="176.1" stroke="rgb(0,0,0)"  stroke-width="2.0"/>
<line x1="208.8" y1="176.1" x2="175.3" y2="156.8" stroke="rgb(0,0,0)"  stroke-width="2.0"/>
<line x1="175.3" y1="40.7" x2="208.8" y2="60.0" stroke="rgb(0,0,0)"  stroke-width="2.0"/>
<line x1="208.8" y1="60.0" x2="208.8" y2="98.7" stroke="rgb(0,0,0)"  stroke-width="2.0"/>
<line x1="175.3" y1="118.1" x2="141.8" y2="98.7" stroke="rgb(0,0,0)"  stroke-width="2.0"/>
<line x1="141.8" y1="60.0" x2="175.3" y2="40.7" stroke="rgb(0,0,0)"  stroke-width="2.0"/>
<text x="326.101910" y="172.124596" fill="rgb(102,102,102)"  stroke="rgb(102,102,102)" stroke-width="1" font-size="16" >CH</text>
<text x="269.909789" y="224.207050" fill="rgb(255,12,12)"  stroke="rgb(255,12,12)" stroke-width="1" font-size="16" >OH</text>
<text x="238.367061" y="204.861729" fill="rgb(102,102,102)"  stroke="rgb(102,102,102)" stroke-width="1" font-size="16" >CH</text>
<text x="262.367061" y="208.541729" fill="rgb(102,102,102)"  stroke="rgb(102,102,102)" stroke-width="1" font-size="13" >3</text>
<text x="22.000000" y="48.000000" fill="rgb(255,12,12)"  stroke="rgb(255,12,12)" stroke-width="1" font-size="16" >HO</text>
</svg>
</g>
<text font-size="18.000000" fill ="black" font-family="sans-serif"
x="10.000000" y="20.000000" ></text>
</svg>
