<?xml version="1.0"?>
<svg version="1.1" id="topsvg"
xmlns="http://www.w3.org/2000/svg" xmlns:xlink="http://www.w3.org/1999/xlink"
xmlns:cml="http://www.xml-cml.org/schema" x="0" y="0" width="200px" height="200px" viewBox="0 0 100 100">
<title> - Open Babel Depiction</title>
<rect x="0" y="0" width="100" height="100" fill="white"/>
<g transform="translate(0,0)">
<svg width="100" height="100" x="0" y="0" viewBox="0 0 420 354.641"
font-family="sans-serif" stroke="rgb(0,0,0)" stroke-width="2"  stroke-linecap="round">
<line x1="213.5" y1="171.3" x2="206.5" y2="183.4" stroke="rgb(0,0,0)"  stroke-width="2.0"/>
<line x1="187.0" y1="194.6" x2="160.0" y2="194.6" stroke="rgb(0,0,0)"  stroke-width="2.0"/>
<line x1="160.0" y1="194.6" x2="160.0" y2="154.6" stroke="rgb(0,0,0)"  stroke-width="2.0"/>
<line x1="160.0" y1="194.6" x2="120.0" y2="194.6" stroke="rgb(0,0,0)"  stroke-width="2.0"/>
<line x1="160.0" y1="194.6" x2="160.0" y2="234.6" stroke="rgb(0,0,0)"  stroke-width="2.0"/>
<line x1="233.0" y1="160.0" x2="260.0" y2="160.0" stroke="rgb(0,0,0)"  stroke-width="2.0"/>
<line x1="260.0" y1="160.0" x2="260.0" y2="200.0" stroke="rgb(0,0,0)"  stroke-width="2.0"/>
<line x1="260.0" y1="160.0" x2="300.0" y2="160.0" stroke="rgb(0,0,0)"  stroke-width="2.0"/>
<line x1="260.0" y1="160.0" x2="260.0" y2="120.0" stroke="rgb(0,0,0)"  stroke-width="2.0"/>
<line x1="125.4" y1="94.6" x2="160.0" y2="74.6" stroke="rgb(0,0,0)"  stroke-width="2.0"/>
<line x1="134.2" y1="97.9" x2="158.4" y2="83.9" stroke="rgb(0,0,0)"  stroke-width="2.0"/>
<line x1="160.0" y1="74.6" x2="194.6" y2="94.6" stroke="rgb(0,0,0)"  stroke-width="2.0"/>
<line x1="194.6" y1="94.6" x2="194.6" y2="134.6" stroke="rgb(0,0,0)"  stroke-width="2.0"/>
<line x1="187.4" y1="100.6" x2="187.4" y2="128.6" stroke="rgb(0,0,0)"  stroke-width="2.0"/>
<line x1="194.6" y1="134.6" x2="160.0" y2="154.6" stroke="rgb(0,0,0)"  stroke-width="2.0"/>
<line x1="160.0" y1="154.6" x2="125.4" y2="134.6" stroke="rgb(0,0,0)"  stroke-width="2.0"/>
<line x1="158.4" y1="145.4" x2="134.2" y2="131.4" stroke="rgb(0,0,0)"  stroke-width="2.0"/>
<line x1="125.4" y1="134.6" x2="125.4" y2="94.6" stroke="rgb(0,0,0)"  stroke-width="2.0"/>
<line x1="60.0" y1="229.3" x2="40.0" y2="194.6" stroke="rgb(0,0,0)"  stroke-width="2.0"/>
<line x1="63.2" y1="220.5" x2="49.2" y2="196.2" stroke="rgb(0,0,0)"  stroke-width="2.0"/>
<line x1="40.0" y1="194.6" x2="60.0" y2="160.0" stroke="rgb(0,0,0)"  stroke-width="2.0"/>
<line x1="60.0" y1="160.0" x2="100.0" y2="160.0" stroke="rgb(0,0,0)"  stroke-width="2.0"/>
<line x1="66.0" y1="167.2" x2="94.0" y2="167.2" stroke="rgb(0,0,0)"  stroke-width="2.0"/>
<line x1="100.0" y1="160.0" x2="120.0" y2="194.6" stroke="rgb(0,0,0)"  stroke-width="2.0"/>
<line x1="120.0" y1="194.6" x2="100.0" y2="229.3" stroke="rgb(0,0,0)"  stroke-width="2.0"/>
<line x1="110.8" y1="196.2" x2="96.8" y2="220.5" stroke="rgb(0,0,0)"  stroke-width="2.0"/>
<line x1="100.0" y1="229.3" x2="60.0" y2="229.3" stroke="rgb(0,0,0)"  stroke-width="2.0"/>
<line x1="194.6" y1="294.6" x2="160.0" y2="314.6" stroke="rgb(0,0,0)"  stroke-width="2.0"/>
<line x1="185.8" y1="291.4" x2="161.6" y2="305.4" stroke="rgb(0,0,0)"  stroke-width="2.0"/>
<line x1="160.0" y1="314.6" x2="125.4" y2="294.6" stroke="rgb(0,0,0)"  stroke-width="2.0"/>
<line x1="125.4" y1="294.6" x2="125.4" y2="254.6" stroke="rgb(0,0,0)"  stroke-width="2.0"/>
<line x1="132.6" y1="288.6" x2="132.6" y2="260.6" stroke="rgb(0,0,0)"  stroke-width="2.0"/>
<line x1="125.4" y1="254.6" x2="160.0" y2="234.6" stroke="rgb(0,0,0)"  stroke-width="2.0"/>
<line x1="160.0" y1="234.6" x2="194.6" y2="254.6" stroke="rgb(0,0,0)"  stroke-width="2.0"/>
<line x1="161.6" y1="243.9" x2="185.8" y2="257.9" stroke="rgb(0,0,0)"  stroke-width="2.0"/>
<line x1="194.6" y1="254.6" x2="194.6" y2="294.6" stroke="rgb(0,0,0)"  stroke-width="2.0"/>
<line x1="294.6" y1="260.0" x2="260.0" y2="280.0" stroke="rgb(0,0,0)"  stroke-width="2.0"/>
<line x1="285.8" y1="256.8" x2="261.6" y2="270.8" stroke="rgb(0,0,0)"  stroke-width="2.0"/>
<line x1="260.0" y1="280.0" x2="225.4" y2="260.0" stroke="rgb(0,0,0)"  stroke-width="2.0"/>
<line x1="225.4" y1="260.0" x2="225.4" y2="220.0" stroke="rgb(0,0,0)"  stroke-width="2.0"/>
<line x1="232.6" y1="254.0" x2="232.6" y2="226.0" stroke="rgb(0,0,0)"  stroke-width="2.0"/>
<line x1="225.4" y1="220.0" x2="260.0" y2="200.0" stroke="rgb(0,0,0)"  stroke-width="2.0"/>
<line x1="260.0" y1="200.0" x2="294.6" y2="220.0" stroke="rgb(0,0,0)"  stroke-width="2.0"/>
<line x1="261.6" y1="209.2" x2="285.8" y2="223.2" stroke="rgb(0,0,0)"  stroke-width="2.0"/>
<line x1="294.6" y1="220.0" x2="294.6" y2="260.0" stroke="rgb(0,0,0)"  stroke-width="2.0"/>
<line x1="360.0" y1="125.4" x2="380.0" y2="160.0" stroke="rgb(0,0,0)"  stroke-width="2.0"/>
<line x1="356.8" y1="134.2" x2="370.8" y2="158.4" stroke="rgb(0,0,0)"  stroke-width="2.0"/>
<line x1="380.0" y1="160.0" x2="360.0" y2="194.6" stroke="rgb(0,0,0)"  stroke-width="2.0"/>
<line x1="360.0" y1="194.6" x2="320.0" y2="194.6" stroke="rgb(0,0,0)"  stroke-width="2.0"/>
<line x1="354.0" y1="187.4" x2="326.0" y2="187.4" stroke="rgb(0,0,0)"  stroke-width="2.0"/>
<line x1="320.0" y1="194.6" x2="300.0" y2="160.0" stroke="rgb(0,0,0)"  stroke-width="2.0"/>
<line x1="300.0" y1="160.0" x2="320.0" y2="125.4" stroke="rgb(0,0,0)"  stroke-width="2.0"/>
<line x1="309.2" y1="158.4" x2="323.2" y2="134.2" stroke="rgb(0,0,0)"  stroke-width="2.0"/>
<line x1="320.0" y1="125.4" x2="360.0" y2="125.4" stroke="rgb(0,0,0)"  stroke-width="2.0"/>
<line x1="225.4" y1="60.0" x2="260.0" y2="40.0" stroke="rgb(0,0,0)"  stroke-width="2.0"/>
<line x1="234.2" y1="63.2" x2="258.4" y2="49.2" stroke="rgb(0,0,0)"  stroke-width="2.0"/>
<line x1="260.0" y1="40.0" x2="294.6" y2="60.0" stroke="rgb(0,0,0)"  stroke-width="2.0"/>
<line x1="294.6" y1="60.0" x2="294.6" y2="100.0" stroke="rgb(0,0,0)"  stroke-width="2.0"/>
<line x1="287.4" y1="66.0" x2="287.4" y2="94.0" stroke="rgb(0,0,0)"  stroke-width="2.0"/>
<line x1="294.6" y1="100.0" x2="260.0" y2="120.0" stroke="rgb(0,0,0)"  stroke-width="2.0"/>
<line x1="260.0" y1="120.0" x2="225.4" y2="100.0" stroke="rgb(0,0,0)"  stroke-width="2.0"/>
<line x1="258.4" y1="110.8" x2="234.2" y2="96.8" stroke="rgb(0,0,0)"  stroke-width="2.0"/>
<line x1="225.4" y1="100.0" x2="225.4" y2="60.0" stroke="rgb(0,0,0)"  stroke-width="2.0"/>
<text x="194.000000" y="202.641016" fill="rgb(255,12,12)"  stroke="rgb(255,12,12)" stroke-width="1" font-size="16" >O</text>
<text x="214.000000" y="168.000000" fill="rgb(255,12,12)"  stroke="rgb(255,12,12)" stroke-width="1" font-size="16" >O</text>
</svg>
</g>
<text font-size="18.000000" fill ="black" font-family="sans-serif"
x="10.000000" y="20.000000" ></text>
</svg>
