<?xml version="1.0"?>
<svg version="1.1" id="topsvg"
xmlns="http://www.w3.org/2000/svg" xmlns:xlink="http://www.w3.org/1999/xlink"
xmlns:cml="http://www.xml-cml.org/schema" x="0" y="0" width="200px" height="200px" viewBox="0 0 100 100">
<title> - Open Babel Depiction</title>
<rect x="0" y="0" width="100" height="100" fill="white"/>
<g transform="translate(0,0)">
<svg width="100" height="100" x="0" y="0" viewBox="0 0 320 320"
font-family="sans-serif" stroke="rgb(0,0,0)" stroke-width="2"  stroke-linecap="round">
<line x1="67.3" y1="106.5" x2="79.5" y2="113.5" stroke="rgb(0,0,0)"  stroke-width="2.0"/>
<line x1="90.7" y1="133.0" x2="90.7" y2="147.0" stroke="rgb(0,0,0)"  stroke-width="2.0"/>
<line x1="102.0" y1="113.5" x2="125.4" y2="100.0" stroke="rgb(0,0,0)"  stroke-width="2.0"/>
<line x1="125.4" y1="100.0" x2="125.4" y2="73.0" stroke="rgb(0,0,0)"  stroke-width="2.0"/>
<line x1="114.1" y1="53.5" x2="102.0" y2="46.5" stroke="rgb(0,0,0)"  stroke-width="2.0"/>
<line x1="136.6" y1="53.5" x2="148.7" y2="46.5" stroke="rgb(0,0,0)"  stroke-width="2.0"/>
<line x1="126.9" y1="97.4" x2="150.2" y2="110.9" stroke="rgb(0,0,0)"  stroke-width="2.0"/>
<line x1="123.9" y1="102.6" x2="147.2" y2="116.1" stroke="rgb(0,0,0)"  stroke-width="2.0"/>
<line x1="160.0" y1="133.0" x2="160.0" y2="147.0" stroke="rgb(0,0,0)"  stroke-width="2.0"/>
<line x1="173.0" y1="157.0" x2="187.0" y2="157.0" stroke="rgb(0,0,0)"  stroke-width="2.0"/>
<line x1="173.0" y1="163.0" x2="187.0" y2="163.0" stroke="rgb(0,0,0)"  stroke-width="2.0"/>
<line x1="206.5" y1="148.7" x2="220.0" y2="125.4" stroke="rgb(0,0,0)"  stroke-width="2.0"/>
<line x1="160.0" y1="173.0" x2="160.0" y2="187.0" stroke="rgb(0,0,0)"  stroke-width="2.0"/>
<line x1="172.8" y1="203.9" x2="196.1" y2="217.4" stroke="rgb(0,0,0)"  stroke-width="2.0"/>
<line x1="169.8" y1="209.1" x2="193.1" y2="222.6" stroke="rgb(0,0,0)"  stroke-width="2.0"/>
<line x1="194.6" y1="220.0" x2="218.0" y2="206.5" stroke="rgb(0,0,0)"  stroke-width="2.0"/>
<line x1="229.3" y1="187.0" x2="229.3" y2="173.0" stroke="rgb(0,0,0)"  stroke-width="2.0"/>
<line x1="240.5" y1="206.5" x2="252.7" y2="213.5" stroke="rgb(0,0,0)"  stroke-width="2.0"/>
<line x1="194.6" y1="220.0" x2="194.6" y2="247.0" stroke="rgb(0,0,0)"  stroke-width="2.0"/>
<line x1="205.9" y1="266.5" x2="218.0" y2="273.5" stroke="rgb(0,0,0)"  stroke-width="2.0"/>
<line x1="183.4" y1="266.5" x2="171.3" y2="273.5" stroke="rgb(0,0,0)"  stroke-width="2.0"/>
<line x1="147.0" y1="160.0" x2="133.0" y2="160.0" stroke="rgb(0,0,0)"  stroke-width="2.0"/>
<line x1="116.1" y1="172.8" x2="102.6" y2="196.1" stroke="rgb(0,0,0)"  stroke-width="2.0"/>
<line x1="110.9" y1="169.8" x2="97.4" y2="193.1" stroke="rgb(0,0,0)"  stroke-width="2.0"/>
<line x1="100.0" y1="194.6" x2="113.5" y2="218.0" stroke="rgb(0,0,0)"  stroke-width="2.0"/>
<line x1="133.0" y1="229.3" x2="147.0" y2="229.3" stroke="rgb(0,0,0)"  stroke-width="2.0"/>
<line x1="113.5" y1="240.5" x2="106.5" y2="252.7" stroke="rgb(0,0,0)"  stroke-width="2.0"/>
<line x1="100.0" y1="194.6" x2="73.0" y2="194.6" stroke="rgb(0,0,0)"  stroke-width="2.0"/>
<line x1="53.5" y1="205.9" x2="46.5" y2="218.0" stroke="rgb(0,0,0)"  stroke-width="2.0"/>
<line x1="53.5" y1="183.4" x2="46.5" y2="171.3" stroke="rgb(0,0,0)"  stroke-width="2.0"/>
<line x1="220.0" y1="56.1" x2="260.0" y2="56.1" stroke="rgb(0,0,0)"  stroke-width="2.0"/>
<line x1="226.0" y1="63.3" x2="254.0" y2="63.3" stroke="rgb(0,0,0)"  stroke-width="2.0"/>
<line x1="260.0" y1="56.1" x2="280.0" y2="90.7" stroke="rgb(0,0,0)"  stroke-width="2.0"/>
<line x1="280.0" y1="90.7" x2="260.0" y2="125.4" stroke="rgb(0,0,0)"  stroke-width="2.0"/>
<line x1="270.8" y1="92.3" x2="256.8" y2="116.6" stroke="rgb(0,0,0)"  stroke-width="2.0"/>
<line x1="260.0" y1="125.4" x2="220.0" y2="125.4" stroke="rgb(0,0,0)"  stroke-width="2.0"/>
<line x1="220.0" y1="125.4" x2="200.0" y2="90.7" stroke="rgb(0,0,0)"  stroke-width="2.0"/>
<line x1="223.2" y1="116.6" x2="209.2" y2="92.3" stroke="rgb(0,0,0)"  stroke-width="2.0"/>
<line x1="200.0" y1="90.7" x2="220.0" y2="56.1" stroke="rgb(0,0,0)"  stroke-width="2.0"/>
<text x="154.000000" y="208.000000" fill="rgb(12,12,255)"  stroke="rgb(12,12,255)" stroke-width="1" font-size="16" >N</text>
<text x="14.000000" y="168.000000" fill="rgb(102,102,102)"  stroke="rgb(102,102,102)" stroke-width="1" font-size="16" >H</text>
<text x="26.000000" y="171.680000" fill="rgb(102,102,102)"  stroke="rgb(102,102,102)" stroke-width="1" font-size="13" >3</text>
<text x="32.500000" y="168.000000" fill="rgb(102,102,102)"  stroke="rgb(102,102,102)" stroke-width="1" font-size="16" >C</text>
<text x="14.000000" y="237.282032" fill="rgb(102,102,102)"  stroke="rgb(102,102,102)" stroke-width="1" font-size="16" >H</text>
<text x="26.000000" y="240.962032" fill="rgb(102,102,102)"  stroke="rgb(102,102,102)" stroke-width="1" font-size="13" >3</text>
<text x="32.500000" y="237.282032" fill="rgb(102,102,102)"  stroke="rgb(102,102,102)" stroke-width="1" font-size="16" >C</text>
<text x="54.000000" y="202.641016" fill="rgb(12,12,255)"  stroke="rgb(12,12,255)" stroke-width="1" font-size="16" >N</text>
<text x="74.000000" y="271.923048" fill="rgb(102,102,102)"  stroke="rgb(102,102,102)" stroke-width="1" font-size="16" >H</text>
<text x="86.000000" y="275.603048" fill="rgb(102,102,102)"  stroke="rgb(102,102,102)" stroke-width="1" font-size="13" >3</text>
<text x="92.500000" y="271.923048" fill="rgb(102,102,102)"  stroke="rgb(102,102,102)" stroke-width="1" font-size="16" >C</text>
<text x="156.000000" y="237.282032" fill="rgb(102,102,102)"  stroke="rgb(102,102,102)" stroke-width="1" font-size="16" >CH</text>
<text x="180.000000" y="240.962032" fill="rgb(102,102,102)"  stroke="rgb(102,102,102)" stroke-width="1" font-size="13" >3</text>
<text x="114.000000" y="237.282032" fill="rgb(12,12,255)"  stroke="rgb(12,12,255)" stroke-width="1" font-size="16" >N</text>
<text x="114.000000" y="168.000000" fill="rgb(12,12,255)"  stroke="rgb(12,12,255)" stroke-width="1" font-size="16" >N</text>
<text x="134.000000" y="288.000000" fill="rgb(102,102,102)"  stroke="rgb(102,102,102)" stroke-width="1" font-size="16" >H</text>
<text x="146.000000" y="291.680000" fill="rgb(102,102,102)"  stroke="rgb(102,102,102)" stroke-width="1" font-size="13" >3</text>
<text x="152.500000" y="288.000000" fill="rgb(102,102,102)"  stroke="rgb(102,102,102)" stroke-width="1" font-size="16" >C</text>
<text x="225.282032" y="288.000000" fill="rgb(102,102,102)"  stroke="rgb(102,102,102)" stroke-width="1" font-size="16" >CH</text>
<text x="249.282032" y="291.680000" fill="rgb(102,102,102)"  stroke="rgb(102,102,102)" stroke-width="1" font-size="13" >3</text>
<text x="188.641016" y="268.000000" fill="rgb(12,12,255)"  stroke="rgb(12,12,255)" stroke-width="1" font-size="16" >N</text>
<text x="259.923048" y="228.000000" fill="rgb(102,102,102)"  stroke="rgb(102,102,102)" stroke-width="1" font-size="16" >CH</text>
<text x="283.923048" y="231.680000" fill="rgb(102,102,102)"  stroke="rgb(102,102,102)" stroke-width="1" font-size="13" >3</text>
<text x="225.282032" y="168.000000" fill="rgb(102,102,102)"  stroke="rgb(102,102,102)" stroke-width="1" font-size="16" >CH</text>
<text x="249.282032" y="171.680000" fill="rgb(102,102,102)"  stroke="rgb(102,102,102)" stroke-width="1" font-size="13" >3</text>
<text x="223.282032" y="208.000000" fill="rgb(12,12,255)"  stroke="rgb(12,12,255)" stroke-width="1" font-size="16" >N</text>
<text x="30.076952" y="108.000000" fill="rgb(102,102,102)"  stroke="rgb(102,102,102)" stroke-width="1" font-size="16" >H</text>
<text x="42.076952" y="111.680000" fill="rgb(102,102,102)"  stroke="rgb(102,102,102)" stroke-width="1" font-size="13" >3</text>
<text x="48.576952" y="108.000000" fill="rgb(102,102,102)"  stroke="rgb(102,102,102)" stroke-width="1" font-size="16" >C</text>
<text x="194.000000" y="168.000000" fill="rgb(12,12,255)"  stroke="rgb(12,12,255)" stroke-width="1" font-size="16" >N</text>
<text x="154.000000" y="168.000000" fill="rgb(255,127,0)"  stroke="rgb(255,127,0)" stroke-width="1" font-size="16" >P</text>
<text x="154.000000" y="128.000000" fill="rgb(12,12,255)"  stroke="rgb(12,12,255)" stroke-width="1" font-size="16" >N</text>
<text x="156.000000" y="48.000000" fill="rgb(102,102,102)"  stroke="rgb(102,102,102)" stroke-width="1" font-size="16" >CH</text>
<text x="180.000000" y="51.680000" fill="rgb(102,102,102)"  stroke="rgb(102,102,102)" stroke-width="1" font-size="13" >3</text>
<text x="64.717968" y="48.000000" fill="rgb(102,102,102)"  stroke="rgb(102,102,102)" stroke-width="1" font-size="16" >H</text>
<text x="76.717968" y="51.680000" fill="rgb(102,102,102)"  stroke="rgb(102,102,102)" stroke-width="1" font-size="13" >3</text>
<text x="83.217968" y="48.000000" fill="rgb(102,102,102)"  stroke="rgb(102,102,102)" stroke-width="1" font-size="16" >C</text>
<text x="119.358984" y="68.000000" fill="rgb(12,12,255)"  stroke="rgb(12,12,255)" stroke-width="1" font-size="16" >N</text>
<text x="86.717968" y="168.000000" fill="rgb(102,102,102)"  stroke="rgb(102,102,102)" stroke-width="1" font-size="16" >CH</text>
<text x="110.717968" y="171.680000" fill="rgb(102,102,102)"  stroke="rgb(102,102,102)" stroke-width="1" font-size="13" >3</text>
<text x="84.717968" y="128.000000" fill="rgb(12,12,255)"  stroke="rgb(12,12,255)" stroke-width="1" font-size="16" >N</text>
</svg>
</g>
<text font-size="18.000000" fill ="black" font-family="sans-serif"
x="10.000000" y="20.000000" ></text>
</svg>
