<?xml version="1.0"?>
<svg version="1.1" id="topsvg"
xmlns="http://www.w3.org/2000/svg" xmlns:xlink="http://www.w3.org/1999/xlink"
xmlns:cml="http://www.xml-cml.org/schema" x="0" y="0" width="200px" height="200px" viewBox="0 0 100 100">
<title> - Open Babel Depiction</title>
<rect x="0" y="0" width="100" height="100" fill="white"/>
<g transform="translate(0,0)">
<svg width="100" height="100" x="0" y="0" viewBox="0 0 322.817 226.804"
font-family="sans-serif" stroke="rgb(0,0,0)" stroke-width="2"  stroke-linecap="round">
<line x1="242.8" y1="173.8" x2="242.8" y2="159.8" stroke="rgb(0,0,0)"  stroke-width="2.0"/>
<line x1="255.8" y1="143.8" x2="269.8" y2="143.8" stroke="rgb(0,0,0)"  stroke-width="2.0"/>
<line x1="255.8" y1="149.8" x2="269.8" y2="149.8" stroke="rgb(0,0,0)"  stroke-width="2.0"/>
<line x1="239.8" y1="133.8" x2="239.8" y2="119.8" stroke="rgb(0,0,0)"  stroke-width="2.0"/>
<line x1="245.8" y1="133.8" x2="245.8" y2="119.8" stroke="rgb(0,0,0)"  stroke-width="2.0"/>
<line x1="229.8" y1="146.8" x2="202.8" y2="146.8" stroke="rgb(0,0,0)"  stroke-width="2.0"/>
<line x1="141.3" y1="126.8" x2="108.9" y2="103.3" stroke="rgb(0,0,0)"  stroke-width="2.0"/>
<line x1="113.1" y1="63.5" x2="137.7" y2="52.5" stroke="rgb(0,0,0)"  stroke-width="2.0"/>
<line x1="141.3" y1="153.6" x2="141.3" y2="126.8" stroke="rgb(0,0,0)"  stroke-width="2.0"/>
<line x1="148.5" y1="151.6" x2="148.5" y2="132.8" stroke="rgb(0,0,0)"  stroke-width="2.0"/>
<line x1="141.3" y1="126.8" x2="166.9" y2="118.5" stroke="rgb(0,0,0)"  stroke-width="2.0"/>
<line x1="186.9" y1="125.0" x2="202.8" y2="146.8" stroke="rgb(0,0,0)"  stroke-width="2.0"/>
<line x1="202.8" y1="146.8" x2="187.1" y2="168.5" stroke="rgb(0,0,0)"  stroke-width="2.0"/>
<line x1="193.5" y1="147.4" x2="182.4" y2="162.6" stroke="rgb(0,0,0)"  stroke-width="2.0"/>
<line x1="166.9" y1="175.1" x2="153.6" y2="170.8" stroke="rgb(0,0,0)"  stroke-width="2.0"/>
<line x1="40.0" y1="96.1" x2="44.2" y2="56.3" stroke="rgb(0,0,0)"  stroke-width="2.0"/>
<line x1="47.8" y1="90.8" x2="50.7" y2="63.0" stroke="rgb(0,0,0)"  stroke-width="2.0"/>
<line x1="44.2" y1="56.3" x2="80.7" y2="40.0" stroke="rgb(0,0,0)"  stroke-width="2.0"/>
<line x1="80.7" y1="40.0" x2="113.1" y2="63.5" stroke="rgb(0,0,0)"  stroke-width="2.0"/>
<line x1="81.3" y1="49.4" x2="104.0" y2="65.8" stroke="rgb(0,0,0)"  stroke-width="2.0"/>
<line x1="113.1" y1="63.5" x2="108.9" y2="103.3" stroke="rgb(0,0,0)"  stroke-width="2.0"/>
<line x1="108.9" y1="103.3" x2="72.4" y2="119.6" stroke="rgb(0,0,0)"  stroke-width="2.0"/>
<line x1="100.5" y1="99.2" x2="74.9" y2="110.5" stroke="rgb(0,0,0)"  stroke-width="2.0"/>
<line x1="72.4" y1="119.6" x2="40.0" y2="96.1" stroke="rgb(0,0,0)"  stroke-width="2.0"/>
<text x="238.816849" y="194.803696" fill="rgb(12,12,255)"  stroke="rgb(12,12,255)" stroke-width="1" font-size="16" >NH</text>
<text x="262.816849" y="198.483696" fill="rgb(12,12,255)"  stroke="rgb(12,12,255)" stroke-width="1" font-size="13" >2</text>
<text x="236.816849" y="154.803696" fill="rgb(178,178,0)"  stroke="rgb(178,178,0)" stroke-width="1" font-size="16" >S</text>
<text x="276.816849" y="154.803696" fill="rgb(255,12,12)"  stroke="rgb(255,12,12)" stroke-width="1" font-size="16" >O</text>
<text x="236.816849" y="114.803696" fill="rgb(255,12,12)"  stroke="rgb(255,12,12)" stroke-width="1" font-size="16" >O</text>
<text x="173.305439" y="187.164376" fill="rgb(12,12,255)"  stroke="rgb(12,12,255)" stroke-width="1" font-size="16" >N</text>
<text x="135.263178" y="174.803696" fill="rgb(12,12,255)"  stroke="rgb(12,12,255)" stroke-width="1" font-size="16" >N</text>
<text x="173.305439" y="122.443016" fill="rgb(178,178,0)"  stroke="rgb(178,178,0)" stroke-width="1" font-size="16" >S</text>
<text x="143.625455" y="55.241944" fill="rgb(30,239,30)"  stroke="rgb(30,239,30)" stroke-width="1" font-size="16" >Cl</text>
</svg>
</g>
<text font-size="18.000000" fill ="black" font-family="sans-serif"
x="10.000000" y="20.000000" ></text>
</svg>
