<?xml version="1.0"?>
<svg version="1.1" id="topsvg"
xmlns="http://www.w3.org/2000/svg" xmlns:xlink="http://www.w3.org/1999/xlink"
xmlns:cml="http://www.xml-cml.org/schema" x="0" y="0" width="200px" height="200px" viewBox="0 0 100 100">
<title> - Open Babel Depiction</title>
<rect x="0" y="0" width="100" height="100" fill="white"/>
<g transform="translate(0,0)">
<svg width="100" height="100" x="0" y="0" viewBox="0 0 431.769 360"
font-family="sans-serif" stroke="rgb(0,0,0)" stroke-width="2"  stroke-linecap="round">
<line x1="321.6" y1="253.7" x2="302.5" y2="234.6" stroke="rgb(0,0,0)"  stroke-width="2.0"/>
<line x1="302.5" y1="234.6" x2="287.2" y2="256.9" stroke="rgb(0,0,0)"  stroke-width="2.0"/>
<line x1="322.5" y1="200.0" x2="357.1" y2="180.0" stroke="rgb(0,0,0)"  stroke-width="2.0"/>
<line x1="357.1" y1="180.0" x2="380.5" y2="193.5" stroke="rgb(0,0,0)"  stroke-width="2.0"/>
<line x1="357.1" y1="180.0" x2="357.1" y2="140.0" stroke="rgb(0,0,0)"  stroke-width="2.0"/>
<line x1="357.1" y1="140.0" x2="343.6" y2="116.6" stroke="rgb(0,0,0)"  stroke-width="2.0"/>
<line x1="357.1" y1="140.0" x2="330.1" y2="140.0" stroke="rgb(0,0,0)"  stroke-width="2.0"/>
<line x1="357.1" y1="140.0" x2="380.5" y2="126.5" stroke="rgb(0,0,0)"  stroke-width="2.0"/>
<line x1="282.5" y1="200.0" x2="247.8" y2="180.0" stroke="rgb(0,0,0)"  stroke-width="2.0"/>
<line x1="247.8" y1="180.0" x2="247.8" y2="153.0" stroke="rgb(0,0,0)"  stroke-width="2.0"/>
<line x1="236.6" y1="133.5" x2="213.2" y2="120.0" stroke="rgb(0,0,0)"  stroke-width="2.0"/>
<line x1="213.2" y1="120.0" x2="213.2" y2="80.0" stroke="rgb(0,0,0)"  stroke-width="2.0"/>
<line x1="213.2" y1="80.0" x2="213.2" y2="53.0" stroke="rgb(0,0,0)"  stroke-width="2.0"/>
<line x1="209.0" y1="80.0" x2="209.0" y2="53.0" stroke="rgb(0,0,0)"  stroke-width="2.0"/>
<line x1="217.4" y1="80.0" x2="217.4" y2="53.0" stroke="rgb(0,0,0)"  stroke-width="2.0"/>
<line x1="213.2" y1="120.0" x2="178.6" y2="140.0" stroke="rgb(0,0,0)"  stroke-width="2.0"/>
<line x1="143.9" y1="200.0" x2="143.9" y2="227.0" stroke="rgb(0,0,0)"  stroke-width="2.0"/>
<line x1="132.7" y1="246.5" x2="109.3" y2="260.0" stroke="rgb(0,0,0)"  stroke-width="2.0"/>
<line x1="249.3" y1="182.6" x2="226.0" y2="196.1" stroke="rgb(0,0,0)"  stroke-width="2.0"/>
<line x1="246.3" y1="177.4" x2="223.0" y2="190.9" stroke="rgb(0,0,0)"  stroke-width="2.0"/>
<line x1="143.9" y1="200.0" x2="109.3" y2="180.0" stroke="rgb(0,0,0)"  stroke-width="2.0"/>
<line x1="142.3" y1="190.8" x2="118.1" y2="176.8" stroke="rgb(0,0,0)"  stroke-width="2.0"/>
<line x1="109.3" y1="180.0" x2="109.3" y2="140.0" stroke="rgb(0,0,0)"  stroke-width="2.0"/>
<line x1="109.3" y1="140.0" x2="143.9" y2="120.0" stroke="rgb(0,0,0)"  stroke-width="2.0"/>
<line x1="118.1" y1="143.2" x2="142.3" y2="129.2" stroke="rgb(0,0,0)"  stroke-width="2.0"/>
<line x1="143.9" y1="120.0" x2="178.6" y2="140.0" stroke="rgb(0,0,0)"  stroke-width="2.0"/>
<line x1="178.6" y1="140.0" x2="178.6" y2="180.0" stroke="rgb(0,0,0)"  stroke-width="2.0"/>
<line x1="171.4" y1="146.0" x2="171.4" y2="174.0" stroke="rgb(0,0,0)"  stroke-width="2.0"/>
<line x1="178.6" y1="180.0" x2="143.9" y2="200.0" stroke="rgb(0,0,0)"  stroke-width="2.0"/>
<line x1="74.6" y1="320.0" x2="40.0" y2="300.0" stroke="rgb(0,0,0)"  stroke-width="2.0"/>
<line x1="73.0" y1="310.8" x2="48.8" y2="296.8" stroke="rgb(0,0,0)"  stroke-width="2.0"/>
<line x1="40.0" y1="300.0" x2="40.0" y2="260.0" stroke="rgb(0,0,0)"  stroke-width="2.0"/>
<line x1="40.0" y1="260.0" x2="74.6" y2="240.0" stroke="rgb(0,0,0)"  stroke-width="2.0"/>
<line x1="48.8" y1="263.2" x2="73.0" y2="249.2" stroke="rgb(0,0,0)"  stroke-width="2.0"/>
<line x1="74.6" y1="240.0" x2="109.3" y2="260.0" stroke="rgb(0,0,0)"  stroke-width="2.0"/>
<line x1="109.3" y1="260.0" x2="109.3" y2="300.0" stroke="rgb(0,0,0)"  stroke-width="2.0"/>
<line x1="102.1" y1="266.0" x2="102.1" y2="294.0" stroke="rgb(0,0,0)"  stroke-width="2.0"/>
<line x1="109.3" y1="300.0" x2="74.6" y2="320.0" stroke="rgb(0,0,0)"  stroke-width="2.0"/>
<line x1="322.5" y1="200.0" x2="302.5" y2="234.6" stroke="rgb(0,0,0)"  stroke-width="2.0"/>
<line x1="302.5" y1="234.6" x2="282.5" y2="200.0" stroke="rgb(0,0,0)"  stroke-width="2.0"/>
<line x1="282.5" y1="200.0" x2="322.5" y2="200.0" stroke="rgb(0,0,0)"  stroke-width="2.0"/>
<text x="207.205081" y="48.000000" fill="rgb(12,12,255)"  stroke="rgb(12,12,255)" stroke-width="1" font-size="16" >N</text>
<text x="207.205081" y="208.000000" fill="rgb(255,12,12)"  stroke="rgb(255,12,12)" stroke-width="1" font-size="16" >O</text>
<text x="137.923048" y="248.000000" fill="rgb(255,12,12)"  stroke="rgb(255,12,12)" stroke-width="1" font-size="16" >O</text>
<text x="326.771384" y="270.925287" fill="rgb(102,102,102)"  stroke="rgb(102,102,102)" stroke-width="1" font-size="16" >CH</text>
<text x="350.771384" y="274.605287" fill="rgb(102,102,102)"  stroke="rgb(102,102,102)" stroke-width="1" font-size="13" >3</text>
<text x="241.846097" y="148.000000" fill="rgb(255,12,12)"  stroke="rgb(255,12,12)" stroke-width="1" font-size="16" >O</text>
<text x="385.769145" y="128.000000" fill="rgb(165,40,40)"  stroke="rgb(165,40,40)" stroke-width="1" font-size="16" >Br</text>
<text x="299.128129" y="148.000000" fill="rgb(165,40,40)"  stroke="rgb(165,40,40)" stroke-width="1" font-size="16" >Br</text>
<text x="319.128129" y="113.358984" fill="rgb(165,40,40)"  stroke="rgb(165,40,40)" stroke-width="1" font-size="16" >Br</text>
<text x="385.769145" y="208.000000" fill="rgb(165,40,40)"  stroke="rgb(165,40,40)" stroke-width="1" font-size="16" >Br</text>
<text x="253.772378" y="275.565791" fill="rgb(102,102,102)"  stroke="rgb(102,102,102)" stroke-width="1" font-size="16" >H</text>
<text x="265.772378" y="279.245791" fill="rgb(102,102,102)"  stroke="rgb(102,102,102)" stroke-width="1" font-size="13" >3</text>
<text x="272.272378" y="275.565791" fill="rgb(102,102,102)"  stroke="rgb(102,102,102)" stroke-width="1" font-size="16" >C</text>
</svg>
</g>
<text font-size="18.000000" fill ="black" font-family="sans-serif"
x="10.000000" y="20.000000" ></text>
</svg>
