<?xml version="1.0"?>
<svg version="1.1" id="topsvg"
xmlns="http://www.w3.org/2000/svg" xmlns:xlink="http://www.w3.org/1999/xlink"
xmlns:cml="http://www.xml-cml.org/schema" x="0" y="0" width="200px" height="200px" viewBox="0 0 100 100">
<title> - Open Babel Depiction</title>
<rect x="0" y="0" width="100" height="100" fill="white"/>
<g transform="translate(0,0)">
<svg width="100" height="100" x="0" y="0" viewBox="0 0 573.584 250.188"
font-family="sans-serif" stroke="rgb(0,0,0)" stroke-width="2"  stroke-linecap="round">
<line x1="464.3" y1="150.2" x2="429.7" y2="130.2" stroke="rgb(0,0,0)"  stroke-width="2.0"/>
<line x1="366.4" y1="116.7" x2="326.6" y2="120.9" stroke="rgb(0,0,0)"  stroke-width="2.0"/>
<line x1="247.0" y1="129.3" x2="207.2" y2="133.5" stroke="rgb(0,0,0)"  stroke-width="2.0"/>
<line x1="143.9" y1="120.0" x2="109.3" y2="100.0" stroke="rgb(0,0,0)"  stroke-width="2.0"/>
<line x1="366.4" y1="116.7" x2="379.8" y2="93.5" stroke="rgb(0,0,0)"  stroke-width="2.0"/>
<line x1="375.6" y1="115.1" x2="385.0" y2="98.9" stroke="rgb(0,0,0)"  stroke-width="2.0"/>
<line x1="399.1" y1="84.8" x2="425.5" y2="90.4" stroke="rgb(0,0,0)"  stroke-width="2.0"/>
<line x1="425.5" y1="90.4" x2="429.7" y2="130.2" stroke="rgb(0,0,0)"  stroke-width="2.0"/>
<line x1="418.9" y1="97.1" x2="421.9" y2="125.0" stroke="rgb(0,0,0)"  stroke-width="2.0"/>
<line x1="429.7" y1="130.2" x2="405.0" y2="141.2" stroke="rgb(0,0,0)"  stroke-width="2.0"/>
<line x1="384.4" y1="136.8" x2="366.4" y2="116.7" stroke="rgb(0,0,0)"  stroke-width="2.0"/>
<line x1="193.8" y1="156.7" x2="207.2" y2="133.5" stroke="rgb(0,0,0)"  stroke-width="2.0"/>
<line x1="188.6" y1="151.3" x2="198.0" y2="135.1" stroke="rgb(0,0,0)"  stroke-width="2.0"/>
<line x1="207.2" y1="133.5" x2="189.2" y2="113.4" stroke="rgb(0,0,0)"  stroke-width="2.0"/>
<line x1="168.6" y1="109.0" x2="143.9" y2="120.0" stroke="rgb(0,0,0)"  stroke-width="2.0"/>
<line x1="143.9" y1="120.0" x2="148.1" y2="159.8" stroke="rgb(0,0,0)"  stroke-width="2.0"/>
<line x1="151.7" y1="125.2" x2="154.6" y2="153.1" stroke="rgb(0,0,0)"  stroke-width="2.0"/>
<line x1="148.1" y1="159.8" x2="174.5" y2="165.4" stroke="rgb(0,0,0)"  stroke-width="2.0"/>
<line x1="498.9" y1="210.2" x2="533.6" y2="190.2" stroke="rgb(0,0,0)"  stroke-width="2.0"/>
<line x1="500.5" y1="201.0" x2="524.8" y2="187.0" stroke="rgb(0,0,0)"  stroke-width="2.0"/>
<line x1="533.6" y1="190.2" x2="533.6" y2="150.2" stroke="rgb(0,0,0)"  stroke-width="2.0"/>
<line x1="533.6" y1="150.2" x2="498.9" y2="130.2" stroke="rgb(0,0,0)"  stroke-width="2.0"/>
<line x1="524.8" y1="153.4" x2="500.5" y2="139.4" stroke="rgb(0,0,0)"  stroke-width="2.0"/>
<line x1="498.9" y1="130.2" x2="464.3" y2="150.2" stroke="rgb(0,0,0)"  stroke-width="2.0"/>
<line x1="464.3" y1="150.2" x2="464.3" y2="190.2" stroke="rgb(0,0,0)"  stroke-width="2.0"/>
<line x1="471.5" y1="156.2" x2="471.5" y2="184.2" stroke="rgb(0,0,0)"  stroke-width="2.0"/>
<line x1="464.3" y1="190.2" x2="498.9" y2="210.2" stroke="rgb(0,0,0)"  stroke-width="2.0"/>
<line x1="270.5" y1="161.6" x2="247.0" y2="129.3" stroke="rgb(0,0,0)"  stroke-width="2.0"/>
<line x1="272.8" y1="152.5" x2="256.4" y2="129.9" stroke="rgb(0,0,0)"  stroke-width="2.0"/>
<line x1="247.0" y1="129.3" x2="263.3" y2="92.7" stroke="rgb(0,0,0)"  stroke-width="2.0"/>
<line x1="263.3" y1="92.7" x2="303.1" y2="88.6" stroke="rgb(0,0,0)"  stroke-width="2.0"/>
<line x1="270.0" y1="99.3" x2="297.8" y2="96.3" stroke="rgb(0,0,0)"  stroke-width="2.0"/>
<line x1="303.1" y1="88.6" x2="326.6" y2="120.9" stroke="rgb(0,0,0)"  stroke-width="2.0"/>
<line x1="326.6" y1="120.9" x2="310.3" y2="157.5" stroke="rgb(0,0,0)"  stroke-width="2.0"/>
<line x1="317.6" y1="123.5" x2="306.2" y2="149.0" stroke="rgb(0,0,0)"  stroke-width="2.0"/>
<line x1="310.3" y1="157.5" x2="270.5" y2="161.6" stroke="rgb(0,0,0)"  stroke-width="2.0"/>
<line x1="40.0" y1="100.0" x2="40.0" y2="60.0" stroke="rgb(0,0,0)"  stroke-width="2.0"/>
<line x1="47.2" y1="94.0" x2="47.2" y2="66.0" stroke="rgb(0,0,0)"  stroke-width="2.0"/>
<line x1="40.0" y1="60.0" x2="74.6" y2="40.0" stroke="rgb(0,0,0)"  stroke-width="2.0"/>
<line x1="74.6" y1="40.0" x2="109.3" y2="60.0" stroke="rgb(0,0,0)"  stroke-width="2.0"/>
<line x1="76.2" y1="49.2" x2="100.5" y2="63.2" stroke="rgb(0,0,0)"  stroke-width="2.0"/>
<line x1="109.3" y1="60.0" x2="109.3" y2="100.0" stroke="rgb(0,0,0)"  stroke-width="2.0"/>
<line x1="109.3" y1="100.0" x2="74.6" y2="120.0" stroke="rgb(0,0,0)"  stroke-width="2.0"/>
<line x1="100.5" y1="96.8" x2="76.2" y2="110.8" stroke="rgb(0,0,0)"  stroke-width="2.0"/>
<line x1="74.6" y1="120.0" x2="40.0" y2="100.0" stroke="rgb(0,0,0)"  stroke-width="2.0"/>
<text x="174.464867" y="111.730534" fill="rgb(255,12,12)"  stroke="rgb(255,12,12)" stroke-width="1" font-size="16" >O</text>
<text x="181.230091" y="176.097343" fill="rgb(12,12,255)"  stroke="rgb(12,12,255)" stroke-width="1" font-size="16" >N</text>
<text x="380.353594" y="90.090757" fill="rgb(12,12,255)"  stroke="rgb(12,12,255)" stroke-width="1" font-size="16" >N</text>
<text x="387.118819" y="154.457566" fill="rgb(255,12,12)"  stroke="rgb(255,12,12)" stroke-width="1" font-size="16" >O</text>
</svg>
</g>
<text font-size="18.000000" fill ="black" font-family="sans-serif"
x="10.000000" y="20.000000" ></text>
</svg>
