<?xml version="1.0"?>
<svg version="1.1" id="topsvg"
xmlns="http://www.w3.org/2000/svg" xmlns:xlink="http://www.w3.org/1999/xlink"
xmlns:cml="http://www.xml-cml.org/schema" x="0" y="0" width="200px" height="200px" viewBox="0 0 100 100">
<title> - Open Babel Depiction</title>
<rect x="0" y="0" width="100" height="100" fill="white"/>
<g transform="translate(0,0)">
<svg width="100" height="100" x="0" y="0" viewBox="0 0 404.227 255.304"
font-family="sans-serif" stroke="rgb(0,0,0)" stroke-width="2"  stroke-linecap="round">
<line x1="310.7" y1="202.2" x2="316.4" y2="189.4" stroke="rgb(0,0,0)"  stroke-width="2.0"/>
<line x1="316.2" y1="204.6" x2="321.9" y2="191.9" stroke="rgb(0,0,0)"  stroke-width="2.0"/>
<line x1="337.1" y1="174.4" x2="351.0" y2="173.0" stroke="rgb(0,0,0)"  stroke-width="2.0"/>
<line x1="337.7" y1="180.4" x2="351.6" y2="178.9" stroke="rgb(0,0,0)"  stroke-width="2.0"/>
<line x1="316.8" y1="168.2" x2="300.9" y2="146.4" stroke="rgb(0,0,0)"  stroke-width="2.0"/>
<line x1="248.6" y1="108.4" x2="210.5" y2="96.0" stroke="rgb(0,0,0)"  stroke-width="2.0"/>
<line x1="212.5" y1="98.2" x2="188.5" y2="111.8" stroke="rgb(0,0,0)"  stroke-width="2.0"/>
<line x1="208.5" y1="93.8" x2="192.5" y2="116.3" stroke="rgb(0,0,0)"  stroke-width="2.0"/>
<line x1="168.4" y1="118.7" x2="155.1" y2="114.4" stroke="rgb(0,0,0)"  stroke-width="2.0"/>
<line x1="79.0" y1="113.3" x2="53.3" y2="121.6" stroke="rgb(0,0,0)"  stroke-width="2.0"/>
<line x1="77.1" y1="107.5" x2="51.4" y2="115.9" stroke="rgb(0,0,0)"  stroke-width="2.0"/>
<line x1="128.0" y1="70.6" x2="143.8" y2="48.8" stroke="rgb(0,0,0)"  stroke-width="2.0"/>
<line x1="132.8" y1="74.1" x2="148.7" y2="52.3" stroke="rgb(0,0,0)"  stroke-width="2.0"/>
<line x1="248.6" y1="108.4" x2="280.9" y2="84.8" stroke="rgb(0,0,0)"  stroke-width="2.0"/>
<line x1="257.7" y1="110.7" x2="280.3" y2="94.2" stroke="rgb(0,0,0)"  stroke-width="2.0"/>
<line x1="280.9" y1="84.8" x2="313.3" y2="108.4" stroke="rgb(0,0,0)"  stroke-width="2.0"/>
<line x1="313.3" y1="108.4" x2="300.9" y2="146.4" stroke="rgb(0,0,0)"  stroke-width="2.0"/>
<line x1="304.6" y1="111.8" x2="295.9" y2="138.5" stroke="rgb(0,0,0)"  stroke-width="2.0"/>
<line x1="300.9" y1="146.4" x2="273.9" y2="146.4" stroke="rgb(0,0,0)"  stroke-width="2.0"/>
<line x1="256.9" y1="134.0" x2="248.6" y2="108.4" stroke="rgb(0,0,0)"  stroke-width="2.0"/>
<line x1="78.0" y1="110.4" x2="86.4" y2="84.7" stroke="rgb(0,0,0)"  stroke-width="2.0"/>
<line x1="103.4" y1="72.4" x2="130.4" y2="72.4" stroke="rgb(0,0,0)"  stroke-width="2.0"/>
<line x1="130.4" y1="72.4" x2="138.7" y2="98.0" stroke="rgb(0,0,0)"  stroke-width="2.0"/>
<line x1="132.2" y1="118.0" x2="110.4" y2="133.9" stroke="rgb(0,0,0)"  stroke-width="2.0"/>
<line x1="110.4" y1="133.9" x2="78.0" y2="110.4" stroke="rgb(0,0,0)"  stroke-width="2.0"/>
<text x="147.914351" y="48.000000" fill="rgb(255,12,12)"  stroke="rgb(255,12,12)" stroke-width="1" font-size="16" >O</text>
<text x="84.402940" y="80.360680" fill="rgb(12,12,255)"  stroke="rgb(12,12,255)" stroke-width="1" font-size="16" >N</text>
<text x="84.402940" y="64.360680" fill="rgb(12,12,255)"  stroke="rgb(12,12,255)" stroke-width="1" font-size="16" >H</text>
<text x="34.000000" y="130.763620" fill="rgb(255,12,12)"  stroke="rgb(255,12,12)" stroke-width="1" font-size="16" >O</text>
<text x="136.763620" y="118.402940" fill="rgb(12,12,255)"  stroke="rgb(12,12,255)" stroke-width="1" font-size="16" >N</text>
<text x="174.805881" y="130.763620" fill="rgb(12,12,255)"  stroke="rgb(12,12,255)" stroke-width="1" font-size="16" >N</text>
<text x="302.176559" y="223.303834" fill="rgb(255,12,12)"  stroke="rgb(255,12,12)" stroke-width="1" font-size="16" >O</text>
<text x="254.934614" y="154.401336" fill="rgb(255,12,12)"  stroke="rgb(255,12,12)" stroke-width="1" font-size="16" >O</text>
<text x="358.226900" y="182.580878" fill="rgb(255,12,12)"  stroke="rgb(255,12,12)" stroke-width="1" font-size="16" >O</text>
<text x="318.446024" y="186.762016" fill="rgb(12,12,255)"  stroke="rgb(12,12,255)" stroke-width="1" font-size="16" >N</text>
</svg>
</g>
<text font-size="18.000000" fill ="black" font-family="sans-serif"
x="10.000000" y="20.000000" ></text>
</svg>
