<?xml version="1.0"?>
<svg version="1.1" id="topsvg"
xmlns="http://www.w3.org/2000/svg" xmlns:xlink="http://www.w3.org/1999/xlink"
xmlns:cml="http://www.xml-cml.org/schema" x="0" y="0" width="200px" height="200px" viewBox="0 0 100 100">
<title> - Open Babel Depiction</title>
<rect x="0" y="0" width="100" height="100" fill="white"/>
<g transform="translate(0,0)">
<svg width="100" height="100" x="0" y="0" viewBox="0 0 335.211 186.945"
font-family="sans-serif" stroke="rgb(0,0,0)" stroke-width="2"  stroke-linecap="round">
<line x1="48.7" y1="49.7" x2="66.8" y2="69.7" stroke="rgb(0,0,0)"  stroke-width="2.0"/>
<line x1="122.8" y1="102.1" x2="161.9" y2="110.4" stroke="rgb(0,0,0)"  stroke-width="2.0"/>
<line x1="226.3" y1="103.6" x2="251.0" y2="92.7" stroke="rgb(0,0,0)"  stroke-width="2.0"/>
<line x1="275.1" y1="92.6" x2="286.5" y2="100.8" stroke="rgb(0,0,0)"  stroke-width="2.0"/>
<line x1="271.6" y1="97.4" x2="282.9" y2="105.7" stroke="rgb(0,0,0)"  stroke-width="2.0"/>
<line x1="261.2" y1="74.1" x2="262.7" y2="60.2" stroke="rgb(0,0,0)"  stroke-width="2.0"/>
<line x1="267.2" y1="74.8" x2="268.7" y2="60.8" stroke="rgb(0,0,0)"  stroke-width="2.0"/>
<line x1="122.8" y1="102.1" x2="102.9" y2="120.0" stroke="rgb(0,0,0)"  stroke-width="2.0"/>
<line x1="113.5" y1="100.8" x2="99.6" y2="113.3" stroke="rgb(0,0,0)"  stroke-width="2.0"/>
<line x1="81.8" y1="122.4" x2="69.7" y2="115.4" stroke="rgb(0,0,0)"  stroke-width="2.0"/>
<line x1="61.2" y1="95.9" x2="66.8" y2="69.7" stroke="rgb(0,0,0)"  stroke-width="2.0"/>
<line x1="68.7" y1="95.5" x2="72.6" y2="77.1" stroke="rgb(0,0,0)"  stroke-width="2.0"/>
<line x1="66.8" y1="69.7" x2="93.6" y2="66.9" stroke="rgb(0,0,0)"  stroke-width="2.0"/>
<line x1="111.8" y1="77.4" x2="122.8" y2="102.1" stroke="rgb(0,0,0)"  stroke-width="2.0"/>
<line x1="226.3" y1="103.6" x2="218.0" y2="142.8" stroke="rgb(0,0,0)"  stroke-width="2.0"/>
<line x1="218.0" y1="108.0" x2="212.2" y2="135.4" stroke="rgb(0,0,0)"  stroke-width="2.0"/>
<line x1="218.0" y1="142.8" x2="178.2" y2="146.9" stroke="rgb(0,0,0)"  stroke-width="2.0"/>
<line x1="178.2" y1="146.9" x2="161.9" y2="110.4" stroke="rgb(0,0,0)"  stroke-width="2.0"/>
<line x1="182.3" y1="138.5" x2="171.0" y2="113.0" stroke="rgb(0,0,0)"  stroke-width="2.0"/>
<line x1="161.9" y1="110.4" x2="182.0" y2="92.3" stroke="rgb(0,0,0)"  stroke-width="2.0"/>
<line x1="202.9" y1="90.1" x2="226.3" y2="103.6" stroke="rgb(0,0,0)"  stroke-width="2.0"/>
<text x="14.000000" y="48.000000" fill="rgb(12,12,255)"  stroke="rgb(12,12,255)" stroke-width="1" font-size="16" >H</text>
<text x="26.000000" y="51.680000" fill="rgb(12,12,255)"  stroke="rgb(12,12,255)" stroke-width="1" font-size="13" >2</text>
<text x="32.500000" y="48.000000" fill="rgb(12,12,255)"  stroke="rgb(12,12,255)" stroke-width="1" font-size="16" >N</text>
<text x="100.546100" y="73.544654" fill="rgb(178,178,0)"  stroke="rgb(178,178,0)" stroke-width="1" font-size="16" >S</text>
<text x="87.089773" y="136.851697" fill="rgb(12,12,255)"  stroke="rgb(12,12,255)" stroke-width="1" font-size="16" >N</text>
<text x="52.448757" y="116.851697" fill="rgb(12,12,255)"  stroke="rgb(12,12,255)" stroke-width="1" font-size="16" >N</text>
<text x="185.667263" y="91.637716" fill="rgb(255,12,12)"  stroke="rgb(255,12,12)" stroke-width="1" font-size="16" >O</text>
<text x="256.850097" y="95.368250" fill="rgb(12,12,255)"  stroke="rgb(12,12,255)" stroke-width="1" font-size="16" >N</text>
<text x="289.210777" y="118.879661" fill="rgb(255,12,12)"  stroke="rgb(255,12,12)" stroke-width="1" font-size="16" >O</text>
<text x="261.031236" y="55.587375" fill="rgb(255,12,12)"  stroke="rgb(255,12,12)" stroke-width="1" font-size="16" >O</text>
</svg>
</g>
<text font-size="18.000000" fill ="black" font-family="sans-serif"
x="10.000000" y="20.000000" ></text>
</svg>
