<?xml version="1.0"?>
<svg version="1.1" id="topsvg"
xmlns="http://www.w3.org/2000/svg" xmlns:xlink="http://www.w3.org/1999/xlink"
xmlns:cml="http://www.xml-cml.org/schema" x="0" y="0" width="200px" height="200px" viewBox="0 0 100 100">
<title> - Open Babel Depiction</title>
<rect x="0" y="0" width="100" height="100" fill="white"/>
<g transform="translate(0,0)">
<svg width="100" height="100" x="0" y="0" viewBox="0 0 220 218.564"
font-family="sans-serif" stroke="rgb(0,0,0)" stroke-width="2"  stroke-linecap="round">
<line x1="53.0" y1="143.9" x2="80.0" y2="143.9" stroke="rgb(0,0,0)"  stroke-width="2.0"/>
<line x1="80.0" y1="143.9" x2="93.5" y2="167.3" stroke="rgb(0,0,0)"  stroke-width="2.0"/>
<line x1="80.0" y1="143.9" x2="100.0" y2="109.3" stroke="rgb(0,0,0)"  stroke-width="2.0"/>
<line x1="100.0" y1="109.3" x2="127.0" y2="109.3" stroke="rgb(0,0,0)"  stroke-width="2.0"/>
<line x1="140.0" y1="122.3" x2="140.0" y2="136.3" stroke="rgb(0,0,0)"  stroke-width="2.0"/>
<line x1="153.0" y1="109.3" x2="167.0" y2="109.3" stroke="rgb(0,0,0)"  stroke-width="2.0"/>
<line x1="140.0" y1="96.3" x2="140.0" y2="82.3" stroke="rgb(0,0,0)"  stroke-width="2.0"/>
<line x1="100.0" y1="109.3" x2="80.0" y2="74.6" stroke="rgb(0,0,0)"  stroke-width="2.0"/>
<line x1="80.0" y1="74.6" x2="93.5" y2="51.3" stroke="rgb(0,0,0)"  stroke-width="2.0"/>
<line x1="80.0" y1="77.6" x2="53.0" y2="77.6" stroke="rgb(0,0,0)"  stroke-width="2.0"/>
<line x1="80.0" y1="71.6" x2="53.0" y2="71.6" stroke="rgb(0,0,0)"  stroke-width="2.0"/>
<text x="14.000000" y="151.923048" fill="rgb(102,102,102)"  stroke="rgb(102,102,102)" stroke-width="1" font-size="16" >H</text>
<text x="26.000000" y="155.603048" fill="rgb(102,102,102)"  stroke="rgb(102,102,102)" stroke-width="1" font-size="13" >3</text>
<text x="32.500000" y="151.923048" fill="rgb(102,102,102)"  stroke="rgb(102,102,102)" stroke-width="1" font-size="16" >C</text>
<text x="96.000000" y="186.564065" fill="rgb(102,102,102)"  stroke="rgb(102,102,102)" stroke-width="1" font-size="16" >CH</text>
<text x="120.000000" y="190.244065" fill="rgb(102,102,102)"  stroke="rgb(102,102,102)" stroke-width="1" font-size="13" >3</text>
<text x="143.900000" y="106.006032" fill="rgb(12,12,255)"  stroke="rgb(12,12,255)" stroke-width="1" font-size="13" >+</text>
<text x="134.000000" y="117.282032" fill="rgb(12,12,255)"  stroke="rgb(12,12,255)" stroke-width="1" font-size="16" >N</text>
<text x="134.000000" y="157.282032" fill="rgb(191,191,191)"  stroke="rgb(191,191,191)" stroke-width="1" font-size="16" >H</text>
<text x="174.000000" y="117.282032" fill="rgb(191,191,191)"  stroke="rgb(191,191,191)" stroke-width="1" font-size="16" >H</text>
<text x="134.000000" y="77.282032" fill="rgb(191,191,191)"  stroke="rgb(191,191,191)" stroke-width="1" font-size="16" >H</text>
<text x="104.800000" y="25.888000" fill="rgb(255,12,12)"  stroke="rgb(255,12,12)" stroke-width="1" font-size="16" >_</text>
<text x="94.000000" y="48.000000" fill="rgb(255,12,12)"  stroke="rgb(255,12,12)" stroke-width="1" font-size="16" >O</text>
<text x="34.000000" y="82.641016" fill="rgb(255,12,12)"  stroke="rgb(255,12,12)" stroke-width="1" font-size="16" >O</text>
</svg>
</g>
<text font-size="18.000000" fill ="black" font-family="sans-serif"
x="10.000000" y="20.000000" ></text>
</svg>
