<?xml version="1.0"?>
<svg version="1.1" id="topsvg"
xmlns="http://www.w3.org/2000/svg" xmlns:xlink="http://www.w3.org/1999/xlink"
xmlns:cml="http://www.xml-cml.org/schema" x="0" y="0" width="200px" height="200px" viewBox="0 0 100 100">
<title> - Open Babel Depiction</title>
<rect x="0" y="0" width="100" height="100" fill="white"/>
<g transform="translate(0,0)">
<svg width="100" height="100" x="0" y="0" viewBox="0 0 411.785 324.968"
font-family="sans-serif" stroke="rgb(0,0,0)" stroke-width="2"  stroke-linecap="round">
<line x1="186.0" y1="272.4" x2="182.3" y2="258.9" stroke="rgb(0,0,0)"  stroke-width="2.0"/>
<line x1="188.2" y1="237.1" x2="207.3" y2="218.1" stroke="rgb(0,0,0)"  stroke-width="2.0"/>
<line x1="208.0" y1="215.2" x2="234.1" y2="222.2" stroke="rgb(0,0,0)"  stroke-width="2.0"/>
<line x1="206.5" y1="221.0" x2="232.6" y2="227.9" stroke="rgb(0,0,0)"  stroke-width="2.0"/>
<line x1="207.3" y1="218.1" x2="196.9" y2="179.4" stroke="rgb(0,0,0)"  stroke-width="2.0"/>
<line x1="276.4" y1="164.9" x2="302.5" y2="171.8" stroke="rgb(0,0,0)"  stroke-width="2.0"/>
<line x1="214.8" y1="112.5" x2="243.1" y2="84.2" stroke="rgb(0,0,0)"  stroke-width="2.0"/>
<line x1="243.1" y1="84.2" x2="269.7" y2="79.7" stroke="rgb(0,0,0)"  stroke-width="2.0"/>
<line x1="287.1" y1="65.3" x2="291.9" y2="52.2" stroke="rgb(0,0,0)"  stroke-width="2.0"/>
<line x1="240.8" y1="86.1" x2="223.6" y2="65.4" stroke="rgb(0,0,0)"  stroke-width="2.0"/>
<line x1="245.4" y1="82.3" x2="228.2" y2="61.5" stroke="rgb(0,0,0)"  stroke-width="2.0"/>
<line x1="185.8" y1="143.7" x2="159.7" y2="136.7" stroke="rgb(0,0,0)"  stroke-width="2.0"/>
<line x1="187.3" y1="137.9" x2="161.3" y2="130.9" stroke="rgb(0,0,0)"  stroke-width="2.0"/>
<line x1="135.4" y1="127.1" x2="109.3" y2="120.1" stroke="rgb(0,0,0)"  stroke-width="2.0"/>
<line x1="371.8" y1="171.8" x2="371.8" y2="211.8" stroke="rgb(0,0,0)"  stroke-width="2.0"/>
<line x1="364.6" y1="177.8" x2="364.6" y2="205.8" stroke="rgb(0,0,0)"  stroke-width="2.0"/>
<line x1="371.8" y1="211.8" x2="337.1" y2="231.8" stroke="rgb(0,0,0)"  stroke-width="2.0"/>
<line x1="337.1" y1="231.8" x2="302.5" y2="211.8" stroke="rgb(0,0,0)"  stroke-width="2.0"/>
<line x1="335.5" y1="222.6" x2="311.3" y2="208.6" stroke="rgb(0,0,0)"  stroke-width="2.0"/>
<line x1="302.5" y1="211.8" x2="302.5" y2="171.8" stroke="rgb(0,0,0)"  stroke-width="2.0"/>
<line x1="302.5" y1="171.8" x2="337.1" y2="151.8" stroke="rgb(0,0,0)"  stroke-width="2.0"/>
<line x1="311.3" y1="175.1" x2="335.5" y2="161.1" stroke="rgb(0,0,0)"  stroke-width="2.0"/>
<line x1="337.1" y1="151.8" x2="371.8" y2="171.8" stroke="rgb(0,0,0)"  stroke-width="2.0"/>
<line x1="40.0" y1="120.1" x2="40.0" y2="80.1" stroke="rgb(0,0,0)"  stroke-width="2.0"/>
<line x1="47.2" y1="114.1" x2="47.2" y2="86.1" stroke="rgb(0,0,0)"  stroke-width="2.0"/>
<line x1="40.0" y1="80.1" x2="74.6" y2="60.1" stroke="rgb(0,0,0)"  stroke-width="2.0"/>
<line x1="74.6" y1="60.1" x2="109.3" y2="80.1" stroke="rgb(0,0,0)"  stroke-width="2.0"/>
<line x1="76.2" y1="69.3" x2="100.5" y2="83.3" stroke="rgb(0,0,0)"  stroke-width="2.0"/>
<line x1="109.3" y1="80.1" x2="109.3" y2="120.1" stroke="rgb(0,0,0)"  stroke-width="2.0"/>
<line x1="109.3" y1="120.1" x2="74.6" y2="140.1" stroke="rgb(0,0,0)"  stroke-width="2.0"/>
<line x1="100.5" y1="116.8" x2="76.2" y2="130.8" stroke="rgb(0,0,0)"  stroke-width="2.0"/>
<line x1="74.6" y1="140.1" x2="40.0" y2="120.1" stroke="rgb(0,0,0)"  stroke-width="2.0"/>
<line x1="260.5" y1="148.9" x2="253.5" y2="122.9" stroke="rgb(0,0,0)"  stroke-width="2.0"/>
<line x1="253.5" y1="122.9" x2="214.8" y2="112.5" stroke="rgb(0,0,0)"  stroke-width="2.0"/>
<line x1="214.8" y1="112.5" x2="186.6" y2="140.8" stroke="rgb(0,0,0)"  stroke-width="2.0"/>
<line x1="186.6" y1="140.8" x2="196.9" y2="179.4" stroke="rgb(0,0,0)"  stroke-width="2.0"/>
<line x1="196.9" y1="179.4" x2="235.6" y2="189.8" stroke="rgb(0,0,0)"  stroke-width="2.0"/>
<line x1="235.6" y1="189.8" x2="254.7" y2="170.7" stroke="rgb(0,0,0)"  stroke-width="2.0"/>
<line x1="157.1" y1="121.2" x2="176.2" y2="102.2" stroke="rgb(0,0,0)"  stroke-width="2.0"/>
<line x1="176.2" y1="102.2" x2="214.8" y2="112.5" stroke="rgb(0,0,0)"  stroke-width="2.0"/>
<line x1="196.9" y1="179.4" x2="158.3" y2="169.1" stroke="rgb(0,0,0)"  stroke-width="2.0"/>
<line x1="158.3" y1="169.1" x2="151.3" y2="143.0" stroke="rgb(0,0,0)"  stroke-width="2.0"/>
<text x="141.925795" y="138.435233" fill="rgb(12,12,255)"  stroke="rgb(12,12,255)" stroke-width="1" font-size="16" >N</text>
<text x="141.931376" y="138.433622" fill="rgb(255,12,12)"  stroke="rgb(255,12,12)" stroke-width="1" font-size="16" >O</text>
<text x="211.591307" y="61.433523" fill="rgb(255,12,12)"  stroke="rgb(255,12,12)" stroke-width="1" font-size="16" >O</text>
<text x="292.439748" y="48.000000" fill="rgb(102,102,102)"  stroke="rgb(102,102,102)" stroke-width="1" font-size="16" >CH</text>
<text x="316.439748" y="51.680000" fill="rgb(102,102,102)"  stroke="rgb(102,102,102)" stroke-width="1" font-size="13" >3</text>
<text x="276.544523" y="85.500757" fill="rgb(255,12,12)"  stroke="rgb(255,12,12)" stroke-width="1" font-size="16" >O</text>
<text x="185.325477" y="292.968288" fill="rgb(102,102,102)"  stroke="rgb(102,102,102)" stroke-width="1" font-size="16" >CH</text>
<text x="209.325477" y="296.648288" fill="rgb(102,102,102)"  stroke="rgb(102,102,102)" stroke-width="1" font-size="13" >3</text>
<text x="257.851691" y="169.488165" fill="rgb(12,12,255)"  stroke="rgb(12,12,255)" stroke-width="1" font-size="16" >N</text>
<text x="239.890794" y="236.418300" fill="rgb(255,12,12)"  stroke="rgb(255,12,12)" stroke-width="1" font-size="16" >O</text>
<text x="172.979944" y="254.337291" fill="rgb(255,12,12)"  stroke="rgb(255,12,12)" stroke-width="1" font-size="16" >O</text>
</svg>
</g>
<text font-size="18.000000" fill ="black" font-family="sans-serif"
x="10.000000" y="20.000000" ></text>
</svg>
