<?xml version="1.0"?>
<svg version="1.1" id="topsvg"
xmlns="http://www.w3.org/2000/svg" xmlns:xlink="http://www.w3.org/1999/xlink"
xmlns:cml="http://www.xml-cml.org/schema" x="0" y="0" width="200px" height="200px" viewBox="0 0 100 100">
<title> - Open Babel Depiction</title>
<rect x="0" y="0" width="100" height="100" fill="white"/>
<g transform="translate(0,0)">
<svg width="100" height="100" x="0" y="0" viewBox="0 0 260 194.641"
font-family="sans-serif" stroke="rgb(0,0,0)" stroke-width="2"  stroke-linecap="round">
<line x1="80.0" y1="141.6" x2="80.0" y2="127.6" stroke="rgb(0,0,0)"  stroke-width="2.0"/>
<line x1="93.0" y1="114.6" x2="120.0" y2="114.6" stroke="rgb(0,0,0)"  stroke-width="2.0"/>
<line x1="120.0" y1="114.6" x2="140.0" y2="80.0" stroke="rgb(0,0,0)"  stroke-width="2.0"/>
<line x1="140.0" y1="80.0" x2="167.0" y2="80.0" stroke="rgb(0,0,0)"  stroke-width="2.0"/>
<line x1="180.0" y1="93.0" x2="180.0" y2="107.0" stroke="rgb(0,0,0)"  stroke-width="2.0"/>
<line x1="193.0" y1="77.0" x2="207.0" y2="77.0" stroke="rgb(0,0,0)"  stroke-width="2.0"/>
<line x1="193.0" y1="83.0" x2="207.0" y2="83.0" stroke="rgb(0,0,0)"  stroke-width="2.0"/>
<line x1="177.0" y1="67.0" x2="177.0" y2="53.0" stroke="rgb(0,0,0)"  stroke-width="2.0"/>
<line x1="183.0" y1="67.0" x2="183.0" y2="53.0" stroke="rgb(0,0,0)"  stroke-width="2.0"/>
<line x1="77.0" y1="101.6" x2="77.0" y2="87.6" stroke="rgb(0,0,0)"  stroke-width="2.0"/>
<line x1="83.0" y1="101.6" x2="83.0" y2="87.6" stroke="rgb(0,0,0)"  stroke-width="2.0"/>
<line x1="67.0" y1="117.6" x2="53.0" y2="117.6" stroke="rgb(0,0,0)"  stroke-width="2.0"/>
<line x1="67.0" y1="111.6" x2="53.0" y2="111.6" stroke="rgb(0,0,0)"  stroke-width="2.0"/>
<text x="74.000000" y="162.641016" fill="rgb(255,12,12)"  stroke="rgb(255,12,12)" stroke-width="1" font-size="16" >OH</text>
<text x="74.000000" y="122.641016" fill="rgb(178,178,0)"  stroke="rgb(178,178,0)" stroke-width="1" font-size="16" >S</text>
<text x="174.000000" y="88.000000" fill="rgb(178,178,0)"  stroke="rgb(178,178,0)" stroke-width="1" font-size="16" >S</text>
<text x="174.000000" y="128.000000" fill="rgb(255,12,12)"  stroke="rgb(255,12,12)" stroke-width="1" font-size="16" >OH</text>
<text x="214.000000" y="88.000000" fill="rgb(255,12,12)"  stroke="rgb(255,12,12)" stroke-width="1" font-size="16" >O</text>
<text x="174.000000" y="48.000000" fill="rgb(255,12,12)"  stroke="rgb(255,12,12)" stroke-width="1" font-size="16" >O</text>
<text x="74.000000" y="82.641016" fill="rgb(255,12,12)"  stroke="rgb(255,12,12)" stroke-width="1" font-size="16" >O</text>
<text x="34.000000" y="122.641016" fill="rgb(255,12,12)"  stroke="rgb(255,12,12)" stroke-width="1" font-size="16" >O</text>
</svg>
</g>
<text font-size="18.000000" fill ="black" font-family="sans-serif"
x="10.000000" y="20.000000" ></text>
</svg>
