<?xml version="1.0"?>
<svg version="1.1" id="topsvg"
xmlns="http://www.w3.org/2000/svg" xmlns:xlink="http://www.w3.org/1999/xlink"
xmlns:cml="http://www.xml-cml.org/schema" x="0" y="0" width="200px" height="200px" viewBox="0 0 100 100">
<title> - Open Babel Depiction</title>
<rect x="0" y="0" width="100" height="100" fill="white"/>
<g transform="translate(0,0)">
<svg width="100" height="100" x="0" y="0" viewBox="0 0 305.167 302.857"
font-family="sans-serif" stroke="rgb(0,0,0)" stroke-width="2"  stroke-linecap="round">
<line x1="51.3" y1="232.2" x2="60.9" y2="237.8" stroke="rgb(0,0,0)"  stroke-width="2.0"/>
<line x1="83.4" y1="237.8" x2="104.3" y2="225.7" stroke="rgb(0,0,0)"  stroke-width="2.0"/>
<line x1="105.8" y1="223.1" x2="126.7" y2="235.2" stroke="rgb(0,0,0)"  stroke-width="2.0"/>
<line x1="102.8" y1="228.3" x2="123.7" y2="240.4" stroke="rgb(0,0,0)"  stroke-width="2.0"/>
<line x1="104.3" y1="225.7" x2="104.3" y2="151.4" stroke="rgb(0,0,0)"  stroke-width="2.0"/>
<line x1="72.2" y1="132.9" x2="51.3" y2="144.9" stroke="rgb(0,0,0)"  stroke-width="2.0"/>
<line x1="104.3" y1="77.1" x2="104.3" y2="53.0" stroke="rgb(0,0,0)"  stroke-width="2.0"/>
<line x1="136.5" y1="132.9" x2="200.8" y2="170.0" stroke="rgb(0,0,0)"  stroke-width="2.0"/>
<line x1="200.8" y1="207.1" x2="179.9" y2="219.2" stroke="rgb(0,0,0)"  stroke-width="2.0"/>
<line x1="155.9" y1="221.8" x2="146.3" y2="216.2" stroke="rgb(0,0,0)"  stroke-width="2.0"/>
<line x1="158.9" y1="216.6" x2="149.3" y2="211.0" stroke="rgb(0,0,0)"  stroke-width="2.0"/>
<line x1="171.7" y1="238.7" x2="171.7" y2="249.9" stroke="rgb(0,0,0)"  stroke-width="2.0"/>
<line x1="165.7" y1="238.7" x2="165.7" y2="249.9" stroke="rgb(0,0,0)"  stroke-width="2.0"/>
<line x1="136.5" y1="95.7" x2="168.7" y2="77.1" stroke="rgb(0,0,0)"  stroke-width="2.0"/>
<line x1="168.7" y1="77.1" x2="189.6" y2="89.2" stroke="rgb(0,0,0)"  stroke-width="2.0"/>
<line x1="212.1" y1="89.2" x2="221.7" y2="83.6" stroke="rgb(0,0,0)"  stroke-width="2.0"/>
<line x1="165.7" y1="77.1" x2="165.7" y2="53.0" stroke="rgb(0,0,0)"  stroke-width="2.0"/>
<line x1="171.7" y1="77.1" x2="171.7" y2="53.0" stroke="rgb(0,0,0)"  stroke-width="2.0"/>
<line x1="265.2" y1="170.0" x2="265.2" y2="207.1" stroke="rgb(0,0,0)"  stroke-width="2.0"/>
<line x1="258.0" y1="176.0" x2="258.0" y2="201.1" stroke="rgb(0,0,0)"  stroke-width="2.0"/>
<line x1="265.2" y1="207.1" x2="233.0" y2="225.7" stroke="rgb(0,0,0)"  stroke-width="2.0"/>
<line x1="233.0" y1="225.7" x2="200.8" y2="207.1" stroke="rgb(0,0,0)"  stroke-width="2.0"/>
<line x1="231.4" y1="216.5" x2="209.6" y2="203.9" stroke="rgb(0,0,0)"  stroke-width="2.0"/>
<line x1="200.8" y1="207.1" x2="200.8" y2="170.0" stroke="rgb(0,0,0)"  stroke-width="2.0"/>
<line x1="200.8" y1="170.0" x2="233.0" y2="151.4" stroke="rgb(0,0,0)"  stroke-width="2.0"/>
<line x1="209.6" y1="173.2" x2="231.4" y2="160.7" stroke="rgb(0,0,0)"  stroke-width="2.0"/>
<line x1="233.0" y1="151.4" x2="265.2" y2="170.0" stroke="rgb(0,0,0)"  stroke-width="2.0"/>
<line x1="83.4" y1="89.2" x2="104.3" y2="77.1" stroke="rgb(0,0,0)"  stroke-width="2.0"/>
<line x1="104.3" y1="77.1" x2="136.5" y2="95.7" stroke="rgb(0,0,0)"  stroke-width="2.0"/>
<line x1="105.9" y1="86.4" x2="127.7" y2="98.9" stroke="rgb(0,0,0)"  stroke-width="2.0"/>
<line x1="136.5" y1="95.7" x2="136.5" y2="132.9" stroke="rgb(0,0,0)"  stroke-width="2.0"/>
<line x1="136.5" y1="132.9" x2="104.3" y2="151.4" stroke="rgb(0,0,0)"  stroke-width="2.0"/>
<line x1="104.3" y1="151.4" x2="72.2" y2="132.9" stroke="rgb(0,0,0)"  stroke-width="2.0"/>
<line x1="102.7" y1="142.2" x2="81.0" y2="129.6" stroke="rgb(0,0,0)"  stroke-width="2.0"/>
<line x1="72.2" y1="132.9" x2="72.2" y2="108.7" stroke="rgb(0,0,0)"  stroke-width="2.0"/>
<text x="162.666631" y="48.000000" fill="rgb(255,12,12)"  stroke="rgb(255,12,12)" stroke-width="1" font-size="16" >O</text>
<text x="228.999947" y="85.142857" fill="rgb(102,102,102)"  stroke="rgb(102,102,102)" stroke-width="1" font-size="16" >CH</text>
<text x="252.999947" y="88.822857" fill="rgb(102,102,102)"  stroke="rgb(102,102,102)" stroke-width="1" font-size="13" >3</text>
<text x="194.833289" y="103.714286" fill="rgb(255,12,12)"  stroke="rgb(255,12,12)" stroke-width="1" font-size="16" >O</text>
<text x="162.666631" y="270.857143" fill="rgb(255,12,12)"  stroke="rgb(255,12,12)" stroke-width="1" font-size="16" >O</text>
<text x="130.499974" y="215.142857" fill="rgb(255,12,12)"  stroke="rgb(255,12,12)" stroke-width="1" font-size="16" >O</text>
<text x="162.666631" y="233.714286" fill="rgb(12,12,255)"  stroke="rgb(12,12,255)" stroke-width="1" font-size="16" >N</text>
<text x="14.000000" y="233.714286" fill="rgb(102,102,102)"  stroke="rgb(102,102,102)" stroke-width="1" font-size="16" >H</text>
<text x="26.000000" y="237.394286" fill="rgb(102,102,102)"  stroke="rgb(102,102,102)" stroke-width="1" font-size="13" >3</text>
<text x="32.500000" y="233.714286" fill="rgb(102,102,102)"  stroke="rgb(102,102,102)" stroke-width="1" font-size="16" >C</text>
<text x="100.333316" y="48.000000" fill="rgb(102,102,102)"  stroke="rgb(102,102,102)" stroke-width="1" font-size="16" >CH</text>
<text x="124.333316" y="51.680000" fill="rgb(102,102,102)"  stroke="rgb(102,102,102)" stroke-width="1" font-size="13" >3</text>
<text x="54.166658" y="103.714286" fill="rgb(12,12,255)"  stroke="rgb(12,12,255)" stroke-width="1" font-size="16" >HN</text>
<text x="14.000000" y="159.428571" fill="rgb(102,102,102)"  stroke="rgb(102,102,102)" stroke-width="1" font-size="16" >H</text>
<text x="26.000000" y="163.108571" fill="rgb(102,102,102)"  stroke="rgb(102,102,102)" stroke-width="1" font-size="13" >3</text>
<text x="32.500000" y="159.428571" fill="rgb(102,102,102)"  stroke="rgb(102,102,102)" stroke-width="1" font-size="16" >C</text>
<text x="130.499974" y="252.285714" fill="rgb(255,12,12)"  stroke="rgb(255,12,12)" stroke-width="1" font-size="16" >O</text>
<text x="66.166658" y="252.285714" fill="rgb(255,12,12)"  stroke="rgb(255,12,12)" stroke-width="1" font-size="16" >O</text>
</svg>
</g>
<text font-size="18.000000" fill ="black" font-family="sans-serif"
x="10.000000" y="20.000000" ></text>
</svg>
