<?xml version="1.0"?>
<svg version="1.1" id="topsvg"
xmlns="http://www.w3.org/2000/svg" xmlns:xlink="http://www.w3.org/1999/xlink"
xmlns:cml="http://www.xml-cml.org/schema" x="0" y="0" width="200px" height="200px" viewBox="0 0 100 100">
<title> - Open Babel Depiction</title>
<rect x="0" y="0" width="100" height="100" fill="white"/>
<g transform="translate(0,0)">
<svg width="100" height="100" x="0" y="0" viewBox="0 0 520.235 280"
font-family="sans-serif" stroke="rgb(0,0,0)" stroke-width="2"  stroke-linecap="round">
<line x1="469.0" y1="46.5" x2="445.6" y2="60.0" stroke="rgb(0,0,0)"  stroke-width="2.0"/>
<line x1="445.6" y1="60.0" x2="445.6" y2="87.0" stroke="rgb(0,0,0)"  stroke-width="2.0"/>
<line x1="434.3" y1="106.5" x2="411.0" y2="120.0" stroke="rgb(0,0,0)"  stroke-width="2.0"/>
<line x1="306.5" y1="173.3" x2="298.1" y2="199.0" stroke="rgb(0,0,0)"  stroke-width="2.0"/>
<line x1="300.8" y1="171.4" x2="292.4" y2="197.1" stroke="rgb(0,0,0)"  stroke-width="2.0"/>
<line x1="280.1" y1="143.0" x2="240.1" y2="137.0" stroke="rgb(0,0,0)"  stroke-width="2.0"/>
<line x1="280.1" y1="137.0" x2="240.1" y2="143.0" stroke="rgb(0,0,0)"  stroke-width="2.0"/>
<line x1="109.3" y1="160.0" x2="85.9" y2="173.5" stroke="rgb(0,0,0)"  stroke-width="2.0"/>
<line x1="74.6" y1="193.0" x2="74.6" y2="220.0" stroke="rgb(0,0,0)"  stroke-width="2.0"/>
<line x1="74.6" y1="220.0" x2="51.3" y2="233.5" stroke="rgb(0,0,0)"  stroke-width="2.0"/>
<line x1="213.8" y1="106.7" x2="222.1" y2="81.0" stroke="rgb(0,0,0)"  stroke-width="2.0"/>
<line x1="219.5" y1="108.6" x2="227.8" y2="82.9" stroke="rgb(0,0,0)"  stroke-width="2.0"/>
<line x1="411.0" y1="120.0" x2="411.0" y2="160.0" stroke="rgb(0,0,0)"  stroke-width="2.0"/>
<line x1="403.8" y1="126.0" x2="403.8" y2="154.0" stroke="rgb(0,0,0)"  stroke-width="2.0"/>
<line x1="411.0" y1="160.0" x2="376.3" y2="180.0" stroke="rgb(0,0,0)"  stroke-width="2.0"/>
<line x1="376.3" y1="180.0" x2="341.7" y2="160.0" stroke="rgb(0,0,0)"  stroke-width="2.0"/>
<line x1="374.7" y1="170.8" x2="350.5" y2="156.8" stroke="rgb(0,0,0)"  stroke-width="2.0"/>
<line x1="341.7" y1="160.0" x2="341.7" y2="120.0" stroke="rgb(0,0,0)"  stroke-width="2.0"/>
<line x1="341.7" y1="120.0" x2="376.3" y2="100.0" stroke="rgb(0,0,0)"  stroke-width="2.0"/>
<line x1="350.5" y1="123.2" x2="374.7" y2="109.2" stroke="rgb(0,0,0)"  stroke-width="2.0"/>
<line x1="376.3" y1="100.0" x2="411.0" y2="120.0" stroke="rgb(0,0,0)"  stroke-width="2.0"/>
<line x1="109.3" y1="120.0" x2="143.9" y2="100.0" stroke="rgb(0,0,0)"  stroke-width="2.0"/>
<line x1="143.9" y1="100.0" x2="178.6" y2="120.0" stroke="rgb(0,0,0)"  stroke-width="2.0"/>
<line x1="145.5" y1="109.2" x2="169.8" y2="123.2" stroke="rgb(0,0,0)"  stroke-width="2.0"/>
<line x1="178.6" y1="120.0" x2="178.6" y2="160.0" stroke="rgb(0,0,0)"  stroke-width="2.0"/>
<line x1="178.6" y1="160.0" x2="143.9" y2="180.0" stroke="rgb(0,0,0)"  stroke-width="2.0"/>
<line x1="169.8" y1="156.8" x2="145.5" y2="170.8" stroke="rgb(0,0,0)"  stroke-width="2.0"/>
<line x1="143.9" y1="180.0" x2="109.3" y2="160.0" stroke="rgb(0,0,0)"  stroke-width="2.0"/>
<line x1="109.3" y1="160.0" x2="109.3" y2="120.0" stroke="rgb(0,0,0)"  stroke-width="2.0"/>
<line x1="116.5" y1="154.0" x2="116.5" y2="126.0" stroke="rgb(0,0,0)"  stroke-width="2.0"/>
<line x1="341.7" y1="160.0" x2="303.6" y2="172.4" stroke="rgb(0,0,0)"  stroke-width="2.0"/>
<line x1="303.6" y1="172.4" x2="280.1" y2="140.0" stroke="rgb(0,0,0)"  stroke-width="2.0"/>
<line x1="280.1" y1="140.0" x2="296.0" y2="118.2" stroke="rgb(0,0,0)"  stroke-width="2.0"/>
<line x1="316.0" y1="111.7" x2="341.7" y2="120.0" stroke="rgb(0,0,0)"  stroke-width="2.0"/>
<line x1="178.6" y1="120.0" x2="216.6" y2="107.6" stroke="rgb(0,0,0)"  stroke-width="2.0"/>
<line x1="216.6" y1="107.6" x2="240.1" y2="140.0" stroke="rgb(0,0,0)"  stroke-width="2.0"/>
<line x1="240.1" y1="140.0" x2="224.2" y2="161.8" stroke="rgb(0,0,0)"  stroke-width="2.0"/>
<line x1="204.2" y1="168.3" x2="178.6" y2="160.0" stroke="rgb(0,0,0)"  stroke-width="2.0"/>
<text x="222.967005" y="77.597060" fill="rgb(255,12,12)"  stroke="rgb(255,12,12)" stroke-width="1" font-size="16" >O</text>
<text x="14.000000" y="248.000000" fill="rgb(102,102,102)"  stroke="rgb(102,102,102)" stroke-width="1" font-size="16" >H</text>
<text x="26.000000" y="251.680000" fill="rgb(102,102,102)"  stroke="rgb(102,102,102)" stroke-width="1" font-size="13" >3</text>
<text x="32.500000" y="248.000000" fill="rgb(102,102,102)"  stroke="rgb(102,102,102)" stroke-width="1" font-size="16" >C</text>
<text x="68.641016" y="188.000000" fill="rgb(255,12,12)"  stroke="rgb(255,12,12)" stroke-width="1" font-size="16" >O</text>
<text x="210.606325" y="180.360680" fill="rgb(178,178,0)"  stroke="rgb(178,178,0)" stroke-width="1" font-size="16" >S</text>
<text x="476.235471" y="48.000000" fill="rgb(102,102,102)"  stroke="rgb(102,102,102)" stroke-width="1" font-size="16" >CH</text>
<text x="500.235471" y="51.680000" fill="rgb(102,102,102)"  stroke="rgb(102,102,102)" stroke-width="1" font-size="13" >3</text>
<text x="297.629145" y="115.639320" fill="rgb(178,178,0)"  stroke="rgb(178,178,0)" stroke-width="1" font-size="16" >S</text>
<text x="285.268466" y="218.402940" fill="rgb(255,12,12)"  stroke="rgb(255,12,12)" stroke-width="1" font-size="16" >O</text>
<text x="439.594455" y="108.000000" fill="rgb(255,12,12)"  stroke="rgb(255,12,12)" stroke-width="1" font-size="16" >O</text>
</svg>
</g>
<text font-size="18.000000" fill ="black" font-family="sans-serif"
x="10.000000" y="20.000000" ></text>
</svg>
