<?xml version="1.0"?>
<svg version="1.1" id="topsvg"
xmlns="http://www.w3.org/2000/svg" xmlns:xlink="http://www.w3.org/1999/xlink"
xmlns:cml="http://www.xml-cml.org/schema" x="0" y="0" width="200px" height="200px" viewBox="0 0 100 100">
<title> - Open Babel Depiction</title>
<rect x="0" y="0" width="100" height="100" fill="white"/>
<g transform="translate(0,0)">
<svg width="100" height="100" x="0" y="0" viewBox="0 0 440 329.282"
font-family="sans-serif" stroke="rgb(0,0,0)" stroke-width="2"  stroke-linecap="round">
<line x1="393.5" y1="63.4" x2="380.0" y2="40.0" stroke="rgb(0,0,0)"  stroke-width="2.0"/>
<line x1="380.0" y1="40.0" x2="340.0" y2="40.0" stroke="rgb(0,0,0)"  stroke-width="2.0"/>
<line x1="340.0" y1="40.0" x2="320.0" y2="74.6" stroke="rgb(0,0,0)"  stroke-width="2.0"/>
<line x1="320.0" y1="74.6" x2="293.0" y2="74.6" stroke="rgb(0,0,0)"  stroke-width="2.0"/>
<line x1="273.5" y1="85.9" x2="260.0" y2="109.3" stroke="rgb(0,0,0)"  stroke-width="2.0"/>
<line x1="260.0" y1="109.3" x2="220.0" y2="109.3" stroke="rgb(0,0,0)"  stroke-width="2.0"/>
<line x1="220.0" y1="109.3" x2="220.0" y2="69.3" stroke="rgb(0,0,0)"  stroke-width="2.0"/>
<line x1="220.0" y1="69.3" x2="196.6" y2="55.8" stroke="rgb(0,0,0)"  stroke-width="2.0"/>
<line x1="174.1" y1="55.8" x2="150.7" y2="69.3" stroke="rgb(0,0,0)"  stroke-width="2.0"/>
<line x1="150.7" y1="69.3" x2="116.1" y2="49.3" stroke="rgb(0,0,0)"  stroke-width="2.0"/>
<line x1="116.1" y1="49.3" x2="81.4" y2="69.3" stroke="rgb(0,0,0)"  stroke-width="2.0"/>
<line x1="81.4" y1="69.3" x2="58.1" y2="55.8" stroke="rgb(0,0,0)"  stroke-width="2.0"/>
<line x1="153.7" y1="69.3" x2="153.7" y2="96.3" stroke="rgb(0,0,0)"  stroke-width="2.0"/>
<line x1="147.7" y1="69.3" x2="147.7" y2="96.3" stroke="rgb(0,0,0)"  stroke-width="2.0"/>
<line x1="220.0" y1="109.3" x2="180.0" y2="109.3" stroke="rgb(0,0,0)"  stroke-width="2.0"/>
<line x1="180.0" y1="109.3" x2="166.5" y2="132.7" stroke="rgb(0,0,0)"  stroke-width="2.0"/>
<line x1="147.0" y1="143.9" x2="120.0" y2="143.9" stroke="rgb(0,0,0)"  stroke-width="2.0"/>
<line x1="120.0" y1="143.9" x2="100.0" y2="109.3" stroke="rgb(0,0,0)"  stroke-width="2.0"/>
<line x1="100.0" y1="109.3" x2="60.0" y2="109.3" stroke="rgb(0,0,0)"  stroke-width="2.0"/>
<line x1="60.0" y1="109.3" x2="46.5" y2="132.7" stroke="rgb(0,0,0)"  stroke-width="2.0"/>
<line x1="122.6" y1="145.4" x2="109.1" y2="168.8" stroke="rgb(0,0,0)"  stroke-width="2.0"/>
<line x1="117.4" y1="142.4" x2="103.9" y2="165.8" stroke="rgb(0,0,0)"  stroke-width="2.0"/>
<line x1="220.0" y1="109.3" x2="220.0" y2="149.3" stroke="rgb(0,0,0)"  stroke-width="2.0"/>
<line x1="220.0" y1="149.3" x2="196.6" y2="162.8" stroke="rgb(0,0,0)"  stroke-width="2.0"/>
<line x1="185.4" y1="182.3" x2="185.4" y2="209.3" stroke="rgb(0,0,0)"  stroke-width="2.0"/>
<line x1="185.4" y1="209.3" x2="150.7" y2="229.3" stroke="rgb(0,0,0)"  stroke-width="2.0"/>
<line x1="150.7" y1="229.3" x2="150.7" y2="269.3" stroke="rgb(0,0,0)"  stroke-width="2.0"/>
<line x1="150.7" y1="269.3" x2="127.3" y2="282.8" stroke="rgb(0,0,0)"  stroke-width="2.0"/>
<line x1="186.9" y1="206.7" x2="210.2" y2="220.2" stroke="rgb(0,0,0)"  stroke-width="2.0"/>
<line x1="183.9" y1="211.9" x2="207.2" y2="225.4" stroke="rgb(0,0,0)"  stroke-width="2.0"/>
<line x1="322.6" y1="73.1" x2="336.1" y2="96.5" stroke="rgb(0,0,0)"  stroke-width="2.0"/>
<line x1="317.4" y1="76.1" x2="330.9" y2="99.5" stroke="rgb(0,0,0)"  stroke-width="2.0"/>
<text x="334.000000" y="117.282032" fill="rgb(255,12,12)"  stroke="rgb(255,12,12)" stroke-width="1" font-size="16" >O</text>
<text x="214.000000" y="237.282032" fill="rgb(255,12,12)"  stroke="rgb(255,12,12)" stroke-width="1" font-size="16" >O</text>
<text x="90.076952" y="297.282032" fill="rgb(102,102,102)"  stroke="rgb(102,102,102)" stroke-width="1" font-size="16" >H</text>
<text x="102.076952" y="300.962032" fill="rgb(102,102,102)"  stroke="rgb(102,102,102)" stroke-width="1" font-size="13" >3</text>
<text x="108.576952" y="297.282032" fill="rgb(102,102,102)"  stroke="rgb(102,102,102)" stroke-width="1" font-size="16" >C</text>
<text x="179.358984" y="177.282032" fill="rgb(255,12,12)"  stroke="rgb(255,12,12)" stroke-width="1" font-size="16" >O</text>
<text x="94.000000" y="186.564065" fill="rgb(255,12,12)"  stroke="rgb(255,12,12)" stroke-width="1" font-size="16" >O</text>
<text x="14.000000" y="151.923048" fill="rgb(102,102,102)"  stroke="rgb(102,102,102)" stroke-width="1" font-size="16" >H</text>
<text x="26.000000" y="155.603048" fill="rgb(102,102,102)"  stroke="rgb(102,102,102)" stroke-width="1" font-size="13" >3</text>
<text x="32.500000" y="151.923048" fill="rgb(102,102,102)"  stroke="rgb(102,102,102)" stroke-width="1" font-size="16" >C</text>
<text x="154.000000" y="151.923048" fill="rgb(255,12,12)"  stroke="rgb(255,12,12)" stroke-width="1" font-size="16" >O</text>
<text x="396.000000" y="82.641016" fill="rgb(102,102,102)"  stroke="rgb(102,102,102)" stroke-width="1" font-size="16" >CH</text>
<text x="420.000000" y="86.321016" fill="rgb(102,102,102)"  stroke="rgb(102,102,102)" stroke-width="1" font-size="13" >3</text>
<text x="144.717968" y="117.282032" fill="rgb(255,12,12)"  stroke="rgb(255,12,12)" stroke-width="1" font-size="16" >O</text>
<text x="20.794919" y="57.282032" fill="rgb(102,102,102)"  stroke="rgb(102,102,102)" stroke-width="1" font-size="16" >H</text>
<text x="32.794919" y="60.962032" fill="rgb(102,102,102)"  stroke="rgb(102,102,102)" stroke-width="1" font-size="13" >3</text>
<text x="39.294919" y="57.282032" fill="rgb(102,102,102)"  stroke="rgb(102,102,102)" stroke-width="1" font-size="16" >C</text>
<text x="179.358984" y="57.282032" fill="rgb(255,12,12)"  stroke="rgb(255,12,12)" stroke-width="1" font-size="16" >O</text>
<text x="274.000000" y="82.641016" fill="rgb(255,12,12)"  stroke="rgb(255,12,12)" stroke-width="1" font-size="16" >O</text>
</svg>
</g>
<text font-size="18.000000" fill ="black" font-family="sans-serif"
x="10.000000" y="20.000000" ></text>
</svg>
