<?xml version="1.0"?>
<svg version="1.1" id="topsvg"
xmlns="http://www.w3.org/2000/svg" xmlns:xlink="http://www.w3.org/1999/xlink"
xmlns:cml="http://www.xml-cml.org/schema" x="0" y="0" width="200px" height="200px" viewBox="0 0 100 100">
<title> - Open Babel Depiction</title>
<rect x="0" y="0" width="100" height="100" fill="white"/>
<g transform="translate(0,0)">
<svg width="100" height="100" x="0" y="0" viewBox="0 0 287.846 300"
font-family="sans-serif" stroke="rgb(0,0,0)" stroke-width="2"  stroke-linecap="round">
<line x1="201.9" y1="93.5" x2="178.6" y2="80.0" stroke="rgb(0,0,0)"  stroke-width="2.0"/>
<line x1="175.6" y1="80.0" x2="175.6" y2="53.0" stroke="rgb(0,0,0)"  stroke-width="2.0"/>
<line x1="181.6" y1="80.0" x2="181.6" y2="53.0" stroke="rgb(0,0,0)"  stroke-width="2.0"/>
<line x1="178.6" y1="80.0" x2="143.9" y2="100.0" stroke="rgb(0,0,0)"  stroke-width="2.0"/>
<line x1="143.9" y1="100.0" x2="143.9" y2="127.0" stroke="rgb(0,0,0)"  stroke-width="2.0"/>
<line x1="146.9" y1="220.0" x2="146.9" y2="247.0" stroke="rgb(0,0,0)"  stroke-width="2.0"/>
<line x1="140.9" y1="220.0" x2="140.9" y2="247.0" stroke="rgb(0,0,0)"  stroke-width="2.0"/>
<line x1="213.2" y1="140.0" x2="247.8" y2="160.0" stroke="rgb(0,0,0)"  stroke-width="2.0"/>
<line x1="247.8" y1="160.0" x2="247.8" y2="200.0" stroke="rgb(0,0,0)"  stroke-width="2.0"/>
<line x1="240.6" y1="166.0" x2="240.6" y2="194.0" stroke="rgb(0,0,0)"  stroke-width="2.0"/>
<line x1="247.8" y1="200.0" x2="213.2" y2="220.0" stroke="rgb(0,0,0)"  stroke-width="2.0"/>
<line x1="213.2" y1="220.0" x2="178.6" y2="200.0" stroke="rgb(0,0,0)"  stroke-width="2.0"/>
<line x1="211.6" y1="210.8" x2="187.4" y2="196.8" stroke="rgb(0,0,0)"  stroke-width="2.0"/>
<line x1="178.6" y1="200.0" x2="178.6" y2="160.0" stroke="rgb(0,0,0)"  stroke-width="2.0"/>
<line x1="178.6" y1="160.0" x2="213.2" y2="140.0" stroke="rgb(0,0,0)"  stroke-width="2.0"/>
<line x1="187.4" y1="163.2" x2="211.6" y2="149.2" stroke="rgb(0,0,0)"  stroke-width="2.0"/>
<line x1="178.6" y1="200.0" x2="143.9" y2="220.0" stroke="rgb(0,0,0)"  stroke-width="2.0"/>
<line x1="143.9" y1="220.0" x2="109.3" y2="200.0" stroke="rgb(0,0,0)"  stroke-width="2.0"/>
<line x1="109.3" y1="200.0" x2="109.3" y2="160.0" stroke="rgb(0,0,0)"  stroke-width="2.0"/>
<line x1="109.3" y1="160.0" x2="132.7" y2="146.5" stroke="rgb(0,0,0)"  stroke-width="2.0"/>
<line x1="155.2" y1="146.5" x2="178.6" y2="160.0" stroke="rgb(0,0,0)"  stroke-width="2.0"/>
<line x1="40.0" y1="160.0" x2="74.6" y2="140.0" stroke="rgb(0,0,0)"  stroke-width="2.0"/>
<line x1="74.6" y1="140.0" x2="109.3" y2="160.0" stroke="rgb(0,0,0)"  stroke-width="2.0"/>
<line x1="76.2" y1="149.2" x2="100.5" y2="163.2" stroke="rgb(0,0,0)"  stroke-width="2.0"/>
<line x1="109.3" y1="200.0" x2="74.6" y2="220.0" stroke="rgb(0,0,0)"  stroke-width="2.0"/>
<line x1="100.5" y1="196.8" x2="76.2" y2="210.8" stroke="rgb(0,0,0)"  stroke-width="2.0"/>
<line x1="74.6" y1="220.0" x2="40.0" y2="200.0" stroke="rgb(0,0,0)"  stroke-width="2.0"/>
<line x1="40.0" y1="200.0" x2="40.0" y2="160.0" stroke="rgb(0,0,0)"  stroke-width="2.0"/>
<line x1="47.2" y1="194.0" x2="47.2" y2="166.0" stroke="rgb(0,0,0)"  stroke-width="2.0"/>
<text x="137.923048" y="268.000000" fill="rgb(255,12,12)"  stroke="rgb(255,12,12)" stroke-width="1" font-size="16" >O</text>
<text x="207.205081" y="108.000000" fill="rgb(255,12,12)"  stroke="rgb(255,12,12)" stroke-width="1" font-size="16" >OH</text>
<text x="137.923048" y="148.000000" fill="rgb(12,12,255)"  stroke="rgb(12,12,255)" stroke-width="1" font-size="16" >N</text>
<text x="172.564065" y="48.000000" fill="rgb(255,12,12)"  stroke="rgb(255,12,12)" stroke-width="1" font-size="16" >O</text>
</svg>
</g>
<text font-size="18.000000" fill ="black" font-family="sans-serif"
x="10.000000" y="20.000000" ></text>
</svg>
