<?xml version="1.0"?>
<svg version="1.1" id="topsvg"
xmlns="http://www.w3.org/2000/svg" xmlns:xlink="http://www.w3.org/1999/xlink"
xmlns:cml="http://www.xml-cml.org/schema" x="0" y="0" width="200px" height="200px" viewBox="0 0 100 100">
<title> - Open Babel Depiction</title>
<rect x="0" y="0" width="100" height="100" fill="white"/>
<g transform="translate(0,0)">
<svg width="100" height="100" x="0" y="0" viewBox="0 0 261.992 258.948"
font-family="sans-serif" stroke="rgb(0,0,0)" stroke-width="2"  stroke-linecap="round">
<line x1="165.9" y1="72.4" x2="205.7" y2="76.6" stroke="rgb(0,0,0)"  stroke-width="2.0"/>
<line x1="205.7" y1="76.6" x2="216.7" y2="101.2" stroke="rgb(0,0,0)"  stroke-width="2.0"/>
<line x1="214.3" y1="123.6" x2="198.4" y2="145.4" stroke="rgb(0,0,0)"  stroke-width="2.0"/>
<line x1="198.4" y1="145.4" x2="206.8" y2="184.6" stroke="rgb(0,0,0)"  stroke-width="2.0"/>
<line x1="206.8" y1="184.6" x2="186.7" y2="202.6" stroke="rgb(0,0,0)"  stroke-width="2.0"/>
<line x1="164.7" y1="207.3" x2="139.0" y2="199.0" stroke="rgb(0,0,0)"  stroke-width="2.0"/>
<line x1="139.0" y1="199.0" x2="104.3" y2="218.9" stroke="rgb(0,0,0)"  stroke-width="2.0"/>
<line x1="104.3" y1="218.9" x2="81.0" y2="205.5" stroke="rgb(0,0,0)"  stroke-width="2.0"/>
<line x1="69.7" y1="186.0" x2="69.7" y2="158.9" stroke="rgb(0,0,0)"  stroke-width="2.0"/>
<line x1="69.7" y1="158.9" x2="40.0" y2="132.1" stroke="rgb(0,0,0)"  stroke-width="2.0"/>
<line x1="40.0" y1="132.1" x2="45.6" y2="105.7" stroke="rgb(0,0,0)"  stroke-width="2.0"/>
<line x1="60.7" y1="89.0" x2="86.4" y2="80.7" stroke="rgb(0,0,0)"  stroke-width="2.0"/>
<line x1="86.4" y1="80.7" x2="102.7" y2="44.1" stroke="rgb(0,0,0)"  stroke-width="2.0"/>
<line x1="102.7" y1="44.1" x2="129.5" y2="41.3" stroke="rgb(0,0,0)"  stroke-width="2.0"/>
<line x1="150.1" y1="50.5" x2="165.9" y2="72.4" stroke="rgb(0,0,0)"  stroke-width="2.0"/>
<text x="136.462736" y="48.000000" fill="rgb(255,12,12)"  stroke="rgb(255,12,12)" stroke-width="1" font-size="16" >O</text>
<text x="215.991990" y="121.098250" fill="rgb(255,12,12)"  stroke="rgb(255,12,12)" stroke-width="1" font-size="16" >O</text>
<text x="171.014400" y="219.323950" fill="rgb(255,12,12)"  stroke="rgb(255,12,12)" stroke-width="1" font-size="16" >O</text>
<text x="63.719364" y="206.957573" fill="rgb(255,12,12)"  stroke="rgb(255,12,12)" stroke-width="1" font-size="16" >O</text>
<text x="42.347076" y="101.027821" fill="rgb(255,12,12)"  stroke="rgb(255,12,12)" stroke-width="1" font-size="16" >O</text>
</svg>
</g>
<text font-size="18.000000" fill ="black" font-family="sans-serif"
x="10.000000" y="20.000000" ></text>
</svg>
