<?xml version="1.0"?>
<svg version="1.1" id="topsvg"
xmlns="http://www.w3.org/2000/svg" xmlns:xlink="http://www.w3.org/1999/xlink"
xmlns:cml="http://www.xml-cml.org/schema" x="0" y="0" width="200px" height="200px" viewBox="0 0 100 100">
<title> - Open Babel Depiction</title>
<rect x="0" y="0" width="100" height="100" fill="white"/>
<g transform="translate(0,0)">
<svg width="100" height="100" x="0" y="0" viewBox="0 0 342.115 218.252"
font-family="sans-serif" stroke="rgb(0,0,0)" stroke-width="2"  stroke-linecap="round">
<line x1="210.8" y1="138.3" x2="170.8" y2="138.3" stroke="rgb(0,0,0)"  stroke-width="2.0"/>
<line x1="210.8" y1="138.3" x2="234.3" y2="105.9" stroke="rgb(0,0,0)"  stroke-width="2.0"/>
<line x1="234.3" y1="105.9" x2="272.4" y2="118.3" stroke="rgb(0,0,0)"  stroke-width="2.0"/>
<line x1="237.8" y1="114.6" x2="264.5" y2="123.2" stroke="rgb(0,0,0)"  stroke-width="2.0"/>
<line x1="272.4" y1="118.3" x2="272.4" y2="145.3" stroke="rgb(0,0,0)"  stroke-width="2.0"/>
<line x1="260.0" y1="162.3" x2="246.7" y2="166.6" stroke="rgb(0,0,0)"  stroke-width="2.0"/>
<line x1="226.6" y1="159.9" x2="210.8" y2="138.3" stroke="rgb(0,0,0)"  stroke-width="2.0"/>
<line x1="231.2" y1="154.1" x2="220.2" y2="138.9" stroke="rgb(0,0,0)"  stroke-width="2.0"/>
<line x1="109.3" y1="158.3" x2="109.3" y2="118.3" stroke="rgb(0,0,0)"  stroke-width="2.0"/>
<line x1="109.3" y1="118.3" x2="135.0" y2="109.9" stroke="rgb(0,0,0)"  stroke-width="2.0"/>
<line x1="155.0" y1="116.4" x2="170.8" y2="138.3" stroke="rgb(0,0,0)"  stroke-width="2.0"/>
<line x1="170.8" y1="138.3" x2="155.1" y2="159.9" stroke="rgb(0,0,0)"  stroke-width="2.0"/>
<line x1="161.5" y1="138.9" x2="150.4" y2="154.1" stroke="rgb(0,0,0)"  stroke-width="2.0"/>
<line x1="135.0" y1="166.6" x2="109.3" y2="158.3" stroke="rgb(0,0,0)"  stroke-width="2.0"/>
<line x1="255.8" y1="40.0" x2="293.8" y2="52.4" stroke="rgb(0,0,0)"  stroke-width="2.0"/>
<line x1="293.8" y1="52.4" x2="302.1" y2="91.5" stroke="rgb(0,0,0)"  stroke-width="2.0"/>
<line x1="288.0" y1="59.7" x2="293.8" y2="87.1" stroke="rgb(0,0,0)"  stroke-width="2.0"/>
<line x1="302.1" y1="91.5" x2="272.4" y2="118.3" stroke="rgb(0,0,0)"  stroke-width="2.0"/>
<line x1="234.3" y1="105.9" x2="226.0" y2="66.8" stroke="rgb(0,0,0)"  stroke-width="2.0"/>
<line x1="226.0" y1="66.8" x2="255.8" y2="40.0" stroke="rgb(0,0,0)"  stroke-width="2.0"/>
<line x1="235.3" y1="68.1" x2="256.1" y2="49.4" stroke="rgb(0,0,0)"  stroke-width="2.0"/>
<line x1="40.0" y1="118.3" x2="74.6" y2="98.3" stroke="rgb(0,0,0)"  stroke-width="2.0"/>
<line x1="74.6" y1="98.3" x2="109.3" y2="118.3" stroke="rgb(0,0,0)"  stroke-width="2.0"/>
<line x1="76.2" y1="107.5" x2="100.5" y2="121.5" stroke="rgb(0,0,0)"  stroke-width="2.0"/>
<line x1="109.3" y1="158.3" x2="74.6" y2="178.3" stroke="rgb(0,0,0)"  stroke-width="2.0"/>
<line x1="100.5" y1="155.0" x2="76.2" y2="169.0" stroke="rgb(0,0,0)"  stroke-width="2.0"/>
<line x1="74.6" y1="178.3" x2="40.0" y2="158.3" stroke="rgb(0,0,0)"  stroke-width="2.0"/>
<line x1="40.0" y1="158.3" x2="40.0" y2="118.3" stroke="rgb(0,0,0)"  stroke-width="2.0"/>
<line x1="47.2" y1="152.3" x2="47.2" y2="124.3" stroke="rgb(0,0,0)"  stroke-width="2.0"/>
<text x="141.324293" y="113.891128" fill="rgb(12,12,255)"  stroke="rgb(12,12,255)" stroke-width="1" font-size="16" >N</text>
<text x="141.324293" y="97.891128" fill="rgb(12,12,255)"  stroke="rgb(12,12,255)" stroke-width="1" font-size="16" >H</text>
<text x="266.389374" y="166.251808" fill="rgb(12,12,255)"  stroke="rgb(12,12,255)" stroke-width="1" font-size="16" >NH</text>
<text x="141.324293" y="178.612488" fill="rgb(12,12,255)"  stroke="rgb(12,12,255)" stroke-width="1" font-size="16" >N</text>
<text x="228.347113" y="178.612488" fill="rgb(12,12,255)"  stroke="rgb(12,12,255)" stroke-width="1" font-size="16" >N</text>
</svg>
</g>
<text font-size="18.000000" fill ="black" font-family="sans-serif"
x="10.000000" y="20.000000" ></text>
</svg>
