<?xml version="1.0"?>
<svg version="1.1" id="topsvg"
xmlns="http://www.w3.org/2000/svg" xmlns:xlink="http://www.w3.org/1999/xlink"
xmlns:cml="http://www.xml-cml.org/schema" x="0" y="0" width="200px" height="200px" viewBox="0 0 100 100">
<title> - Open Babel Depiction</title>
<rect x="0" y="0" width="100" height="100" fill="white"/>
<g transform="translate(0,0)">
<svg width="100" height="100" x="0" y="0" viewBox="0 0 391.769 254.641"
font-family="sans-serif" stroke="rgb(0,0,0)" stroke-width="2"  stroke-linecap="round">
<line x1="143.9" y1="181.6" x2="143.9" y2="154.6" stroke="rgb(0,0,0)"  stroke-width="2.0"/>
<line x1="147.8" y1="61.9" x2="154.8" y2="49.8" stroke="rgb(0,0,0)"  stroke-width="2.0"/>
<line x1="153.0" y1="64.9" x2="160.0" y2="52.8" stroke="rgb(0,0,0)"  stroke-width="2.0"/>
<line x1="134.8" y1="64.9" x2="127.8" y2="52.8" stroke="rgb(0,0,0)"  stroke-width="2.0"/>
<line x1="140.0" y1="61.9" x2="133.0" y2="49.8" stroke="rgb(0,0,0)"  stroke-width="2.0"/>
<line x1="178.6" y1="134.6" x2="213.2" y2="154.6" stroke="rgb(0,0,0)"  stroke-width="2.0"/>
<line x1="216.2" y1="154.6" x2="216.2" y2="181.6" stroke="rgb(0,0,0)"  stroke-width="2.0"/>
<line x1="210.2" y1="154.6" x2="210.2" y2="181.6" stroke="rgb(0,0,0)"  stroke-width="2.0"/>
<line x1="213.2" y1="154.6" x2="236.6" y2="141.1" stroke="rgb(0,0,0)"  stroke-width="2.0"/>
<line x1="259.1" y1="141.1" x2="282.5" y2="154.6" stroke="rgb(0,0,0)"  stroke-width="2.0"/>
<line x1="189.8" y1="88.1" x2="201.9" y2="81.1" stroke="rgb(0,0,0)"  stroke-width="2.0"/>
<line x1="40.0" y1="134.6" x2="40.0" y2="94.6" stroke="rgb(0,0,0)"  stroke-width="2.0"/>
<line x1="47.2" y1="128.6" x2="47.2" y2="100.6" stroke="rgb(0,0,0)"  stroke-width="2.0"/>
<line x1="40.0" y1="94.6" x2="74.6" y2="74.6" stroke="rgb(0,0,0)"  stroke-width="2.0"/>
<line x1="74.6" y1="74.6" x2="109.3" y2="94.6" stroke="rgb(0,0,0)"  stroke-width="2.0"/>
<line x1="76.2" y1="83.9" x2="100.5" y2="97.9" stroke="rgb(0,0,0)"  stroke-width="2.0"/>
<line x1="109.3" y1="94.6" x2="109.3" y2="134.6" stroke="rgb(0,0,0)"  stroke-width="2.0"/>
<line x1="109.3" y1="134.6" x2="74.6" y2="154.6" stroke="rgb(0,0,0)"  stroke-width="2.0"/>
<line x1="100.5" y1="131.4" x2="76.2" y2="145.4" stroke="rgb(0,0,0)"  stroke-width="2.0"/>
<line x1="74.6" y1="154.6" x2="40.0" y2="134.6" stroke="rgb(0,0,0)"  stroke-width="2.0"/>
<line x1="351.8" y1="154.6" x2="351.8" y2="194.6" stroke="rgb(0,0,0)"  stroke-width="2.0"/>
<line x1="344.6" y1="160.6" x2="344.6" y2="188.6" stroke="rgb(0,0,0)"  stroke-width="2.0"/>
<line x1="351.8" y1="194.6" x2="317.1" y2="214.6" stroke="rgb(0,0,0)"  stroke-width="2.0"/>
<line x1="317.1" y1="214.6" x2="293.9" y2="201.2" stroke="rgb(0,0,0)"  stroke-width="2.0"/>
<line x1="315.5" y1="205.4" x2="299.3" y2="196.0" stroke="rgb(0,0,0)"  stroke-width="2.0"/>
<line x1="282.5" y1="181.6" x2="282.5" y2="154.6" stroke="rgb(0,0,0)"  stroke-width="2.0"/>
<line x1="282.5" y1="154.6" x2="317.1" y2="134.6" stroke="rgb(0,0,0)"  stroke-width="2.0"/>
<line x1="291.3" y1="157.9" x2="315.5" y2="143.9" stroke="rgb(0,0,0)"  stroke-width="2.0"/>
<line x1="317.1" y1="134.6" x2="351.8" y2="154.6" stroke="rgb(0,0,0)"  stroke-width="2.0"/>
<line x1="143.9" y1="154.6" x2="109.3" y2="134.6" stroke="rgb(0,0,0)"  stroke-width="2.0"/>
<line x1="109.3" y1="94.6" x2="132.7" y2="81.1" stroke="rgb(0,0,0)"  stroke-width="2.0"/>
<line x1="155.2" y1="81.1" x2="167.3" y2="88.1" stroke="rgb(0,0,0)"  stroke-width="2.0"/>
<line x1="178.6" y1="107.6" x2="178.6" y2="134.6" stroke="rgb(0,0,0)"  stroke-width="2.0"/>
<line x1="178.6" y1="134.6" x2="143.9" y2="154.6" stroke="rgb(0,0,0)"  stroke-width="2.0"/>
<line x1="169.8" y1="131.4" x2="145.5" y2="145.4" stroke="rgb(0,0,0)"  stroke-width="2.0"/>
<text x="209.205081" y="82.641016" fill="rgb(102,102,102)"  stroke="rgb(102,102,102)" stroke-width="1" font-size="16" >CH</text>
<text x="233.205081" y="86.321016" fill="rgb(102,102,102)"  stroke="rgb(102,102,102)" stroke-width="1" font-size="13" >3</text>
<text x="172.564065" y="102.641016" fill="rgb(12,12,255)"  stroke="rgb(12,12,255)" stroke-width="1" font-size="16" >N</text>
<text x="276.487113" y="202.641016" fill="rgb(12,12,255)"  stroke="rgb(12,12,255)" stroke-width="1" font-size="16" >N</text>
<text x="241.846097" y="142.641016" fill="rgb(12,12,255)"  stroke="rgb(12,12,255)" stroke-width="1" font-size="16" >N</text>
<text x="241.846097" y="126.641016" fill="rgb(12,12,255)"  stroke="rgb(12,12,255)" stroke-width="1" font-size="16" >H</text>
<text x="207.205081" y="202.641016" fill="rgb(255,12,12)"  stroke="rgb(255,12,12)" stroke-width="1" font-size="16" >O</text>
<text x="137.923048" y="202.641016" fill="rgb(255,12,12)"  stroke="rgb(255,12,12)" stroke-width="1" font-size="16" >OH</text>
<text x="117.923048" y="48.000000" fill="rgb(255,12,12)"  stroke="rgb(255,12,12)" stroke-width="1" font-size="16" >O</text>
<text x="157.923048" y="48.000000" fill="rgb(255,12,12)"  stroke="rgb(255,12,12)" stroke-width="1" font-size="16" >O</text>
<text x="137.923048" y="82.641016" fill="rgb(178,178,0)"  stroke="rgb(178,178,0)" stroke-width="1" font-size="16" >S</text>
</svg>
</g>
<text font-size="18.000000" fill ="black" font-family="sans-serif"
x="10.000000" y="20.000000" ></text>
</svg>
