<?xml version="1.0"?>
<svg version="1.1" id="topsvg"
xmlns="http://www.w3.org/2000/svg" xmlns:xlink="http://www.w3.org/1999/xlink"
xmlns:cml="http://www.xml-cml.org/schema" x="0" y="0" width="200px" height="200px" viewBox="0 0 100 100">
<title> - Open Babel Depiction</title>
<rect x="0" y="0" width="100" height="100" fill="white"/>
<g transform="translate(0,0)">
<svg width="100" height="100" x="0" y="0" viewBox="0 0 352.471 345.896"
font-family="sans-serif" stroke="rgb(0,0,0)" stroke-width="2"  stroke-linecap="round">
<line x1="202.8" y1="51.3" x2="215.7" y2="73.5" stroke="rgb(0,0,0)"  stroke-width="2.0"/>
<line x1="254.4" y1="140.6" x2="267.3" y2="162.8" stroke="rgb(0,0,0)"  stroke-width="2.0"/>
<line x1="269.9" y1="186.9" x2="263.5" y2="197.9" stroke="rgb(0,0,0)"  stroke-width="2.0"/>
<line x1="264.7" y1="183.9" x2="258.3" y2="194.9" stroke="rgb(0,0,0)"  stroke-width="2.0"/>
<line x1="286.8" y1="171.1" x2="299.5" y2="171.1" stroke="rgb(0,0,0)"  stroke-width="2.0"/>
<line x1="286.8" y1="177.1" x2="299.5" y2="177.1" stroke="rgb(0,0,0)"  stroke-width="2.0"/>
<line x1="215.7" y1="140.6" x2="183.5" y2="196.4" stroke="rgb(0,0,0)"  stroke-width="2.0"/>
<line x1="164.0" y1="210.6" x2="151.3" y2="210.6" stroke="rgb(0,0,0)"  stroke-width="2.0"/>
<line x1="164.0" y1="204.6" x2="151.3" y2="204.6" stroke="rgb(0,0,0)"  stroke-width="2.0"/>
<line x1="138.3" y1="220.6" x2="138.3" y2="233.3" stroke="rgb(0,0,0)"  stroke-width="2.0"/>
<line x1="138.3" y1="194.6" x2="138.3" y2="181.9" stroke="rgb(0,0,0)"  stroke-width="2.0"/>
<line x1="125.3" y1="207.6" x2="112.6" y2="207.6" stroke="rgb(0,0,0)"  stroke-width="2.0"/>
<line x1="254.4" y1="73.5" x2="215.7" y2="73.5" stroke="rgb(0,0,0)"  stroke-width="2.0"/>
<line x1="248.4" y1="80.7" x2="221.7" y2="80.7" stroke="rgb(0,0,0)"  stroke-width="2.0"/>
<line x1="215.7" y1="73.5" x2="196.3" y2="107.0" stroke="rgb(0,0,0)"  stroke-width="2.0"/>
<line x1="196.3" y1="107.0" x2="215.7" y2="140.6" stroke="rgb(0,0,0)"  stroke-width="2.0"/>
<line x1="205.6" y1="108.6" x2="218.9" y2="131.8" stroke="rgb(0,0,0)"  stroke-width="2.0"/>
<line x1="215.7" y1="140.6" x2="254.4" y2="140.6" stroke="rgb(0,0,0)"  stroke-width="2.0"/>
<line x1="254.4" y1="140.6" x2="273.8" y2="107.0" stroke="rgb(0,0,0)"  stroke-width="2.0"/>
<line x1="251.2" y1="131.8" x2="264.5" y2="108.6" stroke="rgb(0,0,0)"  stroke-width="2.0"/>
<line x1="273.8" y1="107.0" x2="254.4" y2="73.5" stroke="rgb(0,0,0)"  stroke-width="2.0"/>
<line x1="157.6" y1="305.9" x2="118.9" y2="305.9" stroke="rgb(0,0,0)"  stroke-width="2.0"/>
<line x1="118.9" y1="305.9" x2="107.0" y2="269.1" stroke="rgb(0,0,0)"  stroke-width="2.0"/>
<line x1="107.0" y1="269.1" x2="127.8" y2="254.0" stroke="rgb(0,0,0)"  stroke-width="2.0"/>
<line x1="148.8" y1="254.0" x2="169.6" y2="269.1" stroke="rgb(0,0,0)"  stroke-width="2.0"/>
<line x1="169.6" y1="269.1" x2="157.6" y2="305.9" stroke="rgb(0,0,0)"  stroke-width="2.0"/>
<line x1="118.9" y1="109.3" x2="157.6" y2="109.3" stroke="rgb(0,0,0)"  stroke-width="2.0"/>
<line x1="157.6" y1="109.3" x2="169.6" y2="146.2" stroke="rgb(0,0,0)"  stroke-width="2.0"/>
<line x1="169.6" y1="146.2" x2="148.8" y2="161.3" stroke="rgb(0,0,0)"  stroke-width="2.0"/>
<line x1="127.8" y1="161.3" x2="107.0" y2="146.2" stroke="rgb(0,0,0)"  stroke-width="2.0"/>
<line x1="107.0" y1="146.2" x2="118.9" y2="109.3" stroke="rgb(0,0,0)"  stroke-width="2.0"/>
<line x1="40.0" y1="227.0" x2="40.0" y2="188.3" stroke="rgb(0,0,0)"  stroke-width="2.0"/>
<line x1="40.0" y1="188.3" x2="76.8" y2="176.3" stroke="rgb(0,0,0)"  stroke-width="2.0"/>
<line x1="76.8" y1="176.3" x2="91.9" y2="197.1" stroke="rgb(0,0,0)"  stroke-width="2.0"/>
<line x1="91.9" y1="218.1" x2="76.8" y2="238.9" stroke="rgb(0,0,0)"  stroke-width="2.0"/>
<line x1="76.8" y1="238.9" x2="40.0" y2="227.0" stroke="rgb(0,0,0)"  stroke-width="2.0"/>
<text x="93.568068" y="215.617820" fill="rgb(12,12,255)"  stroke="rgb(12,12,255)" stroke-width="1" font-size="16" >N</text>
<text x="132.277746" y="176.908143" fill="rgb(12,12,255)"  stroke="rgb(12,12,255)" stroke-width="1" font-size="16" >N</text>
<text x="178.342262" y="48.000000" fill="rgb(30,239,30)"  stroke="rgb(30,239,30)" stroke-width="1" font-size="16" >Cl</text>
<text x="132.277746" y="254.327498" fill="rgb(12,12,255)"  stroke="rgb(12,12,255)" stroke-width="1" font-size="16" >N</text>
<text x="132.277746" y="215.617820" fill="rgb(255,127,0)"  stroke="rgb(255,127,0)" stroke-width="1" font-size="16" >P</text>
<text x="170.987423" y="215.617820" fill="rgb(12,12,255)"  stroke="rgb(12,12,255)" stroke-width="1" font-size="16" >N</text>
<text x="306.471294" y="182.094256" fill="rgb(255,12,12)"  stroke="rgb(255,12,12)" stroke-width="1" font-size="16" >O</text>
<text x="248.406778" y="215.617820" fill="rgb(255,12,12)"  stroke="rgb(255,12,12)" stroke-width="1" font-size="16" >O</text>
<text x="267.761617" y="182.094256" fill="rgb(12,12,255)"  stroke="rgb(12,12,255)" stroke-width="1" font-size="16" >N</text>
</svg>
</g>
<text font-size="18.000000" fill ="black" font-family="sans-serif"
x="10.000000" y="20.000000" ></text>
</svg>
