<?xml version="1.0"?>
<svg version="1.1" id="topsvg"
xmlns="http://www.w3.org/2000/svg" xmlns:xlink="http://www.w3.org/1999/xlink"
xmlns:cml="http://www.xml-cml.org/schema" x="0" y="0" width="200px" height="200px" viewBox="0 0 100 100">
<title> - Open Babel Depiction</title>
<rect x="0" y="0" width="100" height="100" fill="white"/>
<g transform="translate(0,0)">
<svg width="100" height="100" x="0" y="0" viewBox="0 0 429.299 242.141"
font-family="sans-serif" stroke="rgb(0,0,0)" stroke-width="2"  stroke-linecap="round">
<line x1="93.8" y1="172.3" x2="103.7" y2="162.4" stroke="rgb(0,0,0)"  stroke-width="2.0"/>
<line x1="125.5" y1="156.5" x2="151.5" y2="163.5" stroke="rgb(0,0,0)"  stroke-width="2.0"/>
<line x1="151.5" y1="163.5" x2="190.2" y2="153.2" stroke="rgb(0,0,0)"  stroke-width="2.0"/>
<line x1="163.0" y1="77.0" x2="143.9" y2="57.9" stroke="rgb(0,0,0)"  stroke-width="2.0"/>
<line x1="143.9" y1="57.9" x2="109.3" y2="77.9" stroke="rgb(0,0,0)"  stroke-width="2.0"/>
<line x1="239.1" y1="104.2" x2="249.5" y2="65.5" stroke="rgb(0,0,0)"  stroke-width="2.0"/>
<line x1="249.5" y1="65.5" x2="228.7" y2="48.3" stroke="rgb(0,0,0)"  stroke-width="2.0"/>
<line x1="206.5" y1="44.5" x2="193.4" y2="49.4" stroke="rgb(0,0,0)"  stroke-width="2.0"/>
<line x1="248.5" y1="62.7" x2="273.8" y2="53.3" stroke="rgb(0,0,0)"  stroke-width="2.0"/>
<line x1="250.5" y1="68.3" x2="275.8" y2="59.0" stroke="rgb(0,0,0)"  stroke-width="2.0"/>
<line x1="230.9" y1="140.7" x2="250.0" y2="159.8" stroke="rgb(0,0,0)"  stroke-width="2.0"/>
<line x1="226.7" y1="144.9" x2="245.8" y2="164.0" stroke="rgb(0,0,0)"  stroke-width="2.0"/>
<line x1="266.3" y1="180.3" x2="285.4" y2="199.4" stroke="rgb(0,0,0)"  stroke-width="2.0"/>
<line x1="285.4" y1="199.4" x2="320.0" y2="179.3" stroke="rgb(0,0,0)"  stroke-width="2.0"/>
<line x1="154.4" y1="162.7" x2="161.4" y2="188.8" stroke="rgb(0,0,0)"  stroke-width="2.0"/>
<line x1="148.6" y1="164.3" x2="155.6" y2="190.4" stroke="rgb(0,0,0)"  stroke-width="2.0"/>
<line x1="40.0" y1="77.9" x2="40.0" y2="117.9" stroke="rgb(0,0,0)"  stroke-width="2.0"/>
<line x1="47.2" y1="83.9" x2="47.2" y2="111.9" stroke="rgb(0,0,0)"  stroke-width="2.0"/>
<line x1="40.0" y1="117.9" x2="74.6" y2="137.9" stroke="rgb(0,0,0)"  stroke-width="2.0"/>
<line x1="74.6" y1="137.9" x2="109.3" y2="117.9" stroke="rgb(0,0,0)"  stroke-width="2.0"/>
<line x1="76.2" y1="128.7" x2="100.5" y2="114.7" stroke="rgb(0,0,0)"  stroke-width="2.0"/>
<line x1="109.3" y1="117.9" x2="109.3" y2="77.9" stroke="rgb(0,0,0)"  stroke-width="2.0"/>
<line x1="109.3" y1="77.9" x2="74.6" y2="57.9" stroke="rgb(0,0,0)"  stroke-width="2.0"/>
<line x1="100.5" y1="81.2" x2="76.2" y2="67.2" stroke="rgb(0,0,0)"  stroke-width="2.0"/>
<line x1="74.6" y1="57.9" x2="40.0" y2="77.9" stroke="rgb(0,0,0)"  stroke-width="2.0"/>
<line x1="389.3" y1="179.3" x2="389.3" y2="139.3" stroke="rgb(0,0,0)"  stroke-width="2.0"/>
<line x1="382.1" y1="173.3" x2="382.1" y2="145.3" stroke="rgb(0,0,0)"  stroke-width="2.0"/>
<line x1="389.3" y1="139.3" x2="354.6" y2="119.3" stroke="rgb(0,0,0)"  stroke-width="2.0"/>
<line x1="354.6" y1="119.3" x2="320.0" y2="139.3" stroke="rgb(0,0,0)"  stroke-width="2.0"/>
<line x1="353.1" y1="128.6" x2="328.8" y2="142.6" stroke="rgb(0,0,0)"  stroke-width="2.0"/>
<line x1="320.0" y1="139.3" x2="320.0" y2="179.3" stroke="rgb(0,0,0)"  stroke-width="2.0"/>
<line x1="320.0" y1="179.3" x2="354.7" y2="199.3" stroke="rgb(0,0,0)"  stroke-width="2.0"/>
<line x1="328.8" y1="176.1" x2="353.1" y2="190.1" stroke="rgb(0,0,0)"  stroke-width="2.0"/>
<line x1="354.7" y1="199.3" x2="389.3" y2="179.3" stroke="rgb(0,0,0)"  stroke-width="2.0"/>
<line x1="184.8" y1="82.9" x2="210.9" y2="75.9" stroke="rgb(0,0,0)"  stroke-width="2.0"/>
<line x1="210.9" y1="75.9" x2="239.1" y2="104.2" stroke="rgb(0,0,0)"  stroke-width="2.0"/>
<line x1="239.1" y1="104.2" x2="228.8" y2="142.8" stroke="rgb(0,0,0)"  stroke-width="2.0"/>
<line x1="228.8" y1="142.8" x2="190.2" y2="153.2" stroke="rgb(0,0,0)"  stroke-width="2.0"/>
<line x1="190.2" y1="153.2" x2="161.9" y2="124.9" stroke="rgb(0,0,0)"  stroke-width="2.0"/>
<line x1="161.9" y1="124.9" x2="168.9" y2="98.8" stroke="rgb(0,0,0)"  stroke-width="2.0"/>
<line x1="260.4" y1="158.5" x2="267.4" y2="132.4" stroke="rgb(0,0,0)"  stroke-width="2.0"/>
<line x1="267.4" y1="132.4" x2="239.1" y2="104.2" stroke="rgb(0,0,0)"  stroke-width="2.0"/>
<line x1="190.2" y1="153.2" x2="218.4" y2="181.4" stroke="rgb(0,0,0)"  stroke-width="2.0"/>
<line x1="218.4" y1="181.4" x2="244.5" y2="174.4" stroke="rgb(0,0,0)"  stroke-width="2.0"/>
<text x="155.888422" y="210.141191" fill="rgb(255,12,12)"  stroke="rgb(255,12,12)" stroke-width="1" font-size="16" >O</text>
<text x="251.081768" y="179.066929" fill="rgb(255,12,12)"  stroke="rgb(255,12,12)" stroke-width="1" font-size="16" >O</text>
<text x="280.994269" y="59.623486" fill="rgb(255,12,12)"  stroke="rgb(255,12,12)" stroke-width="1" font-size="16" >O</text>
<text x="155.209485" y="61.900799" fill="rgb(102,102,102)"  stroke="rgb(102,102,102)" stroke-width="1" font-size="16" >H</text>
<text x="167.209485" y="65.580799" fill="rgb(102,102,102)"  stroke="rgb(102,102,102)" stroke-width="1" font-size="13" >3</text>
<text x="173.709485" y="61.900799" fill="rgb(102,102,102)"  stroke="rgb(102,102,102)" stroke-width="1" font-size="16" >C</text>
<text x="212.708021" y="48.000000" fill="rgb(255,12,12)"  stroke="rgb(255,12,12)" stroke-width="1" font-size="16" >O</text>
<text x="58.623606" y="189.461789" fill="rgb(102,102,102)"  stroke="rgb(102,102,102)" stroke-width="1" font-size="16" >H</text>
<text x="70.623606" y="193.141789" fill="rgb(102,102,102)"  stroke="rgb(102,102,102)" stroke-width="1" font-size="13" >3</text>
<text x="77.123606" y="189.461789" fill="rgb(102,102,102)"  stroke="rgb(102,102,102)" stroke-width="1" font-size="16" >C</text>
<text x="251.083078" y="179.072481" fill="rgb(12,12,255)"  stroke="rgb(12,12,255)" stroke-width="1" font-size="16" >N</text>
<text x="166.215082" y="94.217217" fill="rgb(12,12,255)"  stroke="rgb(12,12,255)" stroke-width="1" font-size="16" >N</text>
<text x="106.894254" y="161.174993" fill="rgb(255,12,12)"  stroke="rgb(255,12,12)" stroke-width="1" font-size="16" >O</text>
</svg>
</g>
<text font-size="18.000000" fill ="black" font-family="sans-serif"
x="10.000000" y="20.000000" ></text>
</svg>
