<?xml version="1.0"?>
<svg version="1.1" id="topsvg"
xmlns="http://www.w3.org/2000/svg" xmlns:xlink="http://www.w3.org/1999/xlink"
xmlns:cml="http://www.xml-cml.org/schema" x="0" y="0" width="200px" height="200px" viewBox="0 0 100 100">
<title> - Open Babel Depiction</title>
<rect x="0" y="0" width="100" height="100" fill="white"/>
<g transform="translate(0,0)">
<svg width="100" height="100" x="0" y="0" viewBox="0 0 401.214 208.097"
font-family="sans-serif" stroke="rgb(0,0,0)" stroke-width="2"  stroke-linecap="round">
<line x1="350.0" y1="46.5" x2="326.6" y2="60.0" stroke="rgb(0,0,0)"  stroke-width="2.0"/>
<line x1="257.3" y1="100.0" x2="222.6" y2="120.0" stroke="rgb(0,0,0)"  stroke-width="2.0"/>
<line x1="159.3" y1="133.5" x2="119.6" y2="129.3" stroke="rgb(0,0,0)"  stroke-width="2.0"/>
<line x1="172.7" y1="156.7" x2="159.3" y2="133.5" stroke="rgb(0,0,0)"  stroke-width="2.0"/>
<line x1="178.0" y1="151.3" x2="168.6" y2="135.1" stroke="rgb(0,0,0)"  stroke-width="2.0"/>
<line x1="159.3" y1="133.5" x2="177.4" y2="113.4" stroke="rgb(0,0,0)"  stroke-width="2.0"/>
<line x1="198.0" y1="109.0" x2="222.6" y2="120.0" stroke="rgb(0,0,0)"  stroke-width="2.0"/>
<line x1="222.6" y1="120.0" x2="219.8" y2="146.7" stroke="rgb(0,0,0)"  stroke-width="2.0"/>
<line x1="214.9" y1="125.2" x2="212.9" y2="143.9" stroke="rgb(0,0,0)"  stroke-width="2.0"/>
<line x1="205.8" y1="162.5" x2="192.1" y2="165.4" stroke="rgb(0,0,0)"  stroke-width="2.0"/>
<line x1="291.9" y1="120.0" x2="257.3" y2="100.0" stroke="rgb(0,0,0)"  stroke-width="2.0"/>
<line x1="290.3" y1="110.8" x2="266.1" y2="96.8" stroke="rgb(0,0,0)"  stroke-width="2.0"/>
<line x1="257.3" y1="100.0" x2="257.3" y2="60.0" stroke="rgb(0,0,0)"  stroke-width="2.0"/>
<line x1="257.3" y1="60.0" x2="291.9" y2="40.0" stroke="rgb(0,0,0)"  stroke-width="2.0"/>
<line x1="266.1" y1="63.2" x2="290.3" y2="49.2" stroke="rgb(0,0,0)"  stroke-width="2.0"/>
<line x1="291.9" y1="40.0" x2="326.6" y2="60.0" stroke="rgb(0,0,0)"  stroke-width="2.0"/>
<line x1="326.6" y1="60.0" x2="326.6" y2="100.0" stroke="rgb(0,0,0)"  stroke-width="2.0"/>
<line x1="319.4" y1="66.0" x2="319.4" y2="94.0" stroke="rgb(0,0,0)"  stroke-width="2.0"/>
<line x1="326.6" y1="100.0" x2="291.9" y2="120.0" stroke="rgb(0,0,0)"  stroke-width="2.0"/>
<line x1="56.3" y1="157.5" x2="40.0" y2="120.9" stroke="rgb(0,0,0)"  stroke-width="2.0"/>
<line x1="60.4" y1="149.0" x2="49.0" y2="123.5" stroke="rgb(0,0,0)"  stroke-width="2.0"/>
<line x1="40.0" y1="120.9" x2="63.5" y2="88.6" stroke="rgb(0,0,0)"  stroke-width="2.0"/>
<line x1="63.5" y1="88.6" x2="103.3" y2="92.7" stroke="rgb(0,0,0)"  stroke-width="2.0"/>
<line x1="68.7" y1="96.3" x2="96.6" y2="99.3" stroke="rgb(0,0,0)"  stroke-width="2.0"/>
<line x1="103.3" y1="92.7" x2="119.6" y2="129.3" stroke="rgb(0,0,0)"  stroke-width="2.0"/>
<line x1="119.6" y1="129.3" x2="96.1" y2="161.6" stroke="rgb(0,0,0)"  stroke-width="2.0"/>
<line x1="110.2" y1="129.9" x2="93.8" y2="152.5" stroke="rgb(0,0,0)"  stroke-width="2.0"/>
<line x1="96.1" y1="161.6" x2="56.3" y2="157.5" stroke="rgb(0,0,0)"  stroke-width="2.0"/>
<text x="173.342627" y="176.097343" fill="rgb(12,12,255)"  stroke="rgb(12,12,255)" stroke-width="1" font-size="16" >N</text>
<text x="180.107852" y="111.730534" fill="rgb(12,12,255)"  stroke="rgb(12,12,255)" stroke-width="1" font-size="16" >N</text>
<text x="180.107852" y="95.730534" fill="rgb(12,12,255)"  stroke="rgb(12,12,255)" stroke-width="1" font-size="16" >H</text>
<text x="355.213735" y="48.000000" fill="rgb(127,178,255)"  stroke="rgb(127,178,255)" stroke-width="1" font-size="16" >F</text>
<text x="212.468531" y="167.780876" fill="rgb(12,12,255)"  stroke="rgb(12,12,255)" stroke-width="1" font-size="16" >N</text>
</svg>
</g>
<text font-size="18.000000" fill ="black" font-family="sans-serif"
x="10.000000" y="20.000000" ></text>
</svg>
