<?xml version="1.0"?>
<svg version="1.1" id="topsvg"
xmlns="http://www.w3.org/2000/svg" xmlns:xlink="http://www.w3.org/1999/xlink"
xmlns:cml="http://www.xml-cml.org/schema" x="0" y="0" width="200px" height="200px" viewBox="0 0 100 100">
<title> - Open Babel Depiction</title>
<rect x="0" y="0" width="100" height="100" fill="white"/>
<g transform="translate(0,0)">
<svg width="100" height="100" x="0" y="0" viewBox="0 0 336.041 275.506"
font-family="sans-serif" stroke="rgb(0,0,0)" stroke-width="2"  stroke-linecap="round">
<line x1="172.2" y1="52.0" x2="164.4" y2="70.8" stroke="rgb(0,0,0)"  stroke-width="2.0"/>
<line x1="66.3" y1="193.6" x2="52.0" y2="223.8" stroke="rgb(0,0,0)"  stroke-width="2.0"/>
<line x1="222.6" y1="193.1" x2="242.3" y2="220.0" stroke="rgb(0,0,0)"  stroke-width="2.0"/>
<line x1="262.9" y1="229.1" x2="283.1" y2="227.0" stroke="rgb(0,0,0)"  stroke-width="2.0"/>
<line x1="239.7" y1="161.1" x2="225.4" y2="127.8" stroke="rgb(0,0,0)"  stroke-width="2.0"/>
<line x1="225.4" y1="127.8" x2="190.4" y2="118.3" stroke="rgb(0,0,0)"  stroke-width="2.0"/>
<line x1="217.7" y1="133.2" x2="194.3" y2="126.8" stroke="rgb(0,0,0)"  stroke-width="2.0"/>
<line x1="190.4" y1="118.3" x2="178.4" y2="154.0" stroke="rgb(0,0,0)"  stroke-width="2.0"/>
<line x1="178.4" y1="154.0" x2="187.0" y2="199.6" stroke="rgb(0,0,0)"  stroke-width="2.0"/>
<line x1="186.6" y1="158.6" x2="192.9" y2="192.4" stroke="rgb(0,0,0)"  stroke-width="2.0"/>
<line x1="187.0" y1="199.6" x2="222.6" y2="193.1" stroke="rgb(0,0,0)"  stroke-width="2.0"/>
<line x1="222.6" y1="193.1" x2="239.7" y2="161.1" stroke="rgb(0,0,0)"  stroke-width="2.0"/>
<line x1="219.1" y1="184.4" x2="230.5" y2="163.0" stroke="rgb(0,0,0)"  stroke-width="2.0"/>
<line x1="178.4" y1="154.0" x2="132.5" y2="148.0" stroke="rgb(0,0,0)"  stroke-width="2.0"/>
<line x1="132.5" y1="148.0" x2="112.6" y2="189.9" stroke="rgb(0,0,0)"  stroke-width="2.0"/>
<line x1="112.6" y1="189.9" x2="136.8" y2="212.9" stroke="rgb(0,0,0)"  stroke-width="2.0"/>
<line x1="157.7" y1="215.6" x2="187.0" y2="199.6" stroke="rgb(0,0,0)"  stroke-width="2.0"/>
<line x1="40.0" y1="155.4" x2="59.9" y2="113.6" stroke="rgb(0,0,0)"  stroke-width="2.0"/>
<line x1="49.1" y1="153.1" x2="63.8" y2="122.1" stroke="rgb(0,0,0)"  stroke-width="2.0"/>
<line x1="59.9" y1="113.6" x2="106.1" y2="109.8" stroke="rgb(0,0,0)"  stroke-width="2.0"/>
<line x1="106.1" y1="109.8" x2="132.5" y2="148.0" stroke="rgb(0,0,0)"  stroke-width="2.0"/>
<line x1="112.6" y1="189.9" x2="66.3" y2="193.6" stroke="rgb(0,0,0)"  stroke-width="2.0"/>
<line x1="66.3" y1="193.6" x2="40.0" y2="155.4" stroke="rgb(0,0,0)"  stroke-width="2.0"/>
<line x1="170.0" y1="86.6" x2="132.5" y2="82.8" stroke="rgb(0,0,0)"  stroke-width="2.0"/>
<line x1="132.5" y1="82.8" x2="106.1" y2="109.8" stroke="rgb(0,0,0)"  stroke-width="2.0"/>
<line x1="190.4" y1="118.3" x2="170.0" y2="86.6" stroke="rgb(0,0,0)"  stroke-width="2.0"/>
<line x1="178.5" y1="128.9" x2="159.5" y2="148.0" stroke="rgb(0,0,0)"  stroke-width="2.0"/>
<line x1="159.5" y1="148.0" x2="132.5" y2="148.0" stroke="rgb(0,0,0)"  stroke-width="2.0"/>
<line x1="132.5" y1="82.8" x2="146.5" y2="82.8" stroke="rgb(0,0,0)"  stroke-width="2.0"/>
<line x1="168.6" y1="92.0" x2="178.5" y2="101.9" stroke="rgb(0,0,0)"  stroke-width="2.0"/>
<line x1="178.5" y1="101.9" x2="178.5" y2="128.9" stroke="rgb(0,0,0)"  stroke-width="2.0"/>
<text x="28.420497" y="243.506101" fill="rgb(255,12,12)"  stroke="rgb(255,12,12)" stroke-width="1" font-size="16" >HO</text>
<text x="292.040650" y="233.570919" fill="rgb(102,102,102)"  stroke="rgb(102,102,102)" stroke-width="1" font-size="16" >CH</text>
<text x="316.040650" y="237.250919" fill="rgb(102,102,102)"  stroke="rgb(102,102,102)" stroke-width="1" font-size="13" >3</text>
<text x="243.929920" y="238.514487" fill="rgb(255,12,12)"  stroke="rgb(255,12,12)" stroke-width="1" font-size="16" >O</text>
<text x="173.198823" y="48.000000" fill="rgb(102,102,102)"  stroke="rgb(102,102,102)" stroke-width="1" font-size="16" >CH</text>
<text x="197.198823" y="51.680000" fill="rgb(102,102,102)"  stroke="rgb(102,102,102)" stroke-width="1" font-size="13" >3</text>
<text x="140.236500" y="229.785054" fill="rgb(255,12,12)"  stroke="rgb(255,12,12)" stroke-width="1" font-size="16" >O</text>
<text x="153.451889" y="90.844890" fill="rgb(12,12,255)"  stroke="rgb(12,12,255)" stroke-width="1" font-size="16" >N</text>
</svg>
</g>
<text font-size="18.000000" fill ="black" font-family="sans-serif"
x="10.000000" y="20.000000" ></text>
</svg>
