<?xml version="1.0"?>
<svg version="1.1" id="topsvg"
xmlns="http://www.w3.org/2000/svg" xmlns:xlink="http://www.w3.org/1999/xlink"
xmlns:cml="http://www.xml-cml.org/schema" x="0" y="0" width="200px" height="200px" viewBox="0 0 100 100">
<title> - Open Babel Depiction</title>
<rect x="0" y="0" width="100" height="100" fill="white"/>
<g transform="translate(0,0)">
<svg width="100" height="100" x="0" y="0" viewBox="0 0 358.206 319.159"
font-family="sans-serif" stroke="rgb(0,0,0)" stroke-width="2"  stroke-linecap="round">
<line x1="140.6" y1="266.1" x2="140.9" y2="239.1" stroke="rgb(0,0,0)"  stroke-width="2.0"/>
<line x1="146.6" y1="266.2" x2="146.9" y2="239.2" stroke="rgb(0,0,0)"  stroke-width="2.0"/>
<line x1="284.5" y1="157.7" x2="307.8" y2="171.3" stroke="rgb(0,0,0)"  stroke-width="2.0"/>
<line x1="281.5" y1="162.8" x2="304.7" y2="176.5" stroke="rgb(0,0,0)"  stroke-width="2.0"/>
<line x1="213.3" y1="239.3" x2="247.9" y2="219.7" stroke="rgb(0,0,0)"  stroke-width="2.0"/>
<line x1="247.9" y1="219.7" x2="248.2" y2="180.0" stroke="rgb(0,0,0)"  stroke-width="2.0"/>
<line x1="240.7" y1="213.6" x2="241.0" y2="185.9" stroke="rgb(0,0,0)"  stroke-width="2.0"/>
<line x1="248.2" y1="180.0" x2="213.7" y2="159.5" stroke="rgb(0,0,0)"  stroke-width="2.0"/>
<line x1="213.7" y1="159.5" x2="179.2" y2="179.1" stroke="rgb(0,0,0)"  stroke-width="2.0"/>
<line x1="212.1" y1="168.7" x2="187.9" y2="182.4" stroke="rgb(0,0,0)"  stroke-width="2.0"/>
<line x1="179.2" y1="179.1" x2="178.7" y2="219.4" stroke="rgb(0,0,0)"  stroke-width="2.0"/>
<line x1="178.7" y1="219.4" x2="213.3" y2="239.3" stroke="rgb(0,0,0)"  stroke-width="2.0"/>
<line x1="187.5" y1="216.2" x2="211.7" y2="230.1" stroke="rgb(0,0,0)"  stroke-width="2.0"/>
<line x1="40.2" y1="219.4" x2="75.2" y2="239.3" stroke="rgb(0,0,0)"  stroke-width="2.0"/>
<line x1="75.2" y1="239.3" x2="109.9" y2="219.0" stroke="rgb(0,0,0)"  stroke-width="2.0"/>
<line x1="76.7" y1="230.0" x2="101.0" y2="215.8" stroke="rgb(0,0,0)"  stroke-width="2.0"/>
<line x1="109.9" y1="219.0" x2="109.6" y2="178.8" stroke="rgb(0,0,0)"  stroke-width="2.0"/>
<line x1="109.6" y1="178.8" x2="74.7" y2="158.9" stroke="rgb(0,0,0)"  stroke-width="2.0"/>
<line x1="100.9" y1="182.0" x2="76.4" y2="168.1" stroke="rgb(0,0,0)"  stroke-width="2.0"/>
<line x1="74.7" y1="158.9" x2="40.0" y2="179.1" stroke="rgb(0,0,0)"  stroke-width="2.0"/>
<line x1="40.0" y1="179.1" x2="40.2" y2="219.4" stroke="rgb(0,0,0)"  stroke-width="2.0"/>
<line x1="47.2" y1="185.1" x2="47.4" y2="213.3" stroke="rgb(0,0,0)"  stroke-width="2.0"/>
<line x1="318.2" y1="60.2" x2="318.0" y2="100.2" stroke="rgb(0,0,0)"  stroke-width="2.0"/>
<line x1="318.0" y1="100.2" x2="283.3" y2="120.0" stroke="rgb(0,0,0)"  stroke-width="2.0"/>
<line x1="309.2" y1="96.9" x2="284.9" y2="110.8" stroke="rgb(0,0,0)"  stroke-width="2.0"/>
<line x1="283.3" y1="120.0" x2="248.7" y2="99.9" stroke="rgb(0,0,0)"  stroke-width="2.0"/>
<line x1="248.7" y1="99.9" x2="248.9" y2="59.8" stroke="rgb(0,0,0)"  stroke-width="2.0"/>
<line x1="255.9" y1="93.9" x2="256.1" y2="65.9" stroke="rgb(0,0,0)"  stroke-width="2.0"/>
<line x1="248.9" y1="59.8" x2="283.6" y2="40.0" stroke="rgb(0,0,0)"  stroke-width="2.0"/>
<line x1="283.6" y1="40.0" x2="318.2" y2="60.2" stroke="rgb(0,0,0)"  stroke-width="2.0"/>
<line x1="285.2" y1="49.2" x2="309.4" y2="63.4" stroke="rgb(0,0,0)"  stroke-width="2.0"/>
<line x1="179.2" y1="179.1" x2="144.4" y2="159.0" stroke="rgb(0,0,0)"  stroke-width="2.0"/>
<line x1="144.4" y1="159.0" x2="145.1" y2="119.1" stroke="rgb(0,0,0)"  stroke-width="2.0"/>
<line x1="151.7" y1="153.2" x2="152.2" y2="125.3" stroke="rgb(0,0,0)"  stroke-width="2.0"/>
<line x1="145.1" y1="119.1" x2="179.7" y2="99.5" stroke="rgb(0,0,0)"  stroke-width="2.0"/>
<line x1="179.7" y1="99.5" x2="213.9" y2="119.6" stroke="rgb(0,0,0)"  stroke-width="2.0"/>
<line x1="181.2" y1="108.8" x2="205.1" y2="122.8" stroke="rgb(0,0,0)"  stroke-width="2.0"/>
<line x1="213.9" y1="119.6" x2="213.7" y2="159.5" stroke="rgb(0,0,0)"  stroke-width="2.0"/>
<line x1="144.4" y1="159.0" x2="109.6" y2="178.8" stroke="rgb(0,0,0)"  stroke-width="2.0"/>
<line x1="109.9" y1="219.0" x2="143.9" y2="239.2" stroke="rgb(0,0,0)"  stroke-width="2.0"/>
<line x1="143.9" y1="239.2" x2="178.7" y2="219.4" stroke="rgb(0,0,0)"  stroke-width="2.0"/>
<line x1="283.3" y1="120.0" x2="283.0" y2="160.3" stroke="rgb(0,0,0)"  stroke-width="2.0"/>
<line x1="283.0" y1="160.3" x2="248.2" y2="180.0" stroke="rgb(0,0,0)"  stroke-width="2.0"/>
<line x1="213.9" y1="119.6" x2="248.7" y2="99.9" stroke="rgb(0,0,0)"  stroke-width="2.0"/>
<text x="311.462415" y="188.516753" fill="rgb(255,12,12)"  stroke="rgb(255,12,12)" stroke-width="1" font-size="16" >O</text>
<text x="137.522197" y="287.158632" fill="rgb(255,12,12)"  stroke="rgb(255,12,12)" stroke-width="1" font-size="16" >O</text>
</svg>
</g>
<text font-size="18.000000" fill ="black" font-family="sans-serif"
x="10.000000" y="20.000000" ></text>
</svg>
