<?xml version="1.0"?>
<svg version="1.1" id="topsvg"
xmlns="http://www.w3.org/2000/svg" xmlns:xlink="http://www.w3.org/1999/xlink"
xmlns:cml="http://www.xml-cml.org/schema" x="0" y="0" width="200px" height="200px" viewBox="0 0 100 100">
<title> - Open Babel Depiction</title>
<rect x="0" y="0" width="100" height="100" fill="white"/>
<g transform="translate(0,0)">
<svg width="100" height="100" x="0" y="0" viewBox="0 0 396.074 272.567"
font-family="sans-serif" stroke="rgb(0,0,0)" stroke-width="2"  stroke-linecap="round">
<line x1="287.4" y1="154.1" x2="312.1" y2="143.1" stroke="rgb(0,0,0)"  stroke-width="2.0"/>
<line x1="312.1" y1="143.1" x2="316.3" y2="103.3" stroke="rgb(0,0,0)"  stroke-width="2.0"/>
<line x1="316.3" y1="103.3" x2="343.1" y2="106.1" stroke="rgb(0,0,0)"  stroke-width="2.0"/>
<line x1="316.3" y1="103.3" x2="320.5" y2="63.5" stroke="rgb(0,0,0)"  stroke-width="2.0"/>
<line x1="320.5" y1="63.5" x2="298.6" y2="47.6" stroke="rgb(0,0,0)"  stroke-width="2.0"/>
<line x1="316.3" y1="103.3" x2="276.5" y2="99.1" stroke="rgb(0,0,0)"  stroke-width="2.0"/>
<line x1="213.2" y1="112.6" x2="189.8" y2="126.1" stroke="rgb(0,0,0)"  stroke-width="2.0"/>
<line x1="167.3" y1="126.1" x2="143.9" y2="112.6" stroke="rgb(0,0,0)"  stroke-width="2.0"/>
<line x1="143.9" y1="112.6" x2="109.3" y2="132.6" stroke="rgb(0,0,0)"  stroke-width="2.0"/>
<line x1="74.6" y1="112.6" x2="74.6" y2="85.6" stroke="rgb(0,0,0)"  stroke-width="2.0"/>
<line x1="63.4" y1="66.1" x2="51.3" y2="59.1" stroke="rgb(0,0,0)"  stroke-width="2.0"/>
<line x1="109.3" y1="172.6" x2="132.7" y2="186.1" stroke="rgb(0,0,0)"  stroke-width="2.0"/>
<line x1="143.9" y1="205.6" x2="143.9" y2="219.6" stroke="rgb(0,0,0)"  stroke-width="2.0"/>
<line x1="140.9" y1="112.6" x2="140.9" y2="85.6" stroke="rgb(0,0,0)"  stroke-width="2.0"/>
<line x1="146.9" y1="112.6" x2="146.9" y2="85.6" stroke="rgb(0,0,0)"  stroke-width="2.0"/>
<line x1="213.2" y1="112.6" x2="216.0" y2="85.7" stroke="rgb(0,0,0)"  stroke-width="2.0"/>
<line x1="230.1" y1="70.1" x2="243.8" y2="67.2" stroke="rgb(0,0,0)"  stroke-width="2.0"/>
<line x1="263.1" y1="75.9" x2="276.5" y2="99.1" stroke="rgb(0,0,0)"  stroke-width="2.0"/>
<line x1="257.9" y1="81.2" x2="267.3" y2="97.5" stroke="rgb(0,0,0)"  stroke-width="2.0"/>
<line x1="276.5" y1="99.1" x2="249.7" y2="128.8" stroke="rgb(0,0,0)"  stroke-width="2.0"/>
<line x1="249.7" y1="128.8" x2="213.2" y2="112.6" stroke="rgb(0,0,0)"  stroke-width="2.0"/>
<line x1="247.2" y1="119.8" x2="221.6" y2="108.4" stroke="rgb(0,0,0)"  stroke-width="2.0"/>
<line x1="40.0" y1="132.6" x2="40.0" y2="172.6" stroke="rgb(0,0,0)"  stroke-width="2.0"/>
<line x1="47.2" y1="138.6" x2="47.2" y2="166.6" stroke="rgb(0,0,0)"  stroke-width="2.0"/>
<line x1="40.0" y1="172.6" x2="74.6" y2="192.6" stroke="rgb(0,0,0)"  stroke-width="2.0"/>
<line x1="74.6" y1="192.6" x2="109.3" y2="172.6" stroke="rgb(0,0,0)"  stroke-width="2.0"/>
<line x1="76.2" y1="183.3" x2="100.5" y2="169.3" stroke="rgb(0,0,0)"  stroke-width="2.0"/>
<line x1="109.3" y1="172.6" x2="109.3" y2="132.6" stroke="rgb(0,0,0)"  stroke-width="2.0"/>
<line x1="109.3" y1="132.6" x2="74.6" y2="112.6" stroke="rgb(0,0,0)"  stroke-width="2.0"/>
<line x1="100.5" y1="135.8" x2="76.2" y2="121.8" stroke="rgb(0,0,0)"  stroke-width="2.0"/>
<line x1="74.6" y1="112.6" x2="40.0" y2="132.6" stroke="rgb(0,0,0)"  stroke-width="2.0"/>
<text x="137.923048" y="80.567475" fill="rgb(255,12,12)"  stroke="rgb(255,12,12)" stroke-width="1" font-size="16" >O</text>
<text x="139.923048" y="240.567475" fill="rgb(102,102,102)"  stroke="rgb(102,102,102)" stroke-width="1" font-size="16" >CH</text>
<text x="163.923048" y="244.247475" fill="rgb(102,102,102)"  stroke="rgb(102,102,102)" stroke-width="1" font-size="13" >3</text>
<text x="137.923048" y="200.567475" fill="rgb(255,12,12)"  stroke="rgb(255,12,12)" stroke-width="1" font-size="16" >O</text>
<text x="14.000000" y="60.567475" fill="rgb(102,102,102)"  stroke="rgb(102,102,102)" stroke-width="1" font-size="16" >H</text>
<text x="26.000000" y="64.247475" fill="rgb(102,102,102)"  stroke="rgb(102,102,102)" stroke-width="1" font-size="13" >3</text>
<text x="32.500000" y="60.567475" fill="rgb(102,102,102)"  stroke="rgb(102,102,102)" stroke-width="1" font-size="16" >C</text>
<text x="68.641016" y="80.567475" fill="rgb(255,12,12)"  stroke="rgb(255,12,12)" stroke-width="1" font-size="16" >O</text>
<text x="249.570042" y="167.342627" fill="rgb(102,102,102)"  stroke="rgb(102,102,102)" stroke-width="1" font-size="16" >H</text>
<text x="261.570042" y="171.022627" fill="rgb(102,102,102)"  stroke="rgb(102,102,102)" stroke-width="1" font-size="13" >3</text>
<text x="268.070042" y="167.342627" fill="rgb(102,102,102)"  stroke="rgb(102,102,102)" stroke-width="1" font-size="16" >C</text>
<text x="172.564065" y="140.567475" fill="rgb(12,12,255)"  stroke="rgb(12,12,255)" stroke-width="1" font-size="16" >N</text>
<text x="172.564065" y="156.567475" fill="rgb(12,12,255)"  stroke="rgb(12,12,255)" stroke-width="1" font-size="16" >H</text>
<text x="250.512123" y="72.470131" fill="rgb(12,12,255)"  stroke="rgb(12,12,255)" stroke-width="1" font-size="16" >N</text>
<text x="211.386219" y="80.786599" fill="rgb(255,12,12)"  stroke="rgb(255,12,12)" stroke-width="1" font-size="16" >O</text>
<text x="262.113458" y="48.000000" fill="rgb(102,102,102)"  stroke="rgb(102,102,102)" stroke-width="1" font-size="16" >H</text>
<text x="274.113458" y="51.680000" fill="rgb(102,102,102)"  stroke="rgb(102,102,102)" stroke-width="1" font-size="13" >3</text>
<text x="280.613458" y="48.000000" fill="rgb(102,102,102)"  stroke="rgb(102,102,102)" stroke-width="1" font-size="16" >C</text>
<text x="352.073875" y="115.473424" fill="rgb(102,102,102)"  stroke="rgb(102,102,102)" stroke-width="1" font-size="16" >CH</text>
<text x="376.073875" y="119.153424" fill="rgb(102,102,102)"  stroke="rgb(102,102,102)" stroke-width="1" font-size="13" >3</text>
</svg>
</g>
<text font-size="18.000000" fill ="black" font-family="sans-serif"
x="10.000000" y="20.000000" ></text>
</svg>
