<?xml version="1.0"?>
<svg version="1.1" id="topsvg"
xmlns="http://www.w3.org/2000/svg" xmlns:xlink="http://www.w3.org/1999/xlink"
xmlns:cml="http://www.xml-cml.org/schema" x="0" y="0" width="200px" height="200px" viewBox="0 0 100 100">
<title> - Open Babel Depiction</title>
<rect x="0" y="0" width="100" height="100" fill="white"/>
<g transform="translate(0,0)">
<svg width="100" height="100" x="0" y="0" viewBox="0 0 283.107 281.554"
font-family="sans-serif" stroke="rgb(0,0,0)" stroke-width="2"  stroke-linecap="round">
<line x1="106.9" y1="53.0" x2="106.9" y2="80.0" stroke="rgb(0,0,0)"  stroke-width="2.0"/>
<line x1="106.9" y1="80.0" x2="130.3" y2="93.5" stroke="rgb(0,0,0)"  stroke-width="2.0"/>
<line x1="144.6" y1="113.0" x2="144.6" y2="127.0" stroke="rgb(0,0,0)"  stroke-width="2.0"/>
<line x1="138.6" y1="113.0" x2="138.6" y2="127.0" stroke="rgb(0,0,0)"  stroke-width="2.0"/>
<line x1="154.6" y1="140.0" x2="168.6" y2="140.0" stroke="rgb(0,0,0)"  stroke-width="2.0"/>
<line x1="141.6" y1="153.0" x2="141.6" y2="167.0" stroke="rgb(0,0,0)"  stroke-width="2.0"/>
<line x1="128.6" y1="140.0" x2="114.6" y2="140.0" stroke="rgb(0,0,0)"  stroke-width="2.0"/>
<line x1="243.1" y1="160.0" x2="243.1" y2="120.0" stroke="rgb(0,0,0)"  stroke-width="2.0"/>
<line x1="243.1" y1="120.0" x2="205.1" y2="107.6" stroke="rgb(0,0,0)"  stroke-width="2.0"/>
<line x1="205.1" y1="107.6" x2="189.2" y2="129.5" stroke="rgb(0,0,0)"  stroke-width="2.0"/>
<line x1="189.2" y1="150.5" x2="205.1" y2="172.4" stroke="rgb(0,0,0)"  stroke-width="2.0"/>
<line x1="205.1" y1="172.4" x2="243.1" y2="160.0" stroke="rgb(0,0,0)"  stroke-width="2.0"/>
<line x1="121.6" y1="241.6" x2="161.6" y2="241.6" stroke="rgb(0,0,0)"  stroke-width="2.0"/>
<line x1="161.6" y1="241.6" x2="173.9" y2="203.5" stroke="rgb(0,0,0)"  stroke-width="2.0"/>
<line x1="173.9" y1="203.5" x2="152.1" y2="187.6" stroke="rgb(0,0,0)"  stroke-width="2.0"/>
<line x1="131.0" y1="187.6" x2="109.2" y2="203.5" stroke="rgb(0,0,0)"  stroke-width="2.0"/>
<line x1="109.2" y1="203.5" x2="121.6" y2="241.6" stroke="rgb(0,0,0)"  stroke-width="2.0"/>
<line x1="40.0" y1="120.0" x2="40.0" y2="160.0" stroke="rgb(0,0,0)"  stroke-width="2.0"/>
<line x1="40.0" y1="160.0" x2="78.0" y2="172.4" stroke="rgb(0,0,0)"  stroke-width="2.0"/>
<line x1="78.0" y1="172.4" x2="93.9" y2="150.5" stroke="rgb(0,0,0)"  stroke-width="2.0"/>
<line x1="93.9" y1="129.5" x2="78.0" y2="107.6" stroke="rgb(0,0,0)"  stroke-width="2.0"/>
<line x1="78.0" y1="107.6" x2="40.0" y2="120.0" stroke="rgb(0,0,0)"  stroke-width="2.0"/>
<text x="135.553671" y="188.000000" fill="rgb(12,12,255)"  stroke="rgb(12,12,255)" stroke-width="1" font-size="16" >N</text>
<text x="95.553671" y="148.000000" fill="rgb(12,12,255)"  stroke="rgb(12,12,255)" stroke-width="1" font-size="16" >N</text>
<text x="102.912655" y="48.000000" fill="rgb(102,102,102)"  stroke="rgb(102,102,102)" stroke-width="1" font-size="16" >CH</text>
<text x="126.912655" y="51.680000" fill="rgb(102,102,102)"  stroke="rgb(102,102,102)" stroke-width="1" font-size="13" >3</text>
<text x="175.553671" y="148.000000" fill="rgb(12,12,255)"  stroke="rgb(12,12,255)" stroke-width="1" font-size="16" >N</text>
<text x="135.553671" y="148.000000" fill="rgb(255,127,0)"  stroke="rgb(255,127,0)" stroke-width="1" font-size="16" >P</text>
<text x="135.553671" y="108.000000" fill="rgb(12,12,255)"  stroke="rgb(12,12,255)" stroke-width="1" font-size="16" >N</text>
</svg>
</g>
<text font-size="18.000000" fill ="black" font-family="sans-serif"
x="10.000000" y="20.000000" ></text>
</svg>
