<?xml version="1.0"?>
<svg version="1.1" id="topsvg"
xmlns="http://www.w3.org/2000/svg" xmlns:xlink="http://www.w3.org/1999/xlink"
xmlns:cml="http://www.xml-cml.org/schema" x="0" y="0" width="200px" height="200px" viewBox="0 0 100 100">
<title> - Open Babel Depiction</title>
<rect x="0" y="0" width="100" height="100" fill="white"/>
<g transform="translate(0,0)">
<svg width="100" height="100" x="0" y="0" viewBox="0 0 245.477 200"
font-family="sans-serif" stroke="rgb(0,0,0)" stroke-width="2"  stroke-linecap="round">
<line x1="195.7" y1="49.1" x2="172.3" y2="62.6" stroke="rgb(0,0,0)"  stroke-width="2.0"/>
<line x1="192.7" y1="43.9" x2="169.3" y2="57.4" stroke="rgb(0,0,0)"  stroke-width="2.0"/>
<line x1="139.2" y1="120.0" x2="139.2" y2="147.0" stroke="rgb(0,0,0)"  stroke-width="2.0"/>
<line x1="133.2" y1="120.0" x2="133.2" y2="147.0" stroke="rgb(0,0,0)"  stroke-width="2.0"/>
<line x1="40.0" y1="80.0" x2="55.9" y2="101.8" stroke="rgb(0,0,0)"  stroke-width="2.0"/>
<line x1="75.9" y1="108.3" x2="101.6" y2="100.0" stroke="rgb(0,0,0)"  stroke-width="2.0"/>
<line x1="101.6" y1="100.0" x2="101.6" y2="60.0" stroke="rgb(0,0,0)"  stroke-width="2.0"/>
<line x1="94.4" y1="94.0" x2="94.4" y2="66.0" stroke="rgb(0,0,0)"  stroke-width="2.0"/>
<line x1="101.6" y1="60.0" x2="75.9" y2="51.7" stroke="rgb(0,0,0)"  stroke-width="2.0"/>
<line x1="55.8" y1="58.3" x2="40.0" y2="80.0" stroke="rgb(0,0,0)"  stroke-width="2.0"/>
<line x1="60.4" y1="64.2" x2="49.4" y2="79.4" stroke="rgb(0,0,0)"  stroke-width="2.0"/>
<line x1="101.6" y1="100.0" x2="136.2" y2="120.0" stroke="rgb(0,0,0)"  stroke-width="2.0"/>
<line x1="136.2" y1="120.0" x2="159.6" y2="106.5" stroke="rgb(0,0,0)"  stroke-width="2.0"/>
<line x1="170.8" y1="87.0" x2="170.8" y2="60.0" stroke="rgb(0,0,0)"  stroke-width="2.0"/>
<line x1="170.8" y1="60.0" x2="147.5" y2="46.5" stroke="rgb(0,0,0)"  stroke-width="2.0"/>
<line x1="124.9" y1="46.5" x2="101.6" y2="60.0" stroke="rgb(0,0,0)"  stroke-width="2.0"/>
<text x="199.476719" y="48.000000" fill="rgb(255,12,12)"  stroke="rgb(255,12,12)" stroke-width="1" font-size="16" >O</text>
<text x="130.194687" y="48.000000" fill="rgb(12,12,255)"  stroke="rgb(12,12,255)" stroke-width="1" font-size="16" >N</text>
<text x="130.194687" y="32.000000" fill="rgb(12,12,255)"  stroke="rgb(12,12,255)" stroke-width="1" font-size="16" >H</text>
<text x="57.511410" y="120.360680" fill="rgb(12,12,255)"  stroke="rgb(12,12,255)" stroke-width="1" font-size="16" >N</text>
<text x="57.511410" y="136.360680" fill="rgb(12,12,255)"  stroke="rgb(12,12,255)" stroke-width="1" font-size="16" >H</text>
<text x="57.511410" y="55.639320" fill="rgb(12,12,255)"  stroke="rgb(12,12,255)" stroke-width="1" font-size="16" >N</text>
<text x="130.194687" y="168.000000" fill="rgb(255,12,12)"  stroke="rgb(255,12,12)" stroke-width="1" font-size="16" >O</text>
<text x="164.835703" y="108.000000" fill="rgb(12,12,255)"  stroke="rgb(12,12,255)" stroke-width="1" font-size="16" >NH</text>
</svg>
</g>
<text font-size="18.000000" fill ="black" font-family="sans-serif"
x="10.000000" y="20.000000" ></text>
</svg>
