<?xml version="1.0"?>
<svg version="1.1" id="topsvg"
xmlns="http://www.w3.org/2000/svg" xmlns:xlink="http://www.w3.org/1999/xlink"
xmlns:cml="http://www.xml-cml.org/schema" x="0" y="0" width="200px" height="200px" viewBox="0 0 100 100">
<title> - Open Babel Depiction</title>
<rect x="0" y="0" width="100" height="100" fill="white"/>
<g transform="translate(0,0)">
<svg width="100" height="100" x="0" y="0" viewBox="0 0 261.682 213.914"
font-family="sans-serif" stroke="rgb(0,0,0)" stroke-width="2"  stroke-linecap="round">
<line x1="175.1" y1="143.7" x2="180.7" y2="117.3" stroke="rgb(0,0,0)"  stroke-width="2.0"/>
<line x1="181.0" y1="144.9" x2="186.6" y2="118.5" stroke="rgb(0,0,0)"  stroke-width="2.0"/>
<line x1="183.6" y1="117.9" x2="209.3" y2="109.6" stroke="rgb(0,0,0)"  stroke-width="2.0"/>
<line x1="183.6" y1="117.9" x2="163.6" y2="99.8" stroke="rgb(0,0,0)"  stroke-width="2.0"/>
<line x1="141.6" y1="95.2" x2="115.9" y2="103.5" stroke="rgb(0,0,0)"  stroke-width="2.0"/>
<line x1="65.9" y1="143.3" x2="50.1" y2="165.2" stroke="rgb(0,0,0)"  stroke-width="2.0"/>
<line x1="61.1" y1="139.8" x2="45.2" y2="161.6" stroke="rgb(0,0,0)"  stroke-width="2.0"/>
<line x1="80.5" y1="80.0" x2="80.5" y2="53.0" stroke="rgb(0,0,0)"  stroke-width="2.0"/>
<line x1="86.5" y1="80.0" x2="86.5" y2="53.0" stroke="rgb(0,0,0)"  stroke-width="2.0"/>
<line x1="63.5" y1="141.6" x2="55.2" y2="115.9" stroke="rgb(0,0,0)"  stroke-width="2.0"/>
<line x1="61.7" y1="95.9" x2="83.5" y2="80.0" stroke="rgb(0,0,0)"  stroke-width="2.0"/>
<line x1="83.5" y1="80.0" x2="115.9" y2="103.5" stroke="rgb(0,0,0)"  stroke-width="2.0"/>
<line x1="115.9" y1="103.5" x2="107.5" y2="129.2" stroke="rgb(0,0,0)"  stroke-width="2.0"/>
<line x1="90.5" y1="141.6" x2="63.5" y2="141.6" stroke="rgb(0,0,0)"  stroke-width="2.0"/>
<text x="169.323676" y="165.041859" fill="rgb(255,12,12)"  stroke="rgb(255,12,12)" stroke-width="1" font-size="16" >O</text>
<text x="217.682404" y="113.555275" fill="rgb(12,12,255)"  stroke="rgb(12,12,255)" stroke-width="1" font-size="16" >NH</text>
<text x="241.682404" y="117.235275" fill="rgb(12,12,255)"  stroke="rgb(12,12,255)" stroke-width="1" font-size="13" >2</text>
<text x="147.914351" y="99.150730" fill="rgb(12,12,255)"  stroke="rgb(12,12,255)" stroke-width="1" font-size="16" >N</text>
<text x="147.914351" y="83.150730" fill="rgb(12,12,255)"  stroke="rgb(12,12,255)" stroke-width="1" font-size="16" >H</text>
<text x="97.511410" y="149.553671" fill="rgb(12,12,255)"  stroke="rgb(12,12,255)" stroke-width="1" font-size="16" >N</text>
<text x="97.511410" y="165.553671" fill="rgb(12,12,255)"  stroke="rgb(12,12,255)" stroke-width="1" font-size="16" >H</text>
<text x="34.000000" y="181.914351" fill="rgb(255,12,12)"  stroke="rgb(255,12,12)" stroke-width="1" font-size="16" >O</text>
<text x="33.150730" y="111.511410" fill="rgb(12,12,255)"  stroke="rgb(12,12,255)" stroke-width="1" font-size="16" >HN</text>
<text x="77.511410" y="48.000000" fill="rgb(255,12,12)"  stroke="rgb(255,12,12)" stroke-width="1" font-size="16" >O</text>
</svg>
</g>
<text font-size="18.000000" fill ="black" font-family="sans-serif"
x="10.000000" y="20.000000" ></text>
</svg>
