<?xml version="1.0"?>
<svg version="1.1" id="topsvg"
xmlns="http://www.w3.org/2000/svg" xmlns:xlink="http://www.w3.org/1999/xlink"
xmlns:cml="http://www.xml-cml.org/schema" x="0" y="0" width="200px" height="200px" viewBox="0 0 100 100">
<title> - Open Babel Depiction</title>
<rect x="0" y="0" width="100" height="100" fill="white"/>
<g transform="translate(0,0)">
<svg width="100" height="100" x="0" y="0" viewBox="0 0 322.487 263.307"
font-family="sans-serif" stroke="rgb(0,0,0)" stroke-width="2"  stroke-linecap="round">
<line x1="146.9" y1="116.3" x2="146.9" y2="143.3" stroke="rgb(0,0,0)"  stroke-width="2.0"/>
<line x1="140.9" y1="116.3" x2="140.9" y2="143.3" stroke="rgb(0,0,0)"  stroke-width="2.0"/>
<line x1="143.9" y1="143.3" x2="120.5" y2="156.8" stroke="rgb(0,0,0)"  stroke-width="2.0"/>
<line x1="143.9" y1="143.3" x2="178.6" y2="163.3" stroke="rgb(0,0,0)"  stroke-width="2.0"/>
<line x1="181.6" y1="163.3" x2="175.6" y2="203.3" stroke="rgb(0,0,0)"  stroke-width="2.0"/>
<line x1="175.6" y1="163.3" x2="181.6" y2="203.3" stroke="rgb(0,0,0)"  stroke-width="2.0"/>
<line x1="178.6" y1="203.3" x2="213.2" y2="223.3" stroke="rgb(0,0,0)"  stroke-width="2.0"/>
<line x1="211.7" y1="220.7" x2="249.3" y2="205.9" stroke="rgb(0,0,0)"  stroke-width="2.0"/>
<line x1="214.7" y1="225.9" x2="246.3" y2="200.7" stroke="rgb(0,0,0)"  stroke-width="2.0"/>
<line x1="247.8" y1="203.3" x2="247.8" y2="163.3" stroke="rgb(0,0,0)"  stroke-width="2.0"/>
<line x1="213.2" y1="103.3" x2="247.8" y2="83.3" stroke="rgb(0,0,0)"  stroke-width="2.0"/>
<line x1="222.0" y1="106.5" x2="246.2" y2="92.5" stroke="rgb(0,0,0)"  stroke-width="2.0"/>
<line x1="247.8" y1="83.3" x2="282.5" y2="103.3" stroke="rgb(0,0,0)"  stroke-width="2.0"/>
<line x1="282.5" y1="103.3" x2="282.5" y2="143.3" stroke="rgb(0,0,0)"  stroke-width="2.0"/>
<line x1="275.3" y1="109.3" x2="275.3" y2="137.3" stroke="rgb(0,0,0)"  stroke-width="2.0"/>
<line x1="282.5" y1="143.3" x2="247.8" y2="163.3" stroke="rgb(0,0,0)"  stroke-width="2.0"/>
<line x1="247.8" y1="163.3" x2="213.2" y2="143.3" stroke="rgb(0,0,0)"  stroke-width="2.0"/>
<line x1="246.2" y1="154.1" x2="222.0" y2="140.1" stroke="rgb(0,0,0)"  stroke-width="2.0"/>
<line x1="213.2" y1="143.3" x2="213.2" y2="103.3" stroke="rgb(0,0,0)"  stroke-width="2.0"/>
<line x1="199.7" y1="40.0" x2="226.6" y2="42.8" stroke="rgb(0,0,0)"  stroke-width="2.0"/>
<line x1="242.2" y1="56.9" x2="247.8" y2="83.3" stroke="rgb(0,0,0)"  stroke-width="2.0"/>
<line x1="213.2" y1="103.3" x2="193.1" y2="85.2" stroke="rgb(0,0,0)"  stroke-width="2.0"/>
<line x1="188.8" y1="64.7" x2="199.7" y2="40.0" stroke="rgb(0,0,0)"  stroke-width="2.0"/>
<line x1="74.6" y1="223.3" x2="40.0" y2="203.3" stroke="rgb(0,0,0)"  stroke-width="2.0"/>
<line x1="40.0" y1="203.3" x2="40.0" y2="163.3" stroke="rgb(0,0,0)"  stroke-width="2.0"/>
<line x1="40.0" y1="163.3" x2="74.6" y2="143.3" stroke="rgb(0,0,0)"  stroke-width="2.0"/>
<line x1="74.6" y1="143.3" x2="98.0" y2="156.8" stroke="rgb(0,0,0)"  stroke-width="2.0"/>
<line x1="109.3" y1="176.3" x2="109.3" y2="203.3" stroke="rgb(0,0,0)"  stroke-width="2.0"/>
<line x1="109.3" y1="203.3" x2="74.6" y2="223.3" stroke="rgb(0,0,0)"  stroke-width="2.0"/>
<text x="233.529629" y="52.181139" fill="rgb(255,12,12)"  stroke="rgb(255,12,12)" stroke-width="1" font-size="16" >O</text>
<text x="177.479288" y="84.541818" fill="rgb(255,12,12)"  stroke="rgb(255,12,12)" stroke-width="1" font-size="16" >O</text>
<text x="137.923048" y="111.307043" fill="rgb(255,12,12)"  stroke="rgb(255,12,12)" stroke-width="1" font-size="16" >O</text>
<text x="103.282032" y="171.307043" fill="rgb(12,12,255)"  stroke="rgb(12,12,255)" stroke-width="1" font-size="16" >N</text>
</svg>
</g>
<text font-size="18.000000" fill ="black" font-family="sans-serif"
x="10.000000" y="20.000000" ></text>
</svg>
