<?xml version="1.0"?>
<svg version="1.1" id="topsvg"
xmlns="http://www.w3.org/2000/svg" xmlns:xlink="http://www.w3.org/1999/xlink"
xmlns:cml="http://www.xml-cml.org/schema" x="0" y="0" width="200px" height="200px" viewBox="0 0 100 100">
<title> - Open Babel Depiction</title>
<rect x="0" y="0" width="100" height="100" fill="white"/>
<g transform="translate(0,0)">
<svg width="100" height="100" x="0" y="0" viewBox="0 0 316.512 248.097"
font-family="sans-serif" stroke="rgb(0,0,0)" stroke-width="2"  stroke-linecap="round">
<line x1="74.6" y1="195.1" x2="74.6" y2="168.1" stroke="rgb(0,0,0)"  stroke-width="2.0"/>
<line x1="140.9" y1="88.1" x2="140.9" y2="61.1" stroke="rgb(0,0,0)"  stroke-width="2.0"/>
<line x1="146.9" y1="88.1" x2="146.9" y2="61.1" stroke="rgb(0,0,0)"  stroke-width="2.0"/>
<line x1="178.6" y1="108.1" x2="213.2" y2="88.1" stroke="rgb(0,0,0)"  stroke-width="2.0"/>
<line x1="263.0" y1="51.3" x2="270.0" y2="63.4" stroke="rgb(0,0,0)"  stroke-width="2.0"/>
<line x1="267.7" y1="84.5" x2="258.6" y2="94.6" stroke="rgb(0,0,0)"  stroke-width="2.0"/>
<line x1="261.0" y1="81.1" x2="254.6" y2="88.3" stroke="rgb(0,0,0)"  stroke-width="2.0"/>
<line x1="237.9" y1="99.1" x2="213.2" y2="88.1" stroke="rgb(0,0,0)"  stroke-width="2.0"/>
<line x1="213.2" y1="88.1" x2="216.0" y2="61.4" stroke="rgb(0,0,0)"  stroke-width="2.0"/>
<line x1="221.0" y1="82.9" x2="223.0" y2="64.2" stroke="rgb(0,0,0)"  stroke-width="2.0"/>
<line x1="230.1" y1="45.6" x2="243.8" y2="42.7" stroke="rgb(0,0,0)"  stroke-width="2.0"/>
<line x1="40.0" y1="108.1" x2="74.6" y2="88.1" stroke="rgb(0,0,0)"  stroke-width="2.0"/>
<line x1="48.8" y1="111.3" x2="73.0" y2="97.3" stroke="rgb(0,0,0)"  stroke-width="2.0"/>
<line x1="74.6" y1="88.1" x2="98.0" y2="101.6" stroke="rgb(0,0,0)"  stroke-width="2.0"/>
<line x1="109.3" y1="121.1" x2="109.3" y2="148.1" stroke="rgb(0,0,0)"  stroke-width="2.0"/>
<line x1="109.3" y1="148.1" x2="74.6" y2="168.1" stroke="rgb(0,0,0)"  stroke-width="2.0"/>
<line x1="74.6" y1="168.1" x2="40.0" y2="148.1" stroke="rgb(0,0,0)"  stroke-width="2.0"/>
<line x1="73.0" y1="158.9" x2="48.8" y2="144.9" stroke="rgb(0,0,0)"  stroke-width="2.0"/>
<line x1="40.0" y1="148.1" x2="40.0" y2="108.1" stroke="rgb(0,0,0)"  stroke-width="2.0"/>
<line x1="178.6" y1="148.1" x2="155.2" y2="161.6" stroke="rgb(0,0,0)"  stroke-width="2.0"/>
<line x1="132.5" y1="161.5" x2="109.3" y2="148.1" stroke="rgb(0,0,0)"  stroke-width="2.0"/>
<line x1="134.4" y1="154.3" x2="118.1" y2="144.9" stroke="rgb(0,0,0)"  stroke-width="2.0"/>
<line x1="120.5" y1="101.6" x2="143.9" y2="88.1" stroke="rgb(0,0,0)"  stroke-width="2.0"/>
<line x1="143.9" y1="88.1" x2="178.6" y2="108.1" stroke="rgb(0,0,0)"  stroke-width="2.0"/>
<line x1="178.6" y1="108.1" x2="178.6" y2="148.1" stroke="rgb(0,0,0)"  stroke-width="2.0"/>
<line x1="171.4" y1="114.1" x2="171.4" y2="142.1" stroke="rgb(0,0,0)"  stroke-width="2.0"/>
<text x="243.746899" y="112.366809" fill="rgb(12,12,255)"  stroke="rgb(12,12,255)" stroke-width="1" font-size="16" >N</text>
<text x="270.512123" y="82.641016" fill="rgb(12,12,255)"  stroke="rgb(12,12,255)" stroke-width="1" font-size="16" >N</text>
<text x="250.512123" y="48.000000" fill="rgb(12,12,255)"  stroke="rgb(12,12,255)" stroke-width="1" font-size="16" >N</text>
<text x="250.512123" y="32.000000" fill="rgb(12,12,255)"  stroke="rgb(12,12,255)" stroke-width="1" font-size="16" >H</text>
<text x="211.386219" y="56.316468" fill="rgb(12,12,255)"  stroke="rgb(12,12,255)" stroke-width="1" font-size="16" >N</text>
<text x="137.923048" y="176.097343" fill="rgb(12,12,255)"  stroke="rgb(12,12,255)" stroke-width="1" font-size="16" >N</text>
<text x="70.641016" y="216.097343" fill="rgb(102,102,102)"  stroke="rgb(102,102,102)" stroke-width="1" font-size="16" >CH</text>
<text x="94.641016" y="219.777343" fill="rgb(102,102,102)"  stroke="rgb(102,102,102)" stroke-width="1" font-size="13" >3</text>
<text x="137.923048" y="56.097343" fill="rgb(255,12,12)"  stroke="rgb(255,12,12)" stroke-width="1" font-size="16" >O</text>
<text x="103.282032" y="116.097343" fill="rgb(12,12,255)"  stroke="rgb(12,12,255)" stroke-width="1" font-size="16" >N</text>
</svg>
</g>
<text font-size="18.000000" fill ="black" font-family="sans-serif"
x="10.000000" y="20.000000" ></text>
</svg>
