<?xml version="1.0"?>
<svg version="1.1" id="topsvg"
xmlns="http://www.w3.org/2000/svg" xmlns:xlink="http://www.w3.org/1999/xlink"
xmlns:cml="http://www.xml-cml.org/schema" x="0" y="0" width="200px" height="200px" viewBox="0 0 100 100">
<title> - Open Babel Depiction</title>
<rect x="0" y="0" width="100" height="100" fill="white"/>
<g transform="translate(0,0)">
<svg width="100" height="100" x="0" y="0" viewBox="0 0 200 180"
font-family="sans-serif" stroke="rgb(0,0,0)" stroke-width="2"  stroke-linecap="round">
<line x1="53.0" y1="100.0" x2="80.0" y2="100.0" stroke="rgb(0,0,0)"  stroke-width="2.0"/>
<line x1="80.0" y1="100.0" x2="80.0" y2="127.0" stroke="rgb(0,0,0)"  stroke-width="2.0"/>
<line x1="80.0" y1="100.0" x2="107.0" y2="100.0" stroke="rgb(0,0,0)"  stroke-width="2.0"/>
<line x1="120.0" y1="113.0" x2="120.0" y2="127.0" stroke="rgb(0,0,0)"  stroke-width="2.0"/>
<line x1="133.0" y1="100.0" x2="147.0" y2="100.0" stroke="rgb(0,0,0)"  stroke-width="2.0"/>
<line x1="120.0" y1="87.0" x2="120.0" y2="73.0" stroke="rgb(0,0,0)"  stroke-width="2.0"/>
<line x1="80.0" y1="100.0" x2="80.0" y2="60.0" stroke="rgb(0,0,0)"  stroke-width="2.0"/>
<line x1="80.0" y1="60.0" x2="103.4" y2="46.5" stroke="rgb(0,0,0)"  stroke-width="2.0"/>
<line x1="78.5" y1="62.6" x2="55.1" y2="49.1" stroke="rgb(0,0,0)"  stroke-width="2.0"/>
<line x1="81.5" y1="57.4" x2="58.1" y2="43.9" stroke="rgb(0,0,0)"  stroke-width="2.0"/>
<text x="14.000000" y="108.000000" fill="rgb(102,102,102)"  stroke="rgb(102,102,102)" stroke-width="1" font-size="16" >H</text>
<text x="26.000000" y="111.680000" fill="rgb(102,102,102)"  stroke="rgb(102,102,102)" stroke-width="1" font-size="13" >3</text>
<text x="32.500000" y="108.000000" fill="rgb(102,102,102)"  stroke="rgb(102,102,102)" stroke-width="1" font-size="16" >C</text>
<text x="76.000000" y="148.000000" fill="rgb(102,102,102)"  stroke="rgb(102,102,102)" stroke-width="1" font-size="16" >CH</text>
<text x="100.000000" y="151.680000" fill="rgb(102,102,102)"  stroke="rgb(102,102,102)" stroke-width="1" font-size="13" >3</text>
<text x="123.900000" y="96.724000" fill="rgb(12,12,255)"  stroke="rgb(12,12,255)" stroke-width="1" font-size="13" >+</text>
<text x="114.000000" y="108.000000" fill="rgb(12,12,255)"  stroke="rgb(12,12,255)" stroke-width="1" font-size="16" >N</text>
<text x="114.000000" y="148.000000" fill="rgb(191,191,191)"  stroke="rgb(191,191,191)" stroke-width="1" font-size="16" >H</text>
<text x="154.000000" y="108.000000" fill="rgb(191,191,191)"  stroke="rgb(191,191,191)" stroke-width="1" font-size="16" >H</text>
<text x="114.000000" y="68.000000" fill="rgb(191,191,191)"  stroke="rgb(191,191,191)" stroke-width="1" font-size="16" >H</text>
<text x="119.441016" y="25.888000" fill="rgb(255,12,12)"  stroke="rgb(255,12,12)" stroke-width="1" font-size="16" >_</text>
<text x="108.641016" y="48.000000" fill="rgb(255,12,12)"  stroke="rgb(255,12,12)" stroke-width="1" font-size="16" >O</text>
<text x="39.358984" y="48.000000" fill="rgb(255,12,12)"  stroke="rgb(255,12,12)" stroke-width="1" font-size="16" >O</text>
</svg>
</g>
<text font-size="18.000000" fill ="black" font-family="sans-serif"
x="10.000000" y="20.000000" ></text>
</svg>
