<?xml version="1.0"?>
<svg version="1.1" id="topsvg"
xmlns="http://www.w3.org/2000/svg" xmlns:xlink="http://www.w3.org/1999/xlink"
xmlns:cml="http://www.xml-cml.org/schema" x="0" y="0" width="200px" height="200px" viewBox="0 0 100 100">
<title> - Open Babel Depiction</title>
<rect x="0" y="0" width="100" height="100" fill="white"/>
<g transform="translate(0,0)">
<svg width="100" height="100" x="0" y="0" viewBox="0 0 562.487 423.923"
font-family="sans-serif" stroke="rgb(0,0,0)" stroke-width="2"  stroke-linecap="round">
<line x1="516.0" y1="63.4" x2="502.5" y2="40.0" stroke="rgb(0,0,0)"  stroke-width="2.0"/>
<line x1="502.5" y1="40.0" x2="462.5" y2="40.0" stroke="rgb(0,0,0)"  stroke-width="2.0"/>
<line x1="462.5" y1="40.0" x2="442.5" y2="74.6" stroke="rgb(0,0,0)"  stroke-width="2.0"/>
<line x1="442.5" y1="74.6" x2="402.5" y2="74.6" stroke="rgb(0,0,0)"  stroke-width="2.0"/>
<line x1="402.5" y1="74.6" x2="382.5" y2="109.3" stroke="rgb(0,0,0)"  stroke-width="2.0"/>
<line x1="382.5" y1="109.3" x2="355.5" y2="109.3" stroke="rgb(0,0,0)"  stroke-width="2.0"/>
<line x1="336.0" y1="120.5" x2="322.5" y2="143.9" stroke="rgb(0,0,0)"  stroke-width="2.0"/>
<line x1="322.5" y1="143.9" x2="282.5" y2="143.9" stroke="rgb(0,0,0)"  stroke-width="2.0"/>
<line x1="282.5" y1="143.9" x2="282.5" y2="103.9" stroke="rgb(0,0,0)"  stroke-width="2.0"/>
<line x1="282.5" y1="103.9" x2="259.1" y2="90.4" stroke="rgb(0,0,0)"  stroke-width="2.0"/>
<line x1="236.6" y1="90.4" x2="213.2" y2="103.9" stroke="rgb(0,0,0)"  stroke-width="2.0"/>
<line x1="213.2" y1="103.9" x2="178.6" y2="83.9" stroke="rgb(0,0,0)"  stroke-width="2.0"/>
<line x1="178.6" y1="83.9" x2="143.9" y2="103.9" stroke="rgb(0,0,0)"  stroke-width="2.0"/>
<line x1="143.9" y1="103.9" x2="109.3" y2="83.9" stroke="rgb(0,0,0)"  stroke-width="2.0"/>
<line x1="109.3" y1="83.9" x2="74.6" y2="103.9" stroke="rgb(0,0,0)"  stroke-width="2.0"/>
<line x1="74.6" y1="103.9" x2="51.3" y2="90.4" stroke="rgb(0,0,0)"  stroke-width="2.0"/>
<line x1="216.2" y1="103.9" x2="216.2" y2="130.9" stroke="rgb(0,0,0)"  stroke-width="2.0"/>
<line x1="210.2" y1="103.9" x2="210.2" y2="130.9" stroke="rgb(0,0,0)"  stroke-width="2.0"/>
<line x1="282.5" y1="143.9" x2="242.5" y2="143.9" stroke="rgb(0,0,0)"  stroke-width="2.0"/>
<line x1="242.5" y1="143.9" x2="229.0" y2="167.3" stroke="rgb(0,0,0)"  stroke-width="2.0"/>
<line x1="209.5" y1="178.6" x2="182.5" y2="178.6" stroke="rgb(0,0,0)"  stroke-width="2.0"/>
<line x1="182.5" y1="178.6" x2="162.5" y2="143.9" stroke="rgb(0,0,0)"  stroke-width="2.0"/>
<line x1="162.5" y1="143.9" x2="122.5" y2="143.9" stroke="rgb(0,0,0)"  stroke-width="2.0"/>
<line x1="122.5" y1="143.9" x2="102.5" y2="178.6" stroke="rgb(0,0,0)"  stroke-width="2.0"/>
<line x1="102.5" y1="178.6" x2="62.5" y2="178.6" stroke="rgb(0,0,0)"  stroke-width="2.0"/>
<line x1="62.5" y1="178.6" x2="49.0" y2="201.9" stroke="rgb(0,0,0)"  stroke-width="2.0"/>
<line x1="185.1" y1="180.1" x2="171.6" y2="203.4" stroke="rgb(0,0,0)"  stroke-width="2.0"/>
<line x1="179.9" y1="177.1" x2="166.4" y2="200.4" stroke="rgb(0,0,0)"  stroke-width="2.0"/>
<line x1="282.5" y1="143.9" x2="282.5" y2="183.9" stroke="rgb(0,0,0)"  stroke-width="2.0"/>
<line x1="282.5" y1="183.9" x2="259.1" y2="197.4" stroke="rgb(0,0,0)"  stroke-width="2.0"/>
<line x1="247.8" y1="216.9" x2="247.8" y2="243.9" stroke="rgb(0,0,0)"  stroke-width="2.0"/>
<line x1="247.8" y1="243.9" x2="213.2" y2="263.9" stroke="rgb(0,0,0)"  stroke-width="2.0"/>
<line x1="213.2" y1="263.9" x2="213.2" y2="303.9" stroke="rgb(0,0,0)"  stroke-width="2.0"/>
<line x1="213.2" y1="303.9" x2="178.6" y2="323.9" stroke="rgb(0,0,0)"  stroke-width="2.0"/>
<line x1="178.6" y1="323.9" x2="178.6" y2="363.9" stroke="rgb(0,0,0)"  stroke-width="2.0"/>
<line x1="178.6" y1="363.9" x2="155.2" y2="377.4" stroke="rgb(0,0,0)"  stroke-width="2.0"/>
<line x1="249.3" y1="241.3" x2="272.7" y2="254.8" stroke="rgb(0,0,0)"  stroke-width="2.0"/>
<line x1="246.3" y1="246.5" x2="269.7" y2="260.0" stroke="rgb(0,0,0)"  stroke-width="2.0"/>
<line x1="385.1" y1="107.8" x2="398.6" y2="131.2" stroke="rgb(0,0,0)"  stroke-width="2.0"/>
<line x1="379.9" y1="110.8" x2="393.4" y2="134.2" stroke="rgb(0,0,0)"  stroke-width="2.0"/>
<text x="241.846097" y="211.923048" fill="rgb(255,12,12)"  stroke="rgb(255,12,12)" stroke-width="1" font-size="16" >O</text>
<text x="216.487113" y="186.564065" fill="rgb(255,12,12)"  stroke="rgb(255,12,12)" stroke-width="1" font-size="16" >O</text>
<text x="16.487113" y="221.205081" fill="rgb(102,102,102)"  stroke="rgb(102,102,102)" stroke-width="1" font-size="16" >H</text>
<text x="28.487113" y="224.885081" fill="rgb(102,102,102)"  stroke="rgb(102,102,102)" stroke-width="1" font-size="13" >3</text>
<text x="34.987113" y="221.205081" fill="rgb(102,102,102)"  stroke="rgb(102,102,102)" stroke-width="1" font-size="16" >C</text>
<text x="156.487113" y="221.205081" fill="rgb(255,12,12)"  stroke="rgb(255,12,12)" stroke-width="1" font-size="16" >O</text>
<text x="117.923048" y="391.923048" fill="rgb(102,102,102)"  stroke="rgb(102,102,102)" stroke-width="1" font-size="16" >H</text>
<text x="129.923048" y="395.603048" fill="rgb(102,102,102)"  stroke="rgb(102,102,102)" stroke-width="1" font-size="13" >3</text>
<text x="136.423048" y="391.923048" fill="rgb(102,102,102)"  stroke="rgb(102,102,102)" stroke-width="1" font-size="16" >C</text>
<text x="276.487113" y="271.923048" fill="rgb(255,12,12)"  stroke="rgb(255,12,12)" stroke-width="1" font-size="16" >O</text>
<text x="396.487113" y="151.923048" fill="rgb(255,12,12)"  stroke="rgb(255,12,12)" stroke-width="1" font-size="16" >O</text>
<text x="336.487113" y="117.282032" fill="rgb(255,12,12)"  stroke="rgb(255,12,12)" stroke-width="1" font-size="16" >O</text>
<text x="518.487113" y="82.641016" fill="rgb(102,102,102)"  stroke="rgb(102,102,102)" stroke-width="1" font-size="16" >CH</text>
<text x="542.487113" y="86.321016" fill="rgb(102,102,102)"  stroke="rgb(102,102,102)" stroke-width="1" font-size="13" >3</text>
<text x="241.846097" y="91.923048" fill="rgb(255,12,12)"  stroke="rgb(255,12,12)" stroke-width="1" font-size="16" >O</text>
<text x="14.000000" y="91.923048" fill="rgb(102,102,102)"  stroke="rgb(102,102,102)" stroke-width="1" font-size="16" >H</text>
<text x="26.000000" y="95.603048" fill="rgb(102,102,102)"  stroke="rgb(102,102,102)" stroke-width="1" font-size="13" >3</text>
<text x="32.500000" y="91.923048" fill="rgb(102,102,102)"  stroke="rgb(102,102,102)" stroke-width="1" font-size="16" >C</text>
<text x="207.205081" y="151.923048" fill="rgb(255,12,12)"  stroke="rgb(255,12,12)" stroke-width="1" font-size="16" >O</text>
</svg>
</g>
<text font-size="18.000000" fill ="black" font-family="sans-serif"
x="10.000000" y="20.000000" ></text>
</svg>
