<?xml version="1.0"?>
<svg version="1.1" id="topsvg"
xmlns="http://www.w3.org/2000/svg" xmlns:xlink="http://www.w3.org/1999/xlink"
xmlns:cml="http://www.xml-cml.org/schema" x="0" y="0" width="200px" height="200px" viewBox="0 0 100 100">
<title> - Open Babel Depiction</title>
<rect x="0" y="0" width="100" height="100" fill="white"/>
<g transform="translate(0,0)">
<svg width="100" height="100" x="0" y="0" viewBox="0 0 176.569 176.569"
font-family="sans-serif" stroke="rgb(0,0,0)" stroke-width="2"  stroke-linecap="round">
<line x1="127.4" y1="127.4" x2="108.3" y2="108.3" stroke="rgb(0,0,0)"  stroke-width="2.0"/>
<line x1="70.4" y1="110.4" x2="51.3" y2="129.5" stroke="rgb(0,0,0)"  stroke-width="2.0"/>
<line x1="66.2" y1="106.2" x2="47.1" y2="125.3" stroke="rgb(0,0,0)"  stroke-width="2.0"/>
<line x1="66.2" y1="70.4" x2="47.1" y2="51.3" stroke="rgb(0,0,0)"  stroke-width="2.0"/>
<line x1="70.4" y1="66.2" x2="51.3" y2="47.1" stroke="rgb(0,0,0)"  stroke-width="2.0"/>
<line x1="108.3" y1="68.3" x2="127.4" y2="49.2" stroke="rgb(0,0,0)"  stroke-width="2.0"/>
<line x1="68.3" y1="68.3" x2="108.3" y2="68.3" stroke="rgb(0,0,0)"  stroke-width="2.0"/>
<line x1="108.3" y1="68.3" x2="108.3" y2="108.3" stroke="rgb(0,0,0)"  stroke-width="2.0"/>
<line x1="108.3" y1="108.3" x2="68.3" y2="108.3" stroke="rgb(0,0,0)"  stroke-width="2.0"/>
<line x1="68.3" y1="108.3" x2="68.3" y2="68.3" stroke="rgb(0,0,0)"  stroke-width="2.0"/>
<text x="130.568542" y="144.568542" fill="rgb(255,12,12)"  stroke="rgb(255,12,12)" stroke-width="1" font-size="16" >OH</text>
<text x="34.000000" y="144.568542" fill="rgb(255,12,12)"  stroke="rgb(255,12,12)" stroke-width="1" font-size="16" >O</text>
<text x="34.000000" y="48.000000" fill="rgb(255,12,12)"  stroke="rgb(255,12,12)" stroke-width="1" font-size="16" >O</text>
<text x="130.568542" y="48.000000" fill="rgb(255,12,12)"  stroke="rgb(255,12,12)" stroke-width="1" font-size="16" >OH</text>
</svg>
</g>
<text font-size="18.000000" fill ="black" font-family="sans-serif"
x="10.000000" y="20.000000" ></text>
</svg>
