<?xml version="1.0"?>
<svg version="1.1" id="topsvg"
xmlns="http://www.w3.org/2000/svg" xmlns:xlink="http://www.w3.org/1999/xlink"
xmlns:cml="http://www.xml-cml.org/schema" x="0" y="0" width="200px" height="200px" viewBox="0 0 100 100">
<title> - Open Babel Depiction</title>
<rect x="0" y="0" width="100" height="100" fill="white"/>
<g transform="translate(0,0)">
<svg width="100" height="100" x="0" y="0" viewBox="0 0 560 560"
font-family="sans-serif" stroke="rgb(0,0,0)" stroke-width="2"  stroke-linecap="round">
<line x1="199.5" y1="46.5" x2="176.1" y2="60.0" stroke="rgb(0,0,0)"  stroke-width="2.0"/>
<line x1="176.1" y1="60.0" x2="176.1" y2="100.0" stroke="rgb(0,0,0)"  stroke-width="2.0"/>
<line x1="176.1" y1="100.0" x2="210.7" y2="120.0" stroke="rgb(0,0,0)"  stroke-width="2.0"/>
<line x1="210.7" y1="120.0" x2="210.7" y2="160.0" stroke="rgb(0,0,0)"  stroke-width="2.0"/>
<line x1="210.7" y1="160.0" x2="176.1" y2="180.0" stroke="rgb(0,0,0)"  stroke-width="2.0"/>
<line x1="176.1" y1="180.0" x2="176.1" y2="207.0" stroke="rgb(0,0,0)"  stroke-width="2.0"/>
<line x1="210.7" y1="160.0" x2="245.4" y2="180.0" stroke="rgb(0,0,0)"  stroke-width="2.0"/>
<line x1="245.4" y1="180.0" x2="245.4" y2="207.0" stroke="rgb(0,0,0)"  stroke-width="2.0"/>
<line x1="256.6" y1="226.5" x2="280.0" y2="240.0" stroke="rgb(0,0,0)"  stroke-width="2.0"/>
<line x1="280.0" y1="240.0" x2="280.0" y2="280.0" stroke="rgb(0,0,0)"  stroke-width="2.0"/>
<line x1="280.0" y1="280.0" x2="240.0" y2="280.0" stroke="rgb(0,0,0)"  stroke-width="2.0"/>
<line x1="240.0" y1="280.0" x2="226.5" y2="303.4" stroke="rgb(0,0,0)"  stroke-width="2.0"/>
<line x1="207.0" y1="314.6" x2="180.0" y2="314.6" stroke="rgb(0,0,0)"  stroke-width="2.0"/>
<line x1="180.0" y1="314.6" x2="160.0" y2="349.3" stroke="rgb(0,0,0)"  stroke-width="2.0"/>
<line x1="160.0" y1="349.3" x2="180.0" y2="383.9" stroke="rgb(0,0,0)"  stroke-width="2.0"/>
<line x1="180.0" y1="383.9" x2="166.5" y2="407.3" stroke="rgb(0,0,0)"  stroke-width="2.0"/>
<line x1="160.0" y1="349.3" x2="120.0" y2="349.3" stroke="rgb(0,0,0)"  stroke-width="2.0"/>
<line x1="120.0" y1="349.3" x2="100.0" y2="383.9" stroke="rgb(0,0,0)"  stroke-width="2.0"/>
<line x1="100.0" y1="383.9" x2="60.0" y2="383.9" stroke="rgb(0,0,0)"  stroke-width="2.0"/>
<line x1="60.0" y1="383.9" x2="46.5" y2="407.3" stroke="rgb(0,0,0)"  stroke-width="2.0"/>
<line x1="177.4" y1="316.1" x2="163.9" y2="292.8" stroke="rgb(0,0,0)"  stroke-width="2.0"/>
<line x1="182.6" y1="313.1" x2="169.1" y2="289.8" stroke="rgb(0,0,0)"  stroke-width="2.0"/>
<line x1="280.0" y1="280.0" x2="280.0" y2="320.0" stroke="rgb(0,0,0)"  stroke-width="2.0"/>
<line x1="280.0" y1="320.0" x2="303.4" y2="333.5" stroke="rgb(0,0,0)"  stroke-width="2.0"/>
<line x1="314.6" y1="353.0" x2="314.6" y2="380.0" stroke="rgb(0,0,0)"  stroke-width="2.0"/>
<line x1="314.6" y1="380.0" x2="280.0" y2="400.0" stroke="rgb(0,0,0)"  stroke-width="2.0"/>
<line x1="280.0" y1="400.0" x2="245.4" y2="380.0" stroke="rgb(0,0,0)"  stroke-width="2.0"/>
<line x1="245.4" y1="380.0" x2="222.0" y2="393.5" stroke="rgb(0,0,0)"  stroke-width="2.0"/>
<line x1="280.0" y1="400.0" x2="280.0" y2="440.0" stroke="rgb(0,0,0)"  stroke-width="2.0"/>
<line x1="280.0" y1="440.0" x2="314.6" y2="460.0" stroke="rgb(0,0,0)"  stroke-width="2.0"/>
<line x1="314.6" y1="460.0" x2="314.6" y2="500.0" stroke="rgb(0,0,0)"  stroke-width="2.0"/>
<line x1="314.6" y1="500.0" x2="338.0" y2="513.5" stroke="rgb(0,0,0)"  stroke-width="2.0"/>
<line x1="316.1" y1="377.4" x2="339.5" y2="390.9" stroke="rgb(0,0,0)"  stroke-width="2.0"/>
<line x1="313.1" y1="382.6" x2="336.5" y2="396.1" stroke="rgb(0,0,0)"  stroke-width="2.0"/>
<line x1="280.0" y1="280.0" x2="320.0" y2="280.0" stroke="rgb(0,0,0)"  stroke-width="2.0"/>
<line x1="320.0" y1="280.0" x2="333.5" y2="303.4" stroke="rgb(0,0,0)"  stroke-width="2.0"/>
<line x1="353.0" y1="314.6" x2="380.0" y2="314.6" stroke="rgb(0,0,0)"  stroke-width="2.0"/>
<line x1="380.0" y1="314.6" x2="400.0" y2="349.3" stroke="rgb(0,0,0)"  stroke-width="2.0"/>
<line x1="400.0" y1="349.3" x2="380.0" y2="383.9" stroke="rgb(0,0,0)"  stroke-width="2.0"/>
<line x1="380.0" y1="383.9" x2="393.5" y2="407.3" stroke="rgb(0,0,0)"  stroke-width="2.0"/>
<line x1="400.0" y1="349.3" x2="440.0" y2="349.3" stroke="rgb(0,0,0)"  stroke-width="2.0"/>
<line x1="440.0" y1="349.3" x2="460.0" y2="383.9" stroke="rgb(0,0,0)"  stroke-width="2.0"/>
<line x1="460.0" y1="383.9" x2="500.0" y2="383.9" stroke="rgb(0,0,0)"  stroke-width="2.0"/>
<line x1="500.0" y1="383.9" x2="513.5" y2="407.3" stroke="rgb(0,0,0)"  stroke-width="2.0"/>
<line x1="377.4" y1="313.1" x2="390.9" y2="289.8" stroke="rgb(0,0,0)"  stroke-width="2.0"/>
<line x1="382.6" y1="316.1" x2="396.1" y2="292.8" stroke="rgb(0,0,0)"  stroke-width="2.0"/>
<line x1="243.9" y1="177.4" x2="267.2" y2="163.9" stroke="rgb(0,0,0)"  stroke-width="2.0"/>
<line x1="246.9" y1="182.6" x2="270.2" y2="169.1" stroke="rgb(0,0,0)"  stroke-width="2.0"/>
<text x="334.000000" y="322.641016" fill="rgb(255,12,12)"  stroke="rgb(255,12,12)" stroke-width="1" font-size="16" >O</text>
<text x="308.641016" y="348.000000" fill="rgb(255,12,12)"  stroke="rgb(255,12,12)" stroke-width="1" font-size="16" >O</text>
<text x="184.717968" y="408.000000" fill="rgb(102,102,102)"  stroke="rgb(102,102,102)" stroke-width="1" font-size="16" >H</text>
<text x="196.717968" y="411.680000" fill="rgb(102,102,102)"  stroke="rgb(102,102,102)" stroke-width="1" font-size="13" >3</text>
<text x="203.217968" y="408.000000" fill="rgb(102,102,102)"  stroke="rgb(102,102,102)" stroke-width="1" font-size="16" >C</text>
<text x="345.282032" y="528.000000" fill="rgb(102,102,102)"  stroke="rgb(102,102,102)" stroke-width="1" font-size="16" >CH</text>
<text x="369.282032" y="531.680000" fill="rgb(102,102,102)"  stroke="rgb(102,102,102)" stroke-width="1" font-size="13" >3</text>
<text x="343.282032" y="408.000000" fill="rgb(255,12,12)"  stroke="rgb(255,12,12)" stroke-width="1" font-size="16" >O</text>
<text x="396.000000" y="426.564065" fill="rgb(102,102,102)"  stroke="rgb(102,102,102)" stroke-width="1" font-size="16" >CH</text>
<text x="420.000000" y="430.244065" fill="rgb(102,102,102)"  stroke="rgb(102,102,102)" stroke-width="1" font-size="13" >3</text>
<text x="516.000000" y="426.564065" fill="rgb(102,102,102)"  stroke="rgb(102,102,102)" stroke-width="1" font-size="16" >CH</text>
<text x="540.000000" y="430.244065" fill="rgb(102,102,102)"  stroke="rgb(102,102,102)" stroke-width="1" font-size="13" >3</text>
<text x="394.000000" y="288.000000" fill="rgb(255,12,12)"  stroke="rgb(255,12,12)" stroke-width="1" font-size="16" >O</text>
<text x="274.000000" y="168.000000" fill="rgb(255,12,12)"  stroke="rgb(255,12,12)" stroke-width="1" font-size="16" >O</text>
<text x="172.076952" y="228.000000" fill="rgb(102,102,102)"  stroke="rgb(102,102,102)" stroke-width="1" font-size="16" >CH</text>
<text x="196.076952" y="231.680000" fill="rgb(102,102,102)"  stroke="rgb(102,102,102)" stroke-width="1" font-size="13" >3</text>
<text x="239.358984" y="228.000000" fill="rgb(255,12,12)"  stroke="rgb(255,12,12)" stroke-width="1" font-size="16" >O</text>
<text x="206.717968" y="48.000000" fill="rgb(102,102,102)"  stroke="rgb(102,102,102)" stroke-width="1" font-size="16" >CH</text>
<text x="230.717968" y="51.680000" fill="rgb(102,102,102)"  stroke="rgb(102,102,102)" stroke-width="1" font-size="13" >3</text>
<text x="214.000000" y="322.641016" fill="rgb(255,12,12)"  stroke="rgb(255,12,12)" stroke-width="1" font-size="16" >O</text>
<text x="134.000000" y="426.564065" fill="rgb(102,102,102)"  stroke="rgb(102,102,102)" stroke-width="1" font-size="16" >H</text>
<text x="146.000000" y="430.244065" fill="rgb(102,102,102)"  stroke="rgb(102,102,102)" stroke-width="1" font-size="13" >3</text>
<text x="152.500000" y="426.564065" fill="rgb(102,102,102)"  stroke="rgb(102,102,102)" stroke-width="1" font-size="16" >C</text>
<text x="14.000000" y="426.564065" fill="rgb(102,102,102)"  stroke="rgb(102,102,102)" stroke-width="1" font-size="16" >H</text>
<text x="26.000000" y="430.244065" fill="rgb(102,102,102)"  stroke="rgb(102,102,102)" stroke-width="1" font-size="13" >3</text>
<text x="32.500000" y="426.564065" fill="rgb(102,102,102)"  stroke="rgb(102,102,102)" stroke-width="1" font-size="16" >C</text>
<text x="154.000000" y="288.000000" fill="rgb(255,12,12)"  stroke="rgb(255,12,12)" stroke-width="1" font-size="16" >O</text>
</svg>
</g>
<text font-size="18.000000" fill ="black" font-family="sans-serif"
x="10.000000" y="20.000000" ></text>
</svg>
