<?xml version="1.0"?>
<svg version="1.1" id="topsvg"
xmlns="http://www.w3.org/2000/svg" xmlns:xlink="http://www.w3.org/1999/xlink"
xmlns:cml="http://www.xml-cml.org/schema" x="0" y="0" width="200px" height="200px" viewBox="0 0 100 100">
<title> - Open Babel Depiction</title>
<rect x="0" y="0" width="100" height="100" fill="white"/>
<g transform="translate(0,0)">
<svg width="100" height="100" x="0" y="0" viewBox="0 0 420 313.205"
font-family="sans-serif" stroke="rgb(0,0,0)" stroke-width="2"  stroke-linecap="round">
<line x1="46.5" y1="224.5" x2="60.0" y2="247.8" stroke="rgb(0,0,0)"  stroke-width="2.0"/>
<line x1="60.0" y1="247.8" x2="100.0" y2="247.8" stroke="rgb(0,0,0)"  stroke-width="2.0"/>
<line x1="100.0" y1="247.8" x2="113.5" y2="224.5" stroke="rgb(0,0,0)"  stroke-width="2.0"/>
<line x1="133.0" y1="213.2" x2="147.0" y2="213.2" stroke="rgb(0,0,0)"  stroke-width="2.0"/>
<line x1="160.0" y1="226.2" x2="160.0" y2="240.2" stroke="rgb(0,0,0)"  stroke-width="2.0"/>
<line x1="171.3" y1="259.7" x2="194.6" y2="273.2" stroke="rgb(0,0,0)"  stroke-width="2.0"/>
<line x1="194.6" y1="273.2" x2="229.3" y2="253.2" stroke="rgb(0,0,0)"  stroke-width="2.0"/>
<line x1="229.3" y1="253.2" x2="252.7" y2="266.7" stroke="rgb(0,0,0)"  stroke-width="2.0"/>
<line x1="173.0" y1="213.2" x2="187.0" y2="213.2" stroke="rgb(0,0,0)"  stroke-width="2.0"/>
<line x1="206.5" y1="201.9" x2="220.0" y2="178.6" stroke="rgb(0,0,0)"  stroke-width="2.0"/>
<line x1="280.0" y1="74.6" x2="266.5" y2="51.3" stroke="rgb(0,0,0)"  stroke-width="2.0"/>
<line x1="320.0" y1="74.6" x2="333.5" y2="51.3" stroke="rgb(0,0,0)"  stroke-width="2.0"/>
<line x1="340.0" y1="106.3" x2="367.0" y2="106.3" stroke="rgb(0,0,0)"  stroke-width="2.0"/>
<line x1="340.0" y1="112.3" x2="367.0" y2="112.3" stroke="rgb(0,0,0)"  stroke-width="2.0"/>
<line x1="157.0" y1="200.2" x2="157.0" y2="186.2" stroke="rgb(0,0,0)"  stroke-width="2.0"/>
<line x1="163.0" y1="200.2" x2="163.0" y2="186.2" stroke="rgb(0,0,0)"  stroke-width="2.0"/>
<line x1="220.0" y1="178.6" x2="200.0" y2="143.9" stroke="rgb(0,0,0)"  stroke-width="2.0"/>
<line x1="223.2" y1="169.8" x2="209.2" y2="145.5" stroke="rgb(0,0,0)"  stroke-width="2.0"/>
<line x1="200.0" y1="143.9" x2="220.0" y2="109.3" stroke="rgb(0,0,0)"  stroke-width="2.0"/>
<line x1="220.0" y1="109.3" x2="260.0" y2="109.3" stroke="rgb(0,0,0)"  stroke-width="2.0"/>
<line x1="226.0" y1="116.5" x2="254.0" y2="116.5" stroke="rgb(0,0,0)"  stroke-width="2.0"/>
<line x1="260.0" y1="109.3" x2="280.0" y2="143.9" stroke="rgb(0,0,0)"  stroke-width="2.0"/>
<line x1="280.0" y1="143.9" x2="260.0" y2="178.6" stroke="rgb(0,0,0)"  stroke-width="2.0"/>
<line x1="270.8" y1="145.5" x2="256.8" y2="169.8" stroke="rgb(0,0,0)"  stroke-width="2.0"/>
<line x1="260.0" y1="178.6" x2="220.0" y2="178.6" stroke="rgb(0,0,0)"  stroke-width="2.0"/>
<line x1="320.0" y1="74.6" x2="340.0" y2="109.3" stroke="rgb(0,0,0)"  stroke-width="2.0"/>
<line x1="340.0" y1="109.3" x2="326.5" y2="132.7" stroke="rgb(0,0,0)"  stroke-width="2.0"/>
<line x1="307.0" y1="143.9" x2="280.0" y2="143.9" stroke="rgb(0,0,0)"  stroke-width="2.0"/>
<line x1="260.0" y1="109.3" x2="280.0" y2="74.6" stroke="rgb(0,0,0)"  stroke-width="2.0"/>
<line x1="280.0" y1="74.6" x2="320.0" y2="74.6" stroke="rgb(0,0,0)"  stroke-width="2.0"/>
<line x1="286.0" y1="81.8" x2="314.0" y2="81.8" stroke="rgb(0,0,0)"  stroke-width="2.0"/>
<text x="154.000000" y="181.205081" fill="rgb(255,12,12)"  stroke="rgb(255,12,12)" stroke-width="1" font-size="16" >O</text>
<text x="374.000000" y="117.282032" fill="rgb(255,12,12)"  stroke="rgb(255,12,12)" stroke-width="1" font-size="16" >O</text>
<text x="314.000000" y="151.923048" fill="rgb(255,12,12)"  stroke="rgb(255,12,12)" stroke-width="1" font-size="16" >O</text>
<text x="334.000000" y="48.000000" fill="rgb(30,239,30)"  stroke="rgb(30,239,30)" stroke-width="1" font-size="16" >Cl</text>
<text x="234.000000" y="48.000000" fill="rgb(102,102,102)"  stroke="rgb(102,102,102)" stroke-width="1" font-size="16" >H</text>
<text x="246.000000" y="51.680000" fill="rgb(102,102,102)"  stroke="rgb(102,102,102)" stroke-width="1" font-size="13" >3</text>
<text x="252.500000" y="48.000000" fill="rgb(102,102,102)"  stroke="rgb(102,102,102)" stroke-width="1" font-size="16" >C</text>
<text x="22.000000" y="221.205081" fill="rgb(30,239,30)"  stroke="rgb(30,239,30)" stroke-width="1" font-size="16" >Cl</text>
<text x="194.000000" y="221.205081" fill="rgb(255,12,12)"  stroke="rgb(255,12,12)" stroke-width="1" font-size="16" >O</text>
<text x="257.923048" y="281.205081" fill="rgb(30,239,30)"  stroke="rgb(30,239,30)" stroke-width="1" font-size="16" >Cl</text>
<text x="154.000000" y="261.205081" fill="rgb(255,12,12)"  stroke="rgb(255,12,12)" stroke-width="1" font-size="16" >O</text>
<text x="154.000000" y="221.205081" fill="rgb(255,127,0)"  stroke="rgb(255,127,0)" stroke-width="1" font-size="16" >P</text>
<text x="114.000000" y="221.205081" fill="rgb(255,12,12)"  stroke="rgb(255,12,12)" stroke-width="1" font-size="16" >O</text>
</svg>
</g>
<text font-size="18.000000" fill ="black" font-family="sans-serif"
x="10.000000" y="20.000000" ></text>
</svg>
