<?xml version="1.0"?>
<svg version="1.1" id="topsvg"
xmlns="http://www.w3.org/2000/svg" xmlns:xlink="http://www.w3.org/1999/xlink"
xmlns:cml="http://www.xml-cml.org/schema" x="0" y="0" width="200px" height="200px" viewBox="0 0 100 100">
<title> - Open Babel Depiction</title>
<rect x="0" y="0" width="100" height="100" fill="white"/>
<g transform="translate(0,0)">
<svg width="100" height="100" x="0" y="0" viewBox="0 0 460 397.128"
font-family="sans-serif" stroke="rgb(0,0,0)" stroke-width="2"  stroke-linecap="round">
<line x1="406.5" y1="345.9" x2="420.0" y2="322.5" stroke="rgb(0,0,0)"  stroke-width="2.0"/>
<line x1="420.0" y1="322.5" x2="400.0" y2="287.8" stroke="rgb(0,0,0)"  stroke-width="2.0"/>
<line x1="400.0" y1="287.8" x2="360.0" y2="287.8" stroke="rgb(0,0,0)"  stroke-width="2.0"/>
<line x1="360.0" y1="287.8" x2="340.0" y2="253.2" stroke="rgb(0,0,0)"  stroke-width="2.0"/>
<line x1="340.0" y1="253.2" x2="300.0" y2="253.2" stroke="rgb(0,0,0)"  stroke-width="2.0"/>
<line x1="300.0" y1="253.2" x2="280.0" y2="218.6" stroke="rgb(0,0,0)"  stroke-width="2.0"/>
<line x1="280.0" y1="218.6" x2="240.0" y2="218.6" stroke="rgb(0,0,0)"  stroke-width="2.0"/>
<line x1="240.0" y1="218.6" x2="220.0" y2="183.9" stroke="rgb(0,0,0)"  stroke-width="2.0"/>
<line x1="220.0" y1="183.9" x2="180.0" y2="183.9" stroke="rgb(0,0,0)"  stroke-width="2.0"/>
<line x1="180.0" y1="183.9" x2="160.0" y2="149.3" stroke="rgb(0,0,0)"  stroke-width="2.0"/>
<line x1="160.0" y1="149.3" x2="120.0" y2="149.3" stroke="rgb(0,0,0)"  stroke-width="2.0"/>
<line x1="120.0" y1="149.3" x2="100.0" y2="114.6" stroke="rgb(0,0,0)"  stroke-width="2.0"/>
<line x1="120.0" y1="80.0" x2="147.0" y2="80.0" stroke="rgb(0,0,0)"  stroke-width="2.0"/>
<line x1="160.0" y1="93.0" x2="160.0" y2="107.0" stroke="rgb(0,0,0)"  stroke-width="2.0"/>
<line x1="173.0" y1="77.0" x2="187.0" y2="77.0" stroke="rgb(0,0,0)"  stroke-width="2.0"/>
<line x1="173.0" y1="83.0" x2="187.0" y2="83.0" stroke="rgb(0,0,0)"  stroke-width="2.0"/>
<line x1="157.0" y1="67.0" x2="157.0" y2="53.0" stroke="rgb(0,0,0)"  stroke-width="2.0"/>
<line x1="163.0" y1="67.0" x2="163.0" y2="53.0" stroke="rgb(0,0,0)"  stroke-width="2.0"/>
<line x1="40.0" y1="80.0" x2="60.0" y2="45.4" stroke="rgb(0,0,0)"  stroke-width="2.0"/>
<line x1="49.2" y1="78.4" x2="63.2" y2="54.2" stroke="rgb(0,0,0)"  stroke-width="2.0"/>
<line x1="60.0" y1="45.4" x2="100.0" y2="45.4" stroke="rgb(0,0,0)"  stroke-width="2.0"/>
<line x1="100.0" y1="45.4" x2="120.0" y2="80.0" stroke="rgb(0,0,0)"  stroke-width="2.0"/>
<line x1="96.8" y1="54.2" x2="110.8" y2="78.4" stroke="rgb(0,0,0)"  stroke-width="2.0"/>
<line x1="120.0" y1="80.0" x2="100.0" y2="114.6" stroke="rgb(0,0,0)"  stroke-width="2.0"/>
<line x1="100.0" y1="114.6" x2="60.0" y2="114.6" stroke="rgb(0,0,0)"  stroke-width="2.0"/>
<line x1="94.0" y1="107.4" x2="66.0" y2="107.4" stroke="rgb(0,0,0)"  stroke-width="2.0"/>
<line x1="60.0" y1="114.6" x2="40.0" y2="80.0" stroke="rgb(0,0,0)"  stroke-width="2.0"/>
<text x="154.000000" y="48.000000" fill="rgb(255,12,12)"  stroke="rgb(255,12,12)" stroke-width="1" font-size="16" >O</text>
<text x="194.000000" y="88.000000" fill="rgb(255,12,12)"  stroke="rgb(255,12,12)" stroke-width="1" font-size="16" >O</text>
<text x="154.000000" y="128.000000" fill="rgb(255,12,12)"  stroke="rgb(255,12,12)" stroke-width="1" font-size="16" >OH</text>
<text x="154.000000" y="88.000000" fill="rgb(178,178,0)"  stroke="rgb(178,178,0)" stroke-width="1" font-size="16" >S</text>
<text x="374.000000" y="365.128129" fill="rgb(102,102,102)"  stroke="rgb(102,102,102)" stroke-width="1" font-size="16" >H</text>
<text x="386.000000" y="368.808129" fill="rgb(102,102,102)"  stroke="rgb(102,102,102)" stroke-width="1" font-size="13" >3</text>
<text x="392.500000" y="365.128129" fill="rgb(102,102,102)"  stroke="rgb(102,102,102)" stroke-width="1" font-size="16" >C</text>
</svg>
</g>
<text font-size="18.000000" fill ="black" font-family="sans-serif"
x="10.000000" y="20.000000" ></text>
</svg>
