<?xml version="1.0"?>
<svg version="1.1" id="topsvg"
xmlns="http://www.w3.org/2000/svg" xmlns:xlink="http://www.w3.org/1999/xlink"
xmlns:cml="http://www.xml-cml.org/schema" x="0" y="0" width="200px" height="200px" viewBox="0 0 100 100">
<title> - Open Babel Depiction</title>
<rect x="0" y="0" width="100" height="100" fill="white"/>
<g transform="translate(0,0)">
<svg width="100" height="100" x="0" y="0" viewBox="0 0 564.974 620"
font-family="sans-serif" stroke="rgb(0,0,0)" stroke-width="2"  stroke-linecap="round">
<line x1="51.3" y1="566.5" x2="74.6" y2="580.0" stroke="rgb(0,0,0)"  stroke-width="2.0"/>
<line x1="74.6" y1="580.0" x2="109.3" y2="560.0" stroke="rgb(0,0,0)"  stroke-width="2.0"/>
<line x1="109.3" y1="560.0" x2="109.3" y2="520.0" stroke="rgb(0,0,0)"  stroke-width="2.0"/>
<line x1="109.3" y1="520.0" x2="143.9" y2="500.0" stroke="rgb(0,0,0)"  stroke-width="2.0"/>
<line x1="143.9" y1="500.0" x2="143.9" y2="460.0" stroke="rgb(0,0,0)"  stroke-width="2.0"/>
<line x1="143.9" y1="460.0" x2="178.6" y2="440.0" stroke="rgb(0,0,0)"  stroke-width="2.0"/>
<line x1="178.6" y1="440.0" x2="178.6" y2="400.0" stroke="rgb(0,0,0)"  stroke-width="2.0"/>
<line x1="178.6" y1="400.0" x2="213.2" y2="380.0" stroke="rgb(0,0,0)"  stroke-width="2.0"/>
<line x1="213.2" y1="380.0" x2="213.2" y2="353.0" stroke="rgb(0,0,0)"  stroke-width="2.0"/>
<line x1="224.5" y1="333.5" x2="247.8" y2="320.0" stroke="rgb(0,0,0)"  stroke-width="2.0"/>
<line x1="249.3" y1="317.4" x2="272.7" y2="330.9" stroke="rgb(0,0,0)"  stroke-width="2.0"/>
<line x1="246.3" y1="322.6" x2="269.7" y2="336.1" stroke="rgb(0,0,0)"  stroke-width="2.0"/>
<line x1="247.8" y1="320.0" x2="247.8" y2="280.0" stroke="rgb(0,0,0)"  stroke-width="2.0"/>
<line x1="282.5" y1="260.0" x2="317.1" y2="280.0" stroke="rgb(0,0,0)"  stroke-width="2.0"/>
<line x1="317.1" y1="280.0" x2="317.1" y2="307.0" stroke="rgb(0,0,0)"  stroke-width="2.0"/>
<line x1="328.4" y1="326.5" x2="351.8" y2="340.0" stroke="rgb(0,0,0)"  stroke-width="2.0"/>
<line x1="351.8" y1="340.0" x2="386.4" y2="320.0" stroke="rgb(0,0,0)"  stroke-width="2.0"/>
<line x1="386.4" y1="320.0" x2="386.4" y2="280.0" stroke="rgb(0,0,0)"  stroke-width="2.0"/>
<line x1="386.4" y1="280.0" x2="421.1" y2="260.0" stroke="rgb(0,0,0)"  stroke-width="2.0"/>
<line x1="421.1" y1="260.0" x2="421.1" y2="220.0" stroke="rgb(0,0,0)"  stroke-width="2.0"/>
<line x1="421.1" y1="220.0" x2="455.7" y2="200.0" stroke="rgb(0,0,0)"  stroke-width="2.0"/>
<line x1="455.7" y1="200.0" x2="455.7" y2="160.0" stroke="rgb(0,0,0)"  stroke-width="2.0"/>
<line x1="455.7" y1="160.0" x2="490.3" y2="140.0" stroke="rgb(0,0,0)"  stroke-width="2.0"/>
<line x1="490.3" y1="140.0" x2="490.3" y2="100.0" stroke="rgb(0,0,0)"  stroke-width="2.0"/>
<line x1="490.3" y1="100.0" x2="525.0" y2="80.0" stroke="rgb(0,0,0)"  stroke-width="2.0"/>
<line x1="525.0" y1="80.0" x2="525.0" y2="53.0" stroke="rgb(0,0,0)"  stroke-width="2.0"/>
<line x1="315.6" y1="277.4" x2="339.0" y2="263.9" stroke="rgb(0,0,0)"  stroke-width="2.0"/>
<line x1="318.6" y1="282.6" x2="342.0" y2="269.1" stroke="rgb(0,0,0)"  stroke-width="2.0"/>
<line x1="213.2" y1="220.0" x2="247.8" y2="200.0" stroke="rgb(0,0,0)"  stroke-width="2.0"/>
<line x1="222.0" y1="223.2" x2="246.2" y2="209.2" stroke="rgb(0,0,0)"  stroke-width="2.0"/>
<line x1="247.8" y1="200.0" x2="282.5" y2="220.0" stroke="rgb(0,0,0)"  stroke-width="2.0"/>
<line x1="282.5" y1="220.0" x2="282.5" y2="260.0" stroke="rgb(0,0,0)"  stroke-width="2.0"/>
<line x1="275.3" y1="226.0" x2="275.3" y2="254.0" stroke="rgb(0,0,0)"  stroke-width="2.0"/>
<line x1="282.5" y1="260.0" x2="247.8" y2="280.0" stroke="rgb(0,0,0)"  stroke-width="2.0"/>
<line x1="247.8" y1="280.0" x2="213.2" y2="260.0" stroke="rgb(0,0,0)"  stroke-width="2.0"/>
<line x1="246.2" y1="270.8" x2="222.0" y2="256.8" stroke="rgb(0,0,0)"  stroke-width="2.0"/>
<line x1="213.2" y1="260.0" x2="213.2" y2="220.0" stroke="rgb(0,0,0)"  stroke-width="2.0"/>
<text x="345.769145" y="268.000000" fill="rgb(255,12,12)"  stroke="rgb(255,12,12)" stroke-width="1" font-size="16" >O</text>
<text x="520.974226" y="48.000000" fill="rgb(102,102,102)"  stroke="rgb(102,102,102)" stroke-width="1" font-size="16" >CH</text>
<text x="544.974226" y="51.680000" fill="rgb(102,102,102)"  stroke="rgb(102,102,102)" stroke-width="1" font-size="13" >3</text>
<text x="311.128129" y="328.000000" fill="rgb(255,12,12)"  stroke="rgb(255,12,12)" stroke-width="1" font-size="16" >O</text>
<text x="14.000000" y="568.000000" fill="rgb(102,102,102)"  stroke="rgb(102,102,102)" stroke-width="1" font-size="16" >H</text>
<text x="26.000000" y="571.680000" fill="rgb(102,102,102)"  stroke="rgb(102,102,102)" stroke-width="1" font-size="13" >3</text>
<text x="32.500000" y="568.000000" fill="rgb(102,102,102)"  stroke="rgb(102,102,102)" stroke-width="1" font-size="16" >C</text>
<text x="276.487113" y="348.000000" fill="rgb(255,12,12)"  stroke="rgb(255,12,12)" stroke-width="1" font-size="16" >O</text>
<text x="207.205081" y="348.000000" fill="rgb(255,12,12)"  stroke="rgb(255,12,12)" stroke-width="1" font-size="16" >O</text>
</svg>
</g>
<text font-size="18.000000" fill ="black" font-family="sans-serif"
x="10.000000" y="20.000000" ></text>
</svg>
