<?xml version="1.0"?>
<svg version="1.1" id="topsvg"
xmlns="http://www.w3.org/2000/svg" xmlns:xlink="http://www.w3.org/1999/xlink"
xmlns:cml="http://www.xml-cml.org/schema" x="0" y="0" width="200px" height="200px" viewBox="0 0 100 100">
<title> - Open Babel Depiction</title>
<rect x="0" y="0" width="100" height="100" fill="white"/>
<g transform="translate(0,0)">
<svg width="100" height="100" x="0" y="0" viewBox="0 0 260.878 348.284"
font-family="sans-serif" stroke="rgb(0,0,0)" stroke-width="2"  stroke-linecap="round">
<line x1="96.0" y1="299.1" x2="77.0" y2="280.0" stroke="rgb(0,0,0)"  stroke-width="2.0"/>
<line x1="77.0" y1="280.0" x2="52.0" y2="290.3" stroke="rgb(0,0,0)"  stroke-width="2.0"/>
<line x1="111.6" y1="220.0" x2="111.6" y2="193.0" stroke="rgb(0,0,0)"  stroke-width="2.0"/>
<line x1="180.9" y1="220.0" x2="207.9" y2="220.0" stroke="rgb(0,0,0)"  stroke-width="2.0"/>
<line x1="180.9" y1="220.0" x2="194.4" y2="196.6" stroke="rgb(0,0,0)"  stroke-width="2.0"/>
<line x1="146.2" y1="200.0" x2="146.2" y2="160.0" stroke="rgb(0,0,0)"  stroke-width="2.0"/>
<line x1="146.2" y1="160.0" x2="111.6" y2="140.0" stroke="rgb(0,0,0)"  stroke-width="2.0"/>
<line x1="111.6" y1="140.0" x2="111.6" y2="100.0" stroke="rgb(0,0,0)"  stroke-width="2.0"/>
<line x1="111.6" y1="100.0" x2="98.1" y2="76.6" stroke="rgb(0,0,0)"  stroke-width="2.0"/>
<line x1="111.6" y1="100.0" x2="84.6" y2="100.0" stroke="rgb(0,0,0)"  stroke-width="2.0"/>
<line x1="111.6" y1="100.0" x2="146.2" y2="80.0" stroke="rgb(0,0,0)"  stroke-width="2.0"/>
<line x1="143.2" y1="80.0" x2="143.2" y2="53.0" stroke="rgb(0,0,0)"  stroke-width="2.0"/>
<line x1="149.2" y1="80.0" x2="149.2" y2="53.0" stroke="rgb(0,0,0)"  stroke-width="2.0"/>
<line x1="42.3" y1="220.0" x2="77.0" y2="200.0" stroke="rgb(0,0,0)"  stroke-width="2.0"/>
<line x1="77.0" y1="200.0" x2="111.6" y2="220.0" stroke="rgb(0,0,0)"  stroke-width="2.0"/>
<line x1="111.6" y1="220.0" x2="111.6" y2="260.0" stroke="rgb(0,0,0)"  stroke-width="2.0"/>
<line x1="111.6" y1="260.0" x2="77.0" y2="280.0" stroke="rgb(0,0,0)"  stroke-width="2.0"/>
<line x1="77.0" y1="280.0" x2="42.3" y2="260.0" stroke="rgb(0,0,0)"  stroke-width="2.0"/>
<line x1="42.3" y1="260.0" x2="42.3" y2="220.0" stroke="rgb(0,0,0)"  stroke-width="2.0"/>
<line x1="180.9" y1="220.0" x2="180.9" y2="260.0" stroke="rgb(0,0,0)"  stroke-width="2.0"/>
<line x1="180.9" y1="260.0" x2="146.2" y2="280.0" stroke="rgb(0,0,0)"  stroke-width="2.0"/>
<line x1="146.2" y1="280.0" x2="111.6" y2="260.0" stroke="rgb(0,0,0)"  stroke-width="2.0"/>
<line x1="111.6" y1="220.0" x2="146.2" y2="200.0" stroke="rgb(0,0,0)"  stroke-width="2.0"/>
<line x1="146.2" y1="200.0" x2="180.9" y2="220.0" stroke="rgb(0,0,0)"  stroke-width="2.0"/>
<text x="142.237214" y="48.000000" fill="rgb(102,102,102)"  stroke="rgb(102,102,102)" stroke-width="1" font-size="16" >CH</text>
<text x="166.237214" y="51.680000" fill="rgb(102,102,102)"  stroke="rgb(102,102,102)" stroke-width="1" font-size="13" >2</text>
<text x="45.596197" y="108.000000" fill="rgb(102,102,102)"  stroke="rgb(102,102,102)" stroke-width="1" font-size="16" >H</text>
<text x="57.596197" y="111.680000" fill="rgb(102,102,102)"  stroke="rgb(102,102,102)" stroke-width="1" font-size="13" >3</text>
<text x="64.096197" y="108.000000" fill="rgb(102,102,102)"  stroke="rgb(102,102,102)" stroke-width="1" font-size="16" >C</text>
<text x="73.596197" y="73.358984" fill="rgb(255,12,12)"  stroke="rgb(255,12,12)" stroke-width="1" font-size="16" >HO</text>
<text x="196.878230" y="193.358984" fill="rgb(102,102,102)"  stroke="rgb(102,102,102)" stroke-width="1" font-size="16" >CH</text>
<text x="220.878230" y="197.038984" fill="rgb(102,102,102)"  stroke="rgb(102,102,102)" stroke-width="1" font-size="13" >3</text>
<text x="214.878230" y="228.000000" fill="rgb(255,12,12)"  stroke="rgb(255,12,12)" stroke-width="1" font-size="16" >OH</text>
<text x="101.239453" y="316.284271" fill="rgb(102,102,102)"  stroke="rgb(102,102,102)" stroke-width="1" font-size="16" >CH</text>
<text x="125.239453" y="319.964271" fill="rgb(102,102,102)"  stroke="rgb(102,102,102)" stroke-width="1" font-size="13" >3</text>
<text x="107.596197" y="188.000000" fill="rgb(102,102,102)"  stroke="rgb(102,102,102)" stroke-width="1" font-size="16" >CH</text>
<text x="131.596197" y="191.680000" fill="rgb(102,102,102)"  stroke="rgb(102,102,102)" stroke-width="1" font-size="13" >3</text>
<text x="14.000000" y="303.307337" fill="rgb(102,102,102)"  stroke="rgb(102,102,102)" stroke-width="1" font-size="16" >H</text>
<text x="26.000000" y="306.987337" fill="rgb(102,102,102)"  stroke="rgb(102,102,102)" stroke-width="1" font-size="13" >3</text>
<text x="32.500000" y="303.307337" fill="rgb(102,102,102)"  stroke="rgb(102,102,102)" stroke-width="1" font-size="16" >C</text>
</svg>
</g>
<text font-size="18.000000" fill ="black" font-family="sans-serif"
x="10.000000" y="20.000000" ></text>
</svg>
