<?xml version="1.0"?>
<svg version="1.1" id="topsvg"
xmlns="http://www.w3.org/2000/svg" xmlns:xlink="http://www.w3.org/1999/xlink"
xmlns:cml="http://www.xml-cml.org/schema" x="0" y="0" width="200px" height="200px" viewBox="0 0 100 100">
<title> - Open Babel Depiction</title>
<rect x="0" y="0" width="100" height="100" fill="white"/>
<g transform="translate(0,0)">
<svg width="100" height="100" x="0" y="0" viewBox="0 0 842.102 220"
font-family="sans-serif" stroke="rgb(0,0,0)" stroke-width="2"  stroke-linecap="round">
<line x1="40.0" y1="133.0" x2="40.0" y2="160.0" stroke="rgb(0,0,0)"  stroke-width="2.0"/>
<line x1="40.0" y1="160.0" x2="74.6" y2="180.0" stroke="rgb(0,0,0)"  stroke-width="2.0"/>
<line x1="74.6" y1="180.0" x2="109.3" y2="160.0" stroke="rgb(0,0,0)"  stroke-width="2.0"/>
<line x1="109.3" y1="160.0" x2="143.9" y2="180.0" stroke="rgb(0,0,0)"  stroke-width="2.0"/>
<line x1="143.9" y1="180.0" x2="178.6" y2="160.0" stroke="rgb(0,0,0)"  stroke-width="2.0"/>
<line x1="178.6" y1="160.0" x2="213.2" y2="180.0" stroke="rgb(0,0,0)"  stroke-width="2.0"/>
<line x1="213.2" y1="180.0" x2="247.8" y2="160.0" stroke="rgb(0,0,0)"  stroke-width="2.0"/>
<line x1="247.8" y1="160.0" x2="282.5" y2="180.0" stroke="rgb(0,0,0)"  stroke-width="2.0"/>
<line x1="282.5" y1="180.0" x2="317.1" y2="160.0" stroke="rgb(0,0,0)"  stroke-width="2.0"/>
<line x1="317.1" y1="160.0" x2="340.5" y2="173.5" stroke="rgb(0,0,0)"  stroke-width="2.0"/>
<line x1="363.0" y1="173.5" x2="386.4" y2="160.0" stroke="rgb(0,0,0)"  stroke-width="2.0"/>
<line x1="387.9" y1="157.4" x2="411.3" y2="170.9" stroke="rgb(0,0,0)"  stroke-width="2.0"/>
<line x1="384.9" y1="162.6" x2="408.3" y2="176.1" stroke="rgb(0,0,0)"  stroke-width="2.0"/>
<line x1="386.4" y1="160.0" x2="386.4" y2="120.0" stroke="rgb(0,0,0)"  stroke-width="2.0"/>
<line x1="421.1" y1="100.0" x2="455.7" y2="120.0" stroke="rgb(0,0,0)"  stroke-width="2.0"/>
<line x1="455.7" y1="120.0" x2="455.7" y2="147.0" stroke="rgb(0,0,0)"  stroke-width="2.0"/>
<line x1="467.0" y1="166.5" x2="490.3" y2="180.0" stroke="rgb(0,0,0)"  stroke-width="2.0"/>
<line x1="490.3" y1="180.0" x2="525.0" y2="160.0" stroke="rgb(0,0,0)"  stroke-width="2.0"/>
<line x1="525.0" y1="160.0" x2="559.6" y2="180.0" stroke="rgb(0,0,0)"  stroke-width="2.0"/>
<line x1="559.6" y1="180.0" x2="594.3" y2="160.0" stroke="rgb(0,0,0)"  stroke-width="2.0"/>
<line x1="594.3" y1="160.0" x2="628.9" y2="180.0" stroke="rgb(0,0,0)"  stroke-width="2.0"/>
<line x1="628.9" y1="180.0" x2="663.5" y2="160.0" stroke="rgb(0,0,0)"  stroke-width="2.0"/>
<line x1="663.5" y1="160.0" x2="698.2" y2="180.0" stroke="rgb(0,0,0)"  stroke-width="2.0"/>
<line x1="698.2" y1="180.0" x2="732.8" y2="160.0" stroke="rgb(0,0,0)"  stroke-width="2.0"/>
<line x1="732.8" y1="160.0" x2="767.5" y2="180.0" stroke="rgb(0,0,0)"  stroke-width="2.0"/>
<line x1="767.5" y1="180.0" x2="790.8" y2="166.5" stroke="rgb(0,0,0)"  stroke-width="2.0"/>
<line x1="454.2" y1="117.4" x2="477.6" y2="103.9" stroke="rgb(0,0,0)"  stroke-width="2.0"/>
<line x1="457.2" y1="122.6" x2="480.6" y2="109.1" stroke="rgb(0,0,0)"  stroke-width="2.0"/>
<line x1="351.8" y1="60.0" x2="386.4" y2="40.0" stroke="rgb(0,0,0)"  stroke-width="2.0"/>
<line x1="360.6" y1="63.2" x2="384.8" y2="49.2" stroke="rgb(0,0,0)"  stroke-width="2.0"/>
<line x1="386.4" y1="40.0" x2="421.1" y2="60.0" stroke="rgb(0,0,0)"  stroke-width="2.0"/>
<line x1="421.1" y1="60.0" x2="421.1" y2="100.0" stroke="rgb(0,0,0)"  stroke-width="2.0"/>
<line x1="413.9" y1="66.0" x2="413.9" y2="94.0" stroke="rgb(0,0,0)"  stroke-width="2.0"/>
<line x1="421.1" y1="100.0" x2="386.4" y2="120.0" stroke="rgb(0,0,0)"  stroke-width="2.0"/>
<line x1="386.4" y1="120.0" x2="351.8" y2="100.0" stroke="rgb(0,0,0)"  stroke-width="2.0"/>
<line x1="384.8" y1="110.8" x2="360.6" y2="96.8" stroke="rgb(0,0,0)"  stroke-width="2.0"/>
<line x1="351.8" y1="100.0" x2="351.8" y2="60.0" stroke="rgb(0,0,0)"  stroke-width="2.0"/>
<text x="484.333210" y="108.000000" fill="rgb(255,12,12)"  stroke="rgb(255,12,12)" stroke-width="1" font-size="16" >O</text>
<text x="798.102355" y="168.000000" fill="rgb(102,102,102)"  stroke="rgb(102,102,102)" stroke-width="1" font-size="16" >CH</text>
<text x="822.102355" y="171.680000" fill="rgb(102,102,102)"  stroke="rgb(102,102,102)" stroke-width="1" font-size="13" >3</text>
<text x="449.692194" y="168.000000" fill="rgb(255,12,12)"  stroke="rgb(255,12,12)" stroke-width="1" font-size="16" >O</text>
<text x="36.000000" y="128.000000" fill="rgb(102,102,102)"  stroke="rgb(102,102,102)" stroke-width="1" font-size="16" >CH</text>
<text x="60.000000" y="131.680000" fill="rgb(102,102,102)"  stroke="rgb(102,102,102)" stroke-width="1" font-size="13" >3</text>
<text x="415.051178" y="188.000000" fill="rgb(255,12,12)"  stroke="rgb(255,12,12)" stroke-width="1" font-size="16" >O</text>
<text x="345.769145" y="188.000000" fill="rgb(255,12,12)"  stroke="rgb(255,12,12)" stroke-width="1" font-size="16" >O</text>
</svg>
</g>
<text font-size="18.000000" fill ="black" font-family="sans-serif"
x="10.000000" y="20.000000" ></text>
</svg>
