<?xml version="1.0"?>
<svg version="1.1" id="topsvg"
xmlns="http://www.w3.org/2000/svg" xmlns:xlink="http://www.w3.org/1999/xlink"
xmlns:cml="http://www.xml-cml.org/schema" x="0" y="0" width="200px" height="200px" viewBox="0 0 100 100">
<title> - Open Babel Depiction</title>
<rect x="0" y="0" width="100" height="100" fill="white"/>
<g transform="translate(0,0)">
<svg width="100" height="100" x="0" y="0" viewBox="0 0 316.512 261.286"
font-family="sans-serif" stroke="rgb(0,0,0)" stroke-width="2"  stroke-linecap="round">
<line x1="51.3" y1="46.5" x2="74.6" y2="60.0" stroke="rgb(0,0,0)"  stroke-width="2.0"/>
<line x1="143.9" y1="100.0" x2="178.6" y2="120.0" stroke="rgb(0,0,0)"  stroke-width="2.0"/>
<line x1="178.6" y1="120.0" x2="201.9" y2="106.5" stroke="rgb(0,0,0)"  stroke-width="2.0"/>
<line x1="252.7" y1="115.6" x2="252.4" y2="143.3" stroke="rgb(0,0,0)"  stroke-width="2.0"/>
<line x1="246.8" y1="116.9" x2="258.3" y2="142.1" stroke="rgb(0,0,0)"  stroke-width="2.0"/>
<line x1="248.4" y1="164.1" x2="238.0" y2="173.5" stroke="rgb(0,0,0)"  stroke-width="2.0"/>
<line x1="215.0" y1="181.0" x2="201.7" y2="176.7" stroke="rgb(0,0,0)"  stroke-width="2.0"/>
<line x1="216.9" y1="175.3" x2="203.6" y2="171.0" stroke="rgb(0,0,0)"  stroke-width="2.0"/>
<line x1="234.0" y1="194.3" x2="236.9" y2="207.9" stroke="rgb(0,0,0)"  stroke-width="2.0"/>
<line x1="228.1" y1="195.5" x2="231.0" y2="209.2" stroke="rgb(0,0,0)"  stroke-width="2.0"/>
<line x1="143.9" y1="60.0" x2="143.9" y2="100.0" stroke="rgb(0,0,0)"  stroke-width="2.0"/>
<line x1="136.7" y1="66.0" x2="136.7" y2="94.0" stroke="rgb(0,0,0)"  stroke-width="2.0"/>
<line x1="143.9" y1="100.0" x2="109.3" y2="120.0" stroke="rgb(0,0,0)"  stroke-width="2.0"/>
<line x1="109.3" y1="120.0" x2="86.1" y2="106.6" stroke="rgb(0,0,0)"  stroke-width="2.0"/>
<line x1="107.7" y1="110.8" x2="91.4" y2="101.4" stroke="rgb(0,0,0)"  stroke-width="2.0"/>
<line x1="74.6" y1="87.0" x2="74.6" y2="60.0" stroke="rgb(0,0,0)"  stroke-width="2.0"/>
<line x1="74.6" y1="60.0" x2="109.3" y2="40.0" stroke="rgb(0,0,0)"  stroke-width="2.0"/>
<line x1="83.4" y1="63.2" x2="107.7" y2="49.2" stroke="rgb(0,0,0)"  stroke-width="2.0"/>
<line x1="109.3" y1="40.0" x2="143.9" y2="60.0" stroke="rgb(0,0,0)"  stroke-width="2.0"/>
<line x1="256.5" y1="51.9" x2="270.0" y2="75.3" stroke="rgb(0,0,0)"  stroke-width="2.0"/>
<line x1="267.8" y1="96.2" x2="249.7" y2="116.3" stroke="rgb(0,0,0)"  stroke-width="2.0"/>
<line x1="249.7" y1="116.3" x2="225.1" y2="105.3" stroke="rgb(0,0,0)"  stroke-width="2.0"/>
<line x1="214.6" y1="87.1" x2="217.4" y2="60.2" stroke="rgb(0,0,0)"  stroke-width="2.0"/>
<line x1="217.4" y1="60.2" x2="256.5" y2="51.9" stroke="rgb(0,0,0)"  stroke-width="2.0"/>
<text x="207.205081" y="108.000000" fill="rgb(12,12,255)"  stroke="rgb(12,12,255)" stroke-width="1" font-size="16" >N</text>
<text x="230.654041" y="229.286498" fill="rgb(255,12,12)"  stroke="rgb(255,12,12)" stroke-width="1" font-size="16" >O</text>
<text x="184.295313" y="177.799914" fill="rgb(255,12,12)"  stroke="rgb(255,12,12)" stroke-width="1" font-size="16" >O</text>
<text x="222.337574" y="190.160594" fill="rgb(12,12,255)"  stroke="rgb(12,12,255)" stroke-width="1" font-size="16" >N</text>
<text x="252.063367" y="163.395370" fill="rgb(12,12,255)"  stroke="rgb(12,12,255)" stroke-width="1" font-size="16" >N</text>
<text x="270.512123" y="94.543673" fill="rgb(12,12,255)"  stroke="rgb(12,12,255)" stroke-width="1" font-size="16" >NH</text>
<text x="22.000000" y="48.000000" fill="rgb(30,239,30)"  stroke="rgb(30,239,30)" stroke-width="1" font-size="16" >Cl</text>
<text x="68.641016" y="108.000000" fill="rgb(12,12,255)"  stroke="rgb(12,12,255)" stroke-width="1" font-size="16" >N</text>
</svg>
</g>
<text font-size="18.000000" fill ="black" font-family="sans-serif"
x="10.000000" y="20.000000" ></text>
</svg>
