<?xml version="1.0"?>
<svg version="1.1" id="topsvg"
xmlns="http://www.w3.org/2000/svg" xmlns:xlink="http://www.w3.org/1999/xlink"
xmlns:cml="http://www.xml-cml.org/schema" x="0" y="0" width="200px" height="200px" viewBox="0 0 100 100">
<title> - Open Babel Depiction</title>
<rect x="0" y="0" width="100" height="100" fill="white"/>
<g transform="translate(0,0)">
<svg width="100" height="100" x="0" y="0" viewBox="0 0 240 160"
font-family="sans-serif" stroke="rgb(0,0,0)" stroke-width="2"  stroke-linecap="round">
<line x1="160.0" y1="107.0" x2="160.0" y2="93.0" stroke="rgb(0,0,0)"  stroke-width="2.0"/>
<line x1="173.0" y1="80.0" x2="187.0" y2="80.0" stroke="rgb(0,0,0)"  stroke-width="2.0"/>
<line x1="157.0" y1="67.0" x2="157.0" y2="53.0" stroke="rgb(0,0,0)"  stroke-width="2.0"/>
<line x1="163.0" y1="67.0" x2="163.0" y2="53.0" stroke="rgb(0,0,0)"  stroke-width="2.0"/>
<line x1="147.0" y1="80.0" x2="120.0" y2="80.0" stroke="rgb(0,0,0)"  stroke-width="2.0"/>
<line x1="60.0" y1="114.6" x2="40.0" y2="80.0" stroke="rgb(0,0,0)"  stroke-width="2.0"/>
<line x1="63.2" y1="105.8" x2="49.2" y2="81.6" stroke="rgb(0,0,0)"  stroke-width="2.0"/>
<line x1="40.0" y1="80.0" x2="60.0" y2="45.4" stroke="rgb(0,0,0)"  stroke-width="2.0"/>
<line x1="60.0" y1="45.4" x2="100.0" y2="45.4" stroke="rgb(0,0,0)"  stroke-width="2.0"/>
<line x1="66.0" y1="52.6" x2="94.0" y2="52.6" stroke="rgb(0,0,0)"  stroke-width="2.0"/>
<line x1="100.0" y1="45.4" x2="120.0" y2="80.0" stroke="rgb(0,0,0)"  stroke-width="2.0"/>
<line x1="120.0" y1="80.0" x2="100.0" y2="114.6" stroke="rgb(0,0,0)"  stroke-width="2.0"/>
<line x1="110.8" y1="81.6" x2="96.8" y2="105.8" stroke="rgb(0,0,0)"  stroke-width="2.0"/>
<line x1="100.0" y1="114.6" x2="60.0" y2="114.6" stroke="rgb(0,0,0)"  stroke-width="2.0"/>
<text x="154.000000" y="128.000000" fill="rgb(255,12,12)"  stroke="rgb(255,12,12)" stroke-width="1" font-size="16" >OH</text>
<text x="154.000000" y="88.000000" fill="rgb(255,127,0)"  stroke="rgb(255,127,0)" stroke-width="1" font-size="16" >P</text>
<text x="194.000000" y="88.000000" fill="rgb(255,12,12)"  stroke="rgb(255,12,12)" stroke-width="1" font-size="16" >OH</text>
<text x="154.000000" y="48.000000" fill="rgb(255,12,12)"  stroke="rgb(255,12,12)" stroke-width="1" font-size="16" >O</text>
</svg>
</g>
<text font-size="18.000000" fill ="black" font-family="sans-serif"
x="10.000000" y="20.000000" ></text>
</svg>
