<?xml version="1.0"?>
<svg version="1.1" id="topsvg"
xmlns="http://www.w3.org/2000/svg" xmlns:xlink="http://www.w3.org/1999/xlink"
xmlns:cml="http://www.xml-cml.org/schema" x="0" y="0" width="200px" height="200px" viewBox="0 0 100 100">
<title> - Open Babel Depiction</title>
<rect x="0" y="0" width="100" height="100" fill="white"/>
<g transform="translate(0,0)">
<svg width="100" height="100" x="0" y="0" viewBox="0 0 400.118 200"
font-family="sans-serif" stroke="rgb(0,0,0)" stroke-width="2"  stroke-linecap="round">
<line x1="113.5" y1="62.0" x2="100.0" y2="85.4" stroke="rgb(0,0,0)"  stroke-width="2.0"/>
<line x1="120.0" y1="120.0" x2="160.0" y2="120.0" stroke="rgb(0,0,0)"  stroke-width="2.0"/>
<line x1="290.8" y1="100.0" x2="325.5" y2="80.0" stroke="rgb(0,0,0)"  stroke-width="2.0"/>
<line x1="325.5" y1="80.0" x2="348.9" y2="93.5" stroke="rgb(0,0,0)"  stroke-width="2.0"/>
<line x1="322.5" y1="80.0" x2="322.5" y2="53.0" stroke="rgb(0,0,0)"  stroke-width="2.0"/>
<line x1="328.5" y1="80.0" x2="328.5" y2="53.0" stroke="rgb(0,0,0)"  stroke-width="2.0"/>
<line x1="221.6" y1="100.0" x2="221.6" y2="140.0" stroke="rgb(0,0,0)"  stroke-width="2.0"/>
<line x1="214.4" y1="106.0" x2="214.4" y2="134.0" stroke="rgb(0,0,0)"  stroke-width="2.0"/>
<line x1="221.6" y1="140.0" x2="195.9" y2="148.3" stroke="rgb(0,0,0)"  stroke-width="2.0"/>
<line x1="175.9" y1="141.8" x2="160.0" y2="120.0" stroke="rgb(0,0,0)"  stroke-width="2.0"/>
<line x1="160.0" y1="120.0" x2="183.5" y2="87.6" stroke="rgb(0,0,0)"  stroke-width="2.0"/>
<line x1="169.4" y1="119.4" x2="185.8" y2="96.7" stroke="rgb(0,0,0)"  stroke-width="2.0"/>
<line x1="183.5" y1="87.6" x2="221.6" y2="100.0" stroke="rgb(0,0,0)"  stroke-width="2.0"/>
<line x1="100.0" y1="154.6" x2="60.0" y2="154.6" stroke="rgb(0,0,0)"  stroke-width="2.0"/>
<line x1="94.0" y1="147.4" x2="66.0" y2="147.4" stroke="rgb(0,0,0)"  stroke-width="2.0"/>
<line x1="60.0" y1="154.6" x2="40.0" y2="120.0" stroke="rgb(0,0,0)"  stroke-width="2.0"/>
<line x1="40.0" y1="120.0" x2="60.0" y2="85.4" stroke="rgb(0,0,0)"  stroke-width="2.0"/>
<line x1="49.2" y1="118.4" x2="63.2" y2="94.2" stroke="rgb(0,0,0)"  stroke-width="2.0"/>
<line x1="60.0" y1="85.4" x2="100.0" y2="85.4" stroke="rgb(0,0,0)"  stroke-width="2.0"/>
<line x1="100.0" y1="85.4" x2="120.0" y2="120.0" stroke="rgb(0,0,0)"  stroke-width="2.0"/>
<line x1="96.8" y1="94.2" x2="110.8" y2="118.4" stroke="rgb(0,0,0)"  stroke-width="2.0"/>
<line x1="120.0" y1="120.0" x2="100.0" y2="154.6" stroke="rgb(0,0,0)"  stroke-width="2.0"/>
<line x1="290.8" y1="100.0" x2="290.8" y2="140.0" stroke="rgb(0,0,0)"  stroke-width="2.0"/>
<line x1="290.8" y1="140.0" x2="256.2" y2="160.0" stroke="rgb(0,0,0)"  stroke-width="2.0"/>
<line x1="282.0" y1="136.8" x2="257.8" y2="150.8" stroke="rgb(0,0,0)"  stroke-width="2.0"/>
<line x1="256.2" y1="160.0" x2="221.6" y2="140.0" stroke="rgb(0,0,0)"  stroke-width="2.0"/>
<line x1="221.6" y1="100.0" x2="256.2" y2="80.0" stroke="rgb(0,0,0)"  stroke-width="2.0"/>
<line x1="256.2" y1="80.0" x2="290.8" y2="100.0" stroke="rgb(0,0,0)"  stroke-width="2.0"/>
<line x1="257.8" y1="89.2" x2="282.0" y2="103.2" stroke="rgb(0,0,0)"  stroke-width="2.0"/>
<text x="319.476719" y="48.000000" fill="rgb(12,12,255)"  stroke="rgb(12,12,255)" stroke-width="1" font-size="16" >NH</text>
<text x="356.117735" y="108.000000" fill="rgb(12,12,255)"  stroke="rgb(12,12,255)" stroke-width="1" font-size="16" >NH</text>
<text x="380.117735" y="111.680000" fill="rgb(12,12,255)"  stroke="rgb(12,12,255)" stroke-width="1" font-size="13" >2</text>
<text x="177.511410" y="160.360680" fill="rgb(12,12,255)"  stroke="rgb(12,12,255)" stroke-width="1" font-size="16" >N</text>
<text x="177.511410" y="176.360680" fill="rgb(12,12,255)"  stroke="rgb(12,12,255)" stroke-width="1" font-size="16" >H</text>
<text x="116.000000" y="58.717968" fill="rgb(102,102,102)"  stroke="rgb(102,102,102)" stroke-width="1" font-size="16" >CH</text>
<text x="140.000000" y="62.397968" fill="rgb(102,102,102)"  stroke="rgb(102,102,102)" stroke-width="1" font-size="13" >3</text>
</svg>
</g>
<text font-size="18.000000" fill ="black" font-family="sans-serif"
x="10.000000" y="20.000000" ></text>
</svg>
