<?xml version="1.0"?>
<svg version="1.1" id="topsvg"
xmlns="http://www.w3.org/2000/svg" xmlns:xlink="http://www.w3.org/1999/xlink"
xmlns:cml="http://www.xml-cml.org/schema" x="0" y="0" width="200px" height="200px" viewBox="0 0 100 100">
<title> - Open Babel Depiction</title>
<rect x="0" y="0" width="100" height="100" fill="white"/>
<g transform="translate(0,0)">
<svg width="100" height="100" x="0" y="0" viewBox="0 0 238.811 238.719"
font-family="sans-serif" stroke="rgb(0,0,0)" stroke-width="2"  stroke-linecap="round">
<line x1="186.1" y1="42.7" x2="159.7" y2="48.3" stroke="rgb(0,0,0)"  stroke-width="2.0"/>
<line x1="159.7" y1="48.3" x2="151.3" y2="74.0" stroke="rgb(0,0,0)"  stroke-width="2.0"/>
<line x1="77.6" y1="158.7" x2="77.6" y2="185.7" stroke="rgb(0,0,0)"  stroke-width="2.0"/>
<line x1="71.6" y1="158.7" x2="71.6" y2="185.7" stroke="rgb(0,0,0)"  stroke-width="2.0"/>
<line x1="135.0" y1="147.1" x2="109.3" y2="138.7" stroke="rgb(0,0,0)"  stroke-width="2.0"/>
<line x1="109.3" y1="138.7" x2="109.3" y2="98.7" stroke="rgb(0,0,0)"  stroke-width="2.0"/>
<line x1="116.5" y1="132.7" x2="116.5" y2="104.7" stroke="rgb(0,0,0)"  stroke-width="2.0"/>
<line x1="109.3" y1="98.7" x2="135.0" y2="90.4" stroke="rgb(0,0,0)"  stroke-width="2.0"/>
<line x1="155.0" y1="96.9" x2="170.8" y2="118.7" stroke="rgb(0,0,0)"  stroke-width="2.0"/>
<line x1="170.8" y1="118.7" x2="155.1" y2="140.4" stroke="rgb(0,0,0)"  stroke-width="2.0"/>
<line x1="161.5" y1="119.3" x2="150.4" y2="134.6" stroke="rgb(0,0,0)"  stroke-width="2.0"/>
<line x1="40.0" y1="125.7" x2="40.0" y2="98.7" stroke="rgb(0,0,0)"  stroke-width="2.0"/>
<line x1="40.0" y1="98.7" x2="63.2" y2="85.3" stroke="rgb(0,0,0)"  stroke-width="2.0"/>
<line x1="48.8" y1="102.0" x2="65.1" y2="92.6" stroke="rgb(0,0,0)"  stroke-width="2.0"/>
<line x1="85.9" y1="85.2" x2="109.3" y2="98.7" stroke="rgb(0,0,0)"  stroke-width="2.0"/>
<line x1="109.3" y1="138.7" x2="74.6" y2="158.7" stroke="rgb(0,0,0)"  stroke-width="2.0"/>
<line x1="74.6" y1="158.7" x2="51.3" y2="145.2" stroke="rgb(0,0,0)"  stroke-width="2.0"/>
<text x="194.810877" y="48.000000" fill="rgb(102,102,102)"  stroke="rgb(102,102,102)" stroke-width="1" font-size="16" >CH</text>
<text x="218.810877" y="51.680000" fill="rgb(102,102,102)"  stroke="rgb(102,102,102)" stroke-width="1" font-size="13" >3</text>
<text x="141.324293" y="94.358728" fill="rgb(12,12,255)"  stroke="rgb(12,12,255)" stroke-width="1" font-size="16" >N</text>
<text x="141.324293" y="159.080088" fill="rgb(12,12,255)"  stroke="rgb(12,12,255)" stroke-width="1" font-size="16" >N</text>
<text x="68.641016" y="86.719408" fill="rgb(12,12,255)"  stroke="rgb(12,12,255)" stroke-width="1" font-size="16" >N</text>
<text x="22.000000" y="146.719408" fill="rgb(12,12,255)"  stroke="rgb(12,12,255)" stroke-width="1" font-size="16" >HN</text>
<text x="68.641016" y="206.719408" fill="rgb(255,12,12)"  stroke="rgb(255,12,12)" stroke-width="1" font-size="16" >O</text>
</svg>
</g>
<text font-size="18.000000" fill ="black" font-family="sans-serif"
x="10.000000" y="20.000000" ></text>
</svg>
