<?xml version="1.0"?>
<svg version="1.1" id="topsvg"
xmlns="http://www.w3.org/2000/svg" xmlns:xlink="http://www.w3.org/1999/xlink"
xmlns:cml="http://www.xml-cml.org/schema" x="0" y="0" width="200px" height="200px" viewBox="0 0 100 100">
<title> - Open Babel Depiction</title>
<rect x="0" y="0" width="100" height="100" fill="white"/>
<g transform="translate(0,0)">
<svg width="100" height="100" x="0" y="0" viewBox="0 0 389.736 304.53"
font-family="sans-serif" stroke="rgb(0,0,0)" stroke-width="2"  stroke-linecap="round">
<line x1="51.3" y1="198.0" x2="74.6" y2="184.5" stroke="rgb(0,0,0)"  stroke-width="2.0"/>
<line x1="143.9" y1="184.5" x2="178.6" y2="204.5" stroke="rgb(0,0,0)"  stroke-width="2.0"/>
<line x1="285.9" y1="192.2" x2="298.2" y2="154.1" stroke="rgb(0,0,0)"  stroke-width="2.0"/>
<line x1="323.0" y1="78.0" x2="331.3" y2="52.4" stroke="rgb(0,0,0)"  stroke-width="2.0"/>
<line x1="301.8" y1="235.0" x2="293.5" y2="246.4" stroke="rgb(0,0,0)"  stroke-width="2.0"/>
<line x1="273.3" y1="252.8" x2="247.8" y2="244.5" stroke="rgb(0,0,0)"  stroke-width="2.0"/>
<line x1="273.7" y1="245.3" x2="255.8" y2="239.5" stroke="rgb(0,0,0)"  stroke-width="2.0"/>
<line x1="247.8" y1="244.5" x2="247.8" y2="204.5" stroke="rgb(0,0,0)"  stroke-width="2.0"/>
<line x1="247.8" y1="204.5" x2="285.9" y2="192.2" stroke="rgb(0,0,0)"  stroke-width="2.0"/>
<line x1="255.8" y1="209.5" x2="282.4" y2="200.9" stroke="rgb(0,0,0)"  stroke-width="2.0"/>
<line x1="285.9" y1="192.2" x2="301.8" y2="214.0" stroke="rgb(0,0,0)"  stroke-width="2.0"/>
<line x1="109.3" y1="124.5" x2="143.9" y2="144.5" stroke="rgb(0,0,0)"  stroke-width="2.0"/>
<line x1="110.9" y1="133.8" x2="135.1" y2="147.8" stroke="rgb(0,0,0)"  stroke-width="2.0"/>
<line x1="143.9" y1="144.5" x2="143.9" y2="184.5" stroke="rgb(0,0,0)"  stroke-width="2.0"/>
<line x1="143.9" y1="184.5" x2="120.7" y2="197.9" stroke="rgb(0,0,0)"  stroke-width="2.0"/>
<line x1="135.1" y1="181.3" x2="118.8" y2="190.7" stroke="rgb(0,0,0)"  stroke-width="2.0"/>
<line x1="98.0" y1="198.0" x2="74.6" y2="184.5" stroke="rgb(0,0,0)"  stroke-width="2.0"/>
<line x1="74.6" y1="184.5" x2="74.6" y2="157.7" stroke="rgb(0,0,0)"  stroke-width="2.0"/>
<line x1="81.8" y1="178.5" x2="81.8" y2="159.7" stroke="rgb(0,0,0)"  stroke-width="2.0"/>
<line x1="85.9" y1="138.0" x2="109.3" y2="124.5" stroke="rgb(0,0,0)"  stroke-width="2.0"/>
<line x1="247.8" y1="244.5" x2="213.2" y2="264.5" stroke="rgb(0,0,0)"  stroke-width="2.0"/>
<line x1="213.2" y1="264.5" x2="178.6" y2="244.5" stroke="rgb(0,0,0)"  stroke-width="2.0"/>
<line x1="211.6" y1="255.3" x2="187.4" y2="241.3" stroke="rgb(0,0,0)"  stroke-width="2.0"/>
<line x1="178.6" y1="244.5" x2="178.6" y2="204.5" stroke="rgb(0,0,0)"  stroke-width="2.0"/>
<line x1="178.6" y1="204.5" x2="213.2" y2="184.5" stroke="rgb(0,0,0)"  stroke-width="2.0"/>
<line x1="187.4" y1="207.8" x2="211.6" y2="193.8" stroke="rgb(0,0,0)"  stroke-width="2.0"/>
<line x1="213.2" y1="184.5" x2="247.8" y2="204.5" stroke="rgb(0,0,0)"  stroke-width="2.0"/>
<line x1="283.8" y1="86.4" x2="323.0" y2="78.0" stroke="rgb(0,0,0)"  stroke-width="2.0"/>
<line x1="291.2" y1="92.2" x2="318.6" y2="86.3" stroke="rgb(0,0,0)"  stroke-width="2.0"/>
<line x1="323.0" y1="78.0" x2="349.7" y2="107.8" stroke="rgb(0,0,0)"  stroke-width="2.0"/>
<line x1="349.7" y1="107.8" x2="337.4" y2="145.8" stroke="rgb(0,0,0)"  stroke-width="2.0"/>
<line x1="341.0" y1="111.2" x2="332.4" y2="137.9" stroke="rgb(0,0,0)"  stroke-width="2.0"/>
<line x1="337.4" y1="145.8" x2="298.2" y2="154.1" stroke="rgb(0,0,0)"  stroke-width="2.0"/>
<line x1="298.2" y1="154.1" x2="271.5" y2="124.4" stroke="rgb(0,0,0)"  stroke-width="2.0"/>
<line x1="299.6" y1="144.9" x2="280.8" y2="124.0" stroke="rgb(0,0,0)"  stroke-width="2.0"/>
<line x1="271.5" y1="124.4" x2="283.8" y2="86.4" stroke="rgb(0,0,0)"  stroke-width="2.0"/>
<text x="303.399768" y="232.529722" fill="rgb(255,12,12)"  stroke="rgb(255,12,12)" stroke-width="1" font-size="16" >O</text>
<text x="329.331077" y="48.000000" fill="rgb(30,239,30)"  stroke="rgb(30,239,30)" stroke-width="1" font-size="16" >Cl</text>
<text x="279.888358" y="264.890402" fill="rgb(12,12,255)"  stroke="rgb(12,12,255)" stroke-width="1" font-size="16" >N</text>
<text x="14.000000" y="212.529722" fill="rgb(12,12,255)"  stroke="rgb(12,12,255)" stroke-width="1" font-size="16" >H</text>
<text x="26.000000" y="216.209722" fill="rgb(12,12,255)"  stroke="rgb(12,12,255)" stroke-width="1" font-size="13" >2</text>
<text x="32.500000" y="212.529722" fill="rgb(12,12,255)"  stroke="rgb(12,12,255)" stroke-width="1" font-size="16" >N</text>
<text x="103.282032" y="212.529722" fill="rgb(12,12,255)"  stroke="rgb(12,12,255)" stroke-width="1" font-size="16" >N</text>
<text x="68.641016" y="152.529722" fill="rgb(12,12,255)"  stroke="rgb(12,12,255)" stroke-width="1" font-size="16" >N</text>
</svg>
</g>
<text font-size="18.000000" fill ="black" font-family="sans-serif"
x="10.000000" y="20.000000" ></text>
</svg>
