<?xml version="1.0"?>
<svg version="1.1" id="topsvg"
xmlns="http://www.w3.org/2000/svg" xmlns:xlink="http://www.w3.org/1999/xlink"
xmlns:cml="http://www.xml-cml.org/schema" x="0" y="0" width="200px" height="200px" viewBox="0 0 100 100">
<title> - Open Babel Depiction</title>
<rect x="0" y="0" width="100" height="100" fill="white"/>
<g transform="translate(0,0)">
<svg width="100" height="100" x="0" y="0" viewBox="0 0 333.358 250.177"
font-family="sans-serif" stroke="rgb(0,0,0)" stroke-width="2"  stroke-linecap="round">
<line x1="124.3" y1="197.8" x2="128.6" y2="184.5" stroke="rgb(0,0,0)"  stroke-width="2.0"/>
<line x1="124.0" y1="162.5" x2="105.9" y2="142.4" stroke="rgb(0,0,0)"  stroke-width="2.0"/>
<line x1="154.8" y1="88.1" x2="189.4" y2="108.1" stroke="rgb(0,0,0)"  stroke-width="2.0"/>
<line x1="258.7" y1="108.1" x2="282.1" y2="94.6" stroke="rgb(0,0,0)"  stroke-width="2.0"/>
<line x1="150.6" y1="48.3" x2="124.2" y2="42.7" stroke="rgb(0,0,0)"  stroke-width="2.0"/>
<line x1="105.0" y1="51.3" x2="91.5" y2="74.6" stroke="rgb(0,0,0)"  stroke-width="2.0"/>
<line x1="91.5" y1="74.6" x2="118.3" y2="104.4" stroke="rgb(0,0,0)"  stroke-width="2.0"/>
<line x1="118.3" y1="104.4" x2="154.8" y2="88.1" stroke="rgb(0,0,0)"  stroke-width="2.0"/>
<line x1="154.8" y1="88.1" x2="150.6" y2="48.3" stroke="rgb(0,0,0)"  stroke-width="2.0"/>
<line x1="147.0" y1="82.9" x2="144.1" y2="55.0" stroke="rgb(0,0,0)"  stroke-width="2.0"/>
<line x1="91.5" y1="74.6" x2="65.3" y2="80.2" stroke="rgb(0,0,0)"  stroke-width="2.0"/>
<line x1="87.1" y1="82.9" x2="68.7" y2="86.8" stroke="rgb(0,0,0)"  stroke-width="2.0"/>
<line x1="48.3" y1="95.3" x2="40.0" y2="121.0" stroke="rgb(0,0,0)"  stroke-width="2.0"/>
<line x1="40.0" y1="121.0" x2="66.8" y2="150.7" stroke="rgb(0,0,0)"  stroke-width="2.0"/>
<line x1="49.4" y1="120.6" x2="68.1" y2="141.4" stroke="rgb(0,0,0)"  stroke-width="2.0"/>
<line x1="66.8" y1="150.7" x2="105.9" y2="142.4" stroke="rgb(0,0,0)"  stroke-width="2.0"/>
<line x1="105.9" y1="142.4" x2="118.3" y2="104.4" stroke="rgb(0,0,0)"  stroke-width="2.0"/>
<line x1="100.9" y1="134.5" x2="109.6" y2="107.8" stroke="rgb(0,0,0)"  stroke-width="2.0"/>
<line x1="258.7" y1="108.1" x2="258.7" y2="134.9" stroke="rgb(0,0,0)"  stroke-width="2.0"/>
<line x1="251.5" y1="114.1" x2="251.5" y2="132.9" stroke="rgb(0,0,0)"  stroke-width="2.0"/>
<line x1="247.5" y1="154.6" x2="224.1" y2="168.1" stroke="rgb(0,0,0)"  stroke-width="2.0"/>
<line x1="224.1" y1="168.1" x2="189.4" y2="148.1" stroke="rgb(0,0,0)"  stroke-width="2.0"/>
<line x1="222.5" y1="158.9" x2="198.2" y2="144.9" stroke="rgb(0,0,0)"  stroke-width="2.0"/>
<line x1="189.4" y1="148.1" x2="189.4" y2="108.1" stroke="rgb(0,0,0)"  stroke-width="2.0"/>
<line x1="189.4" y1="108.1" x2="212.6" y2="94.7" stroke="rgb(0,0,0)"  stroke-width="2.0"/>
<line x1="198.2" y1="111.3" x2="214.5" y2="101.9" stroke="rgb(0,0,0)"  stroke-width="2.0"/>
<line x1="235.3" y1="94.6" x2="258.7" y2="108.1" stroke="rgb(0,0,0)"  stroke-width="2.0"/>
<text x="218.075659" y="96.097343" fill="rgb(12,12,255)"  stroke="rgb(12,12,255)" stroke-width="1" font-size="16" >N</text>
<text x="46.360680" y="90.957484" fill="rgb(12,12,255)"  stroke="rgb(12,12,255)" stroke-width="1" font-size="16" >N</text>
<text x="252.716675" y="156.097343" fill="rgb(12,12,255)"  stroke="rgb(12,12,255)" stroke-width="1" font-size="16" >N</text>
<text x="289.357691" y="96.097343" fill="rgb(12,12,255)"  stroke="rgb(12,12,255)" stroke-width="1" font-size="16" >NH</text>
<text x="313.357691" y="99.777343" fill="rgb(12,12,255)"  stroke="rgb(12,12,255)" stroke-width="1" font-size="13" >2</text>
<text x="94.295673" y="218.177123" fill="rgb(102,102,102)"  stroke="rgb(102,102,102)" stroke-width="1" font-size="16" >H</text>
<text x="106.295673" y="221.857123" fill="rgb(102,102,102)"  stroke="rgb(102,102,102)" stroke-width="1" font-size="13" >3</text>
<text x="112.795673" y="218.177123" fill="rgb(102,102,102)"  stroke="rgb(102,102,102)" stroke-width="1" font-size="16" >C</text>
<text x="105.486584" y="48.000000" fill="rgb(12,12,255)"  stroke="rgb(12,12,255)" stroke-width="1" font-size="16" >N</text>
<text x="105.486584" y="32.000000" fill="rgb(12,12,255)"  stroke="rgb(12,12,255)" stroke-width="1" font-size="16" >H</text>
<text x="126.656353" y="180.134863" fill="rgb(255,12,12)"  stroke="rgb(255,12,12)" stroke-width="1" font-size="16" >O</text>
</svg>
</g>
<text font-size="18.000000" fill ="black" font-family="sans-serif"
x="10.000000" y="20.000000" ></text>
</svg>
