<?xml version="1.0"?>
<svg version="1.1" id="topsvg"
xmlns="http://www.w3.org/2000/svg" xmlns:xlink="http://www.w3.org/1999/xlink"
xmlns:cml="http://www.xml-cml.org/schema" x="0" y="0" width="200px" height="200px" viewBox="0 0 100 100">
<title> - Open Babel Depiction</title>
<rect x="0" y="0" width="100" height="100" fill="white"/>
<g transform="translate(0,0)">
<svg width="100" height="100" x="0" y="0" viewBox="0 0 183.923 320"
font-family="sans-serif" stroke="rgb(0,0,0)" stroke-width="2"  stroke-linecap="round">
<line x1="85.9" y1="273.5" x2="109.3" y2="260.0" stroke="rgb(0,0,0)"  stroke-width="2.0"/>
<line x1="110.8" y1="257.4" x2="134.2" y2="270.9" stroke="rgb(0,0,0)"  stroke-width="2.0"/>
<line x1="107.8" y1="262.6" x2="131.2" y2="276.1" stroke="rgb(0,0,0)"  stroke-width="2.0"/>
<line x1="109.3" y1="260.0" x2="109.3" y2="220.0" stroke="rgb(0,0,0)"  stroke-width="2.0"/>
<line x1="109.3" y1="140.0" x2="109.3" y2="113.0" stroke="rgb(0,0,0)"  stroke-width="2.0"/>
<line x1="98.0" y1="93.5" x2="74.6" y2="80.0" stroke="rgb(0,0,0)"  stroke-width="2.0"/>
<line x1="74.6" y1="80.0" x2="74.6" y2="53.0" stroke="rgb(0,0,0)"  stroke-width="2.0"/>
<line x1="76.1" y1="82.6" x2="52.8" y2="96.1" stroke="rgb(0,0,0)"  stroke-width="2.0"/>
<line x1="73.1" y1="77.4" x2="49.8" y2="90.9" stroke="rgb(0,0,0)"  stroke-width="2.0"/>
<line x1="74.6" y1="160.0" x2="109.3" y2="140.0" stroke="rgb(0,0,0)"  stroke-width="2.0"/>
<line x1="83.4" y1="163.2" x2="107.7" y2="149.2" stroke="rgb(0,0,0)"  stroke-width="2.0"/>
<line x1="109.3" y1="140.0" x2="143.9" y2="160.0" stroke="rgb(0,0,0)"  stroke-width="2.0"/>
<line x1="143.9" y1="160.0" x2="143.9" y2="200.0" stroke="rgb(0,0,0)"  stroke-width="2.0"/>
<line x1="136.7" y1="166.0" x2="136.7" y2="194.0" stroke="rgb(0,0,0)"  stroke-width="2.0"/>
<line x1="143.9" y1="200.0" x2="109.3" y2="220.0" stroke="rgb(0,0,0)"  stroke-width="2.0"/>
<line x1="109.3" y1="220.0" x2="74.6" y2="200.0" stroke="rgb(0,0,0)"  stroke-width="2.0"/>
<line x1="107.7" y1="210.8" x2="83.4" y2="196.8" stroke="rgb(0,0,0)"  stroke-width="2.0"/>
<line x1="74.6" y1="200.0" x2="74.6" y2="160.0" stroke="rgb(0,0,0)"  stroke-width="2.0"/>
<text x="56.641016" y="288.000000" fill="rgb(255,12,12)"  stroke="rgb(255,12,12)" stroke-width="1" font-size="16" >HO</text>
<text x="137.923048" y="288.000000" fill="rgb(255,12,12)"  stroke="rgb(255,12,12)" stroke-width="1" font-size="16" >O</text>
<text x="103.282032" y="108.000000" fill="rgb(12,12,255)"  stroke="rgb(12,12,255)" stroke-width="1" font-size="16" >NH</text>
<text x="70.641016" y="48.000000" fill="rgb(102,102,102)"  stroke="rgb(102,102,102)" stroke-width="1" font-size="16" >CH</text>
<text x="94.641016" y="51.680000" fill="rgb(102,102,102)"  stroke="rgb(102,102,102)" stroke-width="1" font-size="13" >3</text>
<text x="34.000000" y="108.000000" fill="rgb(255,12,12)"  stroke="rgb(255,12,12)" stroke-width="1" font-size="16" >O</text>
</svg>
</g>
<text font-size="18.000000" fill ="black" font-family="sans-serif"
x="10.000000" y="20.000000" ></text>
</svg>
