<?xml version="1.0"?>
<svg version="1.1" id="topsvg"
xmlns="http://www.w3.org/2000/svg" xmlns:xlink="http://www.w3.org/1999/xlink"
xmlns:cml="http://www.xml-cml.org/schema" x="0" y="0" width="200px" height="200px" viewBox="0 0 100 100">
<title> - Open Babel Depiction</title>
<rect x="0" y="0" width="100" height="100" fill="white"/>
<g transform="translate(0,0)">
<svg width="100" height="100" x="0" y="0" viewBox="0 0 301.911 251.818"
font-family="sans-serif" stroke="rgb(0,0,0)" stroke-width="2"  stroke-linecap="round">
<line x1="189.8" y1="79.7" x2="197.6" y2="103.6" stroke="rgb(0,0,0)"  stroke-width="2.0"/>
<line x1="184.1" y1="81.5" x2="191.9" y2="105.5" stroke="rgb(0,0,0)"  stroke-width="2.0"/>
<line x1="232.8" y1="152.1" x2="253.2" y2="166.9" stroke="rgb(0,0,0)"  stroke-width="2.0"/>
<line x1="229.3" y1="157.0" x2="249.6" y2="171.8" stroke="rgb(0,0,0)"  stroke-width="2.0"/>
<line x1="172.3" y1="135.5" x2="106.1" y2="97.3" stroke="rgb(0,0,0)"  stroke-width="2.0"/>
<line x1="172.3" y1="135.5" x2="139.2" y2="154.5" stroke="rgb(0,0,0)"  stroke-width="2.0"/>
<line x1="40.0" y1="97.3" x2="40.0" y2="59.1" stroke="rgb(0,0,0)"  stroke-width="2.0"/>
<line x1="47.2" y1="91.3" x2="47.2" y2="65.1" stroke="rgb(0,0,0)"  stroke-width="2.0"/>
<line x1="40.0" y1="59.1" x2="73.1" y2="40.0" stroke="rgb(0,0,0)"  stroke-width="2.0"/>
<line x1="73.1" y1="40.0" x2="106.1" y2="59.1" stroke="rgb(0,0,0)"  stroke-width="2.0"/>
<line x1="74.7" y1="49.2" x2="97.3" y2="62.3" stroke="rgb(0,0,0)"  stroke-width="2.0"/>
<line x1="106.1" y1="59.1" x2="106.1" y2="97.3" stroke="rgb(0,0,0)"  stroke-width="2.0"/>
<line x1="106.1" y1="97.3" x2="73.1" y2="116.4" stroke="rgb(0,0,0)"  stroke-width="2.0"/>
<line x1="97.3" y1="94.0" x2="74.7" y2="107.1" stroke="rgb(0,0,0)"  stroke-width="2.0"/>
<line x1="73.1" y1="116.4" x2="40.0" y2="97.3" stroke="rgb(0,0,0)"  stroke-width="2.0"/>
<line x1="106.1" y1="211.8" x2="73.1" y2="192.7" stroke="rgb(0,0,0)"  stroke-width="2.0"/>
<line x1="104.5" y1="202.6" x2="81.9" y2="189.5" stroke="rgb(0,0,0)"  stroke-width="2.0"/>
<line x1="73.1" y1="192.7" x2="73.1" y2="154.5" stroke="rgb(0,0,0)"  stroke-width="2.0"/>
<line x1="73.1" y1="154.5" x2="106.1" y2="135.5" stroke="rgb(0,0,0)"  stroke-width="2.0"/>
<line x1="81.9" y1="157.8" x2="104.5" y2="144.7" stroke="rgb(0,0,0)"  stroke-width="2.0"/>
<line x1="106.1" y1="135.5" x2="139.2" y2="154.5" stroke="rgb(0,0,0)"  stroke-width="2.0"/>
<line x1="139.2" y1="154.5" x2="139.2" y2="192.7" stroke="rgb(0,0,0)"  stroke-width="2.0"/>
<line x1="132.0" y1="160.5" x2="132.0" y2="186.7" stroke="rgb(0,0,0)"  stroke-width="2.0"/>
<line x1="139.2" y1="192.7" x2="106.1" y2="211.8" stroke="rgb(0,0,0)"  stroke-width="2.0"/>
<line x1="231.0" y1="154.5" x2="207.1" y2="162.3" stroke="rgb(0,0,0)"  stroke-width="2.0"/>
<line x1="187.1" y1="155.8" x2="172.3" y2="135.5" stroke="rgb(0,0,0)"  stroke-width="2.0"/>
<line x1="172.3" y1="135.5" x2="194.7" y2="104.6" stroke="rgb(0,0,0)"  stroke-width="2.0"/>
<line x1="194.7" y1="104.6" x2="218.7" y2="112.3" stroke="rgb(0,0,0)"  stroke-width="2.0"/>
<line x1="231.0" y1="129.4" x2="231.0" y2="154.5" stroke="rgb(0,0,0)"  stroke-width="2.0"/>
<text x="176.909577" y="76.251739" fill="rgb(255,12,12)"  stroke="rgb(255,12,12)" stroke-width="1" font-size="16" >O</text>
<text x="188.708408" y="174.344285" fill="rgb(12,12,255)"  stroke="rgb(12,12,255)" stroke-width="1" font-size="16" >N</text>
<text x="188.708408" y="190.344285" fill="rgb(12,12,255)"  stroke="rgb(12,12,255)" stroke-width="1" font-size="16" >H</text>
<text x="255.911214" y="184.988164" fill="rgb(255,12,12)"  stroke="rgb(255,12,12)" stroke-width="1" font-size="16" >O</text>
<text x="225.021475" y="124.363636" fill="rgb(12,12,255)"  stroke="rgb(12,12,255)" stroke-width="1" font-size="16" >NH</text>
</svg>
</g>
<text font-size="18.000000" fill ="black" font-family="sans-serif"
x="10.000000" y="20.000000" ></text>
</svg>
