<?xml version="1.0"?>
<svg version="1.1" id="topsvg"
xmlns="http://www.w3.org/2000/svg" xmlns:xlink="http://www.w3.org/1999/xlink"
xmlns:cml="http://www.xml-cml.org/schema" x="0" y="0" width="200px" height="200px" viewBox="0 0 100 100">
<title> - Open Babel Depiction</title>
<rect x="0" y="0" width="100" height="100" fill="white"/>
<g transform="translate(0,0)">
<svg width="100" height="100" x="0" y="0" viewBox="0 0 391.769 500"
font-family="sans-serif" stroke="rgb(0,0,0)" stroke-width="2"  stroke-linecap="round">
<line x1="328.4" y1="453.5" x2="351.8" y2="440.0" stroke="rgb(0,0,0)"  stroke-width="2.0"/>
<line x1="351.8" y1="440.0" x2="351.8" y2="400.0" stroke="rgb(0,0,0)"  stroke-width="2.0"/>
<line x1="351.8" y1="400.0" x2="317.1" y2="380.0" stroke="rgb(0,0,0)"  stroke-width="2.0"/>
<line x1="317.1" y1="380.0" x2="317.1" y2="340.0" stroke="rgb(0,0,0)"  stroke-width="2.0"/>
<line x1="317.1" y1="340.0" x2="282.5" y2="320.0" stroke="rgb(0,0,0)"  stroke-width="2.0"/>
<line x1="282.5" y1="320.0" x2="282.5" y2="280.0" stroke="rgb(0,0,0)"  stroke-width="2.0"/>
<line x1="282.5" y1="280.0" x2="247.8" y2="260.0" stroke="rgb(0,0,0)"  stroke-width="2.0"/>
<line x1="247.8" y1="260.0" x2="247.8" y2="220.0" stroke="rgb(0,0,0)"  stroke-width="2.0"/>
<line x1="247.8" y1="220.0" x2="213.2" y2="200.0" stroke="rgb(0,0,0)"  stroke-width="2.0"/>
<line x1="213.2" y1="200.0" x2="213.2" y2="160.0" stroke="rgb(0,0,0)"  stroke-width="2.0"/>
<line x1="213.2" y1="160.0" x2="178.6" y2="140.0" stroke="rgb(0,0,0)"  stroke-width="2.0"/>
<line x1="178.6" y1="140.0" x2="178.6" y2="100.0" stroke="rgb(0,0,0)"  stroke-width="2.0"/>
<line x1="178.6" y1="100.0" x2="143.9" y2="80.0" stroke="rgb(0,0,0)"  stroke-width="2.0"/>
<line x1="140.9" y1="80.0" x2="140.9" y2="53.0" stroke="rgb(0,0,0)"  stroke-width="2.0"/>
<line x1="146.9" y1="80.0" x2="146.9" y2="53.0" stroke="rgb(0,0,0)"  stroke-width="2.0"/>
<line x1="143.9" y1="80.0" x2="120.5" y2="93.5" stroke="rgb(0,0,0)"  stroke-width="2.0"/>
<line x1="74.6" y1="160.0" x2="51.3" y2="146.5" stroke="rgb(0,0,0)"  stroke-width="2.0"/>
<line x1="40.0" y1="127.0" x2="40.0" y2="100.0" stroke="rgb(0,0,0)"  stroke-width="2.0"/>
<line x1="40.0" y1="100.0" x2="74.6" y2="80.0" stroke="rgb(0,0,0)"  stroke-width="2.0"/>
<line x1="74.6" y1="80.0" x2="98.0" y2="93.5" stroke="rgb(0,0,0)"  stroke-width="2.0"/>
<line x1="109.3" y1="113.0" x2="109.3" y2="140.0" stroke="rgb(0,0,0)"  stroke-width="2.0"/>
<line x1="109.3" y1="140.0" x2="74.6" y2="160.0" stroke="rgb(0,0,0)"  stroke-width="2.0"/>
<text x="34.000000" y="148.000000" fill="rgb(255,12,12)"  stroke="rgb(255,12,12)" stroke-width="1" font-size="16" >O</text>
<text x="103.282032" y="108.000000" fill="rgb(12,12,255)"  stroke="rgb(12,12,255)" stroke-width="1" font-size="16" >N</text>
<text x="137.923048" y="48.000000" fill="rgb(255,12,12)"  stroke="rgb(255,12,12)" stroke-width="1" font-size="16" >O</text>
<text x="291.128129" y="468.000000" fill="rgb(102,102,102)"  stroke="rgb(102,102,102)" stroke-width="1" font-size="16" >H</text>
<text x="303.128129" y="471.680000" fill="rgb(102,102,102)"  stroke="rgb(102,102,102)" stroke-width="1" font-size="13" >3</text>
<text x="309.628129" y="468.000000" fill="rgb(102,102,102)"  stroke="rgb(102,102,102)" stroke-width="1" font-size="16" >C</text>
</svg>
</g>
<text font-size="18.000000" fill ="black" font-family="sans-serif"
x="10.000000" y="20.000000" ></text>
</svg>
