<?xml version="1.0"?>
<svg version="1.1" id="topsvg"
xmlns="http://www.w3.org/2000/svg" xmlns:xlink="http://www.w3.org/1999/xlink"
xmlns:cml="http://www.xml-cml.org/schema" x="0" y="0" width="200px" height="200px" viewBox="0 0 100 100">
<title> - Open Babel Depiction</title>
<rect x="0" y="0" width="100" height="100" fill="white"/>
<g transform="translate(0,0)">
<svg width="100" height="100" x="0" y="0" viewBox="0 0 355.189 306.492"
font-family="sans-serif" stroke="rgb(0,0,0)" stroke-width="2"  stroke-linecap="round">
<line x1="40.8" y1="109.6" x2="40.0" y2="161.4" stroke="rgb(0,0,0)"  stroke-width="2.0"/>
<line x1="47.9" y1="115.7" x2="47.3" y2="155.5" stroke="rgb(0,0,0)"  stroke-width="2.0"/>
<line x1="40.0" y1="161.4" x2="84.5" y2="188.0" stroke="rgb(0,0,0)"  stroke-width="2.0"/>
<line x1="84.5" y1="188.0" x2="129.8" y2="162.8" stroke="rgb(0,0,0)"  stroke-width="2.0"/>
<line x1="129.8" y1="162.8" x2="130.6" y2="110.9" stroke="rgb(0,0,0)"  stroke-width="2.0"/>
<line x1="130.6" y1="110.9" x2="86.1" y2="84.3" stroke="rgb(0,0,0)"  stroke-width="2.0"/>
<line x1="86.1" y1="84.3" x2="40.8" y2="109.6" stroke="rgb(0,0,0)"  stroke-width="2.0"/>
<line x1="83.8" y1="239.9" x2="128.3" y2="266.5" stroke="rgb(0,0,0)"  stroke-width="2.0"/>
<line x1="128.3" y1="266.5" x2="173.6" y2="241.2" stroke="rgb(0,0,0)"  stroke-width="2.0"/>
<line x1="130.0" y1="257.3" x2="164.9" y2="237.9" stroke="rgb(0,0,0)"  stroke-width="2.0"/>
<line x1="173.6" y1="241.2" x2="174.4" y2="189.4" stroke="rgb(0,0,0)"  stroke-width="2.0"/>
<line x1="174.4" y1="189.4" x2="129.8" y2="162.8" stroke="rgb(0,0,0)"  stroke-width="2.0"/>
<line x1="165.5" y1="192.5" x2="131.3" y2="172.0" stroke="rgb(0,0,0)"  stroke-width="2.0"/>
<line x1="84.5" y1="188.0" x2="83.8" y2="239.9" stroke="rgb(0,0,0)"  stroke-width="2.0"/>
<line x1="91.6" y1="194.1" x2="91.1" y2="234.0" stroke="rgb(0,0,0)"  stroke-width="2.0"/>
<line x1="315.0" y1="129.2" x2="291.6" y2="110.8" stroke="rgb(0,0,0)"  stroke-width="2.0"/>
<line x1="305.8" y1="131.2" x2="291.8" y2="120.2" stroke="rgb(0,0,0)"  stroke-width="2.0"/>
<line x1="291.6" y1="110.8" x2="262.6" y2="117.7" stroke="rgb(0,0,0)"  stroke-width="2.0"/>
<line x1="262.6" y1="117.7" x2="267.9" y2="158.6" stroke="rgb(0,0,0)"  stroke-width="2.0"/>
<line x1="267.9" y1="158.6" x2="292.1" y2="177.7" stroke="rgb(0,0,0)"  stroke-width="2.0"/>
<line x1="292.1" y1="177.7" x2="315.2" y2="158.9" stroke="rgb(0,0,0)"  stroke-width="2.0"/>
<line x1="292.2" y1="168.3" x2="306.0" y2="157.1" stroke="rgb(0,0,0)"  stroke-width="2.0"/>
<line x1="315.2" y1="158.9" x2="315.0" y2="129.2" stroke="rgb(0,0,0)"  stroke-width="2.0"/>
<line x1="167.4" y1="62.2" x2="137.2" y2="40.0" stroke="rgb(0,0,0)"  stroke-width="2.0"/>
<line x1="158.4" y1="64.4" x2="137.8" y2="49.4" stroke="rgb(0,0,0)"  stroke-width="2.0"/>
<line x1="137.2" y1="40.0" x2="101.0" y2="49.8" stroke="rgb(0,0,0)"  stroke-width="2.0"/>
<line x1="101.0" y1="49.8" x2="86.1" y2="84.3" stroke="rgb(0,0,0)"  stroke-width="2.0"/>
<line x1="105.2" y1="58.2" x2="95.1" y2="81.6" stroke="rgb(0,0,0)"  stroke-width="2.0"/>
<line x1="130.6" y1="110.9" x2="169.0" y2="99.7" stroke="rgb(0,0,0)"  stroke-width="2.0"/>
<line x1="134.3" y1="102.3" x2="161.2" y2="94.4" stroke="rgb(0,0,0)"  stroke-width="2.0"/>
<line x1="169.0" y1="99.7" x2="167.4" y2="62.2" stroke="rgb(0,0,0)"  stroke-width="2.0"/>
<line x1="262.6" y1="117.7" x2="224.5" y2="101.8" stroke="rgb(0,0,0)"  stroke-width="2.0"/>
<line x1="254.3" y1="122.0" x2="227.3" y2="110.8" stroke="rgb(0,0,0)"  stroke-width="2.0"/>
<line x1="224.5" y1="101.8" x2="201.7" y2="122.7" stroke="rgb(0,0,0)"  stroke-width="2.0"/>
<line x1="201.7" y1="122.7" x2="204.1" y2="162.6" stroke="rgb(0,0,0)"  stroke-width="2.0"/>
<line x1="209.2" y1="128.2" x2="210.9" y2="156.2" stroke="rgb(0,0,0)"  stroke-width="2.0"/>
<line x1="204.1" y1="162.6" x2="235.2" y2="183.6" stroke="rgb(0,0,0)"  stroke-width="2.0"/>
<line x1="235.2" y1="183.6" x2="267.9" y2="158.6" stroke="rgb(0,0,0)"  stroke-width="2.0"/>
<line x1="235.6" y1="174.2" x2="258.8" y2="156.5" stroke="rgb(0,0,0)"  stroke-width="2.0"/>
<line x1="201.7" y1="122.7" x2="169.0" y2="99.7" stroke="rgb(0,0,0)"  stroke-width="2.0"/>
<line x1="174.4" y1="189.4" x2="204.1" y2="162.6" stroke="rgb(0,0,0)"  stroke-width="2.0"/>
<line x1="291.6" y1="110.8" x2="291.6" y2="71.0" stroke="rgb(0,0,0)"  stroke-width="2.0"/>
<line x1="291.6" y1="71.0" x2="257.0" y2="51.0" stroke="rgb(0,0,0)"  stroke-width="2.0"/>
<line x1="282.8" y1="74.2" x2="258.6" y2="60.3" stroke="rgb(0,0,0)"  stroke-width="2.0"/>
<line x1="257.0" y1="51.0" x2="222.5" y2="71.0" stroke="rgb(0,0,0)"  stroke-width="2.0"/>
<line x1="222.5" y1="71.0" x2="224.5" y2="101.8" stroke="rgb(0,0,0)"  stroke-width="2.0"/>
<line x1="222.5" y1="71.0" x2="197.1" y2="53.3" stroke="rgb(0,0,0)"  stroke-width="2.0"/>
<line x1="213.5" y1="73.5" x2="197.9" y2="62.7" stroke="rgb(0,0,0)"  stroke-width="2.0"/>
<line x1="197.1" y1="53.3" x2="167.4" y2="62.2" stroke="rgb(0,0,0)"  stroke-width="2.0"/>
<line x1="292.2" y1="208.5" x2="292.1" y2="177.7" stroke="rgb(0,0,0)"  stroke-width="2.0"/>
<line x1="235.2" y1="183.6" x2="238.1" y2="221.0" stroke="rgb(0,0,0)"  stroke-width="2.0"/>
<line x1="238.1" y1="221.0" x2="268.2" y2="227.8" stroke="rgb(0,0,0)"  stroke-width="2.0"/>
<line x1="268.2" y1="227.8" x2="292.2" y2="208.5" stroke="rgb(0,0,0)"  stroke-width="2.0"/>
<line x1="268.4" y1="218.4" x2="283.0" y2="206.6" stroke="rgb(0,0,0)"  stroke-width="2.0"/>
<line x1="173.6" y1="241.2" x2="210.7" y2="246.7" stroke="rgb(0,0,0)"  stroke-width="2.0"/>
<line x1="210.7" y1="246.7" x2="238.1" y2="221.0" stroke="rgb(0,0,0)"  stroke-width="2.0"/>
<line x1="210.2" y1="237.3" x2="228.8" y2="219.9" stroke="rgb(0,0,0)"  stroke-width="2.0"/>
</svg>
</g>
<text font-size="18.000000" fill ="black" font-family="sans-serif"
x="10.000000" y="20.000000" ></text>
</svg>
