<?xml version="1.0"?>
<svg version="1.1" id="topsvg"
xmlns="http://www.w3.org/2000/svg" xmlns:xlink="http://www.w3.org/1999/xlink"
xmlns:cml="http://www.xml-cml.org/schema" x="0" y="0" width="200px" height="200px" viewBox="0 0 100 100">
<title> - Open Babel Depiction</title>
<rect x="0" y="0" width="100" height="100" fill="white"/>
<g transform="translate(0,0)">
<svg width="100" height="100" x="0" y="0" viewBox="0 0 433.89 267.99"
font-family="sans-serif" stroke="rgb(0,0,0)" stroke-width="2"  stroke-linecap="round">
<line x1="385.2" y1="186.5" x2="375.8" y2="196.9" stroke="rgb(0,0,0)"  stroke-width="2.0"/>
<line x1="354.4" y1="203.9" x2="328.0" y2="198.3" stroke="rgb(0,0,0)"  stroke-width="2.0"/>
<line x1="217.4" y1="125.6" x2="197.3" y2="107.5" stroke="rgb(0,0,0)"  stroke-width="2.0"/>
<line x1="201.9" y1="171.9" x2="178.6" y2="185.4" stroke="rgb(0,0,0)"  stroke-width="2.0"/>
<line x1="178.6" y1="185.4" x2="143.9" y2="165.4" stroke="rgb(0,0,0)"  stroke-width="2.0"/>
<line x1="74.6" y1="125.4" x2="51.3" y2="111.9" stroke="rgb(0,0,0)"  stroke-width="2.0"/>
<line x1="181.6" y1="185.4" x2="181.6" y2="212.4" stroke="rgb(0,0,0)"  stroke-width="2.0"/>
<line x1="175.6" y1="185.4" x2="175.6" y2="212.4" stroke="rgb(0,0,0)"  stroke-width="2.0"/>
<line x1="256.5" y1="117.3" x2="272.8" y2="80.7" stroke="rgb(0,0,0)"  stroke-width="2.0"/>
<line x1="272.8" y1="80.7" x2="312.6" y2="76.5" stroke="rgb(0,0,0)"  stroke-width="2.0"/>
<line x1="312.6" y1="76.5" x2="328.4" y2="98.4" stroke="rgb(0,0,0)"  stroke-width="2.0"/>
<line x1="309.8" y1="75.3" x2="320.8" y2="50.7" stroke="rgb(0,0,0)"  stroke-width="2.0"/>
<line x1="315.3" y1="77.8" x2="326.3" y2="53.1" stroke="rgb(0,0,0)"  stroke-width="2.0"/>
<line x1="217.4" y1="125.6" x2="256.5" y2="117.3" stroke="rgb(0,0,0)"  stroke-width="2.0"/>
<line x1="224.8" y1="131.4" x2="252.1" y2="125.6" stroke="rgb(0,0,0)"  stroke-width="2.0"/>
<line x1="256.5" y1="117.3" x2="276.5" y2="151.9" stroke="rgb(0,0,0)"  stroke-width="2.0"/>
<line x1="276.5" y1="151.9" x2="249.7" y2="181.6" stroke="rgb(0,0,0)"  stroke-width="2.0"/>
<line x1="249.7" y1="181.6" x2="225.1" y2="170.6" stroke="rgb(0,0,0)"  stroke-width="2.0"/>
<line x1="214.6" y1="152.4" x2="217.4" y2="125.6" stroke="rgb(0,0,0)"  stroke-width="2.0"/>
<line x1="328.0" y1="198.3" x2="301.2" y2="228.0" stroke="rgb(0,0,0)"  stroke-width="2.0"/>
<line x1="318.6" y1="197.9" x2="299.9" y2="218.7" stroke="rgb(0,0,0)"  stroke-width="2.0"/>
<line x1="301.2" y1="228.0" x2="262.1" y2="219.7" stroke="rgb(0,0,0)"  stroke-width="2.0"/>
<line x1="262.1" y1="219.7" x2="249.7" y2="181.6" stroke="rgb(0,0,0)"  stroke-width="2.0"/>
<line x1="267.1" y1="211.7" x2="258.4" y2="185.1" stroke="rgb(0,0,0)"  stroke-width="2.0"/>
<line x1="276.5" y1="151.9" x2="315.6" y2="160.2" stroke="rgb(0,0,0)"  stroke-width="2.0"/>
<line x1="280.9" y1="160.2" x2="308.3" y2="166.0" stroke="rgb(0,0,0)"  stroke-width="2.0"/>
<line x1="315.6" y1="160.2" x2="328.0" y2="198.3" stroke="rgb(0,0,0)"  stroke-width="2.0"/>
<line x1="109.3" y1="185.4" x2="143.9" y2="165.4" stroke="rgb(0,0,0)"  stroke-width="2.0"/>
<line x1="110.9" y1="176.1" x2="135.1" y2="162.1" stroke="rgb(0,0,0)"  stroke-width="2.0"/>
<line x1="143.9" y1="165.4" x2="143.9" y2="125.4" stroke="rgb(0,0,0)"  stroke-width="2.0"/>
<line x1="143.9" y1="125.4" x2="109.3" y2="105.4" stroke="rgb(0,0,0)"  stroke-width="2.0"/>
<line x1="135.1" y1="128.6" x2="110.9" y2="114.6" stroke="rgb(0,0,0)"  stroke-width="2.0"/>
<line x1="109.3" y1="105.4" x2="74.6" y2="125.4" stroke="rgb(0,0,0)"  stroke-width="2.0"/>
<line x1="74.6" y1="125.4" x2="74.6" y2="165.4" stroke="rgb(0,0,0)"  stroke-width="2.0"/>
<line x1="81.8" y1="131.4" x2="81.8" y2="159.4" stroke="rgb(0,0,0)"  stroke-width="2.0"/>
<line x1="74.6" y1="165.4" x2="109.3" y2="185.4" stroke="rgb(0,0,0)"  stroke-width="2.0"/>
<text x="322.831931" y="48.000000" fill="rgb(255,12,12)"  stroke="rgb(255,12,12)" stroke-width="1" font-size="16" >O</text>
<text x="330.073875" y="116.902498" fill="rgb(255,12,12)"  stroke="rgb(255,12,12)" stroke-width="1" font-size="16" >OH</text>
<text x="172.564065" y="233.362119" fill="rgb(255,12,12)"  stroke="rgb(255,12,12)" stroke-width="1" font-size="16" >O</text>
<text x="22.000000" y="113.362119" fill="rgb(30,239,30)"  stroke="rgb(30,239,30)" stroke-width="1" font-size="16" >Cl</text>
<text x="389.889835" y="184.855194" fill="rgb(102,102,102)"  stroke="rgb(102,102,102)" stroke-width="1" font-size="16" >CH</text>
<text x="413.889835" y="188.535194" fill="rgb(102,102,102)"  stroke="rgb(102,102,102)" stroke-width="1" font-size="13" >3</text>
<text x="161.660426" y="106.816019" fill="rgb(102,102,102)"  stroke="rgb(102,102,102)" stroke-width="1" font-size="16" >H</text>
<text x="173.660426" y="110.496019" fill="rgb(102,102,102)"  stroke="rgb(102,102,102)" stroke-width="1" font-size="13" >3</text>
<text x="180.160426" y="106.816019" fill="rgb(102,102,102)"  stroke="rgb(102,102,102)" stroke-width="1" font-size="16" >C</text>
<text x="207.205081" y="173.362119" fill="rgb(12,12,255)"  stroke="rgb(12,12,255)" stroke-width="1" font-size="16" >N</text>
<text x="361.124611" y="214.580987" fill="rgb(255,12,12)"  stroke="rgb(255,12,12)" stroke-width="1" font-size="16" >O</text>
</svg>
</g>
<text font-size="18.000000" fill ="black" font-family="sans-serif"
x="10.000000" y="20.000000" ></text>
</svg>
