<?xml version="1.0"?>
<svg version="1.1" id="topsvg"
xmlns="http://www.w3.org/2000/svg" xmlns:xlink="http://www.w3.org/1999/xlink"
xmlns:cml="http://www.xml-cml.org/schema" x="0" y="0" width="200px" height="200px" viewBox="0 0 100 100">
<title> - Open Babel Depiction</title>
<rect x="0" y="0" width="100" height="100" fill="white"/>
<g transform="translate(0,0)">
<svg width="100" height="100" x="0" y="0" viewBox="0 0 400 400"
font-family="sans-serif" stroke="rgb(0,0,0)" stroke-width="2"  stroke-linecap="round">
<line x1="275.1" y1="285.5" x2="287.2" y2="278.5" stroke="rgb(0,0,0)"  stroke-width="2.0"/>
<line x1="278.1" y1="290.7" x2="290.2" y2="283.7" stroke="rgb(0,0,0)"  stroke-width="2.0"/>
<line x1="312.8" y1="278.5" x2="324.9" y2="285.5" stroke="rgb(0,0,0)"  stroke-width="2.0"/>
<line x1="309.8" y1="283.7" x2="321.9" y2="290.7" stroke="rgb(0,0,0)"  stroke-width="2.0"/>
<line x1="300.0" y1="261.6" x2="300.0" y2="234.6" stroke="rgb(0,0,0)"  stroke-width="2.0"/>
<line x1="300.0" y1="234.6" x2="260.0" y2="234.6" stroke="rgb(0,0,0)"  stroke-width="2.0"/>
<line x1="260.0" y1="234.6" x2="246.5" y2="211.3" stroke="rgb(0,0,0)"  stroke-width="2.0"/>
<line x1="227.0" y1="200.0" x2="200.0" y2="200.0" stroke="rgb(0,0,0)"  stroke-width="2.0"/>
<line x1="200.0" y1="200.0" x2="200.0" y2="173.0" stroke="rgb(0,0,0)"  stroke-width="2.0"/>
<line x1="211.3" y1="153.5" x2="234.6" y2="140.0" stroke="rgb(0,0,0)"  stroke-width="2.0"/>
<line x1="234.6" y1="140.0" x2="234.6" y2="100.0" stroke="rgb(0,0,0)"  stroke-width="2.0"/>
<line x1="234.6" y1="100.0" x2="261.6" y2="100.0" stroke="rgb(0,0,0)"  stroke-width="2.0"/>
<line x1="283.7" y1="109.8" x2="290.7" y2="121.9" stroke="rgb(0,0,0)"  stroke-width="2.0"/>
<line x1="278.5" y1="112.8" x2="285.5" y2="124.9" stroke="rgb(0,0,0)"  stroke-width="2.0"/>
<line x1="278.5" y1="87.2" x2="285.5" y2="75.1" stroke="rgb(0,0,0)"  stroke-width="2.0"/>
<line x1="283.7" y1="90.2" x2="290.7" y2="78.1" stroke="rgb(0,0,0)"  stroke-width="2.0"/>
<line x1="234.6" y1="100.0" x2="234.6" y2="73.0" stroke="rgb(0,0,0)"  stroke-width="2.0"/>
<line x1="244.4" y1="50.9" x2="256.5" y2="43.9" stroke="rgb(0,0,0)"  stroke-width="2.0"/>
<line x1="247.4" y1="56.1" x2="259.5" y2="49.1" stroke="rgb(0,0,0)"  stroke-width="2.0"/>
<line x1="221.9" y1="56.1" x2="209.8" y2="49.1" stroke="rgb(0,0,0)"  stroke-width="2.0"/>
<line x1="224.9" y1="50.9" x2="212.8" y2="43.9" stroke="rgb(0,0,0)"  stroke-width="2.0"/>
<line x1="234.6" y1="100.0" x2="207.6" y2="100.0" stroke="rgb(0,0,0)"  stroke-width="2.0"/>
<line x1="185.5" y1="90.2" x2="178.5" y2="78.1" stroke="rgb(0,0,0)"  stroke-width="2.0"/>
<line x1="190.7" y1="87.2" x2="183.7" y2="75.1" stroke="rgb(0,0,0)"  stroke-width="2.0"/>
<line x1="190.7" y1="112.8" x2="183.7" y2="124.9" stroke="rgb(0,0,0)"  stroke-width="2.0"/>
<line x1="185.5" y1="109.8" x2="178.5" y2="121.9" stroke="rgb(0,0,0)"  stroke-width="2.0"/>
<line x1="200.0" y1="200.0" x2="173.0" y2="200.0" stroke="rgb(0,0,0)"  stroke-width="2.0"/>
<line x1="153.5" y1="188.7" x2="140.0" y2="165.4" stroke="rgb(0,0,0)"  stroke-width="2.0"/>
<line x1="140.0" y1="165.4" x2="100.0" y2="165.4" stroke="rgb(0,0,0)"  stroke-width="2.0"/>
<line x1="100.0" y1="165.4" x2="100.0" y2="192.4" stroke="rgb(0,0,0)"  stroke-width="2.0"/>
<line x1="112.8" y1="209.3" x2="124.9" y2="216.3" stroke="rgb(0,0,0)"  stroke-width="2.0"/>
<line x1="109.8" y1="214.5" x2="121.9" y2="221.5" stroke="rgb(0,0,0)"  stroke-width="2.0"/>
<line x1="90.2" y1="214.5" x2="78.1" y2="221.5" stroke="rgb(0,0,0)"  stroke-width="2.0"/>
<line x1="87.2" y1="209.3" x2="75.1" y2="216.3" stroke="rgb(0,0,0)"  stroke-width="2.0"/>
<line x1="100.0" y1="165.4" x2="73.0" y2="165.4" stroke="rgb(0,0,0)"  stroke-width="2.0"/>
<line x1="56.1" y1="178.1" x2="49.1" y2="190.2" stroke="rgb(0,0,0)"  stroke-width="2.0"/>
<line x1="50.9" y1="175.1" x2="43.9" y2="187.2" stroke="rgb(0,0,0)"  stroke-width="2.0"/>
<line x1="50.9" y1="155.6" x2="43.9" y2="143.5" stroke="rgb(0,0,0)"  stroke-width="2.0"/>
<line x1="56.1" y1="152.6" x2="49.1" y2="140.5" stroke="rgb(0,0,0)"  stroke-width="2.0"/>
<line x1="100.0" y1="165.4" x2="100.0" y2="138.4" stroke="rgb(0,0,0)"  stroke-width="2.0"/>
<line x1="87.2" y1="121.5" x2="75.1" y2="114.5" stroke="rgb(0,0,0)"  stroke-width="2.0"/>
<line x1="90.2" y1="116.3" x2="78.1" y2="109.3" stroke="rgb(0,0,0)"  stroke-width="2.0"/>
<line x1="109.8" y1="116.3" x2="121.9" y2="109.3" stroke="rgb(0,0,0)"  stroke-width="2.0"/>
<line x1="112.8" y1="121.5" x2="124.9" y2="114.5" stroke="rgb(0,0,0)"  stroke-width="2.0"/>
<line x1="200.0" y1="200.0" x2="200.0" y2="227.0" stroke="rgb(0,0,0)"  stroke-width="2.0"/>
<line x1="188.7" y1="246.5" x2="165.4" y2="260.0" stroke="rgb(0,0,0)"  stroke-width="2.0"/>
<line x1="165.4" y1="260.0" x2="165.4" y2="300.0" stroke="rgb(0,0,0)"  stroke-width="2.0"/>
<line x1="165.4" y1="300.0" x2="192.4" y2="300.0" stroke="rgb(0,0,0)"  stroke-width="2.0"/>
<line x1="209.3" y1="287.2" x2="216.3" y2="275.1" stroke="rgb(0,0,0)"  stroke-width="2.0"/>
<line x1="214.5" y1="290.2" x2="221.5" y2="278.1" stroke="rgb(0,0,0)"  stroke-width="2.0"/>
<line x1="214.5" y1="309.8" x2="221.5" y2="321.9" stroke="rgb(0,0,0)"  stroke-width="2.0"/>
<line x1="209.3" y1="312.8" x2="216.3" y2="324.9" stroke="rgb(0,0,0)"  stroke-width="2.0"/>
<line x1="165.4" y1="300.0" x2="165.4" y2="327.0" stroke="rgb(0,0,0)"  stroke-width="2.0"/>
<line x1="178.1" y1="343.9" x2="190.2" y2="350.9" stroke="rgb(0,0,0)"  stroke-width="2.0"/>
<line x1="175.1" y1="349.1" x2="187.2" y2="356.1" stroke="rgb(0,0,0)"  stroke-width="2.0"/>
<line x1="155.6" y1="349.1" x2="143.5" y2="356.1" stroke="rgb(0,0,0)"  stroke-width="2.0"/>
<line x1="152.6" y1="343.9" x2="140.5" y2="350.9" stroke="rgb(0,0,0)"  stroke-width="2.0"/>
<line x1="165.4" y1="300.0" x2="138.4" y2="300.0" stroke="rgb(0,0,0)"  stroke-width="2.0"/>
<line x1="121.5" y1="312.8" x2="114.5" y2="324.9" stroke="rgb(0,0,0)"  stroke-width="2.0"/>
<line x1="116.3" y1="309.8" x2="109.3" y2="321.9" stroke="rgb(0,0,0)"  stroke-width="2.0"/>
<line x1="116.3" y1="290.2" x2="109.3" y2="278.1" stroke="rgb(0,0,0)"  stroke-width="2.0"/>
<line x1="121.5" y1="287.2" x2="114.5" y2="275.1" stroke="rgb(0,0,0)"  stroke-width="2.0"/>
<line x1="300.0" y1="234.6" x2="300.0" y2="207.6" stroke="rgb(0,0,0)"  stroke-width="2.0"/>
<line x1="287.2" y1="190.7" x2="275.1" y2="183.7" stroke="rgb(0,0,0)"  stroke-width="2.0"/>
<line x1="290.2" y1="185.5" x2="278.1" y2="178.5" stroke="rgb(0,0,0)"  stroke-width="2.0"/>
<line x1="309.8" y1="185.5" x2="321.9" y2="178.5" stroke="rgb(0,0,0)"  stroke-width="2.0"/>
<line x1="312.8" y1="190.7" x2="324.9" y2="183.7" stroke="rgb(0,0,0)"  stroke-width="2.0"/>
<line x1="300.0" y1="234.6" x2="327.0" y2="234.6" stroke="rgb(0,0,0)"  stroke-width="2.0"/>
<line x1="343.9" y1="221.9" x2="350.9" y2="209.8" stroke="rgb(0,0,0)"  stroke-width="2.0"/>
<line x1="349.1" y1="224.9" x2="356.1" y2="212.8" stroke="rgb(0,0,0)"  stroke-width="2.0"/>
<line x1="349.1" y1="244.4" x2="356.1" y2="256.5" stroke="rgb(0,0,0)"  stroke-width="2.0"/>
<line x1="343.9" y1="247.4" x2="350.9" y2="259.5" stroke="rgb(0,0,0)"  stroke-width="2.0"/>
<text x="159.358984" y="348.000000" fill="rgb(12,12,255)"  stroke="rgb(12,12,255)" stroke-width="1" font-size="16" >N</text>
<text x="54.000000" y="173.358984" fill="rgb(12,12,255)"  stroke="rgb(12,12,255)" stroke-width="1" font-size="16" >N</text>
<text x="34.000000" y="208.000000" fill="rgb(255,12,12)"  stroke="rgb(255,12,12)" stroke-width="1" font-size="16" >O</text>
<text x="34.000000" y="138.717968" fill="rgb(255,12,12)"  stroke="rgb(255,12,12)" stroke-width="1" font-size="16" >O</text>
<text x="94.000000" y="133.358984" fill="rgb(12,12,255)"  stroke="rgb(12,12,255)" stroke-width="1" font-size="16" >N</text>
<text x="59.358984" y="113.358984" fill="rgb(255,12,12)"  stroke="rgb(255,12,12)" stroke-width="1" font-size="16" >O</text>
<text x="128.641016" y="113.358984" fill="rgb(255,12,12)"  stroke="rgb(255,12,12)" stroke-width="1" font-size="16" >O</text>
<text x="194.000000" y="248.000000" fill="rgb(255,12,12)"  stroke="rgb(255,12,12)" stroke-width="1" font-size="16" >O</text>
<text x="199.358984" y="308.000000" fill="rgb(12,12,255)"  stroke="rgb(12,12,255)" stroke-width="1" font-size="16" >N</text>
<text x="219.358984" y="273.358984" fill="rgb(255,12,12)"  stroke="rgb(255,12,12)" stroke-width="1" font-size="16" >O</text>
<text x="219.358984" y="342.641016" fill="rgb(255,12,12)"  stroke="rgb(255,12,12)" stroke-width="1" font-size="16" >O</text>
<text x="59.358984" y="233.358984" fill="rgb(255,12,12)"  stroke="rgb(255,12,12)" stroke-width="1" font-size="16" >O</text>
<text x="194.000000" y="368.000000" fill="rgb(255,12,12)"  stroke="rgb(255,12,12)" stroke-width="1" font-size="16" >O</text>
<text x="124.717968" y="368.000000" fill="rgb(255,12,12)"  stroke="rgb(255,12,12)" stroke-width="1" font-size="16" >O</text>
<text x="119.358984" y="308.000000" fill="rgb(12,12,255)"  stroke="rgb(12,12,255)" stroke-width="1" font-size="16" >N</text>
<text x="99.358984" y="342.641016" fill="rgb(255,12,12)"  stroke="rgb(255,12,12)" stroke-width="1" font-size="16" >O</text>
<text x="99.358984" y="273.358984" fill="rgb(255,12,12)"  stroke="rgb(255,12,12)" stroke-width="1" font-size="16" >O</text>
<text x="294.000000" y="202.641016" fill="rgb(12,12,255)"  stroke="rgb(12,12,255)" stroke-width="1" font-size="16" >N</text>
<text x="259.358984" y="182.641016" fill="rgb(255,12,12)"  stroke="rgb(255,12,12)" stroke-width="1" font-size="16" >O</text>
<text x="328.641016" y="182.641016" fill="rgb(255,12,12)"  stroke="rgb(255,12,12)" stroke-width="1" font-size="16" >O</text>
<text x="334.000000" y="242.641016" fill="rgb(12,12,255)"  stroke="rgb(12,12,255)" stroke-width="1" font-size="16" >N</text>
<text x="354.000000" y="208.000000" fill="rgb(255,12,12)"  stroke="rgb(255,12,12)" stroke-width="1" font-size="16" >O</text>
<text x="354.000000" y="277.282032" fill="rgb(255,12,12)"  stroke="rgb(255,12,12)" stroke-width="1" font-size="16" >O</text>
<text x="288.641016" y="73.358984" fill="rgb(255,12,12)"  stroke="rgb(255,12,12)" stroke-width="1" font-size="16" >O</text>
<text x="294.000000" y="282.641016" fill="rgb(12,12,255)"  stroke="rgb(12,12,255)" stroke-width="1" font-size="16" >N</text>
<text x="328.641016" y="302.641016" fill="rgb(255,12,12)"  stroke="rgb(255,12,12)" stroke-width="1" font-size="16" >O</text>
<text x="234.000000" y="208.000000" fill="rgb(255,12,12)"  stroke="rgb(255,12,12)" stroke-width="1" font-size="16" >O</text>
<text x="194.000000" y="168.000000" fill="rgb(255,12,12)"  stroke="rgb(255,12,12)" stroke-width="1" font-size="16" >O</text>
<text x="268.641016" y="108.000000" fill="rgb(12,12,255)"  stroke="rgb(12,12,255)" stroke-width="1" font-size="16" >N</text>
<text x="288.641016" y="142.641016" fill="rgb(255,12,12)"  stroke="rgb(255,12,12)" stroke-width="1" font-size="16" >O</text>
<text x="259.358984" y="302.641016" fill="rgb(255,12,12)"  stroke="rgb(255,12,12)" stroke-width="1" font-size="16" >O</text>
<text x="228.641016" y="68.000000" fill="rgb(12,12,255)"  stroke="rgb(12,12,255)" stroke-width="1" font-size="16" >N</text>
<text x="263.282032" y="48.000000" fill="rgb(255,12,12)"  stroke="rgb(255,12,12)" stroke-width="1" font-size="16" >O</text>
<text x="194.000000" y="48.000000" fill="rgb(255,12,12)"  stroke="rgb(255,12,12)" stroke-width="1" font-size="16" >O</text>
<text x="188.641016" y="108.000000" fill="rgb(12,12,255)"  stroke="rgb(12,12,255)" stroke-width="1" font-size="16" >N</text>
<text x="168.641016" y="73.358984" fill="rgb(255,12,12)"  stroke="rgb(255,12,12)" stroke-width="1" font-size="16" >O</text>
<text x="168.641016" y="142.641016" fill="rgb(255,12,12)"  stroke="rgb(255,12,12)" stroke-width="1" font-size="16" >O</text>
<text x="154.000000" y="208.000000" fill="rgb(255,12,12)"  stroke="rgb(255,12,12)" stroke-width="1" font-size="16" >O</text>
<text x="94.000000" y="213.358984" fill="rgb(12,12,255)"  stroke="rgb(12,12,255)" stroke-width="1" font-size="16" >N</text>
<text x="128.641016" y="233.358984" fill="rgb(255,12,12)"  stroke="rgb(255,12,12)" stroke-width="1" font-size="16" >O</text>
</svg>
</g>
<text font-size="18.000000" fill ="black" font-family="sans-serif"
x="10.000000" y="20.000000" ></text>
</svg>
