<?xml version="1.0"?>
<svg version="1.1" id="topsvg"
xmlns="http://www.w3.org/2000/svg" xmlns:xlink="http://www.w3.org/1999/xlink"
xmlns:cml="http://www.xml-cml.org/schema" x="0" y="0" width="200px" height="200px" viewBox="0 0 100 100">
<title> - Open Babel Depiction</title>
<rect x="0" y="0" width="100" height="100" fill="white"/>
<g transform="translate(0,0)">
<svg width="100" height="100" x="0" y="0" viewBox="0 0 385.904 255.678"
font-family="sans-serif" stroke="rgb(0,0,0)" stroke-width="2"  stroke-linecap="round">
<line x1="302.4" y1="83.5" x2="284.3" y2="103.6" stroke="rgb(0,0,0)"  stroke-width="2.0"/>
<line x1="297.9" y1="79.5" x2="279.8" y2="99.5" stroke="rgb(0,0,0)"  stroke-width="2.0"/>
<line x1="282.1" y1="101.6" x2="242.9" y2="93.2" stroke="rgb(0,0,0)"  stroke-width="2.0"/>
<line x1="143.9" y1="120.0" x2="109.3" y2="100.0" stroke="rgb(0,0,0)"  stroke-width="2.0"/>
<line x1="282.1" y1="101.6" x2="294.4" y2="139.6" stroke="rgb(0,0,0)"  stroke-width="2.0"/>
<line x1="181.3" y1="87.3" x2="184.2" y2="73.6" stroke="rgb(0,0,0)"  stroke-width="2.0"/>
<line x1="200.0" y1="59.5" x2="226.7" y2="56.7" stroke="rgb(0,0,0)"  stroke-width="2.0"/>
<line x1="202.7" y1="66.4" x2="221.4" y2="64.5" stroke="rgb(0,0,0)"  stroke-width="2.0"/>
<line x1="226.7" y1="56.7" x2="242.9" y2="93.2" stroke="rgb(0,0,0)"  stroke-width="2.0"/>
<line x1="242.9" y1="93.2" x2="213.2" y2="120.0" stroke="rgb(0,0,0)"  stroke-width="2.0"/>
<line x1="233.7" y1="91.9" x2="212.8" y2="110.6" stroke="rgb(0,0,0)"  stroke-width="2.0"/>
<line x1="213.2" y1="120.0" x2="189.8" y2="106.5" stroke="rgb(0,0,0)"  stroke-width="2.0"/>
<line x1="201.8" y1="166.6" x2="178.6" y2="180.0" stroke="rgb(0,0,0)"  stroke-width="2.0"/>
<line x1="196.4" y1="161.4" x2="180.2" y2="170.8" stroke="rgb(0,0,0)"  stroke-width="2.0"/>
<line x1="178.6" y1="180.0" x2="143.9" y2="160.0" stroke="rgb(0,0,0)"  stroke-width="2.0"/>
<line x1="143.9" y1="160.0" x2="143.9" y2="120.0" stroke="rgb(0,0,0)"  stroke-width="2.0"/>
<line x1="151.1" y1="154.0" x2="151.1" y2="126.0" stroke="rgb(0,0,0)"  stroke-width="2.0"/>
<line x1="143.9" y1="120.0" x2="167.3" y2="106.5" stroke="rgb(0,0,0)"  stroke-width="2.0"/>
<line x1="213.2" y1="120.0" x2="213.2" y2="147.0" stroke="rgb(0,0,0)"  stroke-width="2.0"/>
<line x1="40.0" y1="100.0" x2="40.0" y2="73.2" stroke="rgb(0,0,0)"  stroke-width="2.0"/>
<line x1="47.2" y1="94.0" x2="47.2" y2="75.2" stroke="rgb(0,0,0)"  stroke-width="2.0"/>
<line x1="51.3" y1="53.5" x2="74.6" y2="40.0" stroke="rgb(0,0,0)"  stroke-width="2.0"/>
<line x1="74.6" y1="40.0" x2="109.3" y2="60.0" stroke="rgb(0,0,0)"  stroke-width="2.0"/>
<line x1="76.2" y1="49.2" x2="100.5" y2="63.2" stroke="rgb(0,0,0)"  stroke-width="2.0"/>
<line x1="109.3" y1="60.0" x2="109.3" y2="100.0" stroke="rgb(0,0,0)"  stroke-width="2.0"/>
<line x1="109.3" y1="100.0" x2="74.6" y2="120.0" stroke="rgb(0,0,0)"  stroke-width="2.0"/>
<line x1="100.5" y1="96.8" x2="76.2" y2="110.8" stroke="rgb(0,0,0)"  stroke-width="2.0"/>
<line x1="74.6" y1="120.0" x2="40.0" y2="100.0" stroke="rgb(0,0,0)"  stroke-width="2.0"/>
<line x1="345.9" y1="186.0" x2="319.1" y2="215.7" stroke="rgb(0,0,0)"  stroke-width="2.0"/>
<line x1="336.5" y1="185.6" x2="317.8" y2="206.4" stroke="rgb(0,0,0)"  stroke-width="2.0"/>
<line x1="319.1" y1="215.7" x2="280.0" y2="207.4" stroke="rgb(0,0,0)"  stroke-width="2.0"/>
<line x1="280.0" y1="207.4" x2="271.7" y2="181.9" stroke="rgb(0,0,0)"  stroke-width="2.0"/>
<line x1="285.0" y1="199.4" x2="279.2" y2="181.6" stroke="rgb(0,0,0)"  stroke-width="2.0"/>
<line x1="276.4" y1="159.7" x2="294.4" y2="139.6" stroke="rgb(0,0,0)"  stroke-width="2.0"/>
<line x1="294.4" y1="139.6" x2="333.5" y2="147.9" stroke="rgb(0,0,0)"  stroke-width="2.0"/>
<line x1="298.8" y1="147.9" x2="326.2" y2="153.7" stroke="rgb(0,0,0)"  stroke-width="2.0"/>
<line x1="333.5" y1="147.9" x2="345.9" y2="186.0" stroke="rgb(0,0,0)"  stroke-width="2.0"/>
<text x="261.652233" y="177.319297" fill="rgb(12,12,255)"  stroke="rgb(12,12,255)" stroke-width="1" font-size="16" >N</text>
<text x="34.000000" y="68.000000" fill="rgb(12,12,255)"  stroke="rgb(12,12,255)" stroke-width="1" font-size="16" >N</text>
<text x="302.822002" y="79.825450" fill="rgb(255,12,12)"  stroke="rgb(255,12,12)" stroke-width="1" font-size="16" >O</text>
<text x="180.880532" y="68.874096" fill="rgb(12,12,255)"  stroke="rgb(12,12,255)" stroke-width="1" font-size="16" >N</text>
<text x="172.564065" y="108.000000" fill="rgb(12,12,255)"  stroke="rgb(12,12,255)" stroke-width="1" font-size="16" >N</text>
<text x="207.205081" y="168.000000" fill="rgb(12,12,255)"  stroke="rgb(12,12,255)" stroke-width="1" font-size="16" >N</text>
</svg>
</g>
<text font-size="18.000000" fill ="black" font-family="sans-serif"
x="10.000000" y="20.000000" ></text>
</svg>
