<?xml version="1.0"?>
<svg version="1.1" id="topsvg"
xmlns="http://www.w3.org/2000/svg" xmlns:xlink="http://www.w3.org/1999/xlink"
xmlns:cml="http://www.xml-cml.org/schema" x="0" y="0" width="200px" height="200px" viewBox="0 0 100 100">
<title> - Open Babel Depiction</title>
<rect x="0" y="0" width="100" height="100" fill="white"/>
<g transform="translate(0,0)">
<svg width="100" height="100" x="0" y="0" viewBox="0 0 330.836 326.487"
font-family="sans-serif" stroke="rgb(0,0,0)" stroke-width="2"  stroke-linecap="round">
<line x1="98.0" y1="46.5" x2="74.6" y2="60.0" stroke="rgb(0,0,0)"  stroke-width="2.0"/>
<line x1="73.1" y1="62.6" x2="49.8" y2="49.1" stroke="rgb(0,0,0)"  stroke-width="2.0"/>
<line x1="76.1" y1="57.4" x2="52.8" y2="43.9" stroke="rgb(0,0,0)"  stroke-width="2.0"/>
<line x1="74.6" y1="60.0" x2="74.6" y2="100.0" stroke="rgb(0,0,0)"  stroke-width="2.0"/>
<line x1="147.3" y1="172.4" x2="159.7" y2="210.4" stroke="rgb(0,0,0)"  stroke-width="2.0"/>
<line x1="170.8" y1="140.0" x2="210.8" y2="140.0" stroke="rgb(0,0,0)"  stroke-width="2.0"/>
<line x1="170.8" y1="140.0" x2="155.0" y2="118.2" stroke="rgb(0,0,0)"  stroke-width="2.0"/>
<line x1="135.0" y1="111.7" x2="109.3" y2="120.0" stroke="rgb(0,0,0)"  stroke-width="2.0"/>
<line x1="109.3" y1="120.0" x2="109.3" y2="160.0" stroke="rgb(0,0,0)"  stroke-width="2.0"/>
<line x1="116.5" y1="126.0" x2="116.5" y2="154.0" stroke="rgb(0,0,0)"  stroke-width="2.0"/>
<line x1="109.3" y1="160.0" x2="147.3" y2="172.4" stroke="rgb(0,0,0)"  stroke-width="2.0"/>
<line x1="147.3" y1="172.4" x2="170.8" y2="140.0" stroke="rgb(0,0,0)"  stroke-width="2.0"/>
<line x1="145.0" y1="163.3" x2="161.5" y2="140.6" stroke="rgb(0,0,0)"  stroke-width="2.0"/>
<line x1="40.0" y1="160.0" x2="74.6" y2="180.0" stroke="rgb(0,0,0)"  stroke-width="2.0"/>
<line x1="48.8" y1="156.8" x2="73.0" y2="170.8" stroke="rgb(0,0,0)"  stroke-width="2.0"/>
<line x1="74.6" y1="180.0" x2="109.3" y2="160.0" stroke="rgb(0,0,0)"  stroke-width="2.0"/>
<line x1="109.3" y1="120.0" x2="74.6" y2="100.0" stroke="rgb(0,0,0)"  stroke-width="2.0"/>
<line x1="74.6" y1="100.0" x2="40.0" y2="120.0" stroke="rgb(0,0,0)"  stroke-width="2.0"/>
<line x1="73.0" y1="109.2" x2="48.8" y2="123.2" stroke="rgb(0,0,0)"  stroke-width="2.0"/>
<line x1="40.0" y1="120.0" x2="40.0" y2="160.0" stroke="rgb(0,0,0)"  stroke-width="2.0"/>
<line x1="211.2" y1="256.8" x2="184.4" y2="286.5" stroke="rgb(0,0,0)"  stroke-width="2.0"/>
<line x1="201.8" y1="256.4" x2="183.1" y2="277.2" stroke="rgb(0,0,0)"  stroke-width="2.0"/>
<line x1="184.4" y1="286.5" x2="145.3" y2="278.2" stroke="rgb(0,0,0)"  stroke-width="2.0"/>
<line x1="145.3" y1="278.2" x2="132.9" y2="240.1" stroke="rgb(0,0,0)"  stroke-width="2.0"/>
<line x1="150.3" y1="270.2" x2="141.6" y2="243.6" stroke="rgb(0,0,0)"  stroke-width="2.0"/>
<line x1="132.9" y1="240.1" x2="159.7" y2="210.4" stroke="rgb(0,0,0)"  stroke-width="2.0"/>
<line x1="159.7" y1="210.4" x2="198.8" y2="218.7" stroke="rgb(0,0,0)"  stroke-width="2.0"/>
<line x1="164.1" y1="218.7" x2="191.4" y2="224.5" stroke="rgb(0,0,0)"  stroke-width="2.0"/>
<line x1="198.8" y1="218.7" x2="211.2" y2="256.8" stroke="rgb(0,0,0)"  stroke-width="2.0"/>
<line x1="270.8" y1="105.4" x2="290.8" y2="140.0" stroke="rgb(0,0,0)"  stroke-width="2.0"/>
<line x1="267.6" y1="114.2" x2="281.6" y2="138.4" stroke="rgb(0,0,0)"  stroke-width="2.0"/>
<line x1="290.8" y1="140.0" x2="270.8" y2="174.6" stroke="rgb(0,0,0)"  stroke-width="2.0"/>
<line x1="270.8" y1="174.6" x2="230.8" y2="174.6" stroke="rgb(0,0,0)"  stroke-width="2.0"/>
<line x1="264.8" y1="167.4" x2="236.8" y2="167.4" stroke="rgb(0,0,0)"  stroke-width="2.0"/>
<line x1="230.8" y1="174.6" x2="210.8" y2="140.0" stroke="rgb(0,0,0)"  stroke-width="2.0"/>
<line x1="210.8" y1="140.0" x2="230.8" y2="105.4" stroke="rgb(0,0,0)"  stroke-width="2.0"/>
<line x1="220.1" y1="138.4" x2="234.1" y2="114.2" stroke="rgb(0,0,0)"  stroke-width="2.0"/>
<line x1="230.8" y1="105.4" x2="270.8" y2="105.4" stroke="rgb(0,0,0)"  stroke-width="2.0"/>
<text x="103.282032" y="48.000000" fill="rgb(255,12,12)"  stroke="rgb(255,12,12)" stroke-width="1" font-size="16" >OH</text>
<text x="141.324293" y="115.639320" fill="rgb(12,12,255)"  stroke="rgb(12,12,255)" stroke-width="1" font-size="16" >N</text>
<text x="141.324293" y="99.639320" fill="rgb(12,12,255)"  stroke="rgb(12,12,255)" stroke-width="1" font-size="16" >H</text>
<text x="34.000000" y="48.000000" fill="rgb(255,12,12)"  stroke="rgb(255,12,12)" stroke-width="1" font-size="16" >O</text>
</svg>
</g>
<text font-size="18.000000" fill ="black" font-family="sans-serif"
x="10.000000" y="20.000000" ></text>
</svg>
