<?xml version="1.0"?>
<svg version="1.1" id="topsvg"
xmlns="http://www.w3.org/2000/svg" xmlns:xlink="http://www.w3.org/1999/xlink"
xmlns:cml="http://www.xml-cml.org/schema" x="0" y="0" width="200px" height="200px" viewBox="0 0 100 100">
<title> - Open Babel Depiction</title>
<rect x="0" y="0" width="100" height="100" fill="white"/>
<g transform="translate(0,0)">
<svg width="100" height="100" x="0" y="0" viewBox="0 0 738.179 180"
font-family="sans-serif" stroke="rgb(0,0,0)" stroke-width="2"  stroke-linecap="round">
<line x1="698.2" y1="127.0" x2="698.2" y2="100.0" stroke="rgb(0,0,0)"  stroke-width="2.0"/>
<line x1="698.2" y1="100.0" x2="663.5" y2="80.0" stroke="rgb(0,0,0)"  stroke-width="2.0"/>
<line x1="663.5" y1="80.0" x2="628.9" y2="100.0" stroke="rgb(0,0,0)"  stroke-width="2.0"/>
<line x1="628.9" y1="100.0" x2="594.3" y2="80.0" stroke="rgb(0,0,0)"  stroke-width="2.0"/>
<line x1="594.3" y1="80.0" x2="559.6" y2="100.0" stroke="rgb(0,0,0)"  stroke-width="2.0"/>
<line x1="559.6" y1="100.0" x2="525.0" y2="80.0" stroke="rgb(0,0,0)"  stroke-width="2.0"/>
<line x1="525.0" y1="80.0" x2="525.0" y2="53.0" stroke="rgb(0,0,0)"  stroke-width="2.0"/>
<line x1="525.0" y1="80.0" x2="490.3" y2="100.0" stroke="rgb(0,0,0)"  stroke-width="2.0"/>
<line x1="490.3" y1="100.0" x2="455.7" y2="80.0" stroke="rgb(0,0,0)"  stroke-width="2.0"/>
<line x1="457.2" y1="82.6" x2="419.6" y2="97.4" stroke="rgb(0,0,0)"  stroke-width="2.0"/>
<line x1="454.2" y1="77.4" x2="422.6" y2="102.6" stroke="rgb(0,0,0)"  stroke-width="2.0"/>
<line x1="421.1" y1="100.0" x2="386.4" y2="80.0" stroke="rgb(0,0,0)"  stroke-width="2.0"/>
<line x1="386.4" y1="80.0" x2="351.8" y2="100.0" stroke="rgb(0,0,0)"  stroke-width="2.0"/>
<line x1="351.8" y1="100.0" x2="317.1" y2="80.0" stroke="rgb(0,0,0)"  stroke-width="2.0"/>
<line x1="317.1" y1="80.0" x2="282.5" y2="100.0" stroke="rgb(0,0,0)"  stroke-width="2.0"/>
<line x1="282.5" y1="100.0" x2="247.8" y2="80.0" stroke="rgb(0,0,0)"  stroke-width="2.0"/>
<line x1="247.8" y1="80.0" x2="213.2" y2="100.0" stroke="rgb(0,0,0)"  stroke-width="2.0"/>
<line x1="213.2" y1="100.0" x2="178.6" y2="80.0" stroke="rgb(0,0,0)"  stroke-width="2.0"/>
<line x1="178.6" y1="80.0" x2="143.9" y2="100.0" stroke="rgb(0,0,0)"  stroke-width="2.0"/>
<line x1="143.9" y1="100.0" x2="120.5" y2="86.5" stroke="rgb(0,0,0)"  stroke-width="2.0"/>
<line x1="98.0" y1="86.5" x2="74.6" y2="100.0" stroke="rgb(0,0,0)"  stroke-width="2.0"/>
<line x1="74.6" y1="100.0" x2="51.3" y2="86.5" stroke="rgb(0,0,0)"  stroke-width="2.0"/>
<line x1="146.9" y1="100.0" x2="146.9" y2="127.0" stroke="rgb(0,0,0)"  stroke-width="2.0"/>
<line x1="140.9" y1="100.0" x2="140.9" y2="127.0" stroke="rgb(0,0,0)"  stroke-width="2.0"/>
<text x="137.923048" y="148.000000" fill="rgb(255,12,12)"  stroke="rgb(255,12,12)" stroke-width="1" font-size="16" >O</text>
<text x="14.000000" y="88.000000" fill="rgb(102,102,102)"  stroke="rgb(102,102,102)" stroke-width="1" font-size="16" >H</text>
<text x="26.000000" y="91.680000" fill="rgb(102,102,102)"  stroke="rgb(102,102,102)" stroke-width="1" font-size="13" >3</text>
<text x="32.500000" y="88.000000" fill="rgb(102,102,102)"  stroke="rgb(102,102,102)" stroke-width="1" font-size="16" >C</text>
<text x="103.282032" y="88.000000" fill="rgb(255,12,12)"  stroke="rgb(255,12,12)" stroke-width="1" font-size="16" >O</text>
<text x="694.179307" y="148.000000" fill="rgb(102,102,102)"  stroke="rgb(102,102,102)" stroke-width="1" font-size="16" >CH</text>
<text x="718.179307" y="151.680000" fill="rgb(102,102,102)"  stroke="rgb(102,102,102)" stroke-width="1" font-size="13" >3</text>
<text x="518.974226" y="48.000000" fill="rgb(255,12,12)"  stroke="rgb(255,12,12)" stroke-width="1" font-size="16" >OH</text>
</svg>
</g>
<text font-size="18.000000" fill ="black" font-family="sans-serif"
x="10.000000" y="20.000000" ></text>
</svg>
