<?xml version="1.0"?>
<svg version="1.1" id="topsvg"
xmlns="http://www.w3.org/2000/svg" xmlns:xlink="http://www.w3.org/1999/xlink"
xmlns:cml="http://www.xml-cml.org/schema" x="0" y="0" width="200px" height="200px" viewBox="0 0 100 100">
<title> - Open Babel Depiction</title>
<rect x="0" y="0" width="100" height="100" fill="white"/>
<g transform="translate(0,0)">
<svg width="100" height="100" x="0" y="0" viewBox="0 0 220.806 213.914"
font-family="sans-serif" stroke="rgb(0,0,0)" stroke-width="2"  stroke-linecap="round">
<line x1="146.3" y1="163.4" x2="130.4" y2="141.6" stroke="rgb(0,0,0)"  stroke-width="2.0"/>
<line x1="90.4" y1="141.6" x2="74.5" y2="163.4" stroke="rgb(0,0,0)"  stroke-width="2.0"/>
<line x1="77.1" y1="106.4" x2="51.4" y2="98.0" stroke="rgb(0,0,0)"  stroke-width="2.0"/>
<line x1="79.0" y1="100.7" x2="53.3" y2="92.3" stroke="rgb(0,0,0)"  stroke-width="2.0"/>
<line x1="107.4" y1="80.0" x2="107.4" y2="53.0" stroke="rgb(0,0,0)"  stroke-width="2.0"/>
<line x1="113.4" y1="80.0" x2="113.4" y2="53.0" stroke="rgb(0,0,0)"  stroke-width="2.0"/>
<line x1="141.8" y1="100.7" x2="167.5" y2="92.3" stroke="rgb(0,0,0)"  stroke-width="2.0"/>
<line x1="143.7" y1="106.4" x2="169.4" y2="98.0" stroke="rgb(0,0,0)"  stroke-width="2.0"/>
<line x1="78.0" y1="103.5" x2="110.4" y2="80.0" stroke="rgb(0,0,0)"  stroke-width="2.0"/>
<line x1="110.4" y1="80.0" x2="142.8" y2="103.5" stroke="rgb(0,0,0)"  stroke-width="2.0"/>
<line x1="142.8" y1="103.5" x2="130.4" y2="141.6" stroke="rgb(0,0,0)"  stroke-width="2.0"/>
<line x1="130.4" y1="141.6" x2="90.4" y2="141.6" stroke="rgb(0,0,0)"  stroke-width="2.0"/>
<line x1="124.4" y1="134.4" x2="96.4" y2="134.4" stroke="rgb(0,0,0)"  stroke-width="2.0"/>
<line x1="90.4" y1="141.6" x2="78.0" y2="103.5" stroke="rgb(0,0,0)"  stroke-width="2.0"/>
<text x="147.914351" y="181.914351" fill="rgb(255,12,12)"  stroke="rgb(255,12,12)" stroke-width="1" font-size="16" >OH</text>
<text x="48.891530" y="181.914351" fill="rgb(255,12,12)"  stroke="rgb(255,12,12)" stroke-width="1" font-size="16" >HO</text>
<text x="34.000000" y="99.150730" fill="rgb(255,12,12)"  stroke="rgb(255,12,12)" stroke-width="1" font-size="16" >O</text>
<text x="104.402940" y="48.000000" fill="rgb(255,12,12)"  stroke="rgb(255,12,12)" stroke-width="1" font-size="16" >O</text>
<text x="174.805881" y="99.150730" fill="rgb(255,12,12)"  stroke="rgb(255,12,12)" stroke-width="1" font-size="16" >O</text>
</svg>
</g>
<text font-size="18.000000" fill ="black" font-family="sans-serif"
x="10.000000" y="20.000000" ></text>
</svg>
