<?xml version="1.0"?>
<svg version="1.1" id="topsvg"
xmlns="http://www.w3.org/2000/svg" xmlns:xlink="http://www.w3.org/1999/xlink"
xmlns:cml="http://www.xml-cml.org/schema" x="0" y="0" width="200px" height="200px" viewBox="0 0 100 100">
<title> - Open Babel Depiction</title>
<rect x="0" y="0" width="100" height="100" fill="white"/>
<g transform="translate(0,0)">
<svg width="100" height="100" x="0" y="0" viewBox="0 0 382.026 293.125"
font-family="sans-serif" stroke="rgb(0,0,0)" stroke-width="2"  stroke-linecap="round">
<line x1="171.2" y1="220.7" x2="171.2" y2="195.0" stroke="rgb(0,0,0)"  stroke-width="2.0"/>
<line x1="177.2" y1="220.7" x2="177.2" y2="195.0" stroke="rgb(0,0,0)"  stroke-width="2.0"/>
<line x1="174.2" y1="195.0" x2="230.1" y2="162.8" stroke="rgb(0,0,0)"  stroke-width="2.0"/>
<line x1="252.6" y1="162.8" x2="274.9" y2="175.6" stroke="rgb(0,0,0)"  stroke-width="2.0"/>
<line x1="241.4" y1="143.2" x2="241.4" y2="117.5" stroke="rgb(0,0,0)"  stroke-width="2.0"/>
<line x1="174.2" y1="195.0" x2="151.9" y2="182.1" stroke="rgb(0,0,0)"  stroke-width="2.0"/>
<line x1="140.7" y1="162.6" x2="140.7" y2="136.9" stroke="rgb(0,0,0)"  stroke-width="2.0"/>
<line x1="129.4" y1="182.1" x2="107.1" y2="195.0" stroke="rgb(0,0,0)"  stroke-width="2.0"/>
<line x1="342.0" y1="175.6" x2="342.0" y2="214.4" stroke="rgb(0,0,0)"  stroke-width="2.0"/>
<line x1="334.8" y1="181.6" x2="334.8" y2="208.4" stroke="rgb(0,0,0)"  stroke-width="2.0"/>
<line x1="342.0" y1="214.4" x2="308.5" y2="233.8" stroke="rgb(0,0,0)"  stroke-width="2.0"/>
<line x1="308.5" y1="233.8" x2="274.9" y2="214.4" stroke="rgb(0,0,0)"  stroke-width="2.0"/>
<line x1="306.9" y1="224.5" x2="283.7" y2="211.1" stroke="rgb(0,0,0)"  stroke-width="2.0"/>
<line x1="274.9" y1="214.4" x2="274.9" y2="175.6" stroke="rgb(0,0,0)"  stroke-width="2.0"/>
<line x1="274.9" y1="175.6" x2="308.5" y2="156.3" stroke="rgb(0,0,0)"  stroke-width="2.0"/>
<line x1="283.7" y1="178.9" x2="306.9" y2="165.5" stroke="rgb(0,0,0)"  stroke-width="2.0"/>
<line x1="308.5" y1="156.3" x2="342.0" y2="175.6" stroke="rgb(0,0,0)"  stroke-width="2.0"/>
<line x1="207.8" y1="59.4" x2="241.4" y2="40.0" stroke="rgb(0,0,0)"  stroke-width="2.0"/>
<line x1="216.6" y1="62.6" x2="239.8" y2="49.2" stroke="rgb(0,0,0)"  stroke-width="2.0"/>
<line x1="241.4" y1="40.0" x2="274.9" y2="59.4" stroke="rgb(0,0,0)"  stroke-width="2.0"/>
<line x1="274.9" y1="59.4" x2="274.9" y2="98.1" stroke="rgb(0,0,0)"  stroke-width="2.0"/>
<line x1="267.7" y1="65.4" x2="267.7" y2="92.1" stroke="rgb(0,0,0)"  stroke-width="2.0"/>
<line x1="274.9" y1="98.1" x2="241.4" y2="117.5" stroke="rgb(0,0,0)"  stroke-width="2.0"/>
<line x1="241.4" y1="117.5" x2="207.8" y2="98.1" stroke="rgb(0,0,0)"  stroke-width="2.0"/>
<line x1="239.8" y1="108.3" x2="216.6" y2="94.9" stroke="rgb(0,0,0)"  stroke-width="2.0"/>
<line x1="207.8" y1="98.1" x2="207.8" y2="59.4" stroke="rgb(0,0,0)"  stroke-width="2.0"/>
<line x1="107.1" y1="78.7" x2="140.7" y2="59.4" stroke="rgb(0,0,0)"  stroke-width="2.0"/>
<line x1="115.9" y1="82.0" x2="139.1" y2="68.6" stroke="rgb(0,0,0)"  stroke-width="2.0"/>
<line x1="140.7" y1="59.4" x2="174.2" y2="78.7" stroke="rgb(0,0,0)"  stroke-width="2.0"/>
<line x1="174.2" y1="78.7" x2="174.2" y2="117.5" stroke="rgb(0,0,0)"  stroke-width="2.0"/>
<line x1="167.0" y1="84.7" x2="167.0" y2="111.5" stroke="rgb(0,0,0)"  stroke-width="2.0"/>
<line x1="174.2" y1="117.5" x2="140.7" y2="136.9" stroke="rgb(0,0,0)"  stroke-width="2.0"/>
<line x1="140.7" y1="136.9" x2="107.1" y2="117.5" stroke="rgb(0,0,0)"  stroke-width="2.0"/>
<line x1="139.1" y1="127.6" x2="115.9" y2="114.3" stroke="rgb(0,0,0)"  stroke-width="2.0"/>
<line x1="107.1" y1="117.5" x2="107.1" y2="78.7" stroke="rgb(0,0,0)"  stroke-width="2.0"/>
<line x1="73.6" y1="253.1" x2="40.0" y2="233.7" stroke="rgb(0,0,0)"  stroke-width="2.0"/>
<line x1="72.0" y1="243.9" x2="48.8" y2="230.5" stroke="rgb(0,0,0)"  stroke-width="2.0"/>
<line x1="40.0" y1="233.7" x2="40.0" y2="195.0" stroke="rgb(0,0,0)"  stroke-width="2.0"/>
<line x1="40.0" y1="195.0" x2="73.6" y2="175.6" stroke="rgb(0,0,0)"  stroke-width="2.0"/>
<line x1="48.8" y1="198.2" x2="72.0" y2="184.9" stroke="rgb(0,0,0)"  stroke-width="2.0"/>
<line x1="73.6" y1="175.6" x2="107.1" y2="195.0" stroke="rgb(0,0,0)"  stroke-width="2.0"/>
<line x1="107.1" y1="195.0" x2="107.1" y2="233.7" stroke="rgb(0,0,0)"  stroke-width="2.0"/>
<line x1="99.9" y1="201.0" x2="99.9" y2="227.7" stroke="rgb(0,0,0)"  stroke-width="2.0"/>
<line x1="107.1" y1="233.7" x2="73.6" y2="253.1" stroke="rgb(0,0,0)"  stroke-width="2.0"/>
<text x="134.675453" y="183.625000" fill="rgb(12,12,255)"  stroke="rgb(12,12,255)" stroke-width="1" font-size="16" >N</text>
<text x="168.233938" y="241.750000" fill="rgb(255,12,12)"  stroke="rgb(255,12,12)" stroke-width="1" font-size="16" >O</text>
<text x="235.350906" y="164.250000" fill="rgb(12,12,255)"  stroke="rgb(12,12,255)" stroke-width="1" font-size="16" >N</text>
</svg>
</g>
<text font-size="18.000000" fill ="black" font-family="sans-serif"
x="10.000000" y="20.000000" ></text>
</svg>
