<?xml version="1.0"?>
<svg version="1.1" id="topsvg"
xmlns="http://www.w3.org/2000/svg" xmlns:xlink="http://www.w3.org/1999/xlink"
xmlns:cml="http://www.xml-cml.org/schema" x="0" y="0" width="200px" height="200px" viewBox="0 0 100 100">
<title> - Open Babel Depiction</title>
<rect x="0" y="0" width="100" height="100" fill="white"/>
<g transform="translate(0,0)">
<svg width="100" height="100" x="0" y="0" viewBox="0 0 218.564 280"
font-family="sans-serif" stroke="rgb(0,0,0)" stroke-width="2"  stroke-linecap="round">
<line x1="51.3" y1="233.5" x2="63.4" y2="226.5" stroke="rgb(0,0,0)"  stroke-width="2.0"/>
<line x1="71.6" y1="207.0" x2="77.6" y2="180.0" stroke="rgb(0,0,0)"  stroke-width="2.0"/>
<line x1="77.6" y1="207.0" x2="71.6" y2="180.0" stroke="rgb(0,0,0)"  stroke-width="2.0"/>
<line x1="71.6" y1="100.0" x2="77.6" y2="73.0" stroke="rgb(0,0,0)"  stroke-width="2.0"/>
<line x1="77.6" y1="100.0" x2="71.6" y2="73.0" stroke="rgb(0,0,0)"  stroke-width="2.0"/>
<line x1="63.4" y1="53.5" x2="51.3" y2="46.5" stroke="rgb(0,0,0)"  stroke-width="2.0"/>
<line x1="51.3" y1="113.5" x2="74.6" y2="100.0" stroke="rgb(0,0,0)"  stroke-width="2.0"/>
<line x1="74.6" y1="100.0" x2="109.3" y2="120.0" stroke="rgb(0,0,0)"  stroke-width="2.0"/>
<line x1="109.3" y1="120.0" x2="109.3" y2="160.0" stroke="rgb(0,0,0)"  stroke-width="2.0"/>
<line x1="109.3" y1="160.0" x2="74.6" y2="180.0" stroke="rgb(0,0,0)"  stroke-width="2.0"/>
<line x1="74.6" y1="180.0" x2="51.3" y2="166.5" stroke="rgb(0,0,0)"  stroke-width="2.0"/>
<line x1="40.0" y1="147.0" x2="40.0" y2="133.0" stroke="rgb(0,0,0)"  stroke-width="2.0"/>
<line x1="178.6" y1="160.0" x2="143.9" y2="180.0" stroke="rgb(0,0,0)"  stroke-width="2.0"/>
<line x1="143.9" y1="180.0" x2="109.3" y2="160.0" stroke="rgb(0,0,0)"  stroke-width="2.0"/>
<line x1="142.3" y1="170.8" x2="118.1" y2="156.8" stroke="rgb(0,0,0)"  stroke-width="2.0"/>
<line x1="109.3" y1="120.0" x2="143.9" y2="100.0" stroke="rgb(0,0,0)"  stroke-width="2.0"/>
<line x1="118.1" y1="123.2" x2="142.3" y2="109.2" stroke="rgb(0,0,0)"  stroke-width="2.0"/>
<line x1="143.9" y1="100.0" x2="178.6" y2="120.0" stroke="rgb(0,0,0)"  stroke-width="2.0"/>
<line x1="178.6" y1="120.0" x2="178.6" y2="160.0" stroke="rgb(0,0,0)"  stroke-width="2.0"/>
<line x1="171.4" y1="126.0" x2="171.4" y2="154.0" stroke="rgb(0,0,0)"  stroke-width="2.0"/>
<text x="14.000000" y="248.000000" fill="rgb(12,12,255)"  stroke="rgb(12,12,255)" stroke-width="1" font-size="16" >H</text>
<text x="26.000000" y="251.680000" fill="rgb(12,12,255)"  stroke="rgb(12,12,255)" stroke-width="1" font-size="13" >2</text>
<text x="32.500000" y="248.000000" fill="rgb(12,12,255)"  stroke="rgb(12,12,255)" stroke-width="1" font-size="16" >N</text>
<text x="68.641016" y="228.000000" fill="rgb(12,12,255)"  stroke="rgb(12,12,255)" stroke-width="1" font-size="16" >N</text>
<text x="22.000000" y="168.000000" fill="rgb(12,12,255)"  stroke="rgb(12,12,255)" stroke-width="1" font-size="16" >HN</text>
<text x="22.000000" y="128.000000" fill="rgb(12,12,255)"  stroke="rgb(12,12,255)" stroke-width="1" font-size="16" >HN</text>
<text x="68.641016" y="68.000000" fill="rgb(12,12,255)"  stroke="rgb(12,12,255)" stroke-width="1" font-size="16" >N</text>
<text x="14.000000" y="48.000000" fill="rgb(12,12,255)"  stroke="rgb(12,12,255)" stroke-width="1" font-size="16" >H</text>
<text x="26.000000" y="51.680000" fill="rgb(12,12,255)"  stroke="rgb(12,12,255)" stroke-width="1" font-size="13" >2</text>
<text x="32.500000" y="48.000000" fill="rgb(12,12,255)"  stroke="rgb(12,12,255)" stroke-width="1" font-size="16" >N</text>
</svg>
</g>
<text font-size="18.000000" fill ="black" font-family="sans-serif"
x="10.000000" y="20.000000" ></text>
</svg>
