<?xml version="1.0"?>
<svg version="1.1" id="topsvg"
xmlns="http://www.w3.org/2000/svg" xmlns:xlink="http://www.w3.org/1999/xlink"
xmlns:cml="http://www.xml-cml.org/schema" x="0" y="0" width="200px" height="200px" viewBox="0 0 100 100">
<title> - Open Babel Depiction</title>
<rect x="0" y="0" width="100" height="100" fill="white"/>
<g transform="translate(0,0)">
<svg width="100" height="100" x="0" y="0" viewBox="0 0 325.477 310.403"
font-family="sans-serif" stroke="rgb(0,0,0)" stroke-width="2"  stroke-linecap="round">
<line x1="135.2" y1="258.0" x2="143.5" y2="232.4" stroke="rgb(0,0,0)"  stroke-width="2.0"/>
<line x1="250.8" y1="220.0" x2="274.2" y2="233.5" stroke="rgb(0,0,0)"  stroke-width="2.0"/>
<line x1="120.0" y1="200.0" x2="93.0" y2="200.0" stroke="rgb(0,0,0)"  stroke-width="2.0"/>
<line x1="83.0" y1="213.0" x2="83.0" y2="227.0" stroke="rgb(0,0,0)"  stroke-width="2.0"/>
<line x1="77.0" y1="213.0" x2="77.0" y2="227.0" stroke="rgb(0,0,0)"  stroke-width="2.0"/>
<line x1="67.0" y1="203.0" x2="53.0" y2="203.0" stroke="rgb(0,0,0)"  stroke-width="2.0"/>
<line x1="67.0" y1="197.0" x2="53.0" y2="197.0" stroke="rgb(0,0,0)"  stroke-width="2.0"/>
<line x1="80.0" y1="187.0" x2="80.0" y2="160.0" stroke="rgb(0,0,0)"  stroke-width="2.0"/>
<line x1="77.0" y1="80.0" x2="77.0" y2="53.0" stroke="rgb(0,0,0)"  stroke-width="2.0"/>
<line x1="83.0" y1="80.0" x2="83.0" y2="53.0" stroke="rgb(0,0,0)"  stroke-width="2.0"/>
<line x1="155.9" y1="171.7" x2="181.6" y2="180.0" stroke="rgb(0,0,0)"  stroke-width="2.0"/>
<line x1="181.6" y1="180.0" x2="181.6" y2="220.0" stroke="rgb(0,0,0)"  stroke-width="2.0"/>
<line x1="181.6" y1="220.0" x2="143.5" y2="232.4" stroke="rgb(0,0,0)"  stroke-width="2.0"/>
<line x1="143.5" y1="232.4" x2="120.0" y2="200.0" stroke="rgb(0,0,0)"  stroke-width="2.0"/>
<line x1="145.8" y1="223.3" x2="129.4" y2="200.6" stroke="rgb(0,0,0)"  stroke-width="2.0"/>
<line x1="120.0" y1="200.0" x2="135.9" y2="178.2" stroke="rgb(0,0,0)"  stroke-width="2.0"/>
<line x1="250.8" y1="220.0" x2="216.2" y2="240.0" stroke="rgb(0,0,0)"  stroke-width="2.0"/>
<line x1="216.2" y1="240.0" x2="181.6" y2="220.0" stroke="rgb(0,0,0)"  stroke-width="2.0"/>
<line x1="214.6" y1="230.8" x2="190.3" y2="216.8" stroke="rgb(0,0,0)"  stroke-width="2.0"/>
<line x1="181.6" y1="180.0" x2="216.2" y2="160.0" stroke="rgb(0,0,0)"  stroke-width="2.0"/>
<line x1="190.3" y1="183.2" x2="214.6" y2="169.2" stroke="rgb(0,0,0)"  stroke-width="2.0"/>
<line x1="216.2" y1="160.0" x2="250.8" y2="180.0" stroke="rgb(0,0,0)"  stroke-width="2.0"/>
<line x1="250.8" y1="180.0" x2="250.8" y2="220.0" stroke="rgb(0,0,0)"  stroke-width="2.0"/>
<line x1="243.6" y1="186.0" x2="243.6" y2="214.0" stroke="rgb(0,0,0)"  stroke-width="2.0"/>
<line x1="103.4" y1="93.5" x2="80.0" y2="80.0" stroke="rgb(0,0,0)"  stroke-width="2.0"/>
<line x1="80.0" y1="80.0" x2="45.4" y2="100.0" stroke="rgb(0,0,0)"  stroke-width="2.0"/>
<line x1="45.4" y1="100.0" x2="45.4" y2="140.0" stroke="rgb(0,0,0)"  stroke-width="2.0"/>
<line x1="52.6" y1="106.0" x2="52.6" y2="134.0" stroke="rgb(0,0,0)"  stroke-width="2.0"/>
<line x1="45.4" y1="140.0" x2="80.0" y2="160.0" stroke="rgb(0,0,0)"  stroke-width="2.0"/>
<line x1="80.0" y1="160.0" x2="103.2" y2="146.6" stroke="rgb(0,0,0)"  stroke-width="2.0"/>
<line x1="81.6" y1="150.8" x2="97.9" y2="141.4" stroke="rgb(0,0,0)"  stroke-width="2.0"/>
<line x1="114.6" y1="127.0" x2="114.6" y2="113.0" stroke="rgb(0,0,0)"  stroke-width="2.0"/>
<text x="74.000000" y="48.000000" fill="rgb(255,12,12)"  stroke="rgb(255,12,12)" stroke-width="1" font-size="16" >O</text>
<text x="108.641016" y="108.000000" fill="rgb(12,12,255)"  stroke="rgb(12,12,255)" stroke-width="1" font-size="16" >NH</text>
<text x="108.641016" y="148.000000" fill="rgb(12,12,255)"  stroke="rgb(12,12,255)" stroke-width="1" font-size="16" >N</text>
<text x="34.000000" y="208.000000" fill="rgb(255,12,12)"  stroke="rgb(255,12,12)" stroke-width="1" font-size="16" >O</text>
<text x="74.000000" y="248.000000" fill="rgb(255,12,12)"  stroke="rgb(255,12,12)" stroke-width="1" font-size="16" >O</text>
<text x="74.000000" y="208.000000" fill="rgb(178,178,0)"  stroke="rgb(178,178,0)" stroke-width="1" font-size="16" >S</text>
<text x="105.150730" y="278.402940" fill="rgb(102,102,102)"  stroke="rgb(102,102,102)" stroke-width="1" font-size="16" >H</text>
<text x="117.150730" y="282.082940" fill="rgb(102,102,102)"  stroke="rgb(102,102,102)" stroke-width="1" font-size="13" >3</text>
<text x="123.650730" y="278.402940" fill="rgb(102,102,102)"  stroke="rgb(102,102,102)" stroke-width="1" font-size="16" >C</text>
<text x="279.476719" y="248.000000" fill="rgb(30,239,30)"  stroke="rgb(30,239,30)" stroke-width="1" font-size="16" >Cl</text>
<text x="137.511410" y="175.639320" fill="rgb(255,12,12)"  stroke="rgb(255,12,12)" stroke-width="1" font-size="16" >O</text>
</svg>
</g>
<text font-size="18.000000" fill ="black" font-family="sans-serif"
x="10.000000" y="20.000000" ></text>
</svg>
