<?xml version="1.0"?>
<svg version="1.1" id="topsvg"
xmlns="http://www.w3.org/2000/svg" xmlns:xlink="http://www.w3.org/1999/xlink"
xmlns:cml="http://www.xml-cml.org/schema" x="0" y="0" width="200px" height="200px" viewBox="0 0 100 100">
<title> - Open Babel Depiction</title>
<rect x="0" y="0" width="100" height="100" fill="white"/>
<g transform="translate(0,0)">
<svg width="100" height="100" x="0" y="0" viewBox="0 0 300 253.205"
font-family="sans-serif" stroke="rgb(0,0,0)" stroke-width="2"  stroke-linecap="round">
<line x1="87.0" y1="40.0" x2="60.0" y2="40.0" stroke="rgb(0,0,0)"  stroke-width="2.0"/>
<line x1="60.0" y1="40.0" x2="40.0" y2="74.6" stroke="rgb(0,0,0)"  stroke-width="2.0"/>
<line x1="40.0" y1="74.6" x2="53.5" y2="98.0" stroke="rgb(0,0,0)"  stroke-width="2.0"/>
<line x1="53.5" y1="120.5" x2="40.0" y2="143.9" stroke="rgb(0,0,0)"  stroke-width="2.0"/>
<line x1="40.0" y1="143.9" x2="60.0" y2="178.6" stroke="rgb(0,0,0)"  stroke-width="2.0"/>
<line x1="60.0" y1="178.6" x2="46.5" y2="201.9" stroke="rgb(0,0,0)"  stroke-width="2.0"/>
<line x1="73.0" y1="109.3" x2="100.0" y2="109.3" stroke="rgb(0,0,0)"  stroke-width="2.0"/>
<line x1="180.0" y1="109.3" x2="207.0" y2="109.3" stroke="rgb(0,0,0)"  stroke-width="2.0"/>
<line x1="223.0" y1="122.3" x2="223.0" y2="136.3" stroke="rgb(0,0,0)"  stroke-width="2.0"/>
<line x1="217.0" y1="122.3" x2="217.0" y2="136.3" stroke="rgb(0,0,0)"  stroke-width="2.0"/>
<line x1="233.0" y1="106.3" x2="247.0" y2="106.3" stroke="rgb(0,0,0)"  stroke-width="2.0"/>
<line x1="233.0" y1="112.3" x2="247.0" y2="112.3" stroke="rgb(0,0,0)"  stroke-width="2.0"/>
<line x1="220.0" y1="96.3" x2="220.0" y2="82.3" stroke="rgb(0,0,0)"  stroke-width="2.0"/>
<line x1="160.0" y1="74.6" x2="180.0" y2="109.3" stroke="rgb(0,0,0)"  stroke-width="2.0"/>
<line x1="156.8" y1="83.4" x2="170.8" y2="107.7" stroke="rgb(0,0,0)"  stroke-width="2.0"/>
<line x1="180.0" y1="109.3" x2="160.0" y2="143.9" stroke="rgb(0,0,0)"  stroke-width="2.0"/>
<line x1="160.0" y1="143.9" x2="120.0" y2="143.9" stroke="rgb(0,0,0)"  stroke-width="2.0"/>
<line x1="154.0" y1="136.7" x2="126.0" y2="136.7" stroke="rgb(0,0,0)"  stroke-width="2.0"/>
<line x1="120.0" y1="143.9" x2="100.0" y2="109.3" stroke="rgb(0,0,0)"  stroke-width="2.0"/>
<line x1="100.0" y1="109.3" x2="120.0" y2="74.6" stroke="rgb(0,0,0)"  stroke-width="2.0"/>
<line x1="109.2" y1="107.7" x2="123.2" y2="83.4" stroke="rgb(0,0,0)"  stroke-width="2.0"/>
<line x1="120.0" y1="74.6" x2="160.0" y2="74.6" stroke="rgb(0,0,0)"  stroke-width="2.0"/>
<text x="216.000000" y="77.282032" fill="rgb(12,12,255)"  stroke="rgb(12,12,255)" stroke-width="1" font-size="16" >NH</text>
<text x="240.000000" y="80.962032" fill="rgb(12,12,255)"  stroke="rgb(12,12,255)" stroke-width="1" font-size="13" >2</text>
<text x="254.000000" y="117.282032" fill="rgb(255,12,12)"  stroke="rgb(255,12,12)" stroke-width="1" font-size="16" >O</text>
<text x="214.000000" y="157.282032" fill="rgb(255,12,12)"  stroke="rgb(255,12,12)" stroke-width="1" font-size="16" >O</text>
<text x="214.000000" y="117.282032" fill="rgb(178,178,0)"  stroke="rgb(178,178,0)" stroke-width="1" font-size="16" >S</text>
<text x="96.000000" y="48.000000" fill="rgb(102,102,102)"  stroke="rgb(102,102,102)" stroke-width="1" font-size="16" >CH</text>
<text x="120.000000" y="51.680000" fill="rgb(102,102,102)"  stroke="rgb(102,102,102)" stroke-width="1" font-size="13" >3</text>
<text x="14.000000" y="221.205081" fill="rgb(102,102,102)"  stroke="rgb(102,102,102)" stroke-width="1" font-size="16" >H</text>
<text x="26.000000" y="224.885081" fill="rgb(102,102,102)"  stroke="rgb(102,102,102)" stroke-width="1" font-size="13" >3</text>
<text x="32.500000" y="221.205081" fill="rgb(102,102,102)"  stroke="rgb(102,102,102)" stroke-width="1" font-size="16" >C</text>
<text x="54.000000" y="117.282032" fill="rgb(12,12,255)"  stroke="rgb(12,12,255)" stroke-width="1" font-size="16" >N</text>
</svg>
</g>
<text font-size="18.000000" fill ="black" font-family="sans-serif"
x="10.000000" y="20.000000" ></text>
</svg>
