<?xml version="1.0"?>
<svg version="1.1" id="topsvg"
xmlns="http://www.w3.org/2000/svg" xmlns:xlink="http://www.w3.org/1999/xlink"
xmlns:cml="http://www.xml-cml.org/schema" x="0" y="0" width="200px" height="200px" viewBox="0 0 100 100">
<title> - Open Babel Depiction</title>
<rect x="0" y="0" width="100" height="100" fill="white"/>
<g transform="translate(0,0)">
<svg width="100" height="100" x="0" y="0" viewBox="0 0 284.518 274.055"
font-family="sans-serif" stroke="rgb(0,0,0)" stroke-width="2"  stroke-linecap="round">
<line x1="122.2" y1="52.4" x2="114.3" y2="78.2" stroke="rgb(0,0,0)"  stroke-width="2.0"/>
<line x1="140.6" y1="145.3" x2="175.2" y2="165.3" stroke="rgb(0,0,0)"  stroke-width="2.0"/>
<line x1="72.2" y1="85.9" x2="57.0" y2="63.6" stroke="rgb(0,0,0)"  stroke-width="2.0"/>
<line x1="77.2" y1="82.5" x2="62.0" y2="60.2" stroke="rgb(0,0,0)"  stroke-width="2.0"/>
<line x1="48.9" y1="222.3" x2="40.0" y2="183.3" stroke="rgb(0,0,0)"  stroke-width="2.0"/>
<line x1="40.0" y1="183.3" x2="69.3" y2="156.1" stroke="rgb(0,0,0)"  stroke-width="2.0"/>
<line x1="49.3" y1="184.5" x2="69.8" y2="165.4" stroke="rgb(0,0,0)"  stroke-width="2.0"/>
<line x1="69.3" y1="156.1" x2="107.5" y2="167.9" stroke="rgb(0,0,0)"  stroke-width="2.0"/>
<line x1="107.5" y1="167.9" x2="116.4" y2="206.8" stroke="rgb(0,0,0)"  stroke-width="2.0"/>
<line x1="101.9" y1="175.3" x2="108.1" y2="202.6" stroke="rgb(0,0,0)"  stroke-width="2.0"/>
<line x1="116.4" y1="206.8" x2="87.1" y2="234.1" stroke="rgb(0,0,0)"  stroke-width="2.0"/>
<line x1="87.1" y1="234.1" x2="48.9" y2="222.3" stroke="rgb(0,0,0)"  stroke-width="2.0"/>
<line x1="83.5" y1="225.4" x2="56.8" y2="217.2" stroke="rgb(0,0,0)"  stroke-width="2.0"/>
<line x1="244.5" y1="165.3" x2="244.5" y2="205.3" stroke="rgb(0,0,0)"  stroke-width="2.0"/>
<line x1="237.3" y1="171.3" x2="237.3" y2="199.3" stroke="rgb(0,0,0)"  stroke-width="2.0"/>
<line x1="244.5" y1="205.3" x2="209.9" y2="225.3" stroke="rgb(0,0,0)"  stroke-width="2.0"/>
<line x1="209.9" y1="225.3" x2="175.2" y2="205.3" stroke="rgb(0,0,0)"  stroke-width="2.0"/>
<line x1="208.3" y1="216.1" x2="184.0" y2="202.1" stroke="rgb(0,0,0)"  stroke-width="2.0"/>
<line x1="175.2" y1="205.3" x2="175.2" y2="165.3" stroke="rgb(0,0,0)"  stroke-width="2.0"/>
<line x1="175.2" y1="165.3" x2="209.9" y2="145.3" stroke="rgb(0,0,0)"  stroke-width="2.0"/>
<line x1="184.0" y1="168.6" x2="208.3" y2="154.6" stroke="rgb(0,0,0)"  stroke-width="2.0"/>
<line x1="209.9" y1="145.3" x2="244.5" y2="165.3" stroke="rgb(0,0,0)"  stroke-width="2.0"/>
<line x1="140.6" y1="145.3" x2="107.5" y2="167.9" stroke="rgb(0,0,0)"  stroke-width="2.0"/>
<line x1="69.3" y1="156.1" x2="59.5" y2="130.9" stroke="rgb(0,0,0)"  stroke-width="2.0"/>
<line x1="61.2" y1="107.6" x2="74.7" y2="84.2" stroke="rgb(0,0,0)"  stroke-width="2.0"/>
<line x1="74.7" y1="84.2" x2="114.3" y2="78.2" stroke="rgb(0,0,0)"  stroke-width="2.0"/>
<line x1="114.3" y1="78.2" x2="134.1" y2="96.6" stroke="rgb(0,0,0)"  stroke-width="2.0"/>
<line x1="142.6" y1="118.6" x2="140.6" y2="145.3" stroke="rgb(0,0,0)"  stroke-width="2.0"/>
<line x1="135.3" y1="120.0" x2="133.9" y2="138.8" stroke="rgb(0,0,0)"  stroke-width="2.0"/>
<text x="46.175632" y="59.135052" fill="rgb(255,12,12)"  stroke="rgb(255,12,12)" stroke-width="1" font-size="16" >O</text>
<text x="36.708434" y="126.825619" fill="rgb(12,12,255)"  stroke="rgb(12,12,255)" stroke-width="1" font-size="16" >HN</text>
<text x="120.051874" y="48.000000" fill="rgb(255,12,12)"  stroke="rgb(255,12,12)" stroke-width="1" font-size="16" >OH</text>
<text x="137.583742" y="113.429822" fill="rgb(12,12,255)"  stroke="rgb(12,12,255)" stroke-width="1" font-size="16" >N</text>
</svg>
</g>
<text font-size="18.000000" fill ="black" font-family="sans-serif"
x="10.000000" y="20.000000" ></text>
</svg>
