<?xml version="1.0"?>
<svg version="1.1" id="topsvg"
xmlns="http://www.w3.org/2000/svg" xmlns:xlink="http://www.w3.org/1999/xlink"
xmlns:cml="http://www.xml-cml.org/schema" x="0" y="0" width="200px" height="200px" viewBox="0 0 100 100">
<title> - Open Babel Depiction</title>
<rect x="0" y="0" width="100" height="100" fill="white"/>
<g transform="translate(0,0)">
<svg width="100" height="100" x="0" y="0" viewBox="0 0 362.487 240"
font-family="sans-serif" stroke="rgb(0,0,0)" stroke-width="2"  stroke-linecap="round">
<line x1="287.8" y1="187.0" x2="287.8" y2="160.0" stroke="rgb(0,0,0)"  stroke-width="2.0"/>
<line x1="286.3" y1="157.4" x2="309.7" y2="143.9" stroke="rgb(0,0,0)"  stroke-width="2.0"/>
<line x1="289.3" y1="162.6" x2="312.7" y2="149.1" stroke="rgb(0,0,0)"  stroke-width="2.0"/>
<line x1="287.8" y1="160.0" x2="253.2" y2="140.0" stroke="rgb(0,0,0)"  stroke-width="2.0"/>
<line x1="253.2" y1="140.0" x2="229.8" y2="153.5" stroke="rgb(0,0,0)"  stroke-width="2.0"/>
<line x1="207.3" y1="153.5" x2="183.9" y2="140.0" stroke="rgb(0,0,0)"  stroke-width="2.0"/>
<line x1="183.9" y1="140.0" x2="183.9" y2="100.0" stroke="rgb(0,0,0)"  stroke-width="2.0"/>
<line x1="183.9" y1="100.0" x2="160.5" y2="86.5" stroke="rgb(0,0,0)"  stroke-width="2.0"/>
<line x1="138.0" y1="86.5" x2="114.6" y2="100.0" stroke="rgb(0,0,0)"  stroke-width="2.0"/>
<line x1="114.6" y1="100.0" x2="80.0" y2="80.0" stroke="rgb(0,0,0)"  stroke-width="2.0"/>
<line x1="80.0" y1="80.0" x2="53.0" y2="80.0" stroke="rgb(0,0,0)"  stroke-width="2.0"/>
<line x1="80.0" y1="80.0" x2="66.5" y2="103.4" stroke="rgb(0,0,0)"  stroke-width="2.0"/>
<line x1="80.0" y1="80.0" x2="80.0" y2="53.0" stroke="rgb(0,0,0)"  stroke-width="2.0"/>
<line x1="117.6" y1="100.0" x2="117.6" y2="127.0" stroke="rgb(0,0,0)"  stroke-width="2.0"/>
<line x1="111.6" y1="100.0" x2="111.6" y2="127.0" stroke="rgb(0,0,0)"  stroke-width="2.0"/>
<line x1="185.4" y1="142.6" x2="162.0" y2="156.1" stroke="rgb(0,0,0)"  stroke-width="2.0"/>
<line x1="182.4" y1="137.4" x2="159.0" y2="150.9" stroke="rgb(0,0,0)"  stroke-width="2.0"/>
<text x="281.846097" y="208.000000" fill="rgb(255,12,12)"  stroke="rgb(255,12,12)" stroke-width="1" font-size="16" >OH</text>
<text x="316.487113" y="148.000000" fill="rgb(255,12,12)"  stroke="rgb(255,12,12)" stroke-width="1" font-size="16" >O</text>
<text x="212.564065" y="168.000000" fill="rgb(12,12,255)"  stroke="rgb(12,12,255)" stroke-width="1" font-size="16" >N</text>
<text x="212.564065" y="184.000000" fill="rgb(12,12,255)"  stroke="rgb(12,12,255)" stroke-width="1" font-size="16" >H</text>
<text x="143.282032" y="88.000000" fill="rgb(12,12,255)"  stroke="rgb(12,12,255)" stroke-width="1" font-size="16" >N</text>
<text x="143.282032" y="72.000000" fill="rgb(12,12,255)"  stroke="rgb(12,12,255)" stroke-width="1" font-size="16" >H</text>
<text x="34.000000" y="88.000000" fill="rgb(127,178,255)"  stroke="rgb(127,178,255)" stroke-width="1" font-size="16" >F</text>
<text x="54.000000" y="122.641016" fill="rgb(127,178,255)"  stroke="rgb(127,178,255)" stroke-width="1" font-size="16" >F</text>
<text x="74.000000" y="48.000000" fill="rgb(127,178,255)"  stroke="rgb(127,178,255)" stroke-width="1" font-size="16" >F</text>
<text x="108.641016" y="148.000000" fill="rgb(255,12,12)"  stroke="rgb(255,12,12)" stroke-width="1" font-size="16" >O</text>
<text x="143.282032" y="168.000000" fill="rgb(255,12,12)"  stroke="rgb(255,12,12)" stroke-width="1" font-size="16" >O</text>
</svg>
</g>
<text font-size="18.000000" fill ="black" font-family="sans-serif"
x="10.000000" y="20.000000" ></text>
</svg>
