<?xml version="1.0"?>
<svg version="1.1" id="topsvg"
xmlns="http://www.w3.org/2000/svg" xmlns:xlink="http://www.w3.org/1999/xlink"
xmlns:cml="http://www.xml-cml.org/schema" x="0" y="0" width="200px" height="200px" viewBox="0 0 100 100">
<title> - Open Babel Depiction</title>
<rect x="0" y="0" width="100" height="100" fill="white"/>
<g transform="translate(0,0)">
<svg width="100" height="100" x="0" y="0" viewBox="0 0 252.612 199.658"
font-family="sans-serif" stroke="rgb(0,0,0)" stroke-width="2"  stroke-linecap="round">
<line x1="115.2" y1="53.3" x2="113.4" y2="67.2" stroke="rgb(0,0,0)"  stroke-width="2.0"/>
<line x1="109.2" y1="52.5" x2="107.4" y2="66.4" stroke="rgb(0,0,0)"  stroke-width="2.0"/>
<line x1="119.9" y1="86.2" x2="143.3" y2="99.7" stroke="rgb(0,0,0)"  stroke-width="2.0"/>
<line x1="212.6" y1="99.7" x2="212.6" y2="139.7" stroke="rgb(0,0,0)"  stroke-width="2.0"/>
<line x1="205.4" y1="105.7" x2="205.4" y2="133.7" stroke="rgb(0,0,0)"  stroke-width="2.0"/>
<line x1="212.6" y1="139.7" x2="178.0" y2="159.7" stroke="rgb(0,0,0)"  stroke-width="2.0"/>
<line x1="178.0" y1="159.7" x2="143.3" y2="139.7" stroke="rgb(0,0,0)"  stroke-width="2.0"/>
<line x1="176.4" y1="150.4" x2="152.1" y2="136.4" stroke="rgb(0,0,0)"  stroke-width="2.0"/>
<line x1="143.3" y1="139.7" x2="143.3" y2="99.7" stroke="rgb(0,0,0)"  stroke-width="2.0"/>
<line x1="143.3" y1="99.7" x2="178.0" y2="79.7" stroke="rgb(0,0,0)"  stroke-width="2.0"/>
<line x1="152.1" y1="102.9" x2="176.4" y2="88.9" stroke="rgb(0,0,0)"  stroke-width="2.0"/>
<line x1="178.0" y1="79.7" x2="212.6" y2="99.7" stroke="rgb(0,0,0)"  stroke-width="2.0"/>
<line x1="82.2" y1="143.7" x2="45.2" y2="128.4" stroke="rgb(0,0,0)"  stroke-width="2.0"/>
<line x1="45.2" y1="128.4" x2="40.0" y2="88.7" stroke="rgb(0,0,0)"  stroke-width="2.0"/>
<line x1="40.0" y1="88.7" x2="71.7" y2="64.4" stroke="rgb(0,0,0)"  stroke-width="2.0"/>
<line x1="71.7" y1="64.4" x2="96.7" y2="74.7" stroke="rgb(0,0,0)"  stroke-width="2.0"/>
<line x1="110.4" y1="92.5" x2="113.9" y2="119.3" stroke="rgb(0,0,0)"  stroke-width="2.0"/>
<line x1="113.9" y1="119.3" x2="82.2" y2="143.7" stroke="rgb(0,0,0)"  stroke-width="2.0"/>
<text x="107.910363" y="48.000000" fill="rgb(255,12,12)"  stroke="rgb(255,12,12)" stroke-width="1" font-size="16" >O</text>
<text x="102.689315" y="87.657794" fill="rgb(255,127,0)"  stroke="rgb(255,127,0)" stroke-width="1" font-size="16" >P</text>
</svg>
</g>
<text font-size="18.000000" fill ="black" font-family="sans-serif"
x="10.000000" y="20.000000" ></text>
</svg>
