<?xml version="1.0"?>
<svg version="1.1" id="topsvg"
xmlns="http://www.w3.org/2000/svg" xmlns:xlink="http://www.w3.org/1999/xlink"
xmlns:cml="http://www.xml-cml.org/schema" x="0" y="0" width="200px" height="200px" viewBox="0 0 100 100">
<title> - Open Babel Depiction</title>
<rect x="0" y="0" width="100" height="100" fill="white"/>
<g transform="translate(0,0)">
<svg width="100" height="100" x="0" y="0" viewBox="0 0 253.205 180"
font-family="sans-serif" stroke="rgb(0,0,0)" stroke-width="2"  stroke-linecap="round">
<line x1="175.6" y1="127.0" x2="175.6" y2="100.0" stroke="rgb(0,0,0)"  stroke-width="2.0"/>
<line x1="181.6" y1="127.0" x2="181.6" y2="100.0" stroke="rgb(0,0,0)"  stroke-width="2.0"/>
<line x1="178.6" y1="100.0" x2="201.9" y2="86.5" stroke="rgb(0,0,0)"  stroke-width="2.0"/>
<line x1="178.6" y1="100.0" x2="155.2" y2="86.5" stroke="rgb(0,0,0)"  stroke-width="2.0"/>
<line x1="134.2" y1="89.1" x2="119.0" y2="90.9" stroke="rgb(0,0,0)"  stroke-width="2.0"/>
<line x1="131.2" y1="83.9" x2="122.0" y2="96.1" stroke="rgb(0,0,0)"  stroke-width="2.0"/>
<line x1="98.0" y1="93.5" x2="74.6" y2="80.0" stroke="rgb(0,0,0)"  stroke-width="2.0"/>
<line x1="71.6" y1="80.0" x2="71.6" y2="53.0" stroke="rgb(0,0,0)"  stroke-width="2.0"/>
<line x1="77.6" y1="80.0" x2="77.6" y2="53.0" stroke="rgb(0,0,0)"  stroke-width="2.0"/>
<line x1="74.6" y1="80.0" x2="51.3" y2="93.5" stroke="rgb(0,0,0)"  stroke-width="2.0"/>
<text x="172.564065" y="148.000000" fill="rgb(255,12,12)"  stroke="rgb(255,12,12)" stroke-width="1" font-size="16" >O</text>
<text x="209.205081" y="88.000000" fill="rgb(12,12,255)"  stroke="rgb(12,12,255)" stroke-width="1" font-size="16" >NH</text>
<text x="233.205081" y="91.680000" fill="rgb(12,12,255)"  stroke="rgb(12,12,255)" stroke-width="1" font-size="13" >2</text>
<text x="137.923048" y="88.000000" fill="rgb(12,12,255)"  stroke="rgb(12,12,255)" stroke-width="1" font-size="16" >N</text>
<text x="103.282032" y="108.000000" fill="rgb(12,12,255)"  stroke="rgb(12,12,255)" stroke-width="1" font-size="16" >N</text>
<text x="68.641016" y="48.000000" fill="rgb(255,12,12)"  stroke="rgb(255,12,12)" stroke-width="1" font-size="16" >O</text>
<text x="14.000000" y="108.000000" fill="rgb(12,12,255)"  stroke="rgb(12,12,255)" stroke-width="1" font-size="16" >H</text>
<text x="26.000000" y="111.680000" fill="rgb(12,12,255)"  stroke="rgb(12,12,255)" stroke-width="1" font-size="13" >2</text>
<text x="32.500000" y="108.000000" fill="rgb(12,12,255)"  stroke="rgb(12,12,255)" stroke-width="1" font-size="16" >N</text>
</svg>
</g>
<text font-size="18.000000" fill ="black" font-family="sans-serif"
x="10.000000" y="20.000000" ></text>
</svg>
