<?xml version="1.0"?>
<svg version="1.1" id="topsvg"
xmlns="http://www.w3.org/2000/svg" xmlns:xlink="http://www.w3.org/1999/xlink"
xmlns:cml="http://www.xml-cml.org/schema" x="0" y="0" width="200px" height="200px" viewBox="0 0 100 100">
<title> - Open Babel Depiction</title>
<rect x="0" y="0" width="100" height="100" fill="white"/>
<g transform="translate(0,0)">
<svg width="100" height="100" x="0" y="0" viewBox="0 0 253.205 160"
font-family="sans-serif" stroke="rgb(0,0,0)" stroke-width="2"  stroke-linecap="round">
<line x1="51.3" y1="46.5" x2="74.6" y2="60.0" stroke="rgb(0,0,0)"  stroke-width="2.0"/>
<line x1="143.9" y1="60.0" x2="143.9" y2="100.0" stroke="rgb(0,0,0)"  stroke-width="2.0"/>
<line x1="143.9" y1="100.0" x2="120.5" y2="113.5" stroke="rgb(0,0,0)"  stroke-width="2.0"/>
<line x1="97.9" y1="113.4" x2="74.6" y2="100.0" stroke="rgb(0,0,0)"  stroke-width="2.0"/>
<line x1="99.7" y1="106.2" x2="83.4" y2="96.8" stroke="rgb(0,0,0)"  stroke-width="2.0"/>
<line x1="74.6" y1="100.0" x2="74.6" y2="60.0" stroke="rgb(0,0,0)"  stroke-width="2.0"/>
<line x1="74.6" y1="60.0" x2="97.9" y2="46.6" stroke="rgb(0,0,0)"  stroke-width="2.0"/>
<line x1="83.4" y1="63.2" x2="99.7" y2="53.8" stroke="rgb(0,0,0)"  stroke-width="2.0"/>
<line x1="120.5" y1="46.5" x2="143.9" y2="60.0" stroke="rgb(0,0,0)"  stroke-width="2.0"/>
<line x1="201.9" y1="106.5" x2="178.6" y2="120.0" stroke="rgb(0,0,0)"  stroke-width="2.0"/>
<line x1="178.6" y1="120.0" x2="143.9" y2="100.0" stroke="rgb(0,0,0)"  stroke-width="2.0"/>
<line x1="177.0" y1="110.8" x2="152.7" y2="96.8" stroke="rgb(0,0,0)"  stroke-width="2.0"/>
<line x1="143.9" y1="60.0" x2="167.1" y2="46.6" stroke="rgb(0,0,0)"  stroke-width="2.0"/>
<line x1="152.7" y1="63.2" x2="169.0" y2="53.8" stroke="rgb(0,0,0)"  stroke-width="2.0"/>
<line x1="189.8" y1="46.5" x2="213.2" y2="60.0" stroke="rgb(0,0,0)"  stroke-width="2.0"/>
<line x1="213.2" y1="60.0" x2="213.2" y2="86.8" stroke="rgb(0,0,0)"  stroke-width="2.0"/>
<line x1="206.0" y1="66.0" x2="206.0" y2="84.8" stroke="rgb(0,0,0)"  stroke-width="2.0"/>
<text x="14.000000" y="48.000000" fill="rgb(12,12,255)"  stroke="rgb(12,12,255)" stroke-width="1" font-size="16" >H</text>
<text x="26.000000" y="51.680000" fill="rgb(12,12,255)"  stroke="rgb(12,12,255)" stroke-width="1" font-size="13" >2</text>
<text x="32.500000" y="48.000000" fill="rgb(12,12,255)"  stroke="rgb(12,12,255)" stroke-width="1" font-size="16" >N</text>
<text x="103.282032" y="48.000000" fill="rgb(12,12,255)"  stroke="rgb(12,12,255)" stroke-width="1" font-size="16" >N</text>
<text x="172.564065" y="48.000000" fill="rgb(12,12,255)"  stroke="rgb(12,12,255)" stroke-width="1" font-size="16" >N</text>
<text x="207.205081" y="108.000000" fill="rgb(12,12,255)"  stroke="rgb(12,12,255)" stroke-width="1" font-size="16" >N</text>
<text x="103.282032" y="128.000000" fill="rgb(12,12,255)"  stroke="rgb(12,12,255)" stroke-width="1" font-size="16" >N</text>
</svg>
</g>
<text font-size="18.000000" fill ="black" font-family="sans-serif"
x="10.000000" y="20.000000" ></text>
</svg>
