<?xml version="1.0"?>
<svg version="1.1" id="topsvg"
xmlns="http://www.w3.org/2000/svg" xmlns:xlink="http://www.w3.org/1999/xlink"
xmlns:cml="http://www.xml-cml.org/schema" x="0" y="0" width="200px" height="200px" viewBox="0 0 100 100">
<title> - Open Babel Depiction</title>
<rect x="0" y="0" width="100" height="100" fill="white"/>
<g transform="translate(0,0)">
<svg width="100" height="100" x="0" y="0" viewBox="0 0 391.769 389.282"
font-family="sans-serif" stroke="rgb(0,0,0)" stroke-width="2"  stroke-linecap="round">
<line x1="156.3" y1="137.6" x2="142.3" y2="137.6" stroke="rgb(0,0,0)"  stroke-width="2.0"/>
<line x1="156.3" y1="131.6" x2="142.3" y2="131.6" stroke="rgb(0,0,0)"  stroke-width="2.0"/>
<line x1="120.2" y1="124.9" x2="113.2" y2="112.8" stroke="rgb(0,0,0)"  stroke-width="2.0"/>
<line x1="125.4" y1="121.9" x2="118.4" y2="109.8" stroke="rgb(0,0,0)"  stroke-width="2.0"/>
<line x1="122.8" y1="145.9" x2="109.3" y2="169.3" stroke="rgb(0,0,0)"  stroke-width="2.0"/>
<line x1="109.3" y1="169.3" x2="143.9" y2="189.3" stroke="rgb(0,0,0)"  stroke-width="2.0"/>
<line x1="143.9" y1="189.3" x2="167.3" y2="175.8" stroke="rgb(0,0,0)"  stroke-width="2.0"/>
<line x1="189.8" y1="175.8" x2="213.2" y2="189.3" stroke="rgb(0,0,0)"  stroke-width="2.0"/>
<line x1="213.2" y1="189.3" x2="236.6" y2="175.8" stroke="rgb(0,0,0)"  stroke-width="2.0"/>
<line x1="247.8" y1="156.3" x2="247.8" y2="129.3" stroke="rgb(0,0,0)"  stroke-width="2.0"/>
<line x1="247.8" y1="129.3" x2="282.5" y2="109.3" stroke="rgb(0,0,0)"  stroke-width="2.0"/>
<line x1="282.5" y1="109.3" x2="296.0" y2="132.7" stroke="rgb(0,0,0)"  stroke-width="2.0"/>
<line x1="298.6" y1="156.7" x2="291.6" y2="168.8" stroke="rgb(0,0,0)"  stroke-width="2.0"/>
<line x1="293.4" y1="153.7" x2="286.4" y2="165.8" stroke="rgb(0,0,0)"  stroke-width="2.0"/>
<line x1="315.5" y1="140.9" x2="329.5" y2="140.9" stroke="rgb(0,0,0)"  stroke-width="2.0"/>
<line x1="315.5" y1="146.9" x2="329.5" y2="146.9" stroke="rgb(0,0,0)"  stroke-width="2.0"/>
<line x1="282.5" y1="109.3" x2="305.9" y2="95.8" stroke="rgb(0,0,0)"  stroke-width="2.0"/>
<line x1="329.9" y1="93.2" x2="342.0" y2="100.2" stroke="rgb(0,0,0)"  stroke-width="2.0"/>
<line x1="326.9" y1="98.4" x2="339.0" y2="105.4" stroke="rgb(0,0,0)"  stroke-width="2.0"/>
<line x1="314.1" y1="76.3" x2="314.1" y2="62.3" stroke="rgb(0,0,0)"  stroke-width="2.0"/>
<line x1="320.1" y1="76.3" x2="320.1" y2="62.3" stroke="rgb(0,0,0)"  stroke-width="2.0"/>
<line x1="282.5" y1="109.3" x2="269.0" y2="85.9" stroke="rgb(0,0,0)"  stroke-width="2.0"/>
<line x1="266.4" y1="61.9" x2="273.4" y2="49.8" stroke="rgb(0,0,0)"  stroke-width="2.0"/>
<line x1="271.6" y1="64.9" x2="278.6" y2="52.8" stroke="rgb(0,0,0)"  stroke-width="2.0"/>
<line x1="249.5" y1="77.6" x2="235.5" y2="77.6" stroke="rgb(0,0,0)"  stroke-width="2.0"/>
<line x1="249.5" y1="71.6" x2="235.5" y2="71.6" stroke="rgb(0,0,0)"  stroke-width="2.0"/>
<line x1="213.2" y1="189.3" x2="213.2" y2="216.3" stroke="rgb(0,0,0)"  stroke-width="2.0"/>
<line x1="224.5" y1="235.8" x2="247.8" y2="249.3" stroke="rgb(0,0,0)"  stroke-width="2.0"/>
<line x1="247.8" y1="249.3" x2="247.8" y2="289.3" stroke="rgb(0,0,0)"  stroke-width="2.0"/>
<line x1="247.8" y1="289.3" x2="274.8" y2="289.3" stroke="rgb(0,0,0)"  stroke-width="2.0"/>
<line x1="291.7" y1="276.5" x2="298.7" y2="264.4" stroke="rgb(0,0,0)"  stroke-width="2.0"/>
<line x1="296.9" y1="279.5" x2="303.9" y2="267.4" stroke="rgb(0,0,0)"  stroke-width="2.0"/>
<line x1="296.9" y1="299.0" x2="303.9" y2="311.2" stroke="rgb(0,0,0)"  stroke-width="2.0"/>
<line x1="291.7" y1="302.0" x2="298.7" y2="314.2" stroke="rgb(0,0,0)"  stroke-width="2.0"/>
<line x1="247.8" y1="289.3" x2="247.8" y2="316.3" stroke="rgb(0,0,0)"  stroke-width="2.0"/>
<line x1="260.6" y1="333.2" x2="272.7" y2="340.2" stroke="rgb(0,0,0)"  stroke-width="2.0"/>
<line x1="257.6" y1="338.4" x2="269.7" y2="345.4" stroke="rgb(0,0,0)"  stroke-width="2.0"/>
<line x1="238.1" y1="338.4" x2="226.0" y2="345.4" stroke="rgb(0,0,0)"  stroke-width="2.0"/>
<line x1="235.1" y1="333.2" x2="223.0" y2="340.2" stroke="rgb(0,0,0)"  stroke-width="2.0"/>
<line x1="247.8" y1="289.3" x2="220.8" y2="289.3" stroke="rgb(0,0,0)"  stroke-width="2.0"/>
<line x1="203.9" y1="302.0" x2="196.9" y2="314.2" stroke="rgb(0,0,0)"  stroke-width="2.0"/>
<line x1="198.7" y1="299.0" x2="191.7" y2="311.2" stroke="rgb(0,0,0)"  stroke-width="2.0"/>
<line x1="198.7" y1="279.5" x2="191.7" y2="267.4" stroke="rgb(0,0,0)"  stroke-width="2.0"/>
<line x1="203.9" y1="276.5" x2="196.9" y2="264.4" stroke="rgb(0,0,0)"  stroke-width="2.0"/>
<line x1="109.3" y1="169.3" x2="95.8" y2="192.7" stroke="rgb(0,0,0)"  stroke-width="2.0"/>
<line x1="98.4" y1="213.7" x2="105.4" y2="225.8" stroke="rgb(0,0,0)"  stroke-width="2.0"/>
<line x1="93.2" y1="216.7" x2="100.2" y2="228.8" stroke="rgb(0,0,0)"  stroke-width="2.0"/>
<line x1="76.3" y1="206.9" x2="62.3" y2="206.9" stroke="rgb(0,0,0)"  stroke-width="2.0"/>
<line x1="76.3" y1="200.9" x2="62.3" y2="200.9" stroke="rgb(0,0,0)"  stroke-width="2.0"/>
<line x1="109.3" y1="169.3" x2="85.9" y2="155.8" stroke="rgb(0,0,0)"  stroke-width="2.0"/>
<line x1="64.9" y1="158.4" x2="52.8" y2="165.4" stroke="rgb(0,0,0)"  stroke-width="2.0"/>
<line x1="61.9" y1="153.2" x2="49.8" y2="160.2" stroke="rgb(0,0,0)"  stroke-width="2.0"/>
<line x1="71.6" y1="136.3" x2="71.6" y2="122.3" stroke="rgb(0,0,0)"  stroke-width="2.0"/>
<line x1="77.6" y1="136.3" x2="77.6" y2="122.3" stroke="rgb(0,0,0)"  stroke-width="2.0"/>
<text x="201.846097" y="297.282032" fill="rgb(12,12,255)"  stroke="rgb(12,12,255)" stroke-width="1" font-size="16" >N</text>
<text x="207.205081" y="237.282032" fill="rgb(255,12,12)"  stroke="rgb(255,12,12)" stroke-width="1" font-size="16" >O</text>
<text x="281.846097" y="297.282032" fill="rgb(12,12,255)"  stroke="rgb(12,12,255)" stroke-width="1" font-size="16" >N</text>
<text x="301.846097" y="262.641016" fill="rgb(255,12,12)"  stroke="rgb(255,12,12)" stroke-width="1" font-size="16" >O</text>
<text x="301.846097" y="331.923048" fill="rgb(255,12,12)"  stroke="rgb(255,12,12)" stroke-width="1" font-size="16" >O</text>
<text x="241.846097" y="337.282032" fill="rgb(12,12,255)"  stroke="rgb(12,12,255)" stroke-width="1" font-size="16" >N</text>
<text x="276.487113" y="357.282032" fill="rgb(255,12,12)"  stroke="rgb(255,12,12)" stroke-width="1" font-size="16" >O</text>
<text x="207.205081" y="357.282032" fill="rgb(255,12,12)"  stroke="rgb(255,12,12)" stroke-width="1" font-size="16" >O</text>
<text x="216.487113" y="82.641016" fill="rgb(255,12,12)"  stroke="rgb(255,12,12)" stroke-width="1" font-size="16" >O</text>
<text x="181.846097" y="331.923048" fill="rgb(255,12,12)"  stroke="rgb(255,12,12)" stroke-width="1" font-size="16" >O</text>
<text x="181.846097" y="262.641016" fill="rgb(255,12,12)"  stroke="rgb(255,12,12)" stroke-width="1" font-size="16" >O</text>
<text x="83.282032" y="211.923048" fill="rgb(12,12,255)"  stroke="rgb(12,12,255)" stroke-width="1" font-size="16" >N</text>
<text x="103.282032" y="246.564065" fill="rgb(255,12,12)"  stroke="rgb(255,12,12)" stroke-width="1" font-size="16" >O</text>
<text x="43.282032" y="211.923048" fill="rgb(255,12,12)"  stroke="rgb(255,12,12)" stroke-width="1" font-size="16" >O</text>
<text x="68.641016" y="157.282032" fill="rgb(12,12,255)"  stroke="rgb(12,12,255)" stroke-width="1" font-size="16" >N</text>
<text x="34.000000" y="177.282032" fill="rgb(255,12,12)"  stroke="rgb(255,12,12)" stroke-width="1" font-size="16" >O</text>
<text x="68.641016" y="117.282032" fill="rgb(255,12,12)"  stroke="rgb(255,12,12)" stroke-width="1" font-size="16" >O</text>
<text x="123.282032" y="142.641016" fill="rgb(12,12,255)"  stroke="rgb(12,12,255)" stroke-width="1" font-size="16" >N</text>
<text x="103.282032" y="108.000000" fill="rgb(255,12,12)"  stroke="rgb(255,12,12)" stroke-width="1" font-size="16" >O</text>
<text x="172.564065" y="177.282032" fill="rgb(255,12,12)"  stroke="rgb(255,12,12)" stroke-width="1" font-size="16" >O</text>
<text x="241.846097" y="177.282032" fill="rgb(255,12,12)"  stroke="rgb(255,12,12)" stroke-width="1" font-size="16" >O</text>
<text x="163.282032" y="142.641016" fill="rgb(255,12,12)"  stroke="rgb(255,12,12)" stroke-width="1" font-size="16" >O</text>
<text x="296.487113" y="151.923048" fill="rgb(12,12,255)"  stroke="rgb(12,12,255)" stroke-width="1" font-size="16" >N</text>
<text x="276.487113" y="186.564065" fill="rgb(255,12,12)"  stroke="rgb(255,12,12)" stroke-width="1" font-size="16" >O</text>
<text x="336.487113" y="151.923048" fill="rgb(255,12,12)"  stroke="rgb(255,12,12)" stroke-width="1" font-size="16" >O</text>
<text x="311.128129" y="97.282032" fill="rgb(12,12,255)"  stroke="rgb(12,12,255)" stroke-width="1" font-size="16" >N</text>
<text x="345.769145" y="117.282032" fill="rgb(255,12,12)"  stroke="rgb(255,12,12)" stroke-width="1" font-size="16" >O</text>
<text x="311.128129" y="57.282032" fill="rgb(255,12,12)"  stroke="rgb(255,12,12)" stroke-width="1" font-size="16" >O</text>
<text x="256.487113" y="82.641016" fill="rgb(12,12,255)"  stroke="rgb(12,12,255)" stroke-width="1" font-size="16" >N</text>
<text x="276.487113" y="48.000000" fill="rgb(255,12,12)"  stroke="rgb(255,12,12)" stroke-width="1" font-size="16" >O</text>
</svg>
</g>
<text font-size="18.000000" fill ="black" font-family="sans-serif"
x="10.000000" y="20.000000" ></text>
</svg>
