<?xml version="1.0"?>
<svg version="1.1" id="topsvg"
xmlns="http://www.w3.org/2000/svg" xmlns:xlink="http://www.w3.org/1999/xlink"
xmlns:cml="http://www.xml-cml.org/schema" x="0" y="0" width="200px" height="200px" viewBox="0 0 100 100">
<title> - Open Babel Depiction</title>
<rect x="0" y="0" width="100" height="100" fill="white"/>
<g transform="translate(0,0)">
<svg width="100" height="100" x="0" y="0" viewBox="0 0 426.467 279.964"
font-family="sans-serif" stroke="rgb(0,0,0)" stroke-width="2"  stroke-linecap="round">
<line x1="386.5" y1="100.0" x2="386.5" y2="60.0" stroke="rgb(0,0,0)"  stroke-width="2.0"/>
<line x1="379.3" y1="94.0" x2="379.3" y2="66.0" stroke="rgb(0,0,0)"  stroke-width="2.0"/>
<line x1="386.5" y1="60.0" x2="351.8" y2="40.0" stroke="rgb(0,0,0)"  stroke-width="2.0"/>
<line x1="351.8" y1="40.0" x2="317.2" y2="60.0" stroke="rgb(0,0,0)"  stroke-width="2.0"/>
<line x1="350.2" y1="49.2" x2="326.0" y2="63.3" stroke="rgb(0,0,0)"  stroke-width="2.0"/>
<line x1="317.2" y1="60.0" x2="317.2" y2="100.0" stroke="rgb(0,0,0)"  stroke-width="2.0"/>
<line x1="317.2" y1="100.0" x2="351.8" y2="120.0" stroke="rgb(0,0,0)"  stroke-width="2.0"/>
<line x1="326.0" y1="96.8" x2="350.2" y2="110.8" stroke="rgb(0,0,0)"  stroke-width="2.0"/>
<line x1="351.8" y1="120.0" x2="386.5" y2="100.0" stroke="rgb(0,0,0)"  stroke-width="2.0"/>
<line x1="178.6" y1="100.0" x2="213.2" y2="120.0" stroke="rgb(0,0,0)"  stroke-width="2.0"/>
<line x1="213.2" y1="120.0" x2="247.9" y2="100.0" stroke="rgb(0,0,0)"  stroke-width="2.0"/>
<line x1="247.9" y1="100.0" x2="247.9" y2="60.0" stroke="rgb(0,0,0)"  stroke-width="2.0"/>
<line x1="247.9" y1="60.0" x2="213.3" y2="40.0" stroke="rgb(0,0,0)"  stroke-width="2.0"/>
<line x1="213.3" y1="40.0" x2="178.6" y2="60.0" stroke="rgb(0,0,0)"  stroke-width="2.0"/>
<line x1="211.7" y1="49.2" x2="187.4" y2="63.2" stroke="rgb(0,0,0)"  stroke-width="2.0"/>
<line x1="178.6" y1="60.0" x2="178.6" y2="100.0" stroke="rgb(0,0,0)"  stroke-width="2.0"/>
<line x1="247.9" y1="100.0" x2="282.5" y2="120.0" stroke="rgb(0,0,0)"  stroke-width="2.0"/>
<line x1="256.7" y1="96.8" x2="280.9" y2="110.8" stroke="rgb(0,0,0)"  stroke-width="2.0"/>
<line x1="282.5" y1="120.0" x2="317.2" y2="100.0" stroke="rgb(0,0,0)"  stroke-width="2.0"/>
<line x1="317.2" y1="60.0" x2="282.5" y2="40.0" stroke="rgb(0,0,0)"  stroke-width="2.0"/>
<line x1="282.5" y1="40.0" x2="247.9" y2="60.0" stroke="rgb(0,0,0)"  stroke-width="2.0"/>
<line x1="280.9" y1="49.2" x2="256.7" y2="63.2" stroke="rgb(0,0,0)"  stroke-width="2.0"/>
<line x1="247.9" y1="180.0" x2="282.5" y2="160.0" stroke="rgb(0,0,0)"  stroke-width="2.0"/>
<line x1="249.5" y1="170.8" x2="273.7" y2="156.8" stroke="rgb(0,0,0)"  stroke-width="2.0"/>
<line x1="282.5" y1="160.0" x2="282.5" y2="120.0" stroke="rgb(0,0,0)"  stroke-width="2.0"/>
<line x1="213.2" y1="120.0" x2="213.2" y2="160.0" stroke="rgb(0,0,0)"  stroke-width="2.0"/>
<line x1="220.4" y1="126.0" x2="220.4" y2="154.0" stroke="rgb(0,0,0)"  stroke-width="2.0"/>
<line x1="213.2" y1="160.0" x2="247.9" y2="180.0" stroke="rgb(0,0,0)"  stroke-width="2.0"/>
<line x1="144.0" y1="120.0" x2="178.6" y2="100.0" stroke="rgb(0,0,0)"  stroke-width="2.0"/>
<line x1="152.8" y1="123.2" x2="177.0" y2="109.2" stroke="rgb(0,0,0)"  stroke-width="2.0"/>
<line x1="213.2" y1="160.0" x2="178.6" y2="180.0" stroke="rgb(0,0,0)"  stroke-width="2.0"/>
<line x1="178.6" y1="180.0" x2="144.0" y2="159.9" stroke="rgb(0,0,0)"  stroke-width="2.0"/>
<line x1="177.0" y1="170.7" x2="152.8" y2="156.7" stroke="rgb(0,0,0)"  stroke-width="2.0"/>
<line x1="144.0" y1="159.9" x2="144.0" y2="120.0" stroke="rgb(0,0,0)"  stroke-width="2.0"/>
<line x1="213.2" y1="240.0" x2="178.6" y2="220.0" stroke="rgb(0,0,0)"  stroke-width="2.0"/>
<line x1="178.6" y1="220.0" x2="178.6" y2="180.0" stroke="rgb(0,0,0)"  stroke-width="2.0"/>
<line x1="247.9" y1="180.0" x2="247.8" y2="220.0" stroke="rgb(0,0,0)"  stroke-width="2.0"/>
<line x1="247.8" y1="220.0" x2="213.2" y2="240.0" stroke="rgb(0,0,0)"  stroke-width="2.0"/>
<line x1="239.0" y1="216.7" x2="214.8" y2="230.7" stroke="rgb(0,0,0)"  stroke-width="2.0"/>
<line x1="109.3" y1="219.9" x2="109.3" y2="179.9" stroke="rgb(0,0,0)"  stroke-width="2.0"/>
<line x1="109.3" y1="179.9" x2="144.0" y2="159.9" stroke="rgb(0,0,0)"  stroke-width="2.0"/>
<line x1="178.6" y1="220.0" x2="143.9" y2="240.0" stroke="rgb(0,0,0)"  stroke-width="2.0"/>
<line x1="169.8" y1="216.7" x2="145.5" y2="230.7" stroke="rgb(0,0,0)"  stroke-width="2.0"/>
<line x1="143.9" y1="240.0" x2="109.3" y2="219.9" stroke="rgb(0,0,0)"  stroke-width="2.0"/>
<line x1="40.0" y1="179.9" x2="74.7" y2="159.9" stroke="rgb(0,0,0)"  stroke-width="2.0"/>
<line x1="74.7" y1="159.9" x2="109.3" y2="179.9" stroke="rgb(0,0,0)"  stroke-width="2.0"/>
<line x1="76.2" y1="169.2" x2="100.5" y2="183.2" stroke="rgb(0,0,0)"  stroke-width="2.0"/>
<line x1="109.3" y1="219.9" x2="74.7" y2="240.0" stroke="rgb(0,0,0)"  stroke-width="2.0"/>
<line x1="100.5" y1="216.7" x2="76.2" y2="230.7" stroke="rgb(0,0,0)"  stroke-width="2.0"/>
<line x1="74.7" y1="240.0" x2="40.0" y2="219.9" stroke="rgb(0,0,0)"  stroke-width="2.0"/>
<line x1="40.0" y1="219.9" x2="40.0" y2="179.9" stroke="rgb(0,0,0)"  stroke-width="2.0"/>
<line x1="47.2" y1="213.9" x2="47.2" y2="185.9" stroke="rgb(0,0,0)"  stroke-width="2.0"/>
</svg>
</g>
<text font-size="18.000000" fill ="black" font-family="sans-serif"
x="10.000000" y="20.000000" ></text>
</svg>
