<?xml version="1.0"?>
<svg version="1.1" id="topsvg"
xmlns="http://www.w3.org/2000/svg" xmlns:xlink="http://www.w3.org/1999/xlink"
xmlns:cml="http://www.xml-cml.org/schema" x="0" y="0" width="200px" height="200px" viewBox="0 0 100 100">
<title> - Open Babel Depiction</title>
<rect x="0" y="0" width="100" height="100" fill="white"/>
<g transform="translate(0,0)">
<svg width="100" height="100" x="0" y="0" viewBox="0 0 298.564 253.205"
font-family="sans-serif" stroke="rgb(0,0,0)" stroke-width="2"  stroke-linecap="round">
<line x1="133.5" y1="51.3" x2="120.0" y2="74.6" stroke="rgb(0,0,0)"  stroke-width="2.0"/>
<line x1="120.0" y1="74.6" x2="96.6" y2="61.1" stroke="rgb(0,0,0)"  stroke-width="2.0"/>
<line x1="120.0" y1="74.6" x2="100.0" y2="109.3" stroke="rgb(0,0,0)"  stroke-width="2.0"/>
<line x1="60.0" y1="178.6" x2="46.5" y2="201.9" stroke="rgb(0,0,0)"  stroke-width="2.0"/>
<line x1="120.0" y1="74.6" x2="154.6" y2="94.6" stroke="rgb(0,0,0)"  stroke-width="2.0"/>
<line x1="223.9" y1="134.6" x2="247.3" y2="148.1" stroke="rgb(0,0,0)"  stroke-width="2.0"/>
<line x1="120.0" y1="143.9" x2="100.0" y2="109.3" stroke="rgb(0,0,0)"  stroke-width="2.0"/>
<line x1="110.8" y1="142.3" x2="96.8" y2="118.1" stroke="rgb(0,0,0)"  stroke-width="2.0"/>
<line x1="100.0" y1="109.3" x2="60.0" y2="109.3" stroke="rgb(0,0,0)"  stroke-width="2.0"/>
<line x1="60.0" y1="109.3" x2="40.0" y2="143.9" stroke="rgb(0,0,0)"  stroke-width="2.0"/>
<line x1="63.2" y1="118.1" x2="49.2" y2="142.3" stroke="rgb(0,0,0)"  stroke-width="2.0"/>
<line x1="40.0" y1="143.9" x2="60.0" y2="178.6" stroke="rgb(0,0,0)"  stroke-width="2.0"/>
<line x1="60.0" y1="178.6" x2="100.0" y2="178.6" stroke="rgb(0,0,0)"  stroke-width="2.0"/>
<line x1="66.0" y1="171.4" x2="94.0" y2="171.4" stroke="rgb(0,0,0)"  stroke-width="2.0"/>
<line x1="100.0" y1="178.6" x2="120.0" y2="143.9" stroke="rgb(0,0,0)"  stroke-width="2.0"/>
<line x1="189.3" y1="74.6" x2="154.6" y2="94.6" stroke="rgb(0,0,0)"  stroke-width="2.0"/>
<line x1="187.7" y1="83.9" x2="163.4" y2="97.9" stroke="rgb(0,0,0)"  stroke-width="2.0"/>
<line x1="154.6" y1="94.6" x2="154.6" y2="134.6" stroke="rgb(0,0,0)"  stroke-width="2.0"/>
<line x1="154.6" y1="134.6" x2="189.3" y2="154.6" stroke="rgb(0,0,0)"  stroke-width="2.0"/>
<line x1="163.4" y1="131.4" x2="187.7" y2="145.4" stroke="rgb(0,0,0)"  stroke-width="2.0"/>
<line x1="189.3" y1="154.6" x2="223.9" y2="134.6" stroke="rgb(0,0,0)"  stroke-width="2.0"/>
<line x1="223.9" y1="134.6" x2="223.9" y2="94.6" stroke="rgb(0,0,0)"  stroke-width="2.0"/>
<line x1="216.7" y1="128.6" x2="216.7" y2="100.6" stroke="rgb(0,0,0)"  stroke-width="2.0"/>
<line x1="223.9" y1="94.6" x2="189.3" y2="74.6" stroke="rgb(0,0,0)"  stroke-width="2.0"/>
<text x="252.564065" y="162.641016" fill="rgb(255,12,12)"  stroke="rgb(255,12,12)" stroke-width="1" font-size="16" >OH</text>
<text x="22.000000" y="221.205081" fill="rgb(255,12,12)"  stroke="rgb(255,12,12)" stroke-width="1" font-size="16" >HO</text>
<text x="136.000000" y="48.000000" fill="rgb(102,102,102)"  stroke="rgb(102,102,102)" stroke-width="1" font-size="16" >CH</text>
<text x="160.000000" y="51.680000" fill="rgb(102,102,102)"  stroke="rgb(102,102,102)" stroke-width="1" font-size="13" >3</text>
<text x="59.358984" y="62.641016" fill="rgb(102,102,102)"  stroke="rgb(102,102,102)" stroke-width="1" font-size="16" >H</text>
<text x="71.358984" y="66.321016" fill="rgb(102,102,102)"  stroke="rgb(102,102,102)" stroke-width="1" font-size="13" >3</text>
<text x="77.858984" y="62.641016" fill="rgb(102,102,102)"  stroke="rgb(102,102,102)" stroke-width="1" font-size="16" >C</text>
</svg>
</g>
<text font-size="18.000000" fill ="black" font-family="sans-serif"
x="10.000000" y="20.000000" ></text>
</svg>
