<?xml version="1.0"?>
<svg version="1.1" id="topsvg"
xmlns="http://www.w3.org/2000/svg" xmlns:xlink="http://www.w3.org/1999/xlink"
xmlns:cml="http://www.xml-cml.org/schema" x="0" y="0" width="200px" height="200px" viewBox="0 0 100 100">
<title> - Open Babel Depiction</title>
<rect x="0" y="0" width="100" height="100" fill="white"/>
<g transform="translate(0,0)">
<svg width="100" height="100" x="0" y="0" viewBox="0 0 320 240"
font-family="sans-serif" stroke="rgb(0,0,0)" stroke-width="2"  stroke-linecap="round">
<line x1="157.0" y1="187.0" x2="157.0" y2="173.0" stroke="rgb(0,0,0)"  stroke-width="2.0"/>
<line x1="163.0" y1="187.0" x2="163.0" y2="173.0" stroke="rgb(0,0,0)"  stroke-width="2.0"/>
<line x1="173.0" y1="160.0" x2="200.0" y2="160.0" stroke="rgb(0,0,0)"  stroke-width="2.0"/>
<line x1="157.0" y1="147.0" x2="157.0" y2="133.0" stroke="rgb(0,0,0)"  stroke-width="2.0"/>
<line x1="163.0" y1="147.0" x2="163.0" y2="133.0" stroke="rgb(0,0,0)"  stroke-width="2.0"/>
<line x1="147.0" y1="160.0" x2="133.0" y2="160.0" stroke="rgb(0,0,0)"  stroke-width="2.0"/>
<line x1="107.0" y1="160.0" x2="93.0" y2="160.0" stroke="rgb(0,0,0)"  stroke-width="2.0"/>
<line x1="80.0" y1="147.0" x2="80.0" y2="120.0" stroke="rgb(0,0,0)"  stroke-width="2.0"/>
<line x1="67.0" y1="163.0" x2="53.0" y2="163.0" stroke="rgb(0,0,0)"  stroke-width="2.0"/>
<line x1="67.0" y1="157.0" x2="53.0" y2="157.0" stroke="rgb(0,0,0)"  stroke-width="2.0"/>
<line x1="83.0" y1="173.0" x2="83.0" y2="187.0" stroke="rgb(0,0,0)"  stroke-width="2.0"/>
<line x1="77.0" y1="173.0" x2="77.0" y2="187.0" stroke="rgb(0,0,0)"  stroke-width="2.0"/>
<line x1="260.0" y1="125.4" x2="280.0" y2="160.0" stroke="rgb(0,0,0)"  stroke-width="2.0"/>
<line x1="256.8" y1="134.2" x2="270.8" y2="158.4" stroke="rgb(0,0,0)"  stroke-width="2.0"/>
<line x1="280.0" y1="160.0" x2="260.0" y2="194.6" stroke="rgb(0,0,0)"  stroke-width="2.0"/>
<line x1="260.0" y1="194.6" x2="220.0" y2="194.6" stroke="rgb(0,0,0)"  stroke-width="2.0"/>
<line x1="254.0" y1="187.4" x2="226.0" y2="187.4" stroke="rgb(0,0,0)"  stroke-width="2.0"/>
<line x1="220.0" y1="194.6" x2="200.0" y2="160.0" stroke="rgb(0,0,0)"  stroke-width="2.0"/>
<line x1="200.0" y1="160.0" x2="220.0" y2="125.4" stroke="rgb(0,0,0)"  stroke-width="2.0"/>
<line x1="209.2" y1="158.4" x2="223.2" y2="134.2" stroke="rgb(0,0,0)"  stroke-width="2.0"/>
<line x1="220.0" y1="125.4" x2="260.0" y2="125.4" stroke="rgb(0,0,0)"  stroke-width="2.0"/>
<line x1="45.4" y1="60.0" x2="80.0" y2="40.0" stroke="rgb(0,0,0)"  stroke-width="2.0"/>
<line x1="54.2" y1="63.2" x2="78.4" y2="49.2" stroke="rgb(0,0,0)"  stroke-width="2.0"/>
<line x1="80.0" y1="40.0" x2="114.6" y2="60.0" stroke="rgb(0,0,0)"  stroke-width="2.0"/>
<line x1="114.6" y1="60.0" x2="114.6" y2="100.0" stroke="rgb(0,0,0)"  stroke-width="2.0"/>
<line x1="107.4" y1="66.0" x2="107.4" y2="94.0" stroke="rgb(0,0,0)"  stroke-width="2.0"/>
<line x1="114.6" y1="100.0" x2="80.0" y2="120.0" stroke="rgb(0,0,0)"  stroke-width="2.0"/>
<line x1="80.0" y1="120.0" x2="45.4" y2="100.0" stroke="rgb(0,0,0)"  stroke-width="2.0"/>
<line x1="78.4" y1="110.8" x2="54.2" y2="96.8" stroke="rgb(0,0,0)"  stroke-width="2.0"/>
<line x1="45.4" y1="100.0" x2="45.4" y2="60.0" stroke="rgb(0,0,0)"  stroke-width="2.0"/>
<text x="114.000000" y="168.000000" fill="rgb(12,12,255)"  stroke="rgb(12,12,255)" stroke-width="1" font-size="16" >NH</text>
<text x="74.000000" y="208.000000" fill="rgb(255,12,12)"  stroke="rgb(255,12,12)" stroke-width="1" font-size="16" >O</text>
<text x="34.000000" y="168.000000" fill="rgb(255,12,12)"  stroke="rgb(255,12,12)" stroke-width="1" font-size="16" >O</text>
<text x="74.000000" y="168.000000" fill="rgb(178,178,0)"  stroke="rgb(178,178,0)" stroke-width="1" font-size="16" >S</text>
<text x="154.000000" y="208.000000" fill="rgb(255,12,12)"  stroke="rgb(255,12,12)" stroke-width="1" font-size="16" >O</text>
<text x="154.000000" y="128.000000" fill="rgb(255,12,12)"  stroke="rgb(255,12,12)" stroke-width="1" font-size="16" >O</text>
<text x="154.000000" y="168.000000" fill="rgb(178,178,0)"  stroke="rgb(178,178,0)" stroke-width="1" font-size="16" >S</text>
</svg>
</g>
<text font-size="18.000000" fill ="black" font-family="sans-serif"
x="10.000000" y="20.000000" ></text>
</svg>
