<?xml version="1.0"?>
<svg version="1.1" id="topsvg"
xmlns="http://www.w3.org/2000/svg" xmlns:xlink="http://www.w3.org/1999/xlink"
xmlns:cml="http://www.xml-cml.org/schema" x="0" y="0" width="200px" height="200px" viewBox="0 0 100 100">
<title> - Open Babel Depiction</title>
<rect x="0" y="0" width="100" height="100" fill="white"/>
<g transform="translate(0,0)">
<svg width="100" height="100" x="0" y="0" viewBox="0 0 210.836 230.403"
font-family="sans-serif" stroke="rgb(0,0,0)" stroke-width="2"  stroke-linecap="round">
<line x1="155.7" y1="52.4" x2="151.3" y2="65.7" stroke="rgb(0,0,0)"  stroke-width="2.0"/>
<line x1="77.6" y1="150.4" x2="77.6" y2="177.4" stroke="rgb(0,0,0)"  stroke-width="2.0"/>
<line x1="71.6" y1="150.4" x2="71.6" y2="177.4" stroke="rgb(0,0,0)"  stroke-width="2.0"/>
<line x1="135.0" y1="138.7" x2="109.3" y2="130.4" stroke="rgb(0,0,0)"  stroke-width="2.0"/>
<line x1="109.3" y1="130.4" x2="109.3" y2="90.4" stroke="rgb(0,0,0)"  stroke-width="2.0"/>
<line x1="116.5" y1="124.4" x2="116.5" y2="96.4" stroke="rgb(0,0,0)"  stroke-width="2.0"/>
<line x1="109.3" y1="90.4" x2="135.0" y2="82.1" stroke="rgb(0,0,0)"  stroke-width="2.0"/>
<line x1="155.0" y1="88.6" x2="170.8" y2="110.4" stroke="rgb(0,0,0)"  stroke-width="2.0"/>
<line x1="170.8" y1="110.4" x2="155.1" y2="132.1" stroke="rgb(0,0,0)"  stroke-width="2.0"/>
<line x1="161.5" y1="111.0" x2="150.4" y2="126.2" stroke="rgb(0,0,0)"  stroke-width="2.0"/>
<line x1="40.0" y1="117.4" x2="40.0" y2="90.4" stroke="rgb(0,0,0)"  stroke-width="2.0"/>
<line x1="40.0" y1="90.4" x2="63.2" y2="77.0" stroke="rgb(0,0,0)"  stroke-width="2.0"/>
<line x1="48.8" y1="93.6" x2="65.1" y2="84.2" stroke="rgb(0,0,0)"  stroke-width="2.0"/>
<line x1="85.9" y1="76.9" x2="109.3" y2="90.4" stroke="rgb(0,0,0)"  stroke-width="2.0"/>
<line x1="109.3" y1="130.4" x2="74.6" y2="150.4" stroke="rgb(0,0,0)"  stroke-width="2.0"/>
<line x1="74.6" y1="150.4" x2="51.3" y2="136.9" stroke="rgb(0,0,0)"  stroke-width="2.0"/>
<text x="155.684973" y="48.000000" fill="rgb(102,102,102)"  stroke="rgb(102,102,102)" stroke-width="1" font-size="16" >CH</text>
<text x="179.684973" y="51.680000" fill="rgb(102,102,102)"  stroke="rgb(102,102,102)" stroke-width="1" font-size="13" >3</text>
<text x="141.324293" y="86.042261" fill="rgb(12,12,255)"  stroke="rgb(12,12,255)" stroke-width="1" font-size="16" >N</text>
<text x="141.324293" y="150.763620" fill="rgb(12,12,255)"  stroke="rgb(12,12,255)" stroke-width="1" font-size="16" >N</text>
<text x="68.641016" y="78.402940" fill="rgb(12,12,255)"  stroke="rgb(12,12,255)" stroke-width="1" font-size="16" >N</text>
<text x="22.000000" y="138.402940" fill="rgb(12,12,255)"  stroke="rgb(12,12,255)" stroke-width="1" font-size="16" >HN</text>
<text x="68.641016" y="198.402940" fill="rgb(255,12,12)"  stroke="rgb(255,12,12)" stroke-width="1" font-size="16" >O</text>
</svg>
</g>
<text font-size="18.000000" fill ="black" font-family="sans-serif"
x="10.000000" y="20.000000" ></text>
</svg>
