<?xml version="1.0"?>
<svg version="1.1" id="topsvg"
xmlns="http://www.w3.org/2000/svg" xmlns:xlink="http://www.w3.org/1999/xlink"
xmlns:cml="http://www.xml-cml.org/schema" x="0" y="0" width="200px" height="200px" viewBox="0 0 100 100">
<title> - Open Babel Depiction</title>
<rect x="0" y="0" width="100" height="100" fill="white"/>
<g transform="translate(0,0)">
<svg width="100" height="100" x="0" y="0" viewBox="0 0 167.023 173.914"
font-family="sans-serif" stroke="rgb(0,0,0)" stroke-width="2"  stroke-linecap="round">
<line x1="119.4" y1="123.4" x2="103.5" y2="101.6" stroke="rgb(0,0,0)"  stroke-width="2.0"/>
<line x1="55.9" y1="112.1" x2="47.6" y2="123.4" stroke="rgb(0,0,0)"  stroke-width="2.0"/>
<line x1="61.8" y1="55.8" x2="72.8" y2="47.8" stroke="rgb(0,0,0)"  stroke-width="2.0"/>
<line x1="67.7" y1="60.4" x2="75.4" y2="54.8" stroke="rgb(0,0,0)"  stroke-width="2.0"/>
<line x1="94.0" y1="47.6" x2="105.4" y2="55.9" stroke="rgb(0,0,0)"  stroke-width="2.0"/>
<line x1="111.8" y1="76.1" x2="103.5" y2="101.6" stroke="rgb(0,0,0)"  stroke-width="2.0"/>
<line x1="104.3" y1="75.7" x2="98.5" y2="93.6" stroke="rgb(0,0,0)"  stroke-width="2.0"/>
<line x1="103.5" y1="101.6" x2="76.5" y2="101.6" stroke="rgb(0,0,0)"  stroke-width="2.0"/>
<line x1="59.5" y1="89.2" x2="55.2" y2="75.9" stroke="rgb(0,0,0)"  stroke-width="2.0"/>
<text x="123.022820" y="141.914351" fill="rgb(12,12,255)"  stroke="rgb(12,12,255)" stroke-width="1" font-size="16" >NH</text>
<text x="147.022820" y="145.594351" fill="rgb(12,12,255)"  stroke="rgb(12,12,255)" stroke-width="1" font-size="13" >2</text>
<text x="57.511410" y="109.553671" fill="rgb(12,12,255)"  stroke="rgb(12,12,255)" stroke-width="1" font-size="16" >N</text>
<text x="34.000000" y="141.914351" fill="rgb(191,191,191)"  stroke="rgb(191,191,191)" stroke-width="1" font-size="16" >H</text>
<text x="45.150730" y="71.511410" fill="rgb(12,12,255)"  stroke="rgb(12,12,255)" stroke-width="1" font-size="16" >N</text>
<text x="77.511410" y="48.000000" fill="rgb(12,12,255)"  stroke="rgb(12,12,255)" stroke-width="1" font-size="16" >N</text>
<text x="109.872090" y="71.511410" fill="rgb(12,12,255)"  stroke="rgb(12,12,255)" stroke-width="1" font-size="16" >N</text>
</svg>
</g>
<text font-size="18.000000" fill ="black" font-family="sans-serif"
x="10.000000" y="20.000000" ></text>
</svg>
