<?xml version="1.0"?>
<svg version="1.1" id="topsvg"
xmlns="http://www.w3.org/2000/svg" xmlns:xlink="http://www.w3.org/1999/xlink"
xmlns:cml="http://www.xml-cml.org/schema" x="0" y="0" width="200px" height="200px" viewBox="0 0 100 100">
<title> - Open Babel Depiction</title>
<rect x="0" y="0" width="100" height="100" fill="white"/>
<g transform="translate(0,0)">
<svg width="100" height="100" x="0" y="0" viewBox="0 0 316.512 310.966"
font-family="sans-serif" stroke="rgb(0,0,0)" stroke-width="2"  stroke-linecap="round">
<line x1="71.0" y1="47.6" x2="49.1" y2="63.5" stroke="rgb(0,0,0)"  stroke-width="2.0"/>
<line x1="49.1" y1="63.5" x2="53.3" y2="103.3" stroke="rgb(0,0,0)"  stroke-width="2.0"/>
<line x1="53.3" y1="103.3" x2="89.9" y2="119.6" stroke="rgb(0,0,0)"  stroke-width="2.0"/>
<line x1="137.9" y1="162.9" x2="137.9" y2="202.9" stroke="rgb(0,0,0)"  stroke-width="2.0"/>
<line x1="137.9" y1="202.9" x2="114.6" y2="216.4" stroke="rgb(0,0,0)"  stroke-width="2.0"/>
<line x1="137.9" y1="162.9" x2="172.6" y2="182.9" stroke="rgb(0,0,0)"  stroke-width="2.0"/>
<line x1="241.9" y1="222.9" x2="265.3" y2="236.4" stroke="rgb(0,0,0)"  stroke-width="2.0"/>
<line x1="172.6" y1="222.9" x2="149.2" y2="236.4" stroke="rgb(0,0,0)"  stroke-width="2.0"/>
<line x1="46.5" y1="247.6" x2="60.0" y2="271.0" stroke="rgb(0,0,0)"  stroke-width="2.0"/>
<line x1="60.0" y1="271.0" x2="86.2" y2="265.4" stroke="rgb(0,0,0)"  stroke-width="2.0"/>
<line x1="64.4" y1="262.7" x2="82.8" y2="258.8" stroke="rgb(0,0,0)"  stroke-width="2.0"/>
<line x1="100.5" y1="249.7" x2="101.9" y2="235.8" stroke="rgb(0,0,0)"  stroke-width="2.0"/>
<line x1="91.4" y1="217.6" x2="66.8" y2="206.6" stroke="rgb(0,0,0)"  stroke-width="2.0"/>
<line x1="66.8" y1="206.6" x2="48.8" y2="226.5" stroke="rgb(0,0,0)"  stroke-width="2.0"/>
<line x1="68.1" y1="215.9" x2="55.5" y2="229.8" stroke="rgb(0,0,0)"  stroke-width="2.0"/>
<line x1="241.9" y1="182.9" x2="241.9" y2="222.9" stroke="rgb(0,0,0)"  stroke-width="2.0"/>
<line x1="234.7" y1="188.9" x2="234.7" y2="216.9" stroke="rgb(0,0,0)"  stroke-width="2.0"/>
<line x1="241.9" y1="222.9" x2="207.2" y2="242.9" stroke="rgb(0,0,0)"  stroke-width="2.0"/>
<line x1="207.2" y1="242.9" x2="172.6" y2="222.9" stroke="rgb(0,0,0)"  stroke-width="2.0"/>
<line x1="205.6" y1="233.6" x2="181.4" y2="219.6" stroke="rgb(0,0,0)"  stroke-width="2.0"/>
<line x1="172.6" y1="222.9" x2="172.6" y2="182.9" stroke="rgb(0,0,0)"  stroke-width="2.0"/>
<line x1="172.6" y1="182.9" x2="207.2" y2="162.9" stroke="rgb(0,0,0)"  stroke-width="2.0"/>
<line x1="181.4" y1="186.1" x2="205.6" y2="172.1" stroke="rgb(0,0,0)"  stroke-width="2.0"/>
<line x1="207.2" y1="162.9" x2="241.9" y2="182.9" stroke="rgb(0,0,0)"  stroke-width="2.0"/>
<line x1="124.5" y1="99.6" x2="89.9" y2="119.6" stroke="rgb(0,0,0)"  stroke-width="2.0"/>
<line x1="89.9" y1="119.6" x2="95.5" y2="146.0" stroke="rgb(0,0,0)"  stroke-width="2.0"/>
<line x1="111.1" y1="160.0" x2="137.9" y2="162.9" stroke="rgb(0,0,0)"  stroke-width="2.0"/>
<line x1="137.9" y1="162.9" x2="148.9" y2="138.2" stroke="rgb(0,0,0)"  stroke-width="2.0"/>
<line x1="144.6" y1="117.6" x2="124.5" y2="99.6" stroke="rgb(0,0,0)"  stroke-width="2.0"/>
<text x="34.000000" y="244.325121" fill="rgb(12,12,255)"  stroke="rgb(12,12,255)" stroke-width="1" font-size="16" >N</text>
<text x="119.948059" y="250.868794" fill="rgb(30,239,30)"  stroke="rgb(30,239,30)" stroke-width="1" font-size="16" >Cl</text>
<text x="270.512123" y="250.868794" fill="rgb(30,239,30)"  stroke="rgb(30,239,30)" stroke-width="1" font-size="16" >Cl</text>
<text x="93.125904" y="270.649670" fill="rgb(12,12,255)"  stroke="rgb(12,12,255)" stroke-width="1" font-size="16" >N</text>
<text x="77.488438" y="48.000000" fill="rgb(102,102,102)"  stroke="rgb(102,102,102)" stroke-width="1" font-size="16" >CH</text>
<text x="101.488438" y="51.680000" fill="rgb(102,102,102)"  stroke="rgb(102,102,102)" stroke-width="1" font-size="13" >3</text>
<text x="97.307043" y="230.868794" fill="rgb(12,12,255)"  stroke="rgb(12,12,255)" stroke-width="1" font-size="16" >N</text>
<text x="92.167183" y="166.687656" fill="rgb(255,12,12)"  stroke="rgb(255,12,12)" stroke-width="1" font-size="16" >O</text>
<text x="148.217524" y="134.326976" fill="rgb(255,12,12)"  stroke="rgb(255,12,12)" stroke-width="1" font-size="16" >O</text>
</svg>
</g>
<text font-size="18.000000" fill ="black" font-family="sans-serif"
x="10.000000" y="20.000000" ></text>
</svg>
