<?xml version="1.0"?>
<svg version="1.1" id="topsvg"
xmlns="http://www.w3.org/2000/svg" xmlns:xlink="http://www.w3.org/1999/xlink"
xmlns:cml="http://www.xml-cml.org/schema" x="0" y="0" width="200px" height="200px" viewBox="0 0 100 100">
<title> - Open Babel Depiction</title>
<rect x="0" y="0" width="100" height="100" fill="white"/>
<g transform="translate(0,0)">
<svg width="100" height="100" x="0" y="0" viewBox="0 0 391.769 260"
font-family="sans-serif" stroke="rgb(0,0,0)" stroke-width="2"  stroke-linecap="round">
<line x1="189.8" y1="213.5" x2="213.2" y2="200.0" stroke="rgb(0,0,0)"  stroke-width="2.0"/>
<line x1="213.2" y1="200.0" x2="236.6" y2="213.5" stroke="rgb(0,0,0)"  stroke-width="2.0"/>
<line x1="259.1" y1="213.5" x2="282.5" y2="200.0" stroke="rgb(0,0,0)"  stroke-width="2.0"/>
<line x1="210.2" y1="200.0" x2="216.2" y2="173.0" stroke="rgb(0,0,0)"  stroke-width="2.0"/>
<line x1="216.2" y1="200.0" x2="210.2" y2="173.0" stroke="rgb(0,0,0)"  stroke-width="2.0"/>
<line x1="201.9" y1="153.5" x2="178.6" y2="140.0" stroke="rgb(0,0,0)"  stroke-width="2.0"/>
<line x1="109.3" y1="100.0" x2="85.9" y2="86.5" stroke="rgb(0,0,0)"  stroke-width="2.0"/>
<line x1="71.6" y1="67.0" x2="71.6" y2="53.0" stroke="rgb(0,0,0)"  stroke-width="2.0"/>
<line x1="77.6" y1="67.0" x2="77.6" y2="53.0" stroke="rgb(0,0,0)"  stroke-width="2.0"/>
<line x1="64.9" y1="89.1" x2="52.8" y2="96.1" stroke="rgb(0,0,0)"  stroke-width="2.0"/>
<line x1="61.9" y1="83.9" x2="49.8" y2="90.9" stroke="rgb(0,0,0)"  stroke-width="2.0"/>
<line x1="317.1" y1="140.0" x2="351.8" y2="160.0" stroke="rgb(0,0,0)"  stroke-width="2.0"/>
<line x1="318.7" y1="149.2" x2="343.0" y2="163.2" stroke="rgb(0,0,0)"  stroke-width="2.0"/>
<line x1="351.8" y1="160.0" x2="351.8" y2="200.0" stroke="rgb(0,0,0)"  stroke-width="2.0"/>
<line x1="351.8" y1="200.0" x2="317.1" y2="220.0" stroke="rgb(0,0,0)"  stroke-width="2.0"/>
<line x1="343.0" y1="196.8" x2="318.7" y2="210.8" stroke="rgb(0,0,0)"  stroke-width="2.0"/>
<line x1="317.1" y1="220.0" x2="282.5" y2="200.0" stroke="rgb(0,0,0)"  stroke-width="2.0"/>
<line x1="282.5" y1="200.0" x2="282.5" y2="160.0" stroke="rgb(0,0,0)"  stroke-width="2.0"/>
<line x1="289.7" y1="194.0" x2="289.7" y2="166.0" stroke="rgb(0,0,0)"  stroke-width="2.0"/>
<line x1="282.5" y1="160.0" x2="317.1" y2="140.0" stroke="rgb(0,0,0)"  stroke-width="2.0"/>
<line x1="143.9" y1="160.0" x2="178.6" y2="140.0" stroke="rgb(0,0,0)"  stroke-width="2.0"/>
<line x1="145.5" y1="150.8" x2="169.8" y2="136.8" stroke="rgb(0,0,0)"  stroke-width="2.0"/>
<line x1="178.6" y1="140.0" x2="178.6" y2="100.0" stroke="rgb(0,0,0)"  stroke-width="2.0"/>
<line x1="178.6" y1="100.0" x2="143.9" y2="80.0" stroke="rgb(0,0,0)"  stroke-width="2.0"/>
<line x1="169.8" y1="103.2" x2="145.5" y2="89.2" stroke="rgb(0,0,0)"  stroke-width="2.0"/>
<line x1="143.9" y1="80.0" x2="109.3" y2="100.0" stroke="rgb(0,0,0)"  stroke-width="2.0"/>
<line x1="109.3" y1="100.0" x2="109.3" y2="140.0" stroke="rgb(0,0,0)"  stroke-width="2.0"/>
<line x1="116.5" y1="106.0" x2="116.5" y2="134.0" stroke="rgb(0,0,0)"  stroke-width="2.0"/>
<line x1="109.3" y1="140.0" x2="143.9" y2="160.0" stroke="rgb(0,0,0)"  stroke-width="2.0"/>
<text x="207.205081" y="168.000000" fill="rgb(12,12,255)"  stroke="rgb(12,12,255)" stroke-width="1" font-size="16" >N</text>
<text x="34.000000" y="108.000000" fill="rgb(255,12,12)"  stroke="rgb(255,12,12)" stroke-width="1" font-size="16" >O</text>
<text x="68.641016" y="48.000000" fill="rgb(255,12,12)"  stroke="rgb(255,12,12)" stroke-width="1" font-size="16" >O</text>
<text x="68.641016" y="88.000000" fill="rgb(12,12,255)"  stroke="rgb(12,12,255)" stroke-width="1" font-size="16" >N</text>
<text x="152.564065" y="228.000000" fill="rgb(102,102,102)"  stroke="rgb(102,102,102)" stroke-width="1" font-size="16" >H</text>
<text x="164.564065" y="231.680000" fill="rgb(102,102,102)"  stroke="rgb(102,102,102)" stroke-width="1" font-size="13" >3</text>
<text x="171.064065" y="228.000000" fill="rgb(102,102,102)"  stroke="rgb(102,102,102)" stroke-width="1" font-size="16" >C</text>
<text x="241.846097" y="228.000000" fill="rgb(12,12,255)"  stroke="rgb(12,12,255)" stroke-width="1" font-size="16" >N</text>
<text x="241.846097" y="244.000000" fill="rgb(12,12,255)"  stroke="rgb(12,12,255)" stroke-width="1" font-size="16" >H</text>
</svg>
</g>
<text font-size="18.000000" fill ="black" font-family="sans-serif"
x="10.000000" y="20.000000" ></text>
</svg>
