<?xml version="1.0"?>
<svg version="1.1" id="topsvg"
xmlns="http://www.w3.org/2000/svg" xmlns:xlink="http://www.w3.org/1999/xlink"
xmlns:cml="http://www.xml-cml.org/schema" x="0" y="0" width="200px" height="200px" viewBox="0 0 100 100">
<title> - Open Babel Depiction</title>
<rect x="0" y="0" width="100" height="100" fill="white"/>
<g transform="translate(0,0)">
<svg width="100" height="100" x="0" y="0" viewBox="0 0 469.4 190.403"
font-family="sans-serif" stroke="rgb(0,0,0)" stroke-width="2"  stroke-linecap="round">
<line x1="422.9" y1="99.1" x2="415.9" y2="87.0" stroke="rgb(0,0,0)"  stroke-width="2.0"/>
<line x1="396.4" y1="75.8" x2="369.4" y2="75.8" stroke="rgb(0,0,0)"  stroke-width="2.0"/>
<line x1="366.8" y1="77.3" x2="353.3" y2="53.9" stroke="rgb(0,0,0)"  stroke-width="2.0"/>
<line x1="372.0" y1="74.3" x2="358.5" y2="50.9" stroke="rgb(0,0,0)"  stroke-width="2.0"/>
<line x1="369.4" y1="75.8" x2="355.9" y2="99.1" stroke="rgb(0,0,0)"  stroke-width="2.0"/>
<line x1="336.4" y1="110.4" x2="309.4" y2="110.4" stroke="rgb(0,0,0)"  stroke-width="2.0"/>
<line x1="289.9" y1="65.7" x2="294.2" y2="52.4" stroke="rgb(0,0,0)"  stroke-width="2.0"/>
<line x1="178.6" y1="90.4" x2="155.2" y2="76.9" stroke="rgb(0,0,0)"  stroke-width="2.0"/>
<line x1="132.7" y1="76.9" x2="109.3" y2="90.4" stroke="rgb(0,0,0)"  stroke-width="2.0"/>
<line x1="309.4" y1="110.4" x2="293.6" y2="132.1" stroke="rgb(0,0,0)"  stroke-width="2.0"/>
<line x1="300.0" y1="111.0" x2="289.0" y2="126.2" stroke="rgb(0,0,0)"  stroke-width="2.0"/>
<line x1="273.5" y1="138.7" x2="247.8" y2="130.4" stroke="rgb(0,0,0)"  stroke-width="2.0"/>
<line x1="247.8" y1="130.4" x2="247.8" y2="90.4" stroke="rgb(0,0,0)"  stroke-width="2.0"/>
<line x1="247.8" y1="90.4" x2="273.5" y2="82.1" stroke="rgb(0,0,0)"  stroke-width="2.0"/>
<line x1="293.5" y1="88.6" x2="309.4" y2="110.4" stroke="rgb(0,0,0)"  stroke-width="2.0"/>
<line x1="178.6" y1="130.4" x2="178.6" y2="90.4" stroke="rgb(0,0,0)"  stroke-width="2.0"/>
<line x1="185.8" y1="124.4" x2="185.8" y2="96.4" stroke="rgb(0,0,0)"  stroke-width="2.0"/>
<line x1="178.6" y1="90.4" x2="213.2" y2="70.4" stroke="rgb(0,0,0)"  stroke-width="2.0"/>
<line x1="213.2" y1="70.4" x2="247.8" y2="90.4" stroke="rgb(0,0,0)"  stroke-width="2.0"/>
<line x1="214.8" y1="79.6" x2="239.0" y2="93.6" stroke="rgb(0,0,0)"  stroke-width="2.0"/>
<line x1="247.8" y1="130.4" x2="213.2" y2="150.4" stroke="rgb(0,0,0)"  stroke-width="2.0"/>
<line x1="239.0" y1="127.2" x2="214.8" y2="141.2" stroke="rgb(0,0,0)"  stroke-width="2.0"/>
<line x1="213.2" y1="150.4" x2="178.6" y2="130.4" stroke="rgb(0,0,0)"  stroke-width="2.0"/>
<line x1="74.6" y1="150.4" x2="40.0" y2="130.4" stroke="rgb(0,0,0)"  stroke-width="2.0"/>
<line x1="73.0" y1="141.2" x2="48.8" y2="127.2" stroke="rgb(0,0,0)"  stroke-width="2.0"/>
<line x1="40.0" y1="130.4" x2="40.0" y2="90.4" stroke="rgb(0,0,0)"  stroke-width="2.0"/>
<line x1="40.0" y1="90.4" x2="74.6" y2="70.4" stroke="rgb(0,0,0)"  stroke-width="2.0"/>
<line x1="48.8" y1="93.6" x2="73.0" y2="79.6" stroke="rgb(0,0,0)"  stroke-width="2.0"/>
<line x1="74.6" y1="70.4" x2="109.3" y2="90.4" stroke="rgb(0,0,0)"  stroke-width="2.0"/>
<line x1="109.3" y1="90.4" x2="109.3" y2="130.4" stroke="rgb(0,0,0)"  stroke-width="2.0"/>
<line x1="102.1" y1="96.4" x2="102.1" y2="124.4" stroke="rgb(0,0,0)"  stroke-width="2.0"/>
<line x1="109.3" y1="130.4" x2="74.6" y2="150.4" stroke="rgb(0,0,0)"  stroke-width="2.0"/>
<text x="292.249037" y="48.000000" fill="rgb(191,191,191)"  stroke="rgb(191,191,191)" stroke-width="1" font-size="16" >H</text>
<text x="137.923048" y="78.402940" fill="rgb(178,178,0)"  stroke="rgb(178,178,0)" stroke-width="1" font-size="16" >S</text>
<text x="425.399768" y="118.402940" fill="rgb(102,102,102)"  stroke="rgb(102,102,102)" stroke-width="1" font-size="16" >CH</text>
<text x="449.399768" y="122.082940" fill="rgb(102,102,102)"  stroke="rgb(102,102,102)" stroke-width="1" font-size="13" >3</text>
<text x="279.888358" y="86.042261" fill="rgb(12,12,255)"  stroke="rgb(12,12,255)" stroke-width="1" font-size="16" >N</text>
<text x="279.888358" y="150.763620" fill="rgb(12,12,255)"  stroke="rgb(12,12,255)" stroke-width="1" font-size="16" >N</text>
<text x="343.399768" y="118.402940" fill="rgb(12,12,255)"  stroke="rgb(12,12,255)" stroke-width="1" font-size="16" >N</text>
<text x="343.399768" y="134.402940" fill="rgb(12,12,255)"  stroke="rgb(12,12,255)" stroke-width="1" font-size="16" >H</text>
<text x="343.399768" y="49.120908" fill="rgb(255,12,12)"  stroke="rgb(255,12,12)" stroke-width="1" font-size="16" >O</text>
<text x="403.399768" y="83.761924" fill="rgb(255,12,12)"  stroke="rgb(255,12,12)" stroke-width="1" font-size="16" >O</text>
</svg>
</g>
<text font-size="18.000000" fill ="black" font-family="sans-serif"
x="10.000000" y="20.000000" ></text>
</svg>
