<?xml version="1.0"?>
<svg version="1.1" id="topsvg"
xmlns="http://www.w3.org/2000/svg" xmlns:xlink="http://www.w3.org/1999/xlink"
xmlns:cml="http://www.xml-cml.org/schema" x="0" y="0" width="200px" height="200px" viewBox="0 0 100 100">
<title> - Open Babel Depiction</title>
<rect x="0" y="0" width="100" height="100" fill="white"/>
<g transform="translate(0,0)">
<svg width="100" height="100" x="0" y="0" viewBox="0 0 451.769 373.205"
font-family="sans-serif" stroke="rgb(0,0,0)" stroke-width="2"  stroke-linecap="round">
<line x1="239.7" y1="321.9" x2="253.2" y2="298.6" stroke="rgb(0,0,0)"  stroke-width="2.0"/>
<line x1="253.2" y1="298.6" x2="233.2" y2="263.9" stroke="rgb(0,0,0)"  stroke-width="2.0"/>
<line x1="233.2" y1="263.9" x2="253.2" y2="229.3" stroke="rgb(0,0,0)"  stroke-width="2.0"/>
<line x1="253.2" y1="229.3" x2="233.2" y2="194.6" stroke="rgb(0,0,0)"  stroke-width="2.0"/>
<line x1="233.2" y1="194.6" x2="198.6" y2="214.6" stroke="rgb(0,0,0)"  stroke-width="2.0"/>
<line x1="198.6" y1="214.6" x2="198.6" y2="254.6" stroke="rgb(0,0,0)"  stroke-width="2.0"/>
<line x1="198.6" y1="254.6" x2="163.9" y2="274.6" stroke="rgb(0,0,0)"  stroke-width="2.0"/>
<line x1="163.9" y1="274.6" x2="163.9" y2="301.6" stroke="rgb(0,0,0)"  stroke-width="2.0"/>
<line x1="233.2" y1="194.6" x2="213.2" y2="160.0" stroke="rgb(0,0,0)"  stroke-width="2.0"/>
<line x1="213.2" y1="160.0" x2="247.8" y2="140.0" stroke="rgb(0,0,0)"  stroke-width="2.0"/>
<line x1="247.8" y1="140.0" x2="247.8" y2="100.0" stroke="rgb(0,0,0)"  stroke-width="2.0"/>
<line x1="247.8" y1="100.0" x2="213.2" y2="80.0" stroke="rgb(0,0,0)"  stroke-width="2.0"/>
<line x1="213.2" y1="80.0" x2="213.2" y2="53.0" stroke="rgb(0,0,0)"  stroke-width="2.0"/>
<line x1="213.2" y1="160.0" x2="193.2" y2="125.4" stroke="rgb(0,0,0)"  stroke-width="2.0"/>
<line x1="193.2" y1="125.4" x2="153.2" y2="125.4" stroke="rgb(0,0,0)"  stroke-width="2.0"/>
<line x1="153.2" y1="125.4" x2="133.2" y2="90.7" stroke="rgb(0,0,0)"  stroke-width="2.0"/>
<line x1="133.2" y1="90.7" x2="106.2" y2="90.7" stroke="rgb(0,0,0)"  stroke-width="2.0"/>
<line x1="213.2" y1="160.0" x2="178.6" y2="180.0" stroke="rgb(0,0,0)"  stroke-width="2.0"/>
<line x1="109.3" y1="220.0" x2="74.6" y2="240.0" stroke="rgb(0,0,0)"  stroke-width="2.0"/>
<line x1="74.6" y1="240.0" x2="61.1" y2="263.4" stroke="rgb(0,0,0)"  stroke-width="2.0"/>
<line x1="74.6" y1="240.0" x2="88.1" y2="263.4" stroke="rgb(0,0,0)"  stroke-width="2.0"/>
<line x1="74.6" y1="240.0" x2="51.3" y2="226.5" stroke="rgb(0,0,0)"  stroke-width="2.0"/>
<line x1="233.2" y1="194.6" x2="267.8" y2="174.6" stroke="rgb(0,0,0)"  stroke-width="2.0"/>
<line x1="337.1" y1="134.6" x2="371.8" y2="114.6" stroke="rgb(0,0,0)"  stroke-width="2.0"/>
<line x1="371.8" y1="114.6" x2="398.8" y2="114.6" stroke="rgb(0,0,0)"  stroke-width="2.0"/>
<line x1="371.8" y1="114.6" x2="385.3" y2="138.0" stroke="rgb(0,0,0)"  stroke-width="2.0"/>
<line x1="371.8" y1="114.6" x2="371.8" y2="87.6" stroke="rgb(0,0,0)"  stroke-width="2.0"/>
<line x1="178.6" y1="220.0" x2="178.6" y2="180.0" stroke="rgb(0,0,0)"  stroke-width="2.0"/>
<line x1="171.4" y1="214.0" x2="171.4" y2="186.0" stroke="rgb(0,0,0)"  stroke-width="2.0"/>
<line x1="178.6" y1="180.0" x2="143.9" y2="160.0" stroke="rgb(0,0,0)"  stroke-width="2.0"/>
<line x1="143.9" y1="160.0" x2="109.3" y2="180.0" stroke="rgb(0,0,0)"  stroke-width="2.0"/>
<line x1="142.3" y1="169.2" x2="118.1" y2="183.2" stroke="rgb(0,0,0)"  stroke-width="2.0"/>
<line x1="109.3" y1="180.0" x2="109.3" y2="220.0" stroke="rgb(0,0,0)"  stroke-width="2.0"/>
<line x1="109.3" y1="220.0" x2="143.9" y2="240.0" stroke="rgb(0,0,0)"  stroke-width="2.0"/>
<line x1="118.1" y1="216.8" x2="142.3" y2="230.8" stroke="rgb(0,0,0)"  stroke-width="2.0"/>
<line x1="143.9" y1="240.0" x2="178.6" y2="220.0" stroke="rgb(0,0,0)"  stroke-width="2.0"/>
<line x1="302.5" y1="194.6" x2="267.8" y2="174.6" stroke="rgb(0,0,0)"  stroke-width="2.0"/>
<line x1="300.9" y1="185.4" x2="276.6" y2="171.4" stroke="rgb(0,0,0)"  stroke-width="2.0"/>
<line x1="267.8" y1="174.6" x2="267.8" y2="134.6" stroke="rgb(0,0,0)"  stroke-width="2.0"/>
<line x1="267.8" y1="134.6" x2="302.5" y2="114.6" stroke="rgb(0,0,0)"  stroke-width="2.0"/>
<line x1="276.6" y1="137.9" x2="300.9" y2="123.9" stroke="rgb(0,0,0)"  stroke-width="2.0"/>
<line x1="302.5" y1="114.6" x2="337.1" y2="134.6" stroke="rgb(0,0,0)"  stroke-width="2.0"/>
<line x1="337.1" y1="134.6" x2="337.1" y2="174.6" stroke="rgb(0,0,0)"  stroke-width="2.0"/>
<line x1="329.9" y1="140.6" x2="329.9" y2="168.6" stroke="rgb(0,0,0)"  stroke-width="2.0"/>
<line x1="337.1" y1="174.6" x2="302.5" y2="194.6" stroke="rgb(0,0,0)"  stroke-width="2.0"/>
<text x="28.641016" y="282.641016" fill="rgb(102,102,102)"  stroke="rgb(102,102,102)" stroke-width="1" font-size="16" >H</text>
<text x="40.641016" y="286.321016" fill="rgb(102,102,102)"  stroke="rgb(102,102,102)" stroke-width="1" font-size="13" >3</text>
<text x="47.141016" y="282.641016" fill="rgb(102,102,102)"  stroke="rgb(102,102,102)" stroke-width="1" font-size="16" >C</text>
<text x="90.641016" y="282.641016" fill="rgb(102,102,102)"  stroke="rgb(102,102,102)" stroke-width="1" font-size="16" >CH</text>
<text x="114.641016" y="286.321016" fill="rgb(102,102,102)"  stroke="rgb(102,102,102)" stroke-width="1" font-size="13" >3</text>
<text x="14.000000" y="228.000000" fill="rgb(102,102,102)"  stroke="rgb(102,102,102)" stroke-width="1" font-size="16" >H</text>
<text x="26.000000" y="231.680000" fill="rgb(102,102,102)"  stroke="rgb(102,102,102)" stroke-width="1" font-size="13" >3</text>
<text x="32.500000" y="228.000000" fill="rgb(102,102,102)"  stroke="rgb(102,102,102)" stroke-width="1" font-size="16" >C</text>
<text x="407.769145" y="122.641016" fill="rgb(102,102,102)"  stroke="rgb(102,102,102)" stroke-width="1" font-size="16" >CH</text>
<text x="431.769145" y="126.321016" fill="rgb(102,102,102)"  stroke="rgb(102,102,102)" stroke-width="1" font-size="13" >3</text>
<text x="387.769145" y="157.282032" fill="rgb(102,102,102)"  stroke="rgb(102,102,102)" stroke-width="1" font-size="16" >CH</text>
<text x="411.769145" y="160.962032" fill="rgb(102,102,102)"  stroke="rgb(102,102,102)" stroke-width="1" font-size="13" >3</text>
<text x="367.769145" y="82.641016" fill="rgb(102,102,102)"  stroke="rgb(102,102,102)" stroke-width="1" font-size="16" >CH</text>
<text x="391.769145" y="86.321016" fill="rgb(102,102,102)"  stroke="rgb(102,102,102)" stroke-width="1" font-size="13" >3</text>
<text x="159.923048" y="322.641016" fill="rgb(102,102,102)"  stroke="rgb(102,102,102)" stroke-width="1" font-size="16" >CH</text>
<text x="183.923048" y="326.321016" fill="rgb(102,102,102)"  stroke="rgb(102,102,102)" stroke-width="1" font-size="13" >3</text>
<text x="207.205081" y="341.205081" fill="rgb(102,102,102)"  stroke="rgb(102,102,102)" stroke-width="1" font-size="16" >H</text>
<text x="219.205081" y="344.885081" fill="rgb(102,102,102)"  stroke="rgb(102,102,102)" stroke-width="1" font-size="13" >3</text>
<text x="225.705081" y="341.205081" fill="rgb(102,102,102)"  stroke="rgb(102,102,102)" stroke-width="1" font-size="16" >C</text>
<text x="209.205081" y="48.000000" fill="rgb(102,102,102)"  stroke="rgb(102,102,102)" stroke-width="1" font-size="16" >CH</text>
<text x="233.205081" y="51.680000" fill="rgb(102,102,102)"  stroke="rgb(102,102,102)" stroke-width="1" font-size="13" >3</text>
<text x="67.205081" y="98.717968" fill="rgb(102,102,102)"  stroke="rgb(102,102,102)" stroke-width="1" font-size="16" >H</text>
<text x="79.205081" y="102.397968" fill="rgb(102,102,102)"  stroke="rgb(102,102,102)" stroke-width="1" font-size="13" >3</text>
<text x="85.705081" y="98.717968" fill="rgb(102,102,102)"  stroke="rgb(102,102,102)" stroke-width="1" font-size="16" >C</text>
</svg>
</g>
<text font-size="18.000000" fill ="black" font-family="sans-serif"
x="10.000000" y="20.000000" ></text>
</svg>
