<?xml version="1.0"?>
<svg version="1.1" id="topsvg"
xmlns="http://www.w3.org/2000/svg" xmlns:xlink="http://www.w3.org/1999/xlink"
xmlns:cml="http://www.xml-cml.org/schema" x="0" y="0" width="200px" height="200px" viewBox="0 0 100 100">
<title> - Open Babel Depiction</title>
<rect x="0" y="0" width="100" height="100" fill="white"/>
<g transform="translate(0,0)">
<svg width="100" height="100" x="0" y="0" viewBox="0 0 284.518 313.052"
font-family="sans-serif" stroke="rgb(0,0,0)" stroke-width="2"  stroke-linecap="round">
<line x1="162.3" y1="260.6" x2="170.3" y2="234.8" stroke="rgb(0,0,0)"  stroke-width="2.0"/>
<line x1="143.9" y1="167.7" x2="109.3" y2="147.7" stroke="rgb(0,0,0)"  stroke-width="2.0"/>
<line x1="197.4" y1="79.0" x2="191.4" y2="52.7" stroke="rgb(0,0,0)"  stroke-width="2.0"/>
<line x1="212.3" y1="227.2" x2="227.5" y2="249.5" stroke="rgb(0,0,0)"  stroke-width="2.0"/>
<line x1="207.3" y1="230.6" x2="222.5" y2="252.9" stroke="rgb(0,0,0)"  stroke-width="2.0"/>
<line x1="235.6" y1="90.8" x2="244.5" y2="129.8" stroke="rgb(0,0,0)"  stroke-width="2.0"/>
<line x1="244.5" y1="129.8" x2="215.2" y2="157.0" stroke="rgb(0,0,0)"  stroke-width="2.0"/>
<line x1="235.2" y1="128.6" x2="214.7" y2="147.6" stroke="rgb(0,0,0)"  stroke-width="2.0"/>
<line x1="215.2" y1="157.0" x2="177.0" y2="145.2" stroke="rgb(0,0,0)"  stroke-width="2.0"/>
<line x1="177.0" y1="145.2" x2="168.1" y2="106.2" stroke="rgb(0,0,0)"  stroke-width="2.0"/>
<line x1="182.7" y1="137.7" x2="176.4" y2="110.5" stroke="rgb(0,0,0)"  stroke-width="2.0"/>
<line x1="168.1" y1="106.2" x2="197.4" y2="79.0" stroke="rgb(0,0,0)"  stroke-width="2.0"/>
<line x1="197.4" y1="79.0" x2="235.6" y2="90.8" stroke="rgb(0,0,0)"  stroke-width="2.0"/>
<line x1="201.0" y1="87.6" x2="227.8" y2="95.9" stroke="rgb(0,0,0)"  stroke-width="2.0"/>
<line x1="40.0" y1="147.7" x2="40.0" y2="107.7" stroke="rgb(0,0,0)"  stroke-width="2.0"/>
<line x1="47.2" y1="141.7" x2="47.2" y2="113.7" stroke="rgb(0,0,0)"  stroke-width="2.0"/>
<line x1="40.0" y1="107.7" x2="74.6" y2="87.7" stroke="rgb(0,0,0)"  stroke-width="2.0"/>
<line x1="74.6" y1="87.7" x2="109.3" y2="107.7" stroke="rgb(0,0,0)"  stroke-width="2.0"/>
<line x1="76.2" y1="97.0" x2="100.5" y2="111.0" stroke="rgb(0,0,0)"  stroke-width="2.0"/>
<line x1="109.3" y1="107.7" x2="109.3" y2="147.7" stroke="rgb(0,0,0)"  stroke-width="2.0"/>
<line x1="109.3" y1="147.7" x2="74.6" y2="167.7" stroke="rgb(0,0,0)"  stroke-width="2.0"/>
<line x1="100.5" y1="144.5" x2="76.2" y2="158.5" stroke="rgb(0,0,0)"  stroke-width="2.0"/>
<line x1="74.6" y1="167.7" x2="40.0" y2="147.7" stroke="rgb(0,0,0)"  stroke-width="2.0"/>
<line x1="143.9" y1="167.7" x2="177.0" y2="145.2" stroke="rgb(0,0,0)"  stroke-width="2.0"/>
<line x1="215.2" y1="157.0" x2="225.1" y2="182.1" stroke="rgb(0,0,0)"  stroke-width="2.0"/>
<line x1="223.3" y1="205.5" x2="209.8" y2="228.9" stroke="rgb(0,0,0)"  stroke-width="2.0"/>
<line x1="209.8" y1="228.9" x2="170.3" y2="234.8" stroke="rgb(0,0,0)"  stroke-width="2.0"/>
<line x1="170.3" y1="234.8" x2="150.5" y2="216.5" stroke="rgb(0,0,0)"  stroke-width="2.0"/>
<line x1="141.9" y1="194.5" x2="143.9" y2="167.7" stroke="rgb(0,0,0)"  stroke-width="2.0"/>
<line x1="149.2" y1="193.0" x2="150.7" y2="174.3" stroke="rgb(0,0,0)"  stroke-width="2.0"/>
<text x="226.341955" y="269.916867" fill="rgb(255,12,12)"  stroke="rgb(255,12,12)" stroke-width="1" font-size="16" >O</text>
<text x="223.809153" y="202.226299" fill="rgb(12,12,255)"  stroke="rgb(12,12,255)" stroke-width="1" font-size="16" >NH</text>
<text x="170.493000" y="48.000000" fill="rgb(30,239,30)"  stroke="rgb(30,239,30)" stroke-width="1" font-size="16" >Cl</text>
<text x="140.465713" y="281.051918" fill="rgb(255,12,12)"  stroke="rgb(255,12,12)" stroke-width="1" font-size="16" >HO</text>
<text x="134.933845" y="215.622097" fill="rgb(12,12,255)"  stroke="rgb(12,12,255)" stroke-width="1" font-size="16" >N</text>
</svg>
</g>
<text font-size="18.000000" fill ="black" font-family="sans-serif"
x="10.000000" y="20.000000" ></text>
</svg>
