<?xml version="1.0"?>
<svg version="1.1" id="topsvg"
xmlns="http://www.w3.org/2000/svg" xmlns:xlink="http://www.w3.org/1999/xlink"
xmlns:cml="http://www.xml-cml.org/schema" x="0" y="0" width="200px" height="200px" viewBox="0 0 100 100">
<title> - Open Babel Depiction</title>
<rect x="0" y="0" width="100" height="100" fill="white"/>
<g transform="translate(0,0)">
<svg width="100" height="100" x="0" y="0" viewBox="0 0 390.934 280"
font-family="sans-serif" stroke="rgb(0,0,0)" stroke-width="2"  stroke-linecap="round">
<line x1="52.9" y1="149.4" x2="79.8" y2="146.5" stroke="rgb(0,0,0)"  stroke-width="2.0"/>
<line x1="143.1" y1="160.0" x2="177.7" y2="180.0" stroke="rgb(0,0,0)"  stroke-width="2.0"/>
<line x1="212.4" y1="160.0" x2="212.4" y2="120.0" stroke="rgb(0,0,0)"  stroke-width="2.0"/>
<line x1="179.2" y1="222.6" x2="155.8" y2="236.1" stroke="rgb(0,0,0)"  stroke-width="2.0"/>
<line x1="176.2" y1="217.4" x2="152.8" y2="230.9" stroke="rgb(0,0,0)"  stroke-width="2.0"/>
<line x1="316.3" y1="180.0" x2="339.7" y2="166.5" stroke="rgb(0,0,0)"  stroke-width="2.0"/>
<line x1="140.3" y1="133.1" x2="143.1" y2="160.0" stroke="rgb(0,0,0)"  stroke-width="2.0"/>
<line x1="143.1" y1="160.0" x2="106.5" y2="176.3" stroke="rgb(0,0,0)"  stroke-width="2.0"/>
<line x1="134.7" y1="155.9" x2="109.1" y2="167.3" stroke="rgb(0,0,0)"  stroke-width="2.0"/>
<line x1="106.5" y1="176.3" x2="79.8" y2="146.5" stroke="rgb(0,0,0)"  stroke-width="2.0"/>
<line x1="79.8" y1="146.5" x2="93.2" y2="123.3" stroke="rgb(0,0,0)"  stroke-width="2.0"/>
<line x1="89.0" y1="144.9" x2="98.4" y2="128.7" stroke="rgb(0,0,0)"  stroke-width="2.0"/>
<line x1="112.5" y1="114.6" x2="126.2" y2="117.5" stroke="rgb(0,0,0)"  stroke-width="2.0"/>
<line x1="247.0" y1="180.0" x2="247.0" y2="220.0" stroke="rgb(0,0,0)"  stroke-width="2.0"/>
<line x1="239.8" y1="186.0" x2="239.8" y2="214.0" stroke="rgb(0,0,0)"  stroke-width="2.0"/>
<line x1="247.0" y1="220.0" x2="223.6" y2="233.5" stroke="rgb(0,0,0)"  stroke-width="2.0"/>
<line x1="201.1" y1="233.5" x2="177.7" y2="220.0" stroke="rgb(0,0,0)"  stroke-width="2.0"/>
<line x1="177.7" y1="220.0" x2="177.7" y2="180.0" stroke="rgb(0,0,0)"  stroke-width="2.0"/>
<line x1="177.7" y1="180.0" x2="212.4" y2="160.0" stroke="rgb(0,0,0)"  stroke-width="2.0"/>
<line x1="186.5" y1="183.2" x2="210.8" y2="169.2" stroke="rgb(0,0,0)"  stroke-width="2.0"/>
<line x1="212.4" y1="160.0" x2="247.0" y2="180.0" stroke="rgb(0,0,0)"  stroke-width="2.0"/>
<line x1="316.3" y1="180.0" x2="316.3" y2="220.0" stroke="rgb(0,0,0)"  stroke-width="2.0"/>
<line x1="316.3" y1="220.0" x2="281.7" y2="240.0" stroke="rgb(0,0,0)"  stroke-width="2.0"/>
<line x1="307.5" y1="216.8" x2="283.2" y2="230.8" stroke="rgb(0,0,0)"  stroke-width="2.0"/>
<line x1="281.7" y1="240.0" x2="247.0" y2="220.0" stroke="rgb(0,0,0)"  stroke-width="2.0"/>
<line x1="247.0" y1="180.0" x2="281.7" y2="160.0" stroke="rgb(0,0,0)"  stroke-width="2.0"/>
<line x1="281.7" y1="160.0" x2="316.3" y2="180.0" stroke="rgb(0,0,0)"  stroke-width="2.0"/>
<line x1="283.2" y1="169.2" x2="307.5" y2="183.2" stroke="rgb(0,0,0)"  stroke-width="2.0"/>
<line x1="177.7" y1="60.0" x2="212.4" y2="40.0" stroke="rgb(0,0,0)"  stroke-width="2.0"/>
<line x1="186.5" y1="63.2" x2="210.8" y2="49.2" stroke="rgb(0,0,0)"  stroke-width="2.0"/>
<line x1="212.4" y1="40.0" x2="247.0" y2="60.0" stroke="rgb(0,0,0)"  stroke-width="2.0"/>
<line x1="247.0" y1="60.0" x2="247.0" y2="100.0" stroke="rgb(0,0,0)"  stroke-width="2.0"/>
<line x1="239.8" y1="66.0" x2="239.8" y2="94.0" stroke="rgb(0,0,0)"  stroke-width="2.0"/>
<line x1="247.0" y1="100.0" x2="212.4" y2="120.0" stroke="rgb(0,0,0)"  stroke-width="2.0"/>
<line x1="212.4" y1="120.0" x2="177.7" y2="100.0" stroke="rgb(0,0,0)"  stroke-width="2.0"/>
<line x1="210.8" y1="110.8" x2="186.5" y2="96.8" stroke="rgb(0,0,0)"  stroke-width="2.0"/>
<line x1="177.7" y1="100.0" x2="177.7" y2="60.0" stroke="rgb(0,0,0)"  stroke-width="2.0"/>
<text x="344.934015" y="168.000000" fill="rgb(30,239,30)"  stroke="rgb(30,239,30)" stroke-width="1" font-size="16" >Cl</text>
<text x="137.087918" y="248.000000" fill="rgb(255,12,12)"  stroke="rgb(255,12,12)" stroke-width="1" font-size="16" >O</text>
<text x="206.369951" y="248.000000" fill="rgb(12,12,255)"  stroke="rgb(12,12,255)" stroke-width="1" font-size="16" >N</text>
<text x="206.369951" y="264.000000" fill="rgb(12,12,255)"  stroke="rgb(12,12,255)" stroke-width="1" font-size="16" >H</text>
<text x="14.000000" y="158.724811" fill="rgb(102,102,102)"  stroke="rgb(102,102,102)" stroke-width="1" font-size="16" >H</text>
<text x="26.000000" y="162.404811" fill="rgb(102,102,102)"  stroke="rgb(102,102,102)" stroke-width="1" font-size="13" >3</text>
<text x="32.500000" y="158.724811" fill="rgb(102,102,102)"  stroke="rgb(102,102,102)" stroke-width="1" font-size="16" >C</text>
<text x="132.906780" y="128.219124" fill="rgb(255,12,12)"  stroke="rgb(255,12,12)" stroke-width="1" font-size="16" >O</text>
<text x="93.780876" y="119.902657" fill="rgb(12,12,255)"  stroke="rgb(12,12,255)" stroke-width="1" font-size="16" >N</text>
</svg>
</g>
<text font-size="18.000000" fill ="black" font-family="sans-serif"
x="10.000000" y="20.000000" ></text>
</svg>
