<?xml version="1.0"?>
<svg version="1.1" id="topsvg"
xmlns="http://www.w3.org/2000/svg" xmlns:xlink="http://www.w3.org/1999/xlink"
xmlns:cml="http://www.xml-cml.org/schema" x="0" y="0" width="200px" height="200px" viewBox="0 0 100 100">
<title> - Open Babel Depiction</title>
<rect x="0" y="0" width="100" height="100" fill="white"/>
<g transform="translate(0,0)">
<svg width="100" height="100" x="0" y="0" viewBox="0 0 309.282 220"
font-family="sans-serif" stroke="rgb(0,0,0)" stroke-width="2"  stroke-linecap="round">
<line x1="53.0" y1="140.0" x2="80.0" y2="140.0" stroke="rgb(0,0,0)"  stroke-width="2.0"/>
<line x1="160.0" y1="140.0" x2="187.0" y2="140.0" stroke="rgb(0,0,0)"  stroke-width="2.0"/>
<line x1="203.0" y1="153.0" x2="203.0" y2="167.0" stroke="rgb(0,0,0)"  stroke-width="2.0"/>
<line x1="197.0" y1="153.0" x2="197.0" y2="167.0" stroke="rgb(0,0,0)"  stroke-width="2.0"/>
<line x1="213.0" y1="137.0" x2="227.0" y2="137.0" stroke="rgb(0,0,0)"  stroke-width="2.0"/>
<line x1="213.0" y1="143.0" x2="227.0" y2="143.0" stroke="rgb(0,0,0)"  stroke-width="2.0"/>
<line x1="200.0" y1="127.0" x2="200.0" y2="113.0" stroke="rgb(0,0,0)"  stroke-width="2.0"/>
<line x1="211.3" y1="93.5" x2="234.6" y2="80.0" stroke="rgb(0,0,0)"  stroke-width="2.0"/>
<line x1="234.6" y1="80.0" x2="258.0" y2="93.5" stroke="rgb(0,0,0)"  stroke-width="2.0"/>
<line x1="231.6" y1="80.0" x2="231.6" y2="53.0" stroke="rgb(0,0,0)"  stroke-width="2.0"/>
<line x1="237.6" y1="80.0" x2="237.6" y2="53.0" stroke="rgb(0,0,0)"  stroke-width="2.0"/>
<line x1="140.0" y1="105.4" x2="160.0" y2="140.0" stroke="rgb(0,0,0)"  stroke-width="2.0"/>
<line x1="136.8" y1="114.2" x2="150.8" y2="138.4" stroke="rgb(0,0,0)"  stroke-width="2.0"/>
<line x1="160.0" y1="140.0" x2="140.0" y2="174.6" stroke="rgb(0,0,0)"  stroke-width="2.0"/>
<line x1="140.0" y1="174.6" x2="100.0" y2="174.6" stroke="rgb(0,0,0)"  stroke-width="2.0"/>
<line x1="134.0" y1="167.4" x2="106.0" y2="167.4" stroke="rgb(0,0,0)"  stroke-width="2.0"/>
<line x1="100.0" y1="174.6" x2="80.0" y2="140.0" stroke="rgb(0,0,0)"  stroke-width="2.0"/>
<line x1="80.0" y1="140.0" x2="100.0" y2="105.4" stroke="rgb(0,0,0)"  stroke-width="2.0"/>
<line x1="89.2" y1="138.4" x2="103.2" y2="114.2" stroke="rgb(0,0,0)"  stroke-width="2.0"/>
<line x1="100.0" y1="105.4" x2="140.0" y2="105.4" stroke="rgb(0,0,0)"  stroke-width="2.0"/>
<text x="14.000000" y="148.000000" fill="rgb(12,12,255)"  stroke="rgb(12,12,255)" stroke-width="1" font-size="16" >H</text>
<text x="26.000000" y="151.680000" fill="rgb(12,12,255)"  stroke="rgb(12,12,255)" stroke-width="1" font-size="13" >2</text>
<text x="32.500000" y="148.000000" fill="rgb(12,12,255)"  stroke="rgb(12,12,255)" stroke-width="1" font-size="16" >N</text>
<text x="194.000000" y="148.000000" fill="rgb(178,178,0)"  stroke="rgb(178,178,0)" stroke-width="1" font-size="16" >S</text>
<text x="194.000000" y="188.000000" fill="rgb(255,12,12)"  stroke="rgb(255,12,12)" stroke-width="1" font-size="16" >O</text>
<text x="234.000000" y="148.000000" fill="rgb(255,12,12)"  stroke="rgb(255,12,12)" stroke-width="1" font-size="16" >O</text>
<text x="182.000000" y="108.000000" fill="rgb(12,12,255)"  stroke="rgb(12,12,255)" stroke-width="1" font-size="16" >HN</text>
<text x="265.282032" y="108.000000" fill="rgb(102,102,102)"  stroke="rgb(102,102,102)" stroke-width="1" font-size="16" >CH</text>
<text x="289.282032" y="111.680000" fill="rgb(102,102,102)"  stroke="rgb(102,102,102)" stroke-width="1" font-size="13" >3</text>
<text x="228.641016" y="48.000000" fill="rgb(255,12,12)"  stroke="rgb(255,12,12)" stroke-width="1" font-size="16" >O</text>
</svg>
</g>
<text font-size="18.000000" fill ="black" font-family="sans-serif"
x="10.000000" y="20.000000" ></text>
</svg>
