<?xml version="1.0"?>
<svg version="1.1" id="topsvg"
xmlns="http://www.w3.org/2000/svg" xmlns:xlink="http://www.w3.org/1999/xlink"
xmlns:cml="http://www.xml-cml.org/schema" x="0" y="0" width="200px" height="200px" viewBox="0 0 100 100">
<title> - Open Babel Depiction</title>
<rect x="0" y="0" width="100" height="100" fill="white"/>
<g transform="translate(0,0)">
<svg width="100" height="100" x="0" y="0" viewBox="0 0 354.904 290.469"
font-family="sans-serif" stroke="rgb(0,0,0)" stroke-width="2"  stroke-linecap="round">
<line x1="314.9" y1="53.0" x2="314.9" y2="65.5" stroke="rgb(0,0,0)"  stroke-width="2.0"/>
<line x1="303.6" y1="85.0" x2="281.5" y2="97.8" stroke="rgb(0,0,0)"  stroke-width="2.0"/>
<line x1="248.2" y1="155.6" x2="248.2" y2="181.1" stroke="rgb(0,0,0)"  stroke-width="2.0"/>
<line x1="236.9" y1="200.6" x2="226.1" y2="206.8" stroke="rgb(0,0,0)"  stroke-width="2.0"/>
<line x1="181.0" y1="149.1" x2="173.2" y2="173.4" stroke="rgb(0,0,0)"  stroke-width="2.0"/>
<line x1="175.3" y1="147.3" x2="167.5" y2="171.5" stroke="rgb(0,0,0)"  stroke-width="2.0"/>
<line x1="136.3" y1="150.4" x2="168.3" y2="205.9" stroke="rgb(0,0,0)"  stroke-width="2.0"/>
<line x1="168.3" y1="228.4" x2="162.1" y2="239.2" stroke="rgb(0,0,0)"  stroke-width="2.0"/>
<line x1="136.3" y1="83.7" x2="149.1" y2="61.6" stroke="rgb(0,0,0)"  stroke-width="2.0"/>
<line x1="78.5" y1="120.0" x2="53.0" y2="120.0" stroke="rgb(0,0,0)"  stroke-width="2.0"/>
<line x1="78.5" y1="114.0" x2="53.0" y2="114.0" stroke="rgb(0,0,0)"  stroke-width="2.0"/>
<line x1="248.2" y1="78.5" x2="248.2" y2="53.0" stroke="rgb(0,0,0)"  stroke-width="2.0"/>
<line x1="248.2" y1="155.6" x2="214.8" y2="136.3" stroke="rgb(0,0,0)"  stroke-width="2.0"/>
<line x1="246.6" y1="146.3" x2="223.6" y2="133.1" stroke="rgb(0,0,0)"  stroke-width="2.0"/>
<line x1="214.8" y1="136.3" x2="214.8" y2="97.8" stroke="rgb(0,0,0)"  stroke-width="2.0"/>
<line x1="214.8" y1="97.8" x2="248.2" y2="78.5" stroke="rgb(0,0,0)"  stroke-width="2.0"/>
<line x1="223.6" y1="101.0" x2="246.6" y2="87.8" stroke="rgb(0,0,0)"  stroke-width="2.0"/>
<line x1="248.2" y1="78.5" x2="281.5" y2="97.8" stroke="rgb(0,0,0)"  stroke-width="2.0"/>
<line x1="281.5" y1="97.8" x2="281.5" y2="136.3" stroke="rgb(0,0,0)"  stroke-width="2.0"/>
<line x1="274.3" y1="103.8" x2="274.3" y2="130.3" stroke="rgb(0,0,0)"  stroke-width="2.0"/>
<line x1="281.5" y1="136.3" x2="248.2" y2="155.6" stroke="rgb(0,0,0)"  stroke-width="2.0"/>
<line x1="155.6" y1="117.0" x2="170.6" y2="96.4" stroke="rgb(0,0,0)"  stroke-width="2.0"/>
<line x1="190.6" y1="89.9" x2="214.8" y2="97.8" stroke="rgb(0,0,0)"  stroke-width="2.0"/>
<line x1="214.8" y1="136.3" x2="178.2" y2="148.2" stroke="rgb(0,0,0)"  stroke-width="2.0"/>
<line x1="178.2" y1="148.2" x2="155.6" y2="117.0" stroke="rgb(0,0,0)"  stroke-width="2.0"/>
<line x1="97.8" y1="150.4" x2="78.5" y2="117.0" stroke="rgb(0,0,0)"  stroke-width="2.0"/>
<line x1="78.5" y1="117.0" x2="97.8" y2="83.7" stroke="rgb(0,0,0)"  stroke-width="2.0"/>
<line x1="97.8" y1="83.7" x2="136.3" y2="83.7" stroke="rgb(0,0,0)"  stroke-width="2.0"/>
<line x1="136.3" y1="83.7" x2="155.6" y2="117.0" stroke="rgb(0,0,0)"  stroke-width="2.0"/>
<line x1="155.6" y1="117.0" x2="136.3" y2="150.4" stroke="rgb(0,0,0)"  stroke-width="2.0"/>
<line x1="136.3" y1="150.4" x2="97.8" y2="150.4" stroke="rgb(0,0,0)"  stroke-width="2.0"/>
<line x1="130.3" y1="143.2" x2="103.8" y2="143.2" stroke="rgb(0,0,0)"  stroke-width="2.0"/>
<text x="242.187476" y="48.000000" fill="rgb(30,239,30)"  stroke="rgb(30,239,30)" stroke-width="1" font-size="16" >Cl</text>
<text x="34.000000" y="125.037037" fill="rgb(255,12,12)"  stroke="rgb(255,12,12)" stroke-width="1" font-size="16" >O</text>
<text x="151.555556" y="58.321006" fill="rgb(102,102,102)"  stroke="rgb(102,102,102)" stroke-width="1" font-size="16" >CH</text>
<text x="175.555556" y="62.001006" fill="rgb(102,102,102)"  stroke="rgb(102,102,102)" stroke-width="1" font-size="13" >3</text>
<text x="129.555556" y="258.469099" fill="rgb(102,102,102)"  stroke="rgb(102,102,102)" stroke-width="1" font-size="16" >H</text>
<text x="141.555556" y="262.149099" fill="rgb(102,102,102)"  stroke="rgb(102,102,102)" stroke-width="1" font-size="13" >3</text>
<text x="148.055556" y="258.469099" fill="rgb(102,102,102)"  stroke="rgb(102,102,102)" stroke-width="1" font-size="16" >C</text>
<text x="168.814815" y="225.111084" fill="rgb(255,12,12)"  stroke="rgb(255,12,12)" stroke-width="1" font-size="16" >O</text>
<text x="310.903507" y="48.000000" fill="rgb(102,102,102)"  stroke="rgb(102,102,102)" stroke-width="1" font-size="16" >CH</text>
<text x="334.903507" y="51.680000" fill="rgb(102,102,102)"  stroke="rgb(102,102,102)" stroke-width="1" font-size="13" >3</text>
<text x="172.196173" y="93.874901" fill="rgb(255,12,12)"  stroke="rgb(255,12,12)" stroke-width="1" font-size="16" >O</text>
<text x="160.293296" y="192.832461" fill="rgb(255,12,12)"  stroke="rgb(255,12,12)" stroke-width="1" font-size="16" >O</text>
<text x="188.829461" y="221.333333" fill="rgb(102,102,102)"  stroke="rgb(102,102,102)" stroke-width="1" font-size="16" >H</text>
<text x="200.829461" y="225.013333" fill="rgb(102,102,102)"  stroke="rgb(102,102,102)" stroke-width="1" font-size="13" >3</text>
<text x="207.329461" y="221.333333" fill="rgb(102,102,102)"  stroke="rgb(102,102,102)" stroke-width="1" font-size="16" >C</text>
<text x="242.187476" y="202.074074" fill="rgb(255,12,12)"  stroke="rgb(255,12,12)" stroke-width="1" font-size="16" >O</text>
<text x="308.903507" y="86.518519" fill="rgb(255,12,12)"  stroke="rgb(255,12,12)" stroke-width="1" font-size="16" >O</text>
</svg>
</g>
<text font-size="18.000000" fill ="black" font-family="sans-serif"
x="10.000000" y="20.000000" ></text>
</svg>
