<?xml version="1.0"?>
<svg version="1.1" id="topsvg"
xmlns="http://www.w3.org/2000/svg" xmlns:xlink="http://www.w3.org/1999/xlink"
xmlns:cml="http://www.xml-cml.org/schema" x="0" y="0" width="200px" height="200px" viewBox="0 0 100 100">
<title> - Open Babel Depiction</title>
<rect x="0" y="0" width="100" height="100" fill="white"/>
<g transform="translate(0,0)">
<svg width="100" height="100" x="0" y="0" viewBox="0 0 391.769 263.307"
font-family="sans-serif" stroke="rgb(0,0,0)" stroke-width="2"  stroke-linecap="round">
<line x1="259.1" y1="156.8" x2="282.5" y2="143.3" stroke="rgb(0,0,0)"  stroke-width="2.0"/>
<line x1="282.5" y1="103.3" x2="259.1" y2="89.8" stroke="rgb(0,0,0)"  stroke-width="2.0"/>
<line x1="236.6" y1="89.8" x2="213.2" y2="103.3" stroke="rgb(0,0,0)"  stroke-width="2.0"/>
<line x1="143.9" y1="143.3" x2="109.3" y2="163.3" stroke="rgb(0,0,0)"  stroke-width="2.0"/>
<line x1="143.4" y1="41.4" x2="170.2" y2="44.2" stroke="rgb(0,0,0)"  stroke-width="2.0"/>
<line x1="170.2" y1="44.2" x2="178.6" y2="83.3" stroke="rgb(0,0,0)"  stroke-width="2.0"/>
<line x1="164.5" y1="51.5" x2="170.3" y2="78.9" stroke="rgb(0,0,0)"  stroke-width="2.0"/>
<line x1="178.6" y1="83.3" x2="155.2" y2="96.8" stroke="rgb(0,0,0)"  stroke-width="2.0"/>
<line x1="134.3" y1="94.6" x2="114.2" y2="76.5" stroke="rgb(0,0,0)"  stroke-width="2.0"/>
<line x1="114.2" y1="76.5" x2="125.1" y2="52.1" stroke="rgb(0,0,0)"  stroke-width="2.0"/>
<line x1="123.2" y1="74.0" x2="130.9" y2="56.8" stroke="rgb(0,0,0)"  stroke-width="2.0"/>
<line x1="317.1" y1="83.3" x2="351.8" y2="103.3" stroke="rgb(0,0,0)"  stroke-width="2.0"/>
<line x1="318.7" y1="92.5" x2="343.0" y2="106.5" stroke="rgb(0,0,0)"  stroke-width="2.0"/>
<line x1="351.8" y1="103.3" x2="351.8" y2="143.3" stroke="rgb(0,0,0)"  stroke-width="2.0"/>
<line x1="351.8" y1="143.3" x2="317.1" y2="163.3" stroke="rgb(0,0,0)"  stroke-width="2.0"/>
<line x1="343.0" y1="140.1" x2="318.7" y2="154.1" stroke="rgb(0,0,0)"  stroke-width="2.0"/>
<line x1="317.1" y1="163.3" x2="282.5" y2="143.3" stroke="rgb(0,0,0)"  stroke-width="2.0"/>
<line x1="282.5" y1="143.3" x2="282.5" y2="103.3" stroke="rgb(0,0,0)"  stroke-width="2.0"/>
<line x1="289.7" y1="137.3" x2="289.7" y2="109.3" stroke="rgb(0,0,0)"  stroke-width="2.0"/>
<line x1="282.5" y1="103.3" x2="317.1" y2="83.3" stroke="rgb(0,0,0)"  stroke-width="2.0"/>
<line x1="178.6" y1="163.3" x2="143.9" y2="143.3" stroke="rgb(0,0,0)"  stroke-width="2.0"/>
<line x1="177.0" y1="154.1" x2="152.7" y2="140.1" stroke="rgb(0,0,0)"  stroke-width="2.0"/>
<line x1="143.9" y1="143.3" x2="143.9" y2="116.3" stroke="rgb(0,0,0)"  stroke-width="2.0"/>
<line x1="178.6" y1="83.3" x2="213.2" y2="103.3" stroke="rgb(0,0,0)"  stroke-width="2.0"/>
<line x1="213.2" y1="103.3" x2="213.2" y2="130.1" stroke="rgb(0,0,0)"  stroke-width="2.0"/>
<line x1="206.0" y1="109.3" x2="206.0" y2="128.1" stroke="rgb(0,0,0)"  stroke-width="2.0"/>
<line x1="201.9" y1="149.8" x2="178.6" y2="163.3" stroke="rgb(0,0,0)"  stroke-width="2.0"/>
<line x1="74.6" y1="223.3" x2="40.0" y2="203.3" stroke="rgb(0,0,0)"  stroke-width="2.0"/>
<line x1="73.0" y1="214.1" x2="48.8" y2="200.1" stroke="rgb(0,0,0)"  stroke-width="2.0"/>
<line x1="40.0" y1="203.3" x2="40.0" y2="163.3" stroke="rgb(0,0,0)"  stroke-width="2.0"/>
<line x1="40.0" y1="163.3" x2="74.6" y2="143.3" stroke="rgb(0,0,0)"  stroke-width="2.0"/>
<line x1="48.8" y1="166.5" x2="73.0" y2="152.5" stroke="rgb(0,0,0)"  stroke-width="2.0"/>
<line x1="74.6" y1="143.3" x2="109.3" y2="163.3" stroke="rgb(0,0,0)"  stroke-width="2.0"/>
<line x1="109.3" y1="163.3" x2="109.3" y2="203.3" stroke="rgb(0,0,0)"  stroke-width="2.0"/>
<line x1="102.1" y1="169.3" x2="102.1" y2="197.3" stroke="rgb(0,0,0)"  stroke-width="2.0"/>
<line x1="109.3" y1="203.3" x2="74.6" y2="223.3" stroke="rgb(0,0,0)"  stroke-width="2.0"/>
<text x="229.846097" y="171.307043" fill="rgb(30,239,30)"  stroke="rgb(30,239,30)" stroke-width="1" font-size="16" >Cl</text>
<text x="124.466721" y="48.000000" fill="rgb(12,12,255)"  stroke="rgb(12,12,255)" stroke-width="1" font-size="16" >N</text>
<text x="137.923048" y="111.307043" fill="rgb(12,12,255)"  stroke="rgb(12,12,255)" stroke-width="1" font-size="16" >N</text>
<text x="207.205081" y="151.307043" fill="rgb(12,12,255)"  stroke="rgb(12,12,255)" stroke-width="1" font-size="16" >N</text>
<text x="241.846097" y="91.307043" fill="rgb(12,12,255)"  stroke="rgb(12,12,255)" stroke-width="1" font-size="16" >N</text>
<text x="241.846097" y="75.307043" fill="rgb(12,12,255)"  stroke="rgb(12,12,255)" stroke-width="1" font-size="16" >H</text>
</svg>
</g>
<text font-size="18.000000" fill ="black" font-family="sans-serif"
x="10.000000" y="20.000000" ></text>
</svg>
