<?xml version="1.0"?>
<svg version="1.1" id="topsvg"
xmlns="http://www.w3.org/2000/svg" xmlns:xlink="http://www.w3.org/1999/xlink"
xmlns:cml="http://www.xml-cml.org/schema" x="0" y="0" width="200px" height="200px" viewBox="0 0 100 100">
<title> - Open Babel Depiction</title>
<rect x="0" y="0" width="100" height="100" fill="white"/>
<g transform="translate(0,0)">
<svg width="100" height="100" x="0" y="0" viewBox="0 0 240 223.923"
font-family="sans-serif" stroke="rgb(0,0,0)" stroke-width="2"  stroke-linecap="round">
<line x1="160.0" y1="170.9" x2="160.0" y2="156.9" stroke="rgb(0,0,0)"  stroke-width="2.0"/>
<line x1="173.0" y1="143.9" x2="187.0" y2="143.9" stroke="rgb(0,0,0)"  stroke-width="2.0"/>
<line x1="160.0" y1="130.9" x2="160.0" y2="116.9" stroke="rgb(0,0,0)"  stroke-width="2.0"/>
<line x1="147.0" y1="143.9" x2="120.0" y2="143.9" stroke="rgb(0,0,0)"  stroke-width="2.0"/>
<line x1="100.0" y1="109.3" x2="120.0" y2="74.6" stroke="rgb(0,0,0)"  stroke-width="2.0"/>
<line x1="120.0" y1="74.6" x2="147.0" y2="74.6" stroke="rgb(0,0,0)"  stroke-width="2.0"/>
<line x1="117.4" y1="76.1" x2="103.9" y2="52.8" stroke="rgb(0,0,0)"  stroke-width="2.0"/>
<line x1="122.6" y1="73.1" x2="109.1" y2="49.8" stroke="rgb(0,0,0)"  stroke-width="2.0"/>
<line x1="60.0" y1="178.6" x2="40.0" y2="143.9" stroke="rgb(0,0,0)"  stroke-width="2.0"/>
<line x1="63.2" y1="169.8" x2="49.2" y2="145.5" stroke="rgb(0,0,0)"  stroke-width="2.0"/>
<line x1="40.0" y1="143.9" x2="60.0" y2="109.3" stroke="rgb(0,0,0)"  stroke-width="2.0"/>
<line x1="60.0" y1="109.3" x2="100.0" y2="109.3" stroke="rgb(0,0,0)"  stroke-width="2.0"/>
<line x1="66.0" y1="116.5" x2="94.0" y2="116.5" stroke="rgb(0,0,0)"  stroke-width="2.0"/>
<line x1="100.0" y1="109.3" x2="120.0" y2="143.9" stroke="rgb(0,0,0)"  stroke-width="2.0"/>
<line x1="120.0" y1="143.9" x2="100.0" y2="178.6" stroke="rgb(0,0,0)"  stroke-width="2.0"/>
<line x1="110.8" y1="145.5" x2="96.8" y2="169.8" stroke="rgb(0,0,0)"  stroke-width="2.0"/>
<line x1="100.0" y1="178.6" x2="60.0" y2="178.6" stroke="rgb(0,0,0)"  stroke-width="2.0"/>
<text x="156.000000" y="191.923048" fill="rgb(102,102,102)"  stroke="rgb(102,102,102)" stroke-width="1" font-size="16" >CH</text>
<text x="180.000000" y="195.603048" fill="rgb(102,102,102)"  stroke="rgb(102,102,102)" stroke-width="1" font-size="13" >3</text>
<text x="163.900000" y="140.647048" fill="rgb(12,12,255)"  stroke="rgb(12,12,255)" stroke-width="1" font-size="13" >+</text>
<text x="154.000000" y="151.923048" fill="rgb(12,12,255)"  stroke="rgb(12,12,255)" stroke-width="1" font-size="16" >N</text>
<text x="194.000000" y="151.923048" fill="rgb(191,191,191)"  stroke="rgb(191,191,191)" stroke-width="1" font-size="16" >H</text>
<text x="156.000000" y="111.923048" fill="rgb(102,102,102)"  stroke="rgb(102,102,102)" stroke-width="1" font-size="16" >CH</text>
<text x="180.000000" y="115.603048" fill="rgb(102,102,102)"  stroke="rgb(102,102,102)" stroke-width="1" font-size="13" >3</text>
<text x="163.900000" y="63.175016" fill="rgb(255,12,12)"  stroke="rgb(255,12,12)" stroke-width="1" font-size="13" >_</text>
<text x="154.000000" y="82.641016" fill="rgb(255,12,12)"  stroke="rgb(255,12,12)" stroke-width="1" font-size="16" >O</text>
<text x="94.000000" y="48.000000" fill="rgb(255,12,12)"  stroke="rgb(255,12,12)" stroke-width="1" font-size="16" >O</text>
</svg>
</g>
<text font-size="18.000000" fill ="black" font-family="sans-serif"
x="10.000000" y="20.000000" ></text>
</svg>
