<?xml version="1.0"?>
<svg version="1.1" id="topsvg"
xmlns="http://www.w3.org/2000/svg" xmlns:xlink="http://www.w3.org/1999/xlink"
xmlns:cml="http://www.xml-cml.org/schema" x="0" y="0" width="200px" height="200px" viewBox="0 0 100 100">
<title> - Open Babel Depiction</title>
<rect x="0" y="0" width="100" height="100" fill="white"/>
<g transform="translate(0,0)">
<svg width="100" height="100" x="0" y="0" viewBox="0 0 426.41 320"
font-family="sans-serif" stroke="rgb(0,0,0)" stroke-width="2"  stroke-linecap="round">
<line x1="77.6" y1="53.0" x2="77.6" y2="67.0" stroke="rgb(0,0,0)"  stroke-width="2.0"/>
<line x1="71.6" y1="53.0" x2="71.6" y2="67.0" stroke="rgb(0,0,0)"  stroke-width="2.0"/>
<line x1="64.9" y1="89.1" x2="52.8" y2="96.1" stroke="rgb(0,0,0)"  stroke-width="2.0"/>
<line x1="61.9" y1="83.9" x2="49.8" y2="90.9" stroke="rgb(0,0,0)"  stroke-width="2.0"/>
<line x1="85.9" y1="86.5" x2="109.3" y2="100.0" stroke="rgb(0,0,0)"  stroke-width="2.0"/>
<line x1="178.6" y1="140.0" x2="201.9" y2="153.5" stroke="rgb(0,0,0)"  stroke-width="2.0"/>
<line x1="213.2" y1="173.0" x2="213.2" y2="200.0" stroke="rgb(0,0,0)"  stroke-width="2.0"/>
<line x1="224.5" y1="153.5" x2="247.8" y2="140.0" stroke="rgb(0,0,0)"  stroke-width="2.0"/>
<line x1="317.1" y1="100.0" x2="340.5" y2="86.5" stroke="rgb(0,0,0)"  stroke-width="2.0"/>
<line x1="364.5" y1="83.9" x2="376.7" y2="90.9" stroke="rgb(0,0,0)"  stroke-width="2.0"/>
<line x1="361.5" y1="89.1" x2="373.7" y2="96.1" stroke="rgb(0,0,0)"  stroke-width="2.0"/>
<line x1="348.8" y1="67.0" x2="348.8" y2="53.0" stroke="rgb(0,0,0)"  stroke-width="2.0"/>
<line x1="354.8" y1="67.0" x2="354.8" y2="53.0" stroke="rgb(0,0,0)"  stroke-width="2.0"/>
<line x1="143.9" y1="80.0" x2="109.3" y2="100.0" stroke="rgb(0,0,0)"  stroke-width="2.0"/>
<line x1="142.3" y1="89.2" x2="118.1" y2="103.2" stroke="rgb(0,0,0)"  stroke-width="2.0"/>
<line x1="109.3" y1="100.0" x2="109.3" y2="140.0" stroke="rgb(0,0,0)"  stroke-width="2.0"/>
<line x1="109.3" y1="140.0" x2="143.9" y2="160.0" stroke="rgb(0,0,0)"  stroke-width="2.0"/>
<line x1="118.1" y1="136.8" x2="142.3" y2="150.8" stroke="rgb(0,0,0)"  stroke-width="2.0"/>
<line x1="143.9" y1="160.0" x2="178.6" y2="140.0" stroke="rgb(0,0,0)"  stroke-width="2.0"/>
<line x1="178.6" y1="140.0" x2="178.6" y2="100.0" stroke="rgb(0,0,0)"  stroke-width="2.0"/>
<line x1="171.4" y1="134.0" x2="171.4" y2="106.0" stroke="rgb(0,0,0)"  stroke-width="2.0"/>
<line x1="178.6" y1="100.0" x2="143.9" y2="80.0" stroke="rgb(0,0,0)"  stroke-width="2.0"/>
<line x1="247.8" y1="260.0" x2="213.2" y2="280.0" stroke="rgb(0,0,0)"  stroke-width="2.0"/>
<line x1="239.0" y1="256.8" x2="214.8" y2="270.8" stroke="rgb(0,0,0)"  stroke-width="2.0"/>
<line x1="213.2" y1="280.0" x2="178.6" y2="260.0" stroke="rgb(0,0,0)"  stroke-width="2.0"/>
<line x1="178.6" y1="260.0" x2="178.6" y2="220.0" stroke="rgb(0,0,0)"  stroke-width="2.0"/>
<line x1="185.8" y1="254.0" x2="185.8" y2="226.0" stroke="rgb(0,0,0)"  stroke-width="2.0"/>
<line x1="178.6" y1="220.0" x2="213.2" y2="200.0" stroke="rgb(0,0,0)"  stroke-width="2.0"/>
<line x1="213.2" y1="200.0" x2="247.8" y2="220.0" stroke="rgb(0,0,0)"  stroke-width="2.0"/>
<line x1="214.8" y1="209.2" x2="239.0" y2="223.2" stroke="rgb(0,0,0)"  stroke-width="2.0"/>
<line x1="247.8" y1="220.0" x2="247.8" y2="260.0" stroke="rgb(0,0,0)"  stroke-width="2.0"/>
<line x1="282.5" y1="80.0" x2="317.1" y2="100.0" stroke="rgb(0,0,0)"  stroke-width="2.0"/>
<line x1="284.1" y1="89.2" x2="308.3" y2="103.2" stroke="rgb(0,0,0)"  stroke-width="2.0"/>
<line x1="317.1" y1="100.0" x2="317.1" y2="140.0" stroke="rgb(0,0,0)"  stroke-width="2.0"/>
<line x1="317.1" y1="140.0" x2="282.5" y2="160.0" stroke="rgb(0,0,0)"  stroke-width="2.0"/>
<line x1="308.3" y1="136.8" x2="284.1" y2="150.8" stroke="rgb(0,0,0)"  stroke-width="2.0"/>
<line x1="282.5" y1="160.0" x2="247.8" y2="140.0" stroke="rgb(0,0,0)"  stroke-width="2.0"/>
<line x1="247.8" y1="140.0" x2="247.8" y2="100.0" stroke="rgb(0,0,0)"  stroke-width="2.0"/>
<line x1="255.0" y1="134.0" x2="255.0" y2="106.0" stroke="rgb(0,0,0)"  stroke-width="2.0"/>
<line x1="247.8" y1="100.0" x2="282.5" y2="80.0" stroke="rgb(0,0,0)"  stroke-width="2.0"/>
<text x="345.769145" y="48.000000" fill="rgb(255,12,12)"  stroke="rgb(255,12,12)" stroke-width="1" font-size="16" >O</text>
<text x="380.410162" y="108.000000" fill="rgb(255,12,12)"  stroke="rgb(255,12,12)" stroke-width="1" font-size="16" >O</text>
<text x="345.769145" y="88.000000" fill="rgb(12,12,255)"  stroke="rgb(12,12,255)" stroke-width="1" font-size="16" >N</text>
<text x="68.641016" y="48.000000" fill="rgb(255,12,12)"  stroke="rgb(255,12,12)" stroke-width="1" font-size="16" >O</text>
<text x="207.205081" y="168.000000" fill="rgb(12,12,255)"  stroke="rgb(12,12,255)" stroke-width="1" font-size="16" >N</text>
<text x="34.000000" y="108.000000" fill="rgb(255,12,12)"  stroke="rgb(255,12,12)" stroke-width="1" font-size="16" >O</text>
<text x="68.641016" y="88.000000" fill="rgb(12,12,255)"  stroke="rgb(12,12,255)" stroke-width="1" font-size="16" >N</text>
</svg>
</g>
<text font-size="18.000000" fill ="black" font-family="sans-serif"
x="10.000000" y="20.000000" ></text>
</svg>
