<?xml version="1.0"?>
<svg version="1.1" id="topsvg"
xmlns="http://www.w3.org/2000/svg" xmlns:xlink="http://www.w3.org/1999/xlink"
xmlns:cml="http://www.xml-cml.org/schema" x="0" y="0" width="200px" height="200px" viewBox="0 0 100 100">
<title> - Open Babel Depiction</title>
<rect x="0" y="0" width="100" height="100" fill="white"/>
<g transform="translate(0,0)">
<svg width="100" height="100" x="0" y="0" viewBox="0 0 440.029 342.161"
font-family="sans-serif" stroke="rgb(0,0,0)" stroke-width="2"  stroke-linecap="round">
<line x1="271.2" y1="46.5" x2="247.8" y2="60.0" stroke="rgb(0,0,0)"  stroke-width="2.0"/>
<line x1="247.8" y1="60.0" x2="247.8" y2="87.0" stroke="rgb(0,0,0)"  stroke-width="2.0"/>
<line x1="236.6" y1="106.5" x2="213.2" y2="120.0" stroke="rgb(0,0,0)"  stroke-width="2.0"/>
<line x1="213.2" y1="120.0" x2="213.2" y2="160.0" stroke="rgb(0,0,0)"  stroke-width="2.0"/>
<line x1="213.2" y1="160.0" x2="178.6" y2="180.0" stroke="rgb(0,0,0)"  stroke-width="2.0"/>
<line x1="178.6" y1="180.0" x2="143.9" y2="160.0" stroke="rgb(0,0,0)"  stroke-width="2.0"/>
<line x1="143.9" y1="160.0" x2="109.3" y2="180.0" stroke="rgb(0,0,0)"  stroke-width="2.0"/>
<line x1="213.2" y1="160.0" x2="236.6" y2="173.5" stroke="rgb(0,0,0)"  stroke-width="2.0"/>
<line x1="247.8" y1="193.0" x2="247.8" y2="220.0" stroke="rgb(0,0,0)"  stroke-width="2.0"/>
<line x1="247.8" y1="220.0" x2="224.5" y2="233.5" stroke="rgb(0,0,0)"  stroke-width="2.0"/>
<line x1="247.8" y1="220.0" x2="282.5" y2="240.0" stroke="rgb(0,0,0)"  stroke-width="2.0"/>
<line x1="285.5" y1="240.0" x2="285.5" y2="267.0" stroke="rgb(0,0,0)"  stroke-width="2.0"/>
<line x1="279.5" y1="240.0" x2="279.5" y2="267.0" stroke="rgb(0,0,0)"  stroke-width="2.0"/>
<line x1="282.5" y1="240.0" x2="305.9" y2="226.5" stroke="rgb(0,0,0)"  stroke-width="2.0"/>
<line x1="353.7" y1="236.3" x2="362.0" y2="275.4" stroke="rgb(0,0,0)"  stroke-width="2.0"/>
<line x1="362.0" y1="275.4" x2="341.9" y2="293.5" stroke="rgb(0,0,0)"  stroke-width="2.0"/>
<line x1="362.9" y1="272.5" x2="388.6" y2="280.9" stroke="rgb(0,0,0)"  stroke-width="2.0"/>
<line x1="361.1" y1="278.2" x2="386.7" y2="286.6" stroke="rgb(0,0,0)"  stroke-width="2.0"/>
<line x1="211.7" y1="122.6" x2="188.3" y2="109.1" stroke="rgb(0,0,0)"  stroke-width="2.0"/>
<line x1="214.7" y1="117.4" x2="191.3" y2="103.9" stroke="rgb(0,0,0)"  stroke-width="2.0"/>
<line x1="40.0" y1="180.0" x2="40.0" y2="220.0" stroke="rgb(0,0,0)"  stroke-width="2.0"/>
<line x1="47.2" y1="186.0" x2="47.2" y2="214.0" stroke="rgb(0,0,0)"  stroke-width="2.0"/>
<line x1="40.0" y1="220.0" x2="74.6" y2="240.0" stroke="rgb(0,0,0)"  stroke-width="2.0"/>
<line x1="74.6" y1="240.0" x2="109.3" y2="220.0" stroke="rgb(0,0,0)"  stroke-width="2.0"/>
<line x1="76.2" y1="230.8" x2="100.5" y2="216.8" stroke="rgb(0,0,0)"  stroke-width="2.0"/>
<line x1="109.3" y1="220.0" x2="109.3" y2="180.0" stroke="rgb(0,0,0)"  stroke-width="2.0"/>
<line x1="109.3" y1="180.0" x2="74.6" y2="160.0" stroke="rgb(0,0,0)"  stroke-width="2.0"/>
<line x1="100.5" y1="183.2" x2="76.2" y2="169.2" stroke="rgb(0,0,0)"  stroke-width="2.0"/>
<line x1="74.6" y1="160.0" x2="40.0" y2="180.0" stroke="rgb(0,0,0)"  stroke-width="2.0"/>
<line x1="360.4" y1="171.9" x2="380.4" y2="206.5" stroke="rgb(0,0,0)"  stroke-width="2.0"/>
<line x1="380.4" y1="206.5" x2="353.7" y2="236.3" stroke="rgb(0,0,0)"  stroke-width="2.0"/>
<line x1="353.7" y1="236.3" x2="329.0" y2="225.3" stroke="rgb(0,0,0)"  stroke-width="2.0"/>
<line x1="318.5" y1="207.1" x2="321.3" y2="180.2" stroke="rgb(0,0,0)"  stroke-width="2.0"/>
<line x1="321.3" y1="180.2" x2="360.4" y2="171.9" stroke="rgb(0,0,0)"  stroke-width="2.0"/>
<text x="241.846097" y="188.000000" fill="rgb(12,12,255)"  stroke="rgb(12,12,255)" stroke-width="1" font-size="16" >NH</text>
<text x="172.564065" y="108.000000" fill="rgb(255,12,12)"  stroke="rgb(255,12,12)" stroke-width="1" font-size="16" >O</text>
<text x="394.028676" y="295.756050" fill="rgb(255,12,12)"  stroke="rgb(255,12,12)" stroke-width="1" font-size="16" >O</text>
<text x="314.260622" y="310.160594" fill="rgb(255,12,12)"  stroke="rgb(255,12,12)" stroke-width="1" font-size="16" >HO</text>
<text x="311.128129" y="228.000000" fill="rgb(12,12,255)"  stroke="rgb(12,12,255)" stroke-width="1" font-size="16" >N</text>
<text x="276.487113" y="288.000000" fill="rgb(255,12,12)"  stroke="rgb(255,12,12)" stroke-width="1" font-size="16" >O</text>
<text x="187.205081" y="248.000000" fill="rgb(102,102,102)"  stroke="rgb(102,102,102)" stroke-width="1" font-size="16" >H</text>
<text x="199.205081" y="251.680000" fill="rgb(102,102,102)"  stroke="rgb(102,102,102)" stroke-width="1" font-size="13" >3</text>
<text x="205.705081" y="248.000000" fill="rgb(102,102,102)"  stroke="rgb(102,102,102)" stroke-width="1" font-size="16" >C</text>
<text x="278.487113" y="48.000000" fill="rgb(102,102,102)"  stroke="rgb(102,102,102)" stroke-width="1" font-size="16" >CH</text>
<text x="302.487113" y="51.680000" fill="rgb(102,102,102)"  stroke="rgb(102,102,102)" stroke-width="1" font-size="13" >3</text>
<text x="241.846097" y="108.000000" fill="rgb(255,12,12)"  stroke="rgb(255,12,12)" stroke-width="1" font-size="16" >O</text>
</svg>
</g>
<text font-size="18.000000" fill ="black" font-family="sans-serif"
x="10.000000" y="20.000000" ></text>
</svg>
