<?xml version="1.0"?>
<svg version="1.1" id="topsvg"
xmlns="http://www.w3.org/2000/svg" xmlns:xlink="http://www.w3.org/1999/xlink"
xmlns:cml="http://www.xml-cml.org/schema" x="0" y="0" width="200px" height="200px" viewBox="0 0 100 100">
<title> - Open Babel Depiction</title>
<rect x="0" y="0" width="100" height="100" fill="white"/>
<g transform="translate(0,0)">
<svg width="100" height="100" x="0" y="0" viewBox="0 0 426.41 203.307"
font-family="sans-serif" stroke="rgb(0,0,0)" stroke-width="2"  stroke-linecap="round">
<line x1="293.7" y1="46.5" x2="317.1" y2="60.0" stroke="rgb(0,0,0)"  stroke-width="2.0"/>
<line x1="271.2" y1="46.5" x2="247.8" y2="60.0" stroke="rgb(0,0,0)"  stroke-width="2.0"/>
<line x1="178.6" y1="60.0" x2="155.2" y2="46.5" stroke="rgb(0,0,0)"  stroke-width="2.0"/>
<line x1="132.7" y1="46.5" x2="109.3" y2="60.0" stroke="rgb(0,0,0)"  stroke-width="2.0"/>
<line x1="165.1" y1="163.3" x2="154.2" y2="138.8" stroke="rgb(0,0,0)"  stroke-width="2.0"/>
<line x1="169.2" y1="154.9" x2="161.6" y2="137.7" stroke="rgb(0,0,0)"  stroke-width="2.0"/>
<line x1="158.5" y1="118.1" x2="168.9" y2="108.7" stroke="rgb(0,0,0)"  stroke-width="2.0"/>
<line x1="189.8" y1="106.5" x2="213.2" y2="120.0" stroke="rgb(0,0,0)"  stroke-width="2.0"/>
<line x1="213.2" y1="120.0" x2="204.9" y2="159.1" stroke="rgb(0,0,0)"  stroke-width="2.0"/>
<line x1="204.9" y1="124.4" x2="199.1" y2="151.8" stroke="rgb(0,0,0)"  stroke-width="2.0"/>
<line x1="204.9" y1="159.1" x2="165.1" y2="163.3" stroke="rgb(0,0,0)"  stroke-width="2.0"/>
<line x1="386.4" y1="60.0" x2="386.4" y2="100.0" stroke="rgb(0,0,0)"  stroke-width="2.0"/>
<line x1="379.2" y1="66.0" x2="379.2" y2="94.0" stroke="rgb(0,0,0)"  stroke-width="2.0"/>
<line x1="386.4" y1="100.0" x2="351.8" y2="120.0" stroke="rgb(0,0,0)"  stroke-width="2.0"/>
<line x1="351.8" y1="120.0" x2="317.1" y2="100.0" stroke="rgb(0,0,0)"  stroke-width="2.0"/>
<line x1="350.2" y1="110.8" x2="325.9" y2="96.8" stroke="rgb(0,0,0)"  stroke-width="2.0"/>
<line x1="317.1" y1="100.0" x2="317.1" y2="60.0" stroke="rgb(0,0,0)"  stroke-width="2.0"/>
<line x1="317.1" y1="60.0" x2="351.8" y2="40.0" stroke="rgb(0,0,0)"  stroke-width="2.0"/>
<line x1="325.9" y1="63.2" x2="350.2" y2="49.2" stroke="rgb(0,0,0)"  stroke-width="2.0"/>
<line x1="351.8" y1="40.0" x2="386.4" y2="60.0" stroke="rgb(0,0,0)"  stroke-width="2.0"/>
<line x1="178.6" y1="87.0" x2="178.6" y2="60.0" stroke="rgb(0,0,0)"  stroke-width="2.0"/>
<line x1="178.6" y1="60.0" x2="201.8" y2="46.6" stroke="rgb(0,0,0)"  stroke-width="2.0"/>
<line x1="187.4" y1="63.2" x2="203.6" y2="53.8" stroke="rgb(0,0,0)"  stroke-width="2.0"/>
<line x1="224.5" y1="46.5" x2="247.8" y2="60.0" stroke="rgb(0,0,0)"  stroke-width="2.0"/>
<line x1="247.8" y1="60.0" x2="247.8" y2="86.8" stroke="rgb(0,0,0)"  stroke-width="2.0"/>
<line x1="240.6" y1="66.0" x2="240.6" y2="84.8" stroke="rgb(0,0,0)"  stroke-width="2.0"/>
<line x1="236.6" y1="106.5" x2="213.2" y2="120.0" stroke="rgb(0,0,0)"  stroke-width="2.0"/>
<line x1="74.6" y1="120.0" x2="40.0" y2="100.0" stroke="rgb(0,0,0)"  stroke-width="2.0"/>
<line x1="73.0" y1="110.8" x2="48.8" y2="96.8" stroke="rgb(0,0,0)"  stroke-width="2.0"/>
<line x1="40.0" y1="100.0" x2="40.0" y2="60.0" stroke="rgb(0,0,0)"  stroke-width="2.0"/>
<line x1="40.0" y1="60.0" x2="74.6" y2="40.0" stroke="rgb(0,0,0)"  stroke-width="2.0"/>
<line x1="48.8" y1="63.2" x2="73.0" y2="49.2" stroke="rgb(0,0,0)"  stroke-width="2.0"/>
<line x1="74.6" y1="40.0" x2="109.3" y2="60.0" stroke="rgb(0,0,0)"  stroke-width="2.0"/>
<line x1="109.3" y1="60.0" x2="109.3" y2="100.0" stroke="rgb(0,0,0)"  stroke-width="2.0"/>
<line x1="102.1" y1="66.0" x2="102.1" y2="94.0" stroke="rgb(0,0,0)"  stroke-width="2.0"/>
<line x1="109.3" y1="100.0" x2="74.6" y2="120.0" stroke="rgb(0,0,0)"  stroke-width="2.0"/>
<text x="207.205081" y="48.000000" fill="rgb(12,12,255)"  stroke="rgb(12,12,255)" stroke-width="1" font-size="16" >N</text>
<text x="137.923048" y="48.000000" fill="rgb(12,12,255)"  stroke="rgb(12,12,255)" stroke-width="1" font-size="16" >N</text>
<text x="137.923048" y="32.000000" fill="rgb(12,12,255)"  stroke="rgb(12,12,255)" stroke-width="1" font-size="16" >H</text>
<text x="172.564065" y="108.000000" fill="rgb(12,12,255)"  stroke="rgb(12,12,255)" stroke-width="1" font-size="16" >N</text>
<text x="142.838272" y="134.765224" fill="rgb(12,12,255)"  stroke="rgb(12,12,255)" stroke-width="1" font-size="16" >N</text>
<text x="276.487113" y="48.000000" fill="rgb(12,12,255)"  stroke="rgb(12,12,255)" stroke-width="1" font-size="16" >N</text>
<text x="276.487113" y="32.000000" fill="rgb(12,12,255)"  stroke="rgb(12,12,255)" stroke-width="1" font-size="16" >H</text>
<text x="241.846097" y="108.000000" fill="rgb(12,12,255)"  stroke="rgb(12,12,255)" stroke-width="1" font-size="16" >N</text>
</svg>
</g>
<text font-size="18.000000" fill ="black" font-family="sans-serif"
x="10.000000" y="20.000000" ></text>
</svg>
