<?xml version="1.0"?>
<svg version="1.1" id="topsvg"
xmlns="http://www.w3.org/2000/svg" xmlns:xlink="http://www.w3.org/1999/xlink"
xmlns:cml="http://www.xml-cml.org/schema" x="0" y="0" width="200px" height="200px" viewBox="0 0 100 100">
<title> - Open Babel Depiction</title>
<rect x="0" y="0" width="100" height="100" fill="white"/>
<g transform="translate(0,0)">
<svg width="100" height="100" x="0" y="0" viewBox="0 0 379.388 281.045"
font-family="sans-serif" stroke="rgb(0,0,0)" stroke-width="2"  stroke-linecap="round">
<line x1="63.5" y1="241.0" x2="103.2" y2="236.9" stroke="rgb(0,0,0)"  stroke-width="2.0"/>
<line x1="103.2" y1="236.9" x2="119.5" y2="200.4" stroke="rgb(0,0,0)"  stroke-width="2.0"/>
<line x1="99.1" y1="228.5" x2="110.5" y2="202.9" stroke="rgb(0,0,0)"  stroke-width="2.0"/>
<line x1="119.5" y1="200.4" x2="96.1" y2="168.0" stroke="rgb(0,0,0)"  stroke-width="2.0"/>
<line x1="96.1" y1="168.0" x2="56.3" y2="172.2" stroke="rgb(0,0,0)"  stroke-width="2.0"/>
<line x1="90.8" y1="175.8" x2="63.0" y2="178.7" stroke="rgb(0,0,0)"  stroke-width="2.0"/>
<line x1="56.3" y1="172.2" x2="40.0" y2="208.7" stroke="rgb(0,0,0)"  stroke-width="2.0"/>
<line x1="40.0" y1="208.7" x2="63.5" y2="241.0" stroke="rgb(0,0,0)"  stroke-width="2.0"/>
<line x1="49.4" y1="209.3" x2="65.8" y2="232.0" stroke="rgb(0,0,0)"  stroke-width="2.0"/>
<line x1="339.4" y1="111.6" x2="304.8" y2="91.5" stroke="rgb(0,0,0)"  stroke-width="2.0"/>
<line x1="304.8" y1="91.5" x2="270.1" y2="111.5" stroke="rgb(0,0,0)"  stroke-width="2.0"/>
<line x1="303.2" y1="100.8" x2="278.9" y2="114.8" stroke="rgb(0,0,0)"  stroke-width="2.0"/>
<line x1="270.1" y1="111.5" x2="270.1" y2="151.5" stroke="rgb(0,0,0)"  stroke-width="2.0"/>
<line x1="270.1" y1="151.5" x2="304.7" y2="171.5" stroke="rgb(0,0,0)"  stroke-width="2.0"/>
<line x1="278.9" y1="148.3" x2="303.1" y2="162.3" stroke="rgb(0,0,0)"  stroke-width="2.0"/>
<line x1="304.7" y1="171.5" x2="339.4" y2="151.6" stroke="rgb(0,0,0)"  stroke-width="2.0"/>
<line x1="339.4" y1="151.6" x2="339.4" y2="111.6" stroke="rgb(0,0,0)"  stroke-width="2.0"/>
<line x1="332.2" y1="145.6" x2="332.2" y2="117.6" stroke="rgb(0,0,0)"  stroke-width="2.0"/>
<line x1="96.1" y1="94.9" x2="107.0" y2="119.6" stroke="rgb(0,0,0)"  stroke-width="2.0"/>
<line x1="107.0" y1="143.4" x2="96.1" y2="168.0" stroke="rgb(0,0,0)"  stroke-width="2.0"/>
<line x1="119.5" y1="200.4" x2="146.4" y2="197.6" stroke="rgb(0,0,0)"  stroke-width="2.0"/>
<line x1="169.0" y1="204.9" x2="189.1" y2="223.0" stroke="rgb(0,0,0)"  stroke-width="2.0"/>
<line x1="189.1" y1="223.0" x2="227.1" y2="210.6" stroke="rgb(0,0,0)"  stroke-width="2.0"/>
<line x1="227.1" y1="210.6" x2="232.7" y2="184.2" stroke="rgb(0,0,0)"  stroke-width="2.0"/>
<line x1="246.7" y1="165.0" x2="270.1" y2="151.5" stroke="rgb(0,0,0)"  stroke-width="2.0"/>
<line x1="270.1" y1="111.5" x2="246.7" y2="98.0" stroke="rgb(0,0,0)"  stroke-width="2.0"/>
<line x1="232.8" y1="78.8" x2="227.2" y2="52.4" stroke="rgb(0,0,0)"  stroke-width="2.0"/>
<line x1="227.2" y1="52.4" x2="189.1" y2="40.0" stroke="rgb(0,0,0)"  stroke-width="2.0"/>
<line x1="189.1" y1="40.0" x2="169.0" y2="58.1" stroke="rgb(0,0,0)"  stroke-width="2.0"/>
<line x1="146.4" y1="65.4" x2="119.6" y2="62.6" stroke="rgb(0,0,0)"  stroke-width="2.0"/>
<line x1="119.6" y1="62.6" x2="96.1" y2="94.9" stroke="rgb(0,0,0)"  stroke-width="2.0"/>
<text x="229.445553" y="99.511413" fill="rgb(255,12,12)"  stroke="rgb(255,12,12)" stroke-width="1" font-size="16" >O</text>
<text x="229.439108" y="179.528079" fill="rgb(255,12,12)"  stroke="rgb(255,12,12)" stroke-width="1" font-size="16" >O</text>
<text x="153.374815" y="74.769756" fill="rgb(255,12,12)"  stroke="rgb(255,12,12)" stroke-width="1" font-size="16" >O</text>
<text x="153.323898" y="204.211159" fill="rgb(255,12,12)"  stroke="rgb(255,12,12)" stroke-width="1" font-size="16" >O</text>
<text x="106.326686" y="139.486332" fill="rgb(255,12,12)"  stroke="rgb(255,12,12)" stroke-width="1" font-size="16" >O</text>
</svg>
</g>
<text font-size="18.000000" fill ="black" font-family="sans-serif"
x="10.000000" y="20.000000" ></text>
</svg>
