<?xml version="1.0"?>
<svg version="1.1" id="topsvg"
xmlns="http://www.w3.org/2000/svg" xmlns:xlink="http://www.w3.org/1999/xlink"
xmlns:cml="http://www.xml-cml.org/schema" x="0" y="0" width="200px" height="200px" viewBox="0 0 100 100">
<title> - Open Babel Depiction</title>
<rect x="0" y="0" width="100" height="100" fill="white"/>
<g transform="translate(0,0)">
<svg width="100" height="100" x="0" y="0" viewBox="0 0 391.769 321.554"
font-family="sans-serif" stroke="rgb(0,0,0)" stroke-width="2"  stroke-linecap="round">
<line x1="109.3" y1="161.6" x2="143.9" y2="141.6" stroke="rgb(0,0,0)"  stroke-width="2.0"/>
<line x1="143.9" y1="141.6" x2="143.9" y2="114.6" stroke="rgb(0,0,0)"  stroke-width="2.0"/>
<line x1="143.9" y1="141.6" x2="178.6" y2="161.6" stroke="rgb(0,0,0)"  stroke-width="2.0"/>
<line x1="247.8" y1="201.6" x2="282.5" y2="221.6" stroke="rgb(0,0,0)"  stroke-width="2.0"/>
<line x1="123.9" y1="40.0" x2="150.9" y2="40.0" stroke="rgb(0,0,0)"  stroke-width="2.0"/>
<line x1="168.0" y1="52.6" x2="176.3" y2="78.0" stroke="rgb(0,0,0)"  stroke-width="2.0"/>
<line x1="161.8" y1="56.7" x2="167.6" y2="74.6" stroke="rgb(0,0,0)"  stroke-width="2.0"/>
<line x1="176.3" y1="78.0" x2="154.4" y2="93.9" stroke="rgb(0,0,0)"  stroke-width="2.0"/>
<line x1="133.4" y1="93.9" x2="111.6" y2="78.0" stroke="rgb(0,0,0)"  stroke-width="2.0"/>
<line x1="111.6" y1="78.0" x2="123.9" y2="40.0" stroke="rgb(0,0,0)"  stroke-width="2.0"/>
<line x1="120.3" y1="74.6" x2="128.9" y2="47.9" stroke="rgb(0,0,0)"  stroke-width="2.0"/>
<line x1="40.0" y1="161.6" x2="40.0" y2="201.6" stroke="rgb(0,0,0)"  stroke-width="2.0"/>
<line x1="47.2" y1="167.6" x2="47.2" y2="195.6" stroke="rgb(0,0,0)"  stroke-width="2.0"/>
<line x1="40.0" y1="201.6" x2="74.6" y2="221.6" stroke="rgb(0,0,0)"  stroke-width="2.0"/>
<line x1="74.6" y1="221.6" x2="109.3" y2="201.6" stroke="rgb(0,0,0)"  stroke-width="2.0"/>
<line x1="76.2" y1="212.3" x2="100.5" y2="198.3" stroke="rgb(0,0,0)"  stroke-width="2.0"/>
<line x1="109.3" y1="201.6" x2="109.3" y2="161.6" stroke="rgb(0,0,0)"  stroke-width="2.0"/>
<line x1="109.3" y1="161.6" x2="74.6" y2="141.6" stroke="rgb(0,0,0)"  stroke-width="2.0"/>
<line x1="100.5" y1="164.8" x2="76.2" y2="150.8" stroke="rgb(0,0,0)"  stroke-width="2.0"/>
<line x1="74.6" y1="141.6" x2="40.0" y2="161.6" stroke="rgb(0,0,0)"  stroke-width="2.0"/>
<line x1="247.8" y1="161.6" x2="247.8" y2="201.6" stroke="rgb(0,0,0)"  stroke-width="2.0"/>
<line x1="240.6" y1="167.6" x2="240.6" y2="195.6" stroke="rgb(0,0,0)"  stroke-width="2.0"/>
<line x1="247.8" y1="201.6" x2="213.2" y2="221.6" stroke="rgb(0,0,0)"  stroke-width="2.0"/>
<line x1="213.2" y1="221.6" x2="178.6" y2="201.6" stroke="rgb(0,0,0)"  stroke-width="2.0"/>
<line x1="211.6" y1="212.3" x2="187.4" y2="198.3" stroke="rgb(0,0,0)"  stroke-width="2.0"/>
<line x1="178.6" y1="201.6" x2="178.6" y2="161.6" stroke="rgb(0,0,0)"  stroke-width="2.0"/>
<line x1="178.6" y1="161.6" x2="213.2" y2="141.6" stroke="rgb(0,0,0)"  stroke-width="2.0"/>
<line x1="187.4" y1="164.8" x2="211.6" y2="150.8" stroke="rgb(0,0,0)"  stroke-width="2.0"/>
<line x1="213.2" y1="141.6" x2="247.8" y2="161.6" stroke="rgb(0,0,0)"  stroke-width="2.0"/>
<line x1="351.8" y1="221.6" x2="351.8" y2="261.6" stroke="rgb(0,0,0)"  stroke-width="2.0"/>
<line x1="344.6" y1="227.6" x2="344.6" y2="255.6" stroke="rgb(0,0,0)"  stroke-width="2.0"/>
<line x1="351.8" y1="261.6" x2="317.1" y2="281.6" stroke="rgb(0,0,0)"  stroke-width="2.0"/>
<line x1="317.1" y1="281.6" x2="282.5" y2="261.6" stroke="rgb(0,0,0)"  stroke-width="2.0"/>
<line x1="315.5" y1="272.3" x2="291.3" y2="258.3" stroke="rgb(0,0,0)"  stroke-width="2.0"/>
<line x1="282.5" y1="261.6" x2="282.5" y2="221.6" stroke="rgb(0,0,0)"  stroke-width="2.0"/>
<line x1="282.5" y1="221.6" x2="317.1" y2="201.6" stroke="rgb(0,0,0)"  stroke-width="2.0"/>
<line x1="291.3" y1="224.8" x2="315.5" y2="210.8" stroke="rgb(0,0,0)"  stroke-width="2.0"/>
<line x1="317.1" y1="201.6" x2="351.8" y2="221.6" stroke="rgb(0,0,0)"  stroke-width="2.0"/>
<text x="157.923048" y="48.000000" fill="rgb(12,12,255)"  stroke="rgb(12,12,255)" stroke-width="1" font-size="16" >N</text>
<text x="137.923048" y="109.553671" fill="rgb(12,12,255)"  stroke="rgb(12,12,255)" stroke-width="1" font-size="16" >N</text>
</svg>
</g>
<text font-size="18.000000" fill ="black" font-family="sans-serif"
x="10.000000" y="20.000000" ></text>
</svg>
