<?xml version="1.0"?>
<svg version="1.1" id="topsvg"
xmlns="http://www.w3.org/2000/svg" xmlns:xlink="http://www.w3.org/1999/xlink"
xmlns:cml="http://www.xml-cml.org/schema" x="0" y="0" width="200px" height="200px" viewBox="0 0 100 100">
<title> - Open Babel Depiction</title>
<rect x="0" y="0" width="100" height="100" fill="white"/>
<g transform="translate(0,0)">
<svg width="100" height="100" x="0" y="0" viewBox="0 0 287.846 240"
font-family="sans-serif" stroke="rgb(0,0,0)" stroke-width="2"  stroke-linecap="round">
<line x1="247.8" y1="127.0" x2="247.8" y2="113.0" stroke="rgb(0,0,0)"  stroke-width="2.0"/>
<line x1="236.6" y1="93.5" x2="213.2" y2="80.0" stroke="rgb(0,0,0)"  stroke-width="2.0"/>
<line x1="210.2" y1="80.0" x2="210.2" y2="53.0" stroke="rgb(0,0,0)"  stroke-width="2.0"/>
<line x1="216.2" y1="80.0" x2="216.2" y2="53.0" stroke="rgb(0,0,0)"  stroke-width="2.0"/>
<line x1="213.2" y1="80.0" x2="189.8" y2="93.5" stroke="rgb(0,0,0)"  stroke-width="2.0"/>
<line x1="167.3" y1="93.5" x2="155.2" y2="86.5" stroke="rgb(0,0,0)"  stroke-width="2.0"/>
<line x1="134.2" y1="89.1" x2="107.8" y2="97.4" stroke="rgb(0,0,0)"  stroke-width="2.0"/>
<line x1="131.2" y1="83.9" x2="110.8" y2="102.6" stroke="rgb(0,0,0)"  stroke-width="2.0"/>
<line x1="109.3" y1="100.0" x2="85.9" y2="86.5" stroke="rgb(0,0,0)"  stroke-width="2.0"/>
<line x1="63.4" y1="86.5" x2="51.3" y2="93.5" stroke="rgb(0,0,0)"  stroke-width="2.0"/>
<line x1="109.3" y1="100.0" x2="109.3" y2="140.0" stroke="rgb(0,0,0)"  stroke-width="2.0"/>
<line x1="110.8" y1="142.6" x2="87.4" y2="156.1" stroke="rgb(0,0,0)"  stroke-width="2.0"/>
<line x1="107.8" y1="137.4" x2="84.4" y2="150.9" stroke="rgb(0,0,0)"  stroke-width="2.0"/>
<line x1="109.3" y1="140.0" x2="132.7" y2="153.5" stroke="rgb(0,0,0)"  stroke-width="2.0"/>
<line x1="143.9" y1="173.0" x2="143.9" y2="187.0" stroke="rgb(0,0,0)"  stroke-width="2.0"/>
<line x1="155.2" y1="153.5" x2="167.3" y2="146.5" stroke="rgb(0,0,0)"  stroke-width="2.0"/>
<text x="243.846097" y="148.000000" fill="rgb(102,102,102)"  stroke="rgb(102,102,102)" stroke-width="1" font-size="16" >CH</text>
<text x="267.846097" y="151.680000" fill="rgb(102,102,102)"  stroke="rgb(102,102,102)" stroke-width="1" font-size="13" >3</text>
<text x="241.846097" y="108.000000" fill="rgb(12,12,255)"  stroke="rgb(12,12,255)" stroke-width="1" font-size="16" >NH</text>
<text x="207.205081" y="48.000000" fill="rgb(255,12,12)"  stroke="rgb(255,12,12)" stroke-width="1" font-size="16" >O</text>
<text x="172.564065" y="108.000000" fill="rgb(255,12,12)"  stroke="rgb(255,12,12)" stroke-width="1" font-size="16" >O</text>
<text x="137.923048" y="88.000000" fill="rgb(12,12,255)"  stroke="rgb(12,12,255)" stroke-width="1" font-size="16" >N</text>
<text x="68.641016" y="88.000000" fill="rgb(178,178,0)"  stroke="rgb(178,178,0)" stroke-width="1" font-size="16" >S</text>
<text x="14.000000" y="108.000000" fill="rgb(102,102,102)"  stroke="rgb(102,102,102)" stroke-width="1" font-size="16" >H</text>
<text x="26.000000" y="111.680000" fill="rgb(102,102,102)"  stroke="rgb(102,102,102)" stroke-width="1" font-size="13" >3</text>
<text x="32.500000" y="108.000000" fill="rgb(102,102,102)"  stroke="rgb(102,102,102)" stroke-width="1" font-size="16" >C</text>
<text x="68.641016" y="168.000000" fill="rgb(255,12,12)"  stroke="rgb(255,12,12)" stroke-width="1" font-size="16" >O</text>
<text x="137.923048" y="168.000000" fill="rgb(12,12,255)"  stroke="rgb(12,12,255)" stroke-width="1" font-size="16" >N</text>
<text x="139.923048" y="208.000000" fill="rgb(102,102,102)"  stroke="rgb(102,102,102)" stroke-width="1" font-size="16" >CH</text>
<text x="163.923048" y="211.680000" fill="rgb(102,102,102)"  stroke="rgb(102,102,102)" stroke-width="1" font-size="13" >3</text>
<text x="174.564065" y="148.000000" fill="rgb(102,102,102)"  stroke="rgb(102,102,102)" stroke-width="1" font-size="16" >CH</text>
<text x="198.564065" y="151.680000" fill="rgb(102,102,102)"  stroke="rgb(102,102,102)" stroke-width="1" font-size="13" >3</text>
</svg>
</g>
<text font-size="18.000000" fill ="black" font-family="sans-serif"
x="10.000000" y="20.000000" ></text>
</svg>
