<?xml version="1.0"?>
<svg version="1.1" id="topsvg"
xmlns="http://www.w3.org/2000/svg" xmlns:xlink="http://www.w3.org/1999/xlink"
xmlns:cml="http://www.xml-cml.org/schema" x="0" y="0" width="200px" height="200px" viewBox="0 0 100 100">
<title> - Open Babel Depiction</title>
<rect x="0" y="0" width="100" height="100" fill="white"/>
<g transform="translate(0,0)">
<svg width="100" height="100" x="0" y="0" viewBox="0 0 378.539 290.798"
font-family="sans-serif" stroke="rgb(0,0,0)" stroke-width="2"  stroke-linecap="round">
<line x1="208.4" y1="160.2" x2="137.6" y2="134.8" stroke="rgb(0,0,0)"  stroke-width="2.0"/>
<line x1="137.6" y1="134.8" x2="105.1" y2="153.6" stroke="rgb(0,0,0)"  stroke-width="2.0"/>
<line x1="208.4" y1="160.2" x2="273.5" y2="122.6" stroke="rgb(0,0,0)"  stroke-width="2.0"/>
<line x1="40.0" y1="153.6" x2="40.0" y2="191.2" stroke="rgb(0,0,0)"  stroke-width="2.0"/>
<line x1="47.2" y1="159.6" x2="47.2" y2="185.2" stroke="rgb(0,0,0)"  stroke-width="2.0"/>
<line x1="40.0" y1="191.2" x2="72.5" y2="210.0" stroke="rgb(0,0,0)"  stroke-width="2.0"/>
<line x1="72.5" y1="210.0" x2="105.1" y2="191.2" stroke="rgb(0,0,0)"  stroke-width="2.0"/>
<line x1="74.1" y1="200.8" x2="96.3" y2="188.0" stroke="rgb(0,0,0)"  stroke-width="2.0"/>
<line x1="105.1" y1="191.2" x2="105.1" y2="153.6" stroke="rgb(0,0,0)"  stroke-width="2.0"/>
<line x1="105.1" y1="153.6" x2="72.5" y2="134.8" stroke="rgb(0,0,0)"  stroke-width="2.0"/>
<line x1="96.3" y1="156.9" x2="74.1" y2="144.1" stroke="rgb(0,0,0)"  stroke-width="2.0"/>
<line x1="72.5" y1="134.8" x2="40.0" y2="153.6" stroke="rgb(0,0,0)"  stroke-width="2.0"/>
<line x1="306.0" y1="66.3" x2="338.5" y2="85.0" stroke="rgb(0,0,0)"  stroke-width="2.0"/>
<line x1="307.6" y1="75.5" x2="329.7" y2="88.3" stroke="rgb(0,0,0)"  stroke-width="2.0"/>
<line x1="338.5" y1="85.0" x2="338.5" y2="122.6" stroke="rgb(0,0,0)"  stroke-width="2.0"/>
<line x1="338.5" y1="122.6" x2="306.0" y2="141.4" stroke="rgb(0,0,0)"  stroke-width="2.0"/>
<line x1="329.7" y1="119.4" x2="307.6" y2="132.2" stroke="rgb(0,0,0)"  stroke-width="2.0"/>
<line x1="306.0" y1="141.4" x2="273.5" y2="122.6" stroke="rgb(0,0,0)"  stroke-width="2.0"/>
<line x1="273.5" y1="122.6" x2="273.5" y2="85.0" stroke="rgb(0,0,0)"  stroke-width="2.0"/>
<line x1="280.7" y1="116.6" x2="280.7" y2="91.0" stroke="rgb(0,0,0)"  stroke-width="2.0"/>
<line x1="273.5" y1="85.0" x2="306.0" y2="66.3" stroke="rgb(0,0,0)"  stroke-width="2.0"/>
<line x1="212.8" y1="250.8" x2="250.3" y2="249.0" stroke="rgb(0,0,0)"  stroke-width="2.0"/>
<line x1="250.3" y1="249.0" x2="275.6" y2="221.1" stroke="rgb(0,0,0)"  stroke-width="2.0"/>
<line x1="275.6" y1="221.1" x2="273.7" y2="183.6" stroke="rgb(0,0,0)"  stroke-width="2.0"/>
<line x1="273.7" y1="183.6" x2="245.9" y2="158.4" stroke="rgb(0,0,0)"  stroke-width="2.0"/>
<line x1="245.9" y1="158.4" x2="208.4" y2="160.2" stroke="rgb(0,0,0)"  stroke-width="2.0"/>
<line x1="208.4" y1="160.2" x2="183.1" y2="188.0" stroke="rgb(0,0,0)"  stroke-width="2.0"/>
<line x1="183.1" y1="188.0" x2="185.0" y2="225.6" stroke="rgb(0,0,0)"  stroke-width="2.0"/>
<line x1="185.0" y1="225.6" x2="212.8" y2="250.8" stroke="rgb(0,0,0)"  stroke-width="2.0"/>
<line x1="197.8" y1="100.1" x2="192.8" y2="62.9" stroke="rgb(0,0,0)"  stroke-width="2.0"/>
<line x1="192.8" y1="62.9" x2="163.0" y2="40.0" stroke="rgb(0,0,0)"  stroke-width="2.0"/>
<line x1="163.0" y1="40.0" x2="125.8" y2="44.9" stroke="rgb(0,0,0)"  stroke-width="2.0"/>
<line x1="125.8" y1="44.9" x2="102.9" y2="74.7" stroke="rgb(0,0,0)"  stroke-width="2.0"/>
<line x1="102.9" y1="74.7" x2="107.8" y2="112.0" stroke="rgb(0,0,0)"  stroke-width="2.0"/>
<line x1="107.8" y1="112.0" x2="137.6" y2="134.8" stroke="rgb(0,0,0)"  stroke-width="2.0"/>
<line x1="137.6" y1="134.8" x2="174.9" y2="129.9" stroke="rgb(0,0,0)"  stroke-width="2.0"/>
<line x1="174.9" y1="129.9" x2="197.8" y2="100.1" stroke="rgb(0,0,0)"  stroke-width="2.0"/>
</svg>
</g>
<text font-size="18.000000" fill ="black" font-family="sans-serif"
x="10.000000" y="20.000000" ></text>
</svg>
