<?xml version="1.0"?>
<svg version="1.1" id="topsvg"
xmlns="http://www.w3.org/2000/svg" xmlns:xlink="http://www.w3.org/1999/xlink"
xmlns:cml="http://www.xml-cml.org/schema" x="0" y="0" width="200px" height="200px" viewBox="0 0 100 100">
<title> - Open Babel Depiction</title>
<rect x="0" y="0" width="100" height="100" fill="white"/>
<g transform="translate(0,0)">
<svg width="100" height="100" x="0" y="0" viewBox="0 0 320 209.282"
font-family="sans-serif" stroke="rgb(0,0,0)" stroke-width="2"  stroke-linecap="round">
<line x1="46.5" y1="120.5" x2="60.0" y2="143.9" stroke="rgb(0,0,0)"  stroke-width="2.0"/>
<line x1="60.0" y1="143.9" x2="100.0" y2="143.9" stroke="rgb(0,0,0)"  stroke-width="2.0"/>
<line x1="100.0" y1="143.9" x2="120.0" y2="109.3" stroke="rgb(0,0,0)"  stroke-width="2.0"/>
<line x1="120.0" y1="109.3" x2="147.0" y2="109.3" stroke="rgb(0,0,0)"  stroke-width="2.0"/>
<line x1="160.0" y1="122.3" x2="160.0" y2="149.3" stroke="rgb(0,0,0)"  stroke-width="2.0"/>
<line x1="160.0" y1="149.3" x2="194.6" y2="169.3" stroke="rgb(0,0,0)"  stroke-width="2.0"/>
<line x1="194.6" y1="169.3" x2="229.3" y2="149.3" stroke="rgb(0,0,0)"  stroke-width="2.0"/>
<line x1="229.3" y1="149.3" x2="252.7" y2="162.8" stroke="rgb(0,0,0)"  stroke-width="2.0"/>
<line x1="173.0" y1="109.3" x2="200.0" y2="109.3" stroke="rgb(0,0,0)"  stroke-width="2.0"/>
<line x1="200.0" y1="109.3" x2="220.0" y2="74.6" stroke="rgb(0,0,0)"  stroke-width="2.0"/>
<line x1="220.0" y1="74.6" x2="260.0" y2="74.6" stroke="rgb(0,0,0)"  stroke-width="2.0"/>
<line x1="260.0" y1="74.6" x2="273.5" y2="51.3" stroke="rgb(0,0,0)"  stroke-width="2.0"/>
<line x1="157.0" y1="96.3" x2="157.0" y2="82.3" stroke="rgb(0,0,0)"  stroke-width="2.0"/>
<line x1="163.0" y1="96.3" x2="163.0" y2="82.3" stroke="rgb(0,0,0)"  stroke-width="2.0"/>
<text x="14.000000" y="117.282032" fill="rgb(102,102,102)"  stroke="rgb(102,102,102)" stroke-width="1" font-size="16" >H</text>
<text x="26.000000" y="120.962032" fill="rgb(102,102,102)"  stroke="rgb(102,102,102)" stroke-width="1" font-size="13" >3</text>
<text x="32.500000" y="117.282032" fill="rgb(102,102,102)"  stroke="rgb(102,102,102)" stroke-width="1" font-size="16" >C</text>
<text x="154.000000" y="117.282032" fill="rgb(255,127,0)"  stroke="rgb(255,127,0)" stroke-width="1" font-size="16" >P</text>
<text x="259.923048" y="177.282032" fill="rgb(102,102,102)"  stroke="rgb(102,102,102)" stroke-width="1" font-size="16" >CH</text>
<text x="283.923048" y="180.962032" fill="rgb(102,102,102)"  stroke="rgb(102,102,102)" stroke-width="1" font-size="13" >3</text>
<text x="276.000000" y="48.000000" fill="rgb(102,102,102)"  stroke="rgb(102,102,102)" stroke-width="1" font-size="16" >CH</text>
<text x="300.000000" y="51.680000" fill="rgb(102,102,102)"  stroke="rgb(102,102,102)" stroke-width="1" font-size="13" >3</text>
<text x="154.000000" y="77.282032" fill="rgb(178,178,0)"  stroke="rgb(178,178,0)" stroke-width="1" font-size="16" >S</text>
</svg>
</g>
<text font-size="18.000000" fill ="black" font-family="sans-serif"
x="10.000000" y="20.000000" ></text>
</svg>
