<?xml version="1.0"?>
<svg version="1.1" id="topsvg"
xmlns="http://www.w3.org/2000/svg" xmlns:xlink="http://www.w3.org/1999/xlink"
xmlns:cml="http://www.xml-cml.org/schema" x="0" y="0" width="200px" height="200px" viewBox="0 0 100 100">
<title> - Open Babel Depiction</title>
<rect x="0" y="0" width="100" height="100" fill="white"/>
<g transform="translate(0,0)">
<svg width="100" height="100" x="0" y="0" viewBox="0 0 349.256 216.049"
font-family="sans-serif" stroke="rgb(0,0,0)" stroke-width="2"  stroke-linecap="round">
<line x1="174.6" y1="130.8" x2="174.6" y2="144.8" stroke="rgb(0,0,0)"  stroke-width="2.0"/>
<line x1="141.0" y1="98.3" x2="163.4" y2="111.3" stroke="rgb(0,0,0)"  stroke-width="2.0"/>
<line x1="185.9" y1="111.3" x2="208.3" y2="98.3" stroke="rgb(0,0,0)"  stroke-width="2.0"/>
<line x1="208.3" y1="98.3" x2="208.3" y2="59.4" stroke="rgb(0,0,0)"  stroke-width="2.0"/>
<line x1="201.1" y1="92.3" x2="201.1" y2="65.4" stroke="rgb(0,0,0)"  stroke-width="2.0"/>
<line x1="208.3" y1="59.4" x2="141.0" y2="59.4" stroke="rgb(0,0,0)"  stroke-width="2.0"/>
<line x1="141.0" y1="59.4" x2="141.0" y2="98.3" stroke="rgb(0,0,0)"  stroke-width="2.0"/>
<line x1="148.2" y1="65.4" x2="148.2" y2="92.3" stroke="rgb(0,0,0)"  stroke-width="2.0"/>
<line x1="275.6" y1="176.0" x2="309.3" y2="156.6" stroke="rgb(0,0,0)"  stroke-width="2.0"/>
<line x1="277.2" y1="166.8" x2="300.5" y2="153.4" stroke="rgb(0,0,0)"  stroke-width="2.0"/>
<line x1="309.3" y1="156.6" x2="309.3" y2="117.8" stroke="rgb(0,0,0)"  stroke-width="2.0"/>
<line x1="309.3" y1="117.8" x2="275.6" y2="98.3" stroke="rgb(0,0,0)"  stroke-width="2.0"/>
<line x1="300.5" y1="121.0" x2="277.2" y2="107.6" stroke="rgb(0,0,0)"  stroke-width="2.0"/>
<line x1="275.6" y1="98.3" x2="242.0" y2="117.8" stroke="rgb(0,0,0)"  stroke-width="2.0"/>
<line x1="242.0" y1="117.8" x2="242.0" y2="156.6" stroke="rgb(0,0,0)"  stroke-width="2.0"/>
<line x1="249.2" y1="123.8" x2="249.2" y2="150.6" stroke="rgb(0,0,0)"  stroke-width="2.0"/>
<line x1="242.0" y1="156.6" x2="275.6" y2="176.0" stroke="rgb(0,0,0)"  stroke-width="2.0"/>
<line x1="208.3" y1="98.3" x2="242.0" y2="117.8" stroke="rgb(0,0,0)"  stroke-width="2.0"/>
<line x1="275.6" y1="98.3" x2="275.6" y2="59.5" stroke="rgb(0,0,0)"  stroke-width="2.0"/>
<line x1="275.6" y1="59.5" x2="242.0" y2="40.0" stroke="rgb(0,0,0)"  stroke-width="2.0"/>
<line x1="266.8" y1="62.7" x2="243.6" y2="49.3" stroke="rgb(0,0,0)"  stroke-width="2.0"/>
<line x1="242.0" y1="40.0" x2="208.3" y2="59.4" stroke="rgb(0,0,0)"  stroke-width="2.0"/>
<line x1="73.7" y1="98.3" x2="107.3" y2="117.7" stroke="rgb(0,0,0)"  stroke-width="2.0"/>
<line x1="107.3" y1="117.7" x2="141.0" y2="98.3" stroke="rgb(0,0,0)"  stroke-width="2.0"/>
<line x1="141.0" y1="59.4" x2="107.3" y2="40.0" stroke="rgb(0,0,0)"  stroke-width="2.0"/>
<line x1="107.3" y1="40.0" x2="73.7" y2="59.4" stroke="rgb(0,0,0)"  stroke-width="2.0"/>
<line x1="105.7" y1="49.2" x2="82.5" y2="62.7" stroke="rgb(0,0,0)"  stroke-width="2.0"/>
<line x1="73.7" y1="59.4" x2="73.7" y2="98.3" stroke="rgb(0,0,0)"  stroke-width="2.0"/>
<line x1="73.6" y1="176.0" x2="107.3" y2="156.6" stroke="rgb(0,0,0)"  stroke-width="2.0"/>
<line x1="107.3" y1="156.6" x2="107.3" y2="117.7" stroke="rgb(0,0,0)"  stroke-width="2.0"/>
<line x1="100.1" y1="150.6" x2="100.1" y2="123.7" stroke="rgb(0,0,0)"  stroke-width="2.0"/>
<line x1="73.7" y1="98.3" x2="40.0" y2="117.7" stroke="rgb(0,0,0)"  stroke-width="2.0"/>
<line x1="72.1" y1="107.5" x2="48.8" y2="121.0" stroke="rgb(0,0,0)"  stroke-width="2.0"/>
<line x1="40.0" y1="117.7" x2="40.0" y2="156.6" stroke="rgb(0,0,0)"  stroke-width="2.0"/>
<line x1="40.0" y1="156.6" x2="73.6" y2="176.0" stroke="rgb(0,0,0)"  stroke-width="2.0"/>
<line x1="48.8" y1="153.3" x2="72.0" y2="166.8" stroke="rgb(0,0,0)"  stroke-width="2.0"/>
<text x="168.634973" y="165.750111" fill="rgb(191,191,191)"  stroke="rgb(191,191,191)" stroke-width="1" font-size="16" >H</text>
<text x="168.642945" y="125.750111" fill="rgb(12,12,255)"  stroke="rgb(12,12,255)" stroke-width="1" font-size="16" >N</text>
</svg>
</g>
<text font-size="18.000000" fill ="black" font-family="sans-serif"
x="10.000000" y="20.000000" ></text>
</svg>
