<?xml version="1.0"?>
<svg version="1.1" id="topsvg"
xmlns="http://www.w3.org/2000/svg" xmlns:xlink="http://www.w3.org/1999/xlink"
xmlns:cml="http://www.xml-cml.org/schema" x="0" y="0" width="200px" height="200px" viewBox="0 0 100 100">
<title> - Open Babel Depiction</title>
<rect x="0" y="0" width="100" height="100" fill="white"/>
<g transform="translate(0,0)">
<svg width="100" height="100" x="0" y="0" viewBox="0 0 357.128 280"
font-family="sans-serif" stroke="rgb(0,0,0)" stroke-width="2"  stroke-linecap="round">
<line x1="271.2" y1="233.5" x2="247.8" y2="220.0" stroke="rgb(0,0,0)"  stroke-width="2.0"/>
<line x1="178.6" y1="180.0" x2="155.2" y2="166.5" stroke="rgb(0,0,0)"  stroke-width="2.0"/>
<line x1="132.7" y1="166.5" x2="109.3" y2="180.0" stroke="rgb(0,0,0)"  stroke-width="2.0"/>
<line x1="284.0" y1="157.4" x2="307.4" y2="170.9" stroke="rgb(0,0,0)"  stroke-width="2.0"/>
<line x1="281.0" y1="162.6" x2="304.4" y2="176.1" stroke="rgb(0,0,0)"  stroke-width="2.0"/>
<line x1="211.7" y1="122.6" x2="188.3" y2="109.1" stroke="rgb(0,0,0)"  stroke-width="2.0"/>
<line x1="214.7" y1="117.4" x2="191.3" y2="103.9" stroke="rgb(0,0,0)"  stroke-width="2.0"/>
<line x1="178.6" y1="220.0" x2="178.6" y2="180.0" stroke="rgb(0,0,0)"  stroke-width="2.0"/>
<line x1="185.8" y1="214.0" x2="185.8" y2="186.0" stroke="rgb(0,0,0)"  stroke-width="2.0"/>
<line x1="178.6" y1="180.0" x2="213.2" y2="160.0" stroke="rgb(0,0,0)"  stroke-width="2.0"/>
<line x1="213.2" y1="160.0" x2="247.8" y2="180.0" stroke="rgb(0,0,0)"  stroke-width="2.0"/>
<line x1="214.8" y1="169.2" x2="239.0" y2="183.2" stroke="rgb(0,0,0)"  stroke-width="2.0"/>
<line x1="247.8" y1="180.0" x2="247.8" y2="220.0" stroke="rgb(0,0,0)"  stroke-width="2.0"/>
<line x1="247.8" y1="220.0" x2="213.2" y2="240.0" stroke="rgb(0,0,0)"  stroke-width="2.0"/>
<line x1="239.0" y1="216.8" x2="214.8" y2="230.8" stroke="rgb(0,0,0)"  stroke-width="2.0"/>
<line x1="213.2" y1="240.0" x2="178.6" y2="220.0" stroke="rgb(0,0,0)"  stroke-width="2.0"/>
<line x1="282.5" y1="40.0" x2="317.1" y2="60.0" stroke="rgb(0,0,0)"  stroke-width="2.0"/>
<line x1="284.1" y1="49.2" x2="308.3" y2="63.2" stroke="rgb(0,0,0)"  stroke-width="2.0"/>
<line x1="317.1" y1="60.0" x2="317.1" y2="100.0" stroke="rgb(0,0,0)"  stroke-width="2.0"/>
<line x1="317.1" y1="100.0" x2="282.5" y2="120.0" stroke="rgb(0,0,0)"  stroke-width="2.0"/>
<line x1="308.3" y1="96.8" x2="284.1" y2="110.8" stroke="rgb(0,0,0)"  stroke-width="2.0"/>
<line x1="282.5" y1="120.0" x2="247.8" y2="100.0" stroke="rgb(0,0,0)"  stroke-width="2.0"/>
<line x1="247.8" y1="100.0" x2="247.8" y2="60.0" stroke="rgb(0,0,0)"  stroke-width="2.0"/>
<line x1="255.0" y1="94.0" x2="255.0" y2="66.0" stroke="rgb(0,0,0)"  stroke-width="2.0"/>
<line x1="247.8" y1="60.0" x2="282.5" y2="40.0" stroke="rgb(0,0,0)"  stroke-width="2.0"/>
<line x1="74.6" y1="240.0" x2="40.0" y2="220.0" stroke="rgb(0,0,0)"  stroke-width="2.0"/>
<line x1="73.0" y1="230.8" x2="48.8" y2="216.8" stroke="rgb(0,0,0)"  stroke-width="2.0"/>
<line x1="40.0" y1="220.0" x2="40.0" y2="180.0" stroke="rgb(0,0,0)"  stroke-width="2.0"/>
<line x1="40.0" y1="180.0" x2="74.6" y2="160.0" stroke="rgb(0,0,0)"  stroke-width="2.0"/>
<line x1="48.8" y1="183.2" x2="73.0" y2="169.2" stroke="rgb(0,0,0)"  stroke-width="2.0"/>
<line x1="74.6" y1="160.0" x2="109.3" y2="180.0" stroke="rgb(0,0,0)"  stroke-width="2.0"/>
<line x1="109.3" y1="180.0" x2="109.3" y2="220.0" stroke="rgb(0,0,0)"  stroke-width="2.0"/>
<line x1="102.1" y1="186.0" x2="102.1" y2="214.0" stroke="rgb(0,0,0)"  stroke-width="2.0"/>
<line x1="109.3" y1="220.0" x2="74.6" y2="240.0" stroke="rgb(0,0,0)"  stroke-width="2.0"/>
<line x1="282.5" y1="120.0" x2="282.5" y2="160.0" stroke="rgb(0,0,0)"  stroke-width="2.0"/>
<line x1="282.5" y1="160.0" x2="247.8" y2="180.0" stroke="rgb(0,0,0)"  stroke-width="2.0"/>
<line x1="213.2" y1="160.0" x2="213.2" y2="120.0" stroke="rgb(0,0,0)"  stroke-width="2.0"/>
<line x1="213.2" y1="120.0" x2="247.8" y2="100.0" stroke="rgb(0,0,0)"  stroke-width="2.0"/>
<text x="172.564065" y="108.000000" fill="rgb(255,12,12)"  stroke="rgb(255,12,12)" stroke-width="1" font-size="16" >O</text>
<text x="311.128129" y="188.000000" fill="rgb(255,12,12)"  stroke="rgb(255,12,12)" stroke-width="1" font-size="16" >O</text>
<text x="278.487113" y="248.000000" fill="rgb(12,12,255)"  stroke="rgb(12,12,255)" stroke-width="1" font-size="16" >NH</text>
<text x="302.487113" y="251.680000" fill="rgb(12,12,255)"  stroke="rgb(12,12,255)" stroke-width="1" font-size="13" >2</text>
<text x="137.923048" y="168.000000" fill="rgb(12,12,255)"  stroke="rgb(12,12,255)" stroke-width="1" font-size="16" >N</text>
<text x="137.923048" y="152.000000" fill="rgb(12,12,255)"  stroke="rgb(12,12,255)" stroke-width="1" font-size="16" >H</text>
</svg>
</g>
<text font-size="18.000000" fill ="black" font-family="sans-serif"
x="10.000000" y="20.000000" ></text>
</svg>
