<?xml version="1.0"?>
<svg version="1.1" id="topsvg"
xmlns="http://www.w3.org/2000/svg" xmlns:xlink="http://www.w3.org/1999/xlink"
xmlns:cml="http://www.xml-cml.org/schema" x="0" y="0" width="200px" height="200px" viewBox="0 0 100 100">
<title> - Open Babel Depiction</title>
<rect x="0" y="0" width="100" height="100" fill="white"/>
<g transform="translate(0,0)">
<svg width="100" height="100" x="0" y="0" viewBox="0 0 415.179 391.392"
font-family="sans-serif" stroke="rgb(0,0,0)" stroke-width="2"  stroke-linecap="round">
<line x1="150.6" y1="306.3" x2="137.6" y2="283.8" stroke="rgb(0,0,0)"  stroke-width="2.0"/>
<line x1="137.6" y1="283.8" x2="98.5" y2="283.8" stroke="rgb(0,0,0)"  stroke-width="2.0"/>
<line x1="98.5" y1="283.8" x2="79.0" y2="317.6" stroke="rgb(0,0,0)"  stroke-width="2.0"/>
<line x1="79.0" y1="317.6" x2="92.0" y2="340.1" stroke="rgb(0,0,0)"  stroke-width="2.0"/>
<line x1="79.0" y1="317.6" x2="53.0" y2="317.6" stroke="rgb(0,0,0)"  stroke-width="2.0"/>
<line x1="98.5" y1="283.8" x2="79.0" y2="250.0" stroke="rgb(0,0,0)"  stroke-width="2.0"/>
<line x1="79.0" y1="250.0" x2="98.5" y2="216.2" stroke="rgb(0,0,0)"  stroke-width="2.0"/>
<line x1="98.5" y1="216.2" x2="137.6" y2="216.2" stroke="rgb(0,0,0)"  stroke-width="2.0"/>
<line x1="137.6" y1="216.2" x2="150.6" y2="238.7" stroke="rgb(0,0,0)"  stroke-width="2.0"/>
<line x1="137.6" y1="216.2" x2="137.6" y2="177.2" stroke="rgb(0,0,0)"  stroke-width="2.0"/>
<line x1="340.5" y1="60.0" x2="363.9" y2="46.5" stroke="rgb(0,0,0)"  stroke-width="2.0"/>
<line x1="272.9" y1="99.1" x2="272.9" y2="126.1" stroke="rgb(0,0,0)"  stroke-width="2.0"/>
<line x1="171.4" y1="157.6" x2="171.4" y2="184.6" stroke="rgb(0,0,0)"  stroke-width="2.0"/>
<line x1="103.8" y1="118.6" x2="171.4" y2="118.6" stroke="rgb(0,0,0)"  stroke-width="2.0"/>
<line x1="171.4" y1="118.6" x2="171.4" y2="157.6" stroke="rgb(0,0,0)"  stroke-width="2.0"/>
<line x1="171.4" y1="157.6" x2="137.6" y2="177.2" stroke="rgb(0,0,0)"  stroke-width="2.0"/>
<line x1="137.6" y1="177.2" x2="103.8" y2="157.6" stroke="rgb(0,0,0)"  stroke-width="2.0"/>
<line x1="103.8" y1="157.6" x2="103.8" y2="118.6" stroke="rgb(0,0,0)"  stroke-width="2.0"/>
<line x1="239.1" y1="157.6" x2="205.2" y2="177.2" stroke="rgb(0,0,0)"  stroke-width="2.0"/>
<line x1="205.2" y1="177.2" x2="171.4" y2="157.6" stroke="rgb(0,0,0)"  stroke-width="2.0"/>
<line x1="171.4" y1="118.6" x2="205.2" y2="99.1" stroke="rgb(0,0,0)"  stroke-width="2.0"/>
<line x1="205.2" y1="99.1" x2="239.1" y2="118.6" stroke="rgb(0,0,0)"  stroke-width="2.0"/>
<line x1="239.1" y1="118.6" x2="239.1" y2="157.6" stroke="rgb(0,0,0)"  stroke-width="2.0"/>
<line x1="205.2" y1="99.1" x2="205.2" y2="60.0" stroke="rgb(0,0,0)"  stroke-width="2.0"/>
<line x1="205.2" y1="60.0" x2="239.1" y2="40.5" stroke="rgb(0,0,0)"  stroke-width="2.0"/>
<line x1="239.1" y1="40.5" x2="272.9" y2="60.0" stroke="rgb(0,0,0)"  stroke-width="2.0"/>
<line x1="240.7" y1="49.7" x2="264.1" y2="63.2" stroke="rgb(0,0,0)"  stroke-width="2.0"/>
<line x1="272.9" y1="60.0" x2="272.9" y2="99.1" stroke="rgb(0,0,0)"  stroke-width="2.0"/>
<line x1="272.9" y1="99.1" x2="239.1" y2="118.6" stroke="rgb(0,0,0)"  stroke-width="2.0"/>
<line x1="306.7" y1="40.5" x2="272.9" y2="60.0" stroke="rgb(0,0,0)"  stroke-width="2.0"/>
<line x1="272.9" y1="99.1" x2="306.7" y2="118.6" stroke="rgb(0,0,0)"  stroke-width="2.0"/>
<line x1="306.7" y1="118.6" x2="340.5" y2="99.1" stroke="rgb(0,0,0)"  stroke-width="2.0"/>
<line x1="340.5" y1="99.1" x2="340.5" y2="60.0" stroke="rgb(0,0,0)"  stroke-width="2.0"/>
<line x1="340.5" y1="60.0" x2="306.7" y2="40.5" stroke="rgb(0,0,0)"  stroke-width="2.0"/>
<text x="167.405813" y="205.636288" fill="rgb(102,102,102)"  stroke="rgb(102,102,102)" stroke-width="1" font-size="16" >CH</text>
<text x="191.405813" y="209.316288" fill="rgb(102,102,102)"  stroke="rgb(102,102,102)" stroke-width="1" font-size="13" >3</text>
<text x="268.911050" y="147.060653" fill="rgb(102,102,102)"  stroke="rgb(102,102,102)" stroke-width="1" font-size="16" >CH</text>
<text x="292.911050" y="150.740653" fill="rgb(102,102,102)"  stroke="rgb(102,102,102)" stroke-width="1" font-size="13" >3</text>
<text x="369.178782" y="48.000000" fill="rgb(255,12,12)"  stroke="rgb(255,12,12)" stroke-width="1" font-size="16" >OH</text>
<text x="153.082760" y="325.593966" fill="rgb(102,102,102)"  stroke="rgb(102,102,102)" stroke-width="1" font-size="16" >CH</text>
<text x="177.082760" y="329.273966" fill="rgb(102,102,102)"  stroke="rgb(102,102,102)" stroke-width="1" font-size="13" >3</text>
<text x="153.083950" y="257.996203" fill="rgb(102,102,102)"  stroke="rgb(102,102,102)" stroke-width="1" font-size="16" >CH</text>
<text x="177.083950" y="261.676203" fill="rgb(102,102,102)"  stroke="rgb(102,102,102)" stroke-width="1" font-size="13" >3</text>
<text x="14.000000" y="325.591906" fill="rgb(102,102,102)"  stroke="rgb(102,102,102)" stroke-width="1" font-size="16" >H</text>
<text x="26.000000" y="329.271906" fill="rgb(102,102,102)"  stroke="rgb(102,102,102)" stroke-width="1" font-size="13" >3</text>
<text x="32.500000" y="325.591906" fill="rgb(102,102,102)"  stroke="rgb(102,102,102)" stroke-width="1" font-size="16" >C</text>
<text x="94.540785" y="359.391818" fill="rgb(102,102,102)"  stroke="rgb(102,102,102)" stroke-width="1" font-size="16" >CH</text>
<text x="118.540785" y="363.071818" fill="rgb(102,102,102)"  stroke="rgb(102,102,102)" stroke-width="1" font-size="13" >3</text>
</svg>
</g>
<text font-size="18.000000" fill ="black" font-family="sans-serif"
x="10.000000" y="20.000000" ></text>
</svg>
