<?xml version="1.0"?>
<svg version="1.1" id="topsvg"
xmlns="http://www.w3.org/2000/svg" xmlns:xlink="http://www.w3.org/1999/xlink"
xmlns:cml="http://www.xml-cml.org/schema" x="0" y="0" width="200px" height="200px" viewBox="0 0 100 100">
<title> - Open Babel Depiction</title>
<rect x="0" y="0" width="100" height="100" fill="white"/>
<g transform="translate(0,0)">
<svg width="100" height="100" x="0" y="0" viewBox="0 0 340.118 263.923"
font-family="sans-serif" stroke="rgb(0,0,0)" stroke-width="2"  stroke-linecap="round">
<line x1="131.6" y1="223.9" x2="158.6" y2="223.9" stroke="rgb(0,0,0)"  stroke-width="2.0"/>
<line x1="158.6" y1="223.9" x2="178.6" y2="189.3" stroke="rgb(0,0,0)"  stroke-width="2.0"/>
<line x1="178.6" y1="189.3" x2="158.6" y2="154.6" stroke="rgb(0,0,0)"  stroke-width="2.0"/>
<line x1="158.6" y1="154.6" x2="178.6" y2="120.0" stroke="rgb(0,0,0)"  stroke-width="2.0"/>
<line x1="178.6" y1="120.0" x2="213.2" y2="140.0" stroke="rgb(0,0,0)"  stroke-width="2.0"/>
<line x1="213.2" y1="140.0" x2="236.6" y2="153.5" stroke="rgb(0,0,0)"  stroke-width="2.0"/>
<line x1="215.3" y1="136.4" x2="238.7" y2="149.9" stroke="rgb(0,0,0)"  stroke-width="2.0"/>
<line x1="211.1" y1="143.6" x2="234.5" y2="157.1" stroke="rgb(0,0,0)"  stroke-width="2.0"/>
<line x1="178.6" y1="120.0" x2="198.6" y2="85.4" stroke="rgb(0,0,0)"  stroke-width="2.0"/>
<line x1="198.6" y1="85.4" x2="225.6" y2="85.4" stroke="rgb(0,0,0)"  stroke-width="2.0"/>
<line x1="178.6" y1="120.0" x2="143.9" y2="100.0" stroke="rgb(0,0,0)"  stroke-width="2.0"/>
<line x1="74.6" y1="60.0" x2="51.3" y2="46.5" stroke="rgb(0,0,0)"  stroke-width="2.0"/>
<line x1="300.1" y1="92.4" x2="300.1" y2="65.4" stroke="rgb(0,0,0)"  stroke-width="2.0"/>
<line x1="300.1" y1="65.4" x2="274.6" y2="57.1" stroke="rgb(0,0,0)"  stroke-width="2.0"/>
<line x1="292.2" y1="70.4" x2="274.3" y2="64.5" stroke="rgb(0,0,0)"  stroke-width="2.0"/>
<line x1="254.4" y1="63.5" x2="246.2" y2="74.8" stroke="rgb(0,0,0)"  stroke-width="2.0"/>
<line x1="246.2" y1="95.9" x2="262.1" y2="117.7" stroke="rgb(0,0,0)"  stroke-width="2.0"/>
<line x1="262.1" y1="117.7" x2="287.6" y2="109.4" stroke="rgb(0,0,0)"  stroke-width="2.0"/>
<line x1="265.6" y1="109.0" x2="283.4" y2="103.2" stroke="rgb(0,0,0)"  stroke-width="2.0"/>
<line x1="109.3" y1="120.0" x2="143.9" y2="100.0" stroke="rgb(0,0,0)"  stroke-width="2.0"/>
<line x1="110.9" y1="110.8" x2="135.1" y2="96.8" stroke="rgb(0,0,0)"  stroke-width="2.0"/>
<line x1="143.9" y1="100.0" x2="143.9" y2="60.0" stroke="rgb(0,0,0)"  stroke-width="2.0"/>
<line x1="143.9" y1="60.0" x2="109.3" y2="40.0" stroke="rgb(0,0,0)"  stroke-width="2.0"/>
<line x1="135.1" y1="63.2" x2="110.9" y2="49.2" stroke="rgb(0,0,0)"  stroke-width="2.0"/>
<line x1="109.3" y1="40.0" x2="74.6" y2="60.0" stroke="rgb(0,0,0)"  stroke-width="2.0"/>
<line x1="74.6" y1="60.0" x2="74.6" y2="100.0" stroke="rgb(0,0,0)"  stroke-width="2.0"/>
<line x1="81.8" y1="66.0" x2="81.8" y2="94.0" stroke="rgb(0,0,0)"  stroke-width="2.0"/>
<line x1="74.6" y1="100.0" x2="109.3" y2="120.0" stroke="rgb(0,0,0)"  stroke-width="2.0"/>
<text x="294.117735" y="113.358984" fill="rgb(12,12,255)"  stroke="rgb(12,12,255)" stroke-width="1" font-size="16" >N</text>
<text x="22.000000" y="48.000000" fill="rgb(30,239,30)"  stroke="rgb(30,239,30)" stroke-width="1" font-size="16" >Cl</text>
<text x="256.075475" y="60.998304" fill="rgb(12,12,255)"  stroke="rgb(12,12,255)" stroke-width="1" font-size="16" >N</text>
<text x="92.564065" y="231.923048" fill="rgb(102,102,102)"  stroke="rgb(102,102,102)" stroke-width="1" font-size="16" >H</text>
<text x="104.564065" y="235.603048" fill="rgb(102,102,102)"  stroke="rgb(102,102,102)" stroke-width="1" font-size="13" >3</text>
<text x="111.064065" y="231.923048" fill="rgb(102,102,102)"  stroke="rgb(102,102,102)" stroke-width="1" font-size="16" >C</text>
<text x="232.564065" y="93.358984" fill="rgb(12,12,255)"  stroke="rgb(12,12,255)" stroke-width="1" font-size="16" >N</text>
<text x="241.846097" y="168.000000" fill="rgb(12,12,255)"  stroke="rgb(12,12,255)" stroke-width="1" font-size="16" >N</text>
</svg>
</g>
<text font-size="18.000000" fill ="black" font-family="sans-serif"
x="10.000000" y="20.000000" ></text>
</svg>
