<?xml version="1.0"?>
<svg version="1.1" id="topsvg"
xmlns="http://www.w3.org/2000/svg" xmlns:xlink="http://www.w3.org/1999/xlink"
xmlns:cml="http://www.xml-cml.org/schema" x="0" y="0" width="200px" height="200px" viewBox="0 0 100 100">
<title> - Open Babel Depiction</title>
<rect x="0" y="0" width="100" height="100" fill="white"/>
<g transform="translate(0,0)">
<svg width="100" height="100" x="0" y="0" viewBox="0 0 391.769 580"
font-family="sans-serif" stroke="rgb(0,0,0)" stroke-width="2"  stroke-linecap="round">
<line x1="51.3" y1="526.5" x2="74.6" y2="540.0" stroke="rgb(0,0,0)"  stroke-width="2.0"/>
<line x1="74.6" y1="540.0" x2="109.3" y2="520.0" stroke="rgb(0,0,0)"  stroke-width="2.0"/>
<line x1="109.3" y1="520.0" x2="109.3" y2="480.0" stroke="rgb(0,0,0)"  stroke-width="2.0"/>
<line x1="109.3" y1="480.0" x2="143.9" y2="460.0" stroke="rgb(0,0,0)"  stroke-width="2.0"/>
<line x1="143.9" y1="460.0" x2="143.9" y2="420.0" stroke="rgb(0,0,0)"  stroke-width="2.0"/>
<line x1="143.9" y1="420.0" x2="178.6" y2="400.0" stroke="rgb(0,0,0)"  stroke-width="2.0"/>
<line x1="178.6" y1="400.0" x2="178.6" y2="360.0" stroke="rgb(0,0,0)"  stroke-width="2.0"/>
<line x1="178.6" y1="360.0" x2="213.2" y2="340.0" stroke="rgb(0,0,0)"  stroke-width="2.0"/>
<line x1="213.2" y1="340.0" x2="213.2" y2="300.0" stroke="rgb(0,0,0)"  stroke-width="2.0"/>
<line x1="213.2" y1="300.0" x2="247.8" y2="280.0" stroke="rgb(0,0,0)"  stroke-width="2.0"/>
<line x1="247.8" y1="280.0" x2="247.8" y2="240.0" stroke="rgb(0,0,0)"  stroke-width="2.0"/>
<line x1="247.8" y1="240.0" x2="282.5" y2="220.0" stroke="rgb(0,0,0)"  stroke-width="2.0"/>
<line x1="282.5" y1="220.0" x2="282.5" y2="180.0" stroke="rgb(0,0,0)"  stroke-width="2.0"/>
<line x1="282.5" y1="180.0" x2="317.1" y2="160.0" stroke="rgb(0,0,0)"  stroke-width="2.0"/>
<line x1="318.6" y1="157.4" x2="342.0" y2="170.9" stroke="rgb(0,0,0)"  stroke-width="2.0"/>
<line x1="315.6" y1="162.6" x2="339.0" y2="176.1" stroke="rgb(0,0,0)"  stroke-width="2.0"/>
<line x1="317.1" y1="160.0" x2="317.1" y2="133.0" stroke="rgb(0,0,0)"  stroke-width="2.0"/>
<line x1="282.5" y1="60.0" x2="305.9" y2="46.5" stroke="rgb(0,0,0)"  stroke-width="2.0"/>
<line x1="328.4" y1="46.5" x2="351.8" y2="60.0" stroke="rgb(0,0,0)"  stroke-width="2.0"/>
<line x1="351.8" y1="60.0" x2="351.8" y2="100.0" stroke="rgb(0,0,0)"  stroke-width="2.0"/>
<line x1="351.8" y1="100.0" x2="328.4" y2="113.5" stroke="rgb(0,0,0)"  stroke-width="2.0"/>
<line x1="305.9" y1="113.5" x2="282.5" y2="100.0" stroke="rgb(0,0,0)"  stroke-width="2.0"/>
<line x1="282.5" y1="100.0" x2="282.5" y2="60.0" stroke="rgb(0,0,0)"  stroke-width="2.0"/>
<text x="311.128129" y="48.000000" fill="rgb(255,12,12)"  stroke="rgb(255,12,12)" stroke-width="1" font-size="16" >O</text>
<text x="311.128129" y="128.000000" fill="rgb(12,12,255)"  stroke="rgb(12,12,255)" stroke-width="1" font-size="16" >N</text>
<text x="345.769145" y="188.000000" fill="rgb(255,12,12)"  stroke="rgb(255,12,12)" stroke-width="1" font-size="16" >O</text>
<text x="14.000000" y="528.000000" fill="rgb(102,102,102)"  stroke="rgb(102,102,102)" stroke-width="1" font-size="16" >H</text>
<text x="26.000000" y="531.680000" fill="rgb(102,102,102)"  stroke="rgb(102,102,102)" stroke-width="1" font-size="13" >3</text>
<text x="32.500000" y="528.000000" fill="rgb(102,102,102)"  stroke="rgb(102,102,102)" stroke-width="1" font-size="16" >C</text>
</svg>
</g>
<text font-size="18.000000" fill ="black" font-family="sans-serif"
x="10.000000" y="20.000000" ></text>
</svg>
