<?xml version="1.0"?>
<svg version="1.1" id="topsvg"
xmlns="http://www.w3.org/2000/svg" xmlns:xlink="http://www.w3.org/1999/xlink"
xmlns:cml="http://www.xml-cml.org/schema" x="0" y="0" width="200px" height="200px" viewBox="0 0 100 100">
<title> - Open Babel Depiction</title>
<rect x="0" y="0" width="100" height="100" fill="white"/>
<g transform="translate(0,0)">
<svg width="100" height="100" x="0" y="0" viewBox="0 0 344.946 312.927"
font-family="sans-serif" stroke="rgb(0,0,0)" stroke-width="2"  stroke-linecap="round">
<line x1="51.3" y1="266.4" x2="73.4" y2="253.6" stroke="rgb(0,0,0)"  stroke-width="2.0"/>
<line x1="140.2" y1="215.1" x2="195.8" y2="183.0" stroke="rgb(0,0,0)"  stroke-width="2.0"/>
<line x1="204.0" y1="163.5" x2="204.0" y2="150.9" stroke="rgb(0,0,0)"  stroke-width="2.0"/>
<line x1="210.0" y1="163.5" x2="210.0" y2="150.9" stroke="rgb(0,0,0)"  stroke-width="2.0"/>
<line x1="194.0" y1="137.9" x2="181.4" y2="137.9" stroke="rgb(0,0,0)"  stroke-width="2.0"/>
<line x1="220.0" y1="137.9" x2="232.6" y2="137.9" stroke="rgb(0,0,0)"  stroke-width="2.0"/>
<line x1="207.0" y1="124.9" x2="207.0" y2="112.4" stroke="rgb(0,0,0)"  stroke-width="2.0"/>
<line x1="106.8" y1="195.8" x2="140.2" y2="215.1" stroke="rgb(0,0,0)"  stroke-width="2.0"/>
<line x1="108.4" y1="205.0" x2="131.4" y2="218.3" stroke="rgb(0,0,0)"  stroke-width="2.0"/>
<line x1="140.2" y1="215.1" x2="140.2" y2="253.6" stroke="rgb(0,0,0)"  stroke-width="2.0"/>
<line x1="140.2" y1="253.6" x2="106.8" y2="272.9" stroke="rgb(0,0,0)"  stroke-width="2.0"/>
<line x1="131.4" y1="250.4" x2="108.4" y2="263.7" stroke="rgb(0,0,0)"  stroke-width="2.0"/>
<line x1="106.8" y1="272.9" x2="73.4" y2="253.6" stroke="rgb(0,0,0)"  stroke-width="2.0"/>
<line x1="73.4" y1="253.6" x2="73.4" y2="215.1" stroke="rgb(0,0,0)"  stroke-width="2.0"/>
<line x1="80.6" y1="247.6" x2="80.6" y2="221.1" stroke="rgb(0,0,0)"  stroke-width="2.0"/>
<line x1="73.4" y1="215.1" x2="106.8" y2="195.8" stroke="rgb(0,0,0)"  stroke-width="2.0"/>
<line x1="109.1" y1="157.2" x2="109.1" y2="118.6" stroke="rgb(0,0,0)"  stroke-width="2.0"/>
<line x1="109.1" y1="118.6" x2="145.8" y2="106.7" stroke="rgb(0,0,0)"  stroke-width="2.0"/>
<line x1="145.8" y1="106.7" x2="160.8" y2="127.4" stroke="rgb(0,0,0)"  stroke-width="2.0"/>
<line x1="160.8" y1="148.4" x2="145.8" y2="169.1" stroke="rgb(0,0,0)"  stroke-width="2.0"/>
<line x1="145.8" y1="169.1" x2="109.1" y2="157.2" stroke="rgb(0,0,0)"  stroke-width="2.0"/>
<line x1="304.9" y1="118.6" x2="304.9" y2="157.2" stroke="rgb(0,0,0)"  stroke-width="2.0"/>
<line x1="304.9" y1="157.2" x2="268.3" y2="169.1" stroke="rgb(0,0,0)"  stroke-width="2.0"/>
<line x1="268.3" y1="169.1" x2="253.2" y2="148.4" stroke="rgb(0,0,0)"  stroke-width="2.0"/>
<line x1="253.2" y1="127.4" x2="268.3" y2="106.7" stroke="rgb(0,0,0)"  stroke-width="2.0"/>
<line x1="268.3" y1="106.7" x2="304.9" y2="118.6" stroke="rgb(0,0,0)"  stroke-width="2.0"/>
<line x1="187.7" y1="40.0" x2="226.3" y2="40.0" stroke="rgb(0,0,0)"  stroke-width="2.0"/>
<line x1="226.3" y1="40.0" x2="238.2" y2="76.7" stroke="rgb(0,0,0)"  stroke-width="2.0"/>
<line x1="238.2" y1="76.7" x2="217.5" y2="91.7" stroke="rgb(0,0,0)"  stroke-width="2.0"/>
<line x1="196.5" y1="91.7" x2="175.8" y2="76.7" stroke="rgb(0,0,0)"  stroke-width="2.0"/>
<line x1="175.8" y1="76.7" x2="187.7" y2="40.0" stroke="rgb(0,0,0)"  stroke-width="2.0"/>
<text x="201.019185" y="107.355325" fill="rgb(12,12,255)"  stroke="rgb(12,12,255)" stroke-width="1" font-size="16" >N</text>
<text x="239.590614" y="145.926754" fill="rgb(12,12,255)"  stroke="rgb(12,12,255)" stroke-width="1" font-size="16" >N</text>
<text x="22.000000" y="280.926754" fill="rgb(165,40,40)"  stroke="rgb(165,40,40)" stroke-width="1" font-size="16" >Br</text>
<text x="162.447756" y="145.926754" fill="rgb(12,12,255)"  stroke="rgb(12,12,255)" stroke-width="1" font-size="16" >N</text>
<text x="201.019185" y="145.926754" fill="rgb(255,127,0)"  stroke="rgb(255,127,0)" stroke-width="1" font-size="16" >P</text>
<text x="201.019185" y="184.498183" fill="rgb(12,12,255)"  stroke="rgb(12,12,255)" stroke-width="1" font-size="16" >N</text>
</svg>
</g>
<text font-size="18.000000" fill ="black" font-family="sans-serif"
x="10.000000" y="20.000000" ></text>
</svg>
