<?xml version="1.0"?>
<svg version="1.1" id="topsvg"
xmlns="http://www.w3.org/2000/svg" xmlns:xlink="http://www.w3.org/1999/xlink"
xmlns:cml="http://www.xml-cml.org/schema" x="0" y="0" width="200px" height="200px" viewBox="0 0 100 100">
<title> - Open Babel Depiction</title>
<rect x="0" y="0" width="100" height="100" fill="white"/>
<g transform="translate(0,0)">
<svg width="100" height="100" x="0" y="0" viewBox="0 0 415.179 391.392"
font-family="sans-serif" stroke="rgb(0,0,0)" stroke-width="2"  stroke-linecap="round">
<line x1="264.6" y1="85.1" x2="277.6" y2="107.6" stroke="rgb(0,0,0)"  stroke-width="2.0"/>
<line x1="277.6" y1="107.6" x2="316.6" y2="107.6" stroke="rgb(0,0,0)"  stroke-width="2.0"/>
<line x1="316.6" y1="107.6" x2="336.2" y2="73.8" stroke="rgb(0,0,0)"  stroke-width="2.0"/>
<line x1="336.2" y1="73.8" x2="323.1" y2="51.3" stroke="rgb(0,0,0)"  stroke-width="2.0"/>
<line x1="336.2" y1="73.8" x2="362.2" y2="73.8" stroke="rgb(0,0,0)"  stroke-width="2.0"/>
<line x1="316.6" y1="107.6" x2="336.2" y2="141.4" stroke="rgb(0,0,0)"  stroke-width="2.0"/>
<line x1="338.7" y1="142.9" x2="314.0" y2="173.7" stroke="rgb(0,0,0)"  stroke-width="2.0"/>
<line x1="333.6" y1="139.9" x2="319.2" y2="176.7" stroke="rgb(0,0,0)"  stroke-width="2.0"/>
<line x1="316.6" y1="175.2" x2="277.6" y2="175.2" stroke="rgb(0,0,0)"  stroke-width="2.0"/>
<line x1="277.6" y1="175.2" x2="264.6" y2="152.7" stroke="rgb(0,0,0)"  stroke-width="2.0"/>
<line x1="277.6" y1="175.2" x2="277.6" y2="214.2" stroke="rgb(0,0,0)"  stroke-width="2.0"/>
<line x1="74.6" y1="331.4" x2="51.3" y2="344.9" stroke="rgb(0,0,0)"  stroke-width="2.0"/>
<line x1="142.3" y1="292.3" x2="142.3" y2="265.3" stroke="rgb(0,0,0)"  stroke-width="2.0"/>
<line x1="243.8" y1="233.8" x2="243.8" y2="206.8" stroke="rgb(0,0,0)"  stroke-width="2.0"/>
<line x1="311.4" y1="233.8" x2="311.4" y2="272.8" stroke="rgb(0,0,0)"  stroke-width="2.0"/>
<line x1="311.4" y1="272.8" x2="243.8" y2="272.8" stroke="rgb(0,0,0)"  stroke-width="2.0"/>
<line x1="243.8" y1="272.8" x2="243.8" y2="233.8" stroke="rgb(0,0,0)"  stroke-width="2.0"/>
<line x1="243.8" y1="233.8" x2="277.6" y2="214.2" stroke="rgb(0,0,0)"  stroke-width="2.0"/>
<line x1="277.6" y1="214.2" x2="311.4" y2="233.8" stroke="rgb(0,0,0)"  stroke-width="2.0"/>
<line x1="209.9" y1="331.4" x2="176.1" y2="350.9" stroke="rgb(0,0,0)"  stroke-width="2.0"/>
<line x1="176.1" y1="350.9" x2="142.3" y2="331.4" stroke="rgb(0,0,0)"  stroke-width="2.0"/>
<line x1="174.5" y1="341.7" x2="151.1" y2="328.2" stroke="rgb(0,0,0)"  stroke-width="2.0"/>
<line x1="142.3" y1="331.4" x2="142.3" y2="292.3" stroke="rgb(0,0,0)"  stroke-width="2.0"/>
<line x1="142.3" y1="292.3" x2="176.1" y2="272.8" stroke="rgb(0,0,0)"  stroke-width="2.0"/>
<line x1="176.1" y1="272.8" x2="209.9" y2="292.3" stroke="rgb(0,0,0)"  stroke-width="2.0"/>
<line x1="209.9" y1="292.3" x2="209.9" y2="331.4" stroke="rgb(0,0,0)"  stroke-width="2.0"/>
<line x1="243.8" y1="272.8" x2="209.9" y2="292.3" stroke="rgb(0,0,0)"  stroke-width="2.0"/>
<line x1="176.1" y1="272.8" x2="176.1" y2="233.8" stroke="rgb(0,0,0)"  stroke-width="2.0"/>
<line x1="176.1" y1="233.8" x2="209.9" y2="214.2" stroke="rgb(0,0,0)"  stroke-width="2.0"/>
<line x1="209.9" y1="214.2" x2="243.8" y2="233.8" stroke="rgb(0,0,0)"  stroke-width="2.0"/>
<line x1="108.5" y1="350.9" x2="142.3" y2="331.4" stroke="rgb(0,0,0)"  stroke-width="2.0"/>
<line x1="142.3" y1="292.3" x2="108.5" y2="272.8" stroke="rgb(0,0,0)"  stroke-width="2.0"/>
<line x1="108.5" y1="272.8" x2="74.6" y2="292.3" stroke="rgb(0,0,0)"  stroke-width="2.0"/>
<line x1="74.6" y1="292.3" x2="74.6" y2="331.4" stroke="rgb(0,0,0)"  stroke-width="2.0"/>
<line x1="74.6" y1="331.4" x2="108.5" y2="350.9" stroke="rgb(0,0,0)"  stroke-width="2.0"/>
<text x="239.772968" y="201.755530" fill="rgb(102,102,102)"  stroke="rgb(102,102,102)" stroke-width="1" font-size="16" >CH</text>
<text x="263.772968" y="205.435530" fill="rgb(102,102,102)"  stroke="rgb(102,102,102)" stroke-width="1" font-size="13" >3</text>
<text x="138.267731" y="260.331165" fill="rgb(102,102,102)"  stroke="rgb(102,102,102)" stroke-width="1" font-size="16" >CH</text>
<text x="162.267731" y="264.011165" fill="rgb(102,102,102)"  stroke="rgb(102,102,102)" stroke-width="1" font-size="13" >3</text>
<text x="22.000000" y="359.391818" fill="rgb(255,12,12)"  stroke="rgb(255,12,12)" stroke-width="1" font-size="16" >HO</text>
<text x="232.096021" y="81.797851" fill="rgb(102,102,102)"  stroke="rgb(102,102,102)" stroke-width="1" font-size="16" >H</text>
<text x="244.096021" y="85.477851" fill="rgb(102,102,102)"  stroke="rgb(102,102,102)" stroke-width="1" font-size="13" >3</text>
<text x="250.596021" y="81.797851" fill="rgb(102,102,102)"  stroke="rgb(102,102,102)" stroke-width="1" font-size="16" >C</text>
<text x="232.094832" y="149.395614" fill="rgb(102,102,102)"  stroke="rgb(102,102,102)" stroke-width="1" font-size="16" >H</text>
<text x="244.094832" y="153.075614" fill="rgb(102,102,102)"  stroke="rgb(102,102,102)" stroke-width="1" font-size="13" >3</text>
<text x="250.594832" y="149.395614" fill="rgb(102,102,102)"  stroke="rgb(102,102,102)" stroke-width="1" font-size="16" >C</text>
<text x="371.178782" y="81.799912" fill="rgb(102,102,102)"  stroke="rgb(102,102,102)" stroke-width="1" font-size="16" >CH</text>
<text x="395.178782" y="85.479912" fill="rgb(102,102,102)"  stroke="rgb(102,102,102)" stroke-width="1" font-size="13" >3</text>
<text x="290.637996" y="48.000000" fill="rgb(102,102,102)"  stroke="rgb(102,102,102)" stroke-width="1" font-size="16" >H</text>
<text x="302.637996" y="51.680000" fill="rgb(102,102,102)"  stroke="rgb(102,102,102)" stroke-width="1" font-size="13" >3</text>
<text x="309.137996" y="48.000000" fill="rgb(102,102,102)"  stroke="rgb(102,102,102)" stroke-width="1" font-size="16" >C</text>
</svg>
</g>
<text font-size="18.000000" fill ="black" font-family="sans-serif"
x="10.000000" y="20.000000" ></text>
</svg>
