<?xml version="1.0"?>
<svg version="1.1" id="topsvg"
xmlns="http://www.w3.org/2000/svg" xmlns:xlink="http://www.w3.org/1999/xlink"
xmlns:cml="http://www.xml-cml.org/schema" x="0" y="0" width="200px" height="200px" viewBox="0 0 100 100">
<title> - Open Babel Depiction</title>
<rect x="0" y="0" width="100" height="100" fill="white"/>
<g transform="translate(0,0)">
<svg width="100" height="100" x="0" y="0" viewBox="0 0 312.389 160"
font-family="sans-serif" stroke="rgb(0,0,0)" stroke-width="2"  stroke-linecap="round">
<line x1="101.6" y1="80.0" x2="141.6" y2="80.0" stroke="rgb(0,0,0)"  stroke-width="2.0"/>
<line x1="78.0" y1="47.6" x2="101.6" y2="80.0" stroke="rgb(0,0,0)"  stroke-width="2.0"/>
<line x1="101.6" y1="80.0" x2="85.8" y2="101.7" stroke="rgb(0,0,0)"  stroke-width="2.0"/>
<line x1="92.2" y1="80.6" x2="81.2" y2="95.8" stroke="rgb(0,0,0)"  stroke-width="2.0"/>
<line x1="65.7" y1="108.3" x2="52.4" y2="104.0" stroke="rgb(0,0,0)"  stroke-width="2.0"/>
<line x1="40.0" y1="87.0" x2="40.0" y2="60.0" stroke="rgb(0,0,0)"  stroke-width="2.0"/>
<line x1="40.0" y1="60.0" x2="78.0" y2="47.6" stroke="rgb(0,0,0)"  stroke-width="2.0"/>
<line x1="47.9" y1="65.0" x2="74.6" y2="56.3" stroke="rgb(0,0,0)"  stroke-width="2.0"/>
<line x1="203.1" y1="60.0" x2="203.1" y2="100.0" stroke="rgb(0,0,0)"  stroke-width="2.0"/>
<line x1="203.1" y1="100.0" x2="177.4" y2="108.3" stroke="rgb(0,0,0)"  stroke-width="2.0"/>
<line x1="157.4" y1="101.8" x2="141.6" y2="80.0" stroke="rgb(0,0,0)"  stroke-width="2.0"/>
<line x1="141.6" y1="80.0" x2="157.3" y2="58.3" stroke="rgb(0,0,0)"  stroke-width="2.0"/>
<line x1="150.9" y1="79.4" x2="162.0" y2="64.2" stroke="rgb(0,0,0)"  stroke-width="2.0"/>
<line x1="177.4" y1="51.7" x2="203.1" y2="60.0" stroke="rgb(0,0,0)"  stroke-width="2.0"/>
<line x1="272.4" y1="100.0" x2="237.7" y2="120.0" stroke="rgb(0,0,0)"  stroke-width="2.0"/>
<line x1="237.7" y1="120.0" x2="203.1" y2="100.0" stroke="rgb(0,0,0)"  stroke-width="2.0"/>
<line x1="236.2" y1="110.8" x2="211.9" y2="96.8" stroke="rgb(0,0,0)"  stroke-width="2.0"/>
<line x1="203.1" y1="60.0" x2="237.7" y2="40.0" stroke="rgb(0,0,0)"  stroke-width="2.0"/>
<line x1="211.9" y1="63.2" x2="236.2" y2="49.2" stroke="rgb(0,0,0)"  stroke-width="2.0"/>
<line x1="237.7" y1="40.0" x2="272.4" y2="60.0" stroke="rgb(0,0,0)"  stroke-width="2.0"/>
<line x1="272.4" y1="60.0" x2="272.4" y2="100.0" stroke="rgb(0,0,0)"  stroke-width="2.0"/>
<line x1="265.2" y1="66.0" x2="265.2" y2="94.0" stroke="rgb(0,0,0)"  stroke-width="2.0"/>
<text x="22.000000" y="108.000000" fill="rgb(12,12,255)"  stroke="rgb(12,12,255)" stroke-width="1" font-size="16" >HN</text>
<text x="72.042261" y="120.360680" fill="rgb(12,12,255)"  stroke="rgb(12,12,255)" stroke-width="1" font-size="16" >N</text>
<text x="159.065081" y="55.639320" fill="rgb(12,12,255)"  stroke="rgb(12,12,255)" stroke-width="1" font-size="16" >N</text>
<text x="159.065081" y="120.360680" fill="rgb(12,12,255)"  stroke="rgb(12,12,255)" stroke-width="1" font-size="16" >N</text>
<text x="159.065081" y="136.360680" fill="rgb(12,12,255)"  stroke="rgb(12,12,255)" stroke-width="1" font-size="16" >H</text>
</svg>
</g>
<text font-size="18.000000" fill ="black" font-family="sans-serif"
x="10.000000" y="20.000000" ></text>
</svg>
