<?xml version="1.0"?>
<svg version="1.1" id="topsvg"
xmlns="http://www.w3.org/2000/svg" xmlns:xlink="http://www.w3.org/1999/xlink"
xmlns:cml="http://www.xml-cml.org/schema" x="0" y="0" width="200px" height="200px" viewBox="0 0 100 100">
<title> - Open Babel Depiction</title>
<rect x="0" y="0" width="100" height="100" fill="white"/>
<g transform="translate(0,0)">
<svg width="100" height="100" x="0" y="0" viewBox="0 0 598.918 407.713"
font-family="sans-serif" stroke="rgb(0,0,0)" stroke-width="2"  stroke-linecap="round">
<line x1="547.9" y1="355.8" x2="558.9" y2="331.2" stroke="rgb(0,0,0)"  stroke-width="2.0"/>
<line x1="558.9" y1="331.2" x2="535.4" y2="298.8" stroke="rgb(0,0,0)"  stroke-width="2.0"/>
<line x1="535.4" y1="298.8" x2="495.6" y2="303.0" stroke="rgb(0,0,0)"  stroke-width="2.0"/>
<line x1="495.6" y1="303.0" x2="472.1" y2="270.6" stroke="rgb(0,0,0)"  stroke-width="2.0"/>
<line x1="472.1" y1="270.6" x2="432.3" y2="274.8" stroke="rgb(0,0,0)"  stroke-width="2.0"/>
<line x1="432.3" y1="274.8" x2="408.8" y2="242.5" stroke="rgb(0,0,0)"  stroke-width="2.0"/>
<line x1="408.8" y1="242.5" x2="369.0" y2="246.6" stroke="rgb(0,0,0)"  stroke-width="2.0"/>
<line x1="369.0" y1="246.6" x2="345.5" y2="214.3" stroke="rgb(0,0,0)"  stroke-width="2.0"/>
<line x1="345.5" y1="214.3" x2="305.7" y2="218.5" stroke="rgb(0,0,0)"  stroke-width="2.0"/>
<line x1="305.7" y1="218.5" x2="282.2" y2="186.1" stroke="rgb(0,0,0)"  stroke-width="2.0"/>
<line x1="282.2" y1="186.1" x2="242.5" y2="190.3" stroke="rgb(0,0,0)"  stroke-width="2.0"/>
<line x1="242.5" y1="190.3" x2="218.9" y2="157.9" stroke="rgb(0,0,0)"  stroke-width="2.0"/>
<line x1="218.9" y1="157.9" x2="179.2" y2="162.1" stroke="rgb(0,0,0)"  stroke-width="2.0"/>
<line x1="179.2" y1="162.1" x2="155.7" y2="129.7" stroke="rgb(0,0,0)"  stroke-width="2.0"/>
<line x1="155.7" y1="129.7" x2="115.9" y2="133.9" stroke="rgb(0,0,0)"  stroke-width="2.0"/>
<line x1="115.9" y1="133.9" x2="100.0" y2="112.1" stroke="rgb(0,0,0)"  stroke-width="2.0"/>
<line x1="103.8" y1="60.7" x2="129.5" y2="52.3" stroke="rgb(0,0,0)"  stroke-width="2.0"/>
<line x1="105.6" y1="66.4" x2="131.3" y2="58.0" stroke="rgb(0,0,0)"  stroke-width="2.0"/>
<line x1="40.0" y1="63.5" x2="72.4" y2="40.0" stroke="rgb(0,0,0)"  stroke-width="2.0"/>
<line x1="72.4" y1="40.0" x2="104.7" y2="63.5" stroke="rgb(0,0,0)"  stroke-width="2.0"/>
<line x1="104.7" y1="63.5" x2="96.4" y2="89.2" stroke="rgb(0,0,0)"  stroke-width="2.0"/>
<line x1="79.4" y1="101.6" x2="52.4" y2="101.6" stroke="rgb(0,0,0)"  stroke-width="2.0"/>
<line x1="52.4" y1="101.6" x2="40.0" y2="63.5" stroke="rgb(0,0,0)"  stroke-width="2.0"/>
<text x="136.763620" y="59.150730" fill="rgb(255,12,12)"  stroke="rgb(255,12,12)" stroke-width="1" font-size="16" >O</text>
<text x="86.360680" y="109.553671" fill="rgb(12,12,255)"  stroke="rgb(12,12,255)" stroke-width="1" font-size="16" >N</text>
<text x="516.648625" y="375.712958" fill="rgb(102,102,102)"  stroke="rgb(102,102,102)" stroke-width="1" font-size="16" >H</text>
<text x="528.648625" y="379.392958" fill="rgb(102,102,102)"  stroke="rgb(102,102,102)" stroke-width="1" font-size="13" >3</text>
<text x="535.148625" y="375.712958" fill="rgb(102,102,102)"  stroke="rgb(102,102,102)" stroke-width="1" font-size="16" >C</text>
</svg>
</g>
<text font-size="18.000000" fill ="black" font-family="sans-serif"
x="10.000000" y="20.000000" ></text>
</svg>
