<?xml version="1.0"?>
<svg version="1.1" id="topsvg"
xmlns="http://www.w3.org/2000/svg" xmlns:xlink="http://www.w3.org/1999/xlink"
xmlns:cml="http://www.xml-cml.org/schema" x="0" y="0" width="200px" height="200px" viewBox="0 0 100 100">
<title> - Open Babel Depiction</title>
<rect x="0" y="0" width="100" height="100" fill="white"/>
<g transform="translate(0,0)">
<svg width="100" height="100" x="0" y="0" viewBox="0 0 384.605 352.471"
font-family="sans-serif" stroke="rgb(0,0,0)" stroke-width="2"  stroke-linecap="round">
<line x1="53.0" y1="273.8" x2="78.7" y2="273.8" stroke="rgb(0,0,0)"  stroke-width="2.0"/>
<line x1="78.7" y1="273.8" x2="65.9" y2="251.5" stroke="rgb(0,0,0)"  stroke-width="2.0"/>
<line x1="78.7" y1="273.8" x2="78.7" y2="299.5" stroke="rgb(0,0,0)"  stroke-width="2.0"/>
<line x1="78.7" y1="273.8" x2="112.2" y2="254.4" stroke="rgb(0,0,0)"  stroke-width="2.0"/>
<line x1="179.3" y1="215.7" x2="235.1" y2="183.5" stroke="rgb(0,0,0)"  stroke-width="2.0"/>
<line x1="243.3" y1="164.0" x2="243.3" y2="151.3" stroke="rgb(0,0,0)"  stroke-width="2.0"/>
<line x1="249.3" y1="164.0" x2="249.3" y2="151.3" stroke="rgb(0,0,0)"  stroke-width="2.0"/>
<line x1="259.3" y1="138.3" x2="272.0" y2="138.3" stroke="rgb(0,0,0)"  stroke-width="2.0"/>
<line x1="233.3" y1="138.3" x2="220.6" y2="138.3" stroke="rgb(0,0,0)"  stroke-width="2.0"/>
<line x1="246.3" y1="125.3" x2="246.3" y2="112.6" stroke="rgb(0,0,0)"  stroke-width="2.0"/>
<line x1="179.3" y1="254.4" x2="179.3" y2="215.7" stroke="rgb(0,0,0)"  stroke-width="2.0"/>
<line x1="172.1" y1="248.4" x2="172.1" y2="221.7" stroke="rgb(0,0,0)"  stroke-width="2.0"/>
<line x1="179.3" y1="215.7" x2="145.8" y2="196.3" stroke="rgb(0,0,0)"  stroke-width="2.0"/>
<line x1="145.8" y1="196.3" x2="112.2" y2="215.7" stroke="rgb(0,0,0)"  stroke-width="2.0"/>
<line x1="144.2" y1="205.6" x2="121.0" y2="218.9" stroke="rgb(0,0,0)"  stroke-width="2.0"/>
<line x1="112.2" y1="215.7" x2="112.2" y2="254.4" stroke="rgb(0,0,0)"  stroke-width="2.0"/>
<line x1="112.2" y1="254.4" x2="145.8" y2="273.8" stroke="rgb(0,0,0)"  stroke-width="2.0"/>
<line x1="121.0" y1="251.2" x2="144.2" y2="264.5" stroke="rgb(0,0,0)"  stroke-width="2.0"/>
<line x1="145.8" y1="273.8" x2="179.3" y2="254.4" stroke="rgb(0,0,0)"  stroke-width="2.0"/>
<line x1="344.6" y1="157.6" x2="344.6" y2="118.9" stroke="rgb(0,0,0)"  stroke-width="2.0"/>
<line x1="344.6" y1="118.9" x2="307.8" y2="107.0" stroke="rgb(0,0,0)"  stroke-width="2.0"/>
<line x1="307.8" y1="107.0" x2="292.7" y2="127.8" stroke="rgb(0,0,0)"  stroke-width="2.0"/>
<line x1="292.7" y1="148.8" x2="307.8" y2="169.6" stroke="rgb(0,0,0)"  stroke-width="2.0"/>
<line x1="307.8" y1="169.6" x2="344.6" y2="157.6" stroke="rgb(0,0,0)"  stroke-width="2.0"/>
<line x1="148.0" y1="118.9" x2="148.0" y2="157.6" stroke="rgb(0,0,0)"  stroke-width="2.0"/>
<line x1="148.0" y1="157.6" x2="184.9" y2="169.6" stroke="rgb(0,0,0)"  stroke-width="2.0"/>
<line x1="184.9" y1="169.6" x2="200.0" y2="148.8" stroke="rgb(0,0,0)"  stroke-width="2.0"/>
<line x1="200.0" y1="127.8" x2="184.9" y2="107.0" stroke="rgb(0,0,0)"  stroke-width="2.0"/>
<line x1="184.9" y1="107.0" x2="148.0" y2="118.9" stroke="rgb(0,0,0)"  stroke-width="2.0"/>
<line x1="265.7" y1="40.0" x2="227.0" y2="40.0" stroke="rgb(0,0,0)"  stroke-width="2.0"/>
<line x1="227.0" y1="40.0" x2="215.0" y2="76.8" stroke="rgb(0,0,0)"  stroke-width="2.0"/>
<line x1="215.0" y1="76.8" x2="235.8" y2="91.9" stroke="rgb(0,0,0)"  stroke-width="2.0"/>
<line x1="256.8" y1="91.9" x2="277.6" y2="76.8" stroke="rgb(0,0,0)"  stroke-width="2.0"/>
<line x1="277.6" y1="76.8" x2="265.7" y2="40.0" stroke="rgb(0,0,0)"  stroke-width="2.0"/>
<text x="240.327498" y="107.568068" fill="rgb(12,12,255)"  stroke="rgb(12,12,255)" stroke-width="1" font-size="16" >N</text>
<text x="201.617820" y="146.277746" fill="rgb(12,12,255)"  stroke="rgb(12,12,255)" stroke-width="1" font-size="16" >N</text>
<text x="34.000000" y="281.761617" fill="rgb(127,178,255)"  stroke="rgb(127,178,255)" stroke-width="1" font-size="16" >F</text>
<text x="279.037175" y="146.277746" fill="rgb(12,12,255)"  stroke="rgb(12,12,255)" stroke-width="1" font-size="16" >N</text>
<text x="240.327498" y="146.277746" fill="rgb(255,127,0)"  stroke="rgb(255,127,0)" stroke-width="1" font-size="16" >P</text>
<text x="240.327498" y="184.987423" fill="rgb(12,12,255)"  stroke="rgb(12,12,255)" stroke-width="1" font-size="16" >N</text>
<text x="72.709677" y="320.471294" fill="rgb(127,178,255)"  stroke="rgb(127,178,255)" stroke-width="1" font-size="16" >F</text>
<text x="53.354839" y="248.238053" fill="rgb(127,178,255)"  stroke="rgb(127,178,255)" stroke-width="1" font-size="16" >F</text>
</svg>
</g>
<text font-size="18.000000" fill ="black" font-family="sans-serif"
x="10.000000" y="20.000000" ></text>
</svg>
