<?xml version="1.0"?>
<svg version="1.1" id="topsvg"
xmlns="http://www.w3.org/2000/svg" xmlns:xlink="http://www.w3.org/1999/xlink"
xmlns:cml="http://www.xml-cml.org/schema" x="0" y="0" width="200px" height="200px" viewBox="0 0 100 100">
<title> - Open Babel Depiction</title>
<rect x="0" y="0" width="100" height="100" fill="white"/>
<g transform="translate(0,0)">
<svg width="100" height="100" x="0" y="0" viewBox="0 0 340 313.205"
font-family="sans-serif" stroke="rgb(0,0,0)" stroke-width="2"  stroke-linecap="round">
<line x1="53.0" y1="163.9" x2="80.0" y2="163.9" stroke="rgb(0,0,0)"  stroke-width="2.0"/>
<line x1="160.0" y1="163.9" x2="200.0" y2="163.9" stroke="rgb(0,0,0)"  stroke-width="2.0"/>
<line x1="202.6" y1="162.4" x2="210.9" y2="188.8" stroke="rgb(0,0,0)"  stroke-width="2.0"/>
<line x1="197.4" y1="165.4" x2="216.1" y2="185.8" stroke="rgb(0,0,0)"  stroke-width="2.0"/>
<line x1="233.0" y1="198.6" x2="247.0" y2="198.6" stroke="rgb(0,0,0)"  stroke-width="2.0"/>
<line x1="260.0" y1="211.6" x2="260.0" y2="238.6" stroke="rgb(0,0,0)"  stroke-width="2.0"/>
<line x1="260.0" y1="238.6" x2="273.5" y2="261.9" stroke="rgb(0,0,0)"  stroke-width="2.0"/>
<line x1="260.0" y1="238.6" x2="287.0" y2="238.6" stroke="rgb(0,0,0)"  stroke-width="2.0"/>
<line x1="260.0" y1="238.6" x2="236.6" y2="252.1" stroke="rgb(0,0,0)"  stroke-width="2.0"/>
<line x1="273.0" y1="195.6" x2="287.0" y2="195.6" stroke="rgb(0,0,0)"  stroke-width="2.0"/>
<line x1="273.0" y1="201.6" x2="287.0" y2="201.6" stroke="rgb(0,0,0)"  stroke-width="2.0"/>
<line x1="257.0" y1="185.6" x2="257.0" y2="171.6" stroke="rgb(0,0,0)"  stroke-width="2.0"/>
<line x1="263.0" y1="185.6" x2="263.0" y2="171.6" stroke="rgb(0,0,0)"  stroke-width="2.0"/>
<line x1="200.0" y1="163.9" x2="213.5" y2="140.5" stroke="rgb(0,0,0)"  stroke-width="2.0"/>
<line x1="213.5" y1="118.0" x2="206.5" y2="105.9" stroke="rgb(0,0,0)"  stroke-width="2.0"/>
<line x1="211.3" y1="88.1" x2="234.6" y2="74.6" stroke="rgb(0,0,0)"  stroke-width="2.0"/>
<line x1="234.6" y1="74.6" x2="248.1" y2="51.3" stroke="rgb(0,0,0)"  stroke-width="2.0"/>
<line x1="234.6" y1="74.6" x2="221.1" y2="51.3" stroke="rgb(0,0,0)"  stroke-width="2.0"/>
<line x1="234.6" y1="74.6" x2="258.0" y2="88.1" stroke="rgb(0,0,0)"  stroke-width="2.0"/>
<line x1="190.9" y1="84.9" x2="183.9" y2="72.8" stroke="rgb(0,0,0)"  stroke-width="2.0"/>
<line x1="196.1" y1="81.9" x2="189.1" y2="69.8" stroke="rgb(0,0,0)"  stroke-width="2.0"/>
<line x1="190.2" y1="103.7" x2="178.1" y2="110.7" stroke="rgb(0,0,0)"  stroke-width="2.0"/>
<line x1="187.2" y1="98.5" x2="175.1" y2="105.5" stroke="rgb(0,0,0)"  stroke-width="2.0"/>
<line x1="140.0" y1="129.3" x2="160.0" y2="163.9" stroke="rgb(0,0,0)"  stroke-width="2.0"/>
<line x1="136.8" y1="138.1" x2="150.8" y2="162.3" stroke="rgb(0,0,0)"  stroke-width="2.0"/>
<line x1="160.0" y1="163.9" x2="140.0" y2="198.6" stroke="rgb(0,0,0)"  stroke-width="2.0"/>
<line x1="140.0" y1="198.6" x2="100.0" y2="198.6" stroke="rgb(0,0,0)"  stroke-width="2.0"/>
<line x1="134.0" y1="191.4" x2="106.0" y2="191.4" stroke="rgb(0,0,0)"  stroke-width="2.0"/>
<line x1="100.0" y1="198.6" x2="80.0" y2="163.9" stroke="rgb(0,0,0)"  stroke-width="2.0"/>
<line x1="80.0" y1="163.9" x2="100.0" y2="129.3" stroke="rgb(0,0,0)"  stroke-width="2.0"/>
<line x1="89.2" y1="162.3" x2="103.2" y2="138.1" stroke="rgb(0,0,0)"  stroke-width="2.0"/>
<line x1="100.0" y1="129.3" x2="140.0" y2="129.3" stroke="rgb(0,0,0)"  stroke-width="2.0"/>
<text x="294.000000" y="246.564065" fill="rgb(127,178,255)"  stroke="rgb(127,178,255)" stroke-width="1" font-size="16" >F</text>
<text x="159.358984" y="122.641016" fill="rgb(255,12,12)"  stroke="rgb(255,12,12)" stroke-width="1" font-size="16" >O</text>
<text x="174.000000" y="68.000000" fill="rgb(255,12,12)"  stroke="rgb(255,12,12)" stroke-width="1" font-size="16" >O</text>
<text x="263.282032" y="102.641016" fill="rgb(127,178,255)"  stroke="rgb(127,178,255)" stroke-width="1" font-size="16" >F</text>
<text x="208.641016" y="48.000000" fill="rgb(127,178,255)"  stroke="rgb(127,178,255)" stroke-width="1" font-size="16" >F</text>
<text x="248.641016" y="48.000000" fill="rgb(127,178,255)"  stroke="rgb(127,178,255)" stroke-width="1" font-size="16" >F</text>
<text x="194.000000" y="102.641016" fill="rgb(178,178,0)"  stroke="rgb(178,178,0)" stroke-width="1" font-size="16" >S</text>
<text x="214.000000" y="137.282032" fill="rgb(12,12,255)"  stroke="rgb(12,12,255)" stroke-width="1" font-size="16" >NH</text>
<text x="254.000000" y="166.564065" fill="rgb(255,12,12)"  stroke="rgb(255,12,12)" stroke-width="1" font-size="16" >O</text>
<text x="294.000000" y="206.564065" fill="rgb(255,12,12)"  stroke="rgb(255,12,12)" stroke-width="1" font-size="16" >O</text>
<text x="219.358984" y="266.564065" fill="rgb(127,178,255)"  stroke="rgb(127,178,255)" stroke-width="1" font-size="16" >F</text>
<text x="22.000000" y="171.923048" fill="rgb(30,239,30)"  stroke="rgb(30,239,30)" stroke-width="1" font-size="16" >Cl</text>
<text x="274.000000" y="281.205081" fill="rgb(127,178,255)"  stroke="rgb(127,178,255)" stroke-width="1" font-size="16" >F</text>
<text x="254.000000" y="206.564065" fill="rgb(178,178,0)"  stroke="rgb(178,178,0)" stroke-width="1" font-size="16" >S</text>
<text x="214.000000" y="206.564065" fill="rgb(12,12,255)"  stroke="rgb(12,12,255)" stroke-width="1" font-size="16" >N</text>
</svg>
</g>
<text font-size="18.000000" fill ="black" font-family="sans-serif"
x="10.000000" y="20.000000" ></text>
</svg>
