<?xml version="1.0"?>
<svg version="1.1" id="topsvg"
xmlns="http://www.w3.org/2000/svg" xmlns:xlink="http://www.w3.org/1999/xlink"
xmlns:cml="http://www.xml-cml.org/schema" x="0" y="0" width="200px" height="200px" viewBox="0 0 100 100">
<title> - Open Babel Depiction</title>
<rect x="0" y="0" width="100" height="100" fill="white"/>
<g transform="translate(0,0)">
<svg width="100" height="100" x="0" y="0" viewBox="0 0 430.836 190.403"
font-family="sans-serif" stroke="rgb(0,0,0)" stroke-width="2"  stroke-linecap="round">
<line x1="344.3" y1="133.8" x2="330.8" y2="110.4" stroke="rgb(0,0,0)"  stroke-width="2.0"/>
<line x1="330.8" y1="110.4" x2="350.8" y2="75.8" stroke="rgb(0,0,0)"  stroke-width="2.0"/>
<line x1="350.8" y1="75.8" x2="377.8" y2="75.8" stroke="rgb(0,0,0)"  stroke-width="2.0"/>
<line x1="348.2" y1="77.3" x2="334.7" y2="53.9" stroke="rgb(0,0,0)"  stroke-width="2.0"/>
<line x1="353.4" y1="74.3" x2="339.9" y2="50.9" stroke="rgb(0,0,0)"  stroke-width="2.0"/>
<line x1="330.8" y1="110.4" x2="290.8" y2="110.4" stroke="rgb(0,0,0)"  stroke-width="2.0"/>
<line x1="210.8" y1="110.4" x2="183.8" y2="110.4" stroke="rgb(0,0,0)"  stroke-width="2.0"/>
<line x1="144.5" y1="77.1" x2="152.8" y2="51.4" stroke="rgb(0,0,0)"  stroke-width="2.0"/>
<line x1="150.2" y1="79.0" x2="158.5" y2="53.3" stroke="rgb(0,0,0)"  stroke-width="2.0"/>
<line x1="230.8" y1="145.0" x2="210.8" y2="110.4" stroke="rgb(0,0,0)"  stroke-width="2.0"/>
<line x1="234.1" y1="136.2" x2="220.1" y2="112.0" stroke="rgb(0,0,0)"  stroke-width="2.0"/>
<line x1="210.8" y1="110.4" x2="230.8" y2="75.8" stroke="rgb(0,0,0)"  stroke-width="2.0"/>
<line x1="230.8" y1="75.8" x2="270.8" y2="75.8" stroke="rgb(0,0,0)"  stroke-width="2.0"/>
<line x1="236.8" y1="83.0" x2="264.8" y2="83.0" stroke="rgb(0,0,0)"  stroke-width="2.0"/>
<line x1="270.8" y1="75.8" x2="290.8" y2="110.4" stroke="rgb(0,0,0)"  stroke-width="2.0"/>
<line x1="290.8" y1="110.4" x2="270.8" y2="145.0" stroke="rgb(0,0,0)"  stroke-width="2.0"/>
<line x1="281.6" y1="112.0" x2="267.6" y2="136.2" stroke="rgb(0,0,0)"  stroke-width="2.0"/>
<line x1="270.8" y1="145.0" x2="230.8" y2="145.0" stroke="rgb(0,0,0)"  stroke-width="2.0"/>
<line x1="40.0" y1="90.4" x2="74.6" y2="70.4" stroke="rgb(0,0,0)"  stroke-width="2.0"/>
<line x1="74.6" y1="70.4" x2="109.3" y2="90.4" stroke="rgb(0,0,0)"  stroke-width="2.0"/>
<line x1="76.2" y1="79.6" x2="100.5" y2="93.6" stroke="rgb(0,0,0)"  stroke-width="2.0"/>
<line x1="109.3" y1="90.4" x2="109.3" y2="130.4" stroke="rgb(0,0,0)"  stroke-width="2.0"/>
<line x1="109.3" y1="130.4" x2="74.6" y2="150.4" stroke="rgb(0,0,0)"  stroke-width="2.0"/>
<line x1="100.5" y1="127.2" x2="76.2" y2="141.2" stroke="rgb(0,0,0)"  stroke-width="2.0"/>
<line x1="74.6" y1="150.4" x2="40.0" y2="130.4" stroke="rgb(0,0,0)"  stroke-width="2.0"/>
<line x1="40.0" y1="130.4" x2="40.0" y2="90.4" stroke="rgb(0,0,0)"  stroke-width="2.0"/>
<line x1="47.2" y1="124.4" x2="47.2" y2="96.4" stroke="rgb(0,0,0)"  stroke-width="2.0"/>
<line x1="109.3" y1="90.4" x2="147.3" y2="78.0" stroke="rgb(0,0,0)"  stroke-width="2.0"/>
<line x1="147.3" y1="78.0" x2="163.2" y2="99.9" stroke="rgb(0,0,0)"  stroke-width="2.0"/>
<line x1="163.2" y1="120.9" x2="147.3" y2="142.8" stroke="rgb(0,0,0)"  stroke-width="2.0"/>
<line x1="147.3" y1="142.8" x2="109.3" y2="130.4" stroke="rgb(0,0,0)"  stroke-width="2.0"/>
<text x="153.684973" y="48.000000" fill="rgb(255,12,12)"  stroke="rgb(255,12,12)" stroke-width="1" font-size="16" >O</text>
<text x="164.835703" y="118.402940" fill="rgb(12,12,255)"  stroke="rgb(12,12,255)" stroke-width="1" font-size="16" >N</text>
<text x="346.835703" y="153.043957" fill="rgb(102,102,102)"  stroke="rgb(102,102,102)" stroke-width="1" font-size="16" >CH</text>
<text x="370.835703" y="156.723957" fill="rgb(102,102,102)"  stroke="rgb(102,102,102)" stroke-width="1" font-size="13" >3</text>
<text x="324.835703" y="49.120908" fill="rgb(255,12,12)"  stroke="rgb(255,12,12)" stroke-width="1" font-size="16" >O</text>
<text x="384.835703" y="83.761924" fill="rgb(255,12,12)"  stroke="rgb(255,12,12)" stroke-width="1" font-size="16" >OH</text>
</svg>
</g>
<text font-size="18.000000" fill ="black" font-family="sans-serif"
x="10.000000" y="20.000000" ></text>
</svg>
