<?xml version="1.0"?>
<svg version="1.1" id="topsvg"
xmlns="http://www.w3.org/2000/svg" xmlns:xlink="http://www.w3.org/1999/xlink"
xmlns:cml="http://www.xml-cml.org/schema" x="0" y="0" width="200px" height="200px" viewBox="0 0 100 100">
<title> - Open Babel Depiction</title>
<rect x="0" y="0" width="100" height="100" fill="white"/>
<g transform="translate(0,0)">
<svg width="100" height="100" x="0" y="0" viewBox="0 0 380 313.205"
font-family="sans-serif" stroke="rgb(0,0,0)" stroke-width="2"  stroke-linecap="round">
<line x1="256.6" y1="266.7" x2="268.7" y2="259.7" stroke="rgb(0,0,0)"  stroke-width="2.0"/>
<line x1="280.0" y1="240.2" x2="280.0" y2="226.2" stroke="rgb(0,0,0)"  stroke-width="2.0"/>
<line x1="293.0" y1="213.2" x2="307.0" y2="213.2" stroke="rgb(0,0,0)"  stroke-width="2.0"/>
<line x1="326.5" y1="201.9" x2="333.5" y2="189.8" stroke="rgb(0,0,0)"  stroke-width="2.0"/>
<line x1="277.0" y1="200.2" x2="277.0" y2="186.2" stroke="rgb(0,0,0)"  stroke-width="2.0"/>
<line x1="283.0" y1="200.2" x2="283.0" y2="186.2" stroke="rgb(0,0,0)"  stroke-width="2.0"/>
<line x1="267.0" y1="213.2" x2="253.0" y2="213.2" stroke="rgb(0,0,0)"  stroke-width="2.0"/>
<line x1="233.5" y1="201.9" x2="220.0" y2="178.6" stroke="rgb(0,0,0)"  stroke-width="2.0"/>
<line x1="220.0" y1="178.6" x2="233.5" y2="155.2" stroke="rgb(0,0,0)"  stroke-width="2.0"/>
<line x1="220.0" y1="181.6" x2="180.0" y2="175.6" stroke="rgb(0,0,0)"  stroke-width="2.0"/>
<line x1="220.0" y1="175.6" x2="180.0" y2="181.6" stroke="rgb(0,0,0)"  stroke-width="2.0"/>
<line x1="180.0" y1="178.6" x2="160.0" y2="143.9" stroke="rgb(0,0,0)"  stroke-width="2.0"/>
<line x1="160.0" y1="143.9" x2="173.5" y2="120.5" stroke="rgb(0,0,0)"  stroke-width="2.0"/>
<line x1="173.5" y1="98.0" x2="160.0" y2="74.6" stroke="rgb(0,0,0)"  stroke-width="2.0"/>
<line x1="160.0" y1="74.6" x2="173.5" y2="51.3" stroke="rgb(0,0,0)"  stroke-width="2.0"/>
<line x1="160.0" y1="74.6" x2="120.0" y2="74.6" stroke="rgb(0,0,0)"  stroke-width="2.0"/>
<line x1="160.0" y1="146.9" x2="133.0" y2="146.9" stroke="rgb(0,0,0)"  stroke-width="2.0"/>
<line x1="160.0" y1="140.9" x2="133.0" y2="140.9" stroke="rgb(0,0,0)"  stroke-width="2.0"/>
<line x1="60.0" y1="109.3" x2="40.0" y2="74.6" stroke="rgb(0,0,0)"  stroke-width="2.0"/>
<line x1="63.2" y1="100.5" x2="49.2" y2="76.2" stroke="rgb(0,0,0)"  stroke-width="2.0"/>
<line x1="40.0" y1="74.6" x2="60.0" y2="40.0" stroke="rgb(0,0,0)"  stroke-width="2.0"/>
<line x1="60.0" y1="40.0" x2="100.0" y2="40.0" stroke="rgb(0,0,0)"  stroke-width="2.0"/>
<line x1="66.0" y1="47.2" x2="94.0" y2="47.2" stroke="rgb(0,0,0)"  stroke-width="2.0"/>
<line x1="100.0" y1="40.0" x2="120.0" y2="74.6" stroke="rgb(0,0,0)"  stroke-width="2.0"/>
<line x1="120.0" y1="74.6" x2="100.0" y2="109.3" stroke="rgb(0,0,0)"  stroke-width="2.0"/>
<line x1="110.8" y1="76.2" x2="96.8" y2="100.5" stroke="rgb(0,0,0)"  stroke-width="2.0"/>
<line x1="100.0" y1="109.3" x2="60.0" y2="109.3" stroke="rgb(0,0,0)"  stroke-width="2.0"/>
<text x="114.000000" y="151.923048" fill="rgb(255,12,12)"  stroke="rgb(255,12,12)" stroke-width="1" font-size="16" >O</text>
<text x="176.000000" y="48.000000" fill="rgb(102,102,102)"  stroke="rgb(102,102,102)" stroke-width="1" font-size="16" >CH</text>
<text x="200.000000" y="51.680000" fill="rgb(102,102,102)"  stroke="rgb(102,102,102)" stroke-width="1" font-size="13" >3</text>
<text x="174.000000" y="117.282032" fill="rgb(255,12,12)"  stroke="rgb(255,12,12)" stroke-width="1" font-size="16" >O</text>
<text x="219.358984" y="281.205081" fill="rgb(102,102,102)"  stroke="rgb(102,102,102)" stroke-width="1" font-size="16" >H</text>
<text x="231.358984" y="284.885081" fill="rgb(102,102,102)"  stroke="rgb(102,102,102)" stroke-width="1" font-size="13" >3</text>
<text x="237.858984" y="281.205081" fill="rgb(102,102,102)"  stroke="rgb(102,102,102)" stroke-width="1" font-size="16" >C</text>
<text x="236.000000" y="151.923048" fill="rgb(102,102,102)"  stroke="rgb(102,102,102)" stroke-width="1" font-size="16" >CH</text>
<text x="260.000000" y="155.603048" fill="rgb(102,102,102)"  stroke="rgb(102,102,102)" stroke-width="1" font-size="13" >3</text>
<text x="234.000000" y="221.205081" fill="rgb(255,12,12)"  stroke="rgb(255,12,12)" stroke-width="1" font-size="16" >O</text>
<text x="274.000000" y="181.205081" fill="rgb(255,12,12)"  stroke="rgb(255,12,12)" stroke-width="1" font-size="16" >O</text>
<text x="336.000000" y="186.564065" fill="rgb(102,102,102)"  stroke="rgb(102,102,102)" stroke-width="1" font-size="16" >CH</text>
<text x="360.000000" y="190.244065" fill="rgb(102,102,102)"  stroke="rgb(102,102,102)" stroke-width="1" font-size="13" >3</text>
<text x="314.000000" y="221.205081" fill="rgb(255,12,12)"  stroke="rgb(255,12,12)" stroke-width="1" font-size="16" >O</text>
<text x="274.000000" y="221.205081" fill="rgb(255,127,0)"  stroke="rgb(255,127,0)" stroke-width="1" font-size="16" >P</text>
<text x="274.000000" y="261.205081" fill="rgb(255,12,12)"  stroke="rgb(255,12,12)" stroke-width="1" font-size="16" >O</text>
</svg>
</g>
<text font-size="18.000000" fill ="black" font-family="sans-serif"
x="10.000000" y="20.000000" ></text>
</svg>
