<?xml version="1.0"?>
<svg version="1.1" id="topsvg"
xmlns="http://www.w3.org/2000/svg" xmlns:xlink="http://www.w3.org/1999/xlink"
xmlns:cml="http://www.xml-cml.org/schema" x="0" y="0" width="200px" height="200px" viewBox="0 0 100 100">
<title> - Open Babel Depiction</title>
<rect x="0" y="0" width="100" height="100" fill="white"/>
<g transform="translate(0,0)">
<svg width="100" height="100" x="0" y="0" viewBox="0 0 450.953 240"
font-family="sans-serif" stroke="rgb(0,0,0)" stroke-width="2"  stroke-linecap="round">
<line x1="399.7" y1="153.5" x2="376.3" y2="140.0" stroke="rgb(0,0,0)"  stroke-width="2.0"/>
<line x1="271.8" y1="153.3" x2="263.5" y2="179.0" stroke="rgb(0,0,0)"  stroke-width="2.0"/>
<line x1="266.1" y1="151.4" x2="257.8" y2="177.1" stroke="rgb(0,0,0)"  stroke-width="2.0"/>
<line x1="341.7" y1="80.0" x2="341.7" y2="53.0" stroke="rgb(0,0,0)"  stroke-width="2.0"/>
<line x1="245.5" y1="123.0" x2="205.5" y2="117.0" stroke="rgb(0,0,0)"  stroke-width="2.0"/>
<line x1="245.5" y1="117.0" x2="205.5" y2="123.0" stroke="rgb(0,0,0)"  stroke-width="2.0"/>
<line x1="109.3" y1="160.0" x2="109.3" y2="187.0" stroke="rgb(0,0,0)"  stroke-width="2.0"/>
<line x1="74.6" y1="100.0" x2="51.3" y2="86.5" stroke="rgb(0,0,0)"  stroke-width="2.0"/>
<line x1="179.1" y1="86.7" x2="187.5" y2="61.0" stroke="rgb(0,0,0)"  stroke-width="2.0"/>
<line x1="184.8" y1="88.6" x2="193.2" y2="62.9" stroke="rgb(0,0,0)"  stroke-width="2.0"/>
<line x1="307.0" y1="140.0" x2="307.0" y2="100.0" stroke="rgb(0,0,0)"  stroke-width="2.0"/>
<line x1="314.2" y1="134.0" x2="314.2" y2="106.0" stroke="rgb(0,0,0)"  stroke-width="2.0"/>
<line x1="307.0" y1="100.0" x2="341.7" y2="80.0" stroke="rgb(0,0,0)"  stroke-width="2.0"/>
<line x1="341.7" y1="80.0" x2="376.3" y2="100.0" stroke="rgb(0,0,0)"  stroke-width="2.0"/>
<line x1="343.3" y1="89.2" x2="367.5" y2="103.2" stroke="rgb(0,0,0)"  stroke-width="2.0"/>
<line x1="376.3" y1="100.0" x2="376.3" y2="140.0" stroke="rgb(0,0,0)"  stroke-width="2.0"/>
<line x1="376.3" y1="140.0" x2="341.7" y2="160.0" stroke="rgb(0,0,0)"  stroke-width="2.0"/>
<line x1="367.5" y1="136.8" x2="343.3" y2="150.8" stroke="rgb(0,0,0)"  stroke-width="2.0"/>
<line x1="341.7" y1="160.0" x2="307.0" y2="140.0" stroke="rgb(0,0,0)"  stroke-width="2.0"/>
<line x1="74.6" y1="140.0" x2="74.6" y2="100.0" stroke="rgb(0,0,0)"  stroke-width="2.0"/>
<line x1="81.8" y1="134.0" x2="81.8" y2="106.0" stroke="rgb(0,0,0)"  stroke-width="2.0"/>
<line x1="74.6" y1="100.0" x2="109.3" y2="80.0" stroke="rgb(0,0,0)"  stroke-width="2.0"/>
<line x1="109.3" y1="80.0" x2="143.9" y2="100.0" stroke="rgb(0,0,0)"  stroke-width="2.0"/>
<line x1="110.9" y1="89.2" x2="135.1" y2="103.2" stroke="rgb(0,0,0)"  stroke-width="2.0"/>
<line x1="143.9" y1="100.0" x2="143.9" y2="140.0" stroke="rgb(0,0,0)"  stroke-width="2.0"/>
<line x1="143.9" y1="140.0" x2="109.3" y2="160.0" stroke="rgb(0,0,0)"  stroke-width="2.0"/>
<line x1="135.1" y1="136.8" x2="110.9" y2="150.8" stroke="rgb(0,0,0)"  stroke-width="2.0"/>
<line x1="109.3" y1="160.0" x2="74.6" y2="140.0" stroke="rgb(0,0,0)"  stroke-width="2.0"/>
<line x1="245.5" y1="120.0" x2="261.3" y2="98.2" stroke="rgb(0,0,0)"  stroke-width="2.0"/>
<line x1="281.4" y1="91.7" x2="307.0" y2="100.0" stroke="rgb(0,0,0)"  stroke-width="2.0"/>
<line x1="307.0" y1="140.0" x2="269.0" y2="152.4" stroke="rgb(0,0,0)"  stroke-width="2.0"/>
<line x1="269.0" y1="152.4" x2="245.5" y2="120.0" stroke="rgb(0,0,0)"  stroke-width="2.0"/>
<line x1="205.5" y1="120.0" x2="189.6" y2="141.8" stroke="rgb(0,0,0)"  stroke-width="2.0"/>
<line x1="169.6" y1="148.3" x2="143.9" y2="140.0" stroke="rgb(0,0,0)"  stroke-width="2.0"/>
<line x1="143.9" y1="100.0" x2="182.0" y2="87.6" stroke="rgb(0,0,0)"  stroke-width="2.0"/>
<line x1="182.0" y1="87.6" x2="205.5" y2="120.0" stroke="rgb(0,0,0)"  stroke-width="2.0"/>
<text x="188.325989" y="57.597060" fill="rgb(255,12,12)"  stroke="rgb(255,12,12)" stroke-width="1" font-size="16" >O</text>
<text x="22.000000" y="88.000000" fill="rgb(165,40,40)"  stroke="rgb(165,40,40)" stroke-width="1" font-size="16" >Br</text>
<text x="103.282032" y="208.000000" fill="rgb(165,40,40)"  stroke="rgb(165,40,40)" stroke-width="1" font-size="16" >Br</text>
<text x="175.965309" y="160.360680" fill="rgb(12,12,255)"  stroke="rgb(12,12,255)" stroke-width="1" font-size="16" >N</text>
<text x="175.965309" y="176.360680" fill="rgb(12,12,255)"  stroke="rgb(12,12,255)" stroke-width="1" font-size="16" >H</text>
<text x="404.953438" y="168.000000" fill="rgb(165,40,40)"  stroke="rgb(165,40,40)" stroke-width="1" font-size="16" >Br</text>
<text x="335.671406" y="48.000000" fill="rgb(165,40,40)"  stroke="rgb(165,40,40)" stroke-width="1" font-size="16" >Br</text>
<text x="262.988129" y="95.639320" fill="rgb(12,12,255)"  stroke="rgb(12,12,255)" stroke-width="1" font-size="16" >N</text>
<text x="262.988129" y="79.639320" fill="rgb(12,12,255)"  stroke="rgb(12,12,255)" stroke-width="1" font-size="16" >H</text>
<text x="250.627450" y="198.402940" fill="rgb(255,12,12)"  stroke="rgb(255,12,12)" stroke-width="1" font-size="16" >O</text>
</svg>
</g>
<text font-size="18.000000" fill ="black" font-family="sans-serif"
x="10.000000" y="20.000000" ></text>
</svg>
