<?xml version="1.0"?>
<svg version="1.1" id="topsvg"
xmlns="http://www.w3.org/2000/svg" xmlns:xlink="http://www.w3.org/1999/xlink"
xmlns:cml="http://www.xml-cml.org/schema" x="0" y="0" width="200px" height="200px" viewBox="0 0 100 100">
<title> - Open Babel Depiction</title>
<rect x="0" y="0" width="100" height="100" fill="white"/>
<g transform="translate(0,0)">
<svg width="100" height="100" x="0" y="0" viewBox="0 0 284.518 262.92"
font-family="sans-serif" stroke="rgb(0,0,0)" stroke-width="2"  stroke-linecap="round">
<line x1="222.5" y1="213.9" x2="207.3" y2="191.6" stroke="rgb(0,0,0)"  stroke-width="2.0"/>
<line x1="227.5" y1="210.5" x2="212.3" y2="188.2" stroke="rgb(0,0,0)"  stroke-width="2.0"/>
<line x1="143.9" y1="128.7" x2="109.3" y2="108.7" stroke="rgb(0,0,0)"  stroke-width="2.0"/>
<line x1="40.0" y1="108.7" x2="40.0" y2="68.7" stroke="rgb(0,0,0)"  stroke-width="2.0"/>
<line x1="47.2" y1="102.7" x2="47.2" y2="74.7" stroke="rgb(0,0,0)"  stroke-width="2.0"/>
<line x1="40.0" y1="68.7" x2="74.6" y2="48.7" stroke="rgb(0,0,0)"  stroke-width="2.0"/>
<line x1="74.6" y1="48.7" x2="109.3" y2="68.7" stroke="rgb(0,0,0)"  stroke-width="2.0"/>
<line x1="76.2" y1="58.0" x2="100.5" y2="72.0" stroke="rgb(0,0,0)"  stroke-width="2.0"/>
<line x1="109.3" y1="68.7" x2="109.3" y2="108.7" stroke="rgb(0,0,0)"  stroke-width="2.0"/>
<line x1="109.3" y1="108.7" x2="74.6" y2="128.7" stroke="rgb(0,0,0)"  stroke-width="2.0"/>
<line x1="100.5" y1="105.5" x2="76.2" y2="119.5" stroke="rgb(0,0,0)"  stroke-width="2.0"/>
<line x1="74.6" y1="128.7" x2="40.0" y2="108.7" stroke="rgb(0,0,0)"  stroke-width="2.0"/>
<line x1="197.4" y1="40.0" x2="168.1" y2="67.2" stroke="rgb(0,0,0)"  stroke-width="2.0"/>
<line x1="168.1" y1="67.2" x2="177.0" y2="106.2" stroke="rgb(0,0,0)"  stroke-width="2.0"/>
<line x1="176.4" y1="71.5" x2="182.7" y2="98.8" stroke="rgb(0,0,0)"  stroke-width="2.0"/>
<line x1="177.0" y1="106.2" x2="215.2" y2="118.0" stroke="rgb(0,0,0)"  stroke-width="2.0"/>
<line x1="215.2" y1="118.0" x2="244.5" y2="90.8" stroke="rgb(0,0,0)"  stroke-width="2.0"/>
<line x1="214.7" y1="108.6" x2="235.2" y2="89.6" stroke="rgb(0,0,0)"  stroke-width="2.0"/>
<line x1="244.5" y1="90.8" x2="235.6" y2="51.8" stroke="rgb(0,0,0)"  stroke-width="2.0"/>
<line x1="235.6" y1="51.8" x2="197.4" y2="40.0" stroke="rgb(0,0,0)"  stroke-width="2.0"/>
<line x1="227.8" y1="56.9" x2="201.0" y2="48.6" stroke="rgb(0,0,0)"  stroke-width="2.0"/>
<line x1="170.3" y1="195.8" x2="209.8" y2="189.9" stroke="rgb(0,0,0)"  stroke-width="2.0"/>
<line x1="209.8" y1="189.9" x2="223.3" y2="166.5" stroke="rgb(0,0,0)"  stroke-width="2.0"/>
<line x1="225.1" y1="143.1" x2="215.2" y2="118.0" stroke="rgb(0,0,0)"  stroke-width="2.0"/>
<line x1="177.0" y1="106.2" x2="143.9" y2="128.7" stroke="rgb(0,0,0)"  stroke-width="2.0"/>
<line x1="143.9" y1="128.7" x2="141.9" y2="155.5" stroke="rgb(0,0,0)"  stroke-width="2.0"/>
<line x1="150.7" y1="135.3" x2="149.2" y2="154.0" stroke="rgb(0,0,0)"  stroke-width="2.0"/>
<line x1="150.5" y1="177.5" x2="170.3" y2="195.8" stroke="rgb(0,0,0)"  stroke-width="2.0"/>
<text x="223.809153" y="163.229183" fill="rgb(12,12,255)"  stroke="rgb(12,12,255)" stroke-width="1" font-size="16" >NH</text>
<text x="226.341955" y="230.919750" fill="rgb(255,12,12)"  stroke="rgb(255,12,12)" stroke-width="1" font-size="16" >O</text>
<text x="134.933845" y="176.624980" fill="rgb(12,12,255)"  stroke="rgb(12,12,255)" stroke-width="1" font-size="16" >N</text>
</svg>
</g>
<text font-size="18.000000" fill ="black" font-family="sans-serif"
x="10.000000" y="20.000000" ></text>
</svg>
