<?xml version="1.0"?>
<svg version="1.1" id="topsvg"
xmlns="http://www.w3.org/2000/svg" xmlns:xlink="http://www.w3.org/1999/xlink"
xmlns:cml="http://www.xml-cml.org/schema" x="0" y="0" width="200px" height="200px" viewBox="0 0 100 100">
<title> - Open Babel Depiction</title>
<rect x="0" y="0" width="100" height="100" fill="white"/>
<g transform="translate(0,0)">
<svg width="100" height="100" x="0" y="0" viewBox="0 0 337.843 248.097"
font-family="sans-serif" stroke="rgb(0,0,0)" stroke-width="2"  stroke-linecap="round">
<line x1="263.2" y1="53.0" x2="263.2" y2="80.0" stroke="rgb(0,0,0)"  stroke-width="2.0"/>
<line x1="228.6" y1="140.0" x2="205.2" y2="153.5" stroke="rgb(0,0,0)"  stroke-width="2.0"/>
<line x1="79.1" y1="127.1" x2="52.7" y2="121.5" stroke="rgb(0,0,0)"  stroke-width="2.0"/>
<line x1="144.1" y1="196.8" x2="130.6" y2="173.5" stroke="rgb(0,0,0)"  stroke-width="2.0"/>
<line x1="130.6" y1="173.5" x2="157.4" y2="143.7" stroke="rgb(0,0,0)"  stroke-width="2.0"/>
<line x1="157.4" y1="143.7" x2="182.0" y2="154.7" stroke="rgb(0,0,0)"  stroke-width="2.0"/>
<line x1="192.6" y1="172.9" x2="189.7" y2="199.8" stroke="rgb(0,0,0)"  stroke-width="2.0"/>
<line x1="189.7" y1="199.8" x2="163.5" y2="205.4" stroke="rgb(0,0,0)"  stroke-width="2.0"/>
<line x1="182.4" y1="194.0" x2="164.0" y2="197.9" stroke="rgb(0,0,0)"  stroke-width="2.0"/>
<line x1="297.8" y1="140.0" x2="263.2" y2="160.0" stroke="rgb(0,0,0)"  stroke-width="2.0"/>
<line x1="289.0" y1="136.8" x2="264.8" y2="150.8" stroke="rgb(0,0,0)"  stroke-width="2.0"/>
<line x1="263.2" y1="160.0" x2="228.6" y2="140.0" stroke="rgb(0,0,0)"  stroke-width="2.0"/>
<line x1="228.6" y1="140.0" x2="228.6" y2="100.0" stroke="rgb(0,0,0)"  stroke-width="2.0"/>
<line x1="235.8" y1="134.0" x2="235.8" y2="106.0" stroke="rgb(0,0,0)"  stroke-width="2.0"/>
<line x1="228.6" y1="100.0" x2="263.2" y2="80.0" stroke="rgb(0,0,0)"  stroke-width="2.0"/>
<line x1="263.2" y1="80.0" x2="297.8" y2="100.0" stroke="rgb(0,0,0)"  stroke-width="2.0"/>
<line x1="264.8" y1="89.2" x2="289.0" y2="103.2" stroke="rgb(0,0,0)"  stroke-width="2.0"/>
<line x1="297.8" y1="100.0" x2="297.8" y2="140.0" stroke="rgb(0,0,0)"  stroke-width="2.0"/>
<line x1="105.9" y1="97.4" x2="145.0" y2="105.7" stroke="rgb(0,0,0)"  stroke-width="2.0"/>
<line x1="145.0" y1="105.7" x2="157.4" y2="143.7" stroke="rgb(0,0,0)"  stroke-width="2.0"/>
<line x1="140.0" y1="113.6" x2="148.7" y2="140.2" stroke="rgb(0,0,0)"  stroke-width="2.0"/>
<line x1="130.6" y1="173.5" x2="91.5" y2="165.1" stroke="rgb(0,0,0)"  stroke-width="2.0"/>
<line x1="126.2" y1="165.2" x2="98.9" y2="159.3" stroke="rgb(0,0,0)"  stroke-width="2.0"/>
<line x1="91.5" y1="165.1" x2="79.1" y2="127.1" stroke="rgb(0,0,0)"  stroke-width="2.0"/>
<line x1="79.1" y1="127.1" x2="105.9" y2="97.4" stroke="rgb(0,0,0)"  stroke-width="2.0"/>
<line x1="88.5" y1="127.5" x2="107.2" y2="106.6" stroke="rgb(0,0,0)"  stroke-width="2.0"/>
<text x="14.000000" y="126.781131" fill="rgb(12,12,255)"  stroke="rgb(12,12,255)" stroke-width="1" font-size="16" >H</text>
<text x="26.000000" y="130.461131" fill="rgb(12,12,255)"  stroke="rgb(12,12,255)" stroke-width="1" font-size="13" >2</text>
<text x="32.500000" y="126.781131" fill="rgb(12,12,255)"  stroke="rgb(12,12,255)" stroke-width="1" font-size="16" >N</text>
<text x="144.612488" y="216.097343" fill="rgb(12,12,255)"  stroke="rgb(12,12,255)" stroke-width="1" font-size="16" >N</text>
<text x="259.201563" y="48.000000" fill="rgb(102,102,102)"  stroke="rgb(102,102,102)" stroke-width="1" font-size="16" >CH</text>
<text x="283.201563" y="51.680000" fill="rgb(102,102,102)"  stroke="rgb(102,102,102)" stroke-width="1" font-size="13" >3</text>
<text x="187.919530" y="168.000000" fill="rgb(12,12,255)"  stroke="rgb(12,12,255)" stroke-width="1" font-size="16" >N</text>
</svg>
</g>
<text font-size="18.000000" fill ="black" font-family="sans-serif"
x="10.000000" y="20.000000" ></text>
</svg>
