<?xml version="1.0"?>
<svg version="1.1" id="topsvg"
xmlns="http://www.w3.org/2000/svg" xmlns:xlink="http://www.w3.org/1999/xlink"
xmlns:cml="http://www.xml-cml.org/schema" x="0" y="0" width="200px" height="200px" viewBox="0 0 100 100">
<title> - Open Babel Depiction</title>
<rect x="0" y="0" width="100" height="100" fill="white"/>
<g transform="translate(0,0)">
<svg width="100" height="100" x="0" y="0" viewBox="0 0 657.507 240"
font-family="sans-serif" stroke="rgb(0,0,0)" stroke-width="2"  stroke-linecap="round">
<line x1="571.9" y1="139.8" x2="578.9" y2="113.7" stroke="rgb(0,0,0)"  stroke-width="2.0"/>
<line x1="578.9" y1="113.7" x2="604.9" y2="106.8" stroke="rgb(0,0,0)"  stroke-width="2.0"/>
<line x1="578.9" y1="113.7" x2="550.6" y2="85.5" stroke="rgb(0,0,0)"  stroke-width="2.0"/>
<line x1="550.6" y1="85.5" x2="511.9" y2="95.8" stroke="rgb(0,0,0)"  stroke-width="2.0"/>
<line x1="511.9" y1="95.8" x2="483.7" y2="67.5" stroke="rgb(0,0,0)"  stroke-width="2.0"/>
<line x1="483.7" y1="67.5" x2="445.0" y2="77.9" stroke="rgb(0,0,0)"  stroke-width="2.0"/>
<line x1="445.0" y1="77.9" x2="425.9" y2="58.8" stroke="rgb(0,0,0)"  stroke-width="2.0"/>
<line x1="445.0" y1="77.9" x2="434.7" y2="116.5" stroke="rgb(0,0,0)"  stroke-width="2.0"/>
<line x1="434.7" y1="116.5" x2="396.0" y2="126.9" stroke="rgb(0,0,0)"  stroke-width="2.0"/>
<line x1="396.0" y1="126.9" x2="367.8" y2="98.6" stroke="rgb(0,0,0)"  stroke-width="2.0"/>
<line x1="367.8" y1="98.6" x2="329.1" y2="108.9" stroke="rgb(0,0,0)"  stroke-width="2.0"/>
<line x1="329.1" y1="108.9" x2="310.0" y2="89.8" stroke="rgb(0,0,0)"  stroke-width="2.0"/>
<line x1="329.1" y1="108.9" x2="318.8" y2="147.6" stroke="rgb(0,0,0)"  stroke-width="2.0"/>
<line x1="318.8" y1="147.6" x2="280.1" y2="157.9" stroke="rgb(0,0,0)"  stroke-width="2.0"/>
<line x1="280.1" y1="157.9" x2="251.8" y2="129.6" stroke="rgb(0,0,0)"  stroke-width="2.0"/>
<line x1="251.8" y1="129.6" x2="213.2" y2="140.0" stroke="rgb(0,0,0)"  stroke-width="2.0"/>
<line x1="213.2" y1="140.0" x2="209.7" y2="166.8" stroke="rgb(0,0,0)"  stroke-width="2.0"/>
<line x1="109.3" y1="160.0" x2="109.3" y2="187.0" stroke="rgb(0,0,0)"  stroke-width="2.0"/>
<line x1="74.6" y1="140.0" x2="51.3" y2="153.5" stroke="rgb(0,0,0)"  stroke-width="2.0"/>
<line x1="109.3" y1="80.0" x2="109.3" y2="53.0" stroke="rgb(0,0,0)"  stroke-width="2.0"/>
<line x1="74.6" y1="100.0" x2="51.3" y2="86.5" stroke="rgb(0,0,0)"  stroke-width="2.0"/>
<line x1="74.6" y1="100.0" x2="109.3" y2="80.0" stroke="rgb(0,0,0)"  stroke-width="2.0"/>
<line x1="109.3" y1="80.0" x2="143.9" y2="100.0" stroke="rgb(0,0,0)"  stroke-width="2.0"/>
<line x1="110.9" y1="89.2" x2="135.1" y2="103.2" stroke="rgb(0,0,0)"  stroke-width="2.0"/>
<line x1="143.9" y1="100.0" x2="143.9" y2="140.0" stroke="rgb(0,0,0)"  stroke-width="2.0"/>
<line x1="143.9" y1="140.0" x2="109.3" y2="160.0" stroke="rgb(0,0,0)"  stroke-width="2.0"/>
<line x1="135.1" y1="136.8" x2="110.9" y2="150.8" stroke="rgb(0,0,0)"  stroke-width="2.0"/>
<line x1="109.3" y1="160.0" x2="74.6" y2="140.0" stroke="rgb(0,0,0)"  stroke-width="2.0"/>
<line x1="74.6" y1="140.0" x2="74.6" y2="100.0" stroke="rgb(0,0,0)"  stroke-width="2.0"/>
<line x1="81.8" y1="134.0" x2="81.8" y2="106.0" stroke="rgb(0,0,0)"  stroke-width="2.0"/>
<line x1="143.9" y1="100.0" x2="178.6" y2="80.0" stroke="rgb(0,0,0)"  stroke-width="2.0"/>
<line x1="178.6" y1="80.0" x2="213.2" y2="100.0" stroke="rgb(0,0,0)"  stroke-width="2.0"/>
<line x1="213.2" y1="100.0" x2="213.2" y2="140.0" stroke="rgb(0,0,0)"  stroke-width="2.0"/>
<line x1="213.2" y1="140.0" x2="189.8" y2="153.5" stroke="rgb(0,0,0)"  stroke-width="2.0"/>
<line x1="167.3" y1="153.5" x2="143.9" y2="140.0" stroke="rgb(0,0,0)"  stroke-width="2.0"/>
<text x="22.000000" y="88.000000" fill="rgb(255,12,12)"  stroke="rgb(255,12,12)" stroke-width="1" font-size="16" >HO</text>
<text x="105.282032" y="48.000000" fill="rgb(102,102,102)"  stroke="rgb(102,102,102)" stroke-width="1" font-size="16" >CH</text>
<text x="129.282032" y="51.680000" fill="rgb(102,102,102)"  stroke="rgb(102,102,102)" stroke-width="1" font-size="13" >3</text>
<text x="14.000000" y="168.000000" fill="rgb(102,102,102)"  stroke="rgb(102,102,102)" stroke-width="1" font-size="16" >H</text>
<text x="26.000000" y="171.680000" fill="rgb(102,102,102)"  stroke="rgb(102,102,102)" stroke-width="1" font-size="13" >3</text>
<text x="32.500000" y="168.000000" fill="rgb(102,102,102)"  stroke="rgb(102,102,102)" stroke-width="1" font-size="16" >C</text>
<text x="105.282032" y="208.000000" fill="rgb(102,102,102)"  stroke="rgb(102,102,102)" stroke-width="1" font-size="16" >CH</text>
<text x="129.282032" y="211.680000" fill="rgb(102,102,102)"  stroke="rgb(102,102,102)" stroke-width="1" font-size="13" >3</text>
<text x="172.564065" y="168.000000" fill="rgb(255,12,12)"  stroke="rgb(255,12,12)" stroke-width="1" font-size="16" >O</text>
<text x="181.984033" y="187.657794" fill="rgb(102,102,102)"  stroke="rgb(102,102,102)" stroke-width="1" font-size="16" >H</text>
<text x="193.984033" y="191.337794" fill="rgb(102,102,102)"  stroke="rgb(102,102,102)" stroke-width="1" font-size="13" >3</text>
<text x="200.484033" y="187.657794" fill="rgb(102,102,102)"  stroke="rgb(102,102,102)" stroke-width="1" font-size="16" >C</text>
<text x="542.517126" y="160.383481" fill="rgb(102,102,102)"  stroke="rgb(102,102,102)" stroke-width="1" font-size="16" >H</text>
<text x="554.517126" y="164.063481" fill="rgb(102,102,102)"  stroke="rgb(102,102,102)" stroke-width="1" font-size="13" >3</text>
<text x="561.017126" y="160.383481" fill="rgb(102,102,102)"  stroke="rgb(102,102,102)" stroke-width="1" font-size="16" >C</text>
<text x="274.831909" y="88.657443" fill="rgb(102,102,102)"  stroke="rgb(102,102,102)" stroke-width="1" font-size="16" >H</text>
<text x="286.831909" y="92.337443" fill="rgb(102,102,102)"  stroke="rgb(102,102,102)" stroke-width="1" font-size="13" >3</text>
<text x="293.331909" y="88.657443" fill="rgb(102,102,102)"  stroke="rgb(102,102,102)" stroke-width="1" font-size="16" >C</text>
<text x="390.743008" y="57.599158" fill="rgb(102,102,102)"  stroke="rgb(102,102,102)" stroke-width="1" font-size="16" >H</text>
<text x="402.743008" y="61.279158" fill="rgb(102,102,102)"  stroke="rgb(102,102,102)" stroke-width="1" font-size="13" >3</text>
<text x="409.243008" y="57.599158" fill="rgb(102,102,102)"  stroke="rgb(102,102,102)" stroke-width="1" font-size="16" >C</text>
<text x="613.506921" y="111.393686" fill="rgb(102,102,102)"  stroke="rgb(102,102,102)" stroke-width="1" font-size="16" >CH</text>
<text x="637.506921" y="115.073686" fill="rgb(102,102,102)"  stroke="rgb(102,102,102)" stroke-width="1" font-size="13" >3</text>
</svg>
</g>
<text font-size="18.000000" fill ="black" font-family="sans-serif"
x="10.000000" y="20.000000" ></text>
</svg>
