<?xml version="1.0"?>
<svg version="1.1" id="topsvg"
xmlns="http://www.w3.org/2000/svg" xmlns:xlink="http://www.w3.org/1999/xlink"
xmlns:cml="http://www.xml-cml.org/schema" x="0" y="0" width="200px" height="200px" viewBox="0 0 100 100">
<title> - Open Babel Depiction</title>
<rect x="0" y="0" width="100" height="100" fill="white"/>
<g transform="translate(0,0)">
<svg width="100" height="100" x="0" y="0" viewBox="0 0 298.564 218.564"
font-family="sans-serif" stroke="rgb(0,0,0)" stroke-width="2"  stroke-linecap="round">
<line x1="201.9" y1="61.1" x2="178.6" y2="74.6" stroke="rgb(0,0,0)"  stroke-width="2.0"/>
<line x1="178.6" y1="74.6" x2="165.1" y2="51.3" stroke="rgb(0,0,0)"  stroke-width="2.0"/>
<line x1="178.6" y1="74.6" x2="143.9" y2="94.6" stroke="rgb(0,0,0)"  stroke-width="2.0"/>
<line x1="74.6" y1="134.6" x2="51.3" y2="148.1" stroke="rgb(0,0,0)"  stroke-width="2.0"/>
<line x1="178.6" y1="74.6" x2="198.6" y2="109.3" stroke="rgb(0,0,0)"  stroke-width="2.0"/>
<line x1="238.6" y1="109.3" x2="252.1" y2="85.9" stroke="rgb(0,0,0)"  stroke-width="2.0"/>
<line x1="143.9" y1="134.6" x2="143.9" y2="94.6" stroke="rgb(0,0,0)"  stroke-width="2.0"/>
<line x1="136.7" y1="128.6" x2="136.7" y2="100.6" stroke="rgb(0,0,0)"  stroke-width="2.0"/>
<line x1="143.9" y1="94.6" x2="109.3" y2="74.6" stroke="rgb(0,0,0)"  stroke-width="2.0"/>
<line x1="109.3" y1="74.6" x2="74.6" y2="94.6" stroke="rgb(0,0,0)"  stroke-width="2.0"/>
<line x1="107.7" y1="83.9" x2="83.4" y2="97.9" stroke="rgb(0,0,0)"  stroke-width="2.0"/>
<line x1="74.6" y1="94.6" x2="74.6" y2="134.6" stroke="rgb(0,0,0)"  stroke-width="2.0"/>
<line x1="74.6" y1="134.6" x2="109.3" y2="154.6" stroke="rgb(0,0,0)"  stroke-width="2.0"/>
<line x1="83.4" y1="131.4" x2="107.7" y2="145.4" stroke="rgb(0,0,0)"  stroke-width="2.0"/>
<line x1="109.3" y1="154.6" x2="143.9" y2="134.6" stroke="rgb(0,0,0)"  stroke-width="2.0"/>
<line x1="198.6" y1="178.6" x2="238.6" y2="178.6" stroke="rgb(0,0,0)"  stroke-width="2.0"/>
<line x1="204.6" y1="171.4" x2="232.6" y2="171.4" stroke="rgb(0,0,0)"  stroke-width="2.0"/>
<line x1="238.6" y1="178.6" x2="258.6" y2="143.9" stroke="rgb(0,0,0)"  stroke-width="2.0"/>
<line x1="258.6" y1="143.9" x2="238.6" y2="109.3" stroke="rgb(0,0,0)"  stroke-width="2.0"/>
<line x1="249.3" y1="142.3" x2="235.3" y2="118.1" stroke="rgb(0,0,0)"  stroke-width="2.0"/>
<line x1="238.6" y1="109.3" x2="198.6" y2="109.3" stroke="rgb(0,0,0)"  stroke-width="2.0"/>
<line x1="198.6" y1="109.3" x2="178.6" y2="143.9" stroke="rgb(0,0,0)"  stroke-width="2.0"/>
<line x1="201.8" y1="118.1" x2="187.8" y2="142.3" stroke="rgb(0,0,0)"  stroke-width="2.0"/>
<line x1="178.6" y1="143.9" x2="198.6" y2="178.6" stroke="rgb(0,0,0)"  stroke-width="2.0"/>
<text x="252.564065" y="82.641016" fill="rgb(255,12,12)"  stroke="rgb(255,12,12)" stroke-width="1" font-size="16" >OH</text>
<text x="22.000000" y="162.641016" fill="rgb(255,12,12)"  stroke="rgb(255,12,12)" stroke-width="1" font-size="16" >HO</text>
<text x="209.205081" y="62.641016" fill="rgb(102,102,102)"  stroke="rgb(102,102,102)" stroke-width="1" font-size="16" >CH</text>
<text x="233.205081" y="66.321016" fill="rgb(102,102,102)"  stroke="rgb(102,102,102)" stroke-width="1" font-size="13" >3</text>
<text x="132.564065" y="48.000000" fill="rgb(102,102,102)"  stroke="rgb(102,102,102)" stroke-width="1" font-size="16" >H</text>
<text x="144.564065" y="51.680000" fill="rgb(102,102,102)"  stroke="rgb(102,102,102)" stroke-width="1" font-size="13" >3</text>
<text x="151.064065" y="48.000000" fill="rgb(102,102,102)"  stroke="rgb(102,102,102)" stroke-width="1" font-size="16" >C</text>
</svg>
</g>
<text font-size="18.000000" fill ="black" font-family="sans-serif"
x="10.000000" y="20.000000" ></text>
</svg>
