<?xml version="1.0"?>
<svg version="1.1" id="topsvg"
xmlns="http://www.w3.org/2000/svg" xmlns:xlink="http://www.w3.org/1999/xlink"
xmlns:cml="http://www.xml-cml.org/schema" x="0" y="0" width="200px" height="200px" viewBox="0 0 100 100">
<title> - Open Babel Depiction</title>
<rect x="0" y="0" width="100" height="100" fill="white"/>
<g transform="translate(0,0)">
<svg width="100" height="100" x="0" y="0" viewBox="0 0 807.461 220"
font-family="sans-serif" stroke="rgb(0,0,0)" stroke-width="2"  stroke-linecap="round">
<line x1="732.8" y1="87.0" x2="732.8" y2="60.0" stroke="rgb(0,0,0)"  stroke-width="2.0"/>
<line x1="732.8" y1="60.0" x2="756.2" y2="46.5" stroke="rgb(0,0,0)"  stroke-width="2.0"/>
<line x1="732.8" y1="60.0" x2="698.2" y2="40.0" stroke="rgb(0,0,0)"  stroke-width="2.0"/>
<line x1="698.2" y1="40.0" x2="663.5" y2="60.0" stroke="rgb(0,0,0)"  stroke-width="2.0"/>
<line x1="663.5" y1="60.0" x2="628.9" y2="40.0" stroke="rgb(0,0,0)"  stroke-width="2.0"/>
<line x1="628.9" y1="40.0" x2="594.3" y2="60.0" stroke="rgb(0,0,0)"  stroke-width="2.0"/>
<line x1="594.3" y1="60.0" x2="570.9" y2="46.5" stroke="rgb(0,0,0)"  stroke-width="2.0"/>
<line x1="594.3" y1="60.0" x2="594.3" y2="100.0" stroke="rgb(0,0,0)"  stroke-width="2.0"/>
<line x1="594.3" y1="100.0" x2="559.6" y2="120.0" stroke="rgb(0,0,0)"  stroke-width="2.0"/>
<line x1="559.6" y1="120.0" x2="525.0" y2="100.0" stroke="rgb(0,0,0)"  stroke-width="2.0"/>
<line x1="525.0" y1="100.0" x2="490.3" y2="120.0" stroke="rgb(0,0,0)"  stroke-width="2.0"/>
<line x1="490.3" y1="120.0" x2="467.0" y2="106.5" stroke="rgb(0,0,0)"  stroke-width="2.0"/>
<line x1="490.3" y1="120.0" x2="490.3" y2="160.0" stroke="rgb(0,0,0)"  stroke-width="2.0"/>
<line x1="490.3" y1="160.0" x2="455.7" y2="180.0" stroke="rgb(0,0,0)"  stroke-width="2.0"/>
<line x1="455.7" y1="180.0" x2="421.1" y2="160.0" stroke="rgb(0,0,0)"  stroke-width="2.0"/>
<line x1="421.1" y1="160.0" x2="386.4" y2="180.0" stroke="rgb(0,0,0)"  stroke-width="2.0"/>
<line x1="386.4" y1="180.0" x2="351.8" y2="160.0" stroke="rgb(0,0,0)"  stroke-width="2.0"/>
<line x1="351.8" y1="160.0" x2="351.8" y2="133.0" stroke="rgb(0,0,0)"  stroke-width="2.0"/>
<line x1="351.8" y1="160.0" x2="317.1" y2="180.0" stroke="rgb(0,0,0)"  stroke-width="2.0"/>
<line x1="317.1" y1="180.0" x2="282.5" y2="160.0" stroke="rgb(0,0,0)"  stroke-width="2.0"/>
<line x1="282.5" y1="160.0" x2="247.8" y2="180.0" stroke="rgb(0,0,0)"  stroke-width="2.0"/>
<line x1="247.8" y1="180.0" x2="213.2" y2="160.0" stroke="rgb(0,0,0)"  stroke-width="2.0"/>
<line x1="213.2" y1="160.0" x2="213.2" y2="133.0" stroke="rgb(0,0,0)"  stroke-width="2.0"/>
<line x1="213.2" y1="160.0" x2="178.6" y2="180.0" stroke="rgb(0,0,0)"  stroke-width="2.0"/>
<line x1="178.6" y1="180.0" x2="143.9" y2="160.0" stroke="rgb(0,0,0)"  stroke-width="2.0"/>
<line x1="143.9" y1="160.0" x2="109.3" y2="180.0" stroke="rgb(0,0,0)"  stroke-width="2.0"/>
<line x1="109.3" y1="180.0" x2="74.6" y2="160.0" stroke="rgb(0,0,0)"  stroke-width="2.0"/>
<line x1="74.6" y1="160.0" x2="74.6" y2="133.0" stroke="rgb(0,0,0)"  stroke-width="2.0"/>
<line x1="74.6" y1="160.0" x2="51.3" y2="173.5" stroke="rgb(0,0,0)"  stroke-width="2.0"/>
<text x="14.000000" y="188.000000" fill="rgb(102,102,102)"  stroke="rgb(102,102,102)" stroke-width="1" font-size="16" >H</text>
<text x="26.000000" y="191.680000" fill="rgb(102,102,102)"  stroke="rgb(102,102,102)" stroke-width="1" font-size="13" >3</text>
<text x="32.500000" y="188.000000" fill="rgb(102,102,102)"  stroke="rgb(102,102,102)" stroke-width="1" font-size="16" >C</text>
<text x="70.641016" y="128.000000" fill="rgb(102,102,102)"  stroke="rgb(102,102,102)" stroke-width="1" font-size="16" >CH</text>
<text x="94.641016" y="131.680000" fill="rgb(102,102,102)"  stroke="rgb(102,102,102)" stroke-width="1" font-size="13" >3</text>
<text x="209.205081" y="128.000000" fill="rgb(102,102,102)"  stroke="rgb(102,102,102)" stroke-width="1" font-size="16" >CH</text>
<text x="233.205081" y="131.680000" fill="rgb(102,102,102)"  stroke="rgb(102,102,102)" stroke-width="1" font-size="13" >3</text>
<text x="347.769145" y="128.000000" fill="rgb(102,102,102)"  stroke="rgb(102,102,102)" stroke-width="1" font-size="16" >CH</text>
<text x="371.769145" y="131.680000" fill="rgb(102,102,102)"  stroke="rgb(102,102,102)" stroke-width="1" font-size="13" >3</text>
<text x="728.820323" y="108.000000" fill="rgb(102,102,102)"  stroke="rgb(102,102,102)" stroke-width="1" font-size="16" >CH</text>
<text x="752.820323" y="111.680000" fill="rgb(102,102,102)"  stroke="rgb(102,102,102)" stroke-width="1" font-size="13" >3</text>
<text x="429.692194" y="108.000000" fill="rgb(102,102,102)"  stroke="rgb(102,102,102)" stroke-width="1" font-size="16" >H</text>
<text x="441.692194" y="111.680000" fill="rgb(102,102,102)"  stroke="rgb(102,102,102)" stroke-width="1" font-size="13" >3</text>
<text x="448.192194" y="108.000000" fill="rgb(102,102,102)"  stroke="rgb(102,102,102)" stroke-width="1" font-size="16" >C</text>
<text x="533.615242" y="48.000000" fill="rgb(102,102,102)"  stroke="rgb(102,102,102)" stroke-width="1" font-size="16" >H</text>
<text x="545.615242" y="51.680000" fill="rgb(102,102,102)"  stroke="rgb(102,102,102)" stroke-width="1" font-size="13" >3</text>
<text x="552.115242" y="48.000000" fill="rgb(102,102,102)"  stroke="rgb(102,102,102)" stroke-width="1" font-size="16" >C</text>
<text x="763.461339" y="48.000000" fill="rgb(102,102,102)"  stroke="rgb(102,102,102)" stroke-width="1" font-size="16" >CH</text>
<text x="787.461339" y="51.680000" fill="rgb(102,102,102)"  stroke="rgb(102,102,102)" stroke-width="1" font-size="13" >3</text>
</svg>
</g>
<text font-size="18.000000" fill ="black" font-family="sans-serif"
x="10.000000" y="20.000000" ></text>
</svg>
