<?xml version="1.0"?>
<svg version="1.1" id="topsvg"
xmlns="http://www.w3.org/2000/svg" xmlns:xlink="http://www.w3.org/1999/xlink"
xmlns:cml="http://www.xml-cml.org/schema" x="0" y="0" width="200px" height="200px" viewBox="0 0 100 100">
<title> - Open Babel Depiction</title>
<rect x="0" y="0" width="100" height="100" fill="white"/>
<g transform="translate(0,0)">
<svg width="100" height="100" x="0" y="0" viewBox="0 0 182.764 213.914"
font-family="sans-serif" stroke="rgb(0,0,0)" stroke-width="2"  stroke-linecap="round">
<line x1="108.2" y1="163.4" x2="100.0" y2="152.1" stroke="rgb(0,0,0)"  stroke-width="2.0"/>
<line x1="72.4" y1="67.0" x2="72.4" y2="53.0" stroke="rgb(0,0,0)"  stroke-width="2.0"/>
<line x1="103.8" y1="100.7" x2="129.5" y2="92.3" stroke="rgb(0,0,0)"  stroke-width="2.0"/>
<line x1="105.6" y1="106.4" x2="131.3" y2="98.0" stroke="rgb(0,0,0)"  stroke-width="2.0"/>
<line x1="40.0" y1="103.5" x2="61.8" y2="87.6" stroke="rgb(0,0,0)"  stroke-width="2.0"/>
<line x1="82.9" y1="87.6" x2="104.7" y2="103.5" stroke="rgb(0,0,0)"  stroke-width="2.0"/>
<line x1="104.7" y1="103.5" x2="96.4" y2="129.2" stroke="rgb(0,0,0)"  stroke-width="2.0"/>
<line x1="79.4" y1="141.6" x2="52.4" y2="141.6" stroke="rgb(0,0,0)"  stroke-width="2.0"/>
<line x1="52.4" y1="141.6" x2="40.0" y2="103.5" stroke="rgb(0,0,0)"  stroke-width="2.0"/>
<text x="111.872090" y="181.914351" fill="rgb(102,102,102)"  stroke="rgb(102,102,102)" stroke-width="1" font-size="16" >CH</text>
<text x="135.872090" y="185.594351" fill="rgb(102,102,102)"  stroke="rgb(102,102,102)" stroke-width="1" font-size="13" >3</text>
<text x="86.360680" y="149.553671" fill="rgb(12,12,255)"  stroke="rgb(12,12,255)" stroke-width="1" font-size="16" >N</text>
<text x="66.360680" y="88.000000" fill="rgb(12,12,255)"  stroke="rgb(12,12,255)" stroke-width="1" font-size="16" >N</text>
<text x="68.360680" y="48.000000" fill="rgb(102,102,102)"  stroke="rgb(102,102,102)" stroke-width="1" font-size="16" >CH</text>
<text x="92.360680" y="51.680000" fill="rgb(102,102,102)"  stroke="rgb(102,102,102)" stroke-width="1" font-size="13" >3</text>
<text x="136.763620" y="99.150730" fill="rgb(255,12,12)"  stroke="rgb(255,12,12)" stroke-width="1" font-size="16" >O</text>
</svg>
</g>
<text font-size="18.000000" fill ="black" font-family="sans-serif"
x="10.000000" y="20.000000" ></text>
</svg>
