<?xml version="1.0"?>
<svg version="1.1" id="topsvg"
xmlns="http://www.w3.org/2000/svg" xmlns:xlink="http://www.w3.org/1999/xlink"
xmlns:cml="http://www.xml-cml.org/schema" x="0" y="0" width="200px" height="200px" viewBox="0 0 100 100">
<title> - Open Babel Depiction</title>
<rect x="0" y="0" width="100" height="100" fill="white"/>
<g transform="translate(0,0)">
<svg width="100" height="100" x="0" y="0" viewBox="0 0 229.282 174.641"
font-family="sans-serif" stroke="rgb(0,0,0)" stroke-width="2"  stroke-linecap="round">
<line x1="80.0" y1="121.6" x2="80.0" y2="94.6" stroke="rgb(0,0,0)"  stroke-width="2.0"/>
<line x1="80.0" y1="94.6" x2="66.5" y2="71.3" stroke="rgb(0,0,0)"  stroke-width="2.0"/>
<line x1="80.0" y1="94.6" x2="53.0" y2="94.6" stroke="rgb(0,0,0)"  stroke-width="2.0"/>
<line x1="80.0" y1="94.6" x2="114.6" y2="74.6" stroke="rgb(0,0,0)"  stroke-width="2.0"/>
<line x1="114.6" y1="74.6" x2="128.1" y2="51.3" stroke="rgb(0,0,0)"  stroke-width="2.0"/>
<line x1="114.6" y1="74.6" x2="101.1" y2="51.3" stroke="rgb(0,0,0)"  stroke-width="2.0"/>
<line x1="114.6" y1="74.6" x2="149.3" y2="94.6" stroke="rgb(0,0,0)"  stroke-width="2.0"/>
<line x1="149.3" y1="94.6" x2="176.3" y2="94.6" stroke="rgb(0,0,0)"  stroke-width="2.0"/>
<line x1="149.3" y1="94.6" x2="162.8" y2="71.3" stroke="rgb(0,0,0)"  stroke-width="2.0"/>
<line x1="149.3" y1="94.6" x2="149.3" y2="121.6" stroke="rgb(0,0,0)"  stroke-width="2.0"/>
<text x="74.000000" y="142.641016" fill="rgb(127,178,255)"  stroke="rgb(127,178,255)" stroke-width="1" font-size="16" >F</text>
<text x="54.000000" y="68.000000" fill="rgb(127,178,255)"  stroke="rgb(127,178,255)" stroke-width="1" font-size="16" >F</text>
<text x="34.000000" y="102.641016" fill="rgb(127,178,255)"  stroke="rgb(127,178,255)" stroke-width="1" font-size="16" >F</text>
<text x="128.641016" y="48.000000" fill="rgb(127,178,255)"  stroke="rgb(127,178,255)" stroke-width="1" font-size="16" >F</text>
<text x="88.641016" y="48.000000" fill="rgb(127,178,255)"  stroke="rgb(127,178,255)" stroke-width="1" font-size="16" >F</text>
<text x="183.282032" y="102.641016" fill="rgb(127,178,255)"  stroke="rgb(127,178,255)" stroke-width="1" font-size="16" >F</text>
<text x="163.282032" y="68.000000" fill="rgb(127,178,255)"  stroke="rgb(127,178,255)" stroke-width="1" font-size="16" >F</text>
<text x="143.282032" y="142.641016" fill="rgb(127,178,255)"  stroke="rgb(127,178,255)" stroke-width="1" font-size="16" >F</text>
</svg>
</g>
<text font-size="18.000000" fill ="black" font-family="sans-serif"
x="10.000000" y="20.000000" ></text>
</svg>
