<?xml version="1.0"?>
<svg version="1.1" id="topsvg"
xmlns="http://www.w3.org/2000/svg" xmlns:xlink="http://www.w3.org/1999/xlink"
xmlns:cml="http://www.xml-cml.org/schema" x="0" y="0" width="200px" height="200px" viewBox="0 0 100 100">
<title> - Open Babel Depiction</title>
<rect x="0" y="0" width="100" height="100" fill="white"/>
<g transform="translate(0,0)">
<svg width="100" height="100" x="0" y="0" viewBox="0 0 206.945 181.335"
font-family="sans-serif" stroke="rgb(0,0,0)" stroke-width="2"  stroke-linecap="round">
<line x1="154.6" y1="126.2" x2="128.9" y2="117.8" stroke="rgb(0,0,0)"  stroke-width="2.0"/>
<line x1="72.2" y1="67.2" x2="70.7" y2="53.2" stroke="rgb(0,0,0)"  stroke-width="2.0"/>
<line x1="78.2" y1="66.5" x2="76.7" y2="52.6" stroke="rgb(0,0,0)"  stroke-width="2.0"/>
<line x1="63.4" y1="77.2" x2="50.7" y2="71.5" stroke="rgb(0,0,0)"  stroke-width="2.0"/>
<line x1="65.9" y1="71.8" x2="53.1" y2="66.1" stroke="rgb(0,0,0)"  stroke-width="2.0"/>
<line x1="96.5" y1="141.3" x2="128.9" y2="117.8" stroke="rgb(0,0,0)"  stroke-width="2.0"/>
<line x1="128.9" y1="117.8" x2="116.5" y2="79.8" stroke="rgb(0,0,0)"  stroke-width="2.0"/>
<line x1="116.5" y1="79.8" x2="89.5" y2="79.8" stroke="rgb(0,0,0)"  stroke-width="2.0"/>
<line x1="72.5" y1="92.1" x2="64.2" y2="117.8" stroke="rgb(0,0,0)"  stroke-width="2.0"/>
<line x1="64.2" y1="117.8" x2="96.5" y2="141.3" stroke="rgb(0,0,0)"  stroke-width="2.0"/>
<text x="162.944759" y="138.183816" fill="rgb(102,102,102)"  stroke="rgb(102,102,102)" stroke-width="1" font-size="16" >CH</text>
<text x="186.944759" y="141.863816" fill="rgb(102,102,102)"  stroke="rgb(102,102,102)" stroke-width="1" font-size="13" >3</text>
<text x="70.541818" y="87.780876" fill="rgb(178,178,0)"  stroke="rgb(178,178,0)" stroke-width="1" font-size="16" >S</text>
<text x="66.360680" y="48.000000" fill="rgb(255,12,12)"  stroke="rgb(255,12,12)" stroke-width="1" font-size="16" >O</text>
<text x="34.000000" y="71.511410" fill="rgb(255,12,12)"  stroke="rgb(255,12,12)" stroke-width="1" font-size="16" >O</text>
</svg>
</g>
<text font-size="18.000000" fill ="black" font-family="sans-serif"
x="10.000000" y="20.000000" ></text>
</svg>
