<?xml version="1.0"?>
<svg version="1.1" id="topsvg"
xmlns="http://www.w3.org/2000/svg" xmlns:xlink="http://www.w3.org/1999/xlink"
xmlns:cml="http://www.xml-cml.org/schema" x="0" y="0" width="200px" height="200px" viewBox="0 0 100 100">
<title> - Open Babel Depiction</title>
<rect x="0" y="0" width="100" height="100" fill="white"/>
<g transform="translate(0,0)">
<svg width="100" height="100" x="0" y="0" viewBox="0 0 212.489 181.554"
font-family="sans-serif" stroke="rgb(0,0,0)" stroke-width="2"  stroke-linecap="round">
<line x1="162.8" y1="109.2" x2="142.8" y2="91.2" stroke="rgb(0,0,0)"  stroke-width="2.0"/>
<line x1="142.8" y1="91.2" x2="117.1" y2="99.5" stroke="rgb(0,0,0)"  stroke-width="2.0"/>
<line x1="69.4" y1="80.0" x2="69.4" y2="53.0" stroke="rgb(0,0,0)"  stroke-width="2.0"/>
<line x1="75.4" y1="80.0" x2="75.4" y2="53.0" stroke="rgb(0,0,0)"  stroke-width="2.0"/>
<line x1="52.4" y1="141.6" x2="40.0" y2="103.5" stroke="rgb(0,0,0)"  stroke-width="2.0"/>
<line x1="40.0" y1="103.5" x2="72.4" y2="80.0" stroke="rgb(0,0,0)"  stroke-width="2.0"/>
<line x1="72.4" y1="80.0" x2="94.2" y2="95.9" stroke="rgb(0,0,0)"  stroke-width="2.0"/>
<line x1="100.7" y1="115.9" x2="92.4" y2="141.6" stroke="rgb(0,0,0)"  stroke-width="2.0"/>
<line x1="92.4" y1="141.6" x2="52.4" y2="141.6" stroke="rgb(0,0,0)"  stroke-width="2.0"/>
<text x="168.489413" y="125.915955" fill="rgb(102,102,102)"  stroke="rgb(102,102,102)" stroke-width="1" font-size="16" >CH</text>
<text x="192.489413" y="129.595955" fill="rgb(102,102,102)"  stroke="rgb(102,102,102)" stroke-width="1" font-size="13" >3</text>
<text x="98.721360" y="111.511410" fill="rgb(12,12,255)"  stroke="rgb(12,12,255)" stroke-width="1" font-size="16" >N</text>
<text x="66.360680" y="48.000000" fill="rgb(255,12,12)"  stroke="rgb(255,12,12)" stroke-width="1" font-size="16" >O</text>
</svg>
</g>
<text font-size="18.000000" fill ="black" font-family="sans-serif"
x="10.000000" y="20.000000" ></text>
</svg>
