<?xml version="1.0"?>
<svg version="1.1" id="topsvg"
xmlns="http://www.w3.org/2000/svg" xmlns:xlink="http://www.w3.org/1999/xlink"
xmlns:cml="http://www.xml-cml.org/schema" x="0" y="0" width="200px" height="200px" viewBox="0 0 100 100">
<title> - Open Babel Depiction</title>
<rect x="0" y="0" width="100" height="100" fill="white"/>
<g transform="translate(0,0)">
<svg width="100" height="100" x="0" y="0" viewBox="0 0 329.282 229.282"
font-family="sans-serif" stroke="rgb(0,0,0)" stroke-width="2"  stroke-linecap="round">
<line x1="61.1" y1="172.7" x2="74.6" y2="149.3" stroke="rgb(0,0,0)"  stroke-width="2.0"/>
<line x1="74.6" y1="149.3" x2="74.6" y2="122.3" stroke="rgb(0,0,0)"  stroke-width="2.0"/>
<line x1="74.6" y1="149.3" x2="51.3" y2="135.8" stroke="rgb(0,0,0)"  stroke-width="2.0"/>
<line x1="74.6" y1="149.3" x2="114.6" y2="149.3" stroke="rgb(0,0,0)"  stroke-width="2.0"/>
<line x1="114.6" y1="149.3" x2="138.0" y2="162.8" stroke="rgb(0,0,0)"  stroke-width="2.0"/>
<line x1="114.6" y1="149.3" x2="114.6" y2="176.3" stroke="rgb(0,0,0)"  stroke-width="2.0"/>
<line x1="114.6" y1="149.3" x2="134.6" y2="114.6" stroke="rgb(0,0,0)"  stroke-width="2.0"/>
<line x1="134.6" y1="114.6" x2="134.6" y2="87.6" stroke="rgb(0,0,0)"  stroke-width="2.0"/>
<line x1="134.6" y1="114.6" x2="111.3" y2="101.1" stroke="rgb(0,0,0)"  stroke-width="2.0"/>
<line x1="134.6" y1="114.6" x2="174.6" y2="114.6" stroke="rgb(0,0,0)"  stroke-width="2.0"/>
<line x1="174.6" y1="114.6" x2="198.0" y2="128.1" stroke="rgb(0,0,0)"  stroke-width="2.0"/>
<line x1="174.6" y1="114.6" x2="174.6" y2="141.6" stroke="rgb(0,0,0)"  stroke-width="2.0"/>
<line x1="174.6" y1="114.6" x2="194.6" y2="80.0" stroke="rgb(0,0,0)"  stroke-width="2.0"/>
<line x1="194.6" y1="80.0" x2="194.6" y2="53.0" stroke="rgb(0,0,0)"  stroke-width="2.0"/>
<line x1="194.6" y1="80.0" x2="171.3" y2="66.5" stroke="rgb(0,0,0)"  stroke-width="2.0"/>
<line x1="194.6" y1="80.0" x2="234.6" y2="80.0" stroke="rgb(0,0,0)"  stroke-width="2.0"/>
<line x1="234.6" y1="80.0" x2="258.0" y2="66.5" stroke="rgb(0,0,0)"  stroke-width="2.0"/>
<line x1="234.6" y1="80.0" x2="234.6" y2="53.0" stroke="rgb(0,0,0)"  stroke-width="2.0"/>
<line x1="234.6" y1="80.0" x2="254.6" y2="114.6" stroke="rgb(0,0,0)"  stroke-width="2.0"/>
<line x1="254.6" y1="114.6" x2="278.0" y2="128.1" stroke="rgb(0,0,0)"  stroke-width="2.0"/>
<line x1="254.6" y1="114.6" x2="278.0" y2="101.1" stroke="rgb(0,0,0)"  stroke-width="2.0"/>
<line x1="254.6" y1="114.6" x2="234.6" y2="149.3" stroke="rgb(0,0,0)"  stroke-width="2.0"/>
<line x1="234.6" y1="149.3" x2="234.6" y2="176.3" stroke="rgb(0,0,0)"  stroke-width="2.0"/>
<line x1="234.6" y1="149.3" x2="258.0" y2="162.8" stroke="rgb(0,0,0)"  stroke-width="2.0"/>
<line x1="234.6" y1="149.3" x2="207.6" y2="149.3" stroke="rgb(0,0,0)"  stroke-width="2.0"/>
<text x="188.641016" y="157.282032" fill="rgb(127,178,255)"  stroke="rgb(127,178,255)" stroke-width="1" font-size="16" >F</text>
<text x="263.282032" y="177.282032" fill="rgb(127,178,255)"  stroke="rgb(127,178,255)" stroke-width="1" font-size="16" >F</text>
<text x="228.641016" y="197.282032" fill="rgb(127,178,255)"  stroke="rgb(127,178,255)" stroke-width="1" font-size="16" >F</text>
<text x="283.282032" y="102.641016" fill="rgb(127,178,255)"  stroke="rgb(127,178,255)" stroke-width="1" font-size="16" >F</text>
<text x="283.282032" y="142.641016" fill="rgb(127,178,255)"  stroke="rgb(127,178,255)" stroke-width="1" font-size="16" >F</text>
<text x="228.641016" y="48.000000" fill="rgb(127,178,255)"  stroke="rgb(127,178,255)" stroke-width="1" font-size="16" >F</text>
<text x="263.282032" y="68.000000" fill="rgb(127,178,255)"  stroke="rgb(127,178,255)" stroke-width="1" font-size="16" >F</text>
<text x="154.000000" y="68.000000" fill="rgb(127,178,255)"  stroke="rgb(127,178,255)" stroke-width="1" font-size="16" >F</text>
<text x="188.641016" y="48.000000" fill="rgb(127,178,255)"  stroke="rgb(127,178,255)" stroke-width="1" font-size="16" >F</text>
<text x="48.641016" y="191.923048" fill="rgb(127,178,255)"  stroke="rgb(127,178,255)" stroke-width="1" font-size="16" >F</text>
<text x="168.641016" y="162.641016" fill="rgb(127,178,255)"  stroke="rgb(127,178,255)" stroke-width="1" font-size="16" >F</text>
<text x="203.282032" y="142.641016" fill="rgb(127,178,255)"  stroke="rgb(127,178,255)" stroke-width="1" font-size="16" >F</text>
<text x="94.000000" y="102.641016" fill="rgb(127,178,255)"  stroke="rgb(127,178,255)" stroke-width="1" font-size="16" >F</text>
<text x="128.641016" y="82.641016" fill="rgb(127,178,255)"  stroke="rgb(127,178,255)" stroke-width="1" font-size="16" >F</text>
<text x="108.641016" y="197.282032" fill="rgb(127,178,255)"  stroke="rgb(127,178,255)" stroke-width="1" font-size="16" >F</text>
<text x="143.282032" y="177.282032" fill="rgb(127,178,255)"  stroke="rgb(127,178,255)" stroke-width="1" font-size="16" >F</text>
<text x="34.000000" y="137.282032" fill="rgb(127,178,255)"  stroke="rgb(127,178,255)" stroke-width="1" font-size="16" >F</text>
<text x="68.641016" y="117.282032" fill="rgb(127,178,255)"  stroke="rgb(127,178,255)" stroke-width="1" font-size="16" >F</text>
</svg>
</g>
<text font-size="18.000000" fill ="black" font-family="sans-serif"
x="10.000000" y="20.000000" ></text>
</svg>
