<?xml version="1.0"?>
<svg version="1.1" id="topsvg"
xmlns="http://www.w3.org/2000/svg" xmlns:xlink="http://www.w3.org/1999/xlink"
xmlns:cml="http://www.xml-cml.org/schema" x="0" y="0" width="200px" height="200px" viewBox="0 0 100 100">
<title> - Open Babel Depiction</title>
<rect x="0" y="0" width="100" height="100" fill="white"/>
<g transform="translate(0,0)">
<svg width="100" height="100" x="0" y="0" viewBox="0 0 154.641 234.641"
font-family="sans-serif" stroke="rgb(0,0,0)" stroke-width="2"  stroke-linecap="round">
<line x1="51.3" y1="61.1" x2="74.6" y2="74.6" stroke="rgb(0,0,0)"  stroke-width="2.0"/>
<line x1="74.6" y1="74.6" x2="101.6" y2="74.6" stroke="rgb(0,0,0)"  stroke-width="2.0"/>
<line x1="74.6" y1="74.6" x2="88.1" y2="51.3" stroke="rgb(0,0,0)"  stroke-width="2.0"/>
<line x1="74.6" y1="74.6" x2="74.6" y2="114.6" stroke="rgb(0,0,0)"  stroke-width="2.0"/>
<line x1="109.3" y1="174.6" x2="74.6" y2="194.6" stroke="rgb(0,0,0)"  stroke-width="2.0"/>
<line x1="100.5" y1="171.4" x2="76.2" y2="185.4" stroke="rgb(0,0,0)"  stroke-width="2.0"/>
<line x1="74.6" y1="194.6" x2="40.0" y2="174.6" stroke="rgb(0,0,0)"  stroke-width="2.0"/>
<line x1="40.0" y1="174.6" x2="40.0" y2="134.6" stroke="rgb(0,0,0)"  stroke-width="2.0"/>
<line x1="47.2" y1="168.6" x2="47.2" y2="140.6" stroke="rgb(0,0,0)"  stroke-width="2.0"/>
<line x1="40.0" y1="134.6" x2="74.6" y2="114.6" stroke="rgb(0,0,0)"  stroke-width="2.0"/>
<line x1="74.6" y1="114.6" x2="109.3" y2="134.6" stroke="rgb(0,0,0)"  stroke-width="2.0"/>
<line x1="76.2" y1="123.9" x2="100.5" y2="137.9" stroke="rgb(0,0,0)"  stroke-width="2.0"/>
<line x1="109.3" y1="134.6" x2="109.3" y2="174.6" stroke="rgb(0,0,0)"  stroke-width="2.0"/>
<text x="14.000000" y="62.641016" fill="rgb(102,102,102)"  stroke="rgb(102,102,102)" stroke-width="1" font-size="16" >H</text>
<text x="26.000000" y="66.321016" fill="rgb(102,102,102)"  stroke="rgb(102,102,102)" stroke-width="1" font-size="13" >3</text>
<text x="32.500000" y="62.641016" fill="rgb(102,102,102)"  stroke="rgb(102,102,102)" stroke-width="1" font-size="16" >C</text>
<text x="110.641016" y="82.641016" fill="rgb(102,102,102)"  stroke="rgb(102,102,102)" stroke-width="1" font-size="16" >CH</text>
<text x="134.641016" y="86.321016" fill="rgb(102,102,102)"  stroke="rgb(102,102,102)" stroke-width="1" font-size="13" >3</text>
<text x="90.641016" y="48.000000" fill="rgb(102,102,102)"  stroke="rgb(102,102,102)" stroke-width="1" font-size="16" >CH</text>
<text x="114.641016" y="51.680000" fill="rgb(102,102,102)"  stroke="rgb(102,102,102)" stroke-width="1" font-size="13" >3</text>
</svg>
</g>
<text font-size="18.000000" fill ="black" font-family="sans-serif"
x="10.000000" y="20.000000" ></text>
</svg>
