<?xml version="1.0"?>
<svg version="1.1" id="topsvg"
xmlns="http://www.w3.org/2000/svg" xmlns:xlink="http://www.w3.org/1999/xlink"
xmlns:cml="http://www.xml-cml.org/schema" x="0" y="0" width="200px" height="200px" viewBox="0 0 100 100">
<title> - Open Babel Depiction</title>
<rect x="0" y="0" width="100" height="100" fill="white"/>
<g transform="translate(0,0)">
<svg width="100" height="100" x="0" y="0" viewBox="0 0 360 343.923"
font-family="sans-serif" stroke="rgb(0,0,0)" stroke-width="2"  stroke-linecap="round">
<line x1="53.5" y1="51.3" x2="40.0" y2="74.6" stroke="rgb(0,0,0)"  stroke-width="2.0"/>
<line x1="40.0" y1="74.6" x2="60.0" y2="109.3" stroke="rgb(0,0,0)"  stroke-width="2.0"/>
<line x1="60.0" y1="109.3" x2="100.0" y2="109.3" stroke="rgb(0,0,0)"  stroke-width="2.0"/>
<line x1="100.0" y1="109.3" x2="113.5" y2="132.7" stroke="rgb(0,0,0)"  stroke-width="2.0"/>
<line x1="133.0" y1="143.9" x2="147.0" y2="143.9" stroke="rgb(0,0,0)"  stroke-width="2.0"/>
<line x1="160.0" y1="156.9" x2="160.0" y2="170.9" stroke="rgb(0,0,0)"  stroke-width="2.0"/>
<line x1="171.3" y1="190.4" x2="194.6" y2="203.9" stroke="rgb(0,0,0)"  stroke-width="2.0"/>
<line x1="194.6" y1="203.9" x2="194.6" y2="243.9" stroke="rgb(0,0,0)"  stroke-width="2.0"/>
<line x1="194.6" y1="243.9" x2="229.3" y2="263.9" stroke="rgb(0,0,0)"  stroke-width="2.0"/>
<line x1="229.3" y1="263.9" x2="229.3" y2="290.9" stroke="rgb(0,0,0)"  stroke-width="2.0"/>
<line x1="173.0" y1="143.9" x2="187.0" y2="143.9" stroke="rgb(0,0,0)"  stroke-width="2.0"/>
<line x1="206.5" y1="155.2" x2="220.0" y2="178.6" stroke="rgb(0,0,0)"  stroke-width="2.0"/>
<line x1="220.0" y1="178.6" x2="260.0" y2="178.6" stroke="rgb(0,0,0)"  stroke-width="2.0"/>
<line x1="260.0" y1="178.6" x2="280.0" y2="213.2" stroke="rgb(0,0,0)"  stroke-width="2.0"/>
<line x1="280.0" y1="213.2" x2="307.0" y2="213.2" stroke="rgb(0,0,0)"  stroke-width="2.0"/>
<line x1="157.0" y1="130.9" x2="157.0" y2="116.9" stroke="rgb(0,0,0)"  stroke-width="2.0"/>
<line x1="163.0" y1="130.9" x2="163.0" y2="116.9" stroke="rgb(0,0,0)"  stroke-width="2.0"/>
<text x="154.000000" y="111.923048" fill="rgb(255,12,12)"  stroke="rgb(255,12,12)" stroke-width="1" font-size="16" >O</text>
<text x="316.000000" y="221.205081" fill="rgb(102,102,102)"  stroke="rgb(102,102,102)" stroke-width="1" font-size="16" >CH</text>
<text x="340.000000" y="224.885081" fill="rgb(102,102,102)"  stroke="rgb(102,102,102)" stroke-width="1" font-size="13" >3</text>
<text x="194.000000" y="151.923048" fill="rgb(255,12,12)"  stroke="rgb(255,12,12)" stroke-width="1" font-size="16" >O</text>
<text x="225.282032" y="311.923048" fill="rgb(102,102,102)"  stroke="rgb(102,102,102)" stroke-width="1" font-size="16" >CH</text>
<text x="249.282032" y="315.603048" fill="rgb(102,102,102)"  stroke="rgb(102,102,102)" stroke-width="1" font-size="13" >3</text>
<text x="56.000000" y="48.000000" fill="rgb(102,102,102)"  stroke="rgb(102,102,102)" stroke-width="1" font-size="16" >CH</text>
<text x="80.000000" y="51.680000" fill="rgb(102,102,102)"  stroke="rgb(102,102,102)" stroke-width="1" font-size="13" >3</text>
<text x="154.000000" y="191.923048" fill="rgb(255,12,12)"  stroke="rgb(255,12,12)" stroke-width="1" font-size="16" >O</text>
<text x="154.000000" y="151.923048" fill="rgb(255,127,0)"  stroke="rgb(255,127,0)" stroke-width="1" font-size="16" >P</text>
<text x="114.000000" y="151.923048" fill="rgb(255,12,12)"  stroke="rgb(255,12,12)" stroke-width="1" font-size="16" >O</text>
</svg>
</g>
<text font-size="18.000000" fill ="black" font-family="sans-serif"
x="10.000000" y="20.000000" ></text>
</svg>
